<?xml version="1.0" encoding="UTF-8" standalone="no"?>
<svg
   xmlns:dc="http://purl.org/dc/elements/1.1/"
   xmlns:cc="http://creativecommons.org/ns#"
   xmlns:rdf="http://www.w3.org/1999/02/22-rdf-syntax-ns#"
   xmlns:svg="http://www.w3.org/2000/svg"
   xmlns="http://www.w3.org/2000/svg"
   id="svg2"
   version="1.1"
   xml:space="preserve"
   width="142.23219"
   height="142.23216"
   viewBox="0 0 142.23219 142.23216"><metadata
     id="metadata8"><rdf:RDF><cc:Work
         rdf:about=""><dc:format>image/svg+xml</dc:format><dc:title></dc:title></cc:Work></rdf:RDF></metadata><defs
     id="defs6" /><path
     d="m 124.26635,71.116102 c 0,-29.35444 -23.79581,-53.15025 -53.150251,-53.15025 -29.354438,0 -53.15025,23.79581 -53.15025,53.15025 0,29.354398 23.795812,53.150298 53.15025,53.150298 29.354441,0 53.150251,-23.7959 53.150251,-53.150298 z"
     style="fill:none;stroke:#000000;stroke-width:0.49812499;stroke-linecap:butt;stroke-linejoin:miter;stroke-miterlimit:10;stroke-dasharray:none;stroke-opacity:1"
     id="path18" /><path
     d="m 141.98314,71.116102 c 0,-39.13928 -31.72777,-70.86703951 -70.867041,-70.86703951 -39.139275,0 -70.86703651,31.72775951 -70.86703651,70.86703951 0,39.139298 31.72776151,70.866998 70.86703651,70.866998 39.139271,0 70.867041,-31.7277 70.867041,-70.866998 z"
     style="fill:none;stroke:#000000;stroke-width:0.49812499;stroke-linecap:butt;stroke-linejoin:miter;stroke-miterlimit:10;stroke-dasharray:none;stroke-opacity:1"
     id="path20" /><path
     d="m 124.26637,71.116102 c 0,-19.56962 -23.79583,-35.4335 -53.150271,-35.4335 -29.354438,0 -53.150275,15.86388 -53.150275,35.4335 0,19.5696 23.795837,35.433498 53.150275,35.433498 29.354441,0 53.150271,-15.863898 53.150271,-35.433498 z"
     style="fill:none;stroke:#000000;stroke-width:0.49812499;stroke-linecap:butt;stroke-linejoin:miter;stroke-miterlimit:10;stroke-dasharray:none;stroke-opacity:1"
     id="path22" /><path
     d="m 113.63622,71.116102 c 0,-15.65569 -19.036634,-28.3468 -42.520121,-28.3468 -23.483487,0 -42.520125,12.69111 -42.520125,28.3468 0,15.6557 19.036637,28.3468 42.520125,28.3468 23.483487,0 42.520121,-12.6911 42.520121,-28.3468 z"
     style="fill:none;stroke:#000000;stroke-width:0.49812499;stroke-linecap:butt;stroke-linejoin:miter;stroke-miterlimit:10;stroke-dasharray:none;stroke-opacity:1"
     id="path24" /><path
     d="m 101.80247,53.399362 c -4.892371,-8.4739 -22.596908,-7.41125 -39.544733,2.37357 -16.947813,9.78481 -26.720425,24.58601 -21.828013,33.05987 4.892375,8.4739 22.596913,7.4113 39.544738,-2.3735 16.947812,-9.78484 26.720428,-24.58604 21.828008,-33.05994 z"
     style="fill:none;stroke:#000000;stroke-width:0.49812499;stroke-linecap:butt;stroke-linejoin:miter;stroke-miterlimit:10;stroke-dasharray:none;stroke-opacity:1"
     id="path26" /><path
     d="m 92.686174,58.662642 c -3.438975,-5.95647 -15.88385,-5.20953 -27.7968,1.66843 -11.912962,6.87794 -18.782312,17.28202 -15.34335,23.23853 3.438975,5.9564 15.88385,5.2095 27.7968,-1.6685 11.912962,-6.87791 18.782312,-17.28199 15.34335,-23.23846 z"
     style="fill:none;stroke:#000000;stroke-width:0.49812499;stroke-linecap:butt;stroke-linejoin:miter;stroke-miterlimit:10;stroke-dasharray:none;stroke-opacity:1"
     id="path28" /></svg>