<?xml version="1.0" encoding="UTF-8" standalone="no"?>
<svg
   xmlns:dc="http://purl.org/dc/elements/1.1/"
   xmlns:cc="http://creativecommons.org/ns#"
   xmlns:rdf="http://www.w3.org/1999/02/22-rdf-syntax-ns#"
   xmlns:svg="http://www.w3.org/2000/svg"
   xmlns="http://www.w3.org/2000/svg"
   viewBox="0 0 167.03564 71.365128"
   height="71.365128"
   width="167.03564"
   xml:space="preserve"
   version="1.1"
   id="svg2"><metadata
     id="metadata8"><rdf:RDF><cc:Work
         rdf:about=""><dc:format>image/svg+xml</dc:format><dc:title></dc:title><dc:type
           rdf:resource="http://purl.org/dc/dcmitype/StillImage" /></cc:Work></rdf:RDF></metadata><defs
     id="defs6" /><path
     d="m 124.26637,35.682562 c 0,-19.56962 -27.761785,-35.43349951 -62.008648,-35.43349951 -34.246863,0 -62.00865951,15.86387951 -62.00865951,35.43349951 0,19.5696 27.76179651,35.4335 62.00865951,35.4335 16.44265,0 32.220062,-3.7344 43.846778,-10.3782"
     style="fill:none;stroke:#000000;stroke-width:0.49812499;stroke-linecap:butt;stroke-linejoin:miter;stroke-miterlimit:10;stroke-dasharray:none;stroke-opacity:1"
     id="path20" /><g
     id="g22"
     transform="matrix(1.25,0,0,-1.25,124.26637,35.682562)"><path
       d="m 0,0 34.01617,0 c 0,5.96953 -1.57246,11.83829 -4.55723,17.00807 L 0,0"
       style="fill:#00adef;fill-opacity:1;fill-rule:nonzero;stroke:#0000ff;stroke-width:0.3985;stroke-linecap:butt;stroke-linejoin:miter;stroke-miterlimit:10;stroke-dasharray:none;stroke-opacity:1"
       id="path24" /></g><path
     d="m 124.26637,35.682562 c 0,-15.65569 -12.6911,-28.3467995 -28.346798,-28.3467995 -15.6557,0 -28.346812,12.6911095 -28.346812,28.3467995 0,15.6557 12.691112,28.3468 28.346812,28.3468"
     style="fill:none;stroke:#000000;stroke-width:0.49812499;stroke-linecap:butt;stroke-linejoin:miter;stroke-miterlimit:10;stroke-dasharray:none;stroke-opacity:1"
     id="path18" /></svg>