<?xml version="1.0" encoding="UTF-8" standalone="no"?>
<svg
   xmlns:dc="http://purl.org/dc/elements/1.1/"
   xmlns:cc="http://creativecommons.org/ns#"
   xmlns:rdf="http://www.w3.org/1999/02/22-rdf-syntax-ns#"
   xmlns:svg="http://www.w3.org/2000/svg"
   xmlns="http://www.w3.org/2000/svg"
   id="svg2"
   version="1.1"
   xml:space="preserve"
   width="226.77423"
   height="156.0193"
   viewBox="0 0 226.77423 156.0193"><metadata
     id="metadata8"><rdf:RDF><cc:Work
         rdf:about=""><dc:format>image/svg+xml</dc:format><dc:type
           rdf:resource="http://purl.org/dc/dcmitype/StillImage" /><dc:title></dc:title></cc:Work></rdf:RDF></metadata><defs
     id="defs6" /><g
     transform="matrix(1.25,0,0,-1.25,49.606687,106.41262)"
     id="g10"><g
       id="g18"><path
         id="path20"
         style="fill:none;stroke:#808080;stroke-width:0.19925;stroke-linecap:butt;stroke-linejoin:miter;stroke-miterlimit:10;stroke-dasharray:none;stroke-opacity:1"
         d="M 0,0 56.69362,0 M 0,28.3468 l 56.69362,0 M 0,56.69362 l 56.69362,0 M 0,85.03047 l 56.69362,0 M 0,0 0,85.04042 M 28.3468,0 l 0,85.04042 M 56.68365,0 l 0,85.04042" /></g><g
       id="g22"><path
         id="path24"
         style="fill:none;stroke:#808080;stroke-width:0.19925;stroke-linecap:butt;stroke-linejoin:miter;stroke-miterlimit:10;stroke-dasharray:none;stroke-opacity:1"
         d="m -39.68535,-28.34679 79.3707,0 m -79.3707,14.1734 79.3707,0 M -39.68535,0 39.68535,0 m -79.3707,14.17339 79.3707,0 m -79.3707,14.1734 79.3707,0 m -68.03214,-68.03214 0,79.3707 m 14.1734,-79.3707 0,79.3707 M 0,-39.68535 0,39.68535 m 14.17339,-79.3707 0,79.3707 m 14.1734,-79.3707 0,79.3707" /></g><path
       id="path26"
       style="fill:none;stroke:#000000;stroke-width:0.3985;stroke-linecap:butt;stroke-linejoin:miter;stroke-miterlimit:10;stroke-dasharray:none;stroke-opacity:1"
       d="M 0,0 C 14.17339,0 25.15768,32.95288 28.3468,42.5202 31.5359,32.9529 42.5202,0 56.69362,0" /><path
       id="path28"
       style="fill:none;stroke:#000000;stroke-width:0.3985;stroke-linecap:butt;stroke-linejoin:miter;stroke-miterlimit:10;stroke-dasharray:none;stroke-opacity:1"
       d="m 0,0 c 9.02316,14.17339 18.00092,28.3468 28.3468,28.3468 10.34587,0 19.32363,-14.1734 28.34682,-28.3468 9.02316,-14.17339 18.00091,-28.3468 28.3468,-28.3468 10.34587,0 19.32364,14.1734 28.34682,28.3468 9.02316,14.17339 18.00091,28.3468 28.3468,28.3468" /></g></svg>