<?xml version="1.0" encoding="UTF-8" standalone="no"?>
<svg
   xmlns:dc="http://purl.org/dc/elements/1.1/"
   xmlns:cc="http://creativecommons.org/ns#"
   xmlns:rdf="http://www.w3.org/1999/02/22-rdf-syntax-ns#"
   xmlns:svg="http://www.w3.org/2000/svg"
   xmlns="http://www.w3.org/2000/svg"
   id="svg2"
   version="1.1"
   xml:space="preserve"
   width="347.74609"
   height="28.8445"
   viewBox="0 0 347.74609 28.8445"><metadata
     id="metadata8"><rdf:RDF><cc:Work
         rdf:about=""><dc:format>image/svg+xml</dc:format><dc:type
           rdf:resource="http://purl.org/dc/dcmitype/StillImage" /><dc:title></dc:title></cc:Work></rdf:RDF></metadata><defs
     id="defs6" /><g
     id="g10"
     transform="matrix(1.25,0,0,-1.25,14.42225,14.42225)"><path
       id="path18"
       style="fill:none;stroke:#000000;stroke-width:0.3985;stroke-linecap:butt;stroke-linejoin:miter;stroke-miterlimit:10;stroke-dasharray:none;stroke-opacity:1"
       d="M 11.33855,0 C 11.33855,6.26218 6.26218,11.33855 0,11.33855 -6.26218,11.33855 -11.33855,6.26218 -11.33855,0 c 0,-6.26218 5.07637,-11.33855 11.33855,-11.33855 6.26218,0 11.33855,5.07637 11.33855,11.33855 z" /><path
       id="path20"
       style="fill:none;stroke:#000000;stroke-width:0.3985;stroke-linecap:butt;stroke-linejoin:miter;stroke-miterlimit:10;stroke-dasharray:none;stroke-opacity:1"
       d="m 39.68535,0 c 0,6.26218 -5.07637,11.33855 -11.33855,11.33855 -6.26217,0 -11.33854,-5.07637 -11.33854,-11.33855 0,-6.26218 5.07637,-11.33855 11.33854,-11.33855 6.26218,0 11.33855,5.07637 11.33855,11.33855 z" /><path
       id="path22"
       style="fill:none;stroke:#000000;stroke-width:0.3985;stroke-linecap:butt;stroke-linejoin:miter;stroke-miterlimit:10;stroke-dasharray:none;stroke-opacity:1"
       d="m 68.03217,0 c 0,6.26218 -5.07637,11.33855 -11.33855,11.33855 -6.26219,0 -11.33855,-5.07637 -11.33855,-11.33855 0,-6.26218 5.07636,-11.33855 11.33855,-11.33855 6.26218,0 11.33855,5.07637 11.33855,11.33855 z" /><path
       id="path24"
       style="fill:none;stroke:#000000;stroke-width:0.3985;stroke-linecap:butt;stroke-linejoin:miter;stroke-miterlimit:10;stroke-dasharray:none;stroke-opacity:1"
       d="m 96.37897,0 c 0,6.26218 -5.07637,11.33855 -11.33855,11.33855 -6.26218,0 -11.33855,-5.07637 -11.33855,-11.33855 0,-6.26218 5.07637,-11.33855 11.33855,-11.33855 6.26218,0 11.33855,5.07637 11.33855,11.33855 z" /><path
       id="path26"
       style="fill:none;stroke:#000000;stroke-width:0.3985;stroke-linecap:butt;stroke-linejoin:miter;stroke-miterlimit:10;stroke-dasharray:none;stroke-opacity:1"
       d="m 124.72578,0 c 0,6.26218 -5.07637,11.33855 -11.33854,11.33855 -6.26219,0 -11.33855,-5.07637 -11.33855,-11.33855 0,-6.26218 5.07636,-11.33855 11.33855,-11.33855 6.26217,0 11.33854,5.07637 11.33854,11.33855 z" /><path
       id="path28"
       style="fill:none;stroke:#000000;stroke-width:0.3985;stroke-linecap:butt;stroke-linejoin:miter;stroke-miterlimit:10;stroke-dasharray:none;stroke-opacity:1"
       d="m 153.07259,0 c 0,6.26218 -5.07637,11.33855 -11.33855,11.33855 -6.26218,0 -11.33854,-5.07637 -11.33854,-11.33855 0,-6.26218 5.07636,-11.33855 11.33854,-11.33855 6.26218,0 11.33855,5.07637 11.33855,11.33855 z" /><path
       id="path30"
       style="fill:none;stroke:#000000;stroke-width:0.3985;stroke-linecap:butt;stroke-linejoin:miter;stroke-miterlimit:10;stroke-dasharray:none;stroke-opacity:1"
       d="m 181.4194,0 c 0,6.26218 -5.07637,11.33855 -11.33854,11.33855 -6.2622,0 -11.33855,-5.07637 -11.33855,-11.33855 0,-6.26218 5.07635,-11.33855 11.33855,-11.33855 6.26217,0 11.33854,5.07637 11.33854,11.33855 z" /><path
       id="path32"
       style="fill:none;stroke:#000000;stroke-width:0.3985;stroke-linecap:butt;stroke-linejoin:miter;stroke-miterlimit:10;stroke-dasharray:none;stroke-opacity:1"
       d="m 209.7662,0 c 0,6.26218 -5.07635,11.33855 -11.33854,11.33855 -6.26218,0 -11.33855,-5.07637 -11.33855,-11.33855 0,-6.26218 5.07637,-11.33855 11.33855,-11.33855 6.26219,0 11.33854,5.07637 11.33854,11.33855 z" /><path
       id="path34"
       style="fill:none;stroke:#000000;stroke-width:0.3985;stroke-linecap:butt;stroke-linejoin:miter;stroke-miterlimit:10;stroke-dasharray:none;stroke-opacity:1"
       d="m 238.11302,0 c 0,6.26218 -5.07637,11.33855 -11.33854,11.33855 -6.2622,0 -11.33855,-5.07637 -11.33855,-11.33855 0,-6.26218 5.07635,-11.33855 11.33855,-11.33855 6.26217,0 11.33854,5.07637 11.33854,11.33855 z" /><path
       id="path36"
       style="fill:none;stroke:#000000;stroke-width:0.3985;stroke-linecap:butt;stroke-linejoin:miter;stroke-miterlimit:10;stroke-dasharray:none;stroke-opacity:1"
       d="m 266.45982,0 c 0,6.26218 -5.07635,11.33855 -11.33854,11.33855 -6.26218,0 -11.33855,-5.07637 -11.33855,-11.33855 0,-6.26218 5.07637,-11.33855 11.33855,-11.33855 6.26219,0 11.33854,5.07637 11.33854,11.33855 z" /></g></svg>