<?xml version="1.0" encoding="UTF-8" standalone="no"?>
<svg
   xmlns:dc="http://purl.org/dc/elements/1.1/"
   xmlns:cc="http://creativecommons.org/ns#"
   xmlns:rdf="http://www.w3.org/1999/02/22-rdf-syntax-ns#"
   xmlns:svg="http://www.w3.org/2000/svg"
   xmlns="http://www.w3.org/2000/svg"
   id="svg2"
   version="1.1"
   xml:space="preserve"
   width="155.90712"
   height="151.01511"
   viewBox="0 0 155.90712 151.01511"><metadata
     id="metadata8"><rdf:RDF><cc:Work
         rdf:about=""><dc:format>image/svg+xml</dc:format><dc:title></dc:title></cc:Work></rdf:RDF></metadata><defs
     id="defs6" /><g
     transform="matrix(1.25,0,0,-1.25,77.9536,148.82055)"
     id="g16"><g
       id="g18"><path
         id="path20"
         style="fill:none;stroke:#808080;stroke-width:0.19925;stroke-linecap:butt;stroke-linejoin:miter;stroke-miterlimit:10;stroke-dasharray:none;stroke-opacity:1"
         d="M -56.69362,0 56.69362,0 m -113.38724,28.3468 113.38724,0 m -113.38724,28.34682 113.38724,0 m -113.38724,28.3468 113.38724,0 m -113.38724,28.33685 113.38724,0 M -56.69362,0 l 0,113.38724 M -28.3468,0 l 0,113.38724 M 0,0 0,113.38724 M 28.3468,0 l 0,113.38724 M 56.68365,0 l 0,113.38724" /></g><path
       id="path22"
       style="fill:none;stroke:#000000;stroke-width:0.3985;stroke-linecap:butt;stroke-linejoin:miter;stroke-miterlimit:10;stroke-dasharray:none;stroke-opacity:1"
       d="M -62.36288,0 61.9046,0" /><g
       transform="translate(61.9046,0)"
       id="g24"><g
         id="g26"><path
           id="path28"
           style="fill:none;stroke:#000000;stroke-width:0.31878999;stroke-linecap:round;stroke-linejoin:round;stroke-miterlimit:10;stroke-dasharray:none;stroke-opacity:1"
           d="M -1.19551,1.59401 C -1.09587,0.99626 0,0.09961 0.29886,0 0,-0.09961 -1.09587,-0.99626 -1.19551,-1.59401" /></g></g><path
       id="path30"
       style="fill:none;stroke:#000000;stroke-width:0.3985;stroke-linecap:butt;stroke-linejoin:miter;stroke-miterlimit:10;stroke-dasharray:none;stroke-opacity:1"
       d="M 0,0 0,118.59822" /><g
       transform="matrix(0,1,-1,0,0,118.59822)"
       id="g32"><g
         id="g34"><path
           id="path36"
           style="fill:none;stroke:#000000;stroke-width:0.31878999;stroke-linecap:round;stroke-linejoin:round;stroke-miterlimit:10;stroke-dasharray:none;stroke-opacity:1"
           d="M -1.19551,1.59401 C -1.09587,0.99626 0,0.09961 0.29886,0 0,-0.09961 -1.09587,-0.99626 -1.19551,-1.59401" /></g></g><g
       id="g38"><path
         id="path40"
         style="fill:none;stroke:#00ff00;stroke-width:0.79701;stroke-linecap:butt;stroke-linejoin:miter;stroke-miterlimit:10;stroke-dasharray:none;stroke-opacity:1"
         d="m -56.69362,0 4.72418,18.10948 4.72419,16.53507 4.72418,14.95976 4.72418,13.38574 4.72418,11.8109 4.72418,10.23601 4.72419,8.66201 4.72416,7.08669 4.72418,5.51227 4.72419,3.93782 4.72418,2.3634 4.72418,0.78809 4.72415,-0.78594 4.72419,-2.36079 4.72416,-3.93567 4.72418,-5.50966 4.72419,-7.08498 4.72418,-8.6594 4.72418,-10.23386 4.72418,-11.80827 4.72418,-13.38359 4.72419,-14.95761 4.72417,-16.53246 4.72418,-18.10735" /></g><path
       id="path42"
       style="fill:none;stroke:#000000;stroke-width:0.3985;stroke-linecap:butt;stroke-linejoin:miter;stroke-miterlimit:10;stroke-dasharray:none;stroke-opacity:1"
       d="m -56.69362,56.69318 2.31366,-0.92737 2.31365,-2.72023 2.31365,-4.33403 2.31363,-5.66669 2.31365,-6.6282 2.31366,-7.15505 2.31364,-7.21387 2.31363,-6.80296 2.31366,-5.94696 2.31365,-4.70125 2.31362,-3.14714 2.31366,-1.38888 2.31365,0.45977 2.31364,2.28121 2.31365,3.9508 2.31364,5.36174 2.31366,6.42449 2.31365,7.06552 2.31363,7.24414 2.31366,6.95044 2.31364,6.20174 2.31363,5.04728 2.31366,3.56282 2.31365,1.8452 2.3136,0.0078 2.31365,-1.8305 2.31365,-3.55027 2.31366,-5.03693 2.31364,-6.1935 2.31363,-6.94657 2.31366,-7.24327 2.31364,-7.0694 2.31363,-6.43054 2.31366,-5.37254 2.31365,-3.96337 2.31364,-2.29461 2.31364,-0.47492 2.31365,1.37374 2.31366,3.13374 2.31364,4.69 2.31363,5.9379 2.31366,6.79819 2.31365,7.21212 2.31363,7.15809 2.31366,6.63384 2.31364,5.67577 2.31364,4.34656 2.31365,2.73364 2.31364,0.94208" /></g></svg>