<?xml version="1.0" encoding="UTF-8" standalone="no"?>
<!-- Created with Inkscape (http://www.inkscape.org/) -->

<svg
   xmlns:dc="http://purl.org/dc/elements/1.1/"
   xmlns:cc="http://creativecommons.org/ns#"
   xmlns:rdf="http://www.w3.org/1999/02/22-rdf-syntax-ns#"
   xmlns:svg="http://www.w3.org/2000/svg"
   xmlns="http://www.w3.org/2000/svg"
   xmlns:sodipodi="http://sodipodi.sourceforge.net/DTD/sodipodi-0.dtd"
   xmlns:inkscape="http://www.inkscape.org/namespaces/inkscape"
   width="20.280636mm"
   height="31.489256mm"
   viewBox="0 0 71.860521 111.5761"
   id="svg11248"
   version="1.1"
   inkscape:version="0.91 r13725"
   sodipodi:docname="Tikz_Tutorial_-_example_1.svg">
  <defs
     id="defs11250" />
  <sodipodi:namedview
     id="base"
     pagecolor="#ffffff"
     bordercolor="#666666"
     borderopacity="1.0"
     inkscape:pageopacity="0.0"
     inkscape:pageshadow="2"
     inkscape:zoom="0.35"
     inkscape:cx="-1061.9269"
     inkscape:cy="515.78805"
     inkscape:document-units="px"
     inkscape:current-layer="layer1"
     showgrid="false"
     fit-margin-top="0"
     fit-margin-left="0"
     fit-margin-right="0"
     fit-margin-bottom="0"
     inkscape:window-width="1366"
     inkscape:window-height="706"
     inkscape:window-x="-8"
     inkscape:window-y="-8"
     inkscape:window-maximized="1" />
  <metadata
     id="metadata11253">
    <rdf:RDF>
      <cc:Work
         rdf:about="">
        <dc:format>image/svg+xml</dc:format>
        <dc:type
           rdf:resource="http://purl.org/dc/dcmitype/StillImage" />
        <dc:title></dc:title>
      </cc:Work>
    </rdf:RDF>
  </metadata>
  <g
     inkscape:label="Layer 1"
     inkscape:groupmode="layer"
     id="layer1"
     transform="translate(-1001.2126,-936.57415)">
    <g
       id="surface81052"
       transform="matrix(1.25,0,0,1.2500001,1001.2127,931.99782)">
      <path
         id="path11799"
         transform="matrix(1,0,0,-1,0.398,92.524)"
         d="m 4.375e-4,5.625e-4 0,48.7226565 c 0,4.402344 2.2382815,10.769531 5.0039065,14.222656 l 18.339844,22.925781 c 2.761718,3.457032 7.242187,3.457032 10.007812,0 L 51.691844,62.945875 c 2.761718,-3.453125 5,-9.820312 5,-14.222656 l 0,-40.753906 c 0,-4.402344 -2.519532,-5.445313 -5.632813,-2.332032 L 5.637156,51.059156 c -3.113281,3.109375 -2.070312,5.632813 2.332032,5.632813 l 40.753906,0 c 4.402343,0 5.449218,-2.523438 2.335937,-5.632813 L 5.637156,5.637281 C 2.523875,2.524 3.566844,5.625e-4 7.969188,5.625e-4 l 48.722656,0"
         style="fill:none;stroke:#000000;stroke-width:0.79701;stroke-linecap:butt;stroke-linejoin:miter;stroke-miterlimit:10;stroke-opacity:1"
         inkscape:connector-curvature="0" />
    </g>
  </g>
</svg>
