<?xml version="1.0" encoding="UTF-8" standalone="no"?>
<svg
   xmlns:dc="http://purl.org/dc/elements/1.1/"
   xmlns:cc="http://creativecommons.org/ns#"
   xmlns:rdf="http://www.w3.org/1999/02/22-rdf-syntax-ns#"
   xmlns:svg="http://www.w3.org/2000/svg"
   xmlns="http://www.w3.org/2000/svg"
   xmlns:sodipodi="http://sodipodi.sourceforge.net/DTD/sodipodi-0.dtd"
   xmlns:inkscape="http://www.inkscape.org/namespaces/inkscape"
   width="177.56125"
   height="59.4725"
   viewBox="0 0 142.049 47.578"
   id="svg2"
   version="1.1"
   inkscape:version="0.48.0 r9654"
   sodipodi:docname="latex_source_code.ps(converted)-page1.svg">
  <metadata
     id="metadata332">
    <rdf:RDF>
      <cc:Work
         rdf:about="">
        <dc:format>image/svg+xml</dc:format>
        <dc:type
           rdf:resource="http://purl.org/dc/dcmitype/StillImage" />
        <dc:title></dc:title>
      </cc:Work>
    </rdf:RDF>
  </metadata>
  <defs
     id="defs330" />
  <sodipodi:namedview
     pagecolor="#ffffff"
     bordercolor="#666666"
     borderopacity="1"
     objecttolerance="10"
     gridtolerance="10"
     guidetolerance="10"
     inkscape:pageopacity="0"
     inkscape:pageshadow="2"
     inkscape:window-width="640"
     inkscape:window-height="480"
     id="namedview328"
     showgrid="false"
     fit-margin-top="2"
     fit-margin-right="2"
     fit-margin-bottom="2"
     fit-margin-left="2"
     inkscape:zoom="0.24418052"
     inkscape:cx="206.98875"
     inkscape:cy="-307.96125"
     inkscape:window-x="0"
     inkscape:window-y="24"
     inkscape:window-maximized="0"
     inkscape:current-layer="svg2" />
  <g
     transform="translate(1.6,1.61)"
     style="fill:#161413;fill-rule:evenodd;stroke:none"
     id="g4">
    <path
       d="m 2.7,0.608 c 0,0 1.315,0 1.315,0 0,0 0,0.528 0,0.528 0,0.189 0,0.408 0.338,0.408 0.349,0 0.349,-0.209 0.349,-0.408 0,0 0,-0.728 0,-0.728 C 4.702,0.1 4.642,0 4.303,0 4.303,0 0.409,0 0.409,0 0.08,0 0,0.079 0,0.408 c 0,0 0,0.728 0,0.728 0,0.189 0,0.408 0.339,0.408 0.348,0 0.348,-0.209 0.348,-0.408 0,0 0,-0.528 0,-0.528 0,0 1.325,0 1.325,0 0,0 0,4.872 0,4.872 0,0 -0.517,0 -0.517,0 -0.15,0 -0.4,0 -0.4,0.298 0,0.309 0.24,0.309 0.4,0.309 0,0 1.723,0 1.723,0 0.149,0 0.398,0 0.398,-0.299 0,-0.308 -0.238,-0.308 -0.398,-0.308 0,0 -0.518,0 -0.518,0 0,0 0,-4.872 0,-4.872 z"
       id="path6"
       inkscape:connector-curvature="0" />
  </g>
  <g
     transform="translate(6.71,1.61)"
     style="fill:#161413;fill-rule:evenodd;stroke:none"
     id="g8">
    <path
       d="m 4.135,3.168 c 0,-1.006 -0.508,-1.435 -1.295,-1.435 -0.668,0 -1.116,0.339 -1.306,0.529 0,0 0,-1.854 0,-1.854 C 1.534,0.1 1.475,0 1.136,0 1.136,0 0.409,0 0.409,0 0.249,0 0,0 0,0.309 c 0,0.299 0.26,0.299 0.399,0.299 0,0 0.449,0 0.449,0 0,0 0,4.872 0,4.872 0,0 -0.439,0 -0.439,0 -0.16,0 -0.409,0 -0.409,0.308 0,0.299 0.26,0.299 0.399,0.299 0,0 1.585,0 1.585,0 0.138,0 0.398,0 0.398,-0.299 0,-0.308 -0.249,-0.308 -0.409,-0.308 0,0 -0.439,0 -0.439,0 0,0 0,-1.764 0,-1.764 0,-0.996 0.738,-1.375 1.246,-1.375 0.528,0 0.667,0.279 0.667,0.877 0,0 0,2.262 0,2.262 0,0 -0.388,0 -0.388,0 -0.159,0 -0.408,0 -0.408,0.308 0,0.299 0.269,0.299 0.408,0.299 0,0 1.524,0 1.524,0 0.14,0 0.399,0 0.399,-0.299 0,-0.308 -0.249,-0.308 -0.409,-0.308 0,0 -0.438,0 -0.438,0 0,0 0,-2.312 0,-2.312 z"
       id="path10"
       inkscape:connector-curvature="0" />
  </g>
  <g
     transform="translate(12.389,3.313)"
     style="fill:#161413;fill-rule:evenodd;stroke:none"
     id="g12">
    <path
       d="m 3.677,2.481 c 0.209,0 0.398,0 0.398,-0.368 C 4.075,0.977 3.437,0 2.141,0 0.956,0 0,0.996 0,2.222 0,3.438 1.006,4.444 2.291,4.444 3.606,4.444 4.075,3.547 4.075,3.298 4.075,3.019 3.786,3.019 3.726,3.019 3.547,3.019 3.467,3.049 3.397,3.238 3.178,3.746 2.64,3.836 2.361,3.836 1.614,3.836 0.867,3.338 0.707,2.481 c 0,0 2.97,0 2.97,0 z M 0.718,1.883 C 0.856,1.156 1.444,0.609 2.141,0.609 c 0.519,0 1.136,0.249 1.226,1.274 0,0 -2.649,0 -2.649,0 z"
       id="path14"
       inkscape:connector-curvature="0" />
  </g>
  <g
     transform="translate(22.58,3.403)"
     style="fill:#161413;fill-rule:evenodd;stroke:none"
     id="g16">
    <path
       d="m 4.045,0.607 c 0,0 0.299,0 0.299,0 0.149,0 0.398,0 0.398,-0.298 C 4.742,0 4.503,0 4.344,0 4.344,0 3.178,0 3.178,0 3.029,0 2.78,0 2.78,0.299 c 0,0.308 0.239,0.308 0.398,0.308 0,0 0.279,0 0.279,0 0,0 -1.086,3.208 -1.086,3.208 0,0 -1.086,-3.208 -1.086,-3.208 0,0 0.28,0 0.28,0 0.149,0 0.398,0 0.398,-0.298 C 1.963,0 1.724,0 1.565,0 1.565,0 0.399,0 0.399,0 0.24,0 0,0 0,0.309 c 0,0.298 0.249,0.298 0.399,0.298 0,0 0.299,0 0.299,0 0,0 1.145,3.388 1.145,3.388 0.12,0.339 0.319,0.339 0.528,0.339 0.19,0 0.418,0 0.529,-0.329 0,0 1.145,-3.398 1.145,-3.398 z"
       id="path18"
       inkscape:connector-curvature="0" />
  </g>
  <g
     transform="translate(28.139,3.313)"
     style="fill:#161413;fill-rule:evenodd;stroke:none"
     id="g20">
    <path
       d="m 3.677,2.481 c 0.209,0 0.398,0 0.398,-0.368 C 4.075,0.977 3.437,0 2.141,0 0.956,0 0,0.996 0,2.222 0,3.438 1.006,4.444 2.291,4.444 3.606,4.444 4.075,3.547 4.075,3.298 4.075,3.019 3.786,3.019 3.726,3.019 3.547,3.019 3.467,3.049 3.397,3.238 3.178,3.746 2.64,3.836 2.361,3.836 1.614,3.836 0.867,3.338 0.707,2.481 c 0,0 2.97,0 2.97,0 z M 0.718,1.883 C 0.856,1.156 1.444,0.609 2.141,0.609 c 0.519,0 1.136,0.249 1.226,1.274 0,0 -2.649,0 -2.649,0 z"
       id="path22"
       inkscape:connector-curvature="0" />
  </g>
  <g
     transform="translate(33.159,3.343)"
     style="fill:#161413;fill-rule:evenodd;stroke:none"
     id="g24">
    <path
       d="m 1.894,2.5 c 0,-0.935 0.588,-1.892 1.793,-1.892 0.01,0.239 0.18,0.438 0.429,0.438 0.218,0 0.418,-0.159 0.418,-0.428 C 4.534,0.418 4.414,0 3.587,0 3.079,0 2.442,0.179 1.894,0.807 c 0,0 0,-0.339 0,-0.339 0,-0.308 -0.06,-0.408 -0.399,-0.408 0,0 -1.095,0 -1.095,0 -0.15,0 -0.4,0 -0.4,0.299 0,0.308 0.24,0.308 0.4,0.308 0,0 0.806,0 0.806,0 0,0 0,3.08 0,3.08 0,0 -0.806,0 -0.806,0 -0.15,0 -0.4,0 -0.4,0.298 0,0.309 0.24,0.309 0.4,0.309 0,0 2.599,0 2.599,0 0.15,0 0.409,0 0.409,-0.299 0,-0.308 -0.259,-0.308 -0.409,-0.308 0,0 -1.105,0 -1.105,0 0,0 0,-1.247 0,-1.247 z"
       id="path26"
       inkscape:connector-curvature="0" />
  </g>
  <g
     transform="translate(38.21,1.61)"
     style="fill:#161413;fill-rule:evenodd;stroke:none"
     id="g28">
    <path
       d="m 1.534,2.222 c 0,0 0,-1.814 0,-1.814 C 1.534,0.1 1.475,0 1.136,0 1.136,0 0.409,0 0.409,0 0.249,0 0,0 0,0.309 c 0,0.299 0.26,0.299 0.399,0.299 0,0 0.449,0 0.449,0 0,0 0,5.071 0,5.071 0,0.199 0,0.408 0.348,0.408 0.338,0 0.338,-0.199 0.338,-0.448 C 1.943,6.057 2.371,6.147 2.691,6.147 3.777,6.147 4.742,5.2 4.742,3.935 4.742,2.71 3.856,1.733 2.8,1.733 2.321,1.733 1.873,1.912 1.534,2.222 z m 0,1.962 c 0,0 0,-0.727 0,-0.727 0,-0.588 0.578,-1.116 1.206,-1.116 0.738,0 1.316,0.727 1.316,1.594 0,0.957 -0.698,1.604 -1.396,1.604 -0.776,0 -1.126,-0.877 -1.126,-1.355 z"
       id="path30"
       inkscape:connector-curvature="0" />
  </g>
  <g
     transform="translate(43.889,3.313)"
     style="fill:#161413;fill-rule:evenodd;stroke:none"
     id="g32">
    <path
       d="m 3.098,4.066 c 0.219,0.308 0.698,0.318 1.077,0.318 0.278,0 0.498,0 0.498,-0.309 0,-0.298 -0.249,-0.298 -0.399,-0.298 -0.419,0 -0.518,-0.05 -0.597,-0.081 0,0 0,-2.151 0,-2.151 C 3.677,0.837 3.139,0 1.704,0 1.275,0 0.259,0 0.259,0.728 c 0,0.299 0.21,0.458 0.448,0.458 0.149,0 0.429,-0.09 0.438,-0.458 0,-0.08 0.01,-0.09 0.21,-0.11 0.139,-0.009 0.269,-0.009 0.359,-0.009 0.757,0 1.275,0.308 1.275,1.015 C 1.225,1.655 0,2.153 0,3.109 c 0,0.687 0.628,1.335 1.643,1.335 0.37,0 0.987,-0.07 1.455,-0.378 z M 2.989,2.212 c 0,0 0,0.837 0,0.837 0,0.23 0,0.439 -0.389,0.617 -0.359,0.17 -0.807,0.17 -0.886,0.17 -0.618,0 -1.027,-0.339 -1.027,-0.727 0,-0.489 0.857,-0.857 2.302,-0.897 z"
       id="path34"
       inkscape:connector-curvature="0" />
  </g>
  <g
     transform="translate(48.84,2.177)"
     style="fill:#161413;fill-rule:evenodd;stroke:none"
     id="g36">
    <path
       d="m 1.963,1.833 c 0,0 1.634,0 1.634,0 0.149,0 0.398,0 0.398,-0.298 0,-0.309 -0.239,-0.309 -0.398,-0.309 0,0 -1.634,0 -1.634,0 0,0 0,-0.816 0,-0.816 C 1.963,0.22 1.963,0 1.624,0 1.275,0 1.275,0.209 1.275,0.41 c 0,0 0,0.816 0,0.816 0,0 -0.867,0 -0.867,0 -0.159,0 -0.408,0 -0.408,0.309 0,0.298 0.249,0.298 0.398,0.298 0,0 0.877,0 0.877,0 0,0 0,2.432 0,2.432 0,0.956 0.678,1.315 1.405,1.315 0.737,0 1.545,-0.428 1.545,-1.315 0,-0.18 0,-0.389 -0.349,-0.389 -0.329,0 -0.339,0.209 -0.339,0.378 C 3.526,4.873 2.959,4.972 2.73,4.972 1.963,4.972 1.963,4.454 1.963,4.205 c 0,0 0,-2.372 0,-2.372 z"
       id="path38"
       inkscape:connector-curvature="0" />
  </g>
  <g
     transform="translate(54.618,1.6)"
     style="fill:#161413;fill-rule:evenodd;stroke:none"
     id="g40">
    <path
       d="m 2.301,2.211 c 0,-0.308 -0.059,-0.408 -0.398,-0.408 0,0 -1.414,0 -1.414,0 -0.15,0 -0.41,0 -0.41,0.299 0,0.308 0.26,0.308 0.41,0.308 0,0 1.125,0 1.125,0 0,0 0,3.08 0,3.08 0,0 -1.205,0 -1.205,0 -0.16,0 -0.409,0 -0.409,0.308 0,0.299 0.259,0.299 0.409,0.299 0,0 2.939,0 2.939,0 0.149,0 0.408,0 0.408,-0.299 0,-0.308 -0.259,-0.308 -0.408,-0.308 0,0 -1.047,0 -1.047,0 0,0 0,-3.279 0,-3.279 z m 0,-1.713 C 2.301,0.219 2.082,0 1.803,0 1.525,0 1.305,0.219 1.305,0.498 c 0,0.279 0.22,0.498 0.498,0.498 0.279,0 0.498,-0.219 0.498,-0.498 z"
       id="path42"
       inkscape:connector-curvature="0" />
  </g>
  <g
     transform="translate(59.301,3.343)"
     style="fill:#161413;fill-rule:evenodd;stroke:none"
     id="g44">
    <path
       d="M 1.126,0.359 C 1.106,0.06 0.907,0.06 0.728,0.06 c 0,0 -0.32,0 -0.32,0 C 0.259,0.06 0,0.06 0,0.359 c 0,0.308 0.209,0.308 0.568,0.308 0,0 0,3.08 0,3.08 -0.359,0 -0.568,0 -0.568,0.308 0,0.299 0.269,0.299 0.408,0.299 0,0 0.877,0 0.877,0 0.15,0 0.408,0 0.408,-0.299 0,-0.308 -0.209,-0.308 -0.567,-0.308 0,0 0,-1.784 0,-1.784 0,-0.886 0.408,-1.355 0.817,-1.355 0.229,0 0.368,0.17 0.368,0.817 0,0 0,2.322 0,2.322 -0.189,0 -0.438,0 -0.438,0.308 0,0.299 0.27,0.299 0.408,0.299 0,0 0.748,0 0.748,0 0.15,0 0.408,0 0.408,-0.299 0,-0.308 -0.209,-0.308 -0.568,-0.308 0,0 0,-1.784 0,-1.784 0,-0.886 0.409,-1.355 0.817,-1.355 0.229,0 0.369,0.17 0.369,0.817 0,0 0,2.322 0,2.322 -0.19,0 -0.439,0 -0.439,0.308 0,0.299 0.27,0.299 0.409,0.299 0,0 0.747,0 0.747,0 0.15,0 0.409,0 0.409,-0.299 0,-0.308 -0.209,-0.308 -0.568,-0.308 0,0 0,-2.412 0,-2.412 C 4.613,1.136 4.613,0 3.727,0 3.428,0 3.019,0.129 2.74,0.518 2.591,0.179 2.311,0 1.982,0 1.664,0 1.365,0.14 1.126,0.359 z"
       id="path46"
       inkscape:connector-curvature="0" />
  </g>
  <g
     transform="translate(69.889,3.313)"
     style="fill:#161413;fill-rule:evenodd;stroke:none"
     id="g48">
    <path
       d="m 3.677,2.481 c 0.209,0 0.398,0 0.398,-0.368 C 4.075,0.977 3.437,0 2.141,0 0.956,0 0,0.996 0,2.222 0,3.438 1.006,4.444 2.291,4.444 3.606,4.444 4.075,3.547 4.075,3.298 4.075,3.019 3.786,3.019 3.726,3.019 3.547,3.019 3.467,3.049 3.397,3.238 3.178,3.746 2.64,3.836 2.361,3.836 1.614,3.836 0.867,3.338 0.707,2.481 c 0,0 2.97,0 2.97,0 z M 0.718,1.883 C 0.856,1.156 1.444,0.609 2.141,0.609 c 0.519,0 1.136,0.249 1.226,1.274 0,0 -2.649,0 -2.649,0 z"
       id="path50"
       inkscape:connector-curvature="0" />
  </g>
  <g
     transform="translate(74.71,3.343)"
     style="fill:#161413;fill-rule:evenodd;stroke:none"
     id="g52">
    <path
       d="m 1.534,0.529 c 0,-0.32 0,-0.469 -0.398,-0.469 0,0 -0.727,0 -0.727,0 -0.16,0 -0.409,0 -0.409,0.309 0,0.298 0.26,0.298 0.399,0.298 0,0 0.449,0 0.449,0 0,0 0,3.08 0,3.08 0,0 -0.439,0 -0.439,0 -0.16,0 -0.409,0 -0.409,0.308 0,0.299 0.26,0.299 0.399,0.299 0,0 1.585,0 1.585,0 0.138,0 0.398,0 0.398,-0.299 0,-0.308 -0.249,-0.308 -0.409,-0.308 0,0 -0.439,0 -0.439,0 0,0 0,-1.764 0,-1.764 0,-0.996 0.738,-1.375 1.246,-1.375 0.528,0 0.667,0.279 0.667,0.877 0,0 0,2.262 0,2.262 0,0 -0.388,0 -0.388,0 -0.159,0 -0.408,0 -0.408,0.308 0,0.299 0.269,0.299 0.408,0.299 0,0 1.524,0 1.524,0 0.14,0 0.399,0 0.399,-0.299 0,-0.308 -0.249,-0.308 -0.409,-0.308 0,0 -0.438,0 -0.438,0 0,0 0,-2.312 0,-2.312 C 4.135,0.429 3.627,0 2.84,0 2.172,0 1.724,0.339 1.534,0.529 z"
       id="path54"
       inkscape:connector-curvature="0" />
  </g>
  <g
     transform="translate(80.08,3.403)"
     style="fill:#161413;fill-rule:evenodd;stroke:none"
     id="g56">
    <path
       d="m 4.045,0.607 c 0,0 0.299,0 0.299,0 0.149,0 0.398,0 0.398,-0.298 C 4.742,0 4.503,0 4.344,0 4.344,0 3.178,0 3.178,0 3.029,0 2.78,0 2.78,0.299 c 0,0.308 0.239,0.308 0.398,0.308 0,0 0.279,0 0.279,0 0,0 -1.086,3.208 -1.086,3.208 0,0 -1.086,-3.208 -1.086,-3.208 0,0 0.28,0 0.28,0 0.149,0 0.398,0 0.398,-0.298 C 1.963,0 1.724,0 1.565,0 1.565,0 0.399,0 0.399,0 0.24,0 0,0 0,0.309 c 0,0.298 0.249,0.298 0.399,0.298 0,0 0.299,0 0.299,0 0,0 1.145,3.388 1.145,3.388 0.12,0.339 0.319,0.339 0.528,0.339 0.19,0 0.418,0 0.529,-0.329 0,0 1.145,-3.398 1.145,-3.398 z"
       id="path58"
       inkscape:connector-curvature="0" />
  </g>
  <g
     transform="translate(85.868,1.6)"
     style="fill:#161413;fill-rule:evenodd;stroke:none"
     id="g60">
    <path
       d="m 2.301,2.211 c 0,-0.308 -0.059,-0.408 -0.398,-0.408 0,0 -1.414,0 -1.414,0 -0.15,0 -0.41,0 -0.41,0.299 0,0.308 0.26,0.308 0.41,0.308 0,0 1.125,0 1.125,0 0,0 0,3.08 0,3.08 0,0 -1.205,0 -1.205,0 -0.16,0 -0.409,0 -0.409,0.308 0,0.299 0.259,0.299 0.409,0.299 0,0 2.939,0 2.939,0 0.149,0 0.408,0 0.408,-0.299 0,-0.308 -0.259,-0.308 -0.408,-0.308 0,0 -1.047,0 -1.047,0 0,0 0,-3.279 0,-3.279 z m 0,-1.713 C 2.301,0.219 2.082,0 1.803,0 1.525,0 1.305,0.219 1.305,0.498 c 0,0.279 0.22,0.498 0.498,0.498 0.279,0 0.498,-0.219 0.498,-0.498 z"
       id="path62"
       inkscape:connector-curvature="0" />
  </g>
  <g
     transform="translate(90.659,3.343)"
     style="fill:#161413;fill-rule:evenodd;stroke:none"
     id="g64">
    <path
       d="m 1.894,2.5 c 0,-0.935 0.588,-1.892 1.793,-1.892 0.01,0.239 0.18,0.438 0.429,0.438 0.218,0 0.418,-0.159 0.418,-0.428 C 4.534,0.418 4.414,0 3.587,0 3.079,0 2.442,0.179 1.894,0.807 c 0,0 0,-0.339 0,-0.339 0,-0.308 -0.06,-0.408 -0.399,-0.408 0,0 -1.095,0 -1.095,0 -0.15,0 -0.4,0 -0.4,0.299 0,0.308 0.24,0.308 0.4,0.308 0,0 0.806,0 0.806,0 0,0 0,3.08 0,3.08 0,0 -0.806,0 -0.806,0 -0.15,0 -0.4,0 -0.4,0.298 0,0.309 0.24,0.309 0.4,0.309 0,0 2.599,0 2.599,0 0.15,0 0.409,0 0.409,-0.299 0,-0.308 -0.259,-0.308 -0.409,-0.308 0,0 -1.105,0 -1.105,0 0,0 0,-1.247 0,-1.247 z"
       id="path66"
       inkscape:connector-curvature="0" />
  </g>
  <g
     transform="translate(96.159,3.313)"
     style="fill:#161413;fill-rule:evenodd;stroke:none"
     id="g68">
    <path
       d="M 4.084,2.232 C 4.084,0.987 3.158,0 2.042,0 0.926,0 0,0.987 0,2.232 0,3.497 0.947,4.444 2.042,4.444 3.138,4.444 4.084,3.488 4.084,2.232 z M 2.042,3.836 c -0.737,0 -1.355,-0.747 -1.355,-1.674 0,-0.906 0.648,-1.553 1.355,-1.553 0.717,0 1.355,0.647 1.355,1.553 0,0.927 -0.617,1.674 -1.355,1.674 z"
       id="path70"
       inkscape:connector-curvature="0" />
  </g>
  <g
     transform="translate(101.21,3.343)"
     style="fill:#161413;fill-rule:evenodd;stroke:none"
     id="g72">
    <path
       d="m 1.534,0.529 c 0,-0.32 0,-0.469 -0.398,-0.469 0,0 -0.727,0 -0.727,0 -0.16,0 -0.409,0 -0.409,0.309 0,0.298 0.26,0.298 0.399,0.298 0,0 0.449,0 0.449,0 0,0 0,3.08 0,3.08 0,0 -0.439,0 -0.439,0 -0.16,0 -0.409,0 -0.409,0.308 0,0.299 0.26,0.299 0.399,0.299 0,0 1.585,0 1.585,0 0.138,0 0.398,0 0.398,-0.299 0,-0.308 -0.249,-0.308 -0.409,-0.308 0,0 -0.439,0 -0.439,0 0,0 0,-1.764 0,-1.764 0,-0.996 0.738,-1.375 1.246,-1.375 0.528,0 0.667,0.279 0.667,0.877 0,0 0,2.262 0,2.262 0,0 -0.388,0 -0.388,0 -0.159,0 -0.408,0 -0.408,0.308 0,0.299 0.269,0.299 0.408,0.299 0,0 1.524,0 1.524,0 0.14,0 0.399,0 0.399,-0.299 0,-0.308 -0.249,-0.308 -0.409,-0.308 0,0 -0.438,0 -0.438,0 0,0 0,-2.312 0,-2.312 C 4.135,0.429 3.627,0 2.84,0 2.172,0 1.724,0.339 1.534,0.529 z"
       id="path74"
       inkscape:connector-curvature="0" />
  </g>
  <g
     transform="translate(106.301,3.343)"
     style="fill:#161413;fill-rule:evenodd;stroke:none"
     id="g76">
    <path
       d="M 1.126,0.359 C 1.106,0.06 0.907,0.06 0.728,0.06 c 0,0 -0.32,0 -0.32,0 C 0.259,0.06 0,0.06 0,0.359 c 0,0.308 0.209,0.308 0.568,0.308 0,0 0,3.08 0,3.08 -0.359,0 -0.568,0 -0.568,0.308 0,0.299 0.269,0.299 0.408,0.299 0,0 0.877,0 0.877,0 0.15,0 0.408,0 0.408,-0.299 0,-0.308 -0.209,-0.308 -0.567,-0.308 0,0 0,-1.784 0,-1.784 0,-0.886 0.408,-1.355 0.817,-1.355 0.229,0 0.368,0.17 0.368,0.817 0,0 0,2.322 0,2.322 -0.189,0 -0.438,0 -0.438,0.308 0,0.299 0.27,0.299 0.408,0.299 0,0 0.748,0 0.748,0 0.15,0 0.408,0 0.408,-0.299 0,-0.308 -0.209,-0.308 -0.568,-0.308 0,0 0,-1.784 0,-1.784 0,-0.886 0.409,-1.355 0.817,-1.355 0.229,0 0.369,0.17 0.369,0.817 0,0 0,2.322 0,2.322 -0.19,0 -0.439,0 -0.439,0.308 0,0.299 0.27,0.299 0.409,0.299 0,0 0.747,0 0.747,0 0.15,0 0.409,0 0.409,-0.299 0,-0.308 -0.209,-0.308 -0.568,-0.308 0,0 0,-2.412 0,-2.412 C 4.613,1.136 4.613,0 3.727,0 3.428,0 3.019,0.129 2.74,0.518 2.591,0.179 2.311,0 1.982,0 1.664,0 1.365,0.14 1.126,0.359 z"
       id="path78"
       inkscape:connector-curvature="0" />
  </g>
  <g
     transform="translate(112.139,3.313)"
     style="fill:#161413;fill-rule:evenodd;stroke:none"
     id="g80">
    <path
       d="m 3.677,2.481 c 0.209,0 0.398,0 0.398,-0.368 C 4.075,0.977 3.437,0 2.141,0 0.956,0 0,0.996 0,2.222 0,3.438 1.006,4.444 2.291,4.444 3.606,4.444 4.075,3.547 4.075,3.298 4.075,3.019 3.786,3.019 3.726,3.019 3.547,3.019 3.467,3.049 3.397,3.238 3.178,3.746 2.64,3.836 2.361,3.836 1.614,3.836 0.867,3.338 0.707,2.481 c 0,0 2.97,0 2.97,0 z M 0.718,1.883 C 0.856,1.156 1.444,0.609 2.141,0.609 c 0.519,0 1.136,0.249 1.226,1.274 0,0 -2.649,0 -2.649,0 z"
       id="path82"
       inkscape:connector-curvature="0" />
  </g>
  <g
     transform="translate(116.96,3.343)"
     style="fill:#161413;fill-rule:evenodd;stroke:none"
     id="g84">
    <path
       d="m 1.534,0.529 c 0,-0.32 0,-0.469 -0.398,-0.469 0,0 -0.727,0 -0.727,0 -0.16,0 -0.409,0 -0.409,0.309 0,0.298 0.26,0.298 0.399,0.298 0,0 0.449,0 0.449,0 0,0 0,3.08 0,3.08 0,0 -0.439,0 -0.439,0 -0.16,0 -0.409,0 -0.409,0.308 0,0.299 0.26,0.299 0.399,0.299 0,0 1.585,0 1.585,0 0.138,0 0.398,0 0.398,-0.299 0,-0.308 -0.249,-0.308 -0.409,-0.308 0,0 -0.439,0 -0.439,0 0,0 0,-1.764 0,-1.764 0,-0.996 0.738,-1.375 1.246,-1.375 0.528,0 0.667,0.279 0.667,0.877 0,0 0,2.262 0,2.262 0,0 -0.388,0 -0.388,0 -0.159,0 -0.408,0 -0.408,0.308 0,0.299 0.269,0.299 0.408,0.299 0,0 1.524,0 1.524,0 0.14,0 0.399,0 0.399,-0.299 0,-0.308 -0.249,-0.308 -0.409,-0.308 0,0 -0.438,0 -0.438,0 0,0 0,-2.312 0,-2.312 C 4.135,0.429 3.627,0 2.84,0 2.172,0 1.724,0.339 1.534,0.529 z"
       id="path86"
       inkscape:connector-curvature="0" />
  </g>
  <g
     transform="translate(122.34,2.177)"
     style="fill:#161413;fill-rule:evenodd;stroke:none"
     id="g88">
    <path
       d="m 1.963,1.833 c 0,0 1.634,0 1.634,0 0.149,0 0.398,0 0.398,-0.298 0,-0.309 -0.239,-0.309 -0.398,-0.309 0,0 -1.634,0 -1.634,0 0,0 0,-0.816 0,-0.816 C 1.963,0.22 1.963,0 1.624,0 1.275,0 1.275,0.209 1.275,0.41 c 0,0 0,0.816 0,0.816 0,0 -0.867,0 -0.867,0 -0.159,0 -0.408,0 -0.408,0.309 0,0.298 0.249,0.298 0.398,0.298 0,0 0.877,0 0.877,0 0,0 0,2.432 0,2.432 0,0.956 0.678,1.315 1.405,1.315 0.737,0 1.545,-0.428 1.545,-1.315 0,-0.18 0,-0.389 -0.349,-0.389 -0.329,0 -0.339,0.209 -0.339,0.378 C 3.526,4.873 2.959,4.972 2.73,4.972 1.963,4.972 1.963,4.454 1.963,4.205 c 0,0 0,-2.372 0,-2.372 z"
       id="path90"
       inkscape:connector-curvature="0" />
  </g>
  <g
     transform="translate(12.559,15.313)"
     style="fill:#161413;fill-rule:evenodd;stroke:none"
     id="g92">
    <path
       d="M 2.251,1.844 C 2.021,1.804 1.822,1.774 1.573,1.724 1.285,1.684 0.607,1.565 0.607,1.176 c 0,-0.259 0.319,-0.567 1.265,-0.567 0.827,0 0.967,0.298 0.997,0.557 0.01,0.169 0.029,0.339 0.338,0.339 0.349,0 0.349,-0.21 0.349,-0.409 0,0 0,-0.687 0,-0.687 C 3.556,0.249 3.556,0 3.257,0 3.018,0 2.978,0.14 2.958,0.209 2.52,0 2.082,0 1.892,0 0.228,0 0,0.818 0,1.176 0,2.093 1.046,2.262 1.962,2.402 2.45,2.481 3.247,2.611 3.247,3.139 3.247,3.507 2.879,3.836 1.971,3.836 1.504,3.836 0.946,3.727 0.697,2.949 0.647,2.77 0.607,2.66 0.348,2.66 0,2.66 0,2.869 0,3.069 c 0,0 0,0.966 0,0.966 0,0.16 0,0.409 0.299,0.409 0.088,0 0.249,-0.01 0.368,-0.378 0.488,0.358 1.016,0.378 1.295,0.378 1.574,0 1.893,-0.828 1.893,-1.305 0,-1.036 -1.285,-1.245 -1.604,-1.295 z"
       id="path94"
       inkscape:connector-curvature="0" />
  </g>
  <g
     transform="translate(17.868,13.6)"
     style="fill:#161413;fill-rule:evenodd;stroke:none"
     id="g96">
    <path
       d="m 2.301,2.211 c 0,-0.308 -0.059,-0.408 -0.398,-0.408 0,0 -1.414,0 -1.414,0 -0.15,0 -0.41,0 -0.41,0.299 0,0.308 0.26,0.308 0.41,0.308 0,0 1.125,0 1.125,0 0,0 0,3.08 0,3.08 0,0 -1.205,0 -1.205,0 -0.16,0 -0.409,0 -0.409,0.308 0,0.299 0.259,0.299 0.409,0.299 0,0 2.939,0 2.939,0 0.149,0 0.408,0 0.408,-0.299 0,-0.308 -0.259,-0.308 -0.408,-0.308 0,0 -1.047,0 -1.047,0 0,0 0,-3.279 0,-3.279 z m 0,-1.713 C 2.301,0.219 2.082,0 1.803,0 1.525,0 1.305,0.219 1.305,0.498 c 0,0.279 0.22,0.498 0.498,0.498 0.279,0 0.498,-0.219 0.498,-0.498 z"
       id="path98"
       inkscape:connector-curvature="0" />
  </g>
  <g
     transform="translate(22.301,15.343)"
     style="fill:#161413;fill-rule:evenodd;stroke:none"
     id="g100">
    <path
       d="M 1.126,0.359 C 1.106,0.06 0.907,0.06 0.728,0.06 c 0,0 -0.32,0 -0.32,0 C 0.259,0.06 0,0.06 0,0.359 c 0,0.308 0.209,0.308 0.568,0.308 0,0 0,3.08 0,3.08 -0.359,0 -0.568,0 -0.568,0.308 0,0.299 0.269,0.299 0.408,0.299 0,0 0.877,0 0.877,0 0.15,0 0.408,0 0.408,-0.299 0,-0.308 -0.209,-0.308 -0.567,-0.308 0,0 0,-1.784 0,-1.784 0,-0.886 0.408,-1.355 0.817,-1.355 0.229,0 0.368,0.17 0.368,0.817 0,0 0,2.322 0,2.322 -0.189,0 -0.438,0 -0.438,0.308 0,0.299 0.27,0.299 0.408,0.299 0,0 0.748,0 0.748,0 0.15,0 0.408,0 0.408,-0.299 0,-0.308 -0.209,-0.308 -0.568,-0.308 0,0 0,-1.784 0,-1.784 0,-0.886 0.409,-1.355 0.817,-1.355 0.229,0 0.369,0.17 0.369,0.817 0,0 0,2.322 0,2.322 -0.19,0 -0.439,0 -0.439,0.308 0,0.299 0.27,0.299 0.409,0.299 0,0 0.747,0 0.747,0 0.15,0 0.409,0 0.409,-0.299 0,-0.308 -0.209,-0.308 -0.568,-0.308 0,0 0,-2.412 0,-2.412 C 4.613,1.136 4.613,0 3.727,0 3.428,0 3.019,0.129 2.74,0.518 2.591,0.179 2.311,0 1.982,0 1.664,0 1.365,0.14 1.126,0.359 z"
       id="path102"
       inkscape:connector-curvature="0" />
  </g>
  <g
     transform="translate(27.71,15.343)"
     style="fill:#161413;fill-rule:evenodd;stroke:none"
     id="g104">
    <path
       d="m 1.534,1.724 c 0,-0.588 0.578,-1.116 1.206,-1.116 0.738,0 1.316,0.727 1.316,1.594 0,0.957 -0.698,1.604 -1.396,1.604 -0.776,0 -1.126,-0.877 -1.126,-1.355 0,0 0,-0.727 0,-0.727 z m 0,2.182 C 1.943,4.324 2.371,4.414 2.691,4.414 3.777,4.414 4.742,3.467 4.742,2.202 4.742,0.977 3.856,0 2.8,0 2.321,0 1.873,0.179 1.534,0.489 1.534,0.2 1.515,0.06 1.136,0.06 c 0,0 -0.727,0 -0.727,0 -0.16,0 -0.409,0 -0.409,0.309 0,0.298 0.26,0.298 0.399,0.298 0,0 0.449,0 0.449,0 0,0 0,5.291 0,5.291 0,0 -0.439,0 -0.439,0 -0.16,0 -0.409,0 -0.409,0.309 0,0.299 0.26,0.299 0.399,0.299 0,0 1.585,0 1.585,0 0.138,0 0.398,0 0.398,-0.299 0,-0.309 -0.249,-0.309 -0.409,-0.309 0,0 -0.439,0 -0.439,0 0,0 0,-2.052 0,-2.052 z"
       id="path106"
       inkscape:connector-curvature="0" />
  </g>
  <g
     transform="translate(33.419,13.61)"
     style="fill:#161413;fill-rule:evenodd;stroke:none"
     id="g108">
    <path
       d="M 2.381,0.408 C 2.381,0.1 2.321,0 1.983,0 1.983,0 0.408,0 0.408,0 0.249,0 0,0 0,0.309 c 0,0.299 0.259,0.299 0.399,0.299 0,0 1.294,0 1.294,0 0,0 0,4.872 0,4.872 0,0 -1.285,0 -1.285,0 C 0.249,5.48 0,5.48 0,5.788 c 0,0.299 0.259,0.299 0.399,0.299 0,0 3.277,0 3.277,0 0.149,0 0.398,0 0.398,-0.299 0,-0.308 -0.239,-0.308 -0.398,-0.308 0,0 -1.295,0 -1.295,0 0,0 0,-5.072 0,-5.072 z"
       id="path110"
       inkscape:connector-curvature="0" />
  </g>
  <g
     transform="translate(38.6,15.403)"
     style="fill:#161413;fill-rule:evenodd;stroke:none"
     id="g112">
    <path
       d="m 4.025,0.607 c 0,0 0.299,0 0.299,0 0.149,0 0.398,0 0.398,-0.298 C 4.722,0 4.483,0 4.324,0 4.324,0 3.158,0 3.158,0 3.009,0 2.76,0 2.76,0.299 c 0,0.308 0.239,0.308 0.398,0.308 0,0 0.279,0 0.279,0 0,0 -0.717,2.123 -0.717,2.123 -0.129,0.369 -0.19,0.547 -0.259,0.857 0,0 -0.01,0 -0.01,0 -0.05,-0.189 -0.14,-0.398 -0.209,-0.588 0,0 -0.927,-2.392 -0.927,-2.392 0,0 0.249,0 0.249,0 0.15,0 0.399,0 0.399,-0.298 C 1.963,0 1.723,0 1.564,0 1.564,0 0.398,0 0.398,0 0.239,0 0,0 0,0.309 c 0,0.298 0.249,0.298 0.398,0.298 0,0 0.31,0 0.31,0 0,0 1.414,3.557 1.414,3.557 0.04,0.1 0.04,0.12 0.04,0.13 0,0.02 -0.249,0.837 -0.379,1.086 -0.288,0.548 -0.647,0.567 -0.797,0.578 0,-0.011 0.05,-0.09 0.05,-0.22 0,-0.249 -0.179,-0.427 -0.428,-0.427 -0.269,0 -0.438,0.178 -0.438,0.437 0,0.419 0.339,0.817 0.826,0.817 0.997,0 1.445,-1.315 1.484,-1.424 0,0 1.545,-4.534 1.545,-4.534 z"
       id="path114"
       inkscape:connector-curvature="0" />
  </g>
  <g
     transform="translate(48.659,15.343)"
     style="fill:#161413;fill-rule:evenodd;stroke:none"
     id="g116">
    <path
       d="m 1.894,2.5 c 0,-0.935 0.588,-1.892 1.793,-1.892 0.01,0.239 0.18,0.438 0.429,0.438 0.218,0 0.418,-0.159 0.418,-0.428 C 4.534,0.418 4.414,0 3.587,0 3.079,0 2.442,0.179 1.894,0.807 c 0,0 0,-0.339 0,-0.339 0,-0.308 -0.06,-0.408 -0.399,-0.408 0,0 -1.095,0 -1.095,0 -0.15,0 -0.4,0 -0.4,0.299 0,0.308 0.24,0.308 0.4,0.308 0,0 0.806,0 0.806,0 0,0 0,3.08 0,3.08 0,0 -0.806,0 -0.806,0 -0.15,0 -0.4,0 -0.4,0.298 0,0.309 0.24,0.309 0.4,0.309 0,0 2.599,0 2.599,0 0.15,0 0.409,0 0.409,-0.299 0,-0.308 -0.259,-0.308 -0.409,-0.308 0,0 -1.105,0 -1.105,0 0,0 0,-1.247 0,-1.247 z"
       id="path118"
       inkscape:connector-curvature="0" />
  </g>
  <g
     transform="translate(54.139,15.313)"
     style="fill:#161413;fill-rule:evenodd;stroke:none"
     id="g120">
    <path
       d="m 3.677,2.481 c 0.209,0 0.398,0 0.398,-0.368 C 4.075,0.977 3.437,0 2.141,0 0.956,0 0,0.996 0,2.222 0,3.438 1.006,4.444 2.291,4.444 3.606,4.444 4.075,3.547 4.075,3.298 4.075,3.019 3.786,3.019 3.726,3.019 3.547,3.019 3.467,3.049 3.397,3.238 3.178,3.746 2.64,3.836 2.361,3.836 1.614,3.836 0.867,3.338 0.707,2.481 c 0,0 2.97,0 2.97,0 z M 0.718,1.883 C 0.856,1.156 1.444,0.609 2.141,0.609 c 0.519,0 1.136,0.249 1.226,1.274 0,0 -2.649,0 -2.649,0 z"
       id="path122"
       inkscape:connector-curvature="0" />
  </g>
  <g
     transform="translate(59.21,15.343)"
     style="fill:#161413;fill-rule:evenodd;stroke:none"
     id="g124">
    <path
       d="m 1.534,1.724 c 0,-0.588 0.578,-1.116 1.206,-1.116 0.738,0 1.316,0.727 1.316,1.594 0,0.957 -0.698,1.604 -1.396,1.604 -0.776,0 -1.126,-0.877 -1.126,-1.355 0,0 0,-0.727 0,-0.727 z m 0,2.182 C 1.943,4.324 2.371,4.414 2.691,4.414 3.777,4.414 4.742,3.467 4.742,2.202 4.742,0.977 3.856,0 2.8,0 2.321,0 1.873,0.179 1.534,0.489 1.534,0.2 1.515,0.06 1.136,0.06 c 0,0 -0.727,0 -0.727,0 -0.16,0 -0.409,0 -0.409,0.309 0,0.298 0.26,0.298 0.399,0.298 0,0 0.449,0 0.449,0 0,0 0,5.291 0,5.291 0,0 -0.439,0 -0.439,0 -0.16,0 -0.409,0 -0.409,0.309 0,0.299 0.26,0.299 0.399,0.299 0,0 1.585,0 1.585,0 0.138,0 0.398,0 0.398,-0.299 0,-0.309 -0.249,-0.309 -0.409,-0.309 0,0 -0.439,0 -0.439,0 0,0 0,-2.052 0,-2.052 z"
       id="path126"
       inkscape:connector-curvature="0" />
  </g>
  <g
     transform="translate(64.659,15.343)"
     style="fill:#161413;fill-rule:evenodd;stroke:none"
     id="g128">
    <path
       d="m 1.894,2.5 c 0,-0.935 0.588,-1.892 1.793,-1.892 0.01,0.239 0.18,0.438 0.429,0.438 0.218,0 0.418,-0.159 0.418,-0.428 C 4.534,0.418 4.414,0 3.587,0 3.079,0 2.442,0.179 1.894,0.807 c 0,0 0,-0.339 0,-0.339 0,-0.308 -0.06,-0.408 -0.399,-0.408 0,0 -1.095,0 -1.095,0 -0.15,0 -0.4,0 -0.4,0.299 0,0.308 0.24,0.308 0.4,0.308 0,0 0.806,0 0.806,0 0,0 0,3.08 0,3.08 0,0 -0.806,0 -0.806,0 -0.15,0 -0.4,0 -0.4,0.298 0,0.309 0.24,0.309 0.4,0.309 0,0 2.599,0 2.599,0 0.15,0 0.409,0 0.409,-0.299 0,-0.308 -0.259,-0.308 -0.409,-0.308 0,0 -1.105,0 -1.105,0 0,0 0,-1.247 0,-1.247 z"
       id="path130"
       inkscape:connector-curvature="0" />
  </g>
  <g
     transform="translate(70.159,15.313)"
     style="fill:#161413;fill-rule:evenodd;stroke:none"
     id="g132">
    <path
       d="M 4.084,2.232 C 4.084,0.987 3.158,0 2.042,0 0.926,0 0,0.987 0,2.232 0,3.497 0.947,4.444 2.042,4.444 3.138,4.444 4.084,3.488 4.084,2.232 z M 2.042,3.836 c -0.737,0 -1.355,-0.747 -1.355,-1.674 0,-0.906 0.648,-1.553 1.355,-1.553 0.717,0 1.355,0.647 1.355,1.553 0,0.927 -0.617,1.674 -1.355,1.674 z"
       id="path134"
       inkscape:connector-curvature="0" />
  </g>
  <g
     transform="translate(75.199,13.61)"
     style="fill:#161413;fill-rule:evenodd;stroke:none"
     id="g136">
    <path
       d="m 3.208,5.589 c 0,0.358 0,0.498 0.399,0.498 0,0 0.727,0 0.727,0 0.16,0 0.409,0 0.409,-0.309 0,-0.298 -0.259,-0.298 -0.399,-0.298 0,0 -0.448,0 -0.448,0 0,0 0,-5.072 0,-5.072 C 3.896,0.1 3.836,0 3.497,0 3.497,0 2.77,0 2.77,0 2.611,0 2.362,0 2.362,0.309 c 0,0.299 0.259,0.299 0.398,0.299 0,0 0.448,0 0.448,0 0,0 0,1.574 0,1.574 C 2.88,1.893 2.471,1.733 2.043,1.733 0.957,1.733 0,2.68 0,3.945 0,5.181 0.897,6.147 1.954,6.147 2.511,6.147 2.93,5.878 3.208,5.589 z m 0,-2.142 c 0,0 0,0.707 0,0.707 0,0.558 -0.448,1.385 -1.214,1.385 -0.708,0 -1.306,-0.707 -1.306,-1.594 0,-0.957 0.697,-1.604 1.394,-1.604 0.638,0 1.126,0.558 1.126,1.106 z"
       id="path138"
       inkscape:connector-curvature="0" />
  </g>
  <g
     transform="translate(80.21,15.403)"
     style="fill:#161413;fill-rule:evenodd;stroke:none"
     id="g140">
    <path
       d="m 3.447,3.976 c 0.01,0.318 0.22,0.318 0.399,0.318 0,0 0.727,0 0.727,0 0.16,0 0.409,0 0.409,-0.309 0,-0.298 -0.259,-0.298 -0.399,-0.298 0,0 -0.448,0 -0.448,0 0,0 0,-3.279 0,-3.279 C 4.135,0.1 4.075,0 3.736,0 3.736,0 3.009,0 3.009,0 2.85,0 2.601,0 2.601,0.309 c 0,0.298 0.259,0.298 0.398,0.298 0,0 0.448,0 0.448,0 0,0 0,2.123 0,2.123 0,0.896 -0.806,1.016 -1.126,1.016 -0.787,0 -0.787,-0.329 -0.787,-0.647 0,0 0,-2.691 0,-2.691 C 1.534,0.1 1.475,0 1.136,0 1.136,0 0.409,0 0.409,0 0.249,0 0,0 0,0.309 c 0,0.298 0.26,0.298 0.399,0.298 0,0 0.449,0 0.449,0 0,0 0,2.551 0,2.551 0,0.956 0.686,1.196 1.414,1.196 0.408,0 0.817,-0.1 1.185,-0.378 z"
       id="path142"
       inkscape:connector-curvature="0" />
  </g>
  <g
     transform="translate(86.069,15.313)"
     style="fill:#161413;fill-rule:evenodd;stroke:none"
     id="g144">
    <path
       d="m 3.915,3.298 c 0,-0.279 -0.289,-0.279 -0.349,-0.279 -0.159,0 -0.259,0.02 -0.329,0.219 -0.06,0.129 -0.249,0.598 -0.986,0.598 -0.847,0 -1.564,-0.697 -1.564,-1.604 0,-0.478 0.278,-1.623 1.624,-1.623 0.209,0 0.598,0 0.598,0.088 0.009,0.349 0.199,0.489 0.438,0.489 0.238,0 0.448,-0.169 0.448,-0.458 C 3.795,0 2.759,0 2.311,0 0.597,0 0,1.356 0,2.232 c 0,1.196 0.936,2.212 2.191,2.212 1.385,0 1.724,-0.977 1.724,-1.146 z"
       id="path146"
       inkscape:connector-curvature="0" />
  </g>
  <g
     transform="translate(91.139,15.313)"
     style="fill:#161413;fill-rule:evenodd;stroke:none"
     id="g148">
    <path
       d="m 3.677,2.481 c 0.209,0 0.398,0 0.398,-0.368 C 4.075,0.977 3.437,0 2.141,0 0.956,0 0,0.996 0,2.222 0,3.438 1.006,4.444 2.291,4.444 3.606,4.444 4.075,3.547 4.075,3.298 4.075,3.019 3.786,3.019 3.726,3.019 3.547,3.019 3.467,3.049 3.397,3.238 3.178,3.746 2.64,3.836 2.361,3.836 1.614,3.836 0.867,3.338 0.707,2.481 c 0,0 2.97,0 2.97,0 z M 0.718,1.883 C 0.856,1.156 1.444,0.609 2.141,0.609 c 0.519,0 1.136,0.249 1.226,1.274 0,0 -2.649,0 -2.649,0 z"
       id="path150"
       inkscape:connector-curvature="0" />
  </g>
  <g
     transform="translate(96.559,15.313)"
     style="fill:#161413;fill-rule:evenodd;stroke:none"
     id="g152">
    <path
       d="M 2.251,1.844 C 2.021,1.804 1.822,1.774 1.573,1.724 1.285,1.684 0.607,1.565 0.607,1.176 c 0,-0.259 0.319,-0.567 1.265,-0.567 0.827,0 0.967,0.298 0.997,0.557 0.01,0.169 0.029,0.339 0.338,0.339 0.349,0 0.349,-0.21 0.349,-0.409 0,0 0,-0.687 0,-0.687 C 3.556,0.249 3.556,0 3.257,0 3.018,0 2.978,0.14 2.958,0.209 2.52,0 2.082,0 1.892,0 0.228,0 0,0.818 0,1.176 0,2.093 1.046,2.262 1.962,2.402 2.45,2.481 3.247,2.611 3.247,3.139 3.247,3.507 2.879,3.836 1.971,3.836 1.504,3.836 0.946,3.727 0.697,2.949 0.647,2.77 0.607,2.66 0.348,2.66 0,2.66 0,2.869 0,3.069 c 0,0 0,0.966 0,0.966 0,0.16 0,0.409 0.299,0.409 0.088,0 0.249,-0.01 0.368,-0.378 0.488,0.358 1.016,0.378 1.295,0.378 1.574,0 1.893,-0.828 1.893,-1.305 0,-1.036 -1.285,-1.245 -1.604,-1.295 z"
       id="path154"
       inkscape:connector-curvature="0" />
  </g>
  <g
     transform="translate(106.389,15.313)"
     style="fill:#161413;fill-rule:evenodd;stroke:none"
     id="g156">
    <path
       d="m 3.677,2.481 c 0.209,0 0.398,0 0.398,-0.368 C 4.075,0.977 3.437,0 2.141,0 0.956,0 0,0.996 0,2.222 0,3.438 1.006,4.444 2.291,4.444 3.606,4.444 4.075,3.547 4.075,3.298 4.075,3.019 3.786,3.019 3.726,3.019 3.547,3.019 3.467,3.049 3.397,3.238 3.178,3.746 2.64,3.836 2.361,3.836 1.614,3.836 0.867,3.338 0.707,2.481 c 0,0 2.97,0 2.97,0 z M 0.718,1.883 C 0.856,1.156 1.444,0.609 2.141,0.609 c 0.519,0 1.136,0.249 1.226,1.274 0,0 -2.649,0 -2.649,0 z"
       id="path158"
       inkscape:connector-curvature="0" />
  </g>
  <g
     transform="translate(111.33,15.403)"
     style="fill:#161413;fill-rule:evenodd;stroke:none"
     id="g160">
    <path
       d="m 4.045,0.607 c 0,0 0.299,0 0.299,0 0.149,0 0.398,0 0.398,-0.298 C 4.742,0 4.503,0 4.344,0 4.344,0 3.178,0 3.178,0 3.029,0 2.78,0 2.78,0.299 c 0,0.308 0.239,0.308 0.398,0.308 0,0 0.279,0 0.279,0 0,0 -1.086,3.208 -1.086,3.208 0,0 -1.086,-3.208 -1.086,-3.208 0,0 0.28,0 0.28,0 0.149,0 0.398,0 0.398,-0.298 C 1.963,0 1.724,0 1.565,0 1.565,0 0.399,0 0.399,0 0.24,0 0,0 0,0.309 c 0,0.298 0.249,0.298 0.399,0.298 0,0 0.299,0 0.299,0 0,0 1.145,3.388 1.145,3.388 0.12,0.339 0.319,0.339 0.528,0.339 0.19,0 0.418,0 0.529,-0.329 0,0 1.145,-3.398 1.145,-3.398 z"
       id="path162"
       inkscape:connector-curvature="0" />
  </g>
  <g
     transform="translate(116.889,15.313)"
     style="fill:#161413;fill-rule:evenodd;stroke:none"
     id="g164">
    <path
       d="m 3.677,2.481 c 0.209,0 0.398,0 0.398,-0.368 C 4.075,0.977 3.437,0 2.141,0 0.956,0 0,0.996 0,2.222 0,3.438 1.006,4.444 2.291,4.444 3.606,4.444 4.075,3.547 4.075,3.298 4.075,3.019 3.786,3.019 3.726,3.019 3.547,3.019 3.467,3.049 3.397,3.238 3.178,3.746 2.64,3.836 2.361,3.836 1.614,3.836 0.867,3.338 0.707,2.481 c 0,0 2.97,0 2.97,0 z M 0.718,1.883 C 0.856,1.156 1.444,0.609 2.141,0.609 c 0.519,0 1.136,0.249 1.226,1.274 0,0 -2.649,0 -2.649,0 z"
       id="path166"
       inkscape:connector-curvature="0" />
  </g>
  <g
     transform="translate(122.159,15.343)"
     style="fill:#161413;fill-rule:evenodd;stroke:none"
     id="g168">
    <path
       d="m 1.894,2.5 c 0,-0.935 0.588,-1.892 1.793,-1.892 0.01,0.239 0.18,0.438 0.429,0.438 0.218,0 0.418,-0.159 0.418,-0.428 C 4.534,0.418 4.414,0 3.587,0 3.079,0 2.442,0.179 1.894,0.807 c 0,0 0,-0.339 0,-0.339 0,-0.308 -0.06,-0.408 -0.399,-0.408 0,0 -1.095,0 -1.095,0 -0.15,0 -0.4,0 -0.4,0.299 0,0.308 0.24,0.308 0.4,0.308 0,0 0.806,0 0.806,0 0,0 0,3.08 0,3.08 0,0 -0.806,0 -0.806,0 -0.15,0 -0.4,0 -0.4,0.298 0,0.309 0.24,0.309 0.4,0.309 0,0 2.599,0 2.599,0 0.15,0 0.409,0 0.409,-0.299 0,-0.308 -0.259,-0.308 -0.409,-0.308 0,0 -1.105,0 -1.105,0 0,0 0,-1.247 0,-1.247 z"
       id="path170"
       inkscape:connector-curvature="0" />
  </g>
  <g
     transform="translate(127.35,15.403)"
     style="fill:#161413;fill-rule:evenodd;stroke:none"
     id="g172">
    <path
       d="m 4.025,0.607 c 0,0 0.299,0 0.299,0 0.149,0 0.398,0 0.398,-0.298 C 4.722,0 4.483,0 4.324,0 4.324,0 3.158,0 3.158,0 3.009,0 2.76,0 2.76,0.299 c 0,0.308 0.239,0.308 0.398,0.308 0,0 0.279,0 0.279,0 0,0 -0.717,2.123 -0.717,2.123 -0.129,0.369 -0.19,0.547 -0.259,0.857 0,0 -0.01,0 -0.01,0 -0.05,-0.189 -0.14,-0.398 -0.209,-0.588 0,0 -0.927,-2.392 -0.927,-2.392 0,0 0.249,0 0.249,0 0.15,0 0.399,0 0.399,-0.298 C 1.963,0 1.723,0 1.564,0 1.564,0 0.398,0 0.398,0 0.239,0 0,0 0,0.309 c 0,0.298 0.249,0.298 0.398,0.298 0,0 0.31,0 0.31,0 0,0 1.414,3.557 1.414,3.557 0.04,0.1 0.04,0.12 0.04,0.13 0,0.02 -0.249,0.837 -0.379,1.086 -0.288,0.548 -0.647,0.567 -0.797,0.578 0,-0.011 0.05,-0.09 0.05,-0.22 0,-0.249 -0.179,-0.427 -0.428,-0.427 -0.269,0 -0.438,0.178 -0.438,0.437 0,0.419 0.339,0.817 0.826,0.817 0.997,0 1.445,-1.315 1.484,-1.424 0,0 1.545,-4.534 1.545,-4.534 z"
       id="path174"
       inkscape:connector-curvature="0" />
  </g>
  <g
     transform="translate(7.319,27.313)"
     style="fill:#161413;fill-rule:evenodd;stroke:none"
     id="g176">
    <path
       d="m 3.915,3.298 c 0,-0.279 -0.289,-0.279 -0.349,-0.279 -0.159,0 -0.259,0.02 -0.329,0.219 -0.06,0.129 -0.249,0.598 -0.986,0.598 -0.847,0 -1.564,-0.697 -1.564,-1.604 0,-0.478 0.278,-1.623 1.624,-1.623 0.209,0 0.598,0 0.598,0.088 0.009,0.349 0.199,0.489 0.438,0.489 0.238,0 0.448,-0.169 0.448,-0.458 C 3.795,0 2.759,0 2.311,0 0.597,0 0,1.356 0,2.232 c 0,1.196 0.936,2.212 2.191,2.212 1.385,0 1.724,-0.977 1.724,-1.146 z"
       id="path178"
       inkscape:connector-curvature="0" />
  </g>
  <g
     transform="translate(11.96,25.61)"
     style="fill:#161413;fill-rule:evenodd;stroke:none"
     id="g180">
    <path
       d="m 4.135,3.168 c 0,-1.006 -0.508,-1.435 -1.295,-1.435 -0.668,0 -1.116,0.339 -1.306,0.529 0,0 0,-1.854 0,-1.854 C 1.534,0.1 1.475,0 1.136,0 1.136,0 0.409,0 0.409,0 0.249,0 0,0 0,0.309 c 0,0.299 0.26,0.299 0.399,0.299 0,0 0.449,0 0.449,0 0,0 0,4.872 0,4.872 0,0 -0.439,0 -0.439,0 -0.16,0 -0.409,0 -0.409,0.308 0,0.299 0.26,0.299 0.399,0.299 0,0 1.585,0 1.585,0 0.138,0 0.398,0 0.398,-0.299 0,-0.308 -0.249,-0.308 -0.409,-0.308 0,0 -0.439,0 -0.439,0 0,0 0,-1.764 0,-1.764 0,-0.996 0.738,-1.375 1.246,-1.375 0.528,0 0.667,0.279 0.667,0.877 0,0 0,2.262 0,2.262 0,0 -0.388,0 -0.388,0 -0.159,0 -0.408,0 -0.408,0.308 0,0.299 0.269,0.299 0.408,0.299 0,0 1.524,0 1.524,0 0.14,0 0.399,0 0.399,-0.299 0,-0.308 -0.249,-0.308 -0.409,-0.308 0,0 -0.438,0 -0.438,0 0,0 0,-2.312 0,-2.312 z"
       id="path182"
       inkscape:connector-curvature="0" />
  </g>
  <g
     transform="translate(17.639,27.313)"
     style="fill:#161413;fill-rule:evenodd;stroke:none"
     id="g184">
    <path
       d="m 3.098,4.066 c 0.219,0.308 0.698,0.318 1.077,0.318 0.278,0 0.498,0 0.498,-0.309 0,-0.298 -0.249,-0.298 -0.399,-0.298 -0.419,0 -0.518,-0.05 -0.597,-0.081 0,0 0,-2.151 0,-2.151 C 3.677,0.837 3.139,0 1.704,0 1.275,0 0.259,0 0.259,0.728 c 0,0.299 0.21,0.458 0.448,0.458 0.149,0 0.429,-0.09 0.438,-0.458 0,-0.08 0.01,-0.09 0.21,-0.11 0.139,-0.009 0.269,-0.009 0.359,-0.009 0.757,0 1.275,0.308 1.275,1.015 C 1.225,1.655 0,2.153 0,3.109 c 0,0.687 0.628,1.335 1.643,1.335 0.37,0 0.987,-0.07 1.455,-0.378 z M 2.989,2.212 c 0,0 0,0.837 0,0.837 0,0.23 0,0.439 -0.389,0.617 -0.359,0.17 -0.807,0.17 -0.886,0.17 -0.618,0 -1.027,-0.339 -1.027,-0.727 0,-0.489 0.857,-0.857 2.302,-0.897 z"
       id="path186"
       inkscape:connector-curvature="0" />
  </g>
  <g
     transform="translate(22.659,27.343)"
     style="fill:#161413;fill-rule:evenodd;stroke:none"
     id="g188">
    <path
       d="m 1.894,2.5 c 0,-0.935 0.588,-1.892 1.793,-1.892 0.01,0.239 0.18,0.438 0.429,0.438 0.218,0 0.418,-0.159 0.418,-0.428 C 4.534,0.418 4.414,0 3.587,0 3.079,0 2.442,0.179 1.894,0.807 c 0,0 0,-0.339 0,-0.339 0,-0.308 -0.06,-0.408 -0.399,-0.408 0,0 -1.095,0 -1.095,0 -0.15,0 -0.4,0 -0.4,0.299 0,0.308 0.24,0.308 0.4,0.308 0,0 0.806,0 0.806,0 0,0 0,3.08 0,3.08 0,0 -0.806,0 -0.806,0 -0.15,0 -0.4,0 -0.4,0.298 0,0.309 0.24,0.309 0.4,0.309 0,0 2.599,0 2.599,0 0.15,0 0.409,0 0.409,-0.299 0,-0.308 -0.259,-0.308 -0.409,-0.308 0,0 -1.105,0 -1.105,0 0,0 0,-1.247 0,-1.247 z"
       id="path190"
       inkscape:connector-curvature="0" />
  </g>
  <g
     transform="translate(28.139,27.313)"
     style="fill:#161413;fill-rule:evenodd;stroke:none"
     id="g192">
    <path
       d="m 3.098,4.066 c 0.219,0.308 0.698,0.318 1.077,0.318 0.278,0 0.498,0 0.498,-0.309 0,-0.298 -0.249,-0.298 -0.399,-0.298 -0.419,0 -0.518,-0.05 -0.597,-0.081 0,0 0,-2.151 0,-2.151 C 3.677,0.837 3.139,0 1.704,0 1.275,0 0.259,0 0.259,0.728 c 0,0.299 0.21,0.458 0.448,0.458 0.149,0 0.429,-0.09 0.438,-0.458 0,-0.08 0.01,-0.09 0.21,-0.11 0.139,-0.009 0.269,-0.009 0.359,-0.009 0.757,0 1.275,0.308 1.275,1.015 C 1.225,1.655 0,2.153 0,3.109 c 0,0.687 0.628,1.335 1.643,1.335 0.37,0 0.987,-0.07 1.455,-0.378 z M 2.989,2.212 c 0,0 0,0.837 0,0.837 0,0.23 0,0.439 -0.389,0.617 -0.359,0.17 -0.807,0.17 -0.886,0.17 -0.618,0 -1.027,-0.339 -1.027,-0.727 0,-0.489 0.857,-0.857 2.302,-0.897 z"
       id="path194"
       inkscape:connector-curvature="0" />
  </g>
  <g
     transform="translate(33.569,27.313)"
     style="fill:#161413;fill-rule:evenodd;stroke:none"
     id="g196">
    <path
       d="m 3.915,3.298 c 0,-0.279 -0.289,-0.279 -0.349,-0.279 -0.159,0 -0.259,0.02 -0.329,0.219 -0.06,0.129 -0.249,0.598 -0.986,0.598 -0.847,0 -1.564,-0.697 -1.564,-1.604 0,-0.478 0.278,-1.623 1.624,-1.623 0.209,0 0.598,0 0.598,0.088 0.009,0.349 0.199,0.489 0.438,0.489 0.238,0 0.448,-0.169 0.448,-0.458 C 3.795,0 2.759,0 2.311,0 0.597,0 0,1.356 0,2.232 c 0,1.196 0.936,2.212 2.191,2.212 1.385,0 1.724,-0.977 1.724,-1.146 z"
       id="path198"
       inkscape:connector-curvature="0" />
  </g>
  <g
     transform="translate(38.59,26.177)"
     style="fill:#161413;fill-rule:evenodd;stroke:none"
     id="g200">
    <path
       d="m 1.963,1.833 c 0,0 1.634,0 1.634,0 0.149,0 0.398,0 0.398,-0.298 0,-0.309 -0.239,-0.309 -0.398,-0.309 0,0 -1.634,0 -1.634,0 0,0 0,-0.816 0,-0.816 C 1.963,0.22 1.963,0 1.624,0 1.275,0 1.275,0.209 1.275,0.41 c 0,0 0,0.816 0,0.816 0,0 -0.867,0 -0.867,0 -0.159,0 -0.408,0 -0.408,0.309 0,0.298 0.249,0.298 0.398,0.298 0,0 0.877,0 0.877,0 0,0 0,2.432 0,2.432 0,0.956 0.678,1.315 1.405,1.315 0.737,0 1.545,-0.428 1.545,-1.315 0,-0.18 0,-0.389 -0.349,-0.389 -0.329,0 -0.339,0.209 -0.339,0.378 C 3.526,4.873 2.959,4.972 2.73,4.972 1.963,4.972 1.963,4.454 1.963,4.205 c 0,0 0,-2.372 0,-2.372 z"
       id="path202"
       inkscape:connector-curvature="0" />
  </g>
  <g
     transform="translate(44.139,27.313)"
     style="fill:#161413;fill-rule:evenodd;stroke:none"
     id="g204">
    <path
       d="m 3.677,2.481 c 0.209,0 0.398,0 0.398,-0.368 C 4.075,0.977 3.437,0 2.141,0 0.956,0 0,0.996 0,2.222 0,3.438 1.006,4.444 2.291,4.444 3.606,4.444 4.075,3.547 4.075,3.298 4.075,3.019 3.786,3.019 3.726,3.019 3.547,3.019 3.467,3.049 3.397,3.238 3.178,3.746 2.64,3.836 2.361,3.836 1.614,3.836 0.867,3.338 0.707,2.481 c 0,0 2.97,0 2.97,0 z M 0.718,1.883 C 0.856,1.156 1.444,0.609 2.141,0.609 c 0.519,0 1.136,0.249 1.226,1.274 0,0 -2.649,0 -2.649,0 z"
       id="path206"
       inkscape:connector-curvature="0" />
  </g>
  <g
     transform="translate(49.159,27.343)"
     style="fill:#161413;fill-rule:evenodd;stroke:none"
     id="g208">
    <path
       d="m 1.894,2.5 c 0,-0.935 0.588,-1.892 1.793,-1.892 0.01,0.239 0.18,0.438 0.429,0.438 0.218,0 0.418,-0.159 0.418,-0.428 C 4.534,0.418 4.414,0 3.587,0 3.079,0 2.442,0.179 1.894,0.807 c 0,0 0,-0.339 0,-0.339 0,-0.308 -0.06,-0.408 -0.399,-0.408 0,0 -1.095,0 -1.095,0 -0.15,0 -0.4,0 -0.4,0.299 0,0.308 0.24,0.308 0.4,0.308 0,0 0.806,0 0.806,0 0,0 0,3.08 0,3.08 0,0 -0.806,0 -0.806,0 -0.15,0 -0.4,0 -0.4,0.298 0,0.309 0.24,0.309 0.4,0.309 0,0 2.599,0 2.599,0 0.15,0 0.409,0 0.409,-0.299 0,-0.308 -0.259,-0.308 -0.409,-0.308 0,0 -1.105,0 -1.105,0 0,0 0,-1.247 0,-1.247 z"
       id="path210"
       inkscape:connector-curvature="0" />
  </g>
  <g
     transform="translate(59.1,27.403)"
     style="fill:#161413;fill-rule:evenodd;stroke:none"
     id="g212">
    <path
       d="m 4.025,0.607 c 0,0 0.299,0 0.299,0 0.149,0 0.398,0 0.398,-0.298 C 4.722,0 4.483,0 4.324,0 4.324,0 3.158,0 3.158,0 3.009,0 2.76,0 2.76,0.299 c 0,0.308 0.239,0.308 0.398,0.308 0,0 0.279,0 0.279,0 0,0 -0.717,2.123 -0.717,2.123 -0.129,0.369 -0.19,0.547 -0.259,0.857 0,0 -0.01,0 -0.01,0 -0.05,-0.189 -0.14,-0.398 -0.209,-0.588 0,0 -0.927,-2.392 -0.927,-2.392 0,0 0.249,0 0.249,0 0.15,0 0.399,0 0.399,-0.298 C 1.963,0 1.723,0 1.564,0 1.564,0 0.398,0 0.398,0 0.239,0 0,0 0,0.309 c 0,0.298 0.249,0.298 0.398,0.298 0,0 0.31,0 0.31,0 0,0 1.414,3.557 1.414,3.557 0.04,0.1 0.04,0.12 0.04,0.13 0,0.02 -0.249,0.837 -0.379,1.086 -0.288,0.548 -0.647,0.567 -0.797,0.578 0,-0.011 0.05,-0.09 0.05,-0.22 0,-0.249 -0.179,-0.427 -0.428,-0.427 -0.269,0 -0.438,0.178 -0.438,0.437 0,0.419 0.339,0.817 0.826,0.817 0.997,0 1.445,-1.315 1.484,-1.424 0,0 1.545,-4.534 1.545,-4.534 z"
       id="path214"
       inkscape:connector-curvature="0" />
  </g>
  <g
     transform="translate(64.659,27.313)"
     style="fill:#161413;fill-rule:evenodd;stroke:none"
     id="g216">
    <path
       d="M 4.084,2.232 C 4.084,0.987 3.158,0 2.042,0 0.926,0 0,0.987 0,2.232 0,3.497 0.947,4.444 2.042,4.444 3.138,4.444 4.084,3.488 4.084,2.232 z M 2.042,3.836 c -0.737,0 -1.355,-0.747 -1.355,-1.674 0,-0.906 0.648,-1.553 1.355,-1.553 0.717,0 1.355,0.647 1.355,1.553 0,0.927 -0.617,1.674 -1.355,1.674 z"
       id="path218"
       inkscape:connector-curvature="0" />
  </g>
  <g
     transform="translate(69.46,27.403)"
     style="fill:#161413;fill-rule:evenodd;stroke:none"
     id="g220">
    <path
       d="m 3.447,3.976 c 0.01,0.318 0.22,0.318 0.399,0.318 0,0 0.727,0 0.727,0 0.16,0 0.409,0 0.409,-0.309 0,-0.298 -0.259,-0.298 -0.399,-0.298 0,0 -0.448,0 -0.448,0 0,0 0,-3.279 0,-3.279 C 4.135,0.1 4.075,0 3.736,0 3.736,0 3.009,0 3.009,0 2.85,0 2.601,0 2.601,0.309 c 0,0.298 0.259,0.298 0.398,0.298 0,0 0.448,0 0.448,0 0,0 0,2.123 0,2.123 0,0.896 -0.806,1.016 -1.126,1.016 -0.787,0 -0.787,-0.329 -0.787,-0.647 0,0 0,-2.691 0,-2.691 C 1.534,0.1 1.475,0 1.136,0 1.136,0 0.409,0 0.409,0 0.249,0 0,0 0,0.309 c 0,0.298 0.26,0.298 0.399,0.298 0,0 0.449,0 0.449,0 0,0 0,2.551 0,2.551 0,0.956 0.686,1.196 1.414,1.196 0.408,0 0.817,-0.1 1.185,-0.378 z"
       id="path222"
       inkscape:connector-curvature="0" />
  </g>
  <g
     transform="translate(80.618,25.6)"
     style="fill:#161413;fill-rule:evenodd;stroke:none"
     id="g224">
    <path
       d="m 2.301,2.211 c 0,-0.308 -0.059,-0.408 -0.398,-0.408 0,0 -1.414,0 -1.414,0 -0.15,0 -0.41,0 -0.41,0.299 0,0.308 0.26,0.308 0.41,0.308 0,0 1.125,0 1.125,0 0,0 0,3.08 0,3.08 0,0 -1.205,0 -1.205,0 -0.16,0 -0.409,0 -0.409,0.308 0,0.299 0.259,0.299 0.409,0.299 0,0 2.939,0 2.939,0 0.149,0 0.408,0 0.408,-0.299 0,-0.308 -0.259,-0.308 -0.408,-0.308 0,0 -1.047,0 -1.047,0 0,0 0,-3.279 0,-3.279 z m 0,-1.713 C 2.301,0.219 2.082,0 1.803,0 1.525,0 1.305,0.219 1.305,0.498 c 0,0.279 0.22,0.498 0.498,0.498 0.279,0 0.498,-0.219 0.498,-0.498 z"
       id="path226"
       inkscape:connector-curvature="0" />
  </g>
  <g
     transform="translate(85.21,27.343)"
     style="fill:#161413;fill-rule:evenodd;stroke:none"
     id="g228">
    <path
       d="m 1.534,0.529 c 0,-0.32 0,-0.469 -0.398,-0.469 0,0 -0.727,0 -0.727,0 -0.16,0 -0.409,0 -0.409,0.309 0,0.298 0.26,0.298 0.399,0.298 0,0 0.449,0 0.449,0 0,0 0,3.08 0,3.08 0,0 -0.439,0 -0.439,0 -0.16,0 -0.409,0 -0.409,0.308 0,0.299 0.26,0.299 0.399,0.299 0,0 1.585,0 1.585,0 0.138,0 0.398,0 0.398,-0.299 0,-0.308 -0.249,-0.308 -0.409,-0.308 0,0 -0.439,0 -0.439,0 0,0 0,-1.764 0,-1.764 0,-0.996 0.738,-1.375 1.246,-1.375 0.528,0 0.667,0.279 0.667,0.877 0,0 0,2.262 0,2.262 0,0 -0.388,0 -0.388,0 -0.159,0 -0.408,0 -0.408,0.308 0,0.299 0.269,0.299 0.408,0.299 0,0 1.524,0 1.524,0 0.14,0 0.399,0 0.399,-0.299 0,-0.308 -0.249,-0.308 -0.409,-0.308 0,0 -0.438,0 -0.438,0 0,0 0,-2.312 0,-2.312 C 4.135,0.429 3.627,0 2.84,0 2.172,0 1.724,0.339 1.534,0.529 z"
       id="path230"
       inkscape:connector-curvature="0" />
  </g>
  <g
     transform="translate(90.46,27.343)"
     style="fill:#161413;fill-rule:evenodd;stroke:none"
     id="g232">
    <path
       d="m 1.534,1.724 c 0,-0.588 0.578,-1.116 1.206,-1.116 0.738,0 1.316,0.727 1.316,1.594 0,0.957 -0.698,1.604 -1.396,1.604 -0.776,0 -1.126,-0.877 -1.126,-1.355 0,0 0,-0.727 0,-0.727 z m 0,2.182 C 1.943,4.324 2.371,4.414 2.691,4.414 3.777,4.414 4.742,3.467 4.742,2.202 4.742,0.977 3.856,0 2.8,0 2.321,0 1.873,0.179 1.534,0.489 1.534,0.2 1.515,0.06 1.136,0.06 c 0,0 -0.727,0 -0.727,0 -0.16,0 -0.409,0 -0.409,0.309 0,0.298 0.26,0.298 0.399,0.298 0,0 0.449,0 0.449,0 0,0 0,5.291 0,5.291 0,0 -0.439,0 -0.439,0 -0.16,0 -0.409,0 -0.409,0.309 0,0.299 0.26,0.299 0.399,0.299 0,0 1.585,0 1.585,0 0.138,0 0.398,0 0.398,-0.299 0,-0.309 -0.249,-0.309 -0.409,-0.309 0,0 -0.439,0 -0.439,0 0,0 0,-2.052 0,-2.052 z"
       id="path234"
       inkscape:connector-curvature="0" />
  </g>
  <g
     transform="translate(95.71,27.403)"
     style="fill:#161413;fill-rule:evenodd;stroke:none"
     id="g236">
    <path
       d="m 3.447,3.976 c 0.01,0.318 0.22,0.318 0.399,0.318 0,0 0.727,0 0.727,0 0.16,0 0.409,0 0.409,-0.309 0,-0.298 -0.259,-0.298 -0.399,-0.298 0,0 -0.448,0 -0.448,0 0,0 0,-3.279 0,-3.279 C 4.135,0.1 4.075,0 3.736,0 3.736,0 3.009,0 3.009,0 2.85,0 2.601,0 2.601,0.309 c 0,0.298 0.259,0.298 0.398,0.298 0,0 0.448,0 0.448,0 0,0 0,2.123 0,2.123 0,0.896 -0.806,1.016 -1.126,1.016 -0.787,0 -0.787,-0.329 -0.787,-0.647 0,0 0,-2.691 0,-2.691 C 1.534,0.1 1.475,0 1.136,0 1.136,0 0.409,0 0.409,0 0.249,0 0,0 0,0.309 c 0,0.298 0.26,0.298 0.399,0.298 0,0 0.449,0 0.449,0 0,0 0,2.551 0,2.551 0,0.956 0.686,1.196 1.414,1.196 0.408,0 0.817,-0.1 1.185,-0.378 z"
       id="path238"
       inkscape:connector-curvature="0" />
  </g>
  <g
     transform="translate(101.34,26.177)"
     style="fill:#161413;fill-rule:evenodd;stroke:none"
     id="g240">
    <path
       d="m 1.963,1.833 c 0,0 1.634,0 1.634,0 0.149,0 0.398,0 0.398,-0.298 0,-0.309 -0.239,-0.309 -0.398,-0.309 0,0 -1.634,0 -1.634,0 0,0 0,-0.816 0,-0.816 C 1.963,0.22 1.963,0 1.624,0 1.275,0 1.275,0.209 1.275,0.41 c 0,0 0,0.816 0,0.816 0,0 -0.867,0 -0.867,0 -0.159,0 -0.408,0 -0.408,0.309 0,0.298 0.249,0.298 0.398,0.298 0,0 0.877,0 0.877,0 0,0 0,2.432 0,2.432 0,0.956 0.678,1.315 1.405,1.315 0.737,0 1.545,-0.428 1.545,-1.315 0,-0.18 0,-0.389 -0.349,-0.389 -0.329,0 -0.339,0.209 -0.339,0.378 C 3.526,4.873 2.959,4.972 2.73,4.972 1.963,4.972 1.963,4.454 1.963,4.205 c 0,0 0,-2.372 0,-2.372 z"
       id="path242"
       inkscape:connector-curvature="0" />
  </g>
  <g
     transform="translate(108.134,30.452)"
     style="fill:#161413;fill-rule:evenodd;stroke:none"
     id="g244">
    <path
       d="M 1.017,1.215 C 0.867,1.833 0.398,1.992 0.279,2.032 0.18,2.062 0,2.112 0,2.311 0,2.461 0.149,2.63 0.319,2.63 0.638,2.63 1.654,2.092 1.654,0.996 1.654,0.389 1.266,0 0.827,0 0.429,0 0.199,0.299 0.199,0.617 c 0,0.379 0.289,0.628 0.618,0.628 0.06,0 0.129,-0.01 0.2,-0.03 z"
       id="path246"
       inkscape:connector-curvature="0" />
  </g>
  <g
     transform="translate(2.118,37.6)"
     style="fill:#161413;fill-rule:evenodd;stroke:none"
     id="g248">
    <path
       d="m 2.301,2.211 c 0,-0.308 -0.059,-0.408 -0.398,-0.408 0,0 -1.414,0 -1.414,0 -0.15,0 -0.41,0 -0.41,0.299 0,0.308 0.26,0.308 0.41,0.308 0,0 1.125,0 1.125,0 0,0 0,3.08 0,3.08 0,0 -1.205,0 -1.205,0 -0.16,0 -0.409,0 -0.409,0.308 0,0.299 0.259,0.299 0.409,0.299 0,0 2.939,0 2.939,0 0.149,0 0.408,0 0.408,-0.299 0,-0.308 -0.259,-0.308 -0.408,-0.308 0,0 -1.047,0 -1.047,0 0,0 0,-3.279 0,-3.279 z m 0,-1.713 C 2.301,0.219 2.082,0 1.803,0 1.525,0 1.305,0.219 1.305,0.498 c 0,0.279 0.22,0.498 0.498,0.498 0.279,0 0.498,-0.219 0.498,-0.498 z"
       id="path250"
       inkscape:connector-curvature="0" />
  </g>
  <g
     transform="translate(6.71,39.343)"
     style="fill:#161413;fill-rule:evenodd;stroke:none"
     id="g252">
    <path
       d="m 1.534,0.529 c 0,-0.32 0,-0.469 -0.398,-0.469 0,0 -0.727,0 -0.727,0 -0.16,0 -0.409,0 -0.409,0.309 0,0.298 0.26,0.298 0.399,0.298 0,0 0.449,0 0.449,0 0,0 0,3.08 0,3.08 0,0 -0.439,0 -0.439,0 -0.16,0 -0.409,0 -0.409,0.308 0,0.299 0.26,0.299 0.399,0.299 0,0 1.585,0 1.585,0 0.138,0 0.398,0 0.398,-0.299 0,-0.308 -0.249,-0.308 -0.409,-0.308 0,0 -0.439,0 -0.439,0 0,0 0,-1.764 0,-1.764 0,-0.996 0.738,-1.375 1.246,-1.375 0.528,0 0.667,0.279 0.667,0.877 0,0 0,2.262 0,2.262 0,0 -0.388,0 -0.388,0 -0.159,0 -0.408,0 -0.408,0.308 0,0.299 0.269,0.299 0.408,0.299 0,0 1.524,0 1.524,0 0.14,0 0.399,0 0.399,-0.299 0,-0.308 -0.249,-0.308 -0.409,-0.308 0,0 -0.438,0 -0.438,0 0,0 0,-2.312 0,-2.312 C 4.135,0.429 3.627,0 2.84,0 2.172,0 1.724,0.339 1.534,0.529 z"
       id="path254"
       inkscape:connector-curvature="0" />
  </g>
  <g
     transform="translate(12.569,39.313)"
     style="fill:#161413;fill-rule:evenodd;stroke:none"
     id="g256">
    <path
       d="m 3.915,3.298 c 0,-0.279 -0.289,-0.279 -0.349,-0.279 -0.159,0 -0.259,0.02 -0.329,0.219 -0.06,0.129 -0.249,0.598 -0.986,0.598 -0.847,0 -1.564,-0.697 -1.564,-1.604 0,-0.478 0.278,-1.623 1.624,-1.623 0.209,0 0.598,0 0.598,0.088 0.009,0.349 0.199,0.489 0.438,0.489 0.238,0 0.448,-0.169 0.448,-0.458 C 3.795,0 2.759,0 2.311,0 0.597,0 0,1.356 0,2.232 c 0,1.196 0.936,2.212 2.191,2.212 1.385,0 1.724,-0.977 1.724,-1.146 z"
       id="path258"
       inkscape:connector-curvature="0" />
  </g>
  <g
     transform="translate(17.919,37.61)"
     style="fill:#161413;fill-rule:evenodd;stroke:none"
     id="g260">
    <path
       d="M 2.381,0.408 C 2.381,0.1 2.321,0 1.983,0 1.983,0 0.408,0 0.408,0 0.249,0 0,0 0,0.309 c 0,0.299 0.259,0.299 0.399,0.299 0,0 1.294,0 1.294,0 0,0 0,4.872 0,4.872 0,0 -1.285,0 -1.285,0 C 0.249,5.48 0,5.48 0,5.788 c 0,0.299 0.259,0.299 0.399,0.299 0,0 3.277,0 3.277,0 0.149,0 0.398,0 0.398,-0.299 0,-0.308 -0.239,-0.308 -0.398,-0.308 0,0 -1.295,0 -1.295,0 0,0 0,-5.072 0,-5.072 z"
       id="path262"
       inkscape:connector-curvature="0" />
  </g>
  <g
     transform="translate(22.71,39.403)"
     style="fill:#161413;fill-rule:evenodd;stroke:none"
     id="g264">
    <path
       d="m 3.447,3.976 c 0.01,0.318 0.22,0.318 0.399,0.318 0,0 0.727,0 0.727,0 0.16,0 0.409,0 0.409,-0.309 0,-0.298 -0.259,-0.298 -0.399,-0.298 0,0 -0.448,0 -0.448,0 0,0 0,-3.279 0,-3.279 C 4.135,0.1 4.075,0 3.736,0 3.736,0 3.009,0 3.009,0 2.85,0 2.601,0 2.601,0.309 c 0,0.298 0.259,0.298 0.398,0.298 0,0 0.448,0 0.448,0 0,0 0,2.123 0,2.123 0,0.896 -0.806,1.016 -1.126,1.016 -0.787,0 -0.787,-0.329 -0.787,-0.647 0,0 0,-2.691 0,-2.691 C 1.534,0.1 1.475,0 1.136,0 1.136,0 0.409,0 0.409,0 0.249,0 0,0 0,0.309 c 0,0.298 0.26,0.298 0.399,0.298 0,0 0.449,0 0.449,0 0,0 0,2.551 0,2.551 0,0.956 0.686,1.196 1.414,1.196 0.408,0 0.817,-0.1 1.185,-0.378 z"
       id="path266"
       inkscape:connector-curvature="0" />
  </g>
  <g
     transform="translate(28.199,37.61)"
     style="fill:#161413;fill-rule:evenodd;stroke:none"
     id="g268">
    <path
       d="m 3.208,5.589 c 0,0.358 0,0.498 0.399,0.498 0,0 0.727,0 0.727,0 0.16,0 0.409,0 0.409,-0.309 0,-0.298 -0.259,-0.298 -0.399,-0.298 0,0 -0.448,0 -0.448,0 0,0 0,-5.072 0,-5.072 C 3.896,0.1 3.836,0 3.497,0 3.497,0 2.77,0 2.77,0 2.611,0 2.362,0 2.362,0.309 c 0,0.299 0.259,0.299 0.398,0.299 0,0 0.448,0 0.448,0 0,0 0,1.574 0,1.574 C 2.88,1.893 2.471,1.733 2.043,1.733 0.957,1.733 0,2.68 0,3.945 0,5.181 0.897,6.147 1.954,6.147 2.511,6.147 2.93,5.878 3.208,5.589 z m 0,-2.142 c 0,0 0,0.707 0,0.707 0,0.558 -0.448,1.385 -1.214,1.385 -0.708,0 -1.306,-0.707 -1.306,-1.594 0,-0.957 0.697,-1.604 1.394,-1.604 0.638,0 1.126,0.558 1.126,1.106 z"
       id="path270"
       inkscape:connector-curvature="0" />
  </g>
  <g
     transform="translate(33.868,37.6)"
     style="fill:#161413;fill-rule:evenodd;stroke:none"
     id="g272">
    <path
       d="m 2.301,2.211 c 0,-0.308 -0.059,-0.408 -0.398,-0.408 0,0 -1.414,0 -1.414,0 -0.15,0 -0.41,0 -0.41,0.299 0,0.308 0.26,0.308 0.41,0.308 0,0 1.125,0 1.125,0 0,0 0,3.08 0,3.08 0,0 -1.205,0 -1.205,0 -0.16,0 -0.409,0 -0.409,0.308 0,0.299 0.259,0.299 0.409,0.299 0,0 2.939,0 2.939,0 0.149,0 0.408,0 0.408,-0.299 0,-0.308 -0.259,-0.308 -0.408,-0.308 0,0 -1.047,0 -1.047,0 0,0 0,-3.279 0,-3.279 z m 0,-1.713 C 2.301,0.219 2.082,0 1.803,0 1.525,0 1.305,0.219 1.305,0.498 c 0,0.279 0.22,0.498 0.498,0.498 0.279,0 0.498,-0.219 0.498,-0.498 z"
       id="path274"
       inkscape:connector-curvature="0" />
  </g>
  <g
     transform="translate(38.46,39.343)"
     style="fill:#161413;fill-rule:evenodd;stroke:none"
     id="g276">
    <path
       d="m 1.534,0.529 c 0,-0.32 0,-0.469 -0.398,-0.469 0,0 -0.727,0 -0.727,0 -0.16,0 -0.409,0 -0.409,0.309 0,0.298 0.26,0.298 0.399,0.298 0,0 0.449,0 0.449,0 0,0 0,3.08 0,3.08 0,0 -0.439,0 -0.439,0 -0.16,0 -0.409,0 -0.409,0.308 0,0.299 0.26,0.299 0.399,0.299 0,0 1.585,0 1.585,0 0.138,0 0.398,0 0.398,-0.299 0,-0.308 -0.249,-0.308 -0.409,-0.308 0,0 -0.439,0 -0.439,0 0,0 0,-1.764 0,-1.764 0,-0.996 0.738,-1.375 1.246,-1.375 0.528,0 0.667,0.279 0.667,0.877 0,0 0,2.262 0,2.262 0,0 -0.388,0 -0.388,0 -0.159,0 -0.408,0 -0.408,0.308 0,0.299 0.269,0.299 0.408,0.299 0,0 1.524,0 1.524,0 0.14,0 0.399,0 0.399,-0.299 0,-0.308 -0.249,-0.308 -0.409,-0.308 0,0 -0.438,0 -0.438,0 0,0 0,-2.312 0,-2.312 C 4.135,0.429 3.627,0 2.84,0 2.172,0 1.724,0.339 1.534,0.529 z"
       id="path278"
       inkscape:connector-curvature="0" />
  </g>
  <g
     transform="translate(43.88,39.294)"
     style="fill:#161413;fill-rule:evenodd;stroke:none"
     id="g280">
    <path
       d="m 2.032,2.649 c -0.538,0 -0.956,-0.468 -0.956,-0.996 0,-0.567 0.439,-1.006 0.956,-1.006 0.538,0 0.956,0.468 0.956,0.996 0,0.569 -0.438,1.006 -0.956,1.006 z m -0.896,0.35 c 0.029,0.019 0.408,0.249 0.896,0.249 0.917,0 1.644,-0.718 1.644,-1.605 0,-0.299 -0.09,-0.588 -0.259,-0.866 0.209,-0.12 0.448,-0.16 0.578,-0.17 0.06,0.27 0.289,0.339 0.389,0.339 0.169,0 0.398,-0.119 0.398,-0.408 C 4.782,0.308 4.593,0 4.055,0 3.945,0 3.457,0.009 2.999,0.348 2.839,0.239 2.49,0.049 2.032,0.049 1.096,0.049 0.389,0.797 0.389,1.643 0.389,2.072 0.558,2.4 0.707,2.59 0.598,2.75 0.508,2.968 0.508,3.267 c 0,0.349 0.14,0.598 0.229,0.718 C 0,4.433 0,5.11 0,5.22 0,6.077 1.046,6.684 2.321,6.684 3.597,6.684 4.643,6.067 4.643,5.22 4.643,4.851 4.463,4.353 3.955,4.085 3.825,4.014 3.407,3.796 2.511,3.796 c 0,0 -0.697,0 -0.697,0 -0.081,0 -0.21,0 -0.29,-0.021 -0.149,0 -0.209,0 -0.329,-0.14 C 1.086,3.497 1.076,3.298 1.076,3.277 c 0,-0.04 0.02,-0.179 0.06,-0.278 z M 2.321,6.087 C 1.325,6.087 0.578,5.658 0.578,5.22 0.578,5.041 0.667,4.721 0.986,4.522 1.235,4.363 1.325,4.363 2.052,4.363 c 0.887,0 2.013,0 2.013,0.857 0,0.438 -0.748,0.867 -1.744,0.867 z"
       id="path282"
       inkscape:connector-curvature="0" />
  </g>
  <g
     transform="translate(54.139,39.313)"
     style="fill:#161413;fill-rule:evenodd;stroke:none"
     id="g284">
    <path
       d="m 3.098,4.066 c 0.219,0.308 0.698,0.318 1.077,0.318 0.278,0 0.498,0 0.498,-0.309 0,-0.298 -0.249,-0.298 -0.399,-0.298 -0.419,0 -0.518,-0.05 -0.597,-0.081 0,0 0,-2.151 0,-2.151 C 3.677,0.837 3.139,0 1.704,0 1.275,0 0.259,0 0.259,0.728 c 0,0.299 0.21,0.458 0.448,0.458 0.149,0 0.429,-0.09 0.438,-0.458 0,-0.08 0.01,-0.09 0.21,-0.11 0.139,-0.009 0.269,-0.009 0.359,-0.009 0.757,0 1.275,0.308 1.275,1.015 C 1.225,1.655 0,2.153 0,3.109 c 0,0.687 0.628,1.335 1.643,1.335 0.37,0 0.987,-0.07 1.455,-0.378 z M 2.989,2.212 c 0,0 0,0.837 0,0.837 0,0.23 0,0.439 -0.389,0.617 -0.359,0.17 -0.807,0.17 -0.886,0.17 -0.618,0 -1.027,-0.339 -1.027,-0.727 0,-0.489 0.857,-0.857 2.302,-0.897 z"
       id="path286"
       inkscape:connector-curvature="0" />
  </g>
  <g
     transform="translate(59.669,37.61)"
     style="fill:#161413;fill-rule:evenodd;stroke:none"
     id="g288">
    <path
       d="M 2.381,0.408 C 2.381,0.1 2.321,0 1.983,0 1.983,0 0.408,0 0.408,0 0.249,0 0,0 0,0.309 c 0,0.299 0.259,0.299 0.399,0.299 0,0 1.294,0 1.294,0 0,0 0,4.872 0,4.872 0,0 -1.285,0 -1.285,0 C 0.249,5.48 0,5.48 0,5.788 c 0,0.299 0.259,0.299 0.399,0.299 0,0 3.277,0 3.277,0 0.149,0 0.398,0 0.398,-0.299 0,-0.308 -0.239,-0.308 -0.398,-0.308 0,0 -1.295,0 -1.295,0 0,0 0,-5.072 0,-5.072 z"
       id="path290"
       inkscape:connector-curvature="0" />
  </g>
  <g
     transform="translate(64.919,37.61)"
     style="fill:#161413;fill-rule:evenodd;stroke:none"
     id="g292">
    <path
       d="M 2.381,0.408 C 2.381,0.1 2.321,0 1.983,0 1.983,0 0.408,0 0.408,0 0.249,0 0,0 0,0.309 c 0,0.299 0.259,0.299 0.399,0.299 0,0 1.294,0 1.294,0 0,0 0,4.872 0,4.872 0,0 -1.285,0 -1.285,0 C 0.249,5.48 0,5.48 0,5.788 c 0,0.299 0.259,0.299 0.399,0.299 0,0 3.277,0 3.277,0 0.149,0 0.398,0 0.398,-0.299 0,-0.308 -0.239,-0.308 -0.398,-0.308 0,0 -1.295,0 -1.295,0 0,0 0,-5.072 0,-5.072 z"
       id="path294"
       inkscape:connector-curvature="0" />
  </g>
  <g
     transform="translate(80.559,39.313)"
     style="fill:#161413;fill-rule:evenodd;stroke:none"
     id="g296">
    <path
       d="M 2.251,1.844 C 2.021,1.804 1.822,1.774 1.573,1.724 1.285,1.684 0.607,1.565 0.607,1.176 c 0,-0.259 0.319,-0.567 1.265,-0.567 0.827,0 0.967,0.298 0.997,0.557 0.01,0.169 0.029,0.339 0.338,0.339 0.349,0 0.349,-0.21 0.349,-0.409 0,0 0,-0.687 0,-0.687 C 3.556,0.249 3.556,0 3.257,0 3.018,0 2.978,0.14 2.958,0.209 2.52,0 2.082,0 1.892,0 0.228,0 0,0.818 0,1.176 0,2.093 1.046,2.262 1.962,2.402 2.45,2.481 3.247,2.611 3.247,3.139 3.247,3.507 2.879,3.836 1.971,3.836 1.504,3.836 0.946,3.727 0.697,2.949 0.647,2.77 0.607,2.66 0.348,2.66 0,2.66 0,2.869 0,3.069 c 0,0 0,0.966 0,0.966 0,0.16 0,0.409 0.299,0.409 0.088,0 0.249,-0.01 0.368,-0.378 0.488,0.358 1.016,0.378 1.295,0.378 1.574,0 1.893,-0.828 1.893,-1.305 0,-1.036 -1.285,-1.245 -1.604,-1.295 z"
       id="path298"
       inkscape:connector-curvature="0" />
  </g>
  <g
     transform="translate(90.46,39.343)"
     style="fill:#161413;fill-rule:evenodd;stroke:none"
     id="g300">
    <path
       d="m 1.534,1.724 c 0,-0.588 0.578,-1.116 1.206,-1.116 0.738,0 1.316,0.727 1.316,1.594 0,0.957 -0.698,1.604 -1.396,1.604 -0.776,0 -1.126,-0.877 -1.126,-1.355 0,0 0,-0.727 0,-0.727 z m 0,2.182 C 1.943,4.324 2.371,4.414 2.691,4.414 3.777,4.414 4.742,3.467 4.742,2.202 4.742,0.977 3.856,0 2.8,0 2.321,0 1.873,0.179 1.534,0.489 1.534,0.2 1.515,0.06 1.136,0.06 c 0,0 -0.727,0 -0.727,0 -0.16,0 -0.409,0 -0.409,0.309 0,0.298 0.26,0.298 0.399,0.298 0,0 0.449,0 0.449,0 0,0 0,5.291 0,5.291 0,0 -0.439,0 -0.439,0 -0.16,0 -0.409,0 -0.409,0.309 0,0.299 0.26,0.299 0.399,0.299 0,0 1.585,0 1.585,0 0.138,0 0.398,0 0.398,-0.299 0,-0.309 -0.249,-0.309 -0.409,-0.309 0,0 -0.439,0 -0.439,0 0,0 0,-2.052 0,-2.052 z"
       id="path302"
       inkscape:connector-curvature="0" />
  </g>
  <g
     transform="translate(101.389,39.313)"
     style="fill:#161413;fill-rule:evenodd;stroke:none"
     id="g304">
    <path
       d="m 3.098,4.066 c 0.219,0.308 0.698,0.318 1.077,0.318 0.278,0 0.498,0 0.498,-0.309 0,-0.298 -0.249,-0.298 -0.399,-0.298 -0.419,0 -0.518,-0.05 -0.597,-0.081 0,0 0,-2.151 0,-2.151 C 3.677,0.837 3.139,0 1.704,0 1.275,0 0.259,0 0.259,0.728 c 0,0.299 0.21,0.458 0.448,0.458 0.149,0 0.429,-0.09 0.438,-0.458 0,-0.08 0.01,-0.09 0.21,-0.11 0.139,-0.009 0.269,-0.009 0.359,-0.009 0.757,0 1.275,0.308 1.275,1.015 C 1.225,1.655 0,2.153 0,3.109 c 0,0.687 0.628,1.335 1.643,1.335 0.37,0 0.987,-0.07 1.455,-0.378 z M 2.989,2.212 c 0,0 0,0.837 0,0.837 0,0.23 0,0.439 -0.389,0.617 -0.359,0.17 -0.807,0.17 -0.886,0.17 -0.618,0 -1.027,-0.339 -1.027,-0.727 0,-0.489 0.857,-0.857 2.302,-0.897 z"
       id="path306"
       inkscape:connector-curvature="0" />
  </g>
  <g
     transform="translate(111.819,39.313)"
     style="fill:#161413;fill-rule:evenodd;stroke:none"
     id="g308">
    <path
       d="m 3.915,3.298 c 0,-0.279 -0.289,-0.279 -0.349,-0.279 -0.159,0 -0.259,0.02 -0.329,0.219 -0.06,0.129 -0.249,0.598 -0.986,0.598 -0.847,0 -1.564,-0.697 -1.564,-1.604 0,-0.478 0.278,-1.623 1.624,-1.623 0.209,0 0.598,0 0.598,0.088 0.009,0.349 0.199,0.489 0.438,0.489 0.238,0 0.448,-0.169 0.448,-0.458 C 3.795,0 2.759,0 2.311,0 0.597,0 0,1.356 0,2.232 c 0,1.196 0.936,2.212 2.191,2.212 1.385,0 1.724,-0.977 1.724,-1.146 z"
       id="path310"
       inkscape:connector-curvature="0" />
  </g>
  <g
     transform="translate(122.139,39.313)"
     style="fill:#161413;fill-rule:evenodd;stroke:none"
     id="g312">
    <path
       d="m 3.677,2.481 c 0.209,0 0.398,0 0.398,-0.368 C 4.075,0.977 3.437,0 2.141,0 0.956,0 0,0.996 0,2.222 0,3.438 1.006,4.444 2.291,4.444 3.606,4.444 4.075,3.547 4.075,3.298 4.075,3.019 3.786,3.019 3.726,3.019 3.547,3.019 3.467,3.049 3.397,3.238 3.178,3.746 2.64,3.836 2.361,3.836 1.614,3.836 0.867,3.338 0.707,2.481 c 0,0 2.97,0 2.97,0 z M 0.718,1.883 C 0.856,1.156 1.444,0.609 2.141,0.609 c 0.519,0 1.136,0.249 1.226,1.274 0,0 -2.649,0 -2.649,0 z"
       id="path314"
       inkscape:connector-curvature="0" />
  </g>
  <g
     transform="translate(132.809,39.313)"
     style="fill:#161413;fill-rule:evenodd;stroke:none"
     id="g316">
    <path
       d="M 2.251,1.844 C 2.021,1.804 1.822,1.774 1.573,1.724 1.285,1.684 0.607,1.565 0.607,1.176 c 0,-0.259 0.319,-0.567 1.265,-0.567 0.827,0 0.967,0.298 0.997,0.557 0.01,0.169 0.029,0.339 0.338,0.339 0.349,0 0.349,-0.21 0.349,-0.409 0,0 0,-0.687 0,-0.687 C 3.556,0.249 3.556,0 3.257,0 3.018,0 2.978,0.14 2.958,0.209 2.52,0 2.082,0 1.892,0 0.228,0 0,0.818 0,1.176 0,2.093 1.046,2.262 1.962,2.402 2.45,2.481 3.247,2.611 3.247,3.139 3.247,3.507 2.879,3.836 1.971,3.836 1.504,3.836 0.946,3.727 0.697,2.949 0.647,2.77 0.607,2.66 0.348,2.66 0,2.66 0,2.869 0,3.069 c 0,0 0,0.966 0,0.966 0,0.16 0,0.409 0.299,0.409 0.088,0 0.249,-0.01 0.368,-0.378 0.488,0.358 1.016,0.378 1.295,0.378 1.574,0 1.893,-0.828 1.893,-1.305 0,-1.036 -1.285,-1.245 -1.604,-1.295 z"
       id="path318"
       inkscape:connector-curvature="0" />
  </g>
  <g
     transform="translate(139.453,37.501)"
     style="fill:#161413;fill-rule:evenodd;stroke:none"
     id="g320">
    <path
       d="M 0.996,0.567 C 0.996,0.039 0.588,0 0.498,0 0.409,0 0,0.039 0,0.567 0,0.906 0.05,2.45 0.07,2.898 0.079,3.307 0.079,3.695 0.1,4.104 0.11,4.363 0.368,4.363 0.498,4.363 0.857,4.363 0.887,4.283 0.907,3.884 0.927,3.346 0.937,2.699 0.947,2.161 0.956,1.643 0.996,1.095 0.996,0.567 z m 0,5.131 C 0.996,5.419 0.778,5.2 0.498,5.2 0.219,5.2 0,5.419 0,5.698 c 0,0.279 0.219,0.498 0.498,0.498 0.28,0 0.498,-0.219 0.498,-0.498 z"
       id="path322"
       inkscape:connector-curvature="0" />
  </g>
</svg>
