<?xml version="1.0" encoding="UTF-8" standalone="no"?>
<svg
   xmlns:dc="http://purl.org/dc/elements/1.1/"
   xmlns:cc="http://creativecommons.org/ns#"
   xmlns:rdf="http://www.w3.org/1999/02/22-rdf-syntax-ns#"
   xmlns:svg="http://www.w3.org/2000/svg"
   xmlns="http://www.w3.org/2000/svg"
   xmlns:sodipodi="http://sodipodi.sourceforge.net/DTD/sodipodi-0.dtd"
   xmlns:inkscape="http://www.inkscape.org/namespaces/inkscape"
   width="251.24251"
   height="59.38625"
   viewBox="0 0 200.994 47.509"
   id="svg2"
   version="1.1"
   inkscape:version="0.48.0 r9654"
   sodipodi:docname="latex_source_code.ps(converted)-page1.svg">
  <metadata
     id="metadata480">
    <rdf:RDF>
      <cc:Work
         rdf:about="">
        <dc:format>image/svg+xml</dc:format>
        <dc:type
           rdf:resource="http://purl.org/dc/dcmitype/StillImage" />
        <dc:title></dc:title>
      </cc:Work>
    </rdf:RDF>
  </metadata>
  <defs
     id="defs478" />
  <sodipodi:namedview
     pagecolor="#ffffff"
     bordercolor="#666666"
     borderopacity="1"
     objecttolerance="10"
     gridtolerance="10"
     guidetolerance="10"
     inkscape:pageopacity="0"
     inkscape:pageshadow="2"
     inkscape:window-width="640"
     inkscape:window-height="480"
     id="namedview476"
     showgrid="false"
     fit-margin-top="2"
     fit-margin-right="2"
     fit-margin-bottom="2"
     fit-margin-left="2"
     inkscape:zoom="0.24418052"
     inkscape:cx="207.0875"
     inkscape:cy="-308.04753"
     inkscape:window-x="0"
     inkscape:window-y="24"
     inkscape:window-maximized="0"
     inkscape:current-layer="svg2" />
  <g
     transform="translate(1.5999982,1.61)"
     style="fill:#161413;fill-rule:evenodd;stroke:none"
     id="g4">
    <path
       d="m 4.294,0.608 c 0.358,0 0.567,0 0.567,-0.309 C 4.861,0 4.602,0 4.453,0 4.453,0 3.436,0 3.436,0 3.287,0 3.028,0 3.028,0.299 c 0,0.309 0.209,0.309 0.558,0.309 0,0 -0.767,3.048 -0.767,3.048 C 2.689,4.184 2.5,4.941 2.43,5.369 c 0,0 -0.009,0 -0.009,0 -0.05,-0.348 -0.09,-0.517 -0.18,-0.886 0,0 -0.967,-3.875 -0.967,-3.875 0.35,0 0.559,0 0.559,-0.309 C 1.833,0 1.574,0 1.424,0 1.424,0 0.408,0 0.408,0 0.258,0 0,0 0,0.299 c 0,0.309 0.209,0.309 0.567,0.309 0,0 1.315,5.18 1.315,5.18 0.1,0.379 0.259,0.379 0.548,0.379 0.269,0 0.458,0 0.548,-0.369 0,0 1.316,-5.19 1.316,-5.19 z"
       id="path6"
       inkscape:connector-curvature="0" />
  </g>
  <g
     transform="translate(7.2179982,3.313)"
     style="fill:#161413;fill-rule:evenodd;stroke:none"
     id="g8">
    <path
       d="m 3.677,2.481 c 0.209,0 0.398,0 0.398,-0.368 C 4.075,0.977 3.437,0 2.141,0 0.956,0 0,0.996 0,2.222 0,3.438 1.006,4.444 2.291,4.444 3.606,4.444 4.075,3.547 4.075,3.298 4.075,3.019 3.786,3.019 3.726,3.019 3.547,3.019 3.467,3.049 3.397,3.238 3.178,3.746 2.64,3.836 2.361,3.836 1.614,3.836 0.867,3.338 0.707,2.481 c 0,0 2.97,0 2.97,0 z M 0.718,1.883 C 0.856,1.156 1.444,0.609 2.141,0.609 c 0.519,0 1.136,0.249 1.226,1.274 0,0 -2.649,0 -2.649,0 z"
       id="path10"
       inkscape:connector-curvature="0" />
  </g>
  <g
     transform="translate(12.237998,3.343)"
     style="fill:#161413;fill-rule:evenodd;stroke:none"
     id="g12">
    <path
       d="m 1.894,2.5 c 0,-0.935 0.588,-1.892 1.793,-1.892 0.01,0.239 0.18,0.438 0.429,0.438 0.218,0 0.418,-0.159 0.418,-0.428 C 4.534,0.418 4.414,0 3.587,0 3.079,0 2.442,0.179 1.894,0.807 c 0,0 0,-0.339 0,-0.339 0,-0.308 -0.06,-0.408 -0.399,-0.408 0,0 -1.095,0 -1.095,0 -0.15,0 -0.4,0 -0.4,0.299 0,0.308 0.24,0.308 0.4,0.308 0,0 0.806,0 0.806,0 0,0 0,3.08 0,3.08 0,0 -0.806,0 -0.806,0 -0.15,0 -0.4,0 -0.4,0.298 0,0.309 0.24,0.309 0.4,0.309 0,0 2.599,0 2.599,0 0.15,0 0.409,0 0.409,-0.299 0,-0.308 -0.259,-0.308 -0.409,-0.308 0,0 -1.105,0 -1.105,0 0,0 0,-1.247 0,-1.247 z"
       id="path14"
       inkscape:connector-curvature="0" />
  </g>
  <g
     transform="translate(17.538998,1.61)"
     style="fill:#161413;fill-rule:evenodd;stroke:none"
     id="g16">
    <path
       d="m 1.534,2.222 c 0,0 0,-1.814 0,-1.814 C 1.534,0.1 1.475,0 1.136,0 1.136,0 0.409,0 0.409,0 0.249,0 0,0 0,0.309 c 0,0.299 0.26,0.299 0.399,0.299 0,0 0.449,0 0.449,0 0,0 0,5.071 0,5.071 0,0.199 0,0.408 0.348,0.408 0.338,0 0.338,-0.199 0.338,-0.448 C 1.943,6.057 2.371,6.147 2.691,6.147 3.777,6.147 4.742,5.2 4.742,3.935 4.742,2.71 3.856,1.733 2.8,1.733 2.321,1.733 1.873,1.912 1.534,2.222 z m 0,1.962 c 0,0 0,-0.727 0,-0.727 0,-0.588 0.578,-1.116 1.206,-1.116 0.738,0 1.316,0.727 1.316,1.594 0,0.957 -0.698,1.604 -1.396,1.604 -0.776,0 -1.126,-0.877 -1.126,-1.355 z"
       id="path18"
       inkscape:connector-curvature="0" />
  </g>
  <g
     transform="translate(23.217998,3.313)"
     style="fill:#161413;fill-rule:evenodd;stroke:none"
     id="g20">
    <path
       d="m 3.098,4.066 c 0.219,0.308 0.698,0.318 1.077,0.318 0.278,0 0.498,0 0.498,-0.309 0,-0.298 -0.249,-0.298 -0.399,-0.298 -0.419,0 -0.518,-0.05 -0.597,-0.081 0,0 0,-2.151 0,-2.151 C 3.677,0.837 3.139,0 1.704,0 1.275,0 0.259,0 0.259,0.728 c 0,0.299 0.21,0.458 0.448,0.458 0.149,0 0.429,-0.09 0.438,-0.458 0,-0.08 0.01,-0.09 0.21,-0.11 0.139,-0.009 0.269,-0.009 0.359,-0.009 0.757,0 1.275,0.308 1.275,1.015 C 1.225,1.655 0,2.153 0,3.109 c 0,0.687 0.628,1.335 1.643,1.335 0.37,0 0.987,-0.07 1.455,-0.378 z M 2.989,2.212 c 0,0 0,0.837 0,0.837 0,0.23 0,0.439 -0.389,0.617 -0.359,0.17 -0.807,0.17 -0.886,0.17 -0.618,0 -1.027,-0.339 -1.027,-0.727 0,-0.489 0.857,-0.857 2.302,-0.897 z"
       id="path22"
       inkscape:connector-curvature="0" />
  </g>
  <g
     transform="translate(28.168998,2.177)"
     style="fill:#161413;fill-rule:evenodd;stroke:none"
     id="g24">
    <path
       d="m 1.963,1.833 c 0,0 1.634,0 1.634,0 0.149,0 0.398,0 0.398,-0.298 0,-0.309 -0.239,-0.309 -0.398,-0.309 0,0 -1.634,0 -1.634,0 0,0 0,-0.816 0,-0.816 C 1.963,0.22 1.963,0 1.624,0 1.275,0 1.275,0.209 1.275,0.41 c 0,0 0,0.816 0,0.816 0,0 -0.867,0 -0.867,0 -0.159,0 -0.408,0 -0.408,0.309 0,0.298 0.249,0.298 0.398,0.298 0,0 0.877,0 0.877,0 0,0 0,2.432 0,2.432 0,0.956 0.678,1.315 1.405,1.315 0.737,0 1.545,-0.428 1.545,-1.315 0,-0.18 0,-0.389 -0.349,-0.389 -0.329,0 -0.339,0.209 -0.339,0.378 C 3.526,4.873 2.959,4.972 2.73,4.972 1.963,4.972 1.963,4.454 1.963,4.205 c 0,0 0,-2.372 0,-2.372 z"
       id="path26"
       inkscape:connector-curvature="0" />
  </g>
  <g
     transform="translate(33.946998,1.6)"
     style="fill:#161413;fill-rule:evenodd;stroke:none"
     id="g28">
    <path
       d="m 2.301,2.211 c 0,-0.308 -0.059,-0.408 -0.398,-0.408 0,0 -1.414,0 -1.414,0 -0.15,0 -0.41,0 -0.41,0.299 0,0.308 0.26,0.308 0.41,0.308 0,0 1.125,0 1.125,0 0,0 0,3.08 0,3.08 0,0 -1.205,0 -1.205,0 -0.16,0 -0.409,0 -0.409,0.308 0,0.299 0.259,0.299 0.409,0.299 0,0 2.939,0 2.939,0 0.149,0 0.408,0 0.408,-0.299 0,-0.308 -0.259,-0.308 -0.408,-0.308 0,0 -1.047,0 -1.047,0 0,0 0,-3.279 0,-3.279 z m 0,-1.713 C 2.301,0.219 2.082,0 1.803,0 1.525,0 1.305,0.219 1.305,0.498 c 0,0.279 0.22,0.498 0.498,0.498 0.279,0 0.498,-0.219 0.498,-0.498 z"
       id="path30"
       inkscape:connector-curvature="0" />
  </g>
  <g
     transform="translate(38.379998,3.343)"
     style="fill:#161413;fill-rule:evenodd;stroke:none"
     id="g32">
    <path
       d="M 1.126,0.359 C 1.106,0.06 0.907,0.06 0.728,0.06 c 0,0 -0.32,0 -0.32,0 C 0.259,0.06 0,0.06 0,0.359 c 0,0.308 0.209,0.308 0.568,0.308 0,0 0,3.08 0,3.08 -0.359,0 -0.568,0 -0.568,0.308 0,0.299 0.269,0.299 0.408,0.299 0,0 0.877,0 0.877,0 0.15,0 0.408,0 0.408,-0.299 0,-0.308 -0.209,-0.308 -0.567,-0.308 0,0 0,-1.784 0,-1.784 0,-0.886 0.408,-1.355 0.817,-1.355 0.229,0 0.368,0.17 0.368,0.817 0,0 0,2.322 0,2.322 -0.189,0 -0.438,0 -0.438,0.308 0,0.299 0.27,0.299 0.408,0.299 0,0 0.748,0 0.748,0 0.15,0 0.408,0 0.408,-0.299 0,-0.308 -0.209,-0.308 -0.568,-0.308 0,0 0,-1.784 0,-1.784 0,-0.886 0.409,-1.355 0.817,-1.355 0.229,0 0.369,0.17 0.369,0.817 0,0 0,2.322 0,2.322 -0.19,0 -0.439,0 -0.439,0.308 0,0.299 0.27,0.299 0.409,0.299 0,0 0.747,0 0.747,0 0.15,0 0.409,0 0.409,-0.299 0,-0.308 -0.209,-0.308 -0.568,-0.308 0,0 0,-2.412 0,-2.412 C 4.613,1.136 4.613,0 3.727,0 3.428,0 3.019,0.129 2.74,0.518 2.591,0.179 2.311,0 1.982,0 1.664,0 1.365,0.14 1.126,0.359 z"
       id="path34"
       inkscape:connector-curvature="0" />
  </g>
  <g
     transform="translate(48.967998,3.313)"
     style="fill:#161413;fill-rule:evenodd;stroke:none"
     id="g36">
    <path
       d="m 3.677,2.481 c 0.209,0 0.398,0 0.398,-0.368 C 4.075,0.977 3.437,0 2.141,0 0.956,0 0,0.996 0,2.222 0,3.438 1.006,4.444 2.291,4.444 3.606,4.444 4.075,3.547 4.075,3.298 4.075,3.019 3.786,3.019 3.726,3.019 3.547,3.019 3.467,3.049 3.397,3.238 3.178,3.746 2.64,3.836 2.361,3.836 1.614,3.836 0.867,3.338 0.707,2.481 c 0,0 2.97,0 2.97,0 z M 0.718,1.883 C 0.856,1.156 1.444,0.609 2.141,0.609 c 0.519,0 1.136,0.249 1.226,1.274 0,0 -2.649,0 -2.649,0 z"
       id="path38"
       inkscape:connector-curvature="0" />
  </g>
  <g
     transform="translate(53.938998,3.403)"
     style="fill:#161413;fill-rule:evenodd;stroke:none"
     id="g40">
    <path
       d="m 2.59,2.082 c 0,0 1.136,-1.475 1.136,-1.475 0,0 0.399,0 0.399,0 0.139,0 0.408,0 0.408,-0.298 C 4.533,0 4.274,0 4.125,0 4.125,0 2.959,0 2.959,0 2.809,0 2.56,0 2.56,0.299 c 0,0.308 0.22,0.308 0.488,0.308 0,0 -0.737,1.007 -0.737,1.007 0,0 -0.757,-1.007 -0.757,-1.007 0.259,0 0.479,0 0.479,-0.308 C 2.033,0 1.784,0 1.634,0 1.634,0 0.468,0 0.468,0 0.319,0 0.06,0 0.06,0.309 c 0,0.298 0.269,0.298 0.408,0.298 0,0 0.399,0 0.399,0 0,0 1.176,1.475 1.176,1.475 0,0 -1.236,1.605 -1.236,1.605 0,0 -0.398,0 -0.398,0 -0.15,0 -0.409,0 -0.409,0.308 0,0.299 0.269,0.299 0.409,0.299 0,0 1.165,0 1.165,0 0.149,0 0.398,0 0.398,-0.299 0,-0.308 -0.209,-0.308 -0.517,-0.308 0,0 0.856,-1.226 0.856,-1.226 0,0 0.887,1.226 0.887,1.226 -0.279,0 -0.498,0 -0.498,0.308 0,0.299 0.249,0.299 0.398,0.299 0,0 1.166,0 1.166,0 0.14,0 0.408,0 0.408,-0.299 0,-0.308 -0.258,-0.308 -0.408,-0.308 0,0 -0.398,0 -0.398,0 0,0 -1.276,-1.605 -1.276,-1.605 z"
       id="path42"
       inkscape:connector-curvature="0" />
  </g>
  <g
     transform="translate(59.418998,2.177)"
     style="fill:#161413;fill-rule:evenodd;stroke:none"
     id="g44">
    <path
       d="m 1.963,1.833 c 0,0 1.634,0 1.634,0 0.149,0 0.398,0 0.398,-0.298 0,-0.309 -0.239,-0.309 -0.398,-0.309 0,0 -1.634,0 -1.634,0 0,0 0,-0.816 0,-0.816 C 1.963,0.22 1.963,0 1.624,0 1.275,0 1.275,0.209 1.275,0.41 c 0,0 0,0.816 0,0.816 0,0 -0.867,0 -0.867,0 -0.159,0 -0.408,0 -0.408,0.309 0,0.298 0.249,0.298 0.398,0.298 0,0 0.877,0 0.877,0 0,0 0,2.432 0,2.432 0,0.956 0.678,1.315 1.405,1.315 0.737,0 1.545,-0.428 1.545,-1.315 0,-0.18 0,-0.389 -0.349,-0.389 -0.329,0 -0.339,0.209 -0.339,0.378 C 3.526,4.873 2.959,4.972 2.73,4.972 1.963,4.972 1.963,4.454 1.963,4.205 c 0,0 0,-2.372 0,-2.372 z"
       id="path46"
       inkscape:connector-curvature="0" />
  </g>
  <g
     transform="translate(64.967998,3.313)"
     style="fill:#161413;fill-rule:evenodd;stroke:none"
     id="g48">
    <path
       d="m 3.677,2.481 c 0.209,0 0.398,0 0.398,-0.368 C 4.075,0.977 3.437,0 2.141,0 0.956,0 0,0.996 0,2.222 0,3.438 1.006,4.444 2.291,4.444 3.606,4.444 4.075,3.547 4.075,3.298 4.075,3.019 3.786,3.019 3.726,3.019 3.547,3.019 3.467,3.049 3.397,3.238 3.178,3.746 2.64,3.836 2.361,3.836 1.614,3.836 0.867,3.338 0.707,2.481 c 0,0 2.97,0 2.97,0 z M 0.718,1.883 C 0.856,1.156 1.444,0.609 2.141,0.609 c 0.519,0 1.136,0.249 1.226,1.274 0,0 -2.649,0 -2.649,0 z"
       id="path50"
       inkscape:connector-curvature="0" />
  </g>
  <g
     transform="translate(69.788998,3.343)"
     style="fill:#161413;fill-rule:evenodd;stroke:none"
     id="g52">
    <path
       d="m 1.534,0.529 c 0,-0.32 0,-0.469 -0.398,-0.469 0,0 -0.727,0 -0.727,0 -0.16,0 -0.409,0 -0.409,0.309 0,0.298 0.26,0.298 0.399,0.298 0,0 0.449,0 0.449,0 0,0 0,3.08 0,3.08 0,0 -0.439,0 -0.439,0 -0.16,0 -0.409,0 -0.409,0.308 0,0.299 0.26,0.299 0.399,0.299 0,0 1.585,0 1.585,0 0.138,0 0.398,0 0.398,-0.299 0,-0.308 -0.249,-0.308 -0.409,-0.308 0,0 -0.439,0 -0.439,0 0,0 0,-1.764 0,-1.764 0,-0.996 0.738,-1.375 1.246,-1.375 0.528,0 0.667,0.279 0.667,0.877 0,0 0,2.262 0,2.262 0,0 -0.388,0 -0.388,0 -0.159,0 -0.408,0 -0.408,0.308 0,0.299 0.269,0.299 0.408,0.299 0,0 1.524,0 1.524,0 0.14,0 0.399,0 0.399,-0.299 0,-0.308 -0.249,-0.308 -0.409,-0.308 0,0 -0.438,0 -0.438,0 0,0 0,-2.312 0,-2.312 C 4.135,0.429 3.627,0 2.84,0 2.172,0 1.724,0.339 1.534,0.529 z"
       id="path54"
       inkscape:connector-curvature="0" />
  </g>
  <g
     transform="translate(75.277998,1.61)"
     style="fill:#161413;fill-rule:evenodd;stroke:none"
     id="g56">
    <path
       d="m 3.208,5.589 c 0,0.358 0,0.498 0.399,0.498 0,0 0.727,0 0.727,0 0.16,0 0.409,0 0.409,-0.309 0,-0.298 -0.259,-0.298 -0.399,-0.298 0,0 -0.448,0 -0.448,0 0,0 0,-5.072 0,-5.072 C 3.896,0.1 3.836,0 3.497,0 3.497,0 2.77,0 2.77,0 2.611,0 2.362,0 2.362,0.309 c 0,0.299 0.259,0.299 0.398,0.299 0,0 0.448,0 0.448,0 0,0 0,1.574 0,1.574 C 2.88,1.893 2.471,1.733 2.043,1.733 0.957,1.733 0,2.68 0,3.945 0,5.181 0.897,6.147 1.954,6.147 2.511,6.147 2.93,5.878 3.208,5.589 z m 0,-2.142 c 0,0 0,0.707 0,0.707 0,0.558 -0.448,1.385 -1.214,1.385 -0.708,0 -1.306,-0.707 -1.306,-1.594 0,-0.957 0.697,-1.604 1.394,-1.604 0.638,0 1.126,0.558 1.126,1.106 z"
       id="path58"
       inkscape:connector-curvature="0" />
  </g>
  <g
     transform="translate(80.717998,3.313)"
     style="fill:#161413;fill-rule:evenodd;stroke:none"
     id="g60">
    <path
       d="m 3.677,2.481 c 0.209,0 0.398,0 0.398,-0.368 C 4.075,0.977 3.437,0 2.141,0 0.956,0 0,0.996 0,2.222 0,3.438 1.006,4.444 2.291,4.444 3.606,4.444 4.075,3.547 4.075,3.298 4.075,3.019 3.786,3.019 3.726,3.019 3.547,3.019 3.467,3.049 3.397,3.238 3.178,3.746 2.64,3.836 2.361,3.836 1.614,3.836 0.867,3.338 0.707,2.481 c 0,0 2.97,0 2.97,0 z M 0.718,1.883 C 0.856,1.156 1.444,0.609 2.141,0.609 c 0.519,0 1.136,0.249 1.226,1.274 0,0 -2.649,0 -2.649,0 z"
       id="path62"
       inkscape:connector-curvature="0" />
  </g>
  <g
     transform="translate(85.777998,1.61)"
     style="fill:#161413;fill-rule:evenodd;stroke:none"
     id="g64">
    <path
       d="m 3.208,5.589 c 0,0.358 0,0.498 0.399,0.498 0,0 0.727,0 0.727,0 0.16,0 0.409,0 0.409,-0.309 0,-0.298 -0.259,-0.298 -0.399,-0.298 0,0 -0.448,0 -0.448,0 0,0 0,-5.072 0,-5.072 C 3.896,0.1 3.836,0 3.497,0 3.497,0 2.77,0 2.77,0 2.611,0 2.362,0 2.362,0.309 c 0,0.299 0.259,0.299 0.398,0.299 0,0 0.448,0 0.448,0 0,0 0,1.574 0,1.574 C 2.88,1.893 2.471,1.733 2.043,1.733 0.957,1.733 0,2.68 0,3.945 0,5.181 0.897,6.147 1.954,6.147 2.511,6.147 2.93,5.878 3.208,5.589 z m 0,-2.142 c 0,0 0,0.707 0,0.707 0,0.558 -0.448,1.385 -1.214,1.385 -0.708,0 -1.306,-0.707 -1.306,-1.594 0,-0.957 0.697,-1.604 1.394,-1.604 0.638,0 1.126,0.558 1.126,1.106 z"
       id="path66"
       inkscape:connector-curvature="0" />
  </g>
  <g
     transform="translate(95.578998,3.403)"
     style="fill:#161413;fill-rule:evenodd;stroke:none"
     id="g68">
    <path
       d="m 4.394,0.607 c 0.299,0 0.508,0 0.508,-0.308 C 4.902,0 4.663,0 4.484,0 c 0,0 -1.146,0 -1.146,0 -0.18,0 -0.419,0 -0.419,0.299 0,0.308 0.23,0.308 0.419,0.308 0,0 0.488,0 0.488,0 0,0 -0.498,2.969 -0.498,2.969 0,0 -0.01,0 -0.01,0 C 3.279,3.317 3.149,2.859 3.029,2.451 2.85,1.823 2.82,1.714 2.471,1.714 c -0.1,0 -0.289,0 -0.399,0.219 -0.029,0.07 -0.427,1.444 -0.467,1.643 0,0 -0.01,0 -0.01,0 0,0 -0.519,-2.969 -0.519,-2.969 0,0 0.489,0 0.489,0 0.179,0 0.418,0 0.418,-0.298 C 1.983,0 1.754,0 1.565,0 1.565,0 0.419,0 0.419,0 0.239,0 0,0 0,0.299 c 0,0.308 0.209,0.308 0.509,0.308 0,0 0.598,3.348 0.598,3.348 0.039,0.23 0.069,0.379 0.467,0.379 0.399,0 0.429,-0.09 0.608,-0.697 0.249,-0.877 0.26,-1.017 0.289,-1.236 0,0 0.01,0 0.01,0 0.049,0.518 0.419,1.684 0.459,1.763 0.119,0.17 0.298,0.17 0.418,0.17 0.369,0 0.398,-0.159 0.438,-0.379 0,0 0.598,-3.348 0.598,-3.348 z"
       id="path70"
       inkscape:connector-curvature="0" />
  </g>
  <g
     transform="translate(101.697,1.6)"
     style="fill:#161413;fill-rule:evenodd;stroke:none"
     id="g72">
    <path
       d="m 2.301,2.211 c 0,-0.308 -0.059,-0.408 -0.398,-0.408 0,0 -1.414,0 -1.414,0 -0.15,0 -0.41,0 -0.41,0.299 0,0.308 0.26,0.308 0.41,0.308 0,0 1.125,0 1.125,0 0,0 0,3.08 0,3.08 0,0 -1.205,0 -1.205,0 -0.16,0 -0.409,0 -0.409,0.308 0,0.299 0.259,0.299 0.409,0.299 0,0 2.939,0 2.939,0 0.149,0 0.408,0 0.408,-0.299 0,-0.308 -0.259,-0.308 -0.408,-0.308 0,0 -1.047,0 -1.047,0 0,0 0,-3.279 0,-3.279 z m 0,-1.713 C 2.301,0.219 2.082,0 1.803,0 1.525,0 1.305,0.219 1.305,0.498 c 0,0.279 0.22,0.498 0.498,0.498 0.279,0 0.498,-0.219 0.498,-0.498 z"
       id="path74"
       inkscape:connector-curvature="0" />
  </g>
  <g
     transform="translate(106.419,2.177)"
     style="fill:#161413;fill-rule:evenodd;stroke:none"
     id="g76">
    <path
       d="m 1.963,1.833 c 0,0 1.634,0 1.634,0 0.149,0 0.398,0 0.398,-0.298 0,-0.309 -0.239,-0.309 -0.398,-0.309 0,0 -1.634,0 -1.634,0 0,0 0,-0.816 0,-0.816 C 1.963,0.22 1.963,0 1.624,0 1.275,0 1.275,0.209 1.275,0.41 c 0,0 0,0.816 0,0.816 0,0 -0.867,0 -0.867,0 -0.159,0 -0.408,0 -0.408,0.309 0,0.298 0.249,0.298 0.398,0.298 0,0 0.877,0 0.877,0 0,0 0,2.432 0,2.432 0,0.956 0.678,1.315 1.405,1.315 0.737,0 1.545,-0.428 1.545,-1.315 0,-0.18 0,-0.389 -0.349,-0.389 -0.329,0 -0.339,0.209 -0.339,0.378 C 3.526,4.873 2.959,4.972 2.73,4.972 1.963,4.972 1.963,4.454 1.963,4.205 c 0,0 0,-2.372 0,-2.372 z"
       id="path78"
       inkscape:connector-curvature="0" />
  </g>
  <g
     transform="translate(111.539,1.61)"
     style="fill:#161413;fill-rule:evenodd;stroke:none"
     id="g80">
    <path
       d="m 4.135,3.168 c 0,-1.006 -0.508,-1.435 -1.295,-1.435 -0.668,0 -1.116,0.339 -1.306,0.529 0,0 0,-1.854 0,-1.854 C 1.534,0.1 1.475,0 1.136,0 1.136,0 0.409,0 0.409,0 0.249,0 0,0 0,0.309 c 0,0.299 0.26,0.299 0.399,0.299 0,0 0.449,0 0.449,0 0,0 0,4.872 0,4.872 0,0 -0.439,0 -0.439,0 -0.16,0 -0.409,0 -0.409,0.308 0,0.299 0.26,0.299 0.399,0.299 0,0 1.585,0 1.585,0 0.138,0 0.398,0 0.398,-0.299 0,-0.308 -0.249,-0.308 -0.409,-0.308 0,0 -0.439,0 -0.439,0 0,0 0,-1.764 0,-1.764 0,-0.996 0.738,-1.375 1.246,-1.375 0.528,0 0.667,0.279 0.667,0.877 0,0 0,2.262 0,2.262 0,0 -0.388,0 -0.388,0 -0.159,0 -0.408,0 -0.408,0.308 0,0.299 0.269,0.299 0.408,0.299 0,0 1.524,0 1.524,0 0.14,0 0.399,0 0.399,-0.299 0,-0.308 -0.249,-0.308 -0.409,-0.308 0,0 -0.438,0 -0.438,0 0,0 0,-2.312 0,-2.312 z"
       id="path82"
       inkscape:connector-curvature="0" />
  </g>
  <g
     transform="translate(121.919,2.177)"
     style="fill:#161413;fill-rule:evenodd;stroke:none"
     id="g84">
    <path
       d="m 1.963,1.833 c 0,0 1.634,0 1.634,0 0.149,0 0.398,0 0.398,-0.298 0,-0.309 -0.239,-0.309 -0.398,-0.309 0,0 -1.634,0 -1.634,0 0,0 0,-0.816 0,-0.816 C 1.963,0.22 1.963,0 1.624,0 1.275,0 1.275,0.209 1.275,0.41 c 0,0 0,0.816 0,0.816 0,0 -0.867,0 -0.867,0 -0.159,0 -0.408,0 -0.408,0.309 0,0.298 0.249,0.298 0.398,0.298 0,0 0.877,0 0.877,0 0,0 0,2.432 0,2.432 0,0.956 0.678,1.315 1.405,1.315 0.737,0 1.545,-0.428 1.545,-1.315 0,-0.18 0,-0.389 -0.349,-0.389 -0.329,0 -0.339,0.209 -0.339,0.378 C 3.526,4.873 2.959,4.972 2.73,4.972 1.963,4.972 1.963,4.454 1.963,4.205 c 0,0 0,-2.372 0,-2.372 z"
       id="path86"
       inkscape:connector-curvature="0" />
  </g>
  <g
     transform="translate(127.039,1.61)"
     style="fill:#161413;fill-rule:evenodd;stroke:none"
     id="g88">
    <path
       d="m 4.135,3.168 c 0,-1.006 -0.508,-1.435 -1.295,-1.435 -0.668,0 -1.116,0.339 -1.306,0.529 0,0 0,-1.854 0,-1.854 C 1.534,0.1 1.475,0 1.136,0 1.136,0 0.409,0 0.409,0 0.249,0 0,0 0,0.309 c 0,0.299 0.26,0.299 0.399,0.299 0,0 0.449,0 0.449,0 0,0 0,4.872 0,4.872 0,0 -0.439,0 -0.439,0 -0.16,0 -0.409,0 -0.409,0.308 0,0.299 0.26,0.299 0.399,0.299 0,0 1.585,0 1.585,0 0.138,0 0.398,0 0.398,-0.299 0,-0.308 -0.249,-0.308 -0.409,-0.308 0,0 -0.439,0 -0.439,0 0,0 0,-1.764 0,-1.764 0,-0.996 0.738,-1.375 1.246,-1.375 0.528,0 0.667,0.279 0.667,0.877 0,0 0,2.262 0,2.262 0,0 -0.388,0 -0.388,0 -0.159,0 -0.408,0 -0.408,0.308 0,0.299 0.269,0.299 0.408,0.299 0,0 1.524,0 1.524,0 0.14,0 0.399,0 0.399,-0.299 0,-0.308 -0.249,-0.308 -0.409,-0.308 0,0 -0.438,0 -0.438,0 0,0 0,-2.312 0,-2.312 z"
       id="path90"
       inkscape:connector-curvature="0" />
  </g>
  <g
     transform="translate(132.718,3.313)"
     style="fill:#161413;fill-rule:evenodd;stroke:none"
     id="g92">
    <path
       d="m 3.677,2.481 c 0.209,0 0.398,0 0.398,-0.368 C 4.075,0.977 3.437,0 2.141,0 0.956,0 0,0.996 0,2.222 0,3.438 1.006,4.444 2.291,4.444 3.606,4.444 4.075,3.547 4.075,3.298 4.075,3.019 3.786,3.019 3.726,3.019 3.547,3.019 3.467,3.049 3.397,3.238 3.178,3.746 2.64,3.836 2.361,3.836 1.614,3.836 0.867,3.338 0.707,2.481 c 0,0 2.97,0 2.97,0 z M 0.718,1.883 C 0.856,1.156 1.444,0.609 2.141,0.609 c 0.519,0 1.136,0.249 1.226,1.274 0,0 -2.649,0 -2.649,0 z"
       id="path94"
       inkscape:connector-curvature="0" />
  </g>
  <g
     transform="translate(143.218,3.313)"
     style="fill:#161413;fill-rule:evenodd;stroke:none"
     id="g96">
    <path
       d="m 3.098,4.066 c 0.219,0.308 0.698,0.318 1.077,0.318 0.278,0 0.498,0 0.498,-0.309 0,-0.298 -0.249,-0.298 -0.399,-0.298 -0.419,0 -0.518,-0.05 -0.597,-0.081 0,0 0,-2.151 0,-2.151 C 3.677,0.837 3.139,0 1.704,0 1.275,0 0.259,0 0.259,0.728 c 0,0.299 0.21,0.458 0.448,0.458 0.149,0 0.429,-0.09 0.438,-0.458 0,-0.08 0.01,-0.09 0.21,-0.11 0.139,-0.009 0.269,-0.009 0.359,-0.009 0.757,0 1.275,0.308 1.275,1.015 C 1.225,1.655 0,2.153 0,3.109 c 0,0.687 0.628,1.335 1.643,1.335 0.37,0 0.987,-0.07 1.455,-0.378 z M 2.989,2.212 c 0,0 0,0.837 0,0.837 0,0.23 0,0.439 -0.389,0.617 -0.359,0.17 -0.807,0.17 -0.886,0.17 -0.618,0 -1.027,-0.339 -1.027,-0.727 0,-0.489 0.857,-0.857 2.302,-0.897 z"
       id="path98"
       inkscape:connector-curvature="0" />
  </g>
  <g
     transform="translate(148.039,1.61)"
     style="fill:#161413;fill-rule:evenodd;stroke:none"
     id="g100">
    <path
       d="m 1.534,2.222 c 0,0 0,-1.814 0,-1.814 C 1.534,0.1 1.475,0 1.136,0 1.136,0 0.409,0 0.409,0 0.249,0 0,0 0,0.309 c 0,0.299 0.26,0.299 0.399,0.299 0,0 0.449,0 0.449,0 0,0 0,5.071 0,5.071 0,0.199 0,0.408 0.348,0.408 0.338,0 0.338,-0.199 0.338,-0.448 C 1.943,6.057 2.371,6.147 2.691,6.147 3.777,6.147 4.742,5.2 4.742,3.935 4.742,2.71 3.856,1.733 2.8,1.733 2.321,1.733 1.873,1.912 1.534,2.222 z m 0,1.962 c 0,0 0,-0.727 0,-0.727 0,-0.588 0.578,-1.116 1.206,-1.116 0.738,0 1.316,0.727 1.316,1.594 0,0.957 -0.698,1.604 -1.396,1.604 -0.776,0 -1.126,-0.877 -1.126,-1.355 z"
       id="path102"
       inkscape:connector-curvature="0" />
  </g>
  <g
     transform="translate(153.947,1.6)"
     style="fill:#161413;fill-rule:evenodd;stroke:none"
     id="g104">
    <path
       d="m 2.301,2.211 c 0,-0.308 -0.059,-0.408 -0.398,-0.408 0,0 -1.414,0 -1.414,0 -0.15,0 -0.41,0 -0.41,0.299 0,0.308 0.26,0.308 0.41,0.308 0,0 1.125,0 1.125,0 0,0 0,3.08 0,3.08 0,0 -1.205,0 -1.205,0 -0.16,0 -0.409,0 -0.409,0.308 0,0.299 0.259,0.299 0.409,0.299 0,0 2.939,0 2.939,0 0.149,0 0.408,0 0.408,-0.299 0,-0.308 -0.259,-0.308 -0.408,-0.308 0,0 -1.047,0 -1.047,0 0,0 0,-3.279 0,-3.279 z m 0,-1.713 C 2.301,0.219 2.082,0 1.803,0 1.525,0 1.305,0.219 1.305,0.498 c 0,0.279 0.22,0.498 0.498,0.498 0.279,0 0.498,-0.219 0.498,-0.498 z"
       id="path106"
       inkscape:connector-curvature="0" />
  </g>
  <g
     transform="translate(158.998,1.61)"
     style="fill:#161413;fill-rule:evenodd;stroke:none"
     id="g108">
    <path
       d="M 2.381,0.408 C 2.381,0.1 2.321,0 1.983,0 1.983,0 0.408,0 0.408,0 0.249,0 0,0 0,0.309 c 0,0.299 0.259,0.299 0.399,0.299 0,0 1.294,0 1.294,0 0,0 0,4.872 0,4.872 0,0 -1.285,0 -1.285,0 C 0.249,5.48 0,5.48 0,5.788 c 0,0.299 0.259,0.299 0.399,0.299 0,0 3.277,0 3.277,0 0.149,0 0.398,0 0.398,-0.299 0,-0.308 -0.239,-0.308 -0.398,-0.308 0,0 -1.295,0 -1.295,0 0,0 0,-5.072 0,-5.072 z"
       id="path110"
       inkscape:connector-curvature="0" />
  </g>
  <g
     transform="translate(164.697,1.6)"
     style="fill:#161413;fill-rule:evenodd;stroke:none"
     id="g112">
    <path
       d="m 2.301,2.211 c 0,-0.308 -0.059,-0.408 -0.398,-0.408 0,0 -1.414,0 -1.414,0 -0.15,0 -0.41,0 -0.41,0.299 0,0.308 0.26,0.308 0.41,0.308 0,0 1.125,0 1.125,0 0,0 0,3.08 0,3.08 0,0 -1.205,0 -1.205,0 -0.16,0 -0.409,0 -0.409,0.308 0,0.299 0.259,0.299 0.409,0.299 0,0 2.939,0 2.939,0 0.149,0 0.408,0 0.408,-0.299 0,-0.308 -0.259,-0.308 -0.408,-0.308 0,0 -1.047,0 -1.047,0 0,0 0,-3.279 0,-3.279 z m 0,-1.713 C 2.301,0.219 2.082,0 1.803,0 1.525,0 1.305,0.219 1.305,0.498 c 0,0.279 0.22,0.498 0.498,0.498 0.279,0 0.498,-0.219 0.498,-0.498 z"
       id="path114"
       inkscape:connector-curvature="0" />
  </g>
  <g
     transform="translate(169.419,2.177)"
     style="fill:#161413;fill-rule:evenodd;stroke:none"
     id="g116">
    <path
       d="m 1.963,1.833 c 0,0 1.634,0 1.634,0 0.149,0 0.398,0 0.398,-0.298 0,-0.309 -0.239,-0.309 -0.398,-0.309 0,0 -1.634,0 -1.634,0 0,0 0,-0.816 0,-0.816 C 1.963,0.22 1.963,0 1.624,0 1.275,0 1.275,0.209 1.275,0.41 c 0,0 0,0.816 0,0.816 0,0 -0.867,0 -0.867,0 -0.159,0 -0.408,0 -0.408,0.309 0,0.298 0.249,0.298 0.398,0.298 0,0 0.877,0 0.877,0 0,0 0,2.432 0,2.432 0,0.956 0.678,1.315 1.405,1.315 0.737,0 1.545,-0.428 1.545,-1.315 0,-0.18 0,-0.389 -0.349,-0.389 -0.329,0 -0.339,0.209 -0.339,0.378 C 3.526,4.873 2.959,4.972 2.73,4.972 1.963,4.972 1.963,4.454 1.963,4.205 c 0,0 0,-2.372 0,-2.372 z"
       id="path118"
       inkscape:connector-curvature="0" />
  </g>
  <g
     transform="translate(174.679,3.403)"
     style="fill:#161413;fill-rule:evenodd;stroke:none"
     id="g120">
    <path
       d="m 4.025,0.607 c 0,0 0.299,0 0.299,0 0.149,0 0.398,0 0.398,-0.298 C 4.722,0 4.483,0 4.324,0 4.324,0 3.158,0 3.158,0 3.009,0 2.76,0 2.76,0.299 c 0,0.308 0.239,0.308 0.398,0.308 0,0 0.279,0 0.279,0 0,0 -0.717,2.123 -0.717,2.123 -0.129,0.369 -0.19,0.547 -0.259,0.857 0,0 -0.01,0 -0.01,0 -0.05,-0.189 -0.14,-0.398 -0.209,-0.588 0,0 -0.927,-2.392 -0.927,-2.392 0,0 0.249,0 0.249,0 0.15,0 0.399,0 0.399,-0.298 C 1.963,0 1.723,0 1.564,0 1.564,0 0.398,0 0.398,0 0.239,0 0,0 0,0.309 c 0,0.298 0.249,0.298 0.398,0.298 0,0 0.31,0 0.31,0 0,0 1.414,3.557 1.414,3.557 0.04,0.1 0.04,0.12 0.04,0.13 0,0.02 -0.249,0.837 -0.379,1.086 -0.288,0.548 -0.647,0.567 -0.797,0.578 0,-0.011 0.05,-0.09 0.05,-0.22 0,-0.249 -0.179,-0.427 -0.428,-0.427 -0.269,0 -0.438,0.178 -0.438,0.437 0,0.419 0.339,0.817 0.826,0.817 0.997,0 1.445,-1.315 1.484,-1.424 0,0 1.545,-4.534 1.545,-4.534 z"
       id="path122"
       inkscape:connector-curvature="0" />
  </g>
  <g
     transform="translate(1.6689982,14.177)"
     style="fill:#161413;fill-rule:evenodd;stroke:none"
     id="g124">
    <path
       d="m 1.963,1.833 c 0,0 1.634,0 1.634,0 0.149,0 0.398,0 0.398,-0.298 0,-0.309 -0.239,-0.309 -0.398,-0.309 0,0 -1.634,0 -1.634,0 0,0 0,-0.816 0,-0.816 C 1.963,0.22 1.963,0 1.624,0 1.275,0 1.275,0.209 1.275,0.41 c 0,0 0,0.816 0,0.816 0,0 -0.867,0 -0.867,0 -0.159,0 -0.408,0 -0.408,0.309 0,0.298 0.249,0.298 0.398,0.298 0,0 0.877,0 0.877,0 0,0 0,2.432 0,2.432 0,0.956 0.678,1.315 1.405,1.315 0.737,0 1.545,-0.428 1.545,-1.315 0,-0.18 0,-0.389 -0.349,-0.389 -0.329,0 -0.339,0.209 -0.339,0.378 C 3.526,4.873 2.959,4.972 2.73,4.972 1.963,4.972 1.963,4.454 1.963,4.205 c 0,0 0,-2.372 0,-2.372 z"
       id="path126"
       inkscape:connector-curvature="0" />
  </g>
  <g
     transform="translate(7.2379982,15.313)"
     style="fill:#161413;fill-rule:evenodd;stroke:none"
     id="g128">
    <path
       d="M 4.084,2.232 C 4.084,0.987 3.158,0 2.042,0 0.926,0 0,0.987 0,2.232 0,3.497 0.947,4.444 2.042,4.444 3.138,4.444 4.084,3.488 4.084,2.232 z M 2.042,3.836 c -0.737,0 -1.355,-0.747 -1.355,-1.674 0,-0.906 0.648,-1.553 1.355,-1.553 0.717,0 1.355,0.647 1.355,1.553 0,0.927 -0.617,1.674 -1.355,1.674 z"
       id="path130"
       inkscape:connector-curvature="0" />
  </g>
  <g
     transform="translate(17.288998,15.403)"
     style="fill:#161413;fill-rule:evenodd;stroke:none"
     id="g132">
    <path
       d="m 3.447,3.976 c 0.01,0.318 0.22,0.318 0.399,0.318 0,0 0.727,0 0.727,0 0.16,0 0.409,0 0.409,-0.309 0,-0.298 -0.259,-0.298 -0.399,-0.298 0,0 -0.448,0 -0.448,0 0,0 0,-3.279 0,-3.279 C 4.135,0.1 4.075,0 3.736,0 3.736,0 3.009,0 3.009,0 2.85,0 2.601,0 2.601,0.309 c 0,0.298 0.259,0.298 0.398,0.298 0,0 0.448,0 0.448,0 0,0 0,2.123 0,2.123 0,0.896 -0.806,1.016 -1.126,1.016 -0.787,0 -0.787,-0.329 -0.787,-0.647 0,0 0,-2.691 0,-2.691 C 1.534,0.1 1.475,0 1.136,0 1.136,0 0.409,0 0.409,0 0.249,0 0,0 0,0.309 c 0,0.298 0.26,0.298 0.399,0.298 0,0 0.449,0 0.449,0 0,0 0,2.551 0,2.551 0,0.956 0.686,1.196 1.414,1.196 0.408,0 0.817,-0.1 1.185,-0.378 z"
       id="path134"
       inkscape:connector-curvature="0" />
  </g>
  <g
     transform="translate(23.137998,15.313)"
     style="fill:#161413;fill-rule:evenodd;stroke:none"
     id="g136">
    <path
       d="M 2.251,1.844 C 2.021,1.804 1.822,1.774 1.573,1.724 1.285,1.684 0.607,1.565 0.607,1.176 c 0,-0.259 0.319,-0.567 1.265,-0.567 0.827,0 0.967,0.298 0.997,0.557 0.01,0.169 0.029,0.339 0.338,0.339 0.349,0 0.349,-0.21 0.349,-0.409 0,0 0,-0.687 0,-0.687 C 3.556,0.249 3.556,0 3.257,0 3.018,0 2.978,0.14 2.958,0.209 2.52,0 2.082,0 1.892,0 0.228,0 0,0.818 0,1.176 0,2.093 1.046,2.262 1.962,2.402 2.45,2.481 3.247,2.611 3.247,3.139 3.247,3.507 2.879,3.836 1.971,3.836 1.504,3.836 0.946,3.727 0.697,2.949 0.647,2.77 0.607,2.66 0.348,2.66 0,2.66 0,2.869 0,3.069 c 0,0 0,0.966 0,0.966 0,0.16 0,0.409 0.299,0.409 0.088,0 0.249,-0.01 0.368,-0.378 0.488,0.358 1.016,0.378 1.295,0.378 1.574,0 1.893,-0.828 1.893,-1.305 0,-1.036 -1.285,-1.245 -1.604,-1.295 z"
       id="path138"
       inkscape:connector-curvature="0" />
  </g>
  <g
     transform="translate(28.217998,15.313)"
     style="fill:#161413;fill-rule:evenodd;stroke:none"
     id="g140">
    <path
       d="m 3.677,2.481 c 0.209,0 0.398,0 0.398,-0.368 C 4.075,0.977 3.437,0 2.141,0 0.956,0 0,0.996 0,2.222 0,3.438 1.006,4.444 2.291,4.444 3.606,4.444 4.075,3.547 4.075,3.298 4.075,3.019 3.786,3.019 3.726,3.019 3.547,3.019 3.467,3.049 3.397,3.238 3.178,3.746 2.64,3.836 2.361,3.836 1.614,3.836 0.867,3.338 0.707,2.481 c 0,0 2.97,0 2.97,0 z M 0.718,1.883 C 0.856,1.156 1.444,0.609 2.141,0.609 c 0.519,0 1.136,0.249 1.226,1.274 0,0 -2.649,0 -2.649,0 z"
       id="path142"
       inkscape:connector-curvature="0" />
  </g>
  <g
     transform="translate(38.288998,15.343)"
     style="fill:#161413;fill-rule:evenodd;stroke:none"
     id="g144">
    <path
       d="m 1.534,0.529 c 0,-0.32 0,-0.469 -0.398,-0.469 0,0 -0.727,0 -0.727,0 -0.16,0 -0.409,0 -0.409,0.309 0,0.298 0.26,0.298 0.399,0.298 0,0 0.449,0 0.449,0 0,0 0,3.08 0,3.08 0,0 -0.439,0 -0.439,0 -0.16,0 -0.409,0 -0.409,0.308 0,0.299 0.26,0.299 0.399,0.299 0,0 1.585,0 1.585,0 0.138,0 0.398,0 0.398,-0.299 0,-0.308 -0.249,-0.308 -0.409,-0.308 0,0 -0.439,0 -0.439,0 0,0 0,-1.764 0,-1.764 0,-0.996 0.738,-1.375 1.246,-1.375 0.528,0 0.667,0.279 0.667,0.877 0,0 0,2.262 0,2.262 0,0 -0.388,0 -0.388,0 -0.159,0 -0.408,0 -0.408,0.308 0,0.299 0.269,0.299 0.408,0.299 0,0 1.524,0 1.524,0 0.14,0 0.399,0 0.399,-0.299 0,-0.308 -0.249,-0.308 -0.409,-0.308 0,0 -0.438,0 -0.438,0 0,0 0,-2.312 0,-2.312 C 4.135,0.429 3.627,0 2.84,0 2.172,0 1.724,0.339 1.534,0.529 z"
       id="path146"
       inkscape:connector-curvature="0" />
  </g>
  <g
     transform="translate(43.987998,15.313)"
     style="fill:#161413;fill-rule:evenodd;stroke:none"
     id="g148">
    <path
       d="M 4.084,2.232 C 4.084,0.987 3.158,0 2.042,0 0.926,0 0,0.987 0,2.232 0,3.497 0.947,4.444 2.042,4.444 3.138,4.444 4.084,3.488 4.084,2.232 z M 2.042,3.836 c -0.737,0 -1.355,-0.747 -1.355,-1.674 0,-0.906 0.648,-1.553 1.355,-1.553 0.717,0 1.355,0.647 1.355,1.553 0,0.927 -0.617,1.674 -1.355,1.674 z"
       id="path150"
       inkscape:connector-curvature="0" />
  </g>
  <g
     transform="translate(48.987998,15.343)"
     style="fill:#161413;fill-rule:evenodd;stroke:none"
     id="g152">
    <path
       d="m 1.894,2.5 c 0,-0.935 0.588,-1.892 1.793,-1.892 0.01,0.239 0.18,0.438 0.429,0.438 0.218,0 0.418,-0.159 0.418,-0.428 C 4.534,0.418 4.414,0 3.587,0 3.079,0 2.442,0.179 1.894,0.807 c 0,0 0,-0.339 0,-0.339 0,-0.308 -0.06,-0.408 -0.399,-0.408 0,0 -1.095,0 -1.095,0 -0.15,0 -0.4,0 -0.4,0.299 0,0.308 0.24,0.308 0.4,0.308 0,0 0.806,0 0.806,0 0,0 0,3.08 0,3.08 0,0 -0.806,0 -0.806,0 -0.15,0 -0.4,0 -0.4,0.298 0,0.309 0.24,0.309 0.4,0.309 0,0 2.599,0 2.599,0 0.15,0 0.409,0 0.409,-0.299 0,-0.308 -0.259,-0.308 -0.409,-0.308 0,0 -1.105,0 -1.105,0 0,0 0,-1.247 0,-1.247 z"
       id="path154"
       inkscape:connector-curvature="0" />
  </g>
  <g
     transform="translate(53.879998,15.343)"
     style="fill:#161413;fill-rule:evenodd;stroke:none"
     id="g156">
    <path
       d="M 1.126,0.359 C 1.106,0.06 0.907,0.06 0.728,0.06 c 0,0 -0.32,0 -0.32,0 C 0.259,0.06 0,0.06 0,0.359 c 0,0.308 0.209,0.308 0.568,0.308 0,0 0,3.08 0,3.08 -0.359,0 -0.568,0 -0.568,0.308 0,0.299 0.269,0.299 0.408,0.299 0,0 0.877,0 0.877,0 0.15,0 0.408,0 0.408,-0.299 0,-0.308 -0.209,-0.308 -0.567,-0.308 0,0 0,-1.784 0,-1.784 0,-0.886 0.408,-1.355 0.817,-1.355 0.229,0 0.368,0.17 0.368,0.817 0,0 0,2.322 0,2.322 -0.189,0 -0.438,0 -0.438,0.308 0,0.299 0.27,0.299 0.408,0.299 0,0 0.748,0 0.748,0 0.15,0 0.408,0 0.408,-0.299 0,-0.308 -0.209,-0.308 -0.568,-0.308 0,0 0,-1.784 0,-1.784 0,-0.886 0.409,-1.355 0.817,-1.355 0.229,0 0.369,0.17 0.369,0.817 0,0 0,2.322 0,2.322 -0.19,0 -0.439,0 -0.439,0.308 0,0.299 0.27,0.299 0.409,0.299 0,0 0.747,0 0.747,0 0.15,0 0.409,0 0.409,-0.299 0,-0.308 -0.209,-0.308 -0.568,-0.308 0,0 0,-2.412 0,-2.412 C 4.613,1.136 4.613,0 3.727,0 3.428,0 3.019,0.129 2.74,0.518 2.591,0.179 2.311,0 1.982,0 1.664,0 1.365,0.14 1.126,0.359 z"
       id="path158"
       inkscape:connector-curvature="0" />
  </g>
  <g
     transform="translate(59.717998,15.313)"
     style="fill:#161413;fill-rule:evenodd;stroke:none"
     id="g160">
    <path
       d="m 3.098,4.066 c 0.219,0.308 0.698,0.318 1.077,0.318 0.278,0 0.498,0 0.498,-0.309 0,-0.298 -0.249,-0.298 -0.399,-0.298 -0.419,0 -0.518,-0.05 -0.597,-0.081 0,0 0,-2.151 0,-2.151 C 3.677,0.837 3.139,0 1.704,0 1.275,0 0.259,0 0.259,0.728 c 0,0.299 0.21,0.458 0.448,0.458 0.149,0 0.429,-0.09 0.438,-0.458 0,-0.08 0.01,-0.09 0.21,-0.11 0.139,-0.009 0.269,-0.009 0.359,-0.009 0.757,0 1.275,0.308 1.275,1.015 C 1.225,1.655 0,2.153 0,3.109 c 0,0.687 0.628,1.335 1.643,1.335 0.37,0 0.987,-0.07 1.455,-0.378 z M 2.989,2.212 c 0,0 0,0.837 0,0.837 0,0.23 0,0.439 -0.389,0.617 -0.359,0.17 -0.807,0.17 -0.886,0.17 -0.618,0 -1.027,-0.339 -1.027,-0.727 0,-0.489 0.857,-0.857 2.302,-0.897 z"
       id="path162"
       inkscape:connector-curvature="0" />
  </g>
  <g
     transform="translate(64.997998,13.61)"
     style="fill:#161413;fill-rule:evenodd;stroke:none"
     id="g164">
    <path
       d="M 2.381,0.408 C 2.381,0.1 2.321,0 1.983,0 1.983,0 0.408,0 0.408,0 0.249,0 0,0 0,0.309 c 0,0.299 0.259,0.299 0.399,0.299 0,0 1.294,0 1.294,0 0,0 0,4.872 0,4.872 0,0 -1.285,0 -1.285,0 C 0.249,5.48 0,5.48 0,5.788 c 0,0.299 0.259,0.299 0.399,0.299 0,0 3.277,0 3.277,0 0.149,0 0.398,0 0.398,-0.299 0,-0.308 -0.239,-0.308 -0.398,-0.308 0,0 -1.295,0 -1.295,0 0,0 0,-5.072 0,-5.072 z"
       id="path166"
       inkscape:connector-curvature="0" />
  </g>
  <g
     transform="translate(75.397998,15.313)"
     style="fill:#161413;fill-rule:evenodd;stroke:none"
     id="g168">
    <path
       d="m 3.915,3.298 c 0,-0.279 -0.289,-0.279 -0.349,-0.279 -0.159,0 -0.259,0.02 -0.329,0.219 -0.06,0.129 -0.249,0.598 -0.986,0.598 -0.847,0 -1.564,-0.697 -1.564,-1.604 0,-0.478 0.278,-1.623 1.624,-1.623 0.209,0 0.598,0 0.598,0.088 0.009,0.349 0.199,0.489 0.438,0.489 0.238,0 0.448,-0.169 0.448,-0.458 C 3.795,0 2.759,0 2.311,0 0.597,0 0,1.356 0,2.232 c 0,1.196 0.936,2.212 2.191,2.212 1.385,0 1.724,-0.977 1.724,-1.146 z"
       id="path170"
       inkscape:connector-curvature="0" />
  </g>
  <g
     transform="translate(80.487998,15.313)"
     style="fill:#161413;fill-rule:evenodd;stroke:none"
     id="g172">
    <path
       d="M 4.084,2.232 C 4.084,0.987 3.158,0 2.042,0 0.926,0 0,0.987 0,2.232 0,3.497 0.947,4.444 2.042,4.444 3.138,4.444 4.084,3.488 4.084,2.232 z M 2.042,3.836 c -0.737,0 -1.355,-0.747 -1.355,-1.674 0,-0.906 0.648,-1.553 1.355,-1.553 0.717,0 1.355,0.647 1.355,1.553 0,0.927 -0.617,1.674 -1.355,1.674 z"
       id="path174"
       inkscape:connector-curvature="0" />
  </g>
  <g
     transform="translate(85.129998,15.343)"
     style="fill:#161413;fill-rule:evenodd;stroke:none"
     id="g176">
    <path
       d="M 1.126,0.359 C 1.106,0.06 0.907,0.06 0.728,0.06 c 0,0 -0.32,0 -0.32,0 C 0.259,0.06 0,0.06 0,0.359 c 0,0.308 0.209,0.308 0.568,0.308 0,0 0,3.08 0,3.08 -0.359,0 -0.568,0 -0.568,0.308 0,0.299 0.269,0.299 0.408,0.299 0,0 0.877,0 0.877,0 0.15,0 0.408,0 0.408,-0.299 0,-0.308 -0.209,-0.308 -0.567,-0.308 0,0 0,-1.784 0,-1.784 0,-0.886 0.408,-1.355 0.817,-1.355 0.229,0 0.368,0.17 0.368,0.817 0,0 0,2.322 0,2.322 -0.189,0 -0.438,0 -0.438,0.308 0,0.299 0.27,0.299 0.408,0.299 0,0 0.748,0 0.748,0 0.15,0 0.408,0 0.408,-0.299 0,-0.308 -0.209,-0.308 -0.568,-0.308 0,0 0,-1.784 0,-1.784 0,-0.886 0.409,-1.355 0.817,-1.355 0.229,0 0.369,0.17 0.369,0.817 0,0 0,2.322 0,2.322 -0.19,0 -0.439,0 -0.439,0.308 0,0.299 0.27,0.299 0.409,0.299 0,0 0.747,0 0.747,0 0.15,0 0.409,0 0.409,-0.299 0,-0.308 -0.209,-0.308 -0.568,-0.308 0,0 0,-2.412 0,-2.412 C 4.613,1.136 4.613,0 3.727,0 3.428,0 3.019,0.129 2.74,0.518 2.591,0.179 2.311,0 1.982,0 1.664,0 1.365,0.14 1.126,0.359 z"
       id="path178"
       inkscape:connector-curvature="0" />
  </g>
  <g
     transform="translate(90.379998,15.343)"
     style="fill:#161413;fill-rule:evenodd;stroke:none"
     id="g180">
    <path
       d="M 1.126,0.359 C 1.106,0.06 0.907,0.06 0.728,0.06 c 0,0 -0.32,0 -0.32,0 C 0.259,0.06 0,0.06 0,0.359 c 0,0.308 0.209,0.308 0.568,0.308 0,0 0,3.08 0,3.08 -0.359,0 -0.568,0 -0.568,0.308 0,0.299 0.269,0.299 0.408,0.299 0,0 0.877,0 0.877,0 0.15,0 0.408,0 0.408,-0.299 0,-0.308 -0.209,-0.308 -0.567,-0.308 0,0 0,-1.784 0,-1.784 0,-0.886 0.408,-1.355 0.817,-1.355 0.229,0 0.368,0.17 0.368,0.817 0,0 0,2.322 0,2.322 -0.189,0 -0.438,0 -0.438,0.308 0,0.299 0.27,0.299 0.408,0.299 0,0 0.748,0 0.748,0 0.15,0 0.408,0 0.408,-0.299 0,-0.308 -0.209,-0.308 -0.568,-0.308 0,0 0,-1.784 0,-1.784 0,-0.886 0.409,-1.355 0.817,-1.355 0.229,0 0.369,0.17 0.369,0.817 0,0 0,2.322 0,2.322 -0.19,0 -0.439,0 -0.439,0.308 0,0.299 0.27,0.299 0.409,0.299 0,0 0.747,0 0.747,0 0.15,0 0.409,0 0.409,-0.299 0,-0.308 -0.209,-0.308 -0.568,-0.308 0,0 0,-2.412 0,-2.412 C 4.613,1.136 4.613,0 3.727,0 3.428,0 3.019,0.129 2.74,0.518 2.591,0.179 2.311,0 1.982,0 1.664,0 1.365,0.14 1.126,0.359 z"
       id="path182"
       inkscape:connector-curvature="0" />
  </g>
  <g
     transform="translate(96.217998,15.313)"
     style="fill:#161413;fill-rule:evenodd;stroke:none"
     id="g184">
    <path
       d="m 3.098,4.066 c 0.219,0.308 0.698,0.318 1.077,0.318 0.278,0 0.498,0 0.498,-0.309 0,-0.298 -0.249,-0.298 -0.399,-0.298 -0.419,0 -0.518,-0.05 -0.597,-0.081 0,0 0,-2.151 0,-2.151 C 3.677,0.837 3.139,0 1.704,0 1.275,0 0.259,0 0.259,0.728 c 0,0.299 0.21,0.458 0.448,0.458 0.149,0 0.429,-0.09 0.438,-0.458 0,-0.08 0.01,-0.09 0.21,-0.11 0.139,-0.009 0.269,-0.009 0.359,-0.009 0.757,0 1.275,0.308 1.275,1.015 C 1.225,1.655 0,2.153 0,3.109 c 0,0.687 0.628,1.335 1.643,1.335 0.37,0 0.987,-0.07 1.455,-0.378 z M 2.989,2.212 c 0,0 0,0.837 0,0.837 0,0.23 0,0.439 -0.389,0.617 -0.359,0.17 -0.807,0.17 -0.886,0.17 -0.618,0 -1.027,-0.339 -1.027,-0.727 0,-0.489 0.857,-0.857 2.302,-0.897 z"
       id="path186"
       inkscape:connector-curvature="0" />
  </g>
  <g
     transform="translate(101.289,15.343)"
     style="fill:#161413;fill-rule:evenodd;stroke:none"
     id="g188">
    <path
       d="m 1.534,0.529 c 0,-0.32 0,-0.469 -0.398,-0.469 0,0 -0.727,0 -0.727,0 -0.16,0 -0.409,0 -0.409,0.309 0,0.298 0.26,0.298 0.399,0.298 0,0 0.449,0 0.449,0 0,0 0,3.08 0,3.08 0,0 -0.439,0 -0.439,0 -0.16,0 -0.409,0 -0.409,0.308 0,0.299 0.26,0.299 0.399,0.299 0,0 1.585,0 1.585,0 0.138,0 0.398,0 0.398,-0.299 0,-0.308 -0.249,-0.308 -0.409,-0.308 0,0 -0.439,0 -0.439,0 0,0 0,-1.764 0,-1.764 0,-0.996 0.738,-1.375 1.246,-1.375 0.528,0 0.667,0.279 0.667,0.877 0,0 0,2.262 0,2.262 0,0 -0.388,0 -0.388,0 -0.159,0 -0.408,0 -0.408,0.308 0,0.299 0.269,0.299 0.408,0.299 0,0 1.524,0 1.524,0 0.14,0 0.399,0 0.399,-0.299 0,-0.308 -0.249,-0.308 -0.409,-0.308 0,0 -0.438,0 -0.438,0 0,0 0,-2.312 0,-2.312 C 4.135,0.429 3.627,0 2.84,0 2.172,0 1.724,0.339 1.534,0.529 z"
       id="path190"
       inkscape:connector-curvature="0" />
  </g>
  <g
     transform="translate(106.778,13.61)"
     style="fill:#161413;fill-rule:evenodd;stroke:none"
     id="g192">
    <path
       d="m 3.208,5.589 c 0,0.358 0,0.498 0.399,0.498 0,0 0.727,0 0.727,0 0.16,0 0.409,0 0.409,-0.309 0,-0.298 -0.259,-0.298 -0.399,-0.298 0,0 -0.448,0 -0.448,0 0,0 0,-5.072 0,-5.072 C 3.896,0.1 3.836,0 3.497,0 3.497,0 2.77,0 2.77,0 2.611,0 2.362,0 2.362,0.309 c 0,0.299 0.259,0.299 0.398,0.299 0,0 0.448,0 0.448,0 0,0 0,1.574 0,1.574 C 2.88,1.893 2.471,1.733 2.043,1.733 0.957,1.733 0,2.68 0,3.945 0,5.181 0.897,6.147 1.954,6.147 2.511,6.147 2.93,5.878 3.208,5.589 z m 0,-2.142 c 0,0 0,0.707 0,0.707 0,0.558 -0.448,1.385 -1.214,1.385 -0.708,0 -1.306,-0.707 -1.306,-1.594 0,-0.957 0.697,-1.604 1.394,-1.604 0.638,0 1.126,0.558 1.126,1.106 z"
       id="path194"
       inkscape:connector-curvature="0" />
  </g>
  <g
     transform="translate(112.388,15.313)"
     style="fill:#161413;fill-rule:evenodd;stroke:none"
     id="g196">
    <path
       d="M 2.251,1.844 C 2.021,1.804 1.822,1.774 1.573,1.724 1.285,1.684 0.607,1.565 0.607,1.176 c 0,-0.259 0.319,-0.567 1.265,-0.567 0.827,0 0.967,0.298 0.997,0.557 0.01,0.169 0.029,0.339 0.338,0.339 0.349,0 0.349,-0.21 0.349,-0.409 0,0 0,-0.687 0,-0.687 C 3.556,0.249 3.556,0 3.257,0 3.018,0 2.978,0.14 2.958,0.209 2.52,0 2.082,0 1.892,0 0.228,0 0,0.818 0,1.176 0,2.093 1.046,2.262 1.962,2.402 2.45,2.481 3.247,2.611 3.247,3.139 3.247,3.507 2.879,3.836 1.971,3.836 1.504,3.836 0.946,3.727 0.697,2.949 0.647,2.77 0.607,2.66 0.348,2.66 0,2.66 0,2.869 0,3.069 c 0,0 0,0.966 0,0.966 0,0.16 0,0.409 0.299,0.409 0.088,0 0.249,-0.01 0.368,-0.378 0.488,0.358 1.016,0.378 1.295,0.378 1.574,0 1.893,-0.828 1.893,-1.305 0,-1.036 -1.285,-1.245 -1.604,-1.295 z"
       id="path198"
       inkscape:connector-curvature="0" />
  </g>
  <g
     transform="translate(118.912,18.452)"
     style="fill:#161413;fill-rule:evenodd;stroke:none"
     id="g200">
    <path
       d="M 1.246,0.627 C 1.246,0.259 0.947,0 0.628,0 0.249,0 0,0.308 0,0.617 c 0,0.369 0.299,0.628 0.618,0.628 0.379,0 0.628,-0.309 0.628,-0.618 z"
       id="path202"
       inkscape:connector-curvature="0" />
  </g>
  <g
     transform="translate(132.429,13.61)"
     style="fill:#161413;fill-rule:evenodd;stroke:none"
     id="g204">
    <path
       d="m 2.7,0.608 c 0,0 1.315,0 1.315,0 0,0 0,0.528 0,0.528 0,0.189 0,0.408 0.338,0.408 0.349,0 0.349,-0.209 0.349,-0.408 0,0 0,-0.728 0,-0.728 C 4.702,0.1 4.642,0 4.303,0 4.303,0 0.409,0 0.409,0 0.08,0 0,0.079 0,0.408 c 0,0 0,0.728 0,0.728 0,0.189 0,0.408 0.339,0.408 0.348,0 0.348,-0.209 0.348,-0.408 0,0 0,-0.528 0,-0.528 0,0 1.325,0 1.325,0 0,0 0,4.872 0,4.872 0,0 -0.517,0 -0.517,0 -0.15,0 -0.4,0 -0.4,0.298 0,0.309 0.24,0.309 0.4,0.309 0,0 1.723,0 1.723,0 0.149,0 0.398,0 0.398,-0.299 0,-0.308 -0.238,-0.308 -0.398,-0.308 0,0 -0.518,0 -0.518,0 0,0 0,-4.872 0,-4.872 z"
       id="path206"
       inkscape:connector-curvature="0" />
  </g>
  <g
     transform="translate(137.539,13.61)"
     style="fill:#161413;fill-rule:evenodd;stroke:none"
     id="g208">
    <path
       d="m 4.135,3.168 c 0,-1.006 -0.508,-1.435 -1.295,-1.435 -0.668,0 -1.116,0.339 -1.306,0.529 0,0 0,-1.854 0,-1.854 C 1.534,0.1 1.475,0 1.136,0 1.136,0 0.409,0 0.409,0 0.249,0 0,0 0,0.309 c 0,0.299 0.26,0.299 0.399,0.299 0,0 0.449,0 0.449,0 0,0 0,4.872 0,4.872 0,0 -0.439,0 -0.439,0 -0.16,0 -0.409,0 -0.409,0.308 0,0.299 0.26,0.299 0.399,0.299 0,0 1.585,0 1.585,0 0.138,0 0.398,0 0.398,-0.299 0,-0.308 -0.249,-0.308 -0.409,-0.308 0,0 -0.439,0 -0.439,0 0,0 0,-1.764 0,-1.764 0,-0.996 0.738,-1.375 1.246,-1.375 0.528,0 0.667,0.279 0.667,0.877 0,0 0,2.262 0,2.262 0,0 -0.388,0 -0.388,0 -0.159,0 -0.408,0 -0.408,0.308 0,0.299 0.269,0.299 0.408,0.299 0,0 1.524,0 1.524,0 0.14,0 0.399,0 0.399,-0.299 0,-0.308 -0.249,-0.308 -0.409,-0.308 0,0 -0.438,0 -0.438,0 0,0 0,-2.312 0,-2.312 z"
       id="path210"
       inkscape:connector-curvature="0" />
  </g>
  <g
     transform="translate(143.218,15.313)"
     style="fill:#161413;fill-rule:evenodd;stroke:none"
     id="g212">
    <path
       d="m 3.677,2.481 c 0.209,0 0.398,0 0.398,-0.368 C 4.075,0.977 3.437,0 2.141,0 0.956,0 0,0.996 0,2.222 0,3.438 1.006,4.444 2.291,4.444 3.606,4.444 4.075,3.547 4.075,3.298 4.075,3.019 3.786,3.019 3.726,3.019 3.547,3.019 3.467,3.049 3.397,3.238 3.178,3.746 2.64,3.836 2.361,3.836 1.614,3.836 0.867,3.338 0.707,2.481 c 0,0 2.97,0 2.97,0 z M 0.718,1.883 C 0.856,1.156 1.444,0.609 2.141,0.609 c 0.519,0 1.136,0.249 1.226,1.274 0,0 -2.649,0 -2.649,0 z"
       id="path214"
       inkscape:connector-curvature="0" />
  </g>
  <g
     transform="translate(148.238,15.343)"
     style="fill:#161413;fill-rule:evenodd;stroke:none"
     id="g216">
    <path
       d="m 1.894,2.5 c 0,-0.935 0.588,-1.892 1.793,-1.892 0.01,0.239 0.18,0.438 0.429,0.438 0.218,0 0.418,-0.159 0.418,-0.428 C 4.534,0.418 4.414,0 3.587,0 3.079,0 2.442,0.179 1.894,0.807 c 0,0 0,-0.339 0,-0.339 0,-0.308 -0.06,-0.408 -0.399,-0.408 0,0 -1.095,0 -1.095,0 -0.15,0 -0.4,0 -0.4,0.299 0,0.308 0.24,0.308 0.4,0.308 0,0 0.806,0 0.806,0 0,0 0,3.08 0,3.08 0,0 -0.806,0 -0.806,0 -0.15,0 -0.4,0 -0.4,0.298 0,0.309 0.24,0.309 0.4,0.309 0,0 2.599,0 2.599,0 0.15,0 0.409,0 0.409,-0.299 0,-0.308 -0.259,-0.308 -0.409,-0.308 0,0 -1.105,0 -1.105,0 0,0 0,-1.247 0,-1.247 z"
       id="path218"
       inkscape:connector-curvature="0" />
  </g>
  <g
     transform="translate(153.718,15.313)"
     style="fill:#161413;fill-rule:evenodd;stroke:none"
     id="g220">
    <path
       d="m 3.677,2.481 c 0.209,0 0.398,0 0.398,-0.368 C 4.075,0.977 3.437,0 2.141,0 0.956,0 0,0.996 0,2.222 0,3.438 1.006,4.444 2.291,4.444 3.606,4.444 4.075,3.547 4.075,3.298 4.075,3.019 3.786,3.019 3.726,3.019 3.547,3.019 3.467,3.049 3.397,3.238 3.178,3.746 2.64,3.836 2.361,3.836 1.614,3.836 0.867,3.338 0.707,2.481 c 0,0 2.97,0 2.97,0 z M 0.718,1.883 C 0.856,1.156 1.444,0.609 2.141,0.609 c 0.519,0 1.136,0.249 1.226,1.274 0,0 -2.649,0 -2.649,0 z"
       id="path222"
       inkscape:connector-curvature="0" />
  </g>
  <g
     transform="translate(158.838,13.551)"
     style="fill:#161413;fill-rule:evenodd;stroke:none"
     id="g224">
    <path
       d="m 2.103,2.459 c 0,0 1.215,0 1.215,0 0.15,0 0.399,0 0.399,-0.298 0,-0.309 -0.239,-0.309 -0.399,-0.309 0,0 -1.215,0 -1.215,0 0,0 0,-0.468 0,-0.468 0,-0.777 0.667,-0.777 0.966,-0.777 0,0.04 0.089,0.429 0.438,0.429 0.2,0 0.429,-0.161 0.429,-0.439 C 3.936,0 3.139,0 2.979,0 2.183,0 1.415,0.458 1.415,1.324 c 0,0 0,0.528 0,0.528 0,0 -0.996,0 -0.996,0 -0.159,0 -0.408,0 -0.408,0.309 0,0.298 0.249,0.298 0.398,0.298 0,0 1.006,0 1.006,0 0,0 0,3.08 0,3.08 0,0 -1.006,0 -1.006,0 -0.149,0 -0.409,0 -0.409,0.298 0,0.309 0.26,0.309 0.409,0.309 0,0 2.699,0 2.699,0 0.15,0 0.41,0 0.41,-0.299 0,-0.308 -0.26,-0.308 -0.41,-0.308 0,0 -1.005,0 -1.005,0 0,0 0,-3.08 0,-3.08 z"
       id="path226"
       inkscape:connector-curvature="0" />
  </g>
  <g
     transform="translate(164.488,15.313)"
     style="fill:#161413;fill-rule:evenodd;stroke:none"
     id="g228">
    <path
       d="M 4.084,2.232 C 4.084,0.987 3.158,0 2.042,0 0.926,0 0,0.987 0,2.232 0,3.497 0.947,4.444 2.042,4.444 3.138,4.444 4.084,3.488 4.084,2.232 z M 2.042,3.836 c -0.737,0 -1.355,-0.747 -1.355,-1.674 0,-0.906 0.648,-1.553 1.355,-1.553 0.717,0 1.355,0.647 1.355,1.553 0,0.927 -0.617,1.674 -1.355,1.674 z"
       id="path230"
       inkscape:connector-curvature="0" />
  </g>
  <g
     transform="translate(169.488,15.343)"
     style="fill:#161413;fill-rule:evenodd;stroke:none"
     id="g232">
    <path
       d="m 1.894,2.5 c 0,-0.935 0.588,-1.892 1.793,-1.892 0.01,0.239 0.18,0.438 0.429,0.438 0.218,0 0.418,-0.159 0.418,-0.428 C 4.534,0.418 4.414,0 3.587,0 3.079,0 2.442,0.179 1.894,0.807 c 0,0 0,-0.339 0,-0.339 0,-0.308 -0.06,-0.408 -0.399,-0.408 0,0 -1.095,0 -1.095,0 -0.15,0 -0.4,0 -0.4,0.299 0,0.308 0.24,0.308 0.4,0.308 0,0 0.806,0 0.806,0 0,0 0,3.08 0,3.08 0,0 -0.806,0 -0.806,0 -0.15,0 -0.4,0 -0.4,0.298 0,0.309 0.24,0.309 0.4,0.309 0,0 2.599,0 2.599,0 0.15,0 0.409,0 0.409,-0.299 0,-0.308 -0.259,-0.308 -0.409,-0.308 0,0 -1.105,0 -1.105,0 0,0 0,-1.247 0,-1.247 z"
       id="path234"
       inkscape:connector-curvature="0" />
  </g>
  <g
     transform="translate(174.968,15.313)"
     style="fill:#161413;fill-rule:evenodd;stroke:none"
     id="g236">
    <path
       d="m 3.677,2.481 c 0.209,0 0.398,0 0.398,-0.368 C 4.075,0.977 3.437,0 2.141,0 0.956,0 0,0.996 0,2.222 0,3.438 1.006,4.444 2.291,4.444 3.606,4.444 4.075,3.547 4.075,3.298 4.075,3.019 3.786,3.019 3.726,3.019 3.547,3.019 3.467,3.049 3.397,3.238 3.178,3.746 2.64,3.836 2.361,3.836 1.614,3.836 0.867,3.338 0.707,2.481 c 0,0 2.97,0 2.97,0 z M 0.718,1.883 C 0.856,1.156 1.444,0.609 2.141,0.609 c 0.519,0 1.136,0.249 1.226,1.274 0,0 -2.649,0 -2.649,0 z"
       id="path238"
       inkscape:connector-curvature="0" />
  </g>
  <g
     transform="translate(181.463,18.452)"
     style="fill:#161413;fill-rule:evenodd;stroke:none"
     id="g240">
    <path
       d="M 1.017,1.215 C 0.867,1.833 0.398,1.992 0.279,2.032 0.18,2.062 0,2.112 0,2.311 0,2.461 0.149,2.63 0.319,2.63 0.638,2.63 1.654,2.092 1.654,0.996 1.654,0.389 1.266,0 0.827,0 0.429,0 0.199,0.299 0.199,0.617 c 0,0.379 0.289,0.628 0.618,0.628 0.06,0 0.129,-0.01 0.2,-0.03 z"
       id="path242"
       inkscape:connector-curvature="0" />
  </g>
  <g
     transform="translate(190.447,13.6)"
     style="fill:#161413;fill-rule:evenodd;stroke:none"
     id="g244">
    <path
       d="m 2.301,2.211 c 0,-0.308 -0.059,-0.408 -0.398,-0.408 0,0 -1.414,0 -1.414,0 -0.15,0 -0.41,0 -0.41,0.299 0,0.308 0.26,0.308 0.41,0.308 0,0 1.125,0 1.125,0 0,0 0,3.08 0,3.08 0,0 -1.205,0 -1.205,0 -0.16,0 -0.409,0 -0.409,0.308 0,0.299 0.259,0.299 0.409,0.299 0,0 2.939,0 2.939,0 0.149,0 0.408,0 0.408,-0.299 0,-0.308 -0.259,-0.308 -0.408,-0.308 0,0 -1.047,0 -1.047,0 0,0 0,-3.279 0,-3.279 z m 0,-1.713 C 2.301,0.219 2.082,0 1.803,0 1.525,0 1.305,0.219 1.305,0.498 c 0,0.279 0.22,0.498 0.498,0.498 0.279,0 0.498,-0.219 0.498,-0.498 z"
       id="path246"
       inkscape:connector-curvature="0" />
  </g>
  <g
     transform="translate(195.169,14.177)"
     style="fill:#161413;fill-rule:evenodd;stroke:none"
     id="g248">
    <path
       d="m 1.963,1.833 c 0,0 1.634,0 1.634,0 0.149,0 0.398,0 0.398,-0.298 0,-0.309 -0.239,-0.309 -0.398,-0.309 0,0 -1.634,0 -1.634,0 0,0 0,-0.816 0,-0.816 C 1.963,0.22 1.963,0 1.624,0 1.275,0 1.275,0.209 1.275,0.41 c 0,0 0,0.816 0,0.816 0,0 -0.867,0 -0.867,0 -0.159,0 -0.408,0 -0.408,0.309 0,0.298 0.249,0.298 0.398,0.298 0,0 0.877,0 0.877,0 0,0 0,2.432 0,2.432 0,0.956 0.678,1.315 1.405,1.315 0.737,0 1.545,-0.428 1.545,-1.315 0,-0.18 0,-0.389 -0.349,-0.389 -0.329,0 -0.339,0.209 -0.339,0.378 C 3.526,4.873 2.959,4.972 2.73,4.972 1.963,4.972 1.963,4.454 1.963,4.205 c 0,0 0,-2.372 0,-2.372 z"
       id="path250"
       inkscape:connector-curvature="0" />
  </g>
  <g
     transform="translate(2.1969982,25.6)"
     style="fill:#161413;fill-rule:evenodd;stroke:none"
     id="g252">
    <path
       d="m 2.301,2.211 c 0,-0.308 -0.059,-0.408 -0.398,-0.408 0,0 -1.414,0 -1.414,0 -0.15,0 -0.41,0 -0.41,0.299 0,0.308 0.26,0.308 0.41,0.308 0,0 1.125,0 1.125,0 0,0 0,3.08 0,3.08 0,0 -1.205,0 -1.205,0 -0.16,0 -0.409,0 -0.409,0.308 0,0.299 0.259,0.299 0.409,0.299 0,0 2.939,0 2.939,0 0.149,0 0.408,0 0.408,-0.299 0,-0.308 -0.259,-0.308 -0.408,-0.308 0,0 -1.047,0 -1.047,0 0,0 0,-3.279 0,-3.279 z m 0,-1.713 C 2.301,0.219 2.082,0 1.803,0 1.525,0 1.305,0.219 1.305,0.498 c 0,0.279 0.22,0.498 0.498,0.498 0.279,0 0.498,-0.219 0.498,-0.498 z"
       id="path254"
       inkscape:connector-curvature="0" />
  </g>
  <g
     transform="translate(7.3879982,27.313)"
     style="fill:#161413;fill-rule:evenodd;stroke:none"
     id="g256">
    <path
       d="M 2.251,1.844 C 2.021,1.804 1.822,1.774 1.573,1.724 1.285,1.684 0.607,1.565 0.607,1.176 c 0,-0.259 0.319,-0.567 1.265,-0.567 0.827,0 0.967,0.298 0.997,0.557 0.01,0.169 0.029,0.339 0.338,0.339 0.349,0 0.349,-0.21 0.349,-0.409 0,0 0,-0.687 0,-0.687 C 3.556,0.249 3.556,0 3.257,0 3.018,0 2.978,0.14 2.958,0.209 2.52,0 2.082,0 1.892,0 0.228,0 0,0.818 0,1.176 0,2.093 1.046,2.262 1.962,2.402 2.45,2.481 3.247,2.611 3.247,3.139 3.247,3.507 2.879,3.836 1.971,3.836 1.504,3.836 0.946,3.727 0.697,2.949 0.647,2.77 0.607,2.66 0.348,2.66 0,2.66 0,2.869 0,3.069 c 0,0 0,0.966 0,0.966 0,0.16 0,0.409 0.299,0.409 0.088,0 0.249,-0.01 0.368,-0.378 0.488,0.358 1.016,0.378 1.295,0.378 1.574,0 1.893,-0.828 1.893,-1.305 0,-1.036 -1.285,-1.245 -1.604,-1.295 z"
       id="path258"
       inkscape:connector-curvature="0" />
  </g>
  <g
     transform="translate(17.288998,27.343)"
     style="fill:#161413;fill-rule:evenodd;stroke:none"
     id="g260">
    <path
       d="m 1.534,1.724 c 0,-0.588 0.578,-1.116 1.206,-1.116 0.738,0 1.316,0.727 1.316,1.594 0,0.957 -0.698,1.604 -1.396,1.604 -0.776,0 -1.126,-0.877 -1.126,-1.355 0,0 0,-0.727 0,-0.727 z m 0,2.182 C 1.943,4.324 2.371,4.414 2.691,4.414 3.777,4.414 4.742,3.467 4.742,2.202 4.742,0.977 3.856,0 2.8,0 2.321,0 1.873,0.179 1.534,0.489 1.534,0.2 1.515,0.06 1.136,0.06 c 0,0 -0.727,0 -0.727,0 -0.16,0 -0.409,0 -0.409,0.309 0,0.298 0.26,0.298 0.399,0.298 0,0 0.449,0 0.449,0 0,0 0,5.291 0,5.291 0,0 -0.439,0 -0.439,0 -0.16,0 -0.409,0 -0.409,0.309 0,0.299 0.26,0.299 0.399,0.299 0,0 1.585,0 1.585,0 0.138,0 0.398,0 0.398,-0.299 0,-0.309 -0.249,-0.309 -0.409,-0.309 0,0 -0.439,0 -0.439,0 0,0 0,-2.052 0,-2.052 z"
       id="path262"
       inkscape:connector-curvature="0" />
  </g>
  <g
     transform="translate(22.987998,27.313)"
     style="fill:#161413;fill-rule:evenodd;stroke:none"
     id="g264">
    <path
       d="M 4.084,2.232 C 4.084,0.987 3.158,0 2.042,0 0.926,0 0,0.987 0,2.232 0,3.497 0.947,4.444 2.042,4.444 3.138,4.444 4.084,3.488 4.084,2.232 z M 2.042,3.836 c -0.737,0 -1.355,-0.747 -1.355,-1.674 0,-0.906 0.648,-1.553 1.355,-1.553 0.717,0 1.355,0.647 1.355,1.553 0,0.927 -0.617,1.674 -1.355,1.674 z"
       id="path266"
       inkscape:connector-curvature="0" />
  </g>
  <g
     transform="translate(28.387998,27.313)"
     style="fill:#161413;fill-rule:evenodd;stroke:none"
     id="g268">
    <path
       d="M 2.251,1.844 C 2.021,1.804 1.822,1.774 1.573,1.724 1.285,1.684 0.607,1.565 0.607,1.176 c 0,-0.259 0.319,-0.567 1.265,-0.567 0.827,0 0.967,0.298 0.997,0.557 0.01,0.169 0.029,0.339 0.338,0.339 0.349,0 0.349,-0.21 0.349,-0.409 0,0 0,-0.687 0,-0.687 C 3.556,0.249 3.556,0 3.257,0 3.018,0 2.978,0.14 2.958,0.209 2.52,0 2.082,0 1.892,0 0.228,0 0,0.818 0,1.176 0,2.093 1.046,2.262 1.962,2.402 2.45,2.481 3.247,2.611 3.247,3.139 3.247,3.507 2.879,3.836 1.971,3.836 1.504,3.836 0.946,3.727 0.697,2.949 0.647,2.77 0.607,2.66 0.348,2.66 0,2.66 0,2.869 0,3.069 c 0,0 0,0.966 0,0.966 0,0.16 0,0.409 0.299,0.409 0.088,0 0.249,-0.01 0.368,-0.378 0.488,0.358 1.016,0.378 1.295,0.378 1.574,0 1.893,-0.828 1.893,-1.305 0,-1.036 -1.285,-1.245 -1.604,-1.295 z"
       id="path270"
       inkscape:connector-curvature="0" />
  </g>
  <g
     transform="translate(33.637998,27.313)"
     style="fill:#161413;fill-rule:evenodd;stroke:none"
     id="g272">
    <path
       d="M 2.251,1.844 C 2.021,1.804 1.822,1.774 1.573,1.724 1.285,1.684 0.607,1.565 0.607,1.176 c 0,-0.259 0.319,-0.567 1.265,-0.567 0.827,0 0.967,0.298 0.997,0.557 0.01,0.169 0.029,0.339 0.338,0.339 0.349,0 0.349,-0.21 0.349,-0.409 0,0 0,-0.687 0,-0.687 C 3.556,0.249 3.556,0 3.257,0 3.018,0 2.978,0.14 2.958,0.209 2.52,0 2.082,0 1.892,0 0.228,0 0,0.818 0,1.176 0,2.093 1.046,2.262 1.962,2.402 2.45,2.481 3.247,2.611 3.247,3.139 3.247,3.507 2.879,3.836 1.971,3.836 1.504,3.836 0.946,3.727 0.697,2.949 0.647,2.77 0.607,2.66 0.348,2.66 0,2.66 0,2.869 0,3.069 c 0,0 0,0.966 0,0.966 0,0.16 0,0.409 0.299,0.409 0.088,0 0.249,-0.01 0.368,-0.378 0.488,0.358 1.016,0.378 1.295,0.378 1.574,0 1.893,-0.828 1.893,-1.305 0,-1.036 -1.285,-1.245 -1.604,-1.295 z"
       id="path274"
       inkscape:connector-curvature="0" />
  </g>
  <g
     transform="translate(38.946998,25.6)"
     style="fill:#161413;fill-rule:evenodd;stroke:none"
     id="g276">
    <path
       d="m 2.301,2.211 c 0,-0.308 -0.059,-0.408 -0.398,-0.408 0,0 -1.414,0 -1.414,0 -0.15,0 -0.41,0 -0.41,0.299 0,0.308 0.26,0.308 0.41,0.308 0,0 1.125,0 1.125,0 0,0 0,3.08 0,3.08 0,0 -1.205,0 -1.205,0 -0.16,0 -0.409,0 -0.409,0.308 0,0.299 0.259,0.299 0.409,0.299 0,0 2.939,0 2.939,0 0.149,0 0.408,0 0.408,-0.299 0,-0.308 -0.259,-0.308 -0.408,-0.308 0,0 -1.047,0 -1.047,0 0,0 0,-3.279 0,-3.279 z m 0,-1.713 C 2.301,0.219 2.082,0 1.803,0 1.525,0 1.305,0.219 1.305,0.498 c 0,0.279 0.22,0.498 0.498,0.498 0.279,0 0.498,-0.219 0.498,-0.498 z"
       id="path278"
       inkscape:connector-curvature="0" />
  </g>
  <g
     transform="translate(43.538998,25.61)"
     style="fill:#161413;fill-rule:evenodd;stroke:none"
     id="g280">
    <path
       d="m 1.534,2.222 c 0,0 0,-1.814 0,-1.814 C 1.534,0.1 1.475,0 1.136,0 1.136,0 0.409,0 0.409,0 0.249,0 0,0 0,0.309 c 0,0.299 0.26,0.299 0.399,0.299 0,0 0.449,0 0.449,0 0,0 0,5.071 0,5.071 0,0.199 0,0.408 0.348,0.408 0.338,0 0.338,-0.199 0.338,-0.448 C 1.943,6.057 2.371,6.147 2.691,6.147 3.777,6.147 4.742,5.2 4.742,3.935 4.742,2.71 3.856,1.733 2.8,1.733 2.321,1.733 1.873,1.912 1.534,2.222 z m 0,1.962 c 0,0 0,-0.727 0,-0.727 0,-0.588 0.578,-1.116 1.206,-1.116 0.738,0 1.316,0.727 1.316,1.594 0,0.957 -0.698,1.604 -1.396,1.604 -0.776,0 -1.126,-0.877 -1.126,-1.355 z"
       id="path282"
       inkscape:connector-curvature="0" />
  </g>
  <g
     transform="translate(49.247998,25.61)"
     style="fill:#161413;fill-rule:evenodd;stroke:none"
     id="g284">
    <path
       d="M 2.381,0.408 C 2.381,0.1 2.321,0 1.983,0 1.983,0 0.408,0 0.408,0 0.249,0 0,0 0,0.309 c 0,0.299 0.259,0.299 0.399,0.299 0,0 1.294,0 1.294,0 0,0 0,4.872 0,4.872 0,0 -1.285,0 -1.285,0 C 0.249,5.48 0,5.48 0,5.788 c 0,0.299 0.259,0.299 0.399,0.299 0,0 3.277,0 3.277,0 0.149,0 0.398,0 0.398,-0.299 0,-0.308 -0.239,-0.308 -0.398,-0.308 0,0 -1.295,0 -1.295,0 0,0 0,-5.072 0,-5.072 z"
       id="path286"
       inkscape:connector-curvature="0" />
  </g>
  <g
     transform="translate(54.467998,27.313)"
     style="fill:#161413;fill-rule:evenodd;stroke:none"
     id="g288">
    <path
       d="m 3.677,2.481 c 0.209,0 0.398,0 0.398,-0.368 C 4.075,0.977 3.437,0 2.141,0 0.956,0 0,0.996 0,2.222 0,3.438 1.006,4.444 2.291,4.444 3.606,4.444 4.075,3.547 4.075,3.298 4.075,3.019 3.786,3.019 3.726,3.019 3.547,3.019 3.467,3.049 3.397,3.238 3.178,3.746 2.64,3.836 2.361,3.836 1.614,3.836 0.867,3.338 0.707,2.481 c 0,0 2.97,0 2.97,0 z M 0.718,1.883 C 0.856,1.156 1.444,0.609 2.141,0.609 c 0.519,0 1.136,0.249 1.226,1.274 0,0 -2.649,0 -2.649,0 z"
       id="path290"
       inkscape:connector-curvature="0" />
  </g>
  <g
     transform="translate(64.418998,26.177)"
     style="fill:#161413;fill-rule:evenodd;stroke:none"
     id="g292">
    <path
       d="m 1.963,1.833 c 0,0 1.634,0 1.634,0 0.149,0 0.398,0 0.398,-0.298 0,-0.309 -0.239,-0.309 -0.398,-0.309 0,0 -1.634,0 -1.634,0 0,0 0,-0.816 0,-0.816 C 1.963,0.22 1.963,0 1.624,0 1.275,0 1.275,0.209 1.275,0.41 c 0,0 0,0.816 0,0.816 0,0 -0.867,0 -0.867,0 -0.159,0 -0.408,0 -0.408,0.309 0,0.298 0.249,0.298 0.398,0.298 0,0 0.877,0 0.877,0 0,0 0,2.432 0,2.432 0,0.956 0.678,1.315 1.405,1.315 0.737,0 1.545,-0.428 1.545,-1.315 0,-0.18 0,-0.389 -0.349,-0.389 -0.329,0 -0.339,0.209 -0.339,0.378 C 3.526,4.873 2.959,4.972 2.73,4.972 1.963,4.972 1.963,4.454 1.963,4.205 c 0,0 0,-2.372 0,-2.372 z"
       id="path294"
       inkscape:connector-curvature="0" />
  </g>
  <g
     transform="translate(69.987998,27.313)"
     style="fill:#161413;fill-rule:evenodd;stroke:none"
     id="g296">
    <path
       d="M 4.084,2.232 C 4.084,0.987 3.158,0 2.042,0 0.926,0 0,0.987 0,2.232 0,3.497 0.947,4.444 2.042,4.444 3.138,4.444 4.084,3.488 4.084,2.232 z M 2.042,3.836 c -0.737,0 -1.355,-0.747 -1.355,-1.674 0,-0.906 0.648,-1.553 1.355,-1.553 0.717,0 1.355,0.647 1.355,1.553 0,0.927 -0.617,1.674 -1.355,1.674 z"
       id="path298"
       inkscape:connector-curvature="0" />
  </g>
  <g
     transform="translate(81.294998,27.343)"
     style="fill:#161413;fill-rule:evenodd;stroke:none"
     id="g300">
    <path
       d="M 1.215,2.471 C 1.913,2.471 2.53,2.381 2.909,2.212 3.696,1.874 3.766,1.246 3.766,1.037 3.766,0.449 3.258,0 2.53,0 1.285,0 0,1.265 0,2.71 c 0,0.578 0.199,0.987 0.468,1.246 0.448,0.458 0.896,0.458 1.275,0.458 0.349,0 0.857,-0.01 1.295,-0.15 0.16,-0.05 0.858,-0.318 0.858,-0.647 0,-0.169 -0.19,-0.359 -0.349,-0.359 -0.11,0 -0.18,0.06 -0.22,0.09 C 3.128,3.527 2.8,3.806 1.703,3.806 c -0.199,0 -1.016,0 -1.016,-1.076 0,-0.249 0.01,-0.259 0.2,-0.259 0,0 0.328,0 0.328,0 z M 0.877,1.864 C 1.226,1.086 1.942,0.608 2.511,0.608 c 0.339,0 0.567,0.17 0.567,0.429 0,0.707 -1.046,0.827 -1.902,0.827 0,0 -0.299,0 -0.299,0 z"
       id="path302"
       inkscape:connector-curvature="0" />
  </g>
  <g
     transform="translate(85.677998,27.343)"
     style="fill:#161413;fill-rule:evenodd;stroke:none"
     id="g304">
    <path
       d="m 0.597,1.983 c 0,0.01 0,0.019 -0.088,0.289 C 0.289,2.929 0,4.065 0,4.135 c 0,0.279 0.289,0.279 0.348,0.279 0.28,0 0.29,-0.06 0.429,-0.608 C 1.016,2.85 1.574,0.608 2.431,0.608 2.66,0.608 2.7,0.788 2.7,1.006 2.7,1.335 2.471,2.092 2.431,2.232 2.202,2.919 1.913,4.055 1.913,4.135 c 0,0.279 0.289,0.279 0.349,0.279 0.279,0 0.289,-0.06 0.428,-0.608 0.24,-0.956 0.797,-3.198 1.654,-3.198 0.229,0 0.269,0.18 0.269,0.398 0,0.329 -0.13,0.778 -0.459,1.714 -0.169,0.468 -0.188,0.697 -0.188,0.877 0,0.757 0.587,0.757 0.627,0.757 0.259,0 0.309,-0.229 0.309,-0.329 0,-0.139 -0.09,-0.259 -0.26,-0.278 C 4.593,3.736 4.533,3.736 4.533,3.547 4.533,3.308 4.613,3.088 4.772,2.64 4.962,2.092 5.18,1.465 5.18,0.966 5.18,0.279 4.772,0 4.353,0 3.886,0 3.517,0.259 3.228,0.598 3.179,0.429 2.989,0 2.441,0 2.043,0 1.744,0.2 1.574,0.339 1.545,0.09 1.355,0.06 1.296,0.06 c -0.22,0 -0.27,0.199 -0.3,0.309 0,0 -0.399,1.614 -0.399,1.614 z"
       id="path306"
       inkscape:connector-curvature="0" />
  </g>
  <g
     transform="translate(90.528998,27.343)"
     style="fill:#161413;fill-rule:evenodd;stroke:none"
     id="g308">
    <path
       d="m 0.778,5.958 c 0,0 -0.359,0 -0.359,0 -0.13,0 -0.419,0 -0.419,0.329 0,0.279 0.28,0.279 0.409,0.279 0,0 1.504,0 1.504,0 0.15,0 0.418,0 0.418,-0.329 0,-0.279 -0.268,-0.279 -0.398,-0.279 0,0 -0.448,0 -0.448,0 0,0 0.478,-1.943 0.478,-1.943 0.01,0.021 0.329,0.399 0.847,0.399 1.076,0 2.132,-1.495 2.132,-2.889 C 4.942,0.648 4.474,0 3.766,0 3.298,0 2.91,0.279 2.63,0.529 2.402,0.02 1.953,0 1.824,0 1.406,0 1.157,0.279 1.017,0.539 0.828,0.857 0.688,1.385 0.688,1.495 c 0,0.08 0.04,0.279 0.339,0.279 0.289,0 0.308,-0.12 0.388,-0.399 0.06,-0.229 0.19,-0.767 0.399,-0.767 0.199,0 0.209,0.249 0.209,0.299 0,0.03 -0.02,0.149 -0.029,0.189 0,0 -1.216,4.862 -1.216,4.862 z M 2.82,3.806 c -0.439,0 -0.508,-0.678 -0.508,-0.887 0,-1.126 0.837,-2.311 1.434,-2.311 0.37,0 0.508,0.448 0.508,0.896 0,1.147 -0.837,2.302 -1.434,2.302 z"
       id="path310"
       inkscape:connector-curvature="0" />
  </g>
  <g
     transform="translate(96.546998,25.61)"
     style="fill:#161413;fill-rule:evenodd;stroke:none"
     id="g312">
    <path
       d="M 2.042,0.448 C 2.052,0.399 2.072,0.339 2.072,0.278 2.072,0 1.793,0 1.663,0 1.663,0 0.856,0 0.856,0 0.707,0 0.438,0 0.438,0.328 c 0,0.28 0.279,0.28 0.409,0.28 0,0 0.448,0 0.448,0 0,0 -1.255,5.011 -1.255,5.011 C 0,5.758 0,5.778 0,5.818 c 0,0.2 0.159,0.329 0.328,0.329 0.279,0 0.339,-0.229 0.399,-0.478 0.378,-1.475 0.867,-3.328 2.002,-3.328 0.349,0 0.409,0.22 0.409,0.458 0,0.469 -0.449,1.694 -0.568,2.022 C 2.511,4.982 2.461,5.12 2.461,5.31 c 0,0.488 0.328,0.837 0.797,0.837 0.956,0 1.375,-1.295 1.375,-1.495 0,-0.04 -0.011,-0.279 -0.349,-0.279 -0.269,0 -0.309,0.13 -0.359,0.319 -0.15,0.528 -0.418,0.847 -0.638,0.847 -0.119,0 -0.139,-0.08 -0.139,-0.209 0,-0.11 0,-0.13 0.12,-0.429 C 3.357,4.652 3.825,3.367 3.825,2.81 3.825,2.082 3.357,1.733 2.739,1.733 c -0.538,0 -0.946,0.25 -1.115,0.389 0,0 0.418,-1.674 0.418,-1.674 z"
       id="path314"
       inkscape:connector-curvature="0" />
  </g>
  <g
     transform="translate(102.425,27.343)"
     style="fill:#161413;fill-rule:evenodd;stroke:none"
     id="g316">
    <path
       d="M 3.606,0.678 C 3.646,0.529 3.646,0.508 3.646,0.479 3.646,0.279 3.487,0.15 3.318,0.15 3.119,0.15 2.999,0.309 2.97,0.399 2.65,0.041 2.321,0 2.133,0 1.057,0 0,1.495 0,2.879 0,3.836 0.509,4.414 1.176,4.414 1.744,4.414 2.202,3.986 2.302,3.886 2.351,4.005 2.581,4.414 3.119,4.414 3.617,4.414 3.846,4.005 3.926,3.875 4.115,3.547 4.255,3 4.255,2.919 4.255,2.879 4.244,2.64 3.906,2.64 3.627,2.64 3.597,2.76 3.517,3.059 3.477,3.249 3.328,3.806 3.129,3.806 2.93,3.806 2.92,3.577 2.92,3.517 c 0,-0.08 0.019,-0.159 0.039,-0.239 0,0 0.647,-2.6 0.647,-2.6 z M 1.185,3.806 c -0.437,0 -0.507,-0.678 -0.507,-0.887 0,-1.126 0.837,-2.311 1.434,-2.311 0.369,0 0.508,0.448 0.508,0.896 0,1.147 -0.836,2.302 -1.435,2.302 z"
       id="path318"
       inkscape:connector-curvature="0" />
  </g>
  <g
     transform="translate(107.406,27.343)"
     style="fill:#161413;fill-rule:evenodd;stroke:none"
     id="g320">
    <path
       d="m 3.298,0.757 c -0.07,0.071 -0.099,0.18 -0.099,0.28 0,0.338 0.289,0.388 0.388,0.388 0.199,0 0.468,-0.149 0.468,-0.558 C 4.055,0.349 3.587,0 2.64,0 1.196,0 0.837,0.907 0.837,1.326 c 0,0.228 0.09,0.488 0.359,0.697 0.269,0.199 0.438,0.228 1.145,0.358 0.31,0.06 0.898,0.16 0.898,0.538 0,0.169 -0.14,0.489 -0.479,0.667 -0.358,0.19 -0.767,0.22 -1.057,0.22 -0.128,0 -0.676,0 -0.946,-0.209 0.03,-0.03 0.16,-0.189 0.16,-0.359 C 0.917,3.079 0.797,2.839 0.498,2.839 0.349,2.839 0,2.929 0,3.448 0,4.404 1.355,4.414 1.684,4.414 1.963,4.414 2.58,4.404 3.128,4.075 3.557,3.806 3.846,3.337 3.846,2.91 3.846,2.033 2.839,1.853 2.371,1.774 1.814,1.674 1.445,1.604 1.445,1.315 1.445,1.226 1.515,0.937 1.843,0.767 2.142,0.608 2.521,0.608 2.62,0.608 c 0.14,0 0.458,0 0.678,0.149 z"
       id="path322"
       inkscape:connector-curvature="0" />
  </g>
  <g
     transform="translate(113.095,25.6)"
     style="fill:#161413;fill-rule:evenodd;stroke:none"
     id="g324">
    <path
       d="M 3.049,0.409 C 3.049,0.15 2.859,0 2.639,0 2.371,0 2.151,0.249 2.151,0.478 c 0,0.189 0.14,0.409 0.419,0.409 0.209,0 0.479,-0.18 0.479,-0.478 z M 0.986,4.881 c -0.05,0.13 -0.08,0.199 -0.08,0.399 0,0.528 0.439,0.877 0.967,0.877 1.015,0 1.584,-1.176 1.584,-1.495 0,-0.04 -0.01,-0.279 -0.349,-0.279 C 2.839,4.383 2.8,4.523 2.76,4.643 2.59,5.23 2.191,5.549 1.892,5.549 1.743,5.549 1.594,5.479 1.594,5.28 c 0,-0.07 0.139,-0.428 0.219,-0.637 0.11,-0.26 0.209,-0.528 0.319,-0.798 0,0 0.239,-0.598 0.239,-0.598 C 2.53,2.849 2.55,2.789 2.55,2.62 2.55,2.102 2.122,1.743 1.584,1.743 0.567,1.743 0,2.909 0,3.238 c 0,0.08 0.04,0.279 0.339,0.279 0.249,0 0.298,-0.1 0.348,-0.249 0.24,-0.747 0.677,-0.917 0.877,-0.917 0.179,0 0.299,0.1 0.299,0.269 0,0.089 -0.04,0.179 -0.05,0.209 0,0 -0.827,2.052 -0.827,2.052 z"
       id="path326"
       inkscape:connector-curvature="0" />
  </g>
  <g
     transform="translate(117.876,27.343)"
     style="fill:#161413;fill-rule:evenodd;stroke:none"
     id="g328">
    <path
       d="M 1.435,3.308 C 1.624,3.109 1.754,2.979 2.57,2.282 3.856,1.176 4.315,0.479 4.315,0.279 4.315,0.1 4.194,0 3.976,0 3.746,0 3.717,0.05 3.597,0.259 3.438,0.508 3.378,0.508 3.338,0.508 3.208,0.508 3.079,0.409 2.899,0.299 2.67,0.15 2.461,0 2.133,0 1.246,0 0.718,0.966 0.718,1.286 c 0,0.199 0.169,0.279 0.348,0.279 0.259,0 0.299,-0.13 0.339,-0.26 0.119,-0.368 0.428,-0.617 0.698,-0.617 0.149,0 0.289,0.06 0.498,0.179 C 2.81,0.997 2.83,0.997 2.949,1.046 2.681,1.326 2.252,1.694 1.894,2.013 1.555,2.301 1.206,2.611 0.907,2.91 0.409,3.408 0,3.965 0,4.135 c 0,0.11 0.061,0.279 0.349,0.279 0.199,0 0.249,-0.05 0.329,-0.169 0.17,-0.249 0.458,-0.339 0.607,-0.339 0.15,0 0.26,0.059 0.479,0.209 0.229,0.159 0.448,0.299 0.777,0.299 1.096,0 1.774,-1.276 1.774,-1.674 C 4.315,2.621 4.244,2.461 3.976,2.461 3.706,2.461 3.667,2.6 3.627,2.72 3.398,3.448 2.89,3.726 2.57,3.726 2.392,3.726 2.252,3.647 2.013,3.507 1.714,3.348 1.555,3.328 1.435,3.308 z"
       id="path330"
       inkscape:connector-curvature="0" />
  </g>
  <g
     transform="translate(123.545,27.343)"
     style="fill:#161413;fill-rule:evenodd;stroke:none"
     id="g332">
    <path
       d="M 1.215,2.471 C 1.913,2.471 2.53,2.381 2.909,2.212 3.696,1.874 3.766,1.246 3.766,1.037 3.766,0.449 3.258,0 2.53,0 1.285,0 0,1.265 0,2.71 c 0,0.578 0.199,0.987 0.468,1.246 0.448,0.458 0.896,0.458 1.275,0.458 0.349,0 0.857,-0.01 1.295,-0.15 0.16,-0.05 0.858,-0.318 0.858,-0.647 0,-0.169 -0.19,-0.359 -0.349,-0.359 -0.11,0 -0.18,0.06 -0.22,0.09 C 3.128,3.527 2.8,3.806 1.703,3.806 c -0.199,0 -1.016,0 -1.016,-1.076 0,-0.249 0.01,-0.259 0.2,-0.259 0,0 0.328,0 0.328,0 z M 0.877,1.864 C 1.226,1.086 1.942,0.608 2.511,0.608 c 0.339,0 0.567,0.17 0.567,0.429 0,0.707 -1.046,0.827 -1.902,0.827 0,0 -0.299,0 -0.299,0 z"
       id="path334"
       inkscape:connector-curvature="0" />
  </g>
  <g
     transform="translate(134.079,27.403)"
     style="fill:#161413;fill-rule:evenodd;stroke:none"
     id="g336">
    <path
       d="m 4.394,0.607 c 0.299,0 0.508,0 0.508,-0.308 C 4.902,0 4.663,0 4.484,0 c 0,0 -1.146,0 -1.146,0 -0.18,0 -0.419,0 -0.419,0.299 0,0.308 0.23,0.308 0.419,0.308 0,0 0.488,0 0.488,0 0,0 -0.498,2.969 -0.498,2.969 0,0 -0.01,0 -0.01,0 C 3.279,3.317 3.149,2.859 3.029,2.451 2.85,1.823 2.82,1.714 2.471,1.714 c -0.1,0 -0.289,0 -0.399,0.219 -0.029,0.07 -0.427,1.444 -0.467,1.643 0,0 -0.01,0 -0.01,0 0,0 -0.519,-2.969 -0.519,-2.969 0,0 0.489,0 0.489,0 0.179,0 0.418,0 0.418,-0.298 C 1.983,0 1.754,0 1.565,0 1.565,0 0.419,0 0.419,0 0.239,0 0,0 0,0.299 c 0,0.308 0.209,0.308 0.509,0.308 0,0 0.598,3.348 0.598,3.348 0.039,0.23 0.069,0.379 0.467,0.379 0.399,0 0.429,-0.09 0.608,-0.697 0.249,-0.877 0.26,-1.017 0.289,-1.236 0,0 0.01,0 0.01,0 0.049,0.518 0.419,1.684 0.459,1.763 0.119,0.17 0.298,0.17 0.418,0.17 0.369,0 0.398,-0.159 0.438,-0.379 0,0 0.598,-3.348 0.598,-3.348 z"
       id="path338"
       inkscape:connector-curvature="0" />
  </g>
  <g
     transform="translate(139.738,27.313)"
     style="fill:#161413;fill-rule:evenodd;stroke:none"
     id="g340">
    <path
       d="M 4.084,2.232 C 4.084,0.987 3.158,0 2.042,0 0.926,0 0,0.987 0,2.232 0,3.497 0.947,4.444 2.042,4.444 3.138,4.444 4.084,3.488 4.084,2.232 z M 2.042,3.836 c -0.737,0 -1.355,-0.747 -1.355,-1.674 0,-0.906 0.648,-1.553 1.355,-1.553 0.717,0 1.355,0.647 1.355,1.553 0,0.927 -0.617,1.674 -1.355,1.674 z"
       id="path342"
       inkscape:connector-curvature="0" />
  </g>
  <g
     transform="translate(144.738,27.343)"
     style="fill:#161413;fill-rule:evenodd;stroke:none"
     id="g344">
    <path
       d="m 1.894,2.5 c 0,-0.935 0.588,-1.892 1.793,-1.892 0.01,0.239 0.18,0.438 0.429,0.438 0.218,0 0.418,-0.159 0.418,-0.428 C 4.534,0.418 4.414,0 3.587,0 3.079,0 2.442,0.179 1.894,0.807 c 0,0 0,-0.339 0,-0.339 0,-0.308 -0.06,-0.408 -0.399,-0.408 0,0 -1.095,0 -1.095,0 -0.15,0 -0.4,0 -0.4,0.299 0,0.308 0.24,0.308 0.4,0.308 0,0 0.806,0 0.806,0 0,0 0,3.08 0,3.08 0,0 -0.806,0 -0.806,0 -0.15,0 -0.4,0 -0.4,0.298 0,0.309 0.24,0.309 0.4,0.309 0,0 2.599,0 2.599,0 0.15,0 0.409,0 0.409,-0.299 0,-0.308 -0.259,-0.308 -0.409,-0.308 0,0 -1.105,0 -1.105,0 0,0 0,-1.247 0,-1.247 z"
       id="path346"
       inkscape:connector-curvature="0" />
  </g>
  <g
     transform="translate(150.028,25.61)"
     style="fill:#161413;fill-rule:evenodd;stroke:none"
     id="g348">
    <path
       d="m 3.208,5.589 c 0,0.358 0,0.498 0.399,0.498 0,0 0.727,0 0.727,0 0.16,0 0.409,0 0.409,-0.309 0,-0.298 -0.259,-0.298 -0.399,-0.298 0,0 -0.448,0 -0.448,0 0,0 0,-5.072 0,-5.072 C 3.896,0.1 3.836,0 3.497,0 3.497,0 2.77,0 2.77,0 2.611,0 2.362,0 2.362,0.309 c 0,0.299 0.259,0.299 0.398,0.299 0,0 0.448,0 0.448,0 0,0 0,1.574 0,1.574 C 2.88,1.893 2.471,1.733 2.043,1.733 0.957,1.733 0,2.68 0,3.945 0,5.181 0.897,6.147 1.954,6.147 2.511,6.147 2.93,5.878 3.208,5.589 z m 0,-2.142 c 0,0 0,0.707 0,0.707 0,0.558 -0.448,1.385 -1.214,1.385 -0.708,0 -1.306,-0.707 -1.306,-1.594 0,-0.957 0.697,-1.604 1.394,-1.604 0.638,0 1.126,0.558 1.126,1.106 z"
       id="path350"
       inkscape:connector-curvature="0" />
  </g>
  <g
     transform="translate(155.888,27.313)"
     style="fill:#161413;fill-rule:evenodd;stroke:none"
     id="g352">
    <path
       d="M 2.251,1.844 C 2.021,1.804 1.822,1.774 1.573,1.724 1.285,1.684 0.607,1.565 0.607,1.176 c 0,-0.259 0.319,-0.567 1.265,-0.567 0.827,0 0.967,0.298 0.997,0.557 0.01,0.169 0.029,0.339 0.338,0.339 0.349,0 0.349,-0.21 0.349,-0.409 0,0 0,-0.687 0,-0.687 C 3.556,0.249 3.556,0 3.257,0 3.018,0 2.978,0.14 2.958,0.209 2.52,0 2.082,0 1.892,0 0.228,0 0,0.818 0,1.176 0,2.093 1.046,2.262 1.962,2.402 2.45,2.481 3.247,2.611 3.247,3.139 3.247,3.507 2.879,3.836 1.971,3.836 1.504,3.836 0.946,3.727 0.697,2.949 0.647,2.77 0.607,2.66 0.348,2.66 0,2.66 0,2.869 0,3.069 c 0,0 0,0.966 0,0.966 0,0.16 0,0.409 0.299,0.409 0.088,0 0.249,-0.01 0.368,-0.378 0.488,0.358 1.016,0.378 1.295,0.378 1.574,0 1.893,-0.828 1.893,-1.305 0,-1.036 -1.285,-1.245 -1.604,-1.295 z"
       id="path354"
       inkscape:connector-curvature="0" />
  </g>
  <g
     transform="translate(165.947,25.6)"
     style="fill:#161413;fill-rule:evenodd;stroke:none"
     id="g356">
    <path
       d="m 2.301,2.211 c 0,-0.308 -0.059,-0.408 -0.398,-0.408 0,0 -1.414,0 -1.414,0 -0.15,0 -0.41,0 -0.41,0.299 0,0.308 0.26,0.308 0.41,0.308 0,0 1.125,0 1.125,0 0,0 0,3.08 0,3.08 0,0 -1.205,0 -1.205,0 -0.16,0 -0.409,0 -0.409,0.308 0,0.299 0.259,0.299 0.409,0.299 0,0 2.939,0 2.939,0 0.149,0 0.408,0 0.408,-0.299 0,-0.308 -0.259,-0.308 -0.408,-0.308 0,0 -1.047,0 -1.047,0 0,0 0,-3.279 0,-3.279 z m 0,-1.713 C 2.301,0.219 2.082,0 1.803,0 1.525,0 1.305,0.219 1.305,0.498 c 0,0.279 0.22,0.498 0.498,0.498 0.279,0 0.498,-0.219 0.498,-0.498 z"
       id="path358"
       inkscape:connector-curvature="0" />
  </g>
  <g
     transform="translate(170.539,27.343)"
     style="fill:#161413;fill-rule:evenodd;stroke:none"
     id="g360">
    <path
       d="m 1.534,0.529 c 0,-0.32 0,-0.469 -0.398,-0.469 0,0 -0.727,0 -0.727,0 -0.16,0 -0.409,0 -0.409,0.309 0,0.298 0.26,0.298 0.399,0.298 0,0 0.449,0 0.449,0 0,0 0,3.08 0,3.08 0,0 -0.439,0 -0.439,0 -0.16,0 -0.409,0 -0.409,0.308 0,0.299 0.26,0.299 0.399,0.299 0,0 1.585,0 1.585,0 0.138,0 0.398,0 0.398,-0.299 0,-0.308 -0.249,-0.308 -0.409,-0.308 0,0 -0.439,0 -0.439,0 0,0 0,-1.764 0,-1.764 0,-0.996 0.738,-1.375 1.246,-1.375 0.528,0 0.667,0.279 0.667,0.877 0,0 0,2.262 0,2.262 0,0 -0.388,0 -0.388,0 -0.159,0 -0.408,0 -0.408,0.308 0,0.299 0.269,0.299 0.408,0.299 0,0 1.524,0 1.524,0 0.14,0 0.399,0 0.399,-0.299 0,-0.308 -0.249,-0.308 -0.409,-0.308 0,0 -0.438,0 -0.438,0 0,0 0,-2.312 0,-2.312 C 4.135,0.429 3.627,0 2.84,0 2.172,0 1.724,0.339 1.534,0.529 z"
       id="path362"
       inkscape:connector-curvature="0" />
  </g>
  <g
     transform="translate(1.6689982,38.177)"
     style="fill:#161413;fill-rule:evenodd;stroke:none"
     id="g364">
    <path
       d="m 1.963,1.833 c 0,0 1.634,0 1.634,0 0.149,0 0.398,0 0.398,-0.298 0,-0.309 -0.239,-0.309 -0.398,-0.309 0,0 -1.634,0 -1.634,0 0,0 0,-0.816 0,-0.816 C 1.963,0.22 1.963,0 1.624,0 1.275,0 1.275,0.209 1.275,0.41 c 0,0 0,0.816 0,0.816 0,0 -0.867,0 -0.867,0 -0.159,0 -0.408,0 -0.408,0.309 0,0.298 0.249,0.298 0.398,0.298 0,0 0.877,0 0.877,0 0,0 0,2.432 0,2.432 0,0.956 0.678,1.315 1.405,1.315 0.737,0 1.545,-0.428 1.545,-1.315 0,-0.18 0,-0.389 -0.349,-0.389 -0.329,0 -0.339,0.209 -0.339,0.378 C 3.526,4.873 2.959,4.972 2.73,4.972 1.963,4.972 1.963,4.454 1.963,4.205 c 0,0 0,-2.372 0,-2.372 z"
       id="path366"
       inkscape:connector-curvature="0" />
  </g>
  <g
     transform="translate(6.7889982,37.61)"
     style="fill:#161413;fill-rule:evenodd;stroke:none"
     id="g368">
    <path
       d="m 4.135,3.168 c 0,-1.006 -0.508,-1.435 -1.295,-1.435 -0.668,0 -1.116,0.339 -1.306,0.529 0,0 0,-1.854 0,-1.854 C 1.534,0.1 1.475,0 1.136,0 1.136,0 0.409,0 0.409,0 0.249,0 0,0 0,0.309 c 0,0.299 0.26,0.299 0.399,0.299 0,0 0.449,0 0.449,0 0,0 0,4.872 0,4.872 0,0 -0.439,0 -0.439,0 -0.16,0 -0.409,0 -0.409,0.308 0,0.299 0.26,0.299 0.399,0.299 0,0 1.585,0 1.585,0 0.138,0 0.398,0 0.398,-0.299 0,-0.308 -0.249,-0.308 -0.409,-0.308 0,0 -0.439,0 -0.439,0 0,0 0,-1.764 0,-1.764 0,-0.996 0.738,-1.375 1.246,-1.375 0.528,0 0.667,0.279 0.667,0.877 0,0 0,2.262 0,2.262 0,0 -0.388,0 -0.388,0 -0.159,0 -0.408,0 -0.408,0.308 0,0.299 0.269,0.299 0.408,0.299 0,0 1.524,0 1.524,0 0.14,0 0.399,0 0.399,-0.299 0,-0.308 -0.249,-0.308 -0.409,-0.308 0,0 -0.438,0 -0.438,0 0,0 0,-2.312 0,-2.312 z"
       id="path370"
       inkscape:connector-curvature="0" />
  </g>
  <g
     transform="translate(12.696998,37.6)"
     style="fill:#161413;fill-rule:evenodd;stroke:none"
     id="g372">
    <path
       d="m 2.301,2.211 c 0,-0.308 -0.059,-0.408 -0.398,-0.408 0,0 -1.414,0 -1.414,0 -0.15,0 -0.41,0 -0.41,0.299 0,0.308 0.26,0.308 0.41,0.308 0,0 1.125,0 1.125,0 0,0 0,3.08 0,3.08 0,0 -1.205,0 -1.205,0 -0.16,0 -0.409,0 -0.409,0.308 0,0.299 0.259,0.299 0.409,0.299 0,0 2.939,0 2.939,0 0.149,0 0.408,0 0.408,-0.299 0,-0.308 -0.259,-0.308 -0.408,-0.308 0,0 -1.047,0 -1.047,0 0,0 0,-3.279 0,-3.279 z m 0,-1.713 C 2.301,0.219 2.082,0 1.803,0 1.525,0 1.305,0.219 1.305,0.498 c 0,0.279 0.22,0.498 0.498,0.498 0.279,0 0.498,-0.219 0.498,-0.498 z"
       id="path374"
       inkscape:connector-curvature="0" />
  </g>
  <g
     transform="translate(18.137998,39.313)"
     style="fill:#161413;fill-rule:evenodd;stroke:none"
     id="g376">
    <path
       d="M 2.251,1.844 C 2.021,1.804 1.822,1.774 1.573,1.724 1.285,1.684 0.607,1.565 0.607,1.176 c 0,-0.259 0.319,-0.567 1.265,-0.567 0.827,0 0.967,0.298 0.997,0.557 0.01,0.169 0.029,0.339 0.338,0.339 0.349,0 0.349,-0.21 0.349,-0.409 0,0 0,-0.687 0,-0.687 C 3.556,0.249 3.556,0 3.257,0 3.018,0 2.978,0.14 2.958,0.209 2.52,0 2.082,0 1.892,0 0.228,0 0,0.818 0,1.176 0,2.093 1.046,2.262 1.962,2.402 2.45,2.481 3.247,2.611 3.247,3.139 3.247,3.507 2.879,3.836 1.971,3.836 1.504,3.836 0.946,3.727 0.697,2.949 0.647,2.77 0.607,2.66 0.348,2.66 0,2.66 0,2.869 0,3.069 c 0,0 0,0.966 0,0.966 0,0.16 0,0.409 0.299,0.409 0.088,0 0.249,-0.01 0.368,-0.378 0.488,0.358 1.016,0.378 1.295,0.378 1.574,0 1.893,-0.828 1.893,-1.305 0,-1.036 -1.285,-1.245 -1.604,-1.295 z"
       id="path378"
       inkscape:connector-curvature="0" />
  </g>
  <g
     transform="translate(28.217998,39.313)"
     style="fill:#161413;fill-rule:evenodd;stroke:none"
     id="g380">
    <path
       d="m 3.677,2.481 c 0.209,0 0.398,0 0.398,-0.368 C 4.075,0.977 3.437,0 2.141,0 0.956,0 0,0.996 0,2.222 0,3.438 1.006,4.444 2.291,4.444 3.606,4.444 4.075,3.547 4.075,3.298 4.075,3.019 3.786,3.019 3.726,3.019 3.547,3.019 3.467,3.049 3.397,3.238 3.178,3.746 2.64,3.836 2.361,3.836 1.614,3.836 0.867,3.338 0.707,2.481 c 0,0 2.97,0 2.97,0 z M 0.718,1.883 C 0.856,1.156 1.444,0.609 2.141,0.609 c 0.519,0 1.136,0.249 1.226,1.274 0,0 -2.649,0 -2.649,0 z"
       id="path382"
       inkscape:connector-curvature="0" />
  </g>
  <g
     transform="translate(33.038998,39.343)"
     style="fill:#161413;fill-rule:evenodd;stroke:none"
     id="g384">
    <path
       d="m 1.534,0.529 c 0,-0.32 0,-0.469 -0.398,-0.469 0,0 -0.727,0 -0.727,0 -0.16,0 -0.409,0 -0.409,0.309 0,0.298 0.26,0.298 0.399,0.298 0,0 0.449,0 0.449,0 0,0 0,3.08 0,3.08 0,0 -0.439,0 -0.439,0 -0.16,0 -0.409,0 -0.409,0.308 0,0.299 0.26,0.299 0.399,0.299 0,0 1.585,0 1.585,0 0.138,0 0.398,0 0.398,-0.299 0,-0.308 -0.249,-0.308 -0.409,-0.308 0,0 -0.439,0 -0.439,0 0,0 0,-1.764 0,-1.764 0,-0.996 0.738,-1.375 1.246,-1.375 0.528,0 0.667,0.279 0.667,0.877 0,0 0,2.262 0,2.262 0,0 -0.388,0 -0.388,0 -0.159,0 -0.408,0 -0.408,0.308 0,0.299 0.269,0.299 0.408,0.299 0,0 1.524,0 1.524,0 0.14,0 0.399,0 0.399,-0.299 0,-0.308 -0.249,-0.308 -0.409,-0.308 0,0 -0.438,0 -0.438,0 0,0 0,-2.312 0,-2.312 C 4.135,0.429 3.627,0 2.84,0 2.172,0 1.724,0.339 1.534,0.529 z"
       id="path386"
       inkscape:connector-curvature="0" />
  </g>
  <g
     transform="translate(38.408998,39.403)"
     style="fill:#161413;fill-rule:evenodd;stroke:none"
     id="g388">
    <path
       d="m 4.045,0.607 c 0,0 0.299,0 0.299,0 0.149,0 0.398,0 0.398,-0.298 C 4.742,0 4.503,0 4.344,0 4.344,0 3.178,0 3.178,0 3.029,0 2.78,0 2.78,0.299 c 0,0.308 0.239,0.308 0.398,0.308 0,0 0.279,0 0.279,0 0,0 -1.086,3.208 -1.086,3.208 0,0 -1.086,-3.208 -1.086,-3.208 0,0 0.28,0 0.28,0 0.149,0 0.398,0 0.398,-0.298 C 1.963,0 1.724,0 1.565,0 1.565,0 0.399,0 0.399,0 0.24,0 0,0 0,0.309 c 0,0.298 0.249,0.298 0.399,0.298 0,0 0.299,0 0.299,0 0,0 1.145,3.388 1.145,3.388 0.12,0.339 0.319,0.339 0.528,0.339 0.19,0 0.418,0 0.529,-0.329 0,0 1.145,-3.398 1.145,-3.398 z"
       id="path390"
       inkscape:connector-curvature="0" />
  </g>
  <g
     transform="translate(44.196998,37.6)"
     style="fill:#161413;fill-rule:evenodd;stroke:none"
     id="g392">
    <path
       d="m 2.301,2.211 c 0,-0.308 -0.059,-0.408 -0.398,-0.408 0,0 -1.414,0 -1.414,0 -0.15,0 -0.41,0 -0.41,0.299 0,0.308 0.26,0.308 0.41,0.308 0,0 1.125,0 1.125,0 0,0 0,3.08 0,3.08 0,0 -1.205,0 -1.205,0 -0.16,0 -0.409,0 -0.409,0.308 0,0.299 0.259,0.299 0.409,0.299 0,0 2.939,0 2.939,0 0.149,0 0.408,0 0.408,-0.299 0,-0.308 -0.259,-0.308 -0.408,-0.308 0,0 -1.047,0 -1.047,0 0,0 0,-3.279 0,-3.279 z m 0,-1.713 C 2.301,0.219 2.082,0 1.803,0 1.525,0 1.305,0.219 1.305,0.498 c 0,0.279 0.22,0.498 0.498,0.498 0.279,0 0.498,-0.219 0.498,-0.498 z"
       id="path394"
       inkscape:connector-curvature="0" />
  </g>
  <g
     transform="translate(48.987998,39.343)"
     style="fill:#161413;fill-rule:evenodd;stroke:none"
     id="g396">
    <path
       d="m 1.894,2.5 c 0,-0.935 0.588,-1.892 1.793,-1.892 0.01,0.239 0.18,0.438 0.429,0.438 0.218,0 0.418,-0.159 0.418,-0.428 C 4.534,0.418 4.414,0 3.587,0 3.079,0 2.442,0.179 1.894,0.807 c 0,0 0,-0.339 0,-0.339 0,-0.308 -0.06,-0.408 -0.399,-0.408 0,0 -1.095,0 -1.095,0 -0.15,0 -0.4,0 -0.4,0.299 0,0.308 0.24,0.308 0.4,0.308 0,0 0.806,0 0.806,0 0,0 0,3.08 0,3.08 0,0 -0.806,0 -0.806,0 -0.15,0 -0.4,0 -0.4,0.298 0,0.309 0.24,0.309 0.4,0.309 0,0 2.599,0 2.599,0 0.15,0 0.409,0 0.409,-0.299 0,-0.308 -0.259,-0.308 -0.409,-0.308 0,0 -1.105,0 -1.105,0 0,0 0,-1.247 0,-1.247 z"
       id="path398"
       inkscape:connector-curvature="0" />
  </g>
  <g
     transform="translate(54.487998,39.313)"
     style="fill:#161413;fill-rule:evenodd;stroke:none"
     id="g400">
    <path
       d="M 4.084,2.232 C 4.084,0.987 3.158,0 2.042,0 0.926,0 0,0.987 0,2.232 0,3.497 0.947,4.444 2.042,4.444 3.138,4.444 4.084,3.488 4.084,2.232 z M 2.042,3.836 c -0.737,0 -1.355,-0.747 -1.355,-1.674 0,-0.906 0.648,-1.553 1.355,-1.553 0.717,0 1.355,0.647 1.355,1.553 0,0.927 -0.617,1.674 -1.355,1.674 z"
       id="path402"
       inkscape:connector-curvature="0" />
  </g>
  <g
     transform="translate(59.538998,39.343)"
     style="fill:#161413;fill-rule:evenodd;stroke:none"
     id="g404">
    <path
       d="m 1.534,0.529 c 0,-0.32 0,-0.469 -0.398,-0.469 0,0 -0.727,0 -0.727,0 -0.16,0 -0.409,0 -0.409,0.309 0,0.298 0.26,0.298 0.399,0.298 0,0 0.449,0 0.449,0 0,0 0,3.08 0,3.08 0,0 -0.439,0 -0.439,0 -0.16,0 -0.409,0 -0.409,0.308 0,0.299 0.26,0.299 0.399,0.299 0,0 1.585,0 1.585,0 0.138,0 0.398,0 0.398,-0.299 0,-0.308 -0.249,-0.308 -0.409,-0.308 0,0 -0.439,0 -0.439,0 0,0 0,-1.764 0,-1.764 0,-0.996 0.738,-1.375 1.246,-1.375 0.528,0 0.667,0.279 0.667,0.877 0,0 0,2.262 0,2.262 0,0 -0.388,0 -0.388,0 -0.159,0 -0.408,0 -0.408,0.308 0,0.299 0.269,0.299 0.408,0.299 0,0 1.524,0 1.524,0 0.14,0 0.399,0 0.399,-0.299 0,-0.308 -0.249,-0.308 -0.409,-0.308 0,0 -0.438,0 -0.438,0 0,0 0,-2.312 0,-2.312 C 4.135,0.429 3.627,0 2.84,0 2.172,0 1.724,0.339 1.534,0.529 z"
       id="path406"
       inkscape:connector-curvature="0" />
  </g>
  <g
     transform="translate(64.629998,39.343)"
     style="fill:#161413;fill-rule:evenodd;stroke:none"
     id="g408">
    <path
       d="M 1.126,0.359 C 1.106,0.06 0.907,0.06 0.728,0.06 c 0,0 -0.32,0 -0.32,0 C 0.259,0.06 0,0.06 0,0.359 c 0,0.308 0.209,0.308 0.568,0.308 0,0 0,3.08 0,3.08 -0.359,0 -0.568,0 -0.568,0.308 0,0.299 0.269,0.299 0.408,0.299 0,0 0.877,0 0.877,0 0.15,0 0.408,0 0.408,-0.299 0,-0.308 -0.209,-0.308 -0.567,-0.308 0,0 0,-1.784 0,-1.784 0,-0.886 0.408,-1.355 0.817,-1.355 0.229,0 0.368,0.17 0.368,0.817 0,0 0,2.322 0,2.322 -0.189,0 -0.438,0 -0.438,0.308 0,0.299 0.27,0.299 0.408,0.299 0,0 0.748,0 0.748,0 0.15,0 0.408,0 0.408,-0.299 0,-0.308 -0.209,-0.308 -0.568,-0.308 0,0 0,-1.784 0,-1.784 0,-0.886 0.409,-1.355 0.817,-1.355 0.229,0 0.369,0.17 0.369,0.817 0,0 0,2.322 0,2.322 -0.19,0 -0.439,0 -0.439,0.308 0,0.299 0.27,0.299 0.409,0.299 0,0 0.747,0 0.747,0 0.15,0 0.409,0 0.409,-0.299 0,-0.308 -0.209,-0.308 -0.568,-0.308 0,0 0,-2.412 0,-2.412 C 4.613,1.136 4.613,0 3.727,0 3.428,0 3.019,0.129 2.74,0.518 2.591,0.179 2.311,0 1.982,0 1.664,0 1.365,0.14 1.126,0.359 z"
       id="path410"
       inkscape:connector-curvature="0" />
  </g>
  <g
     transform="translate(70.467998,39.313)"
     style="fill:#161413;fill-rule:evenodd;stroke:none"
     id="g412">
    <path
       d="m 3.677,2.481 c 0.209,0 0.398,0 0.398,-0.368 C 4.075,0.977 3.437,0 2.141,0 0.956,0 0,0.996 0,2.222 0,3.438 1.006,4.444 2.291,4.444 3.606,4.444 4.075,3.547 4.075,3.298 4.075,3.019 3.786,3.019 3.726,3.019 3.547,3.019 3.467,3.049 3.397,3.238 3.178,3.746 2.64,3.836 2.361,3.836 1.614,3.836 0.867,3.338 0.707,2.481 c 0,0 2.97,0 2.97,0 z M 0.718,1.883 C 0.856,1.156 1.444,0.609 2.141,0.609 c 0.519,0 1.136,0.249 1.226,1.274 0,0 -2.649,0 -2.649,0 z"
       id="path414"
       inkscape:connector-curvature="0" />
  </g>
  <g
     transform="translate(75.288998,39.343)"
     style="fill:#161413;fill-rule:evenodd;stroke:none"
     id="g416">
    <path
       d="m 1.534,0.529 c 0,-0.32 0,-0.469 -0.398,-0.469 0,0 -0.727,0 -0.727,0 -0.16,0 -0.409,0 -0.409,0.309 0,0.298 0.26,0.298 0.399,0.298 0,0 0.449,0 0.449,0 0,0 0,3.08 0,3.08 0,0 -0.439,0 -0.439,0 -0.16,0 -0.409,0 -0.409,0.308 0,0.299 0.26,0.299 0.399,0.299 0,0 1.585,0 1.585,0 0.138,0 0.398,0 0.398,-0.299 0,-0.308 -0.249,-0.308 -0.409,-0.308 0,0 -0.439,0 -0.439,0 0,0 0,-1.764 0,-1.764 0,-0.996 0.738,-1.375 1.246,-1.375 0.528,0 0.667,0.279 0.667,0.877 0,0 0,2.262 0,2.262 0,0 -0.388,0 -0.388,0 -0.159,0 -0.408,0 -0.408,0.308 0,0.299 0.269,0.299 0.408,0.299 0,0 1.524,0 1.524,0 0.14,0 0.399,0 0.399,-0.299 0,-0.308 -0.249,-0.308 -0.409,-0.308 0,0 -0.438,0 -0.438,0 0,0 0,-2.312 0,-2.312 C 4.135,0.429 3.627,0 2.84,0 2.172,0 1.724,0.339 1.534,0.529 z"
       id="path418"
       inkscape:connector-curvature="0" />
  </g>
  <g
     transform="translate(80.668998,38.177)"
     style="fill:#161413;fill-rule:evenodd;stroke:none"
     id="g420">
    <path
       d="m 1.963,1.833 c 0,0 1.634,0 1.634,0 0.149,0 0.398,0 0.398,-0.298 0,-0.309 -0.239,-0.309 -0.398,-0.309 0,0 -1.634,0 -1.634,0 0,0 0,-0.816 0,-0.816 C 1.963,0.22 1.963,0 1.624,0 1.275,0 1.275,0.209 1.275,0.41 c 0,0 0,0.816 0,0.816 0,0 -0.867,0 -0.867,0 -0.159,0 -0.408,0 -0.408,0.309 0,0.298 0.249,0.298 0.398,0.298 0,0 0.877,0 0.877,0 0,0 0,2.432 0,2.432 0,0.956 0.678,1.315 1.405,1.315 0.737,0 1.545,-0.428 1.545,-1.315 0,-0.18 0,-0.389 -0.349,-0.389 -0.329,0 -0.339,0.209 -0.339,0.378 C 3.526,4.873 2.959,4.972 2.73,4.972 1.963,4.972 1.963,4.454 1.963,4.205 c 0,0 0,-2.372 0,-2.372 z"
       id="path422"
       inkscape:connector-curvature="0" />
  </g>
  <g
     transform="translate(87.462998,42.452)"
     style="fill:#161413;fill-rule:evenodd;stroke:none"
     id="g424">
    <path
       d="M 1.017,1.215 C 0.867,1.833 0.398,1.992 0.279,2.032 0.18,2.062 0,2.112 0,2.311 0,2.461 0.149,2.63 0.319,2.63 0.638,2.63 1.654,2.092 1.654,0.996 1.654,0.389 1.266,0 0.827,0 0.429,0 0.199,0.299 0.199,0.617 c 0,0.379 0.289,0.628 0.618,0.628 0.06,0 0.129,-0.01 0.2,-0.03 z"
       id="path426"
       inkscape:connector-curvature="0" />
  </g>
  <g
     transform="translate(95.837998,37.551)"
     style="fill:#161413;fill-rule:evenodd;stroke:none"
     id="g428">
    <path
       d="m 2.103,2.459 c 0,0 1.215,0 1.215,0 0.15,0 0.399,0 0.399,-0.298 0,-0.309 -0.239,-0.309 -0.399,-0.309 0,0 -1.215,0 -1.215,0 0,0 0,-0.468 0,-0.468 0,-0.777 0.667,-0.777 0.966,-0.777 0,0.04 0.089,0.429 0.438,0.429 0.2,0 0.429,-0.161 0.429,-0.439 C 3.936,0 3.139,0 2.979,0 2.183,0 1.415,0.458 1.415,1.324 c 0,0 0,0.528 0,0.528 0,0 -0.996,0 -0.996,0 -0.159,0 -0.408,0 -0.408,0.309 0,0.298 0.249,0.298 0.398,0.298 0,0 1.006,0 1.006,0 0,0 0,3.08 0,3.08 0,0 -1.006,0 -1.006,0 -0.149,0 -0.409,0 -0.409,0.298 0,0.309 0.26,0.309 0.409,0.309 0,0 2.699,0 2.699,0 0.15,0 0.41,0 0.41,-0.299 0,-0.308 -0.26,-0.308 -0.41,-0.308 0,0 -1.005,0 -1.005,0 0,0 0,-3.08 0,-3.08 z"
       id="path430"
       inkscape:connector-curvature="0" />
  </g>
  <g
     transform="translate(101.488,39.313)"
     style="fill:#161413;fill-rule:evenodd;stroke:none"
     id="g432">
    <path
       d="M 4.084,2.232 C 4.084,0.987 3.158,0 2.042,0 0.926,0 0,0.987 0,2.232 0,3.497 0.947,4.444 2.042,4.444 3.138,4.444 4.084,3.488 4.084,2.232 z M 2.042,3.836 c -0.737,0 -1.355,-0.747 -1.355,-1.674 0,-0.906 0.648,-1.553 1.355,-1.553 0.717,0 1.355,0.647 1.355,1.553 0,0.927 -0.617,1.674 -1.355,1.674 z"
       id="path434"
       inkscape:connector-curvature="0" />
  </g>
  <g
     transform="translate(106.488,39.343)"
     style="fill:#161413;fill-rule:evenodd;stroke:none"
     id="g436">
    <path
       d="m 1.894,2.5 c 0,-0.935 0.588,-1.892 1.793,-1.892 0.01,0.239 0.18,0.438 0.429,0.438 0.218,0 0.418,-0.159 0.418,-0.428 C 4.534,0.418 4.414,0 3.587,0 3.079,0 2.442,0.179 1.894,0.807 c 0,0 0,-0.339 0,-0.339 0,-0.308 -0.06,-0.408 -0.399,-0.408 0,0 -1.095,0 -1.095,0 -0.15,0 -0.4,0 -0.4,0.299 0,0.308 0.24,0.308 0.4,0.308 0,0 0.806,0 0.806,0 0,0 0,3.08 0,3.08 0,0 -0.806,0 -0.806,0 -0.15,0 -0.4,0 -0.4,0.298 0,0.309 0.24,0.309 0.4,0.309 0,0 2.599,0 2.599,0 0.15,0 0.409,0 0.409,-0.299 0,-0.308 -0.259,-0.308 -0.409,-0.308 0,0 -1.105,0 -1.105,0 0,0 0,-1.247 0,-1.247 z"
       id="path438"
       inkscape:connector-curvature="0" />
  </g>
  <g
     transform="translate(116.968,39.313)"
     style="fill:#161413;fill-rule:evenodd;stroke:none"
     id="g440">
    <path
       d="m 3.677,2.481 c 0.209,0 0.398,0 0.398,-0.368 C 4.075,0.977 3.437,0 2.141,0 0.956,0 0,0.996 0,2.222 0,3.438 1.006,4.444 2.291,4.444 3.606,4.444 4.075,3.547 4.075,3.298 4.075,3.019 3.786,3.019 3.726,3.019 3.547,3.019 3.467,3.049 3.397,3.238 3.178,3.746 2.64,3.836 2.361,3.836 1.614,3.836 0.867,3.338 0.707,2.481 c 0,0 2.97,0 2.97,0 z M 0.718,1.883 C 0.856,1.156 1.444,0.609 2.141,0.609 c 0.519,0 1.136,0.249 1.226,1.274 0,0 -2.649,0 -2.649,0 z"
       id="path442"
       inkscape:connector-curvature="0" />
  </g>
  <g
     transform="translate(122.189,39.403)"
     style="fill:#161413;fill-rule:evenodd;stroke:none"
     id="g444">
    <path
       d="m 2.59,2.082 c 0,0 1.136,-1.475 1.136,-1.475 0,0 0.399,0 0.399,0 0.139,0 0.408,0 0.408,-0.298 C 4.533,0 4.274,0 4.125,0 4.125,0 2.959,0 2.959,0 2.809,0 2.56,0 2.56,0.299 c 0,0.308 0.22,0.308 0.488,0.308 0,0 -0.737,1.007 -0.737,1.007 0,0 -0.757,-1.007 -0.757,-1.007 0.259,0 0.479,0 0.479,-0.308 C 2.033,0 1.784,0 1.634,0 1.634,0 0.468,0 0.468,0 0.319,0 0.06,0 0.06,0.309 c 0,0.298 0.269,0.298 0.408,0.298 0,0 0.399,0 0.399,0 0,0 1.176,1.475 1.176,1.475 0,0 -1.236,1.605 -1.236,1.605 0,0 -0.398,0 -0.398,0 -0.15,0 -0.409,0 -0.409,0.308 0,0.299 0.269,0.299 0.409,0.299 0,0 1.165,0 1.165,0 0.149,0 0.398,0 0.398,-0.299 0,-0.308 -0.209,-0.308 -0.517,-0.308 0,0 0.856,-1.226 0.856,-1.226 0,0 0.887,1.226 0.887,1.226 -0.279,0 -0.498,0 -0.498,0.308 0,0.299 0.249,0.299 0.398,0.299 0,0 1.166,0 1.166,0 0.14,0 0.408,0 0.408,-0.299 0,-0.308 -0.258,-0.308 -0.408,-0.308 0,0 -0.398,0 -0.398,0 0,0 -1.276,-1.605 -1.276,-1.605 z"
       id="path446"
       inkscape:connector-curvature="0" />
  </g>
  <g
     transform="translate(127.718,39.313)"
     style="fill:#161413;fill-rule:evenodd;stroke:none"
     id="g448">
    <path
       d="m 3.098,4.066 c 0.219,0.308 0.698,0.318 1.077,0.318 0.278,0 0.498,0 0.498,-0.309 0,-0.298 -0.249,-0.298 -0.399,-0.298 -0.419,0 -0.518,-0.05 -0.597,-0.081 0,0 0,-2.151 0,-2.151 C 3.677,0.837 3.139,0 1.704,0 1.275,0 0.259,0 0.259,0.728 c 0,0.299 0.21,0.458 0.448,0.458 0.149,0 0.429,-0.09 0.438,-0.458 0,-0.08 0.01,-0.09 0.21,-0.11 0.139,-0.009 0.269,-0.009 0.359,-0.009 0.757,0 1.275,0.308 1.275,1.015 C 1.225,1.655 0,2.153 0,3.109 c 0,0.687 0.628,1.335 1.643,1.335 0.37,0 0.987,-0.07 1.455,-0.378 z M 2.989,2.212 c 0,0 0,0.837 0,0.837 0,0.23 0,0.439 -0.389,0.617 -0.359,0.17 -0.807,0.17 -0.886,0.17 -0.618,0 -1.027,-0.339 -1.027,-0.727 0,-0.489 0.857,-0.857 2.302,-0.897 z"
       id="path450"
       inkscape:connector-curvature="0" />
  </g>
  <g
     transform="translate(132.38,39.343)"
     style="fill:#161413;fill-rule:evenodd;stroke:none"
     id="g452">
    <path
       d="M 1.126,0.359 C 1.106,0.06 0.907,0.06 0.728,0.06 c 0,0 -0.32,0 -0.32,0 C 0.259,0.06 0,0.06 0,0.359 c 0,0.308 0.209,0.308 0.568,0.308 0,0 0,3.08 0,3.08 -0.359,0 -0.568,0 -0.568,0.308 0,0.299 0.269,0.299 0.408,0.299 0,0 0.877,0 0.877,0 0.15,0 0.408,0 0.408,-0.299 0,-0.308 -0.209,-0.308 -0.567,-0.308 0,0 0,-1.784 0,-1.784 0,-0.886 0.408,-1.355 0.817,-1.355 0.229,0 0.368,0.17 0.368,0.817 0,0 0,2.322 0,2.322 -0.189,0 -0.438,0 -0.438,0.308 0,0.299 0.27,0.299 0.408,0.299 0,0 0.748,0 0.748,0 0.15,0 0.408,0 0.408,-0.299 0,-0.308 -0.209,-0.308 -0.568,-0.308 0,0 0,-1.784 0,-1.784 0,-0.886 0.409,-1.355 0.817,-1.355 0.229,0 0.369,0.17 0.369,0.817 0,0 0,2.322 0,2.322 -0.19,0 -0.439,0 -0.439,0.308 0,0.299 0.27,0.299 0.409,0.299 0,0 0.747,0 0.747,0 0.15,0 0.409,0 0.409,-0.299 0,-0.308 -0.209,-0.308 -0.568,-0.308 0,0 0,-2.412 0,-2.412 C 4.613,1.136 4.613,0 3.727,0 3.428,0 3.019,0.129 2.74,0.518 2.591,0.179 2.311,0 1.982,0 1.664,0 1.365,0.14 1.126,0.359 z"
       id="path454"
       inkscape:connector-curvature="0" />
  </g>
  <g
     transform="translate(137.789,39.343)"
     style="fill:#161413;fill-rule:evenodd;stroke:none"
     id="g456">
    <path
       d="m 1.534,1.724 c 0,-0.588 0.578,-1.116 1.206,-1.116 0.738,0 1.316,0.727 1.316,1.594 0,0.957 -0.698,1.604 -1.396,1.604 -0.776,0 -1.126,-0.877 -1.126,-1.355 0,0 0,-0.727 0,-0.727 z m 0,2.182 C 1.943,4.324 2.371,4.414 2.691,4.414 3.777,4.414 4.742,3.467 4.742,2.202 4.742,0.977 3.856,0 2.8,0 2.321,0 1.873,0.179 1.534,0.489 1.534,0.2 1.515,0.06 1.136,0.06 c 0,0 -0.727,0 -0.727,0 -0.16,0 -0.409,0 -0.409,0.309 0,0.298 0.26,0.298 0.399,0.298 0,0 0.449,0 0.449,0 0,0 0,5.291 0,5.291 0,0 -0.439,0 -0.439,0 -0.16,0 -0.409,0 -0.409,0.309 0,0.299 0.26,0.299 0.399,0.299 0,0 1.585,0 1.585,0 0.138,0 0.398,0 0.398,-0.299 0,-0.309 -0.249,-0.309 -0.409,-0.309 0,0 -0.439,0 -0.439,0 0,0 0,-2.052 0,-2.052 z"
       id="path458"
       inkscape:connector-curvature="0" />
  </g>
  <g
     transform="translate(143.498,37.61)"
     style="fill:#161413;fill-rule:evenodd;stroke:none"
     id="g460">
    <path
       d="M 2.381,0.408 C 2.381,0.1 2.321,0 1.983,0 1.983,0 0.408,0 0.408,0 0.249,0 0,0 0,0.309 c 0,0.299 0.259,0.299 0.399,0.299 0,0 1.294,0 1.294,0 0,0 0,4.872 0,4.872 0,0 -1.285,0 -1.285,0 C 0.249,5.48 0,5.48 0,5.788 c 0,0.299 0.259,0.299 0.399,0.299 0,0 3.277,0 3.277,0 0.149,0 0.398,0 0.398,-0.299 0,-0.308 -0.239,-0.308 -0.398,-0.308 0,0 -1.295,0 -1.295,0 0,0 0,-5.072 0,-5.072 z"
       id="path462"
       inkscape:connector-curvature="0" />
  </g>
  <g
     transform="translate(148.718,39.313)"
     style="fill:#161413;fill-rule:evenodd;stroke:none"
     id="g464">
    <path
       d="m 3.677,2.481 c 0.209,0 0.398,0 0.398,-0.368 C 4.075,0.977 3.437,0 2.141,0 0.956,0 0,0.996 0,2.222 0,3.438 1.006,4.444 2.291,4.444 3.606,4.444 4.075,3.547 4.075,3.298 4.075,3.019 3.786,3.019 3.726,3.019 3.547,3.019 3.467,3.049 3.397,3.238 3.178,3.746 2.64,3.836 2.361,3.836 1.614,3.836 0.867,3.338 0.707,2.481 c 0,0 2.97,0 2.97,0 z M 0.718,1.883 C 0.856,1.156 1.444,0.609 2.141,0.609 c 0.519,0 1.136,0.249 1.226,1.274 0,0 -2.649,0 -2.649,0 z"
       id="path466"
       inkscape:connector-curvature="0" />
  </g>
  <g
     transform="translate(155.412,42.452)"
     style="fill:#161413;fill-rule:evenodd;stroke:none"
     id="g468">
    <path
       d="M 1.246,0.627 C 1.246,0.259 0.947,0 0.628,0 0.249,0 0,0.308 0,0.617 c 0,0.369 0.299,0.628 0.618,0.628 0.379,0 0.628,-0.309 0.628,-0.618 z"
       id="path470"
       inkscape:connector-curvature="0" />
  </g>
</svg>
