<?xml version="1.0" encoding="UTF-8" standalone="no"?>
<svg
   xmlns:dc="http://purl.org/dc/elements/1.1/"
   xmlns:cc="http://creativecommons.org/ns#"
   xmlns:rdf="http://www.w3.org/1999/02/22-rdf-syntax-ns#"
   xmlns:svg="http://www.w3.org/2000/svg"
   xmlns="http://www.w3.org/2000/svg"
   xmlns:sodipodi="http://sodipodi.sourceforge.net/DTD/sodipodi-0.dtd"
   xmlns:inkscape="http://www.inkscape.org/namespaces/inkscape"
   width="121.8825"
   height="107.74"
   viewBox="0 0 97.506 86.191998"
   id="svg2"
   version="1.1"
   inkscape:version="0.48.0 r9654"
   sodipodi:docname="latex_source_code.ps(converted)-page1.svg">
  <metadata
     id="metadata300">
    <rdf:RDF>
      <cc:Work
         rdf:about="">
        <dc:format>image/svg+xml</dc:format>
        <dc:type
           rdf:resource="http://purl.org/dc/dcmitype/StillImage" />
        <dc:title></dc:title>
      </cc:Work>
    </rdf:RDF>
  </metadata>
  <defs
     id="defs298" />
  <sodipodi:namedview
     pagecolor="#ffffff"
     bordercolor="#666666"
     borderopacity="1"
     objecttolerance="10"
     gridtolerance="10"
     guidetolerance="10"
     inkscape:pageopacity="0"
     inkscape:pageshadow="2"
     inkscape:window-width="640"
     inkscape:window-height="480"
     id="namedview296"
     showgrid="false"
     fit-margin-top="2"
     fit-margin-right="2"
     fit-margin-bottom="2"
     fit-margin-left="2"
     inkscape:zoom="0.24418052"
     inkscape:cx="191.4775"
     inkscape:cy="-260.85125"
     inkscape:window-x="0"
     inkscape:window-y="24"
     inkscape:window-maximized="0"
     inkscape:current-layer="svg2" />
  <g
     transform="translate(2.069,1.988)"
     style="fill:#161413;fill-rule:evenodd;stroke:none"
     id="g4">
    <path
       d="M 2.042,0.259 C 2.042,0.02 2.042,0 1.813,0 1.195,0.638 0.318,0.638 0,0.638 c 0,0 0,0.309 0,0.309 0.199,0 0.787,0 1.304,-0.259 0,0 0,5.16 0,5.16 0,0.358 -0.029,0.478 -0.925,0.478 0,0 -0.32,0 -0.32,0 0,0 0,0.309 0,0.309 0,0 3.229,0 3.229,0 0,0 0,-0.309 0,-0.309 0,0 -0.32,0 -0.32,0 -0.896,0 -0.926,-0.109 -0.926,-0.478 0,0 0,-5.589 0,-5.589 z"
       id="path6"
       inkscape:connector-curvature="0" />
  </g>
  <g
     transform="translate(7.038,7.567)"
     style="fill:#161413;fill-rule:evenodd;stroke:none"
     id="g8">
    <path
       d="M 1.057,0.528 C 1.057,0.239 0.818,0 0.529,0 0.24,0 0,0.239 0,0.528 c 0,0.289 0.24,0.528 0.529,0.528 0.289,0 0.528,-0.239 0.528,-0.528 z"
       id="path10"
       inkscape:connector-curvature="0" />
  </g>
  <g
     transform="translate(14.29,1.878)"
     style="fill:#161413;fill-rule:evenodd;stroke:none"
     id="g12">
    <path
       d="M 6.277,0 C 6.277,0 0.19,0 0.19,0 0.19,0 0,2.242 0,2.242 c 0,0 0.249,0 0.249,0 0.14,-1.604 0.289,-1.933 1.794,-1.933 0.179,0 0.438,0 0.538,0.02 0.209,0.04 0.209,0.149 0.209,0.379 0,0 0,5.25 0,5.25 0,0.339 0,0.478 -1.045,0.478 0,0 -0.4,0 -0.4,0 0,0 0,0.309 0,0.309 0,0 3.776,0 3.776,0 0,0 0,-0.309 0,-0.309 0,0 -0.398,0 -0.398,0 -1.046,0 -1.046,-0.139 -1.046,-0.478 0,0 0,-5.25 0,-5.25 0,-0.199 0,-0.339 0.179,-0.379 0.11,-0.02 0.379,-0.02 0.568,-0.02 1.504,0 1.654,0.329 1.793,1.933 0,0 0.249,0 0.249,0 C 6.466,2.242 6.277,0 6.277,0 z"
       id="path14"
       inkscape:connector-curvature="0" />
  </g>
  <g
     transform="translate(21.25,1.709)"
     style="fill:#161413;fill-rule:evenodd;stroke:none"
     id="g16">
    <path
       d="m 0.778,6.157 c 0,0.448 -0.11,0.448 -0.778,0.448 0,0 0,0.309 0,0.309 0,0 2.243,0 2.243,0 0,0 0,-0.309 0,-0.309 -0.668,0 -0.778,0 -0.778,-0.448 0,0 0,-1.833 0,-1.833 0,-1.036 0.707,-1.595 1.345,-1.595 0.628,0 0.737,0.539 0.737,1.107 0,0 0,2.321 0,2.321 0,0.448 -0.109,0.448 -0.776,0.448 0,0 0,0.309 0,0.309 0,0 2.241,0 2.241,0 0,0 0,-0.309 0,-0.309 -0.518,0 -0.768,0 -0.777,-0.298 0,0 0,-1.904 0,-1.904 0,-0.856 0,-1.165 -0.309,-1.524 C 3.786,2.71 3.457,2.511 2.88,2.511 c -0.837,0 -1.275,0.597 -1.444,0.976 0,0 0,-3.487 0,-3.487 C 1.436,0 0,0.109 0,0.109 c 0,0 0,0.309 0,0.309 0.699,0 0.778,0.07 0.778,0.558 0,0 0,5.181 0,5.181 z"
       id="path18"
       inkscape:connector-curvature="0" />
  </g>
  <g
     transform="translate(26.711,4.16)"
     style="fill:#161413;fill-rule:evenodd;stroke:none"
     id="g20">
    <path
       d="m 0.837,1.952 c 0.06,-1.484 0.897,-1.733 1.236,-1.733 1.025,0 1.125,1.345 1.125,1.733 0,0 -2.361,0 -2.361,0 z M 0.826,2.161 c 0,0 2.781,0 2.781,0 0.218,0 0.249,0 0.249,-0.209 C 3.856,0.966 3.318,0 2.073,0 0.916,0 0,1.025 0,2.272 c 0,1.335 1.046,2.3 2.192,2.3 1.216,0 1.664,-1.105 1.664,-1.295 0,-0.099 -0.08,-0.119 -0.13,-0.119 -0.09,0 -0.109,0.06 -0.13,0.139 C 3.247,4.323 2.351,4.323 2.251,4.323 1.753,4.323 1.355,4.025 1.125,3.656 0.826,3.178 0.826,2.521 0.826,2.161 z"
       id="path22"
       inkscape:connector-curvature="0" />
  </g>
  <g
     transform="translate(34.701,1.6)"
     style="fill:#161413;fill-rule:evenodd;stroke:none"
     id="g24">
    <path
       d="m 3.019,3.038 c 0.458,0 0.527,0.13 0.527,0.538 0,0 0,2.69 0,2.69 0,0.448 -0.109,0.448 -0.776,0.448 0,0 0,0.309 0,0.309 0,0 2.211,0 2.211,0 0,0 0,-0.309 0,-0.309 -0.667,0 -0.776,0 -0.776,-0.448 0,0 0,-3.656 0,-3.656 0,0 -1.256,0.089 -1.256,0.089 C 2.79,2.71 2.78,2.719 2.77,2.719 c -0.02,0.01 -0.04,0.01 -0.18,0.01 0,0 -1.175,0 -1.175,0 0,0 0,-1.126 0,-1.126 0,-0.986 0.856,-1.385 1.474,-1.385 0.299,0 0.657,0.1 0.857,0.329 -0.409,0.02 -0.468,0.299 -0.468,0.458 0,0.33 0.259,0.458 0.448,0.458 0.23,0 0.458,-0.159 0.458,-0.458 C 4.184,0.418 3.636,0 2.899,0 1.972,0 0.787,0.507 0.787,1.593 c 0,0 0,1.136 0,1.136 0,0 -0.787,0 -0.787,0 0,0 0,0.309 0,0.309 0,0 0.787,0 0.787,0 0,0 0,3.228 0,3.228 0,0.448 -0.11,0.448 -0.777,0.448 0,0 0,0.309 0,0.309 0,0 2.211,0 2.211,0 0,0 0,-0.309 0,-0.309 -0.667,0 -0.776,0 -0.776,-0.448 0,0 0,-3.228 0,-3.228 0,0 1.574,0 1.574,0 z"
       id="path26"
       inkscape:connector-curvature="0" />
  </g>
  <g
     transform="translate(40.211,4.22)"
     style="fill:#161413;fill-rule:evenodd;stroke:none"
     id="g28">
    <path
       d="m 1.385,1.095 c 0,0 0,-1.095 0,-1.095 C 1.385,0 0,0.109 0,0.109 c 0,0 0,0.309 0,0.309 0.698,0 0.777,0.07 0.777,0.558 0,0 0,2.67 0,2.67 0,0.448 -0.11,0.448 -0.777,0.448 0,0 0,0.309 0,0.309 0,0 2.401,0 2.401,0 0,0 0,-0.309 0,-0.309 0,0 -0.209,0 -0.209,0 -0.738,0 -0.757,-0.109 -0.757,-0.468 0,0 0,-1.535 0,-1.535 0,-0.986 0.418,-1.873 1.176,-1.873 0.069,0 0.089,0 0.109,0.01 -0.03,0.011 -0.229,0.13 -0.229,0.389 0,0.279 0.209,0.429 0.428,0.429 0.179,0 0.428,-0.12 0.428,-0.439 C 3.347,0.289 3.038,0 2.611,0 1.883,0 1.525,0.667 1.385,1.095 z"
       id="path30"
       inkscape:connector-curvature="0" />
  </g>
  <g
     transform="translate(44.261,4.16)"
     style="fill:#161413;fill-rule:evenodd;stroke:none"
     id="g32">
    <path
       d="m 1.743,2.53 c 0.219,0.04 1.036,0.2 1.036,0.916 0,0.509 -0.348,0.908 -1.126,0.908 C 0.817,4.354 0.458,3.785 0.269,2.939 0.239,2.81 0.229,2.77 0.129,2.77 0,2.77 0,2.839 0,3.019 c 0,0 0,1.314 0,1.314 0,0.17 0,0.239 0.109,0.239 0.05,0 0.06,-0.009 0.25,-0.199 C 0.378,4.354 0.378,4.333 0.558,4.145 0.996,4.563 1.444,4.572 1.653,4.572 2.799,4.572 3.258,3.905 3.258,3.188 3.258,2.659 2.959,2.36 2.839,2.241 2.51,1.923 2.122,1.843 1.703,1.763 1.146,1.653 0.478,1.524 0.478,0.946 c 0,-0.348 0.259,-0.757 1.116,-0.757 1.096,0 1.145,0.897 1.166,1.206 0.01,0.089 0.099,0.089 0.119,0.089 0.13,0 0.13,-0.049 0.13,-0.239 0,0 0,-1.007 0,-1.007 C 3.009,0.069 3.009,0 2.899,0 2.849,0 2.829,0 2.699,0.119 2.67,0.159 2.57,0.249 2.53,0.278 2.151,0 1.743,0 1.594,0 0.378,0 0,0.667 0,1.225 0,1.574 0.159,1.853 0.428,2.072 0.747,2.331 1.025,2.391 1.743,2.53 z"
       id="path34"
       inkscape:connector-curvature="0" />
  </g>
  <g
     transform="translate(47.871,2.496)"
     style="fill:#161413;fill-rule:evenodd;stroke:none"
     id="g36">
    <path
       d="m 1.535,2.142 c 0,0 1.424,0 1.424,0 0,0 0,-0.309 0,-0.309 0,0 -1.424,0 -1.424,0 0,0 0,-1.833 0,-1.833 0,0 -0.249,0 -0.249,0 C 1.276,0.816 0.977,1.883 0,1.923 c 0,0 0,0.219 0,0.219 0,0 0.847,0 0.847,0 0,0 0,2.75 0,2.75 0,1.225 0.927,1.344 1.285,1.344 0.707,0 0.987,-0.707 0.987,-1.344 0,0 0,-0.569 0,-0.569 0,0 -0.249,0 -0.249,0 0,0 0,0.549 0,0.549 0,0.737 -0.299,1.115 -0.668,1.115 -0.667,0 -0.667,-0.906 -0.667,-1.076 0,0 0,-2.769 0,-2.769 z"
       id="path38"
       inkscape:connector-curvature="0" />
  </g>
  <g
     transform="translate(55.261,1.958)"
     style="fill:#161413;fill-rule:evenodd;stroke:none"
     id="g40">
    <path
       d="m 1.435,2.262 c 0,0 -1.396,0.109 -1.396,0.109 0,0 0,0.309 0,0.309 0.649,0 0.737,0.06 0.737,0.547 0,0 0,2.681 0,2.681 0,0.448 -0.109,0.448 -0.776,0.448 0,0 0,0.309 0,0.309 0,0 2.132,0 2.132,0 0,0 0,-0.309 0,-0.309 -0.657,0 -0.697,-0.049 -0.697,-0.438 0,0 0,-3.656 0,-3.656 z M 1.475,0.528 C 1.475,0.209 1.225,0 0.946,0 0.638,0 0.418,0.269 0.418,0.528 c 0,0.269 0.22,0.528 0.528,0.528 0.279,0 0.529,-0.209 0.529,-0.528 z"
       id="path42"
       inkscape:connector-curvature="0" />
  </g>
  <g
     transform="translate(57.871,2.496)"
     style="fill:#161413;fill-rule:evenodd;stroke:none"
     id="g44">
    <path
       d="m 1.535,2.142 c 0,0 1.424,0 1.424,0 0,0 0,-0.309 0,-0.309 0,0 -1.424,0 -1.424,0 0,0 0,-1.833 0,-1.833 0,0 -0.249,0 -0.249,0 C 1.276,0.816 0.977,1.883 0,1.923 c 0,0 0,0.219 0,0.219 0,0 0.847,0 0.847,0 0,0 0,2.75 0,2.75 0,1.225 0.927,1.344 1.285,1.344 0.707,0 0.987,-0.707 0.987,-1.344 0,0 0,-0.569 0,-0.569 0,0 -0.249,0 -0.249,0 0,0 0,0.549 0,0.549 0,0.737 -0.299,1.115 -0.668,1.115 -0.667,0 -0.667,-0.906 -0.667,-1.076 0,0 0,-2.769 0,-2.769 z"
       id="path46"
       inkscape:connector-curvature="0" />
  </g>
  <g
     transform="translate(61.711,4.16)"
     style="fill:#161413;fill-rule:evenodd;stroke:none"
     id="g48">
    <path
       d="m 0.837,1.952 c 0.06,-1.484 0.897,-1.733 1.236,-1.733 1.025,0 1.125,1.345 1.125,1.733 0,0 -2.361,0 -2.361,0 z M 0.826,2.161 c 0,0 2.781,0 2.781,0 0.218,0 0.249,0 0.249,-0.209 C 3.856,0.966 3.318,0 2.073,0 0.916,0 0,1.025 0,2.272 c 0,1.335 1.046,2.3 2.192,2.3 1.216,0 1.664,-1.105 1.664,-1.295 0,-0.099 -0.08,-0.119 -0.13,-0.119 -0.09,0 -0.109,0.06 -0.13,0.139 C 3.247,4.323 2.351,4.323 2.251,4.323 1.753,4.323 1.355,4.025 1.125,3.656 0.826,3.178 0.826,2.521 0.826,2.161 z"
       id="path50"
       inkscape:connector-curvature="0" />
  </g>
  <g
     transform="translate(66.25,4.22)"
     style="fill:#161413;fill-rule:evenodd;stroke:none"
     id="g52">
    <path
       d="m 0.778,0.976 c 0,0 0,2.67 0,2.67 0,0.448 -0.11,0.448 -0.778,0.448 0,0 0,0.309 0,0.309 0,0 2.243,0 2.243,0 0,0 0,-0.309 0,-0.309 -0.668,0 -0.778,0 -0.778,-0.448 0,0 0,-1.833 0,-1.833 0,-1.036 0.707,-1.595 1.345,-1.595 0.628,0 0.737,0.539 0.737,1.107 0,0 0,2.321 0,2.321 0,0.448 -0.109,0.448 -0.776,0.448 0,0 0,0.309 0,0.309 0,0 2.241,0 2.241,0 0,0 0,-0.309 0,-0.309 -0.668,0 -0.777,0 -0.777,-0.448 0,0 0,-1.833 0,-1.833 0,-1.036 0.708,-1.595 1.344,-1.595 0.628,0 0.738,0.539 0.738,1.107 0,0 0,2.321 0,2.321 0,0.448 -0.11,0.448 -0.777,0.448 0,0 0,0.309 0,0.309 0,0 2.242,0 2.242,0 0,0 0,-0.309 0,-0.309 -0.518,0 -0.768,0 -0.778,-0.298 0,0 0,-1.904 0,-1.904 0,-0.856 0,-1.165 -0.308,-1.524 C 6.556,0.199 6.228,0 5.65,0 4.813,0 4.374,0.597 4.205,0.976 4.066,0.109 3.328,0 2.88,0 2.153,0 1.685,0.428 1.406,1.046 c 0,0 0,-1.046 0,-1.046 C 1.406,0 0,0.109 0,0.109 c 0,0 0,0.309 0,0.309 0.699,0 0.778,0.07 0.778,0.558 z"
       id="path54"
       inkscape:connector-curvature="0" />
  </g>
  <g
     transform="translate(18.918,21.151)"
     style="fill:#161413;fill-rule:evenodd;stroke:none"
     id="g56">
    <path
       d="m 2.312,9.863 c 0,-0.03 0,-0.05 -0.17,-0.219 C 0.897,8.389 0.578,6.505 0.578,4.982 0.578,3.247 0.956,1.514 2.182,0.269 2.312,0.15 2.312,0.129 2.312,0.1 2.312,0.03 2.272,0 2.212,0 2.113,0 1.216,0.677 0.628,1.943 0.119,3.038 0,4.145 0,4.982 0,5.758 0.11,6.964 0.658,8.09 c 0.597,1.225 1.455,1.872 1.554,1.872 0.06,0 0.1,-0.029 0.1,-0.099 z"
       id="path58"
       inkscape:connector-curvature="0" />
  </g>
  <g
     transform="translate(22.35,24.16)"
     style="fill:#161413;fill-rule:evenodd;stroke:none"
     id="g60">
    <path
       d="m 2.899,3.706 c 0.04,0.399 0.309,0.817 0.778,0.817 0.209,0 0.816,-0.14 0.816,-0.947 0,0 0,-0.557 0,-0.557 0,0 -0.249,0 -0.249,0 0,0 0,0.557 0,0.557 0,0.578 -0.249,0.638 -0.358,0.638 -0.329,0 -0.368,-0.448 -0.368,-0.498 0,0 0,-1.992 0,-1.992 0,-0.419 0,-0.808 -0.36,-1.176 C 2.77,0.159 2.271,0 1.794,0 0.977,0 0.289,0.468 0.289,1.125 c 0,0.299 0.199,0.469 0.459,0.469 0.278,0 0.458,-0.199 0.458,-0.458 0,-0.12 -0.05,-0.448 -0.508,-0.459 0.269,-0.349 0.757,-0.458 1.075,-0.458 0.489,0 1.057,0.389 1.057,1.275 0,0 0,0.368 0,0.368 C 2.321,1.893 1.624,1.923 0.997,2.222 0.25,2.56 0,3.078 0,3.517 0,4.323 0.967,4.572 1.595,4.572 2.252,4.572 2.71,4.174 2.899,3.706 z M 2.83,2.072 c 0,0 0,0.996 0,0.996 0,0.947 -0.718,1.286 -1.166,1.286 -0.488,0 -0.896,-0.349 -0.896,-0.847 0,-0.548 0.418,-1.375 2.062,-1.435 z"
       id="path62"
       inkscape:connector-curvature="0" />
  </g>
  <g
     transform="translate(27.5,21.151)"
     style="fill:#161413;fill-rule:evenodd;stroke:none"
     id="g64">
    <path
       d="M 2.311,4.982 C 2.311,4.204 2.202,2.998 1.654,1.873 1.056,0.648 0.2,0 0.1,0 0.039,0 0,0.04 0,0.1 0,0.129 0,0.15 0.189,0.328 1.165,1.315 1.734,2.899 1.734,4.982 1.734,6.685 1.365,8.439 0.129,9.694 0,9.813 0,9.833 0,9.863 0,9.923 0.039,9.962 0.1,9.962 0.2,9.962 1.096,9.285 1.684,8.02 2.192,6.924 2.311,5.819 2.311,4.982 z"
       id="path66"
       inkscape:connector-curvature="0" />
  </g>
  <g
     transform="translate(36.011,21.818)"
     style="fill:#161413;fill-rule:evenodd;stroke:none"
     id="g68">
    <path
       d="M 1.983,0.13 C 1.893,0.01 1.883,0 1.693,0 1.693,0 0,0 0,0 c 0,0 0,0.309 0,0.309 0,0 0.289,0 0.289,0 0.15,0 0.349,0.011 0.498,0.02 0.229,0.03 0.238,0.04 0.238,0.23 0,0 0,5.2 0,5.2 0,0.269 0,0.737 -1.025,0.737 0,0 0,0.309 0,0.309 0,0 2.331,0 2.331,0 0,0 0,-0.309 0,-0.309 -1.026,0 -1.026,-0.468 -1.026,-0.737 0,0 0,-5.181 0,-5.181 0.05,0.05 0.059,0.06 0.099,0.12 0,0 4.065,5.977 4.065,5.977 0.09,0.12 0.099,0.13 0.17,0.13 0.139,0 0.139,-0.069 0.139,-0.259 0,0 0,-5.5 0,-5.5 0,-0.268 0,-0.737 1.026,-0.737 0,0 0,-0.309 0,-0.309 0,0 -2.331,0 -2.331,0 0,0 0,0.309 0,0.309 1.026,0 1.026,0.469 1.026,0.737 0,0 0,4.255 0,4.255 0,0 -3.516,-5.171 -3.516,-5.171 z"
       id="path70"
       inkscape:connector-curvature="0" />
  </g>
  <g
     transform="translate(43.461,24.16)"
     style="fill:#161413;fill-rule:evenodd;stroke:none"
     id="g72">
    <path
       d="m 0.837,1.952 c 0.06,-1.484 0.897,-1.733 1.236,-1.733 1.025,0 1.125,1.345 1.125,1.733 0,0 -2.361,0 -2.361,0 z M 0.826,2.161 c 0,0 2.781,0 2.781,0 0.218,0 0.249,0 0.249,-0.209 C 3.856,0.966 3.318,0 2.073,0 0.916,0 0,1.025 0,2.272 c 0,1.335 1.046,2.3 2.192,2.3 1.216,0 1.664,-1.105 1.664,-1.295 0,-0.099 -0.08,-0.119 -0.13,-0.119 -0.09,0 -0.109,0.06 -0.13,0.139 C 3.247,4.323 2.351,4.323 2.251,4.323 1.753,4.323 1.355,4.025 1.125,3.656 0.826,3.178 0.826,2.521 0.826,2.161 z"
       id="path74"
       inkscape:connector-curvature="0" />
  </g>
  <g
     transform="translate(48.011,24.16)"
     style="fill:#161413;fill-rule:evenodd;stroke:none"
     id="g76">
    <path
       d="m 1.743,2.53 c 0.219,0.04 1.036,0.2 1.036,0.916 0,0.509 -0.348,0.908 -1.126,0.908 C 0.817,4.354 0.458,3.785 0.269,2.939 0.239,2.81 0.229,2.77 0.129,2.77 0,2.77 0,2.839 0,3.019 c 0,0 0,1.314 0,1.314 0,0.17 0,0.239 0.109,0.239 0.05,0 0.06,-0.009 0.25,-0.199 C 0.378,4.354 0.378,4.333 0.558,4.145 0.996,4.563 1.444,4.572 1.653,4.572 2.799,4.572 3.258,3.905 3.258,3.188 3.258,2.659 2.959,2.36 2.839,2.241 2.51,1.923 2.122,1.843 1.703,1.763 1.146,1.653 0.478,1.524 0.478,0.946 c 0,-0.348 0.259,-0.757 1.116,-0.757 1.096,0 1.145,0.897 1.166,1.206 0.01,0.089 0.099,0.089 0.119,0.089 0.13,0 0.13,-0.049 0.13,-0.239 0,0 0,-1.007 0,-1.007 C 3.009,0.069 3.009,0 2.899,0 2.849,0 2.829,0 2.699,0.119 2.67,0.159 2.57,0.249 2.53,0.278 2.151,0 1.743,0 1.594,0 0.378,0 0,0.667 0,1.225 0,1.574 0.159,1.853 0.428,2.072 0.747,2.331 1.025,2.391 1.743,2.53 z"
       id="path78"
       inkscape:connector-curvature="0" />
  </g>
  <g
     transform="translate(51.871,22.496)"
     style="fill:#161413;fill-rule:evenodd;stroke:none"
     id="g80">
    <path
       d="m 1.535,2.142 c 0,0 1.424,0 1.424,0 0,0 0,-0.309 0,-0.309 0,0 -1.424,0 -1.424,0 0,0 0,-1.833 0,-1.833 0,0 -0.249,0 -0.249,0 C 1.276,0.816 0.977,1.883 0,1.923 c 0,0 0,0.219 0,0.219 0,0 0.847,0 0.847,0 0,0 0,2.75 0,2.75 0,1.225 0.927,1.344 1.285,1.344 0.707,0 0.987,-0.707 0.987,-1.344 0,0 0,-0.569 0,-0.569 0,0 -0.249,0 -0.249,0 0,0 0,0.549 0,0.549 0,0.737 -0.299,1.115 -0.668,1.115 -0.667,0 -0.667,-0.906 -0.667,-1.076 0,0 0,-2.769 0,-2.769 z"
       id="path82"
       inkscape:connector-curvature="0" />
  </g>
  <g
     transform="translate(55.711,24.16)"
     style="fill:#161413;fill-rule:evenodd;stroke:none"
     id="g84">
    <path
       d="m 0.837,1.952 c 0.06,-1.484 0.897,-1.733 1.236,-1.733 1.025,0 1.125,1.345 1.125,1.733 0,0 -2.361,0 -2.361,0 z M 0.826,2.161 c 0,0 2.781,0 2.781,0 0.218,0 0.249,0 0.249,-0.209 C 3.856,0.966 3.318,0 2.073,0 0.916,0 0,1.025 0,2.272 c 0,1.335 1.046,2.3 2.192,2.3 1.216,0 1.664,-1.105 1.664,-1.295 0,-0.099 -0.08,-0.119 -0.13,-0.119 -0.09,0 -0.109,0.06 -0.13,0.139 C 3.247,4.323 2.351,4.323 2.251,4.323 1.753,4.323 1.355,4.025 1.125,3.656 0.826,3.178 0.826,2.521 0.826,2.161 z"
       id="path86"
       inkscape:connector-curvature="0" />
  </g>
  <g
     transform="translate(60.271,21.709)"
     style="fill:#161413;fill-rule:evenodd;stroke:none"
     id="g88">
    <path
       d="m 3.447,6.366 c 0,0 0,0.657 0,0.657 0,0 1.464,-0.109 1.464,-0.109 0,0 0,-0.309 0,-0.309 -0.697,0 -0.776,-0.07 -0.776,-0.558 0,0 0,-6.047 0,-6.047 0,0 -1.435,0.109 -1.435,0.109 0,0 0,0.309 0,0.309 0.697,0 0.776,0.07 0.776,0.558 0,0 0,2.152 0,2.152 C 3.187,2.769 2.76,2.511 2.222,2.511 1.046,2.511 0,3.487 0,4.772 0,6.037 0.976,7.023 2.112,7.023 2.75,7.023 3.198,6.685 3.447,6.366 z m 0,-2.67 c 0,0 0,2.042 0,2.042 0,0.18 0,0.199 -0.11,0.369 C 3.038,6.585 2.59,6.805 2.162,6.805 1.714,6.805 1.354,6.546 1.115,6.167 0.856,5.759 0.827,5.19 0.827,4.782 0.827,4.413 0.847,3.815 1.136,3.367 1.345,3.059 1.723,2.729 2.262,2.729 c 0.348,0 0.766,0.15 1.075,0.598 0.11,0.17 0.11,0.19 0.11,0.369 z"
       id="path90"
       inkscape:connector-curvature="0" />
  </g>
  <g
     transform="translate(69.011,21.958)"
     style="fill:#161413;fill-rule:evenodd;stroke:none"
     id="g92">
    <path
       d="m 1.435,2.262 c 0,0 -1.396,0.109 -1.396,0.109 0,0 0,0.309 0,0.309 0.649,0 0.737,0.06 0.737,0.547 0,0 0,2.681 0,2.681 0,0.448 -0.109,0.448 -0.776,0.448 0,0 0,0.309 0,0.309 0,0 2.132,0 2.132,0 0,0 0,-0.309 0,-0.309 -0.657,0 -0.697,-0.049 -0.697,-0.438 0,0 0,-3.656 0,-3.656 z M 1.475,0.528 C 1.475,0.209 1.225,0 0.946,0 0.638,0 0.418,0.269 0.418,0.528 c 0,0.269 0.22,0.528 0.528,0.528 0.279,0 0.529,-0.209 0.529,-0.528 z"
       id="path94"
       inkscape:connector-curvature="0" />
  </g>
  <g
     transform="translate(71.621,22.496)"
     style="fill:#161413;fill-rule:evenodd;stroke:none"
     id="g96">
    <path
       d="m 1.535,2.142 c 0,0 1.424,0 1.424,0 0,0 0,-0.309 0,-0.309 0,0 -1.424,0 -1.424,0 0,0 0,-1.833 0,-1.833 0,0 -0.249,0 -0.249,0 C 1.276,0.816 0.977,1.883 0,1.923 c 0,0 0,0.219 0,0.219 0,0 0.847,0 0.847,0 0,0 0,2.75 0,2.75 0,1.225 0.927,1.344 1.285,1.344 0.707,0 0.987,-0.707 0.987,-1.344 0,0 0,-0.569 0,-0.569 0,0 -0.249,0 -0.249,0 0,0 0,0.549 0,0.549 0,0.737 -0.299,1.115 -0.668,1.115 -0.667,0 -0.667,-0.906 -0.667,-1.076 0,0 0,-2.769 0,-2.769 z"
       id="path98"
       inkscape:connector-curvature="0" />
  </g>
  <g
     transform="translate(75.711,24.16)"
     style="fill:#161413;fill-rule:evenodd;stroke:none"
     id="g100">
    <path
       d="m 0.837,1.952 c 0.06,-1.484 0.897,-1.733 1.236,-1.733 1.025,0 1.125,1.345 1.125,1.733 0,0 -2.361,0 -2.361,0 z M 0.826,2.161 c 0,0 2.781,0 2.781,0 0.218,0 0.249,0 0.249,-0.209 C 3.856,0.966 3.318,0 2.073,0 0.916,0 0,1.025 0,2.272 c 0,1.335 1.046,2.3 2.192,2.3 1.216,0 1.664,-1.105 1.664,-1.295 0,-0.099 -0.08,-0.119 -0.13,-0.119 -0.09,0 -0.109,0.06 -0.13,0.139 C 3.247,4.323 2.351,4.323 2.251,4.323 1.753,4.323 1.355,4.025 1.125,3.656 0.826,3.178 0.826,2.521 0.826,2.161 z"
       id="path102"
       inkscape:connector-curvature="0" />
  </g>
  <g
     transform="translate(80.25,24.22)"
     style="fill:#161413;fill-rule:evenodd;stroke:none"
     id="g104">
    <path
       d="m 0.778,0.976 c 0,0 0,2.67 0,2.67 0,0.448 -0.11,0.448 -0.778,0.448 0,0 0,0.309 0,0.309 0,0 2.243,0 2.243,0 0,0 0,-0.309 0,-0.309 -0.668,0 -0.778,0 -0.778,-0.448 0,0 0,-1.833 0,-1.833 0,-1.036 0.707,-1.595 1.345,-1.595 0.628,0 0.737,0.539 0.737,1.107 0,0 0,2.321 0,2.321 0,0.448 -0.109,0.448 -0.776,0.448 0,0 0,0.309 0,0.309 0,0 2.241,0 2.241,0 0,0 0,-0.309 0,-0.309 -0.668,0 -0.777,0 -0.777,-0.448 0,0 0,-1.833 0,-1.833 0,-1.036 0.708,-1.595 1.344,-1.595 0.628,0 0.738,0.539 0.738,1.107 0,0 0,2.321 0,2.321 0,0.448 -0.11,0.448 -0.777,0.448 0,0 0,0.309 0,0.309 0,0 2.242,0 2.242,0 0,0 0,-0.309 0,-0.309 -0.518,0 -0.768,0 -0.778,-0.298 0,0 0,-1.904 0,-1.904 0,-0.856 0,-1.165 -0.308,-1.524 C 6.556,0.199 6.228,0 5.65,0 4.813,0 4.374,0.597 4.205,0.976 4.066,0.109 3.328,0 2.88,0 2.153,0 1.685,0.428 1.406,1.046 c 0,0 0,-1.046 0,-1.046 C 1.406,0 0,0.109 0,0.109 c 0,0 0,0.309 0,0.309 0.699,0 0.778,0.07 0.778,0.558 z"
       id="path106"
       inkscape:connector-curvature="0" />
  </g>
  <g
     transform="translate(92.319,21.988)"
     style="fill:#161413;fill-rule:evenodd;stroke:none"
     id="g108">
    <path
       d="M 2.042,0.259 C 2.042,0.02 2.042,0 1.813,0 1.195,0.638 0.318,0.638 0,0.638 c 0,0 0,0.309 0,0.309 0.199,0 0.787,0 1.304,-0.259 0,0 0,5.16 0,5.16 0,0.358 -0.029,0.478 -0.925,0.478 0,0 -0.32,0 -0.32,0 0,0 0,0.309 0,0.309 0,0 3.229,0 3.229,0 0,0 0,-0.309 0,-0.309 0,0 -0.32,0 -0.32,0 -0.896,0 -0.926,-0.109 -0.926,-0.478 0,0 0,-5.589 0,-5.589 z"
       id="path110"
       inkscape:connector-curvature="0" />
  </g>
  <g
     transform="translate(18.418,37.151)"
     style="fill:#161413;fill-rule:evenodd;stroke:none"
     id="g112">
    <path
       d="m 2.312,9.863 c 0,-0.03 0,-0.05 -0.17,-0.219 C 0.897,8.389 0.578,6.505 0.578,4.982 0.578,3.247 0.956,1.514 2.182,0.269 2.312,0.15 2.312,0.129 2.312,0.1 2.312,0.03 2.272,0 2.212,0 2.113,0 1.216,0.677 0.628,1.943 0.119,3.038 0,4.145 0,4.982 0,5.758 0.11,6.964 0.658,8.09 c 0.597,1.225 1.455,1.872 1.554,1.872 0.06,0 0.1,-0.029 0.1,-0.099 z"
       id="path114"
       inkscape:connector-curvature="0" />
  </g>
  <g
     transform="translate(21.711,37.709)"
     style="fill:#161413;fill-rule:evenodd;stroke:none"
     id="g116">
    <path
       d="m 1.435,3.158 c 0,0 0,-3.158 0,-3.158 C 1.435,0 0,0.109 0,0.109 c 0,0 0,0.309 0,0.309 0.698,0 0.777,0.07 0.777,0.558 0,0 0,5.938 0,5.938 0,0 0.249,0 0.249,0 0.01,-0.01 0.09,-0.149 0.359,-0.618 0.149,0.229 0.567,0.727 1.305,0.727 1.185,0 2.221,-0.976 2.221,-2.261 0,-1.265 -0.976,-2.251 -2.112,-2.251 -0.776,0 -1.205,0.467 -1.364,0.647 z m 0.029,2.62 c 0,0 0,-2.052 0,-2.052 0,-0.189 0,-0.2 0.111,-0.359 C 1.962,2.81 2.51,2.729 2.749,2.729 c 0.449,0 0.808,0.26 1.047,0.638 0.259,0.408 0.288,0.977 0.288,1.385 0,0.369 -0.019,0.967 -0.308,1.415 C 3.567,6.476 3.188,6.805 2.65,6.805 2.201,6.805 1.843,6.565 1.604,6.196 1.464,5.987 1.464,5.958 1.464,5.778 z"
       id="path118"
       inkscape:connector-curvature="0" />
  </g>
  <g
     transform="translate(27.5,37.151)"
     style="fill:#161413;fill-rule:evenodd;stroke:none"
     id="g120">
    <path
       d="M 2.311,4.982 C 2.311,4.204 2.202,2.998 1.654,1.873 1.056,0.648 0.2,0 0.1,0 0.039,0 0,0.04 0,0.1 0,0.129 0,0.15 0.189,0.328 1.165,1.315 1.734,2.899 1.734,4.982 1.734,6.685 1.365,8.439 0.129,9.694 0,9.813 0,9.833 0,9.863 0,9.923 0.039,9.962 0.1,9.962 0.2,9.962 1.096,9.285 1.684,8.02 2.192,6.924 2.311,5.819 2.311,4.982 z"
       id="path122"
       inkscape:connector-curvature="0" />
  </g>
  <g
     transform="translate(36.011,37.818)"
     style="fill:#161413;fill-rule:evenodd;stroke:none"
     id="g124">
    <path
       d="M 1.983,0.13 C 1.893,0.01 1.883,0 1.693,0 1.693,0 0,0 0,0 c 0,0 0,0.309 0,0.309 0,0 0.289,0 0.289,0 0.15,0 0.349,0.011 0.498,0.02 0.229,0.03 0.238,0.04 0.238,0.23 0,0 0,5.2 0,5.2 0,0.269 0,0.737 -1.025,0.737 0,0 0,0.309 0,0.309 0,0 2.331,0 2.331,0 0,0 0,-0.309 0,-0.309 -1.026,0 -1.026,-0.468 -1.026,-0.737 0,0 0,-5.181 0,-5.181 0.05,0.05 0.059,0.06 0.099,0.12 0,0 4.065,5.977 4.065,5.977 0.09,0.12 0.099,0.13 0.17,0.13 0.139,0 0.139,-0.069 0.139,-0.259 0,0 0,-5.5 0,-5.5 0,-0.268 0,-0.737 1.026,-0.737 0,0 0,-0.309 0,-0.309 0,0 -2.331,0 -2.331,0 0,0 0,0.309 0,0.309 1.026,0 1.026,0.469 1.026,0.737 0,0 0,4.255 0,4.255 0,0 -3.516,-5.171 -3.516,-5.171 z"
       id="path126"
       inkscape:connector-curvature="0" />
  </g>
  <g
     transform="translate(43.461,40.16)"
     style="fill:#161413;fill-rule:evenodd;stroke:none"
     id="g128">
    <path
       d="m 0.837,1.952 c 0.06,-1.484 0.897,-1.733 1.236,-1.733 1.025,0 1.125,1.345 1.125,1.733 0,0 -2.361,0 -2.361,0 z M 0.826,2.161 c 0,0 2.781,0 2.781,0 0.218,0 0.249,0 0.249,-0.209 C 3.856,0.966 3.318,0 2.073,0 0.916,0 0,1.025 0,2.272 c 0,1.335 1.046,2.3 2.192,2.3 1.216,0 1.664,-1.105 1.664,-1.295 0,-0.099 -0.08,-0.119 -0.13,-0.119 -0.09,0 -0.109,0.06 -0.13,0.139 C 3.247,4.323 2.351,4.323 2.251,4.323 1.753,4.323 1.355,4.025 1.125,3.656 0.826,3.178 0.826,2.521 0.826,2.161 z"
       id="path130"
       inkscape:connector-curvature="0" />
  </g>
  <g
     transform="translate(48.011,40.16)"
     style="fill:#161413;fill-rule:evenodd;stroke:none"
     id="g132">
    <path
       d="m 1.743,2.53 c 0.219,0.04 1.036,0.2 1.036,0.916 0,0.509 -0.348,0.908 -1.126,0.908 C 0.817,4.354 0.458,3.785 0.269,2.939 0.239,2.81 0.229,2.77 0.129,2.77 0,2.77 0,2.839 0,3.019 c 0,0 0,1.314 0,1.314 0,0.17 0,0.239 0.109,0.239 0.05,0 0.06,-0.009 0.25,-0.199 C 0.378,4.354 0.378,4.333 0.558,4.145 0.996,4.563 1.444,4.572 1.653,4.572 2.799,4.572 3.258,3.905 3.258,3.188 3.258,2.659 2.959,2.36 2.839,2.241 2.51,1.923 2.122,1.843 1.703,1.763 1.146,1.653 0.478,1.524 0.478,0.946 c 0,-0.348 0.259,-0.757 1.116,-0.757 1.096,0 1.145,0.897 1.166,1.206 0.01,0.089 0.099,0.089 0.119,0.089 0.13,0 0.13,-0.049 0.13,-0.239 0,0 0,-1.007 0,-1.007 C 3.009,0.069 3.009,0 2.899,0 2.849,0 2.829,0 2.699,0.119 2.67,0.159 2.57,0.249 2.53,0.278 2.151,0 1.743,0 1.594,0 0.378,0 0,0.667 0,1.225 0,1.574 0.159,1.853 0.428,2.072 0.747,2.331 1.025,2.391 1.743,2.53 z"
       id="path134"
       inkscape:connector-curvature="0" />
  </g>
  <g
     transform="translate(51.871,38.496)"
     style="fill:#161413;fill-rule:evenodd;stroke:none"
     id="g136">
    <path
       d="m 1.535,2.142 c 0,0 1.424,0 1.424,0 0,0 0,-0.309 0,-0.309 0,0 -1.424,0 -1.424,0 0,0 0,-1.833 0,-1.833 0,0 -0.249,0 -0.249,0 C 1.276,0.816 0.977,1.883 0,1.923 c 0,0 0,0.219 0,0.219 0,0 0.847,0 0.847,0 0,0 0,2.75 0,2.75 0,1.225 0.927,1.344 1.285,1.344 0.707,0 0.987,-0.707 0.987,-1.344 0,0 0,-0.569 0,-0.569 0,0 -0.249,0 -0.249,0 0,0 0,0.549 0,0.549 0,0.737 -0.299,1.115 -0.668,1.115 -0.667,0 -0.667,-0.906 -0.667,-1.076 0,0 0,-2.769 0,-2.769 z"
       id="path138"
       inkscape:connector-curvature="0" />
  </g>
  <g
     transform="translate(55.711,40.16)"
     style="fill:#161413;fill-rule:evenodd;stroke:none"
     id="g140">
    <path
       d="m 0.837,1.952 c 0.06,-1.484 0.897,-1.733 1.236,-1.733 1.025,0 1.125,1.345 1.125,1.733 0,0 -2.361,0 -2.361,0 z M 0.826,2.161 c 0,0 2.781,0 2.781,0 0.218,0 0.249,0 0.249,-0.209 C 3.856,0.966 3.318,0 2.073,0 0.916,0 0,1.025 0,2.272 c 0,1.335 1.046,2.3 2.192,2.3 1.216,0 1.664,-1.105 1.664,-1.295 0,-0.099 -0.08,-0.119 -0.13,-0.119 -0.09,0 -0.109,0.06 -0.13,0.139 C 3.247,4.323 2.351,4.323 2.251,4.323 1.753,4.323 1.355,4.025 1.125,3.656 0.826,3.178 0.826,2.521 0.826,2.161 z"
       id="path142"
       inkscape:connector-curvature="0" />
  </g>
  <g
     transform="translate(60.271,37.709)"
     style="fill:#161413;fill-rule:evenodd;stroke:none"
     id="g144">
    <path
       d="m 3.447,6.366 c 0,0 0,0.657 0,0.657 0,0 1.464,-0.109 1.464,-0.109 0,0 0,-0.309 0,-0.309 -0.697,0 -0.776,-0.07 -0.776,-0.558 0,0 0,-6.047 0,-6.047 0,0 -1.435,0.109 -1.435,0.109 0,0 0,0.309 0,0.309 0.697,0 0.776,0.07 0.776,0.558 0,0 0,2.152 0,2.152 C 3.187,2.769 2.76,2.511 2.222,2.511 1.046,2.511 0,3.487 0,4.772 0,6.037 0.976,7.023 2.112,7.023 2.75,7.023 3.198,6.685 3.447,6.366 z m 0,-2.67 c 0,0 0,2.042 0,2.042 0,0.18 0,0.199 -0.11,0.369 C 3.038,6.585 2.59,6.805 2.162,6.805 1.714,6.805 1.354,6.546 1.115,6.167 0.856,5.759 0.827,5.19 0.827,4.782 0.827,4.413 0.847,3.815 1.136,3.367 1.345,3.059 1.723,2.729 2.262,2.729 c 0.348,0 0.766,0.15 1.075,0.598 0.11,0.17 0.11,0.19 0.11,0.369 z"
       id="path146"
       inkscape:connector-curvature="0" />
  </g>
  <g
     transform="translate(69.011,37.958)"
     style="fill:#161413;fill-rule:evenodd;stroke:none"
     id="g148">
    <path
       d="m 1.435,2.262 c 0,0 -1.396,0.109 -1.396,0.109 0,0 0,0.309 0,0.309 0.649,0 0.737,0.06 0.737,0.547 0,0 0,2.681 0,2.681 0,0.448 -0.109,0.448 -0.776,0.448 0,0 0,0.309 0,0.309 0,0 2.132,0 2.132,0 0,0 0,-0.309 0,-0.309 -0.657,0 -0.697,-0.049 -0.697,-0.438 0,0 0,-3.656 0,-3.656 z M 1.475,0.528 C 1.475,0.209 1.225,0 0.946,0 0.638,0 0.418,0.269 0.418,0.528 c 0,0.269 0.22,0.528 0.528,0.528 0.279,0 0.529,-0.209 0.529,-0.528 z"
       id="path150"
       inkscape:connector-curvature="0" />
  </g>
  <g
     transform="translate(71.621,38.496)"
     style="fill:#161413;fill-rule:evenodd;stroke:none"
     id="g152">
    <path
       d="m 1.535,2.142 c 0,0 1.424,0 1.424,0 0,0 0,-0.309 0,-0.309 0,0 -1.424,0 -1.424,0 0,0 0,-1.833 0,-1.833 0,0 -0.249,0 -0.249,0 C 1.276,0.816 0.977,1.883 0,1.923 c 0,0 0,0.219 0,0.219 0,0 0.847,0 0.847,0 0,0 0,2.75 0,2.75 0,1.225 0.927,1.344 1.285,1.344 0.707,0 0.987,-0.707 0.987,-1.344 0,0 0,-0.569 0,-0.569 0,0 -0.249,0 -0.249,0 0,0 0,0.549 0,0.549 0,0.737 -0.299,1.115 -0.668,1.115 -0.667,0 -0.667,-0.906 -0.667,-1.076 0,0 0,-2.769 0,-2.769 z"
       id="path154"
       inkscape:connector-curvature="0" />
  </g>
  <g
     transform="translate(75.711,40.16)"
     style="fill:#161413;fill-rule:evenodd;stroke:none"
     id="g156">
    <path
       d="m 0.837,1.952 c 0.06,-1.484 0.897,-1.733 1.236,-1.733 1.025,0 1.125,1.345 1.125,1.733 0,0 -2.361,0 -2.361,0 z M 0.826,2.161 c 0,0 2.781,0 2.781,0 0.218,0 0.249,0 0.249,-0.209 C 3.856,0.966 3.318,0 2.073,0 0.916,0 0,1.025 0,2.272 c 0,1.335 1.046,2.3 2.192,2.3 1.216,0 1.664,-1.105 1.664,-1.295 0,-0.099 -0.08,-0.119 -0.13,-0.119 -0.09,0 -0.109,0.06 -0.13,0.139 C 3.247,4.323 2.351,4.323 2.251,4.323 1.753,4.323 1.355,4.025 1.125,3.656 0.826,3.178 0.826,2.521 0.826,2.161 z"
       id="path158"
       inkscape:connector-curvature="0" />
  </g>
  <g
     transform="translate(80.25,40.22)"
     style="fill:#161413;fill-rule:evenodd;stroke:none"
     id="g160">
    <path
       d="m 0.778,0.976 c 0,0 0,2.67 0,2.67 0,0.448 -0.11,0.448 -0.778,0.448 0,0 0,0.309 0,0.309 0,0 2.243,0 2.243,0 0,0 0,-0.309 0,-0.309 -0.668,0 -0.778,0 -0.778,-0.448 0,0 0,-1.833 0,-1.833 0,-1.036 0.707,-1.595 1.345,-1.595 0.628,0 0.737,0.539 0.737,1.107 0,0 0,2.321 0,2.321 0,0.448 -0.109,0.448 -0.776,0.448 0,0 0,0.309 0,0.309 0,0 2.241,0 2.241,0 0,0 0,-0.309 0,-0.309 -0.668,0 -0.777,0 -0.777,-0.448 0,0 0,-1.833 0,-1.833 0,-1.036 0.708,-1.595 1.344,-1.595 0.628,0 0.738,0.539 0.738,1.107 0,0 0,2.321 0,2.321 0,0.448 -0.11,0.448 -0.777,0.448 0,0 0,0.309 0,0.309 0,0 2.242,0 2.242,0 0,0 0,-0.309 0,-0.309 -0.518,0 -0.768,0 -0.778,-0.298 0,0 0,-1.904 0,-1.904 0,-0.856 0,-1.165 -0.308,-1.524 C 6.556,0.199 6.228,0 5.65,0 4.813,0 4.374,0.597 4.205,0.976 4.066,0.109 3.328,0 2.88,0 2.153,0 1.685,0.428 1.406,1.046 c 0,0 0,-1.046 0,-1.046 C 1.406,0 0,0.109 0,0.109 c 0,0 0,0.309 0,0.309 0.699,0 0.778,0.07 0.778,0.558 z"
       id="path162"
       inkscape:connector-curvature="0" />
  </g>
  <g
     transform="translate(91.93,37.988)"
     style="fill:#161413;fill-rule:evenodd;stroke:none"
     id="g164">
    <path
       d="m 0.768,5.867 c 0,0 1.055,-1.025 1.055,-1.025 C 3.377,3.467 3.976,2.929 3.976,1.933 3.976,0.797 3.078,0 1.863,0 0.737,0 0,0.916 0,1.803 c 0,0.558 0.498,0.558 0.528,0.558 0.169,0 0.518,-0.12 0.518,-0.528 0,-0.259 -0.179,-0.518 -0.527,-0.518 -0.08,0 -0.1,0 -0.13,0.009 0.229,-0.647 0.766,-1.015 1.344,-1.015 0.908,0 1.335,0.806 1.335,1.624 0,0.797 -0.498,1.584 -1.045,2.201 0,0 -1.914,2.133 -1.914,2.133 C 0,6.376 0,6.396 0,6.635 c 0,0 3.696,0 3.696,0 0,0 0.28,-1.733 0.28,-1.733 0,0 -0.249,0 -0.249,0 C 3.677,5.2 3.606,5.639 3.507,5.788 3.438,5.867 2.779,5.867 2.561,5.867 c 0,0 -1.793,0 -1.793,0 z"
       id="path166"
       inkscape:connector-curvature="0" />
  </g>
  <g
     transform="translate(1.68,57.738)"
     style="fill:#161413;fill-rule:evenodd;stroke:none"
     id="g168">
    <path
       d="m 0.768,5.867 c 0,0 1.055,-1.025 1.055,-1.025 C 3.377,3.467 3.976,2.929 3.976,1.933 3.976,0.797 3.078,0 1.863,0 0.737,0 0,0.916 0,1.803 c 0,0.558 0.498,0.558 0.528,0.558 0.169,0 0.518,-0.12 0.518,-0.528 0,-0.259 -0.179,-0.518 -0.527,-0.518 -0.08,0 -0.1,0 -0.13,0.009 0.229,-0.647 0.766,-1.015 1.344,-1.015 0.908,0 1.335,0.806 1.335,1.624 0,0.797 -0.498,1.584 -1.045,2.201 0,0 -1.914,2.133 -1.914,2.133 C 0,6.376 0,6.396 0,6.635 c 0,0 3.696,0 3.696,0 0,0 0.28,-1.733 0.28,-1.733 0,0 -0.249,0 -0.249,0 C 3.677,5.2 3.606,5.639 3.507,5.788 3.438,5.867 2.779,5.867 2.561,5.867 c 0,0 -1.793,0 -1.793,0 z"
       id="path170"
       inkscape:connector-curvature="0" />
  </g>
  <g
     transform="translate(7.038,63.317)"
     style="fill:#161413;fill-rule:evenodd;stroke:none"
     id="g172">
    <path
       d="M 1.057,0.528 C 1.057,0.239 0.818,0 0.529,0 0.24,0 0,0.239 0,0.528 c 0,0.289 0.24,0.528 0.529,0.528 0.289,0 0.528,-0.239 0.528,-0.528 z"
       id="path174"
       inkscape:connector-curvature="0" />
  </g>
  <g
     transform="translate(14.29,57.628)"
     style="fill:#161413;fill-rule:evenodd;stroke:none"
     id="g176">
    <path
       d="M 6.277,0 C 6.277,0 0.19,0 0.19,0 0.19,0 0,2.242 0,2.242 c 0,0 0.249,0 0.249,0 0.14,-1.604 0.289,-1.933 1.794,-1.933 0.179,0 0.438,0 0.538,0.02 0.209,0.04 0.209,0.149 0.209,0.379 0,0 0,5.25 0,5.25 0,0.339 0,0.478 -1.045,0.478 0,0 -0.4,0 -0.4,0 0,0 0,0.309 0,0.309 0,0 3.776,0 3.776,0 0,0 0,-0.309 0,-0.309 0,0 -0.398,0 -0.398,0 -1.046,0 -1.046,-0.139 -1.046,-0.478 0,0 0,-5.25 0,-5.25 0,-0.199 0,-0.339 0.179,-0.379 0.11,-0.02 0.379,-0.02 0.568,-0.02 1.504,0 1.654,0.329 1.793,1.933 0,0 0.249,0 0.249,0 C 6.466,2.242 6.277,0 6.277,0 z"
       id="path178"
       inkscape:connector-curvature="0" />
  </g>
  <g
     transform="translate(21.25,57.459)"
     style="fill:#161413;fill-rule:evenodd;stroke:none"
     id="g180">
    <path
       d="m 0.778,6.157 c 0,0.448 -0.11,0.448 -0.778,0.448 0,0 0,0.309 0,0.309 0,0 2.243,0 2.243,0 0,0 0,-0.309 0,-0.309 -0.668,0 -0.778,0 -0.778,-0.448 0,0 0,-1.833 0,-1.833 0,-1.036 0.707,-1.595 1.345,-1.595 0.628,0 0.737,0.539 0.737,1.107 0,0 0,2.321 0,2.321 0,0.448 -0.109,0.448 -0.776,0.448 0,0 0,0.309 0,0.309 0,0 2.241,0 2.241,0 0,0 0,-0.309 0,-0.309 -0.518,0 -0.768,0 -0.777,-0.298 0,0 0,-1.904 0,-1.904 0,-0.856 0,-1.165 -0.309,-1.524 C 3.786,2.71 3.457,2.511 2.88,2.511 c -0.837,0 -1.275,0.597 -1.444,0.976 0,0 0,-3.487 0,-3.487 C 1.436,0 0,0.109 0,0.109 c 0,0 0,0.309 0,0.309 0.699,0 0.778,0.07 0.778,0.558 0,0 0,5.181 0,5.181 z"
       id="path182"
       inkscape:connector-curvature="0" />
  </g>
  <g
     transform="translate(26.711,59.91)"
     style="fill:#161413;fill-rule:evenodd;stroke:none"
     id="g184">
    <path
       d="m 0.837,1.952 c 0.06,-1.484 0.897,-1.733 1.236,-1.733 1.025,0 1.125,1.345 1.125,1.733 0,0 -2.361,0 -2.361,0 z M 0.826,2.161 c 0,0 2.781,0 2.781,0 0.218,0 0.249,0 0.249,-0.209 C 3.856,0.966 3.318,0 2.073,0 0.916,0 0,1.025 0,2.272 c 0,1.335 1.046,2.3 2.192,2.3 1.216,0 1.664,-1.105 1.664,-1.295 0,-0.099 -0.08,-0.119 -0.13,-0.119 -0.09,0 -0.109,0.06 -0.13,0.139 C 3.247,4.323 2.351,4.323 2.251,4.323 1.753,4.323 1.355,4.025 1.125,3.656 0.826,3.178 0.826,2.521 0.826,2.161 z"
       id="path186"
       inkscape:connector-curvature="0" />
  </g>
  <g
     transform="translate(34.761,59.91)"
     style="fill:#161413;fill-rule:evenodd;stroke:none"
     id="g188">
    <path
       d="m 1.743,2.53 c 0.219,0.04 1.036,0.2 1.036,0.916 0,0.509 -0.348,0.908 -1.126,0.908 C 0.817,4.354 0.458,3.785 0.269,2.939 0.239,2.81 0.229,2.77 0.129,2.77 0,2.77 0,2.839 0,3.019 c 0,0 0,1.314 0,1.314 0,0.17 0,0.239 0.109,0.239 0.05,0 0.06,-0.009 0.25,-0.199 C 0.378,4.354 0.378,4.333 0.558,4.145 0.996,4.563 1.444,4.572 1.653,4.572 2.799,4.572 3.258,3.905 3.258,3.188 3.258,2.659 2.959,2.36 2.839,2.241 2.51,1.923 2.122,1.843 1.703,1.763 1.146,1.653 0.478,1.524 0.478,0.946 c 0,-0.348 0.259,-0.757 1.116,-0.757 1.096,0 1.145,0.897 1.166,1.206 0.01,0.089 0.099,0.089 0.119,0.089 0.13,0 0.13,-0.049 0.13,-0.239 0,0 0,-1.007 0,-1.007 C 3.009,0.069 3.009,0 2.899,0 2.849,0 2.829,0 2.699,0.119 2.67,0.159 2.57,0.249 2.53,0.278 2.151,0 1.743,0 1.594,0 0.378,0 0,0.667 0,1.225 0,1.574 0.159,1.853 0.428,2.072 0.747,2.331 1.025,2.391 1.743,2.53 z"
       id="path190"
       inkscape:connector-curvature="0" />
  </g>
  <g
     transform="translate(38.461,59.91)"
     style="fill:#161413;fill-rule:evenodd;stroke:none"
     id="g192">
    <path
       d="m 0.837,1.952 c 0.06,-1.484 0.897,-1.733 1.236,-1.733 1.025,0 1.125,1.345 1.125,1.733 0,0 -2.361,0 -2.361,0 z M 0.826,2.161 c 0,0 2.781,0 2.781,0 0.218,0 0.249,0 0.249,-0.209 C 3.856,0.966 3.318,0 2.073,0 0.916,0 0,1.025 0,2.272 c 0,1.335 1.046,2.3 2.192,2.3 1.216,0 1.664,-1.105 1.664,-1.295 0,-0.099 -0.08,-0.119 -0.13,-0.119 -0.09,0 -0.109,0.06 -0.13,0.139 C 3.247,4.323 2.351,4.323 2.251,4.323 1.753,4.323 1.355,4.025 1.125,3.656 0.826,3.178 0.826,2.521 0.826,2.161 z"
       id="path194"
       inkscape:connector-curvature="0" />
  </g>
  <g
     transform="translate(43.021,59.91)"
     style="fill:#161413;fill-rule:evenodd;stroke:none"
     id="g196">
    <path
       d="m 0.827,2.291 c 0,-1.624 0.816,-2.042 1.345,-2.042 0.09,0 0.717,0.01 1.065,0.368 -0.408,0.031 -0.468,0.329 -0.468,0.458 0,0.26 0.18,0.459 0.458,0.459 0.259,0 0.459,-0.17 0.459,-0.468 C 3.686,0.388 2.929,0 2.162,0 0.916,0 0,1.075 0,2.311 c 0,1.275 0.986,2.261 2.141,2.261 1.335,0 1.655,-1.195 1.655,-1.295 0,-0.099 -0.1,-0.099 -0.13,-0.099 -0.09,0 -0.109,0.04 -0.13,0.099 C 3.248,4.204 2.6,4.323 2.231,4.323 1.703,4.323 0.827,3.896 0.827,2.291 z"
       id="path198"
       inkscape:connector-curvature="0" />
  </g>
  <g
     transform="translate(47.461,59.91)"
     style="fill:#161413;fill-rule:evenodd;stroke:none"
     id="g200">
    <path
       d="M 4.413,2.331 C 4.413,1.056 3.417,0 2.211,0 0.966,0 0,1.086 0,2.331 0,3.616 1.036,4.572 2.201,4.572 3.408,4.572 4.413,3.596 4.413,2.331 z M 2.211,4.323 C 1.783,4.323 1.345,4.114 1.075,3.656 0.826,3.218 0.826,2.609 0.826,2.251 c 0,-0.389 0,-0.927 0.24,-1.364 0.269,-0.459 0.737,-0.668 1.135,-0.668 0.439,0 0.868,0.22 1.126,0.647 0.259,0.429 0.259,1.007 0.259,1.385 0,0.358 0,0.897 -0.219,1.335 C 3.148,4.034 2.71,4.323 2.211,4.323 z"
       id="path202"
       inkscape:connector-curvature="0" />
  </g>
  <g
     transform="translate(52.5,59.97)"
     style="fill:#161413;fill-rule:evenodd;stroke:none"
     id="g204">
    <path
       d="m 0.778,0.976 c 0,0 0,2.67 0,2.67 0,0.448 -0.11,0.448 -0.778,0.448 0,0 0,0.309 0,0.309 0,0 2.243,0 2.243,0 0,0 0,-0.309 0,-0.309 -0.668,0 -0.778,0 -0.778,-0.448 0,0 0,-1.833 0,-1.833 0,-1.036 0.707,-1.595 1.345,-1.595 0.628,0 0.737,0.539 0.737,1.107 0,0 0,2.321 0,2.321 0,0.448 -0.109,0.448 -0.776,0.448 0,0 0,0.309 0,0.309 0,0 2.241,0 2.241,0 0,0 0,-0.309 0,-0.309 -0.518,0 -0.768,0 -0.777,-0.298 0,0 0,-1.904 0,-1.904 0,-0.856 0,-1.165 -0.309,-1.524 C 3.786,0.199 3.457,0 2.88,0 2.153,0 1.685,0.428 1.406,1.046 c 0,0 0,-1.046 0,-1.046 C 1.406,0 0,0.109 0,0.109 c 0,0 0,0.309 0,0.309 0.699,0 0.778,0.07 0.778,0.558 z"
       id="path206"
       inkscape:connector-curvature="0" />
  </g>
  <g
     transform="translate(58.021,57.459)"
     style="fill:#161413;fill-rule:evenodd;stroke:none"
     id="g208">
    <path
       d="m 3.447,6.366 c 0,0 0,0.657 0,0.657 0,0 1.464,-0.109 1.464,-0.109 0,0 0,-0.309 0,-0.309 -0.697,0 -0.776,-0.07 -0.776,-0.558 0,0 0,-6.047 0,-6.047 0,0 -1.435,0.109 -1.435,0.109 0,0 0,0.309 0,0.309 0.697,0 0.776,0.07 0.776,0.558 0,0 0,2.152 0,2.152 C 3.187,2.769 2.76,2.511 2.222,2.511 1.046,2.511 0,3.487 0,4.772 0,6.037 0.976,7.023 2.112,7.023 2.75,7.023 3.198,6.685 3.447,6.366 z m 0,-2.67 c 0,0 0,2.042 0,2.042 0,0.18 0,0.199 -0.11,0.369 C 3.038,6.585 2.59,6.805 2.162,6.805 1.714,6.805 1.354,6.546 1.115,6.167 0.856,5.759 0.827,5.19 0.827,4.782 0.827,4.413 0.847,3.815 1.136,3.367 1.345,3.059 1.723,2.729 2.262,2.729 c 0.348,0 0.766,0.15 1.075,0.598 0.11,0.17 0.11,0.19 0.11,0.369 z"
       id="path210"
       inkscape:connector-curvature="0" />
  </g>
  <g
     transform="translate(66.761,57.708)"
     style="fill:#161413;fill-rule:evenodd;stroke:none"
     id="g212">
    <path
       d="m 1.435,2.262 c 0,0 -1.396,0.109 -1.396,0.109 0,0 0,0.309 0,0.309 0.649,0 0.737,0.06 0.737,0.547 0,0 0,2.681 0,2.681 0,0.448 -0.109,0.448 -0.776,0.448 0,0 0,0.309 0,0.309 0,0 2.132,0 2.132,0 0,0 0,-0.309 0,-0.309 -0.657,0 -0.697,-0.049 -0.697,-0.438 0,0 0,-3.656 0,-3.656 z M 1.475,0.528 C 1.475,0.209 1.225,0 0.946,0 0.638,0 0.418,0.269 0.418,0.528 c 0,0.269 0.22,0.528 0.528,0.528 0.279,0 0.529,-0.209 0.529,-0.528 z"
       id="path214"
       inkscape:connector-curvature="0" />
  </g>
  <g
     transform="translate(69.371,58.246)"
     style="fill:#161413;fill-rule:evenodd;stroke:none"
     id="g216">
    <path
       d="m 1.535,2.142 c 0,0 1.424,0 1.424,0 0,0 0,-0.309 0,-0.309 0,0 -1.424,0 -1.424,0 0,0 0,-1.833 0,-1.833 0,0 -0.249,0 -0.249,0 C 1.276,0.816 0.977,1.883 0,1.923 c 0,0 0,0.219 0,0.219 0,0 0.847,0 0.847,0 0,0 0,2.75 0,2.75 0,1.225 0.927,1.344 1.285,1.344 0.707,0 0.987,-0.707 0.987,-1.344 0,0 0,-0.569 0,-0.569 0,0 -0.249,0 -0.249,0 0,0 0,0.549 0,0.549 0,0.737 -0.299,1.115 -0.668,1.115 -0.667,0 -0.667,-0.906 -0.667,-1.076 0,0 0,-2.769 0,-2.769 z"
       id="path218"
       inkscape:connector-curvature="0" />
  </g>
  <g
     transform="translate(73.461,59.91)"
     style="fill:#161413;fill-rule:evenodd;stroke:none"
     id="g220">
    <path
       d="m 0.837,1.952 c 0.06,-1.484 0.897,-1.733 1.236,-1.733 1.025,0 1.125,1.345 1.125,1.733 0,0 -2.361,0 -2.361,0 z M 0.826,2.161 c 0,0 2.781,0 2.781,0 0.218,0 0.249,0 0.249,-0.209 C 3.856,0.966 3.318,0 2.073,0 0.916,0 0,1.025 0,2.272 c 0,1.335 1.046,2.3 2.192,2.3 1.216,0 1.664,-1.105 1.664,-1.295 0,-0.099 -0.08,-0.119 -0.13,-0.119 -0.09,0 -0.109,0.06 -0.13,0.139 C 3.247,4.323 2.351,4.323 2.251,4.323 1.753,4.323 1.355,4.025 1.125,3.656 0.826,3.178 0.826,2.521 0.826,2.161 z"
       id="path222"
       inkscape:connector-curvature="0" />
  </g>
  <g
     transform="translate(77.75,59.97)"
     style="fill:#161413;fill-rule:evenodd;stroke:none"
     id="g224">
    <path
       d="m 0.778,0.976 c 0,0 0,2.67 0,2.67 0,0.448 -0.11,0.448 -0.778,0.448 0,0 0,0.309 0,0.309 0,0 2.243,0 2.243,0 0,0 0,-0.309 0,-0.309 -0.668,0 -0.778,0 -0.778,-0.448 0,0 0,-1.833 0,-1.833 0,-1.036 0.707,-1.595 1.345,-1.595 0.628,0 0.737,0.539 0.737,1.107 0,0 0,2.321 0,2.321 0,0.448 -0.109,0.448 -0.776,0.448 0,0 0,0.309 0,0.309 0,0 2.241,0 2.241,0 0,0 0,-0.309 0,-0.309 -0.668,0 -0.777,0 -0.777,-0.448 0,0 0,-1.833 0,-1.833 0,-1.036 0.708,-1.595 1.344,-1.595 0.628,0 0.738,0.539 0.738,1.107 0,0 0,2.321 0,2.321 0,0.448 -0.11,0.448 -0.777,0.448 0,0 0,0.309 0,0.309 0,0 2.242,0 2.242,0 0,0 0,-0.309 0,-0.309 -0.518,0 -0.768,0 -0.778,-0.298 0,0 0,-1.904 0,-1.904 0,-0.856 0,-1.165 -0.308,-1.524 C 6.556,0.199 6.228,0 5.65,0 4.813,0 4.374,0.597 4.205,0.976 4.066,0.109 3.328,0 2.88,0 2.153,0 1.685,0.428 1.406,1.046 c 0,0 0,-1.046 0,-1.046 C 1.406,0 0,0.109 0,0.109 c 0,0 0,0.309 0,0.309 0.699,0 0.778,0.07 0.778,0.558 z"
       id="path226"
       inkscape:connector-curvature="0" />
  </g>
  <g
     transform="translate(1.6,77.738)"
     style="fill:#161413;fill-rule:evenodd;stroke:none"
     id="g228">
    <path
       d="M 2.472,3.128 C 3.288,2.86 3.866,2.161 3.866,1.374 3.866,0.558 2.989,0 2.033,0 1.026,0 0.27,0.598 0.27,1.355 c 0,0.329 0.218,0.518 0.507,0.518 0.309,0 0.508,-0.219 0.508,-0.509 0,-0.498 -0.468,-0.498 -0.617,-0.498 0.309,-0.488 0.967,-0.617 1.325,-0.617 0.408,0 0.956,0.219 0.956,1.115 0,0.121 -0.019,0.698 -0.278,1.136 -0.3,0.479 -0.638,0.509 -0.887,0.519 -0.08,0.01 -0.319,0.029 -0.389,0.029 -0.08,0.011 -0.149,0.021 -0.149,0.12 0,0.11 0.069,0.11 0.239,0.11 0,0 0.438,0 0.438,0 0.817,0 1.185,0.677 1.185,1.654 0,1.354 -0.687,1.643 -1.125,1.643 C 1.555,6.575 0.808,6.406 0.459,5.818 0.808,5.867 1.116,5.649 1.116,5.27 1.116,4.911 0.848,4.712 0.559,4.712 0.319,4.712 0,4.852 0,5.29 0,6.197 0.927,6.854 2.013,6.854 3.228,6.854 4.135,5.947 4.135,4.932 4.135,4.114 3.507,3.337 2.472,3.128 z"
       id="path230"
       inkscape:connector-curvature="0" />
  </g>
  <g
     transform="translate(7.038,83.317)"
     style="fill:#161413;fill-rule:evenodd;stroke:none"
     id="g232">
    <path
       d="M 1.057,0.528 C 1.057,0.239 0.818,0 0.529,0 0.24,0 0,0.239 0,0.528 c 0,0.289 0.24,0.528 0.529,0.528 0.289,0 0.528,-0.239 0.528,-0.528 z"
       id="path234"
       inkscape:connector-curvature="0" />
  </g>
  <g
     transform="translate(14.29,77.628)"
     style="fill:#161413;fill-rule:evenodd;stroke:none"
     id="g236">
    <path
       d="M 6.277,0 C 6.277,0 0.19,0 0.19,0 0.19,0 0,2.242 0,2.242 c 0,0 0.249,0 0.249,0 0.14,-1.604 0.289,-1.933 1.794,-1.933 0.179,0 0.438,0 0.538,0.02 0.209,0.04 0.209,0.149 0.209,0.379 0,0 0,5.25 0,5.25 0,0.339 0,0.478 -1.045,0.478 0,0 -0.4,0 -0.4,0 0,0 0,0.309 0,0.309 0,0 3.776,0 3.776,0 0,0 0,-0.309 0,-0.309 0,0 -0.398,0 -0.398,0 -1.046,0 -1.046,-0.139 -1.046,-0.478 0,0 0,-5.25 0,-5.25 0,-0.199 0,-0.339 0.179,-0.379 0.11,-0.02 0.379,-0.02 0.568,-0.02 1.504,0 1.654,0.329 1.793,1.933 0,0 0.249,0 0.249,0 C 6.466,2.242 6.277,0 6.277,0 z"
       id="path238"
       inkscape:connector-curvature="0" />
  </g>
  <g
     transform="translate(21.25,77.459)"
     style="fill:#161413;fill-rule:evenodd;stroke:none"
     id="g240">
    <path
       d="m 0.778,6.157 c 0,0.448 -0.11,0.448 -0.778,0.448 0,0 0,0.309 0,0.309 0,0 2.243,0 2.243,0 0,0 0,-0.309 0,-0.309 -0.668,0 -0.778,0 -0.778,-0.448 0,0 0,-1.833 0,-1.833 0,-1.036 0.707,-1.595 1.345,-1.595 0.628,0 0.737,0.539 0.737,1.107 0,0 0,2.321 0,2.321 0,0.448 -0.109,0.448 -0.776,0.448 0,0 0,0.309 0,0.309 0,0 2.241,0 2.241,0 0,0 0,-0.309 0,-0.309 -0.518,0 -0.768,0 -0.777,-0.298 0,0 0,-1.904 0,-1.904 0,-0.856 0,-1.165 -0.309,-1.524 C 3.786,2.71 3.457,2.511 2.88,2.511 c -0.837,0 -1.275,0.597 -1.444,0.976 0,0 0,-3.487 0,-3.487 C 1.436,0 0,0.109 0,0.109 c 0,0 0,0.309 0,0.309 0.699,0 0.778,0.07 0.778,0.558 0,0 0,5.181 0,5.181 z"
       id="path242"
       inkscape:connector-curvature="0" />
  </g>
  <g
     transform="translate(26.711,79.91)"
     style="fill:#161413;fill-rule:evenodd;stroke:none"
     id="g244">
    <path
       d="m 0.837,1.952 c 0.06,-1.484 0.897,-1.733 1.236,-1.733 1.025,0 1.125,1.345 1.125,1.733 0,0 -2.361,0 -2.361,0 z M 0.826,2.161 c 0,0 2.781,0 2.781,0 0.218,0 0.249,0 0.249,-0.209 C 3.856,0.966 3.318,0 2.073,0 0.916,0 0,1.025 0,2.272 c 0,1.335 1.046,2.3 2.192,2.3 1.216,0 1.664,-1.105 1.664,-1.295 0,-0.099 -0.08,-0.119 -0.13,-0.119 -0.09,0 -0.109,0.06 -0.13,0.139 C 3.247,4.323 2.351,4.323 2.251,4.323 1.753,4.323 1.355,4.025 1.125,3.656 0.826,3.178 0.826,2.521 0.826,2.161 z"
       id="path246"
       inkscape:connector-curvature="0" />
  </g>
  <g
     transform="translate(34.621,78.246)"
     style="fill:#161413;fill-rule:evenodd;stroke:none"
     id="g248">
    <path
       d="m 1.535,2.142 c 0,0 1.424,0 1.424,0 0,0 0,-0.309 0,-0.309 0,0 -1.424,0 -1.424,0 0,0 0,-1.833 0,-1.833 0,0 -0.249,0 -0.249,0 C 1.276,0.816 0.977,1.883 0,1.923 c 0,0 0,0.219 0,0.219 0,0 0.847,0 0.847,0 0,0 0,2.75 0,2.75 0,1.225 0.927,1.344 1.285,1.344 0.707,0 0.987,-0.707 0.987,-1.344 0,0 0,-0.569 0,-0.569 0,0 -0.249,0 -0.249,0 0,0 0,0.549 0,0.549 0,0.737 -0.299,1.115 -0.668,1.115 -0.667,0 -0.667,-0.906 -0.667,-1.076 0,0 0,-2.769 0,-2.769 z"
       id="path250"
       inkscape:connector-curvature="0" />
  </g>
  <g
     transform="translate(38.5,77.459)"
     style="fill:#161413;fill-rule:evenodd;stroke:none"
     id="g252">
    <path
       d="m 0.778,6.157 c 0,0.448 -0.11,0.448 -0.778,0.448 0,0 0,0.309 0,0.309 0,0 2.243,0 2.243,0 0,0 0,-0.309 0,-0.309 -0.668,0 -0.778,0 -0.778,-0.448 0,0 0,-1.833 0,-1.833 0,-1.036 0.707,-1.595 1.345,-1.595 0.628,0 0.737,0.539 0.737,1.107 0,0 0,2.321 0,2.321 0,0.448 -0.109,0.448 -0.776,0.448 0,0 0,0.309 0,0.309 0,0 2.241,0 2.241,0 0,0 0,-0.309 0,-0.309 -0.518,0 -0.768,0 -0.777,-0.298 0,0 0,-1.904 0,-1.904 0,-0.856 0,-1.165 -0.309,-1.524 C 3.786,2.71 3.457,2.511 2.88,2.511 c -0.837,0 -1.275,0.597 -1.444,0.976 0,0 0,-3.487 0,-3.487 C 1.436,0 0,0.109 0,0.109 c 0,0 0,0.309 0,0.309 0.699,0 0.778,0.07 0.778,0.558 0,0 0,5.181 0,5.181 z"
       id="path254"
       inkscape:connector-curvature="0" />
  </g>
  <g
     transform="translate(44.011,77.708)"
     style="fill:#161413;fill-rule:evenodd;stroke:none"
     id="g256">
    <path
       d="m 1.435,2.262 c 0,0 -1.396,0.109 -1.396,0.109 0,0 0,0.309 0,0.309 0.649,0 0.737,0.06 0.737,0.547 0,0 0,2.681 0,2.681 0,0.448 -0.109,0.448 -0.776,0.448 0,0 0,0.309 0,0.309 0,0 2.132,0 2.132,0 0,0 0,-0.309 0,-0.309 -0.657,0 -0.697,-0.049 -0.697,-0.438 0,0 0,-3.656 0,-3.656 z M 1.475,0.528 C 1.475,0.209 1.225,0 0.946,0 0.638,0 0.418,0.269 0.418,0.528 c 0,0.269 0.22,0.528 0.528,0.528 0.279,0 0.529,-0.209 0.529,-0.528 z"
       id="path258"
       inkscape:connector-curvature="0" />
  </g>
  <g
     transform="translate(46.711,79.97)"
     style="fill:#161413;fill-rule:evenodd;stroke:none"
     id="g260">
    <path
       d="m 1.385,1.095 c 0,0 0,-1.095 0,-1.095 C 1.385,0 0,0.109 0,0.109 c 0,0 0,0.309 0,0.309 0.698,0 0.777,0.07 0.777,0.558 0,0 0,2.67 0,2.67 0,0.448 -0.11,0.448 -0.777,0.448 0,0 0,0.309 0,0.309 0,0 2.401,0 2.401,0 0,0 0,-0.309 0,-0.309 0,0 -0.209,0 -0.209,0 -0.738,0 -0.757,-0.109 -0.757,-0.468 0,0 0,-1.535 0,-1.535 0,-0.986 0.418,-1.873 1.176,-1.873 0.069,0 0.089,0 0.109,0.01 -0.03,0.011 -0.229,0.13 -0.229,0.389 0,0.279 0.209,0.429 0.428,0.429 0.179,0 0.428,-0.12 0.428,-0.439 C 3.347,0.289 3.038,0 2.611,0 1.883,0 1.525,0.667 1.385,1.095 z"
       id="path262"
       inkscape:connector-curvature="0" />
  </g>
  <g
     transform="translate(50.771,77.459)"
     style="fill:#161413;fill-rule:evenodd;stroke:none"
     id="g264">
    <path
       d="m 3.447,6.366 c 0,0 0,0.657 0,0.657 0,0 1.464,-0.109 1.464,-0.109 0,0 0,-0.309 0,-0.309 -0.697,0 -0.776,-0.07 -0.776,-0.558 0,0 0,-6.047 0,-6.047 0,0 -1.435,0.109 -1.435,0.109 0,0 0,0.309 0,0.309 0.697,0 0.776,0.07 0.776,0.558 0,0 0,2.152 0,2.152 C 3.187,2.769 2.76,2.511 2.222,2.511 1.046,2.511 0,3.487 0,4.772 0,6.037 0.976,7.023 2.112,7.023 2.75,7.023 3.198,6.685 3.447,6.366 z m 0,-2.67 c 0,0 0,2.042 0,2.042 0,0.18 0,0.199 -0.11,0.369 C 3.038,6.585 2.59,6.805 2.162,6.805 1.714,6.805 1.354,6.546 1.115,6.167 0.856,5.759 0.827,5.19 0.827,4.782 0.827,4.413 0.847,3.815 1.136,3.367 1.345,3.059 1.723,2.729 2.262,2.729 c 0.348,0 0.766,0.15 1.075,0.598 0.11,0.17 0.11,0.19 0.11,0.369 z"
       id="path266"
       inkscape:connector-curvature="0" />
  </g>
  <g
     transform="translate(59.461,79.91)"
     style="fill:#161413;fill-rule:evenodd;stroke:none"
     id="g268">
    <path
       d="m 0.837,1.952 c 0.06,-1.484 0.897,-1.733 1.236,-1.733 1.025,0 1.125,1.345 1.125,1.733 0,0 -2.361,0 -2.361,0 z M 0.826,2.161 c 0,0 2.781,0 2.781,0 0.218,0 0.249,0 0.249,-0.209 C 3.856,0.966 3.318,0 2.073,0 0.916,0 0,1.025 0,2.272 c 0,1.335 1.046,2.3 2.192,2.3 1.216,0 1.664,-1.105 1.664,-1.295 0,-0.099 -0.08,-0.119 -0.13,-0.119 -0.09,0 -0.109,0.06 -0.13,0.139 C 3.247,4.323 2.351,4.323 2.251,4.323 1.753,4.323 1.355,4.025 1.125,3.656 0.826,3.178 0.826,2.521 0.826,2.161 z"
       id="path270"
       inkscape:connector-curvature="0" />
  </g>
  <g
     transform="translate(63.871,78.246)"
     style="fill:#161413;fill-rule:evenodd;stroke:none"
     id="g272">
    <path
       d="m 1.535,2.142 c 0,0 1.424,0 1.424,0 0,0 0,-0.309 0,-0.309 0,0 -1.424,0 -1.424,0 0,0 0,-1.833 0,-1.833 0,0 -0.249,0 -0.249,0 C 1.276,0.816 0.977,1.883 0,1.923 c 0,0 0,0.219 0,0.219 0,0 0.847,0 0.847,0 0,0 0,2.75 0,2.75 0,1.225 0.927,1.344 1.285,1.344 0.707,0 0.987,-0.707 0.987,-1.344 0,0 0,-0.569 0,-0.569 0,0 -0.249,0 -0.249,0 0,0 0,0.549 0,0.549 0,0.737 -0.299,1.115 -0.668,1.115 -0.667,0 -0.667,-0.906 -0.667,-1.076 0,0 0,-2.769 0,-2.769 z"
       id="path274"
       inkscape:connector-curvature="0" />
  </g>
  <g
     transform="translate(68.021,79.91)"
     style="fill:#161413;fill-rule:evenodd;stroke:none"
     id="g276">
    <path
       d="m 0.827,2.291 c 0,-1.624 0.816,-2.042 1.345,-2.042 0.09,0 0.717,0.01 1.065,0.368 -0.408,0.031 -0.468,0.329 -0.468,0.458 0,0.26 0.18,0.459 0.458,0.459 0.259,0 0.459,-0.17 0.459,-0.468 C 3.686,0.388 2.929,0 2.162,0 0.916,0 0,1.075 0,2.311 c 0,1.275 0.986,2.261 2.141,2.261 1.335,0 1.655,-1.195 1.655,-1.295 0,-0.099 -0.1,-0.099 -0.13,-0.099 -0.09,0 -0.109,0.04 -0.13,0.099 C 3.248,4.204 2.6,4.323 2.231,4.323 1.703,4.323 0.827,3.896 0.827,2.291 z"
       id="path278"
       inkscape:connector-curvature="0" />
  </g>
  <g
     transform="translate(76.038,83.317)"
     style="fill:#161413;fill-rule:evenodd;stroke:none"
     id="g280">
    <path
       d="M 1.057,0.528 C 1.057,0.239 0.818,0 0.529,0 0.24,0 0,0.239 0,0.528 c 0,0.289 0.24,0.528 0.529,0.528 0.289,0 0.528,-0.239 0.528,-0.528 z"
       id="path282"
       inkscape:connector-curvature="0" />
  </g>
  <g
     transform="translate(80.538,83.317)"
     style="fill:#161413;fill-rule:evenodd;stroke:none"
     id="g284">
    <path
       d="M 1.057,0.528 C 1.057,0.239 0.818,0 0.529,0 0.24,0 0,0.239 0,0.528 c 0,0.289 0.24,0.528 0.529,0.528 0.289,0 0.528,-0.239 0.528,-0.528 z"
       id="path286"
       inkscape:connector-curvature="0" />
  </g>
  <g
     transform="translate(85.038,83.317)"
     style="fill:#161413;fill-rule:evenodd;stroke:none"
     id="g288">
    <path
       d="M 1.057,0.528 C 1.057,0.239 0.818,0 0.529,0 0.24,0 0,0.239 0,0.528 c 0,0.289 0.24,0.528 0.529,0.528 0.289,0 0.528,-0.239 0.528,-0.528 z"
       id="path290"
       inkscape:connector-curvature="0" />
  </g>
</svg>
