<?xml version="1.0" encoding="UTF-8" standalone="no"?>
<svg
   xmlns:dc="http://purl.org/dc/elements/1.1/"
   xmlns:cc="http://creativecommons.org/ns#"
   xmlns:rdf="http://www.w3.org/1999/02/22-rdf-syntax-ns#"
   xmlns:svg="http://www.w3.org/2000/svg"
   xmlns="http://www.w3.org/2000/svg"
   xmlns:sodipodi="http://sodipodi.sourceforge.net/DTD/sodipodi-0.dtd"
   xmlns:inkscape="http://www.inkscape.org/namespaces/inkscape"
   width="169.91251"
   height="67.724998"
   viewBox="0 0 135.93 54.179999"
   id="svg2"
   version="1.1"
   inkscape:version="0.48.0 r9654"
   sodipodi:docname="latex_source_code.ps(converted)-page1.svg">
  <metadata
     id="metadata284">
    <rdf:RDF>
      <cc:Work
         rdf:about="">
        <dc:format>image/svg+xml</dc:format>
        <dc:type
           rdf:resource="http://purl.org/dc/dcmitype/StillImage" />
        <dc:title></dc:title>
      </cc:Work>
    </rdf:RDF>
  </metadata>
  <defs
     id="defs282" />
  <sodipodi:namedview
     pagecolor="#ffffff"
     bordercolor="#666666"
     borderopacity="1"
     objecttolerance="10"
     gridtolerance="10"
     guidetolerance="10"
     inkscape:pageopacity="0"
     inkscape:pageshadow="2"
     inkscape:window-width="640"
     inkscape:window-height="480"
     id="namedview280"
     showgrid="false"
     fit-margin-top="2"
     fit-margin-right="2"
     fit-margin-bottom="2"
     fit-margin-left="2"
     inkscape:zoom="0.24418052"
     inkscape:cx="188.875"
     inkscape:cy="-304.5625"
     inkscape:window-x="0"
     inkscape:window-y="24"
     inkscape:window-maximized="0"
     inkscape:current-layer="svg2" />
  <g
     transform="translate(1.85,1.6)"
     style="fill:#161413;fill-rule:nonzero;stroke:none"
     id="g4">
    <path
       d="m 0,0.48 c 0,0 132.12,0 132.12,0 0,0 0,-0.48 0,-0.48 C 132.12,0 0,0 0,0"
       id="path6"
       inkscape:connector-curvature="0" />
  </g>
  <g
     transform="translate(1.6,2.08)"
     style="fill:#161413;fill-rule:nonzero;stroke:none"
     id="g8">
    <path
       d="m 0,12 c 0,0 0.48,0 0.48,0 0,0 0,-12 0,-12 C 0.48,0 0,0 0,0"
       id="path10"
       inkscape:connector-curvature="0" />
  </g>
  <g
     transform="translate(45.908,3.596)"
     style="fill:#161413;fill-rule:evenodd;stroke:none"
     id="g12">
    <path
       d="m 4.184,0.667 c 0.09,-0.12 0.09,-0.14 0.09,-0.349 0,0 -2.421,0 -2.421,0 C 0.637,0.318 0.618,0.188 0.578,0 0.578,0 0.329,0 0.329,0 0.329,0 0,2.051 0,2.051 c 0,0 0.249,0 0.249,0 0.03,-0.159 0.12,-0.787 0.249,-0.906 0.07,-0.059 0.847,-0.059 0.976,-0.059 0,0 2.063,0 2.063,0 C 3.427,1.245 2.64,2.331 2.421,2.659 1.524,4.005 1.196,5.389 1.196,6.405 c 0,0.1 0,0.548 0.458,0.548 0.458,0 0.458,-0.448 0.458,-0.548 0,0 0,-0.508 0,-0.508 0,-0.548 0.03,-1.096 0.109,-1.634 0.04,-0.229 0.18,-1.086 0.618,-1.704 0,0 1.345,-1.892 1.345,-1.892 z"
       id="path14"
       inkscape:connector-curvature="0" />
  </g>
  <g
     transform="translate(51.158,3.307)"
     style="fill:#161413;fill-rule:evenodd;stroke:none"
     id="g16">
    <path
       d="m 0,3.616 c 0,2.062 1.614,3.626 3.467,3.626 1.623,0 2.6,-1.385 2.6,-2.54 0,-0.1 0,-0.169 -0.129,-0.169 -0.11,0 -0.11,0.059 -0.12,0.159 -0.079,1.425 -1.146,2.241 -2.231,2.241 -0.608,0 -2.561,-0.339 -2.561,-3.307 0,-2.979 1.942,-3.318 2.551,-3.318 1.086,0 1.972,0.906 2.172,2.361 0.019,0.14 0.019,0.169 0.159,0.169 0.159,0 0.159,-0.029 0.159,-0.239 0,0 0,-2.36 0,-2.36 C 6.067,0.069 6.067,0 5.958,0 5.918,0 5.878,0 5.798,0.119 5.798,0.119 5.3,0.856 5.3,0.856 4.931,0.498 4.423,0 3.467,0 1.604,0 0,1.584 0,3.616 z"
       id="path18"
       inkscape:connector-curvature="0" />
  </g>
  <g
     transform="translate(57.989,3.695)"
     style="fill:#161413;fill-rule:evenodd;stroke:none"
     id="g20">
    <path
       d="M 4.194,3.447 C 4.194,2.65 4.144,1.853 3.796,1.115 3.337,0.159 2.52,0 2.101,0 1.504,0 0.777,0.259 0.368,1.186 0.049,1.873 0,2.65 0,3.447 0,4.195 0.04,5.091 0.448,5.848 0.877,6.655 1.603,6.854 2.091,6.854 2.63,6.854 3.386,6.645 3.825,5.698 4.144,5.011 4.194,4.234 4.194,3.447 z M 2.091,6.635 C 1.703,6.635 1.115,6.386 0.936,5.43 0.827,4.831 0.827,3.915 0.827,3.327 c 0,-0.637 0,-1.295 0.079,-1.833 0.189,-1.185 0.936,-1.275 1.185,-1.275 0.33,0 0.987,0.18 1.176,1.166 0.1,0.558 0.1,1.314 0.1,1.942 0,0.747 0,1.425 -0.11,2.063 C 3.108,6.336 2.54,6.635 2.091,6.635 z"
       id="path22"
       inkscape:connector-curvature="0" />
  </g>
  <g
     transform="translate(68.35,2.08)"
     style="fill:#161413;fill-rule:nonzero;stroke:none"
     id="g24">
    <path
       d="m 0,12 c 0,0 0.48,0 0.48,0 0,0 0,-12 0,-12 C 0.48,0 0,0 0,0"
       id="path26"
       inkscape:connector-curvature="0" />
  </g>
  <g
     transform="translate(74.918,3.416)"
     style="fill:#161413;fill-rule:evenodd;stroke:none"
     id="g28">
    <path
       d="m 0.778,6.157 c 0,0.448 -0.11,0.448 -0.778,0.448 0,0 0,0.309 0,0.309 0,0 2.243,0 2.243,0 0,0 0,-0.309 0,-0.309 -0.668,0 -0.778,0 -0.778,-0.448 0,0 0,-1.833 0,-1.833 0,-1.036 0.707,-1.595 1.345,-1.595 0.628,0 0.737,0.539 0.737,1.107 0,0 0,2.321 0,2.321 0,0.448 -0.109,0.448 -0.776,0.448 0,0 0,0.309 0,0.309 0,0 2.241,0 2.241,0 0,0 0,-0.309 0,-0.309 -0.518,0 -0.768,0 -0.777,-0.298 0,0 0,-1.904 0,-1.904 0,-0.856 0,-1.165 -0.309,-1.524 C 3.786,2.71 3.457,2.511 2.88,2.511 c -0.837,0 -1.275,0.597 -1.444,0.976 0,0 0,-3.487 0,-3.487 C 1.436,0 0,0.109 0,0.109 c 0,0 0,0.309 0,0.309 0.699,0 0.778,0.07 0.778,0.558 0,0 0,5.181 0,5.181 z"
       id="path30"
       inkscape:connector-curvature="0" />
  </g>
  <g
     transform="translate(80.379,5.867)"
     style="fill:#161413;fill-rule:evenodd;stroke:none"
     id="g32">
    <path
       d="m 0.837,1.952 c 0.06,-1.484 0.897,-1.733 1.236,-1.733 1.025,0 1.125,1.345 1.125,1.733 0,0 -2.361,0 -2.361,0 z M 0.826,2.161 c 0,0 2.781,0 2.781,0 0.218,0 0.249,0 0.249,-0.209 C 3.856,0.966 3.318,0 2.073,0 0.916,0 0,1.025 0,2.272 c 0,1.335 1.046,2.3 2.192,2.3 1.216,0 1.664,-1.105 1.664,-1.295 0,-0.099 -0.08,-0.119 -0.13,-0.119 -0.09,0 -0.109,0.06 -0.13,0.139 C 3.247,4.323 2.351,4.323 2.251,4.323 1.753,4.323 1.355,4.025 1.125,3.656 0.826,3.178 0.826,2.521 0.826,2.161 z"
       id="path34"
       inkscape:connector-curvature="0" />
  </g>
  <g
     transform="translate(84.469,6.036)"
     style="fill:#161413;fill-rule:evenodd;stroke:none"
     id="g36">
    <path
       d="M 2.74,1.953 C 3.039,1.574 3.418,1.086 3.656,0.827 3.966,0.469 4.374,0.319 4.842,0.309 c 0,0 0,-0.309 0,-0.309 0,0 -1.773,0 -1.773,0 0,0 0,0.309 0,0.309 0.209,0.02 0.289,0.149 0.289,0.309 0,0.159 -0.1,0.288 -0.15,0.349 0,0 -0.617,0.776 -0.617,0.776 0,0 -0.777,-1.006 -0.777,-1.006 -0.09,-0.099 -0.09,-0.119 -0.09,-0.179 0,-0.15 0.149,-0.239 0.348,-0.249 0,0 0,-0.309 0,-0.309 0,0 -2.022,0 -2.022,0 0,0 0,0.309 0,0.309 0.698,0 0.708,0.01 1.176,0.608 0,0 0.986,1.285 0.986,1.285 0,0 -0.936,1.186 -0.936,1.186 C 0.798,3.965 0.21,3.985 0,3.985 c 0,0 0,0.309 0,0.309 0,0 1.774,0 1.774,0 0,0 0,-0.309 0,-0.309 C 1.555,3.955 1.485,3.826 1.485,3.676 c 0,-0.219 0.289,-0.548 0.897,-1.265 0,0 0.757,0.996 0.757,0.996 0.08,0.11 0.209,0.269 0.209,0.329 0,0.09 -0.09,0.24 -0.359,0.249 0,0 0,0.309 0,0.309 0,0 2.033,0 2.033,0 0,0 0,-0.309 0,-0.309 -0.538,0 -0.717,-0.02 -0.947,-0.309 0,0 -1.335,-1.723 -1.335,-1.723 z"
       id="path38"
       inkscape:connector-curvature="0" />
  </g>
  <g
     transform="translate(90.268,5.867)"
     style="fill:#161413;fill-rule:evenodd;stroke:none"
     id="g40">
    <path
       d="m 2.899,3.706 c 0.04,0.399 0.309,0.817 0.778,0.817 0.209,0 0.816,-0.14 0.816,-0.947 0,0 0,-0.557 0,-0.557 0,0 -0.249,0 -0.249,0 0,0 0,0.557 0,0.557 0,0.578 -0.249,0.638 -0.358,0.638 -0.329,0 -0.368,-0.448 -0.368,-0.498 0,0 0,-1.992 0,-1.992 0,-0.419 0,-0.808 -0.36,-1.176 C 2.77,0.159 2.271,0 1.794,0 0.977,0 0.289,0.468 0.289,1.125 c 0,0.299 0.199,0.469 0.459,0.469 0.278,0 0.458,-0.199 0.458,-0.458 0,-0.12 -0.05,-0.448 -0.508,-0.459 0.269,-0.349 0.757,-0.458 1.075,-0.458 0.489,0 1.057,0.389 1.057,1.275 0,0 0,0.368 0,0.368 C 2.321,1.893 1.624,1.923 0.997,2.222 0.25,2.56 0,3.078 0,3.517 0,4.323 0.967,4.572 1.595,4.572 2.252,4.572 2.71,4.174 2.899,3.706 z M 2.83,2.072 c 0,0 0,0.996 0,0.996 0,0.947 -0.718,1.286 -1.166,1.286 -0.488,0 -0.896,-0.349 -0.896,-0.847 0,-0.548 0.418,-1.375 2.062,-1.435 z"
       id="path42"
       inkscape:connector-curvature="0" />
  </g>
  <g
     transform="translate(95.189,3.416)"
     style="fill:#161413;fill-rule:evenodd;stroke:none"
     id="g44">
    <path
       d="m 3.447,6.366 c 0,0 0,0.657 0,0.657 0,0 1.464,-0.109 1.464,-0.109 0,0 0,-0.309 0,-0.309 -0.697,0 -0.776,-0.07 -0.776,-0.558 0,0 0,-6.047 0,-6.047 0,0 -1.435,0.109 -1.435,0.109 0,0 0,0.309 0,0.309 0.697,0 0.776,0.07 0.776,0.558 0,0 0,2.152 0,2.152 C 3.187,2.769 2.76,2.511 2.222,2.511 1.046,2.511 0,3.487 0,4.772 0,6.037 0.976,7.023 2.112,7.023 2.75,7.023 3.198,6.685 3.447,6.366 z m 0,-2.67 c 0,0 0,2.042 0,2.042 0,0.18 0,0.199 -0.11,0.369 C 3.038,6.585 2.59,6.805 2.162,6.805 1.714,6.805 1.354,6.546 1.115,6.167 0.856,5.759 0.827,5.19 0.827,4.782 0.827,4.413 0.847,3.815 1.136,3.367 1.345,3.059 1.723,2.729 2.262,2.729 c 0.348,0 0.766,0.15 1.075,0.598 0.11,0.17 0.11,0.19 0.11,0.369 z"
       id="path46"
       inkscape:connector-curvature="0" />
  </g>
  <g
     transform="translate(100.629,5.867)"
     style="fill:#161413;fill-rule:evenodd;stroke:none"
     id="g48">
    <path
       d="m 0.837,1.952 c 0.06,-1.484 0.897,-1.733 1.236,-1.733 1.025,0 1.125,1.345 1.125,1.733 0,0 -2.361,0 -2.361,0 z M 0.826,2.161 c 0,0 2.781,0 2.781,0 0.218,0 0.249,0 0.249,-0.209 C 3.856,0.966 3.318,0 2.073,0 0.916,0 0,1.025 0,2.272 c 0,1.335 1.046,2.3 2.192,2.3 1.216,0 1.664,-1.105 1.664,-1.295 0,-0.099 -0.08,-0.119 -0.13,-0.119 -0.09,0 -0.109,0.06 -0.13,0.139 C 3.247,4.323 2.351,4.323 2.251,4.323 1.753,4.323 1.355,4.025 1.125,3.656 0.826,3.178 0.826,2.521 0.826,2.161 z"
       id="path50"
       inkscape:connector-curvature="0" />
  </g>
  <g
     transform="translate(105.189,5.867)"
     style="fill:#161413;fill-rule:evenodd;stroke:none"
     id="g52">
    <path
       d="m 0.827,2.291 c 0,-1.624 0.816,-2.042 1.345,-2.042 0.09,0 0.717,0.01 1.065,0.368 -0.408,0.031 -0.468,0.329 -0.468,0.458 0,0.26 0.18,0.459 0.458,0.459 0.259,0 0.459,-0.17 0.459,-0.468 C 3.686,0.388 2.929,0 2.162,0 0.916,0 0,1.075 0,2.311 c 0,1.275 0.986,2.261 2.141,2.261 1.335,0 1.655,-1.195 1.655,-1.295 0,-0.099 -0.1,-0.099 -0.13,-0.099 -0.09,0 -0.109,0.04 -0.13,0.099 C 3.248,4.204 2.6,4.323 2.231,4.323 1.703,4.323 0.827,3.896 0.827,2.291 z"
       id="path54"
       inkscape:connector-curvature="0" />
  </g>
  <g
     transform="translate(109.429,3.665)"
     style="fill:#161413;fill-rule:evenodd;stroke:none"
     id="g56">
    <path
       d="m 1.435,2.262 c 0,0 -1.396,0.109 -1.396,0.109 0,0 0,0.309 0,0.309 0.649,0 0.737,0.06 0.737,0.547 0,0 0,2.681 0,2.681 0,0.448 -0.109,0.448 -0.776,0.448 0,0 0,0.309 0,0.309 0,0 2.132,0 2.132,0 0,0 0,-0.309 0,-0.309 -0.657,0 -0.697,-0.049 -0.697,-0.438 0,0 0,-3.656 0,-3.656 z M 1.475,0.528 C 1.475,0.209 1.225,0 0.946,0 0.638,0 0.418,0.269 0.418,0.528 c 0,0.269 0.22,0.528 0.528,0.528 0.279,0 0.529,-0.209 0.529,-0.528 z"
       id="path58"
       inkscape:connector-curvature="0" />
  </g>
  <g
     transform="translate(112.168,5.927)"
     style="fill:#161413;fill-rule:evenodd;stroke:none"
     id="g60">
    <path
       d="m 0.778,0.976 c 0,0 0,2.67 0,2.67 0,0.448 -0.11,0.448 -0.778,0.448 0,0 0,0.309 0,0.309 0,0 2.243,0 2.243,0 0,0 0,-0.309 0,-0.309 -0.668,0 -0.778,0 -0.778,-0.448 0,0 0,-1.833 0,-1.833 0,-1.036 0.707,-1.595 1.345,-1.595 0.628,0 0.737,0.539 0.737,1.107 0,0 0,2.321 0,2.321 0,0.448 -0.109,0.448 -0.776,0.448 0,0 0,0.309 0,0.309 0,0 2.241,0 2.241,0 0,0 0,-0.309 0,-0.309 -0.668,0 -0.777,0 -0.777,-0.448 0,0 0,-1.833 0,-1.833 0,-1.036 0.708,-1.595 1.344,-1.595 0.628,0 0.738,0.539 0.738,1.107 0,0 0,2.321 0,2.321 0,0.448 -0.11,0.448 -0.777,0.448 0,0 0,0.309 0,0.309 0,0 2.242,0 2.242,0 0,0 0,-0.309 0,-0.309 -0.518,0 -0.768,0 -0.778,-0.298 0,0 0,-1.904 0,-1.904 0,-0.856 0,-1.165 -0.308,-1.524 C 6.556,0.199 6.228,0 5.65,0 4.813,0 4.374,0.597 4.205,0.976 4.066,0.109 3.328,0 2.88,0 2.153,0 1.685,0.428 1.406,1.046 c 0,0 0,-1.046 0,-1.046 C 1.406,0 0,0.109 0,0.109 c 0,0 0,0.309 0,0.309 0.699,0 0.778,0.07 0.778,0.558 z"
       id="path62"
       inkscape:connector-curvature="0" />
  </g>
  <g
     transform="translate(120.518,5.867)"
     style="fill:#161413;fill-rule:evenodd;stroke:none"
     id="g64">
    <path
       d="m 2.899,3.706 c 0.04,0.399 0.309,0.817 0.778,0.817 0.209,0 0.816,-0.14 0.816,-0.947 0,0 0,-0.557 0,-0.557 0,0 -0.249,0 -0.249,0 0,0 0,0.557 0,0.557 0,0.578 -0.249,0.638 -0.358,0.638 -0.329,0 -0.368,-0.448 -0.368,-0.498 0,0 0,-1.992 0,-1.992 0,-0.419 0,-0.808 -0.36,-1.176 C 2.77,0.159 2.271,0 1.794,0 0.977,0 0.289,0.468 0.289,1.125 c 0,0.299 0.199,0.469 0.459,0.469 0.278,0 0.458,-0.199 0.458,-0.458 0,-0.12 -0.05,-0.448 -0.508,-0.459 0.269,-0.349 0.757,-0.458 1.075,-0.458 0.489,0 1.057,0.389 1.057,1.275 0,0 0,0.368 0,0.368 C 2.321,1.893 1.624,1.923 0.997,2.222 0.25,2.56 0,3.078 0,3.517 0,4.323 0.967,4.572 1.595,4.572 2.252,4.572 2.71,4.174 2.899,3.706 z M 2.83,2.072 c 0,0 0,0.996 0,0.996 0,0.947 -0.718,1.286 -1.166,1.286 -0.488,0 -0.896,-0.349 -0.896,-0.847 0,-0.548 0.418,-1.375 2.062,-1.435 z"
       id="path66"
       inkscape:connector-curvature="0" />
  </g>
  <g
     transform="translate(125.679,3.416)"
     style="fill:#161413;fill-rule:evenodd;stroke:none"
     id="g68">
    <path
       d="M 1.435,0 C 1.435,0 0,0.109 0,0.109 c 0,0 0,0.309 0,0.309 0.697,0 0.776,0.07 0.776,0.558 0,0 0,5.181 0,5.181 0,0.448 -0.109,0.448 -0.776,0.448 0,0 0,0.309 0,0.309 0,0 2.211,0 2.211,0 0,0 0,-0.309 0,-0.309 -0.667,0 -0.776,0 -0.776,-0.448 0,0 0,-6.157 0,-6.157 z"
       id="path70"
       inkscape:connector-curvature="0" />
  </g>
  <g
     transform="translate(133.85,2.08)"
     style="fill:#161413;fill-rule:nonzero;stroke:none"
     id="g72">
    <path
       d="m 0,12 c 0,0 0.48,0 0.48,0 0,0 0,-12 0,-12 C 0.48,0 0,0 0,0"
       id="path74"
       inkscape:connector-curvature="0" />
  </g>
  <g
     transform="translate(1.6,14.08)"
     style="fill:#161413;fill-rule:nonzero;stroke:none"
     id="g76">
    <path
       d="m 0,12 c 0,0 0.48,0 0.48,0 0,0 0,-12 0,-12 C 0.48,0 0,0 0,0"
       id="path78"
       inkscape:connector-curvature="0" />
  </g>
  <g
     transform="translate(43.018,15.695)"
     style="fill:#161413;fill-rule:evenodd;stroke:none"
     id="g80">
    <path
       d="M 2.472,3.128 C 3.288,2.86 3.866,2.161 3.866,1.374 3.866,0.558 2.989,0 2.033,0 1.026,0 0.27,0.598 0.27,1.355 c 0,0.329 0.218,0.518 0.507,0.518 0.309,0 0.508,-0.219 0.508,-0.509 0,-0.498 -0.468,-0.498 -0.617,-0.498 0.309,-0.488 0.967,-0.617 1.325,-0.617 0.408,0 0.956,0.219 0.956,1.115 0,0.121 -0.019,0.698 -0.278,1.136 -0.3,0.479 -0.638,0.509 -0.887,0.519 -0.08,0.01 -0.319,0.029 -0.389,0.029 -0.08,0.011 -0.149,0.021 -0.149,0.12 0,0.11 0.069,0.11 0.239,0.11 0,0 0.438,0 0.438,0 0.817,0 1.185,0.677 1.185,1.654 0,1.354 -0.687,1.643 -1.125,1.643 C 1.555,6.575 0.808,6.406 0.459,5.818 0.808,5.867 1.116,5.649 1.116,5.27 1.116,4.911 0.848,4.712 0.559,4.712 0.319,4.712 0,4.852 0,5.29 0,6.197 0.927,6.854 2.013,6.854 3.228,6.854 4.135,5.947 4.135,4.932 4.135,4.114 3.507,3.337 2.472,3.128 z"
       id="path82"
       inkscape:connector-curvature="0" />
  </g>
  <g
     transform="translate(48.408,15.596)"
     style="fill:#161413;fill-rule:evenodd;stroke:none"
     id="g84">
    <path
       d="m 4.184,0.667 c 0.09,-0.12 0.09,-0.14 0.09,-0.349 0,0 -2.421,0 -2.421,0 C 0.637,0.318 0.618,0.188 0.578,0 0.578,0 0.329,0 0.329,0 0.329,0 0,2.051 0,2.051 c 0,0 0.249,0 0.249,0 0.03,-0.159 0.12,-0.787 0.249,-0.906 0.07,-0.059 0.847,-0.059 0.976,-0.059 0,0 2.063,0 2.063,0 C 3.427,1.245 2.64,2.331 2.421,2.659 1.524,4.005 1.196,5.389 1.196,6.405 c 0,0.1 0,0.548 0.458,0.548 0.458,0 0.458,-0.448 0.458,-0.548 0,0 0,-0.508 0,-0.508 0,-0.548 0.03,-1.096 0.109,-1.634 0.04,-0.229 0.18,-1.086 0.618,-1.704 0,0 1.345,-1.892 1.345,-1.892 z"
       id="path86"
       inkscape:connector-curvature="0" />
  </g>
  <g
     transform="translate(53.239,15.695)"
     style="fill:#161413;fill-rule:evenodd;stroke:none"
     id="g88">
    <path
       d="M 4.194,3.447 C 4.194,2.65 4.144,1.853 3.796,1.115 3.337,0.159 2.52,0 2.101,0 1.504,0 0.777,0.259 0.368,1.186 0.049,1.873 0,2.65 0,3.447 0,4.195 0.04,5.091 0.448,5.848 0.877,6.655 1.603,6.854 2.091,6.854 2.63,6.854 3.386,6.645 3.825,5.698 4.144,5.011 4.194,4.234 4.194,3.447 z M 2.091,6.635 C 1.703,6.635 1.115,6.386 0.936,5.43 0.827,4.831 0.827,3.915 0.827,3.327 c 0,-0.637 0,-1.295 0.079,-1.833 0.189,-1.185 0.936,-1.275 1.185,-1.275 0.33,0 0.987,0.18 1.176,1.166 0.1,0.558 0.1,1.314 0.1,1.942 0,0.747 0,1.425 -0.11,2.063 C 3.108,6.336 2.54,6.635 2.091,6.635 z"
       id="path90"
       inkscape:connector-curvature="0" />
  </g>
  <g
     transform="translate(58.239,15.695)"
     style="fill:#161413;fill-rule:evenodd;stroke:none"
     id="g92">
    <path
       d="M 4.194,3.447 C 4.194,2.65 4.144,1.853 3.796,1.115 3.337,0.159 2.52,0 2.101,0 1.504,0 0.777,0.259 0.368,1.186 0.049,1.873 0,2.65 0,3.447 0,4.195 0.04,5.091 0.448,5.848 0.877,6.655 1.603,6.854 2.091,6.854 2.63,6.854 3.386,6.645 3.825,5.698 4.144,5.011 4.194,4.234 4.194,3.447 z M 2.091,6.635 C 1.703,6.635 1.115,6.386 0.936,5.43 0.827,4.831 0.827,3.915 0.827,3.327 c 0,-0.637 0,-1.295 0.079,-1.833 0.189,-1.185 0.936,-1.275 1.185,-1.275 0.33,0 0.987,0.18 1.176,1.166 0.1,0.558 0.1,1.314 0.1,1.942 0,0.747 0,1.425 -0.11,2.063 C 3.108,6.336 2.54,6.635 2.091,6.635 z"
       id="path94"
       inkscape:connector-curvature="0" />
  </g>
  <g
     transform="translate(68.35,14.08)"
     style="fill:#161413;fill-rule:nonzero;stroke:none"
     id="g96">
    <path
       d="m 0,12 c 0,0 0.48,0 0.48,0 0,0 0,-12 0,-12 C 0.48,0 0,0 0,0"
       id="path98"
       inkscape:connector-curvature="0" />
  </g>
  <g
     transform="translate(74.879,17.867)"
     style="fill:#161413;fill-rule:evenodd;stroke:none"
     id="g100">
    <path
       d="M 4.413,2.331 C 4.413,1.056 3.417,0 2.211,0 0.966,0 0,1.086 0,2.331 0,3.616 1.036,4.572 2.201,4.572 3.408,4.572 4.413,3.596 4.413,2.331 z M 2.211,4.323 C 1.783,4.323 1.345,4.114 1.075,3.656 0.826,3.218 0.826,2.609 0.826,2.251 c 0,-0.389 0,-0.927 0.24,-1.364 0.269,-0.459 0.737,-0.668 1.135,-0.668 0.439,0 0.868,0.22 1.126,0.647 0.259,0.429 0.259,1.007 0.259,1.385 0,0.358 0,0.897 -0.219,1.335 C 3.148,4.034 2.71,4.323 2.211,4.323 z"
       id="path102"
       inkscape:connector-curvature="0" />
  </g>
  <g
     transform="translate(80.189,17.867)"
     style="fill:#161413;fill-rule:evenodd;stroke:none"
     id="g104">
    <path
       d="m 0.827,2.291 c 0,-1.624 0.816,-2.042 1.345,-2.042 0.09,0 0.717,0.01 1.065,0.368 -0.408,0.031 -0.468,0.329 -0.468,0.458 0,0.26 0.18,0.459 0.458,0.459 0.259,0 0.459,-0.17 0.459,-0.468 C 3.686,0.388 2.929,0 2.162,0 0.916,0 0,1.075 0,2.311 c 0,1.275 0.986,2.261 2.141,2.261 1.335,0 1.655,-1.195 1.655,-1.295 0,-0.099 -0.1,-0.099 -0.13,-0.099 -0.09,0 -0.109,0.04 -0.13,0.099 C 3.248,4.204 2.6,4.323 2.231,4.323 1.703,4.323 0.827,3.896 0.827,2.291 z"
       id="path106"
       inkscape:connector-curvature="0" />
  </g>
  <g
     transform="translate(84.289,16.203)"
     style="fill:#161413;fill-rule:evenodd;stroke:none"
     id="g108">
    <path
       d="m 1.535,2.142 c 0,0 1.424,0 1.424,0 0,0 0,-0.309 0,-0.309 0,0 -1.424,0 -1.424,0 0,0 0,-1.833 0,-1.833 0,0 -0.249,0 -0.249,0 C 1.276,0.816 0.977,1.883 0,1.923 c 0,0 0,0.219 0,0.219 0,0 0.847,0 0.847,0 0,0 0,2.75 0,2.75 0,1.225 0.927,1.344 1.285,1.344 0.707,0 0.987,-0.707 0.987,-1.344 0,0 0,-0.569 0,-0.569 0,0 -0.249,0 -0.249,0 0,0 0,0.549 0,0.549 0,0.737 -0.299,1.115 -0.668,1.115 -0.667,0 -0.667,-0.906 -0.667,-1.076 0,0 0,-2.769 0,-2.769 z"
       id="path110"
       inkscape:connector-curvature="0" />
  </g>
  <g
     transform="translate(88.518,17.867)"
     style="fill:#161413;fill-rule:evenodd;stroke:none"
     id="g112">
    <path
       d="m 2.899,3.706 c 0.04,0.399 0.309,0.817 0.778,0.817 0.209,0 0.816,-0.14 0.816,-0.947 0,0 0,-0.557 0,-0.557 0,0 -0.249,0 -0.249,0 0,0 0,0.557 0,0.557 0,0.578 -0.249,0.638 -0.358,0.638 -0.329,0 -0.368,-0.448 -0.368,-0.498 0,0 0,-1.992 0,-1.992 0,-0.419 0,-0.808 -0.36,-1.176 C 2.77,0.159 2.271,0 1.794,0 0.977,0 0.289,0.468 0.289,1.125 c 0,0.299 0.199,0.469 0.459,0.469 0.278,0 0.458,-0.199 0.458,-0.458 0,-0.12 -0.05,-0.448 -0.508,-0.459 0.269,-0.349 0.757,-0.458 1.075,-0.458 0.489,0 1.057,0.389 1.057,1.275 0,0 0,0.368 0,0.368 C 2.321,1.893 1.624,1.923 0.997,2.222 0.25,2.56 0,3.078 0,3.517 0,4.323 0.967,4.572 1.595,4.572 2.252,4.572 2.71,4.174 2.899,3.706 z M 2.83,2.072 c 0,0 0,0.996 0,0.996 0,0.947 -0.718,1.286 -1.166,1.286 -0.488,0 -0.896,-0.349 -0.896,-0.847 0,-0.548 0.418,-1.375 2.062,-1.435 z"
       id="path114"
       inkscape:connector-curvature="0" />
  </g>
  <g
     transform="translate(93.429,15.416)"
     style="fill:#161413;fill-rule:evenodd;stroke:none"
     id="g116">
    <path
       d="M 1.435,0 C 1.435,0 0,0.109 0,0.109 c 0,0 0,0.309 0,0.309 0.697,0 0.776,0.07 0.776,0.558 0,0 0,5.181 0,5.181 0,0.448 -0.109,0.448 -0.776,0.448 0,0 0,0.309 0,0.309 0,0 2.211,0 2.211,0 0,0 0,-0.309 0,-0.309 -0.667,0 -0.776,0 -0.776,-0.448 0,0 0,-6.157 0,-6.157 z"
       id="path118"
       inkscape:connector-curvature="0" />
  </g>
  <g
     transform="translate(133.85,14.08)"
     style="fill:#161413;fill-rule:nonzero;stroke:none"
     id="g120">
    <path
       d="m 0,12 c 0,0 0.48,0 0.48,0 0,0 0,-12 0,-12 C 0.48,0 0,0 0,0"
       id="path122"
       inkscape:connector-curvature="0" />
  </g>
  <g
     transform="translate(68.6,25.85)"
     style="fill:#161413;fill-rule:nonzero;stroke:none"
     id="g124">
    <path
       d="m 0,0.48 c 0,0 65.4,0 65.4,0 0,0 0,-0.48 0,-0.48 C 65.4,0 0,0 0,0"
       id="path126"
       inkscape:connector-curvature="0" />
  </g>
  <g
     transform="translate(1.6,25.83)"
     style="fill:#161413;fill-rule:nonzero;stroke:none"
     id="g128">
    <path
       d="m 0,12 c 0,0 0.48,0 0.48,0 0,0 0,-12 0,-12 C 0.48,0 0,0 0,0"
       id="path130"
       inkscape:connector-curvature="0" />
  </g>
  <g
     transform="translate(8.737,27.695)"
     style="fill:#161413;fill-rule:evenodd;stroke:none"
     id="g132">
    <path
       d="M 2.042,0.259 C 2.042,0.02 2.042,0 1.813,0 1.195,0.638 0.318,0.638 0,0.638 c 0,0 0,0.309 0,0.309 0.199,0 0.787,0 1.304,-0.259 0,0 0,5.16 0,5.16 0,0.358 -0.029,0.478 -0.925,0.478 0,0 -0.32,0 -0.32,0 0,0 0,0.309 0,0.309 0,0 3.229,0 3.229,0 0,0 0,-0.309 0,-0.309 0,0 -0.32,0 -0.32,0 -0.896,0 -0.926,-0.109 -0.926,-0.478 0,0 0,-5.589 0,-5.589 z"
       id="path134"
       inkscape:connector-curvature="0" />
  </g>
  <g
     transform="translate(13.737,27.695)"
     style="fill:#161413;fill-rule:evenodd;stroke:none"
     id="g136">
    <path
       d="M 2.042,0.259 C 2.042,0.02 2.042,0 1.813,0 1.195,0.638 0.318,0.638 0,0.638 c 0,0 0,0.309 0,0.309 0.199,0 0.787,0 1.304,-0.259 0,0 0,5.16 0,5.16 0,0.358 -0.029,0.478 -0.925,0.478 0,0 -0.32,0 -0.32,0 0,0 0,0.309 0,0.309 0,0 3.229,0 3.229,0 0,0 0,-0.309 0,-0.309 0,0 -0.32,0 -0.32,0 -0.896,0 -0.926,-0.109 -0.926,-0.478 0,0 0,-5.589 0,-5.589 z"
       id="path138"
       inkscape:connector-curvature="0" />
  </g>
  <g
     transform="translate(18.737,27.695)"
     style="fill:#161413;fill-rule:evenodd;stroke:none"
     id="g140">
    <path
       d="M 2.042,0.259 C 2.042,0.02 2.042,0 1.813,0 1.195,0.638 0.318,0.638 0,0.638 c 0,0 0,0.309 0,0.309 0.199,0 0.787,0 1.304,-0.259 0,0 0,5.16 0,5.16 0,0.358 -0.029,0.478 -0.925,0.478 0,0 -0.32,0 -0.32,0 0,0 0,0.309 0,0.309 0,0 3.229,0 3.229,0 0,0 0,-0.309 0,-0.309 0,0 -0.32,0 -0.32,0 -0.896,0 -0.926,-0.109 -0.926,-0.478 0,0 0,-5.589 0,-5.589 z"
       id="path142"
       inkscape:connector-curvature="0" />
  </g>
  <g
     transform="translate(23.737,27.695)"
     style="fill:#161413;fill-rule:evenodd;stroke:none"
     id="g144">
    <path
       d="M 2.042,0.259 C 2.042,0.02 2.042,0 1.813,0 1.195,0.638 0.318,0.638 0,0.638 c 0,0 0,0.309 0,0.309 0.199,0 0.787,0 1.304,-0.259 0,0 0,5.16 0,5.16 0,0.358 -0.029,0.478 -0.925,0.478 0,0 -0.32,0 -0.32,0 0,0 0,0.309 0,0.309 0,0 3.229,0 3.229,0 0,0 0,-0.309 0,-0.309 0,0 -0.32,0 -0.32,0 -0.896,0 -0.926,-0.109 -0.926,-0.478 0,0 0,-5.589 0,-5.589 z"
       id="path146"
       inkscape:connector-curvature="0" />
  </g>
  <g
     transform="translate(28.737,27.695)"
     style="fill:#161413;fill-rule:evenodd;stroke:none"
     id="g148">
    <path
       d="M 2.042,0.259 C 2.042,0.02 2.042,0 1.813,0 1.195,0.638 0.318,0.638 0,0.638 c 0,0 0,0.309 0,0.309 0.199,0 0.787,0 1.304,-0.259 0,0 0,5.16 0,5.16 0,0.358 -0.029,0.478 -0.925,0.478 0,0 -0.32,0 -0.32,0 0,0 0,0.309 0,0.309 0,0 3.229,0 3.229,0 0,0 0,-0.309 0,-0.309 0,0 -0.32,0 -0.32,0 -0.896,0 -0.926,-0.109 -0.926,-0.478 0,0 0,-5.589 0,-5.589 z"
       id="path150"
       inkscape:connector-curvature="0" />
  </g>
  <g
     transform="translate(33.489,27.695)"
     style="fill:#161413;fill-rule:evenodd;stroke:none"
     id="g152">
    <path
       d="M 4.194,3.447 C 4.194,2.65 4.144,1.853 3.796,1.115 3.337,0.159 2.52,0 2.101,0 1.504,0 0.777,0.259 0.368,1.186 0.049,1.873 0,2.65 0,3.447 0,4.195 0.04,5.091 0.448,5.848 0.877,6.655 1.603,6.854 2.091,6.854 2.63,6.854 3.386,6.645 3.825,5.698 4.144,5.011 4.194,4.234 4.194,3.447 z M 2.091,6.635 C 1.703,6.635 1.115,6.386 0.936,5.43 0.827,4.831 0.827,3.915 0.827,3.327 c 0,-0.637 0,-1.295 0.079,-1.833 0.189,-1.185 0.936,-1.275 1.185,-1.275 0.33,0 0.987,0.18 1.176,1.166 0.1,0.558 0.1,1.314 0.1,1.942 0,0.747 0,1.425 -0.11,2.063 C 3.108,6.336 2.54,6.635 2.091,6.635 z"
       id="path154"
       inkscape:connector-curvature="0" />
  </g>
  <g
     transform="translate(38.489,27.695)"
     style="fill:#161413;fill-rule:evenodd;stroke:none"
     id="g156">
    <path
       d="M 4.194,3.447 C 4.194,2.65 4.144,1.853 3.796,1.115 3.337,0.159 2.52,0 2.101,0 1.504,0 0.777,0.259 0.368,1.186 0.049,1.873 0,2.65 0,3.447 0,4.195 0.04,5.091 0.448,5.848 0.877,6.655 1.603,6.854 2.091,6.854 2.63,6.854 3.386,6.645 3.825,5.698 4.144,5.011 4.194,4.234 4.194,3.447 z M 2.091,6.635 C 1.703,6.635 1.115,6.386 0.936,5.43 0.827,4.831 0.827,3.915 0.827,3.327 c 0,-0.637 0,-1.295 0.079,-1.833 0.189,-1.185 0.936,-1.275 1.185,-1.275 0.33,0 0.987,0.18 1.176,1.166 0.1,0.558 0.1,1.314 0.1,1.942 0,0.747 0,1.425 -0.11,2.063 C 3.108,6.336 2.54,6.635 2.091,6.635 z"
       id="path158"
       inkscape:connector-curvature="0" />
  </g>
  <g
     transform="translate(43.489,27.695)"
     style="fill:#161413;fill-rule:evenodd;stroke:none"
     id="g160">
    <path
       d="M 4.194,3.447 C 4.194,2.65 4.144,1.853 3.796,1.115 3.337,0.159 2.52,0 2.101,0 1.504,0 0.777,0.259 0.368,1.186 0.049,1.873 0,2.65 0,3.447 0,4.195 0.04,5.091 0.448,5.848 0.877,6.655 1.603,6.854 2.091,6.854 2.63,6.854 3.386,6.645 3.825,5.698 4.144,5.011 4.194,4.234 4.194,3.447 z M 2.091,6.635 C 1.703,6.635 1.115,6.386 0.936,5.43 0.827,4.831 0.827,3.915 0.827,3.327 c 0,-0.637 0,-1.295 0.079,-1.833 0.189,-1.185 0.936,-1.275 1.185,-1.275 0.33,0 0.987,0.18 1.176,1.166 0.1,0.558 0.1,1.314 0.1,1.942 0,0.747 0,1.425 -0.11,2.063 C 3.108,6.336 2.54,6.635 2.091,6.635 z"
       id="path162"
       inkscape:connector-curvature="0" />
  </g>
  <g
     transform="translate(48.489,27.695)"
     style="fill:#161413;fill-rule:evenodd;stroke:none"
     id="g164">
    <path
       d="M 4.194,3.447 C 4.194,2.65 4.144,1.853 3.796,1.115 3.337,0.159 2.52,0 2.101,0 1.504,0 0.777,0.259 0.368,1.186 0.049,1.873 0,2.65 0,3.447 0,4.195 0.04,5.091 0.448,5.848 0.877,6.655 1.603,6.854 2.091,6.854 2.63,6.854 3.386,6.645 3.825,5.698 4.144,5.011 4.194,4.234 4.194,3.447 z M 2.091,6.635 C 1.703,6.635 1.115,6.386 0.936,5.43 0.827,4.831 0.827,3.915 0.827,3.327 c 0,-0.637 0,-1.295 0.079,-1.833 0.189,-1.185 0.936,-1.275 1.185,-1.275 0.33,0 0.987,0.18 1.176,1.166 0.1,0.558 0.1,1.314 0.1,1.942 0,0.747 0,1.425 -0.11,2.063 C 3.108,6.336 2.54,6.635 2.091,6.635 z"
       id="path166"
       inkscape:connector-curvature="0" />
  </g>
  <g
     transform="translate(53.489,27.695)"
     style="fill:#161413;fill-rule:evenodd;stroke:none"
     id="g168">
    <path
       d="M 4.194,3.447 C 4.194,2.65 4.144,1.853 3.796,1.115 3.337,0.159 2.52,0 2.101,0 1.504,0 0.777,0.259 0.368,1.186 0.049,1.873 0,2.65 0,3.447 0,4.195 0.04,5.091 0.448,5.848 0.877,6.655 1.603,6.854 2.091,6.854 2.63,6.854 3.386,6.645 3.825,5.698 4.144,5.011 4.194,4.234 4.194,3.447 z M 2.091,6.635 C 1.703,6.635 1.115,6.386 0.936,5.43 0.827,4.831 0.827,3.915 0.827,3.327 c 0,-0.637 0,-1.295 0.079,-1.833 0.189,-1.185 0.936,-1.275 1.185,-1.275 0.33,0 0.987,0.18 1.176,1.166 0.1,0.558 0.1,1.314 0.1,1.942 0,0.747 0,1.425 -0.11,2.063 C 3.108,6.336 2.54,6.635 2.091,6.635 z"
       id="path170"
       inkscape:connector-curvature="0" />
  </g>
  <g
     transform="translate(58.489,27.695)"
     style="fill:#161413;fill-rule:evenodd;stroke:none"
     id="g172">
    <path
       d="M 4.194,3.447 C 4.194,2.65 4.144,1.853 3.796,1.115 3.337,0.159 2.52,0 2.101,0 1.504,0 0.777,0.259 0.368,1.186 0.049,1.873 0,2.65 0,3.447 0,4.195 0.04,5.091 0.448,5.848 0.877,6.655 1.603,6.854 2.091,6.854 2.63,6.854 3.386,6.645 3.825,5.698 4.144,5.011 4.194,4.234 4.194,3.447 z M 2.091,6.635 C 1.703,6.635 1.115,6.386 0.936,5.43 0.827,4.831 0.827,3.915 0.827,3.327 c 0,-0.637 0,-1.295 0.079,-1.833 0.189,-1.185 0.936,-1.275 1.185,-1.275 0.33,0 0.987,0.18 1.176,1.166 0.1,0.558 0.1,1.314 0.1,1.942 0,0.747 0,1.425 -0.11,2.063 C 3.108,6.336 2.54,6.635 2.091,6.635 z"
       id="path174"
       inkscape:connector-curvature="0" />
  </g>
  <g
     transform="translate(68.35,25.83)"
     style="fill:#161413;fill-rule:nonzero;stroke:none"
     id="g176">
    <path
       d="m 0,12 c 0,0 0.48,0 0.48,0 0,0 0,-12 0,-12 C 0.48,0 0,0 0,0"
       id="path178"
       inkscape:connector-curvature="0" />
  </g>
  <g
     transform="translate(74.879,27.416)"
     style="fill:#161413;fill-rule:evenodd;stroke:none"
     id="g180">
    <path
       d="m 1.435,3.158 c 0,0 0,-3.158 0,-3.158 C 1.435,0 0,0.109 0,0.109 c 0,0 0,0.309 0,0.309 0.698,0 0.777,0.07 0.777,0.558 0,0 0,5.938 0,5.938 0,0 0.249,0 0.249,0 0.01,-0.01 0.09,-0.149 0.359,-0.618 0.149,0.229 0.567,0.727 1.305,0.727 1.185,0 2.221,-0.976 2.221,-2.261 0,-1.265 -0.976,-2.251 -2.112,-2.251 -0.776,0 -1.205,0.467 -1.364,0.647 z m 0.029,2.62 c 0,0 0,-2.052 0,-2.052 0,-0.189 0,-0.2 0.111,-0.359 C 1.962,2.81 2.51,2.729 2.749,2.729 c 0.449,0 0.808,0.26 1.047,0.638 0.259,0.408 0.288,0.977 0.288,1.385 0,0.369 -0.019,0.967 -0.308,1.415 C 3.567,6.476 3.188,6.805 2.65,6.805 2.201,6.805 1.843,6.565 1.604,6.196 1.464,5.987 1.464,5.958 1.464,5.778 z"
       id="path182"
       inkscape:connector-curvature="0" />
  </g>
  <g
     transform="translate(80.429,27.665)"
     style="fill:#161413;fill-rule:evenodd;stroke:none"
     id="g184">
    <path
       d="m 1.435,2.262 c 0,0 -1.396,0.109 -1.396,0.109 0,0 0,0.309 0,0.309 0.649,0 0.737,0.06 0.737,0.547 0,0 0,2.681 0,2.681 0,0.448 -0.109,0.448 -0.776,0.448 0,0 0,0.309 0,0.309 0,0 2.132,0 2.132,0 0,0 0,-0.309 0,-0.309 -0.657,0 -0.697,-0.049 -0.697,-0.438 0,0 0,-3.656 0,-3.656 z M 1.475,0.528 C 1.475,0.209 1.225,0 0.946,0 0.638,0 0.418,0.269 0.418,0.528 c 0,0.269 0.22,0.528 0.528,0.528 0.279,0 0.529,-0.209 0.529,-0.528 z"
       id="path186"
       inkscape:connector-curvature="0" />
  </g>
  <g
     transform="translate(83.168,29.927)"
     style="fill:#161413;fill-rule:evenodd;stroke:none"
     id="g188">
    <path
       d="m 0.778,0.976 c 0,0 0,2.67 0,2.67 0,0.448 -0.11,0.448 -0.778,0.448 0,0 0,0.309 0,0.309 0,0 2.243,0 2.243,0 0,0 0,-0.309 0,-0.309 -0.668,0 -0.778,0 -0.778,-0.448 0,0 0,-1.833 0,-1.833 0,-1.036 0.707,-1.595 1.345,-1.595 0.628,0 0.737,0.539 0.737,1.107 0,0 0,2.321 0,2.321 0,0.448 -0.109,0.448 -0.776,0.448 0,0 0,0.309 0,0.309 0,0 2.241,0 2.241,0 0,0 0,-0.309 0,-0.309 -0.518,0 -0.768,0 -0.777,-0.298 0,0 0,-1.904 0,-1.904 0,-0.856 0,-1.165 -0.309,-1.524 C 3.786,0.199 3.457,0 2.88,0 2.153,0 1.685,0.428 1.406,1.046 c 0,0 0,-1.046 0,-1.046 C 1.406,0 0,0.109 0,0.109 c 0,0 0,0.309 0,0.309 0.699,0 0.778,0.07 0.778,0.558 z"
       id="path190"
       inkscape:connector-curvature="0" />
  </g>
  <g
     transform="translate(88.768,29.867)"
     style="fill:#161413;fill-rule:evenodd;stroke:none"
     id="g192">
    <path
       d="m 2.899,3.706 c 0.04,0.399 0.309,0.817 0.778,0.817 0.209,0 0.816,-0.14 0.816,-0.947 0,0 0,-0.557 0,-0.557 0,0 -0.249,0 -0.249,0 0,0 0,0.557 0,0.557 0,0.578 -0.249,0.638 -0.358,0.638 -0.329,0 -0.368,-0.448 -0.368,-0.498 0,0 0,-1.992 0,-1.992 0,-0.419 0,-0.808 -0.36,-1.176 C 2.77,0.159 2.271,0 1.794,0 0.977,0 0.289,0.468 0.289,1.125 c 0,0.299 0.199,0.469 0.459,0.469 0.278,0 0.458,-0.199 0.458,-0.458 0,-0.12 -0.05,-0.448 -0.508,-0.459 0.269,-0.349 0.757,-0.458 1.075,-0.458 0.489,0 1.057,0.389 1.057,1.275 0,0 0,0.368 0,0.368 C 2.321,1.893 1.624,1.923 0.997,2.222 0.25,2.56 0,3.078 0,3.517 0,4.323 0.967,4.572 1.595,4.572 2.252,4.572 2.71,4.174 2.899,3.706 z M 2.83,2.072 c 0,0 0,0.996 0,0.996 0,0.947 -0.718,1.286 -1.166,1.286 -0.488,0 -0.896,-0.349 -0.896,-0.847 0,-0.548 0.418,-1.375 2.062,-1.435 z"
       id="path194"
       inkscape:connector-curvature="0" />
  </g>
  <g
     transform="translate(93.629,29.927)"
     style="fill:#161413;fill-rule:evenodd;stroke:none"
     id="g196">
    <path
       d="m 1.385,1.095 c 0,0 0,-1.095 0,-1.095 C 1.385,0 0,0.109 0,0.109 c 0,0 0,0.309 0,0.309 0.698,0 0.777,0.07 0.777,0.558 0,0 0,2.67 0,2.67 0,0.448 -0.11,0.448 -0.777,0.448 0,0 0,0.309 0,0.309 0,0 2.401,0 2.401,0 0,0 0,-0.309 0,-0.309 0,0 -0.209,0 -0.209,0 -0.738,0 -0.757,-0.109 -0.757,-0.468 0,0 0,-1.535 0,-1.535 0,-0.986 0.418,-1.873 1.176,-1.873 0.069,0 0.089,0 0.109,0.01 -0.03,0.011 -0.229,0.13 -0.229,0.389 0,0.279 0.209,0.429 0.428,0.429 0.179,0 0.428,-0.12 0.428,-0.439 C 3.347,0.289 3.038,0 2.611,0 1.883,0 1.525,0.667 1.385,1.095 z"
       id="path198"
       inkscape:connector-curvature="0" />
  </g>
  <g
     transform="translate(97.539,30.036)"
     style="fill:#161413;fill-rule:evenodd;stroke:none"
     id="g200">
    <path
       d="M 3.946,0.946 C 4.205,0.319 4.712,0.309 4.872,0.309 c 0,0 0,-0.309 0,-0.309 0,0 -1.614,0 -1.614,0 0,0 0,0.309 0,0.309 0.309,0.01 0.468,0.179 0.468,0.428 0,0.1 -0.01,0.119 -0.06,0.24 0,0 -1.005,2.45 -1.005,2.45 0,0 -1.107,-2.68 -1.107,-2.68 -0.04,-0.099 -0.059,-0.14 -0.059,-0.179 0,-0.259 0.369,-0.259 0.557,-0.259 0,0 0,-0.309 0,-0.309 C 2.052,0 0,0 0,0 c 0,0 0,0.309 0,0.309 0.479,0 0.667,0 0.807,0.348 0,0 1.494,3.637 1.494,3.637 C 2.251,4.424 2.113,4.752 2.052,4.882 1.833,5.43 1.554,6.117 0.916,6.117 0.867,6.117 0.638,6.117 0.449,5.938 0.757,5.898 0.837,5.679 0.837,5.52 0.837,5.261 0.648,5.101 0.418,5.101 0.219,5.101 0,5.231 0,5.529 c 0,0.449 0.418,0.807 0.916,0.807 0.628,0 1.037,-0.567 1.276,-1.136 0,0 1.754,-4.254 1.754,-4.254 z"
       id="path202"
       inkscape:connector-curvature="0" />
  </g>
  <g
     transform="translate(133.85,25.83)"
     style="fill:#161413;fill-rule:nonzero;stroke:none"
     id="g204">
    <path
       d="m 0,12 c 0,0 0.48,0 0.48,0 0,0 0,-12 0,-12 C 0.48,0 0,0 0,0"
       id="path206"
       inkscape:connector-curvature="0" />
  </g>
  <g
     transform="translate(1.85,37.85)"
     style="fill:#161413;fill-rule:nonzero;stroke:none"
     id="g208">
    <path
       d="m 0,0.48 c 0,0 132.12,0 132.12,0 0,0 0,-0.48 0,-0.48 C 132.12,0 0,0 0,0"
       id="path210"
       inkscape:connector-curvature="0" />
  </g>
  <g
     transform="translate(1.85,39.85)"
     style="fill:#161413;fill-rule:nonzero;stroke:none"
     id="g212">
    <path
       d="m 0,0.48 c 0,0 132.12,0 132.12,0 0,0 0,-0.48 0,-0.48 C 132.12,0 0,0 0,0"
       id="path214"
       inkscape:connector-curvature="0" />
  </g>
  <g
     transform="translate(1.6,40.33)"
     style="fill:#161413;fill-rule:nonzero;stroke:none"
     id="g216">
    <path
       d="m 0,12 c 0,0 0.48,0 0.48,0 0,0 0,-12 0,-12 C 0.48,0 0,0 0,0"
       id="path218"
       inkscape:connector-curvature="0" />
  </g>
  <g
     transform="translate(43.487,41.945)"
     style="fill:#161413;fill-rule:evenodd;stroke:none"
     id="g220">
    <path
       d="M 2.042,0.259 C 2.042,0.02 2.042,0 1.813,0 1.195,0.638 0.318,0.638 0,0.638 c 0,0 0,0.309 0,0.309 0.199,0 0.787,0 1.304,-0.259 0,0 0,5.16 0,5.16 0,0.358 -0.029,0.478 -0.925,0.478 0,0 -0.32,0 -0.32,0 0,0 0,0.309 0,0.309 0,0 3.229,0 3.229,0 0,0 0,-0.309 0,-0.309 0,0 -0.32,0 -0.32,0 -0.896,0 -0.926,-0.109 -0.926,-0.478 0,0 0,-5.589 0,-5.589 z"
       id="path222"
       inkscape:connector-curvature="0" />
  </g>
  <g
     transform="translate(48.268,41.945)"
     style="fill:#161413;fill-rule:evenodd;stroke:none"
     id="g224">
    <path
       d="m 3.238,3.467 c 0,0 0,0.318 0,0.318 0,2.332 -1.036,2.79 -1.614,2.79 -0.169,0 -0.707,-0.02 -0.976,-0.358 0.438,0 0.518,-0.289 0.518,-0.459 C 1.166,5.449 0.927,5.3 0.708,5.3 0.549,5.3 0.25,5.39 0.25,5.779 c 0,0.667 0.537,1.075 1.385,1.075 1.285,0 2.5,-1.355 2.5,-3.496 C 4.135,0.677 2.989,0 2.103,0 1.555,0 1.066,0.179 0.638,0.627 0.229,1.075 0,1.494 0,2.241 0,3.487 0.877,4.463 1.993,4.463 2.601,4.463 3.009,4.045 3.238,3.467 z M 2.003,4.234 c -0.159,0 -0.617,0 -0.927,-0.627 C 0.897,3.238 0.897,2.739 0.897,2.251 c 0,-0.538 0,-1.006 0.209,-1.375 0.269,-0.498 0.648,-0.627 0.997,-0.627 0.458,0 0.787,0.339 0.956,0.787 0.12,0.319 0.16,0.947 0.16,1.405 0,0.827 -0.339,1.793 -1.216,1.793 z"
       id="path226"
       inkscape:connector-curvature="0" />
  </g>
  <g
     transform="translate(53.268,41.945)"
     style="fill:#161413;fill-rule:evenodd;stroke:none"
     id="g228">
    <path
       d="M 1.206,2.082 C 0.748,1.783 0.708,1.445 0.708,1.275 c 0,-0.608 0.647,-1.026 1.354,-1.026 0.728,0 1.366,0.518 1.366,1.236 0,0.567 -0.389,1.046 -0.987,1.394 0,0 -1.235,-0.797 -1.235,-0.797 z M 2.66,3.029 C 3.378,2.66 3.866,2.142 3.866,1.485 3.866,0.568 2.979,0 2.072,0 1.076,0 0.27,0.738 0.27,1.663 0.27,1.843 0.289,2.291 0.708,2.76 0.817,2.879 1.186,3.128 1.436,3.297 0.857,3.586 0,4.145 0,5.131 0,6.187 1.017,6.854 2.062,6.854 3.188,6.854 4.135,6.028 4.135,4.961 4.135,4.603 4.025,4.155 3.646,3.736 3.457,3.527 3.298,3.427 2.66,3.029 z M 1.664,3.447 c 0,0 1.226,0.777 1.226,0.777 0.279,0.189 0.747,0.488 0.747,1.096 0,0.737 -0.747,1.255 -1.565,1.255 -0.856,0 -1.573,-0.618 -1.573,-1.444 0,-0.578 0.318,-1.216 1.165,-1.684 z"
       id="path230"
       inkscape:connector-curvature="0" />
  </g>
  <g
     transform="translate(58.129,41.835)"
     style="fill:#161413;fill-rule:evenodd;stroke:none"
     id="g232">
    <path
       d="m 2.65,5.101 c 0,0 0,0.867 0,0.867 0,0.359 -0.02,0.468 -0.757,0.468 0,0 -0.209,0 -0.209,0 0,0 0,0.309 0,0.309 0,0 2.699,0 2.699,0 0,0 0,-0.309 0,-0.309 0,0 -0.209,0 -0.209,0 -0.737,0 -0.757,-0.109 -0.757,-0.468 0,0 0,-0.867 0,-0.867 0,0 0.996,0 0.996,0 0,0 0,-0.309 0,-0.309 0,0 -0.996,0 -0.996,0 0,0 0,-4.532 0,-4.532 C 3.417,0.06 3.417,0 3.258,0 3.168,0 3.138,0 3.059,0.12 3.059,0.12 0,4.792 0,4.792 c 0,0 0,0.309 0,0.309 0,0 2.65,0 2.65,0 z M 2.71,4.792 c 0,0 -2.431,0 -2.431,0 0,0 2.431,-3.716 2.431,-3.716 0,0 0,3.716 0,3.716 z"
       id="path234"
       inkscape:connector-curvature="0" />
  </g>
  <g
     transform="translate(68.35,40.33)"
     style="fill:#161413;fill-rule:nonzero;stroke:none"
     id="g236">
    <path
       d="m 0,12 c 0,0 0.48,0 0.48,0 0,0 0,-12 0,-12 C 0.48,0 0,0 0,0"
       id="path238"
       inkscape:connector-curvature="0" />
  </g>
  <g
     transform="translate(74.939,41.666)"
     style="fill:#161413;fill-rule:evenodd;stroke:none"
     id="g240">
    <path
       d="m 3.447,6.366 c 0,0 0,0.657 0,0.657 0,0 1.464,-0.109 1.464,-0.109 0,0 0,-0.309 0,-0.309 -0.697,0 -0.776,-0.07 -0.776,-0.558 0,0 0,-6.047 0,-6.047 0,0 -1.435,0.109 -1.435,0.109 0,0 0,0.309 0,0.309 0.697,0 0.776,0.07 0.776,0.558 0,0 0,2.152 0,2.152 C 3.187,2.769 2.76,2.511 2.222,2.511 1.046,2.511 0,3.487 0,4.772 0,6.037 0.976,7.023 2.112,7.023 2.75,7.023 3.198,6.685 3.447,6.366 z m 0,-2.67 c 0,0 0,2.042 0,2.042 0,0.18 0,0.199 -0.11,0.369 C 3.038,6.585 2.59,6.805 2.162,6.805 1.714,6.805 1.354,6.546 1.115,6.167 0.856,5.759 0.827,5.19 0.827,4.782 0.827,4.413 0.847,3.815 1.136,3.367 1.345,3.059 1.723,2.729 2.262,2.729 c 0.348,0 0.766,0.15 1.075,0.598 0.11,0.17 0.11,0.19 0.11,0.369 z"
       id="path242"
       inkscape:connector-curvature="0" />
  </g>
  <g
     transform="translate(80.379,44.117)"
     style="fill:#161413;fill-rule:evenodd;stroke:none"
     id="g244">
    <path
       d="m 0.837,1.952 c 0.06,-1.484 0.897,-1.733 1.236,-1.733 1.025,0 1.125,1.345 1.125,1.733 0,0 -2.361,0 -2.361,0 z M 0.826,2.161 c 0,0 2.781,0 2.781,0 0.218,0 0.249,0 0.249,-0.209 C 3.856,0.966 3.318,0 2.073,0 0.916,0 0,1.025 0,2.272 c 0,1.335 1.046,2.3 2.192,2.3 1.216,0 1.664,-1.105 1.664,-1.295 0,-0.099 -0.08,-0.119 -0.13,-0.119 -0.09,0 -0.109,0.06 -0.13,0.139 C 3.247,4.323 2.351,4.323 2.251,4.323 1.753,4.323 1.355,4.025 1.125,3.656 0.826,3.178 0.826,2.521 0.826,2.161 z"
       id="path246"
       inkscape:connector-curvature="0" />
  </g>
  <g
     transform="translate(84.689,44.117)"
     style="fill:#161413;fill-rule:evenodd;stroke:none"
     id="g248">
    <path
       d="m 0.827,2.291 c 0,-1.624 0.816,-2.042 1.345,-2.042 0.09,0 0.717,0.01 1.065,0.368 -0.408,0.031 -0.468,0.329 -0.468,0.458 0,0.26 0.18,0.459 0.458,0.459 0.259,0 0.459,-0.17 0.459,-0.468 C 3.686,0.388 2.929,0 2.162,0 0.916,0 0,1.075 0,2.311 c 0,1.275 0.986,2.261 2.141,2.261 1.335,0 1.655,-1.195 1.655,-1.295 0,-0.099 -0.1,-0.099 -0.13,-0.099 -0.09,0 -0.109,0.04 -0.13,0.099 C 3.248,4.204 2.6,4.323 2.231,4.323 1.703,4.323 0.827,3.896 0.827,2.291 z"
       id="path250"
       inkscape:connector-curvature="0" />
  </g>
  <g
     transform="translate(89.179,41.915)"
     style="fill:#161413;fill-rule:evenodd;stroke:none"
     id="g252">
    <path
       d="m 1.435,2.262 c 0,0 -1.396,0.109 -1.396,0.109 0,0 0,0.309 0,0.309 0.649,0 0.737,0.06 0.737,0.547 0,0 0,2.681 0,2.681 0,0.448 -0.109,0.448 -0.776,0.448 0,0 0,0.309 0,0.309 0,0 2.132,0 2.132,0 0,0 0,-0.309 0,-0.309 -0.657,0 -0.697,-0.049 -0.697,-0.438 0,0 0,-3.656 0,-3.656 z M 1.475,0.528 C 1.475,0.209 1.225,0 0.946,0 0.638,0 0.418,0.269 0.418,0.528 c 0,0.269 0.22,0.528 0.528,0.528 0.279,0 0.529,-0.209 0.529,-0.528 z"
       id="path254"
       inkscape:connector-curvature="0" />
  </g>
  <g
     transform="translate(91.918,44.177)"
     style="fill:#161413;fill-rule:evenodd;stroke:none"
     id="g256">
    <path
       d="m 0.778,0.976 c 0,0 0,2.67 0,2.67 0,0.448 -0.11,0.448 -0.778,0.448 0,0 0,0.309 0,0.309 0,0 2.243,0 2.243,0 0,0 0,-0.309 0,-0.309 -0.668,0 -0.778,0 -0.778,-0.448 0,0 0,-1.833 0,-1.833 0,-1.036 0.707,-1.595 1.345,-1.595 0.628,0 0.737,0.539 0.737,1.107 0,0 0,2.321 0,2.321 0,0.448 -0.109,0.448 -0.776,0.448 0,0 0,0.309 0,0.309 0,0 2.241,0 2.241,0 0,0 0,-0.309 0,-0.309 -0.668,0 -0.777,0 -0.777,-0.448 0,0 0,-1.833 0,-1.833 0,-1.036 0.708,-1.595 1.344,-1.595 0.628,0 0.738,0.539 0.738,1.107 0,0 0,2.321 0,2.321 0,0.448 -0.11,0.448 -0.777,0.448 0,0 0,0.309 0,0.309 0,0 2.242,0 2.242,0 0,0 0,-0.309 0,-0.309 -0.518,0 -0.768,0 -0.778,-0.298 0,0 0,-1.904 0,-1.904 0,-0.856 0,-1.165 -0.308,-1.524 C 6.556,0.199 6.228,0 5.65,0 4.813,0 4.374,0.597 4.205,0.976 4.066,0.109 3.328,0 2.88,0 2.153,0 1.685,0.428 1.406,1.046 c 0,0 0,-1.046 0,-1.046 C 1.406,0 0,0.109 0,0.109 c 0,0 0,0.309 0,0.309 0.699,0 0.778,0.07 0.778,0.558 z"
       id="path258"
       inkscape:connector-curvature="0" />
  </g>
  <g
     transform="translate(100.268,44.117)"
     style="fill:#161413;fill-rule:evenodd;stroke:none"
     id="g260">
    <path
       d="m 2.899,3.706 c 0.04,0.399 0.309,0.817 0.778,0.817 0.209,0 0.816,-0.14 0.816,-0.947 0,0 0,-0.557 0,-0.557 0,0 -0.249,0 -0.249,0 0,0 0,0.557 0,0.557 0,0.578 -0.249,0.638 -0.358,0.638 -0.329,0 -0.368,-0.448 -0.368,-0.498 0,0 0,-1.992 0,-1.992 0,-0.419 0,-0.808 -0.36,-1.176 C 2.77,0.159 2.271,0 1.794,0 0.977,0 0.289,0.468 0.289,1.125 c 0,0.299 0.199,0.469 0.459,0.469 0.278,0 0.458,-0.199 0.458,-0.458 0,-0.12 -0.05,-0.448 -0.508,-0.459 0.269,-0.349 0.757,-0.458 1.075,-0.458 0.489,0 1.057,0.389 1.057,1.275 0,0 0,0.368 0,0.368 C 2.321,1.893 1.624,1.923 0.997,2.222 0.25,2.56 0,3.078 0,3.517 0,4.323 0.967,4.572 1.595,4.572 2.252,4.572 2.71,4.174 2.899,3.706 z M 2.83,2.072 c 0,0 0,0.996 0,0.996 0,0.947 -0.718,1.286 -1.166,1.286 -0.488,0 -0.896,-0.349 -0.896,-0.847 0,-0.548 0.418,-1.375 2.062,-1.435 z"
       id="path262"
       inkscape:connector-curvature="0" />
  </g>
  <g
     transform="translate(105.179,41.666)"
     style="fill:#161413;fill-rule:evenodd;stroke:none"
     id="g264">
    <path
       d="M 1.435,0 C 1.435,0 0,0.109 0,0.109 c 0,0 0,0.309 0,0.309 0.697,0 0.776,0.07 0.776,0.558 0,0 0,5.181 0,5.181 0,0.448 -0.109,0.448 -0.776,0.448 0,0 0,0.309 0,0.309 0,0 2.211,0 2.211,0 0,0 0,-0.309 0,-0.309 -0.667,0 -0.776,0 -0.776,-0.448 0,0 0,-6.157 0,-6.157 z"
       id="path266"
       inkscape:connector-curvature="0" />
  </g>
  <g
     transform="translate(133.85,40.33)"
     style="fill:#161413;fill-rule:nonzero;stroke:none"
     id="g268">
    <path
       d="m 0,12 c 0,0 0.48,0 0.48,0 0,0 0,-12 0,-12 C 0.48,0 0,0 0,0"
       id="path270"
       inkscape:connector-curvature="0" />
  </g>
  <g
     transform="translate(1.85,52.1)"
     style="fill:#161413;fill-rule:nonzero;stroke:none"
     id="g272">
    <path
       d="m 0,0.48 c 0,0 132.12,0 132.12,0 0,0 0,-0.48 0,-0.48 C 132.12,0 0,0 0,0"
       id="path274"
       inkscape:connector-curvature="0" />
  </g>
</svg>
