<?xml version="1.0" encoding="UTF-8" standalone="no"?>
<svg
   xmlns:dc="http://purl.org/dc/elements/1.1/"
   xmlns:cc="http://creativecommons.org/ns#"
   xmlns:rdf="http://www.w3.org/1999/02/22-rdf-syntax-ns#"
   xmlns:svg="http://www.w3.org/2000/svg"
   xmlns="http://www.w3.org/2000/svg"
   xmlns:sodipodi="http://sodipodi.sourceforge.net/DTD/sodipodi-0.dtd"
   xmlns:inkscape="http://www.inkscape.org/namespaces/inkscape"
   width="305.79999"
   height="75.794998"
   viewBox="0 0 244.63999 60.635999"
   id="svg2"
   version="1.1"
   inkscape:version="0.48.0 r9654"
   sodipodi:docname="latex_source_code.ps(converted)-page1.svg">
  <metadata
     id="metadata348">
    <rdf:RDF>
      <cc:Work
         rdf:about="">
        <dc:format>image/svg+xml</dc:format>
        <dc:type
           rdf:resource="http://purl.org/dc/dcmitype/StillImage" />
        <dc:title></dc:title>
      </cc:Work>
    </rdf:RDF>
  </metadata>
  <defs
     id="defs346" />
  <sodipodi:namedview
     pagecolor="#ffffff"
     bordercolor="#666666"
     borderopacity="1"
     objecttolerance="10"
     gridtolerance="10"
     guidetolerance="10"
     inkscape:pageopacity="0"
     inkscape:pageshadow="2"
     inkscape:window-width="640"
     inkscape:window-height="480"
     id="namedview344"
     showgrid="false"
     fit-margin-top="2"
     fit-margin-right="2"
     fit-margin-bottom="2"
     fit-margin-left="2"
     inkscape:zoom="0.24418052"
     inkscape:cx="188.5625"
     inkscape:cy="-294.80875"
     inkscape:window-x="0"
     inkscape:window-y="24"
     inkscape:window-maximized="0"
     inkscape:current-layer="svg2" />
  <g
     transform="translate(7.957999,1.988)"
     style="fill:#161413;fill-rule:evenodd;stroke:none"
     id="g4">
    <path
       d="M 6.277,0 C 6.277,0 0.19,0 0.19,0 0.19,0 0,2.242 0,2.242 c 0,0 0.249,0 0.249,0 0.14,-1.604 0.289,-1.933 1.794,-1.933 0.179,0 0.438,0 0.538,0.02 0.209,0.04 0.209,0.149 0.209,0.379 0,0 0,5.25 0,5.25 0,0.339 0,0.478 -1.045,0.478 0,0 -0.4,0 -0.4,0 0,0 0,0.309 0,0.309 0,0 3.776,0 3.776,0 0,0 0,-0.309 0,-0.309 0,0 -0.398,0 -0.398,0 -1.046,0 -1.046,-0.139 -1.046,-0.478 0,0 0,-5.25 0,-5.25 0,-0.199 0,-0.339 0.179,-0.379 0.11,-0.02 0.379,-0.02 0.568,-0.02 1.504,0 1.654,0.329 1.793,1.933 0,0 0.249,0 0.249,0 C 6.466,2.242 6.277,0 6.277,0 z"
       id="path6"
       inkscape:connector-curvature="0" />
  </g>
  <g
     transform="translate(14.128999,4.27)"
     style="fill:#161413;fill-rule:evenodd;stroke:none"
     id="g8">
    <path
       d="m 0.837,1.952 c 0.06,-1.484 0.897,-1.733 1.236,-1.733 1.025,0 1.125,1.345 1.125,1.733 0,0 -2.361,0 -2.361,0 z M 0.826,2.161 c 0,0 2.781,0 2.781,0 0.218,0 0.249,0 0.249,-0.209 C 3.856,0.966 3.318,0 2.073,0 0.916,0 0,1.025 0,2.272 c 0,1.335 1.046,2.3 2.192,2.3 1.216,0 1.664,-1.105 1.664,-1.295 0,-0.099 -0.08,-0.119 -0.13,-0.119 -0.09,0 -0.109,0.06 -0.13,0.139 C 3.247,4.323 2.351,4.323 2.251,4.323 1.753,4.323 1.355,4.025 1.125,3.656 0.826,3.178 0.826,2.521 0.826,2.161 z"
       id="path10"
       inkscape:connector-curvature="0" />
  </g>
  <g
     transform="translate(18.767999,4.27)"
     style="fill:#161413;fill-rule:evenodd;stroke:none"
     id="g12">
    <path
       d="m 2.899,3.706 c 0.04,0.399 0.309,0.817 0.778,0.817 0.209,0 0.816,-0.14 0.816,-0.947 0,0 0,-0.557 0,-0.557 0,0 -0.249,0 -0.249,0 0,0 0,0.557 0,0.557 0,0.578 -0.249,0.638 -0.358,0.638 -0.329,0 -0.368,-0.448 -0.368,-0.498 0,0 0,-1.992 0,-1.992 0,-0.419 0,-0.808 -0.36,-1.176 C 2.77,0.159 2.271,0 1.794,0 0.977,0 0.289,0.468 0.289,1.125 c 0,0.299 0.199,0.469 0.459,0.469 0.278,0 0.458,-0.199 0.458,-0.458 0,-0.12 -0.05,-0.448 -0.508,-0.459 0.269,-0.349 0.757,-0.458 1.075,-0.458 0.489,0 1.057,0.389 1.057,1.275 0,0 0,0.368 0,0.368 C 2.321,1.893 1.624,1.923 0.997,2.222 0.25,2.56 0,3.078 0,3.517 0,4.323 0.967,4.572 1.595,4.572 2.252,4.572 2.71,4.174 2.899,3.706 z M 2.83,2.072 c 0,0 0,0.996 0,0.996 0,0.947 -0.718,1.286 -1.166,1.286 -0.488,0 -0.896,-0.349 -0.896,-0.847 0,-0.548 0.418,-1.375 2.062,-1.435 z"
       id="path14"
       inkscape:connector-curvature="0" />
  </g>
  <g
     transform="translate(23.667999,4.33)"
     style="fill:#161413;fill-rule:evenodd;stroke:none"
     id="g16">
    <path
       d="m 0.778,0.976 c 0,0 0,2.67 0,2.67 0,0.448 -0.11,0.448 -0.778,0.448 0,0 0,0.309 0,0.309 0,0 2.243,0 2.243,0 0,0 0,-0.309 0,-0.309 -0.668,0 -0.778,0 -0.778,-0.448 0,0 0,-1.833 0,-1.833 0,-1.036 0.707,-1.595 1.345,-1.595 0.628,0 0.737,0.539 0.737,1.107 0,0 0,2.321 0,2.321 0,0.448 -0.109,0.448 -0.776,0.448 0,0 0,0.309 0,0.309 0,0 2.241,0 2.241,0 0,0 0,-0.309 0,-0.309 -0.668,0 -0.777,0 -0.777,-0.448 0,0 0,-1.833 0,-1.833 0,-1.036 0.708,-1.595 1.344,-1.595 0.628,0 0.738,0.539 0.738,1.107 0,0 0,2.321 0,2.321 0,0.448 -0.11,0.448 -0.777,0.448 0,0 0,0.309 0,0.309 0,0 2.242,0 2.242,0 0,0 0,-0.309 0,-0.309 -0.518,0 -0.768,0 -0.778,-0.298 0,0 0,-1.904 0,-1.904 0,-0.856 0,-1.165 -0.308,-1.524 C 6.556,0.199 6.228,0 5.65,0 4.813,0 4.374,0.597 4.205,0.976 4.066,0.109 3.328,0 2.88,0 2.153,0 1.685,0.428 1.406,1.046 c 0,0 0,-1.046 0,-1.046 C 1.406,0 0,0.109 0,0.109 c 0,0 0,0.309 0,0.309 0.699,0 0.778,0.07 0.778,0.558 z"
       id="path18"
       inkscape:connector-curvature="0" />
  </g>
  <g
     transform="translate(102.699,1.928)"
     style="fill:#161413;fill-rule:evenodd;stroke:none"
     id="g20">
    <path
       d="m 1.913,3.657 c 0,0 1.683,0 1.683,0 1.196,0 2.272,-0.807 2.272,-1.803 C 5.868,0.877 4.881,0 3.516,0 3.516,0 0,0 0,0 c 0,0 0,0.309 0,0.309 0,0 0.239,0 0.239,0 0.766,0 0.787,0.11 0.787,0.469 0,0 0,5.25 0,5.25 0,0.359 -0.021,0.468 -0.787,0.468 0,0 -0.239,0 -0.239,0 0,0 0,0.309 0,0.309 0,0 2.939,0 2.939,0 0,0 0,-0.309 0,-0.309 0,0 -0.239,0 -0.239,0 -0.768,0 -0.787,-0.109 -0.787,-0.468 0,0 0,-2.371 0,-2.371 z M 1.882,3.398 c 0,0 0,-2.69 0,-2.69 0,-0.329 0.021,-0.399 0.489,-0.399 0,0 0.886,0 0.886,0 1.584,0 1.584,1.057 1.584,1.545 0,0.468 0,1.544 -1.584,1.544 0,0 -1.375,0 -1.375,0 z"
       id="path22"
       inkscape:connector-curvature="0" />
  </g>
  <g
     transform="translate(121.28,1.928)"
     style="fill:#161413;fill-rule:evenodd;stroke:none"
     id="g24">
    <path
       d="M 8.876,0.977 C 9.055,0.409 9.484,0.309 9.873,0.309 c 0,0 0,-0.309 0,-0.309 0,0 -2.093,0 -2.093,0 0,0 0,0.309 0,0.309 0.668,0.011 0.867,0.339 0.867,0.528 0,0.06 -0.03,0.14 -0.05,0.199 0,0 -1.495,4.603 -1.495,4.603 0,0 -1.594,-4.881 -1.594,-4.881 C 5.499,0.718 5.479,0.659 5.479,0.609 c 0,-0.3 0.577,-0.3 0.837,-0.3 0,0 0,-0.309 0,-0.309 0,0 -2.631,0 -2.631,0 0,0 0,0.309 0,0.309 0.569,0 0.778,0 0.897,0.359 0,0 0.219,0.698 0.219,0.698 0,0 -1.384,4.273 -1.384,4.273 0,0 -1.605,-4.901 -1.605,-4.901 -0.01,-0.03 -0.019,-0.1 -0.019,-0.129 0,-0.3 0.578,-0.3 0.837,-0.3 0,0 0,-0.309 0,-0.309 C 2.63,0 0,0 0,0 c 0,0 0,0.309 0,0.309 0.747,0 0.787,0.05 0.906,0.419 0,0 1.992,6.107 1.992,6.107 0.03,0.089 0.061,0.189 0.19,0.189 0.139,0 0.159,-0.07 0.199,-0.199 0,0 1.643,-5.061 1.643,-5.061 0,0 1.655,5.071 1.655,5.071 0.03,0.089 0.059,0.189 0.189,0.189 0.14,0 0.159,-0.07 0.199,-0.199 0,0 1.903,-5.848 1.903,-5.848 z"
       id="path26"
       inkscape:connector-curvature="0" />
  </g>
  <g
     transform="translate(143.699,1.928)"
     style="fill:#161413;fill-rule:evenodd;stroke:none"
     id="g28">
    <path
       d="m 0,0 c 0,0 0,0.309 0,0.309 0,0 0.239,0 0.239,0 0.766,0 0.787,0.11 0.787,0.469 0,0 0,5.25 0,5.25 0,0.359 -0.021,0.468 -0.787,0.468 0,0 -0.239,0 -0.239,0 0,0 0,0.309 0,0.309 0,0 3.646,0 3.646,0 C 5.32,6.805 6.695,5.33 6.695,3.457 6.695,1.565 5.349,0 3.646,0 3.646,0 0,0 0,0 z m 2.371,6.496 c -0.468,0 -0.489,-0.07 -0.489,-0.398 0,0 0,-5.39 0,-5.39 0,-0.329 0.021,-0.399 0.489,-0.399 0,0 0.996,0 0.996,0 0.618,0 1.305,0.22 1.813,0.927 0.429,0.588 0.518,1.444 0.518,2.221 0,1.107 -0.189,1.704 -0.548,2.193 -0.199,0.268 -0.767,0.846 -1.773,0.846 0,0 -1.006,0 -1.006,0 z"
       id="path30"
       inkscape:connector-curvature="0" />
  </g>
  <g
     transform="translate(163.179,1.928)"
     style="fill:#161413;fill-rule:evenodd;stroke:none"
     id="g32">
    <path
       d="m 5.469,4.235 c 0,0 -0.249,0 -0.249,0 -0.11,1.016 -0.249,2.261 -2.002,2.261 0,0 -0.818,0 -0.818,0 -0.467,0 -0.488,-0.07 -0.488,-0.398 0,0 0,-5.311 0,-5.311 0,-0.338 0,-0.478 0.947,-0.478 0,0 0.329,0 0.329,0 0,0 0,-0.309 0,-0.309 C 3.188,0 0,0 0,0 c 0,0 0,0.309 0,0.309 0,0 0.239,0 0.239,0 0.767,0 0.786,0.11 0.786,0.469 0,0 0,5.25 0,5.25 0,0.359 -0.019,0.468 -0.786,0.468 0,0 -0.239,0 -0.239,0 0,0 0,0.309 0,0.309 0,0 5.191,0 5.191,0 0,0 0.278,-2.57 0.278,-2.57 z"
       id="path34"
       inkscape:connector-curvature="0" />
  </g>
  <g
     transform="translate(183.179,1.959)"
     style="fill:#161413;fill-rule:evenodd;stroke:none"
     id="g36">
    <path
       d="M 5.469,0 C 5.469,0 0,0 0,0 c 0,0 0,0.308 0,0.308 0,0 0.239,0 0.239,0 0.767,0 0.786,0.11 0.786,0.469 0,0 0,5.22 0,5.22 0,0.359 -0.019,0.468 -0.786,0.468 0,0 -0.239,0 -0.239,0 0,0 0,0.309 0,0.309 0,0 3.188,0 3.188,0 0,0 0,-0.309 0,-0.309 0,0 -0.329,0 -0.329,0 -0.947,0 -0.947,-0.129 -0.947,-0.478 0,0 0,-2.451 0,-2.451 0,0 0.858,0 0.858,0 0.956,0 1.055,0.319 1.055,1.166 0,0 0.249,0 0.249,0 0,0 0,-2.64 0,-2.64 0,0 -0.249,0 -0.249,0 0,0.837 -0.099,1.165 -1.055,1.165 0,0 -0.858,0 -0.858,0 0,0 0,-2.52 0,-2.52 0,-0.329 0.021,-0.399 0.488,-0.399 0,0 1.196,0 1.196,0 1.495,0 1.744,0.558 1.903,1.933 0,0 0.249,0 0.249,0 C 5.748,2.241 5.469,0 5.469,0 z"
       id="path38"
       inkscape:connector-curvature="0" />
  </g>
  <g
     transform="translate(203.168,1.6)"
     style="fill:#161413;fill-rule:evenodd;stroke:none"
     id="g40">
    <path
       d="M 3.647,0.199 C 3.597,0.07 3.578,0 3.418,0 3.258,0 3.229,0.06 3.179,0.199 c 0,0 -2.062,5.957 -2.062,5.957 C 0.937,6.665 0.538,6.815 0,6.824 c 0,0 0,0.309 0,0.309 0,0 2.162,0 2.162,0 0,0 0,-0.309 0,-0.309 -0.498,0 -0.747,-0.249 -0.747,-0.508 0,-0.03 0.01,-0.129 0.021,-0.15 0,0 0.458,-1.304 0.458,-1.304 0,0 2.461,0 2.461,0 0,0 0.527,1.524 0.527,1.524 0.011,0.04 0.03,0.1 0.03,0.14 0,0.298 -0.557,0.298 -0.827,0.298 0,0 0,0.309 0,0.309 0,0 2.741,0 2.741,0 0,0 0,-0.309 0,-0.309 0,0 -0.18,0 -0.18,0 -0.598,0 -0.737,-0.07 -0.847,-0.398 0,0 -2.152,-6.227 -2.152,-6.227 z M 3.12,1.315 c 0,0 1.124,3.238 1.124,3.238 0,0 -2.241,0 -2.241,0 0,0 1.117,-3.238 1.117,-3.238 z"
       id="path42"
       inkscape:connector-curvature="0" />
  </g>
  <g
     transform="translate(222.699,1.928)"
     style="fill:#161413;fill-rule:evenodd;stroke:none"
     id="g44">
    <path
       d="m 1.913,3.657 c 0,0 1.683,0 1.683,0 1.196,0 2.272,-0.807 2.272,-1.803 C 5.868,0.877 4.881,0 3.516,0 3.516,0 0,0 0,0 c 0,0 0,0.309 0,0.309 0,0 0.239,0 0.239,0 0.766,0 0.787,0.11 0.787,0.469 0,0 0,5.25 0,5.25 0,0.359 -0.021,0.468 -0.787,0.468 0,0 -0.239,0 -0.239,0 0,0 0,0.309 0,0.309 0,0 2.939,0 2.939,0 0,0 0,-0.309 0,-0.309 0,0 -0.239,0 -0.239,0 -0.768,0 -0.787,-0.109 -0.787,-0.468 0,0 0,-2.371 0,-2.371 z M 1.882,3.398 c 0,0 0,-2.69 0,-2.69 0,-0.329 0.021,-0.399 0.489,-0.399 0,0 0.886,0 0.886,0 1.584,0 1.584,1.057 1.584,1.545 0,0.468 0,1.544 -1.584,1.544 0,0 -1.375,0 -1.375,0 z"
       id="path46"
       inkscape:connector-curvature="0" />
  </g>
  <g
     transform="translate(229.289,2.606)"
     style="fill:#161413;fill-rule:evenodd;stroke:none"
     id="g48">
    <path
       d="m 1.535,2.142 c 0,0 1.424,0 1.424,0 0,0 0,-0.309 0,-0.309 0,0 -1.424,0 -1.424,0 0,0 0,-1.833 0,-1.833 0,0 -0.249,0 -0.249,0 C 1.276,0.816 0.977,1.883 0,1.923 c 0,0 0,0.219 0,0.219 0,0 0.847,0 0.847,0 0,0 0,2.75 0,2.75 0,1.225 0.927,1.344 1.285,1.344 0.707,0 0.987,-0.707 0.987,-1.344 0,0 0,-0.569 0,-0.569 0,0 -0.249,0 -0.249,0 0,0 0,0.549 0,0.549 0,0.737 -0.299,1.115 -0.668,1.115 -0.667,0 -0.667,-0.906 -0.667,-1.076 0,0 0,-2.769 0,-2.769 z"
       id="path50"
       inkscape:connector-curvature="0" />
  </g>
  <g
     transform="translate(233.429,4.27)"
     style="fill:#161413;fill-rule:evenodd;stroke:none"
     id="g52">
    <path
       d="m 1.743,2.53 c 0.219,0.04 1.036,0.2 1.036,0.916 0,0.509 -0.348,0.908 -1.126,0.908 C 0.817,4.354 0.458,3.785 0.269,2.939 0.239,2.81 0.229,2.77 0.129,2.77 0,2.77 0,2.839 0,3.019 c 0,0 0,1.314 0,1.314 0,0.17 0,0.239 0.109,0.239 0.05,0 0.06,-0.009 0.25,-0.199 C 0.378,4.354 0.378,4.333 0.558,4.145 0.996,4.563 1.444,4.572 1.653,4.572 2.799,4.572 3.258,3.905 3.258,3.188 3.258,2.659 2.959,2.36 2.839,2.241 2.51,1.923 2.122,1.843 1.703,1.763 1.146,1.653 0.478,1.524 0.478,0.946 c 0,-0.348 0.259,-0.757 1.116,-0.757 1.096,0 1.145,0.897 1.166,1.206 0.01,0.089 0.099,0.089 0.119,0.089 0.13,0 0.13,-0.049 0.13,-0.239 0,0 0,-1.007 0,-1.007 C 3.009,0.069 3.009,0 2.899,0 2.849,0 2.829,0 2.699,0.119 2.67,0.159 2.57,0.249 2.53,0.278 2.151,0 1.743,0 1.594,0 0.378,0 0,0.667 0,1.225 0,1.574 0.159,1.853 0.428,2.072 0.747,2.331 1.025,2.391 1.743,2.53 z"
       id="path54"
       inkscape:connector-curvature="0" />
  </g>
  <g
     transform="translate(1.599999,12.253)"
     style="fill:#161413;fill-rule:nonzero;stroke:none"
     id="g56">
    <path
       d="m 0,0.48 c 0,0 241.44,0 241.44,0 0,0 0,-0.48 0,-0.48 C 241.44,0 0,0 0,0"
       id="path58"
       inkscape:connector-curvature="0" />
  </g>
  <g
     transform="translate(7.967999,14.178)"
     style="fill:#161413;fill-rule:evenodd;stroke:none"
     id="g60">
    <path
       d="M 2.033,0.22 C 1.944,0 1.913,0 1.685,0 1.685,0 0,0 0,0 c 0,0 0,0.309 0,0.309 0,0 0.239,0 0.239,0 0.768,0 0.788,0.11 0.788,0.469 0,0 0,4.981 0,4.981 0,0.269 0,0.737 -1.027,0.737 0,0 0,0.309 0,0.309 0,0 2.332,0 2.332,0 0,0 0,-0.309 0,-0.309 -1.026,0 -1.026,-0.468 -1.026,-0.737 0,0 0,-5.37 0,-5.37 0,0 0.01,0 0.01,0 0,0 2.401,6.197 2.401,6.197 0.05,0.129 0.1,0.219 0.199,0.219 0.11,0 0.14,-0.08 0.179,-0.189 0,0 2.451,-6.307 2.451,-6.307 0,0 0.01,0 0.01,0 0,0 0,5.719 0,5.719 0,0.359 -0.02,0.468 -0.787,0.468 0,0 -0.24,0 -0.24,0 0,0 0,0.309 0,0.309 0,0 2.86,0 2.86,0 0,0 0,-0.309 0,-0.309 0,0 -0.239,0 -0.239,0 -0.767,0 -0.787,-0.109 -0.787,-0.468 0,0 0,-5.25 0,-5.25 0,-0.359 0.02,-0.469 0.787,-0.469 0,0 0.239,0 0.239,0 0,0 0,-0.309 0,-0.309 0,0 -1.684,0 -1.684,0 -0.259,0 -0.259,0.01 -0.328,0.19 0,0 -2.183,5.609 -2.183,5.609 0,0 -2.161,-5.579 -2.161,-5.579 z"
       id="path62"
       inkscape:connector-curvature="0" />
  </g>
  <g
     transform="translate(17.017999,16.52)"
     style="fill:#161413;fill-rule:evenodd;stroke:none"
     id="g64">
    <path
       d="m 2.899,3.706 c 0.04,0.399 0.309,0.817 0.778,0.817 0.209,0 0.816,-0.14 0.816,-0.947 0,0 0,-0.557 0,-0.557 0,0 -0.249,0 -0.249,0 0,0 0,0.557 0,0.557 0,0.578 -0.249,0.638 -0.358,0.638 -0.329,0 -0.368,-0.448 -0.368,-0.498 0,0 0,-1.992 0,-1.992 0,-0.419 0,-0.808 -0.36,-1.176 C 2.77,0.159 2.271,0 1.794,0 0.977,0 0.289,0.468 0.289,1.125 c 0,0.299 0.199,0.469 0.459,0.469 0.278,0 0.458,-0.199 0.458,-0.458 0,-0.12 -0.05,-0.448 -0.508,-0.459 0.269,-0.349 0.757,-0.458 1.075,-0.458 0.489,0 1.057,0.389 1.057,1.275 0,0 0,0.368 0,0.368 C 2.321,1.893 1.624,1.923 0.997,2.222 0.25,2.56 0,3.078 0,3.517 0,4.323 0.967,4.572 1.595,4.572 2.252,4.572 2.71,4.174 2.899,3.706 z M 2.83,2.072 c 0,0 0,0.996 0,0.996 0,0.947 -0.718,1.286 -1.166,1.286 -0.488,0 -0.896,-0.349 -0.896,-0.847 0,-0.548 0.418,-1.375 2.062,-1.435 z"
       id="path66"
       inkscape:connector-curvature="0" />
  </g>
  <g
     transform="translate(21.917999,16.58)"
     style="fill:#161413;fill-rule:evenodd;stroke:none"
     id="g68">
    <path
       d="m 0.778,0.976 c 0,0 0,2.67 0,2.67 0,0.448 -0.11,0.448 -0.778,0.448 0,0 0,0.309 0,0.309 0,0 2.243,0 2.243,0 0,0 0,-0.309 0,-0.309 -0.668,0 -0.778,0 -0.778,-0.448 0,0 0,-1.833 0,-1.833 0,-1.036 0.707,-1.595 1.345,-1.595 0.628,0 0.737,0.539 0.737,1.107 0,0 0,2.321 0,2.321 0,0.448 -0.109,0.448 -0.776,0.448 0,0 0,0.309 0,0.309 0,0 2.241,0 2.241,0 0,0 0,-0.309 0,-0.309 -0.518,0 -0.768,0 -0.777,-0.298 0,0 0,-1.904 0,-1.904 0,-0.856 0,-1.165 -0.309,-1.524 C 3.786,0.199 3.457,0 2.88,0 2.153,0 1.685,0.428 1.406,1.046 c 0,0 0,-1.046 0,-1.046 C 1.406,0 0,0.109 0,0.109 c 0,0 0,0.309 0,0.309 0.699,0 0.778,0.07 0.778,0.558 z"
       id="path70"
       inkscape:connector-curvature="0" />
  </g>
  <g
     transform="translate(27.438999,16.52)"
     style="fill:#161413;fill-rule:evenodd;stroke:none"
     id="g72">
    <path
       d="m 0.827,2.291 c 0,-1.624 0.816,-2.042 1.345,-2.042 0.09,0 0.717,0.01 1.065,0.368 -0.408,0.031 -0.468,0.329 -0.468,0.458 0,0.26 0.18,0.459 0.458,0.459 0.259,0 0.459,-0.17 0.459,-0.468 C 3.686,0.388 2.929,0 2.162,0 0.916,0 0,1.075 0,2.311 c 0,1.275 0.986,2.261 2.141,2.261 1.335,0 1.655,-1.195 1.655,-1.295 0,-0.099 -0.1,-0.099 -0.13,-0.099 -0.09,0 -0.109,0.04 -0.13,0.099 C 3.248,4.204 2.6,4.323 2.231,4.323 1.703,4.323 0.827,3.896 0.827,2.291 z"
       id="path74"
       inkscape:connector-curvature="0" />
  </g>
  <g
     transform="translate(31.667999,14.069)"
     style="fill:#161413;fill-rule:evenodd;stroke:none"
     id="g76">
    <path
       d="m 0.778,6.157 c 0,0.448 -0.11,0.448 -0.778,0.448 0,0 0,0.309 0,0.309 0,0 2.243,0 2.243,0 0,0 0,-0.309 0,-0.309 -0.668,0 -0.778,0 -0.778,-0.448 0,0 0,-1.833 0,-1.833 0,-1.036 0.707,-1.595 1.345,-1.595 0.628,0 0.737,0.539 0.737,1.107 0,0 0,2.321 0,2.321 0,0.448 -0.109,0.448 -0.776,0.448 0,0 0,0.309 0,0.309 0,0 2.241,0 2.241,0 0,0 0,-0.309 0,-0.309 -0.518,0 -0.768,0 -0.777,-0.298 0,0 0,-1.904 0,-1.904 0,-0.856 0,-1.165 -0.309,-1.524 C 3.786,2.71 3.457,2.511 2.88,2.511 c -0.837,0 -1.275,0.597 -1.444,0.976 0,0 0,-3.487 0,-3.487 C 1.436,0 0,0.109 0,0.109 c 0,0 0,0.309 0,0.309 0.699,0 0.778,0.07 0.778,0.558 0,0 0,5.181 0,5.181 z"
       id="path78"
       inkscape:connector-curvature="0" />
  </g>
  <g
     transform="translate(37.128999,16.52)"
     style="fill:#161413;fill-rule:evenodd;stroke:none"
     id="g80">
    <path
       d="m 0.837,1.952 c 0.06,-1.484 0.897,-1.733 1.236,-1.733 1.025,0 1.125,1.345 1.125,1.733 0,0 -2.361,0 -2.361,0 z M 0.826,2.161 c 0,0 2.781,0 2.781,0 0.218,0 0.249,0 0.249,-0.209 C 3.856,0.966 3.318,0 2.073,0 0.916,0 0,1.025 0,2.272 c 0,1.335 1.046,2.3 2.192,2.3 1.216,0 1.664,-1.105 1.664,-1.295 0,-0.099 -0.08,-0.119 -0.13,-0.119 -0.09,0 -0.109,0.06 -0.13,0.139 C 3.247,4.323 2.351,4.323 2.251,4.323 1.753,4.323 1.355,4.025 1.125,3.656 0.826,3.178 0.826,2.521 0.826,2.161 z"
       id="path82"
       inkscape:connector-curvature="0" />
  </g>
  <g
     transform="translate(41.678999,16.52)"
     style="fill:#161413;fill-rule:evenodd;stroke:none"
     id="g84">
    <path
       d="m 1.743,2.53 c 0.219,0.04 1.036,0.2 1.036,0.916 0,0.509 -0.348,0.908 -1.126,0.908 C 0.817,4.354 0.458,3.785 0.269,2.939 0.239,2.81 0.229,2.77 0.129,2.77 0,2.77 0,2.839 0,3.019 c 0,0 0,1.314 0,1.314 0,0.17 0,0.239 0.109,0.239 0.05,0 0.06,-0.009 0.25,-0.199 C 0.378,4.354 0.378,4.333 0.558,4.145 0.996,4.563 1.444,4.572 1.653,4.572 2.799,4.572 3.258,3.905 3.258,3.188 3.258,2.659 2.959,2.36 2.839,2.241 2.51,1.923 2.122,1.843 1.703,1.763 1.146,1.653 0.478,1.524 0.478,0.946 c 0,-0.348 0.259,-0.757 1.116,-0.757 1.096,0 1.145,0.897 1.166,1.206 0.01,0.089 0.099,0.089 0.119,0.089 0.13,0 0.13,-0.049 0.13,-0.239 0,0 0,-1.007 0,-1.007 C 3.009,0.069 3.009,0 2.899,0 2.849,0 2.829,0 2.699,0.119 2.67,0.159 2.57,0.249 2.53,0.278 2.151,0 1.743,0 1.594,0 0.378,0 0,0.667 0,1.225 0,1.574 0.159,1.853 0.428,2.072 0.747,2.331 1.025,2.391 1.743,2.53 z"
       id="path86"
       inkscape:connector-curvature="0" />
  </g>
  <g
     transform="translate(45.538999,14.856)"
     style="fill:#161413;fill-rule:evenodd;stroke:none"
     id="g88">
    <path
       d="m 1.535,2.142 c 0,0 1.424,0 1.424,0 0,0 0,-0.309 0,-0.309 0,0 -1.424,0 -1.424,0 0,0 0,-1.833 0,-1.833 0,0 -0.249,0 -0.249,0 C 1.276,0.816 0.977,1.883 0,1.923 c 0,0 0,0.219 0,0.219 0,0 0.847,0 0.847,0 0,0 0,2.75 0,2.75 0,1.225 0.927,1.344 1.285,1.344 0.707,0 0.987,-0.707 0.987,-1.344 0,0 0,-0.569 0,-0.569 0,0 -0.249,0 -0.249,0 0,0 0,0.549 0,0.549 0,0.737 -0.299,1.115 -0.668,1.115 -0.667,0 -0.667,-0.906 -0.667,-1.076 0,0 0,-2.769 0,-2.769 z"
       id="path90"
       inkscape:connector-curvature="0" />
  </g>
  <g
     transform="translate(49.378999,16.52)"
     style="fill:#161413;fill-rule:evenodd;stroke:none"
     id="g92">
    <path
       d="m 0.837,1.952 c 0.06,-1.484 0.897,-1.733 1.236,-1.733 1.025,0 1.125,1.345 1.125,1.733 0,0 -2.361,0 -2.361,0 z M 0.826,2.161 c 0,0 2.781,0 2.781,0 0.218,0 0.249,0 0.249,-0.209 C 3.856,0.966 3.318,0 2.073,0 0.916,0 0,1.025 0,2.272 c 0,1.335 1.046,2.3 2.192,2.3 1.216,0 1.664,-1.105 1.664,-1.295 0,-0.099 -0.08,-0.119 -0.13,-0.119 -0.09,0 -0.109,0.06 -0.13,0.139 C 3.247,4.323 2.351,4.323 2.251,4.323 1.753,4.323 1.355,4.025 1.125,3.656 0.826,3.178 0.826,2.521 0.826,2.161 z"
       id="path94"
       inkscape:connector-curvature="0" />
  </g>
  <g
     transform="translate(53.878999,16.58)"
     style="fill:#161413;fill-rule:evenodd;stroke:none"
     id="g96">
    <path
       d="m 1.385,1.095 c 0,0 0,-1.095 0,-1.095 C 1.385,0 0,0.109 0,0.109 c 0,0 0,0.309 0,0.309 0.698,0 0.777,0.07 0.777,0.558 0,0 0,2.67 0,2.67 0,0.448 -0.11,0.448 -0.777,0.448 0,0 0,0.309 0,0.309 0,0 2.401,0 2.401,0 0,0 0,-0.309 0,-0.309 0,0 -0.209,0 -0.209,0 -0.738,0 -0.757,-0.109 -0.757,-0.468 0,0 0,-1.535 0,-1.535 0,-0.986 0.418,-1.873 1.176,-1.873 0.069,0 0.089,0 0.109,0.01 -0.03,0.011 -0.229,0.13 -0.229,0.389 0,0.279 0.209,0.429 0.428,0.429 0.179,0 0.428,-0.12 0.428,-0.439 C 3.347,0.289 3.038,0 2.611,0 1.883,0 1.525,0.667 1.385,1.095 z"
       id="path98"
       inkscape:connector-curvature="0" />
  </g>
  <g
     transform="translate(61.178999,14.178)"
     style="fill:#161413;fill-rule:evenodd;stroke:none"
     id="g100">
    <path
       d="m 5.469,4.503 c 0,1.415 -0.966,2.212 -1.912,2.212 -0.469,0 -1.645,-0.249 -1.645,-2.141 0,0 0,-3.796 0,-3.796 0,-0.359 0.021,-0.469 0.787,-0.469 0,0 0.24,0 0.24,0 0,0 0,-0.309 0,-0.309 C 2.939,0 0,0 0,0 c 0,0 0,0.309 0,0.309 0,0 0.239,0 0.239,0 0.767,0 0.786,0.11 0.786,0.469 0,0 0,3.756 0,3.756 0,1.404 1.157,2.49 2.511,2.49 1.146,0 2.043,-0.926 2.212,-2.062 0.03,-0.199 0.03,-0.289 0.03,-0.687 0,0 0,-3.189 0,-3.189 0,-0.328 0,-0.777 1.026,-0.777 0,0 0,-0.309 0,-0.309 0,0 -2.361,0 -2.361,0 0,0 0,0.309 0,0.309 1.026,0 1.026,0.469 1.026,0.737 0,0 0,3.457 0,3.457 z"
       id="path102"
       inkscape:connector-curvature="0" />
  </g>
  <g
     transform="translate(68.667999,16.58)"
     style="fill:#161413;fill-rule:evenodd;stroke:none"
     id="g104">
    <path
       d="m 0.778,0.976 c 0,0 0,2.67 0,2.67 0,0.448 -0.11,0.448 -0.778,0.448 0,0 0,0.309 0,0.309 0,0 2.243,0 2.243,0 0,0 0,-0.309 0,-0.309 -0.668,0 -0.778,0 -0.778,-0.448 0,0 0,-1.833 0,-1.833 0,-1.036 0.707,-1.595 1.345,-1.595 0.628,0 0.737,0.539 0.737,1.107 0,0 0,2.321 0,2.321 0,0.448 -0.109,0.448 -0.776,0.448 0,0 0,0.309 0,0.309 0,0 2.241,0 2.241,0 0,0 0,-0.309 0,-0.309 -0.518,0 -0.768,0 -0.777,-0.298 0,0 0,-1.904 0,-1.904 0,-0.856 0,-1.165 -0.309,-1.524 C 3.786,0.199 3.457,0 2.88,0 2.153,0 1.685,0.428 1.406,1.046 c 0,0 0,-1.046 0,-1.046 C 1.406,0 0,0.109 0,0.109 c 0,0 0,0.309 0,0.309 0.699,0 0.778,0.07 0.778,0.558 z"
       id="path106"
       inkscape:connector-curvature="0" />
  </g>
  <g
     transform="translate(74.178999,14.318)"
     style="fill:#161413;fill-rule:evenodd;stroke:none"
     id="g108">
    <path
       d="m 1.435,2.262 c 0,0 -1.396,0.109 -1.396,0.109 0,0 0,0.309 0,0.309 0.649,0 0.737,0.06 0.737,0.547 0,0 0,2.681 0,2.681 0,0.448 -0.109,0.448 -0.776,0.448 0,0 0,0.309 0,0.309 0,0 2.132,0 2.132,0 0,0 0,-0.309 0,-0.309 -0.657,0 -0.697,-0.049 -0.697,-0.438 0,0 0,-3.656 0,-3.656 z M 1.475,0.528 C 1.475,0.209 1.225,0 0.946,0 0.638,0 0.418,0.269 0.418,0.528 c 0,0.269 0.22,0.528 0.528,0.528 0.279,0 0.529,-0.209 0.529,-0.528 z"
       id="path110"
       inkscape:connector-curvature="0" />
  </g>
  <g
     transform="translate(76.788999,14.856)"
     style="fill:#161413;fill-rule:evenodd;stroke:none"
     id="g112">
    <path
       d="m 1.535,2.142 c 0,0 1.424,0 1.424,0 0,0 0,-0.309 0,-0.309 0,0 -1.424,0 -1.424,0 0,0 0,-1.833 0,-1.833 0,0 -0.249,0 -0.249,0 C 1.276,0.816 0.977,1.883 0,1.923 c 0,0 0,0.219 0,0.219 0,0 0.847,0 0.847,0 0,0 0,2.75 0,2.75 0,1.225 0.927,1.344 1.285,1.344 0.707,0 0.987,-0.707 0.987,-1.344 0,0 0,-0.569 0,-0.569 0,0 -0.249,0 -0.249,0 0,0 0,0.549 0,0.549 0,0.737 -0.299,1.115 -0.668,1.115 -0.667,0 -0.667,-0.906 -0.667,-1.076 0,0 0,-2.769 0,-2.769 z"
       id="path114"
       inkscape:connector-curvature="0" />
  </g>
  <g
     transform="translate(80.628999,16.52)"
     style="fill:#161413;fill-rule:evenodd;stroke:none"
     id="g116">
    <path
       d="m 0.837,1.952 c 0.06,-1.484 0.897,-1.733 1.236,-1.733 1.025,0 1.125,1.345 1.125,1.733 0,0 -2.361,0 -2.361,0 z M 0.826,2.161 c 0,0 2.781,0 2.781,0 0.218,0 0.249,0 0.249,-0.209 C 3.856,0.966 3.318,0 2.073,0 0.916,0 0,1.025 0,2.272 c 0,1.335 1.046,2.3 2.192,2.3 1.216,0 1.664,-1.105 1.664,-1.295 0,-0.099 -0.08,-0.119 -0.13,-0.119 -0.09,0 -0.109,0.06 -0.13,0.139 C 3.247,4.323 2.351,4.323 2.251,4.323 1.753,4.323 1.355,4.025 1.125,3.656 0.826,3.178 0.826,2.521 0.826,2.161 z"
       id="path118"
       inkscape:connector-curvature="0" />
  </g>
  <g
     transform="translate(85.188999,14.069)"
     style="fill:#161413;fill-rule:evenodd;stroke:none"
     id="g120">
    <path
       d="m 3.447,6.366 c 0,0 0,0.657 0,0.657 0,0 1.464,-0.109 1.464,-0.109 0,0 0,-0.309 0,-0.309 -0.697,0 -0.776,-0.07 -0.776,-0.558 0,0 0,-6.047 0,-6.047 0,0 -1.435,0.109 -1.435,0.109 0,0 0,0.309 0,0.309 0.697,0 0.776,0.07 0.776,0.558 0,0 0,2.152 0,2.152 C 3.187,2.769 2.76,2.511 2.222,2.511 1.046,2.511 0,3.487 0,4.772 0,6.037 0.976,7.023 2.112,7.023 2.75,7.023 3.198,6.685 3.447,6.366 z m 0,-2.67 c 0,0 0,2.042 0,2.042 0,0.18 0,0.199 -0.11,0.369 C 3.038,6.585 2.59,6.805 2.162,6.805 1.714,6.805 1.354,6.546 1.115,6.167 0.856,5.759 0.827,5.19 0.827,4.782 0.827,4.413 0.847,3.815 1.136,3.367 1.345,3.059 1.723,2.729 2.262,2.729 c 0.348,0 0.766,0.15 1.075,0.598 0.11,0.17 0.11,0.19 0.11,0.369 z"
       id="path122"
       inkscape:connector-curvature="0" />
  </g>
  <g
     transform="translate(103.518,14.348)"
     style="fill:#161413;fill-rule:evenodd;stroke:none"
     id="g124">
    <path
       d="m 0.897,3.367 c 0,0 0,-0.239 0,-0.239 0,-2.52 1.236,-2.879 1.744,-2.879 0.239,0 0.657,0.06 0.877,0.399 -0.15,0 -0.548,0 -0.548,0.448 0,0.309 0.238,0.458 0.458,0.458 0.159,0 0.458,-0.09 0.458,-0.479 C 3.886,0.478 3.447,0 2.621,0 1.346,0 0,1.285 0,3.487 c 0,2.66 1.156,3.367 2.083,3.367 1.105,0 2.052,-0.937 2.052,-2.251 0,-1.266 -0.887,-2.222 -1.992,-2.222 -0.678,0 -1.046,0.508 -1.246,0.986 z M 2.083,6.575 C 1.455,6.575 1.156,5.978 1.097,5.828 0.917,5.36 0.917,4.563 0.917,4.383 c 0,-0.776 0.318,-1.772 1.216,-1.772 0.159,0 0.617,0 0.926,0.617 0.179,0.368 0.179,0.877 0.179,1.365 0,0.478 0,0.976 -0.169,1.335 C 2.77,6.526 2.311,6.575 2.083,6.575 z"
       id="path126"
       inkscape:connector-curvature="0" />
  </g>
  <g
     transform="translate(123.879,14.238)"
     style="fill:#161413;fill-rule:evenodd;stroke:none"
     id="g128">
    <path
       d="m 2.65,5.101 c 0,0 0,0.867 0,0.867 0,0.359 -0.02,0.468 -0.757,0.468 0,0 -0.209,0 -0.209,0 0,0 0,0.309 0,0.309 0,0 2.699,0 2.699,0 0,0 0,-0.309 0,-0.309 0,0 -0.209,0 -0.209,0 -0.737,0 -0.757,-0.109 -0.757,-0.468 0,0 0,-0.867 0,-0.867 0,0 0.996,0 0.996,0 0,0 0,-0.309 0,-0.309 0,0 -0.996,0 -0.996,0 0,0 0,-4.532 0,-4.532 C 3.417,0.06 3.417,0 3.258,0 3.168,0 3.138,0 3.059,0.12 3.059,0.12 0,4.792 0,4.792 c 0,0 0,0.309 0,0.309 0,0 2.65,0 2.65,0 z M 2.71,4.792 c 0,0 -2.431,0 -2.431,0 0,0 2.431,-3.716 2.431,-3.716 0,0 0,3.716 0,3.716 z"
       id="path130"
       inkscape:connector-curvature="0" />
  </g>
  <g
     transform="translate(144.989,14.348)"
     style="fill:#161413;fill-rule:evenodd;stroke:none"
     id="g132">
    <path
       d="M 4.194,3.447 C 4.194,2.65 4.144,1.853 3.796,1.115 3.337,0.159 2.52,0 2.101,0 1.504,0 0.777,0.259 0.368,1.186 0.049,1.873 0,2.65 0,3.447 0,4.195 0.04,5.091 0.448,5.848 0.877,6.655 1.603,6.854 2.091,6.854 2.63,6.854 3.386,6.645 3.825,5.698 4.144,5.011 4.194,4.234 4.194,3.447 z M 2.091,6.635 C 1.703,6.635 1.115,6.386 0.936,5.43 0.827,4.831 0.827,3.915 0.827,3.327 c 0,-0.637 0,-1.295 0.079,-1.833 0.189,-1.185 0.936,-1.275 1.185,-1.275 0.33,0 0.987,0.18 1.176,1.166 0.1,0.558 0.1,1.314 0.1,1.942 0,0.747 0,1.425 -0.11,2.063 C 3.108,6.336 2.54,6.635 2.091,6.635 z"
       id="path134"
       inkscape:connector-curvature="0" />
  </g>
  <g
     transform="translate(163.848,14.348)"
     style="fill:#161413;fill-rule:evenodd;stroke:none"
     id="g136">
    <path
       d="m 0.768,5.867 c 0,0 1.055,-1.025 1.055,-1.025 C 3.377,3.467 3.976,2.929 3.976,1.933 3.976,0.797 3.078,0 1.863,0 0.737,0 0,0.916 0,1.803 c 0,0.558 0.498,0.558 0.528,0.558 0.169,0 0.518,-0.12 0.518,-0.528 0,-0.259 -0.179,-0.518 -0.527,-0.518 -0.08,0 -0.1,0 -0.13,0.009 0.229,-0.647 0.766,-1.015 1.344,-1.015 0.908,0 1.335,0.806 1.335,1.624 0,0.797 -0.498,1.584 -1.045,2.201 0,0 -1.914,2.133 -1.914,2.133 C 0,6.376 0,6.396 0,6.635 c 0,0 3.696,0 3.696,0 0,0 0.28,-1.733 0.28,-1.733 0,0 -0.249,0 -0.249,0 C 3.677,5.2 3.606,5.639 3.507,5.788 3.438,5.867 2.779,5.867 2.561,5.867 c 0,0 -1.793,0 -1.793,0 z"
       id="path138"
       inkscape:connector-curvature="0" />
  </g>
  <g
     transform="translate(181.987,14.348)"
     style="fill:#161413;fill-rule:evenodd;stroke:none"
     id="g140">
    <path
       d="M 2.042,0.259 C 2.042,0.02 2.042,0 1.813,0 1.195,0.638 0.318,0.638 0,0.638 c 0,0 0,0.309 0,0.309 0.199,0 0.787,0 1.304,-0.259 0,0 0,5.16 0,5.16 0,0.358 -0.029,0.478 -0.925,0.478 0,0 -0.32,0 -0.32,0 0,0 0,0.309 0,0.309 0,0 3.229,0 3.229,0 0,0 0,-0.309 0,-0.309 0,0 -0.32,0 -0.32,0 -0.896,0 -0.926,-0.109 -0.926,-0.478 0,0 0,-5.589 0,-5.589 z"
       id="path142"
       inkscape:connector-curvature="0" />
  </g>
  <g
     transform="translate(186.489,14.348)"
     style="fill:#161413;fill-rule:evenodd;stroke:none"
     id="g144">
    <path
       d="M 4.194,3.447 C 4.194,2.65 4.144,1.853 3.796,1.115 3.337,0.159 2.52,0 2.101,0 1.504,0 0.777,0.259 0.368,1.186 0.049,1.873 0,2.65 0,3.447 0,4.195 0.04,5.091 0.448,5.848 0.877,6.655 1.603,6.854 2.091,6.854 2.63,6.854 3.386,6.645 3.825,5.698 4.144,5.011 4.194,4.234 4.194,3.447 z M 2.091,6.635 C 1.703,6.635 1.115,6.386 0.936,5.43 0.827,4.831 0.827,3.915 0.827,3.327 c 0,-0.637 0,-1.295 0.079,-1.833 0.189,-1.185 0.936,-1.275 1.185,-1.275 0.33,0 0.987,0.18 1.176,1.166 0.1,0.558 0.1,1.314 0.1,1.942 0,0.747 0,1.425 -0.11,2.063 C 3.108,6.336 2.54,6.635 2.091,6.635 z"
       id="path146"
       inkscape:connector-curvature="0" />
  </g>
  <g
     transform="translate(204.598,14.348)"
     style="fill:#161413;fill-rule:evenodd;stroke:none"
     id="g148">
    <path
       d="M 3.976,4.632 C 3.976,3.447 3.158,2.45 2.082,2.45 c -0.477,0 -0.906,0.161 -1.265,0.509 0,0 0,-1.943 0,-1.943 0.2,0.059 0.528,0.13 0.847,0.13 C 2.89,1.146 3.587,0.239 3.587,0.11 3.587,0.05 3.557,0 3.487,0 3.477,0 3.457,0 3.407,0.03 3.208,0.119 2.72,0.319 2.053,0.319 1.654,0.319 1.195,0.249 0.728,0.039 0.648,0.01 0.628,0.01 0.607,0.01 c -0.099,0 -0.099,0.079 -0.099,0.239 0,0 0,2.948 0,2.948 0,0.18 0,0.26 0.14,0.26 0.07,0 0.089,-0.03 0.129,-0.09 0.11,-0.159 0.479,-0.697 1.286,-0.697 0.517,0 0.766,0.458 0.846,0.638 0.159,0.368 0.18,0.757 0.18,1.255 0,0.348 0,0.946 -0.239,1.365 C 2.61,6.317 2.241,6.575 1.783,6.575 1.056,6.575 0.488,6.047 0.319,5.459 0.349,5.469 0.379,5.48 0.488,5.48 0.817,5.48 0.986,5.231 0.986,4.991 0.986,4.752 0.817,4.503 0.488,4.503 0.349,4.503 0,4.573 0,5.031 c 0,0.857 0.688,1.823 1.804,1.823 1.155,0 2.172,-0.956 2.172,-2.222 z"
       id="path150"
       inkscape:connector-curvature="0" />
  </g>
  <g
     transform="translate(227.987,14.348)"
     style="fill:#161413;fill-rule:evenodd;stroke:none"
     id="g152">
    <path
       d="M 2.042,0.259 C 2.042,0.02 2.042,0 1.813,0 1.195,0.638 0.318,0.638 0,0.638 c 0,0 0,0.309 0,0.309 0.199,0 0.787,0 1.304,-0.259 0,0 0,5.16 0,5.16 0,0.358 -0.029,0.478 -0.925,0.478 0,0 -0.32,0 -0.32,0 0,0 0,0.309 0,0.309 0,0 3.229,0 3.229,0 0,0 0,-0.309 0,-0.309 0,0 -0.32,0 -0.32,0 -0.896,0 -0.926,-0.109 -0.926,-0.478 0,0 0,-5.589 0,-5.589 z"
       id="path154"
       inkscape:connector-curvature="0" />
  </g>
  <g
     transform="translate(232.598,14.348)"
     style="fill:#161413;fill-rule:evenodd;stroke:none"
     id="g156">
    <path
       d="m 0.768,5.867 c 0,0 1.055,-1.025 1.055,-1.025 C 3.377,3.467 3.976,2.929 3.976,1.933 3.976,0.797 3.078,0 1.863,0 0.737,0 0,0.916 0,1.803 c 0,0.558 0.498,0.558 0.528,0.558 0.169,0 0.518,-0.12 0.518,-0.528 0,-0.259 -0.179,-0.518 -0.527,-0.518 -0.08,0 -0.1,0 -0.13,0.009 0.229,-0.647 0.766,-1.015 1.344,-1.015 0.908,0 1.335,0.806 1.335,1.624 0,0.797 -0.498,1.584 -1.045,2.201 0,0 -1.914,2.133 -1.914,2.133 C 0,6.376 0,6.396 0,6.635 c 0,0 3.696,0 3.696,0 0,0 0.28,-1.733 0.28,-1.733 0,0 -0.249,0 -0.249,0 C 3.677,5.2 3.606,5.639 3.507,5.788 3.438,5.867 2.779,5.867 2.561,5.867 c 0,0 -1.793,0 -1.793,0 z"
       id="path158"
       inkscape:connector-curvature="0" />
  </g>
  <g
     transform="translate(8.157999,25.96)"
     style="fill:#161413;fill-rule:evenodd;stroke:none"
     id="g160">
    <path
       d="m 0,3.616 c 0,2.062 1.614,3.626 3.467,3.626 1.623,0 2.6,-1.385 2.6,-2.54 0,-0.1 0,-0.169 -0.129,-0.169 -0.11,0 -0.11,0.059 -0.12,0.159 -0.079,1.425 -1.146,2.241 -2.231,2.241 -0.608,0 -2.561,-0.339 -2.561,-3.307 0,-2.979 1.942,-3.318 2.551,-3.318 1.086,0 1.972,0.906 2.172,2.361 0.019,0.14 0.019,0.169 0.159,0.169 0.159,0 0.159,-0.029 0.159,-0.239 0,0 0,-2.36 0,-2.36 C 6.067,0.069 6.067,0 5.958,0 5.918,0 5.878,0 5.798,0.119 5.798,0.119 5.3,0.856 5.3,0.856 4.931,0.498 4.423,0 3.467,0 1.604,0 0,1.584 0,3.616 z"
       id="path162"
       inkscape:connector-curvature="0" />
  </g>
  <g
     transform="translate(15.128999,28.52)"
     style="fill:#161413;fill-rule:evenodd;stroke:none"
     id="g164">
    <path
       d="m 0.837,1.952 c 0.06,-1.484 0.897,-1.733 1.236,-1.733 1.025,0 1.125,1.345 1.125,1.733 0,0 -2.361,0 -2.361,0 z M 0.826,2.161 c 0,0 2.781,0 2.781,0 0.218,0 0.249,0 0.249,-0.209 C 3.856,0.966 3.318,0 2.073,0 0.916,0 0,1.025 0,2.272 c 0,1.335 1.046,2.3 2.192,2.3 1.216,0 1.664,-1.105 1.664,-1.295 0,-0.099 -0.08,-0.119 -0.13,-0.119 -0.09,0 -0.109,0.06 -0.13,0.139 C 3.247,4.323 2.351,4.323 2.251,4.323 1.753,4.323 1.355,4.025 1.125,3.656 0.826,3.178 0.826,2.521 0.826,2.161 z"
       id="path166"
       inkscape:connector-curvature="0" />
  </g>
  <g
     transform="translate(19.428999,26.069)"
     style="fill:#161413;fill-rule:evenodd;stroke:none"
     id="g168">
    <path
       d="M 1.435,0 C 1.435,0 0,0.109 0,0.109 c 0,0 0,0.309 0,0.309 0.697,0 0.776,0.07 0.776,0.558 0,0 0,5.181 0,5.181 0,0.448 -0.109,0.448 -0.776,0.448 0,0 0,0.309 0,0.309 0,0 2.211,0 2.211,0 0,0 0,-0.309 0,-0.309 -0.667,0 -0.776,0 -0.776,-0.448 0,0 0,-6.157 0,-6.157 z"
       id="path170"
       inkscape:connector-curvature="0" />
  </g>
  <g
     transform="translate(22.038999,26.856)"
     style="fill:#161413;fill-rule:evenodd;stroke:none"
     id="g172">
    <path
       d="m 1.535,2.142 c 0,0 1.424,0 1.424,0 0,0 0,-0.309 0,-0.309 0,0 -1.424,0 -1.424,0 0,0 0,-1.833 0,-1.833 0,0 -0.249,0 -0.249,0 C 1.276,0.816 0.977,1.883 0,1.923 c 0,0 0,0.219 0,0.219 0,0 0.847,0 0.847,0 0,0 0,2.75 0,2.75 0,1.225 0.927,1.344 1.285,1.344 0.707,0 0.987,-0.707 0.987,-1.344 0,0 0,-0.569 0,-0.569 0,0 -0.249,0 -0.249,0 0,0 0,0.549 0,0.549 0,0.737 -0.299,1.115 -0.668,1.115 -0.667,0 -0.667,-0.906 -0.667,-1.076 0,0 0,-2.769 0,-2.769 z"
       id="path174"
       inkscape:connector-curvature="0" />
  </g>
  <g
     transform="translate(26.178999,26.318)"
     style="fill:#161413;fill-rule:evenodd;stroke:none"
     id="g176">
    <path
       d="m 1.435,2.262 c 0,0 -1.396,0.109 -1.396,0.109 0,0 0,0.309 0,0.309 0.649,0 0.737,0.06 0.737,0.547 0,0 0,2.681 0,2.681 0,0.448 -0.109,0.448 -0.776,0.448 0,0 0,0.309 0,0.309 0,0 2.132,0 2.132,0 0,0 0,-0.309 0,-0.309 -0.657,0 -0.697,-0.049 -0.697,-0.438 0,0 0,-3.656 0,-3.656 z M 1.475,0.528 C 1.475,0.209 1.225,0 0.946,0 0.638,0 0.418,0.269 0.418,0.528 c 0,0.269 0.22,0.528 0.528,0.528 0.279,0 0.529,-0.209 0.529,-0.528 z"
       id="path178"
       inkscape:connector-curvature="0" />
  </g>
  <g
     transform="translate(28.938999,28.52)"
     style="fill:#161413;fill-rule:evenodd;stroke:none"
     id="g180">
    <path
       d="m 0.827,2.291 c 0,-1.624 0.816,-2.042 1.345,-2.042 0.09,0 0.717,0.01 1.065,0.368 -0.408,0.031 -0.468,0.329 -0.468,0.458 0,0.26 0.18,0.459 0.458,0.459 0.259,0 0.459,-0.17 0.459,-0.468 C 3.686,0.388 2.929,0 2.162,0 0.916,0 0,1.075 0,2.311 c 0,1.275 0.986,2.261 2.141,2.261 1.335,0 1.655,-1.195 1.655,-1.295 0,-0.099 -0.1,-0.099 -0.13,-0.099 -0.09,0 -0.109,0.04 -0.13,0.099 C 3.248,4.204 2.6,4.323 2.231,4.323 1.703,4.323 0.827,3.896 0.827,2.291 z"
       id="path182"
       inkscape:connector-curvature="0" />
  </g>
  <g
     transform="translate(103.518,26.348)"
     style="fill:#161413;fill-rule:evenodd;stroke:none"
     id="g184">
    <path
       d="m 0.897,3.367 c 0,0 0,-0.239 0,-0.239 0,-2.52 1.236,-2.879 1.744,-2.879 0.239,0 0.657,0.06 0.877,0.399 -0.15,0 -0.548,0 -0.548,0.448 0,0.309 0.238,0.458 0.458,0.458 0.159,0 0.458,-0.09 0.458,-0.479 C 3.886,0.478 3.447,0 2.621,0 1.346,0 0,1.285 0,3.487 c 0,2.66 1.156,3.367 2.083,3.367 1.105,0 2.052,-0.937 2.052,-2.251 0,-1.266 -0.887,-2.222 -1.992,-2.222 -0.678,0 -1.046,0.508 -1.246,0.986 z M 2.083,6.575 C 1.455,6.575 1.156,5.978 1.097,5.828 0.917,5.36 0.917,4.563 0.917,4.383 c 0,-0.776 0.318,-1.772 1.216,-1.772 0.159,0 0.617,0 0.926,0.617 0.179,0.368 0.179,0.877 0.179,1.365 0,0.478 0,0.976 -0.169,1.335 C 2.77,6.526 2.311,6.575 2.083,6.575 z"
       id="path186"
       inkscape:connector-curvature="0" />
  </g>
  <g
     transform="translate(124.018,26.348)"
     style="fill:#161413;fill-rule:evenodd;stroke:none"
     id="g188">
    <path
       d="M 2.472,3.128 C 3.288,2.86 3.866,2.161 3.866,1.374 3.866,0.558 2.989,0 2.033,0 1.026,0 0.27,0.598 0.27,1.355 c 0,0.329 0.218,0.518 0.507,0.518 0.309,0 0.508,-0.219 0.508,-0.509 0,-0.498 -0.468,-0.498 -0.617,-0.498 0.309,-0.488 0.967,-0.617 1.325,-0.617 0.408,0 0.956,0.219 0.956,1.115 0,0.121 -0.019,0.698 -0.278,1.136 -0.3,0.479 -0.638,0.509 -0.887,0.519 -0.08,0.01 -0.319,0.029 -0.389,0.029 -0.08,0.011 -0.149,0.021 -0.149,0.12 0,0.11 0.069,0.11 0.239,0.11 0,0 0.438,0 0.438,0 0.817,0 1.185,0.677 1.185,1.654 0,1.354 -0.687,1.643 -1.125,1.643 C 1.555,6.575 0.808,6.406 0.459,5.818 0.808,5.867 1.116,5.649 1.116,5.27 1.116,4.911 0.848,4.712 0.559,4.712 0.319,4.712 0,4.852 0,5.29 0,6.197 0.927,6.854 2.013,6.854 3.228,6.854 4.135,5.947 4.135,4.932 4.135,4.114 3.507,3.337 2.472,3.128 z"
       id="path190"
       inkscape:connector-curvature="0" />
  </g>
  <g
     transform="translate(144.989,26.348)"
     style="fill:#161413;fill-rule:evenodd;stroke:none"
     id="g192">
    <path
       d="M 4.194,3.447 C 4.194,2.65 4.144,1.853 3.796,1.115 3.337,0.159 2.52,0 2.101,0 1.504,0 0.777,0.259 0.368,1.186 0.049,1.873 0,2.65 0,3.447 0,4.195 0.04,5.091 0.448,5.848 0.877,6.655 1.603,6.854 2.091,6.854 2.63,6.854 3.386,6.645 3.825,5.698 4.144,5.011 4.194,4.234 4.194,3.447 z M 2.091,6.635 C 1.703,6.635 1.115,6.386 0.936,5.43 0.827,4.831 0.827,3.915 0.827,3.327 c 0,-0.637 0,-1.295 0.079,-1.833 0.189,-1.185 0.936,-1.275 1.185,-1.275 0.33,0 0.987,0.18 1.176,1.166 0.1,0.558 0.1,1.314 0.1,1.942 0,0.747 0,1.425 -0.11,2.063 C 3.108,6.336 2.54,6.635 2.091,6.635 z"
       id="path194"
       inkscape:connector-curvature="0" />
  </g>
  <g
     transform="translate(163.768,26.348)"
     style="fill:#161413;fill-rule:evenodd;stroke:none"
     id="g196">
    <path
       d="M 2.472,3.128 C 3.288,2.86 3.866,2.161 3.866,1.374 3.866,0.558 2.989,0 2.033,0 1.026,0 0.27,0.598 0.27,1.355 c 0,0.329 0.218,0.518 0.507,0.518 0.309,0 0.508,-0.219 0.508,-0.509 0,-0.498 -0.468,-0.498 -0.617,-0.498 0.309,-0.488 0.967,-0.617 1.325,-0.617 0.408,0 0.956,0.219 0.956,1.115 0,0.121 -0.019,0.698 -0.278,1.136 -0.3,0.479 -0.638,0.509 -0.887,0.519 -0.08,0.01 -0.319,0.029 -0.389,0.029 -0.08,0.011 -0.149,0.021 -0.149,0.12 0,0.11 0.069,0.11 0.239,0.11 0,0 0.438,0 0.438,0 0.817,0 1.185,0.677 1.185,1.654 0,1.354 -0.687,1.643 -1.125,1.643 C 1.555,6.575 0.808,6.406 0.459,5.818 0.808,5.867 1.116,5.649 1.116,5.27 1.116,4.911 0.848,4.712 0.559,4.712 0.319,4.712 0,4.852 0,5.29 0,6.197 0.927,6.854 2.013,6.854 3.228,6.854 4.135,5.947 4.135,4.932 4.135,4.114 3.507,3.337 2.472,3.128 z"
       id="path198"
       inkscape:connector-curvature="0" />
  </g>
  <g
     transform="translate(183.768,26.348)"
     style="fill:#161413;fill-rule:evenodd;stroke:none"
     id="g200">
    <path
       d="M 1.206,2.082 C 0.748,1.783 0.708,1.445 0.708,1.275 c 0,-0.608 0.647,-1.026 1.354,-1.026 0.728,0 1.366,0.518 1.366,1.236 0,0.567 -0.389,1.046 -0.987,1.394 0,0 -1.235,-0.797 -1.235,-0.797 z M 2.66,3.029 C 3.378,2.66 3.866,2.142 3.866,1.485 3.866,0.568 2.979,0 2.072,0 1.076,0 0.27,0.738 0.27,1.663 0.27,1.843 0.289,2.291 0.708,2.76 0.817,2.879 1.186,3.128 1.436,3.297 0.857,3.586 0,4.145 0,5.131 0,6.187 1.017,6.854 2.062,6.854 3.188,6.854 4.135,6.028 4.135,4.961 4.135,4.603 4.025,4.155 3.646,3.736 3.457,3.527 3.298,3.427 2.66,3.029 z M 1.664,3.447 c 0,0 1.226,0.777 1.226,0.777 0.279,0.189 0.747,0.488 0.747,1.096 0,0.737 -0.747,1.255 -1.565,1.255 -0.856,0 -1.573,-0.618 -1.573,-1.444 0,-0.578 0.318,-1.216 1.165,-1.684 z"
       id="path202"
       inkscape:connector-curvature="0" />
  </g>
  <g
     transform="translate(204.518,26.348)"
     style="fill:#161413;fill-rule:evenodd;stroke:none"
     id="g204">
    <path
       d="m 3.238,3.467 c 0,0 0,0.318 0,0.318 0,2.332 -1.036,2.79 -1.614,2.79 -0.169,0 -0.707,-0.02 -0.976,-0.358 0.438,0 0.518,-0.289 0.518,-0.459 C 1.166,5.449 0.927,5.3 0.708,5.3 0.549,5.3 0.25,5.39 0.25,5.779 c 0,0.667 0.537,1.075 1.385,1.075 1.285,0 2.5,-1.355 2.5,-3.496 C 4.135,0.677 2.989,0 2.103,0 1.555,0 1.066,0.179 0.638,0.627 0.229,1.075 0,1.494 0,2.241 0,3.487 0.877,4.463 1.993,4.463 2.601,4.463 3.009,4.045 3.238,3.467 z M 2.003,4.234 c -0.159,0 -0.617,0 -0.927,-0.627 C 0.897,3.238 0.897,2.739 0.897,2.251 c 0,-0.538 0,-1.006 0.209,-1.375 0.269,-0.498 0.648,-0.627 0.997,-0.627 0.458,0 0.787,0.339 0.956,0.787 0.12,0.319 0.16,0.947 0.16,1.405 0,0.827 -0.339,1.793 -1.216,1.793 z"
       id="path206"
       inkscape:connector-curvature="0" />
  </g>
  <g
     transform="translate(232.268,26.348)"
     style="fill:#161413;fill-rule:evenodd;stroke:none"
     id="g208">
    <path
       d="m 3.238,3.467 c 0,0 0,0.318 0,0.318 0,2.332 -1.036,2.79 -1.614,2.79 -0.169,0 -0.707,-0.02 -0.976,-0.358 0.438,0 0.518,-0.289 0.518,-0.459 C 1.166,5.449 0.927,5.3 0.708,5.3 0.549,5.3 0.25,5.39 0.25,5.779 c 0,0.667 0.537,1.075 1.385,1.075 1.285,0 2.5,-1.355 2.5,-3.496 C 4.135,0.677 2.989,0 2.103,0 1.555,0 1.066,0.179 0.638,0.627 0.229,1.075 0,1.494 0,2.241 0,3.487 0.877,4.463 1.993,4.463 2.601,4.463 3.009,4.045 3.238,3.467 z M 2.003,4.234 c -0.159,0 -0.617,0 -0.927,-0.627 C 0.897,3.238 0.897,2.739 0.897,2.251 c 0,-0.538 0,-1.006 0.209,-1.375 0.269,-0.498 0.648,-0.627 0.997,-0.627 0.458,0 0.787,0.339 0.956,0.787 0.12,0.319 0.16,0.947 0.16,1.405 0,0.827 -0.339,1.793 -1.216,1.793 z"
       id="path210"
       inkscape:connector-curvature="0" />
  </g>
  <g
     transform="translate(7.957999,38.178)"
     style="fill:#161413;fill-rule:evenodd;stroke:none"
     id="g212">
    <path
       d="m 1.854,3.159 c 0,0 0,-2.451 0,-2.451 0,-0.329 0.019,-0.399 0.488,-0.399 0,0 1.236,0 1.236,0 0.965,0 1.314,0.848 1.314,1.375 0,0.638 -0.488,1.475 -1.594,1.475 0,0 -1.444,0 -1.444,0 z m 2.35,0.089 C 5.171,3.059 5.859,2.421 5.859,1.684 5.859,0.818 4.942,0 3.647,0 3.647,0 0,0 0,0 c 0,0 0,0.309 0,0.309 0,0 0.24,0 0.24,0 0.767,0 0.787,0.11 0.787,0.469 0,0 0,5.25 0,5.25 0,0.359 -0.02,0.468 -0.787,0.468 0,0 -0.24,0 -0.24,0 0,0 0,0.309 0,0.309 0,0 3.906,0 3.906,0 1.325,0 2.221,-0.887 2.221,-1.823 0,-0.866 -0.816,-1.615 -1.923,-1.734 z M 3.587,6.496 c 0,0 -1.245,0 -1.245,0 -0.469,0 -0.488,-0.07 -0.488,-0.398 0,0 0,-2.72 0,-2.72 0,0 1.873,0 1.873,0 0.986,0 1.404,0.926 1.404,1.594 0,0.707 -0.517,1.524 -1.544,1.524 z"
       id="path214"
       inkscape:connector-curvature="0" />
  </g>
  <g
     transform="translate(14.878999,40.52)"
     style="fill:#161413;fill-rule:evenodd;stroke:none"
     id="g216">
    <path
       d="m 0.837,1.952 c 0.06,-1.484 0.897,-1.733 1.236,-1.733 1.025,0 1.125,1.345 1.125,1.733 0,0 -2.361,0 -2.361,0 z M 0.826,2.161 c 0,0 2.781,0 2.781,0 0.218,0 0.249,0 0.249,-0.209 C 3.856,0.966 3.318,0 2.073,0 0.916,0 0,1.025 0,2.272 c 0,1.335 1.046,2.3 2.192,2.3 1.216,0 1.664,-1.105 1.664,-1.295 0,-0.099 -0.08,-0.119 -0.13,-0.119 -0.09,0 -0.109,0.06 -0.13,0.139 C 3.247,4.323 2.351,4.323 2.251,4.323 1.753,4.323 1.355,4.025 1.125,3.656 0.826,3.178 0.826,2.521 0.826,2.161 z"
       id="path218"
       inkscape:connector-curvature="0" />
  </g>
  <g
     transform="translate(19.417999,40.58)"
     style="fill:#161413;fill-rule:evenodd;stroke:none"
     id="g220">
    <path
       d="m 0.778,0.976 c 0,0 0,2.67 0,2.67 0,0.448 -0.11,0.448 -0.778,0.448 0,0 0,0.309 0,0.309 0,0 2.243,0 2.243,0 0,0 0,-0.309 0,-0.309 -0.668,0 -0.778,0 -0.778,-0.448 0,0 0,-1.833 0,-1.833 0,-1.036 0.707,-1.595 1.345,-1.595 0.628,0 0.737,0.539 0.737,1.107 0,0 0,2.321 0,2.321 0,0.448 -0.109,0.448 -0.776,0.448 0,0 0,0.309 0,0.309 0,0 2.241,0 2.241,0 0,0 0,-0.309 0,-0.309 -0.518,0 -0.768,0 -0.777,-0.298 0,0 0,-1.904 0,-1.904 0,-0.856 0,-1.165 -0.309,-1.524 C 3.786,0.199 3.457,0 2.88,0 2.153,0 1.685,0.428 1.406,1.046 c 0,0 0,-1.046 0,-1.046 C 1.406,0 0,0.109 0,0.109 c 0,0 0,0.309 0,0.309 0.699,0 0.778,0.07 0.778,0.558 z"
       id="path222"
       inkscape:connector-curvature="0" />
  </g>
  <g
     transform="translate(24.868999,37.96)"
     style="fill:#161413;fill-rule:evenodd;stroke:none"
     id="g224">
    <path
       d="m 3.019,3.038 c 0.458,0 0.527,0.13 0.527,0.538 0,0 0,2.69 0,2.69 0,0.448 -0.109,0.448 -0.776,0.448 0,0 0,0.309 0,0.309 0,0 2.211,0 2.211,0 0,0 0,-0.309 0,-0.309 -0.667,0 -0.776,0 -0.776,-0.448 0,0 0,-3.656 0,-3.656 0,0 -1.256,0.089 -1.256,0.089 C 2.79,2.71 2.78,2.719 2.77,2.719 c -0.02,0.01 -0.04,0.01 -0.18,0.01 0,0 -1.175,0 -1.175,0 0,0 0,-1.126 0,-1.126 0,-0.986 0.856,-1.385 1.474,-1.385 0.299,0 0.657,0.1 0.857,0.329 -0.409,0.02 -0.468,0.299 -0.468,0.458 0,0.33 0.259,0.458 0.448,0.458 0.23,0 0.458,-0.159 0.458,-0.458 C 4.184,0.418 3.636,0 2.899,0 1.972,0 0.787,0.507 0.787,1.593 c 0,0 0,1.136 0,1.136 0,0 -0.787,0 -0.787,0 0,0 0,0.309 0,0.309 0,0 0.787,0 0.787,0 0,0 0,3.228 0,3.228 0,0.448 -0.11,0.448 -0.777,0.448 0,0 0,0.309 0,0.309 0,0 2.211,0 2.211,0 0,0 0,-0.309 0,-0.309 -0.667,0 -0.776,0 -0.776,-0.448 0,0 0,-3.228 0,-3.228 0,0 1.574,0 1.574,0 z"
       id="path226"
       inkscape:connector-curvature="0" />
  </g>
  <g
     transform="translate(30.438999,40.52)"
     style="fill:#161413;fill-rule:evenodd;stroke:none"
     id="g228">
    <path
       d="m 0.827,2.291 c 0,-1.624 0.816,-2.042 1.345,-2.042 0.09,0 0.717,0.01 1.065,0.368 -0.408,0.031 -0.468,0.329 -0.468,0.458 0,0.26 0.18,0.459 0.458,0.459 0.259,0 0.459,-0.17 0.459,-0.468 C 3.686,0.388 2.929,0 2.162,0 0.916,0 0,1.075 0,2.311 c 0,1.275 0.986,2.261 2.141,2.261 1.335,0 1.655,-1.195 1.655,-1.295 0,-0.099 -0.1,-0.099 -0.13,-0.099 -0.09,0 -0.109,0.04 -0.13,0.099 C 3.248,4.204 2.6,4.323 2.231,4.323 1.703,4.323 0.827,3.896 0.827,2.291 z"
       id="path230"
       inkscape:connector-curvature="0" />
  </g>
  <g
     transform="translate(35.017999,40.52)"
     style="fill:#161413;fill-rule:evenodd;stroke:none"
     id="g232">
    <path
       d="m 2.899,3.706 c 0.04,0.399 0.309,0.817 0.778,0.817 0.209,0 0.816,-0.14 0.816,-0.947 0,0 0,-0.557 0,-0.557 0,0 -0.249,0 -0.249,0 0,0 0,0.557 0,0.557 0,0.578 -0.249,0.638 -0.358,0.638 -0.329,0 -0.368,-0.448 -0.368,-0.498 0,0 0,-1.992 0,-1.992 0,-0.419 0,-0.808 -0.36,-1.176 C 2.77,0.159 2.271,0 1.794,0 0.977,0 0.289,0.468 0.289,1.125 c 0,0.299 0.199,0.469 0.459,0.469 0.278,0 0.458,-0.199 0.458,-0.458 0,-0.12 -0.05,-0.448 -0.508,-0.459 0.269,-0.349 0.757,-0.458 1.075,-0.458 0.489,0 1.057,0.389 1.057,1.275 0,0 0,0.368 0,0.368 C 2.321,1.893 1.624,1.923 0.997,2.222 0.25,2.56 0,3.078 0,3.517 0,4.323 0.967,4.572 1.595,4.572 2.252,4.572 2.71,4.174 2.899,3.706 z M 2.83,2.072 c 0,0 0,0.996 0,0.996 0,0.947 -0.718,1.286 -1.166,1.286 -0.488,0 -0.896,-0.349 -0.896,-0.847 0,-0.548 0.418,-1.375 2.062,-1.435 z"
       id="path234"
       inkscape:connector-curvature="0" />
  </g>
  <g
     transform="translate(103.518,38.348)"
     style="fill:#161413;fill-rule:evenodd;stroke:none"
     id="g236">
    <path
       d="m 0.897,3.367 c 0,0 0,-0.239 0,-0.239 0,-2.52 1.236,-2.879 1.744,-2.879 0.239,0 0.657,0.06 0.877,0.399 -0.15,0 -0.548,0 -0.548,0.448 0,0.309 0.238,0.458 0.458,0.458 0.159,0 0.458,-0.09 0.458,-0.479 C 3.886,0.478 3.447,0 2.621,0 1.346,0 0,1.285 0,3.487 c 0,2.66 1.156,3.367 2.083,3.367 1.105,0 2.052,-0.937 2.052,-2.251 0,-1.266 -0.887,-2.222 -1.992,-2.222 -0.678,0 -1.046,0.508 -1.246,0.986 z M 2.083,6.575 C 1.455,6.575 1.156,5.978 1.097,5.828 0.917,5.36 0.917,4.563 0.917,4.383 c 0,-0.776 0.318,-1.772 1.216,-1.772 0.159,0 0.617,0 0.926,0.617 0.179,0.368 0.179,0.877 0.179,1.365 0,0.478 0,0.976 -0.169,1.335 C 2.77,6.526 2.311,6.575 2.083,6.575 z"
       id="path238"
       inkscape:connector-curvature="0" />
  </g>
  <g
     transform="translate(124.098,38.348)"
     style="fill:#161413;fill-rule:evenodd;stroke:none"
     id="g240">
    <path
       d="m 0.768,5.867 c 0,0 1.055,-1.025 1.055,-1.025 C 3.377,3.467 3.976,2.929 3.976,1.933 3.976,0.797 3.078,0 1.863,0 0.737,0 0,0.916 0,1.803 c 0,0.558 0.498,0.558 0.528,0.558 0.169,0 0.518,-0.12 0.518,-0.528 0,-0.259 -0.179,-0.518 -0.527,-0.518 -0.08,0 -0.1,0 -0.13,0.009 0.229,-0.647 0.766,-1.015 1.344,-1.015 0.908,0 1.335,0.806 1.335,1.624 0,0.797 -0.498,1.584 -1.045,2.201 0,0 -1.914,2.133 -1.914,2.133 C 0,6.376 0,6.396 0,6.635 c 0,0 3.696,0 3.696,0 0,0 0.28,-1.733 0.28,-1.733 0,0 -0.249,0 -0.249,0 C 3.677,5.2 3.606,5.639 3.507,5.788 3.438,5.867 2.779,5.867 2.561,5.867 c 0,0 -1.793,0 -1.793,0 z"
       id="path242"
       inkscape:connector-curvature="0" />
  </g>
  <g
     transform="translate(145.487,38.348)"
     style="fill:#161413;fill-rule:evenodd;stroke:none"
     id="g244">
    <path
       d="M 2.042,0.259 C 2.042,0.02 2.042,0 1.813,0 1.195,0.638 0.318,0.638 0,0.638 c 0,0 0,0.309 0,0.309 0.199,0 0.787,0 1.304,-0.259 0,0 0,5.16 0,5.16 0,0.358 -0.029,0.478 -0.925,0.478 0,0 -0.32,0 -0.32,0 0,0 0,0.309 0,0.309 0,0 3.229,0 3.229,0 0,0 0,-0.309 0,-0.309 0,0 -0.32,0 -0.32,0 -0.896,0 -0.926,-0.109 -0.926,-0.478 0,0 0,-5.589 0,-5.589 z"
       id="path246"
       inkscape:connector-curvature="0" />
  </g>
  <g
     transform="translate(163.768,38.348)"
     style="fill:#161413;fill-rule:evenodd;stroke:none"
     id="g248">
    <path
       d="M 2.472,3.128 C 3.288,2.86 3.866,2.161 3.866,1.374 3.866,0.558 2.989,0 2.033,0 1.026,0 0.27,0.598 0.27,1.355 c 0,0.329 0.218,0.518 0.507,0.518 0.309,0 0.508,-0.219 0.508,-0.509 0,-0.498 -0.468,-0.498 -0.617,-0.498 0.309,-0.488 0.967,-0.617 1.325,-0.617 0.408,0 0.956,0.219 0.956,1.115 0,0.121 -0.019,0.698 -0.278,1.136 -0.3,0.479 -0.638,0.509 -0.887,0.519 -0.08,0.01 -0.319,0.029 -0.389,0.029 -0.08,0.011 -0.149,0.021 -0.149,0.12 0,0.11 0.069,0.11 0.239,0.11 0,0 0.438,0 0.438,0 0.817,0 1.185,0.677 1.185,1.654 0,1.354 -0.687,1.643 -1.125,1.643 C 1.555,6.575 0.808,6.406 0.459,5.818 0.808,5.867 1.116,5.649 1.116,5.27 1.116,4.911 0.848,4.712 0.559,4.712 0.319,4.712 0,4.852 0,5.29 0,6.197 0.927,6.854 2.013,6.854 3.228,6.854 4.135,5.947 4.135,4.932 4.135,4.114 3.507,3.337 2.472,3.128 z"
       id="path250"
       inkscape:connector-curvature="0" />
  </g>
  <g
     transform="translate(183.908,38.249)"
     style="fill:#161413;fill-rule:evenodd;stroke:none"
     id="g252">
    <path
       d="m 4.184,0.667 c 0.09,-0.12 0.09,-0.14 0.09,-0.349 0,0 -2.421,0 -2.421,0 C 0.637,0.318 0.618,0.188 0.578,0 0.578,0 0.329,0 0.329,0 0.329,0 0,2.051 0,2.051 c 0,0 0.249,0 0.249,0 0.03,-0.159 0.12,-0.787 0.249,-0.906 0.07,-0.059 0.847,-0.059 0.976,-0.059 0,0 2.063,0 2.063,0 C 3.427,1.245 2.64,2.331 2.421,2.659 1.524,4.005 1.196,5.389 1.196,6.405 c 0,0.1 0,0.548 0.458,0.548 0.458,0 0.458,-0.448 0.458,-0.548 0,0 0,-0.508 0,-0.508 0,-0.548 0.03,-1.096 0.109,-1.634 0.04,-0.229 0.18,-1.086 0.618,-1.704 0,0 1.345,-1.892 1.345,-1.892 z"
       id="path254"
       inkscape:connector-curvature="0" />
  </g>
  <g
     transform="translate(204.518,38.348)"
     style="fill:#161413;fill-rule:evenodd;stroke:none"
     id="g256">
    <path
       d="M 1.206,2.082 C 0.748,1.783 0.708,1.445 0.708,1.275 c 0,-0.608 0.647,-1.026 1.354,-1.026 0.728,0 1.366,0.518 1.366,1.236 0,0.567 -0.389,1.046 -0.987,1.394 0,0 -1.235,-0.797 -1.235,-0.797 z M 2.66,3.029 C 3.378,2.66 3.866,2.142 3.866,1.485 3.866,0.568 2.979,0 2.072,0 1.076,0 0.27,0.738 0.27,1.663 0.27,1.843 0.289,2.291 0.708,2.76 0.817,2.879 1.186,3.128 1.436,3.297 0.857,3.586 0,4.145 0,5.131 0,6.187 1.017,6.854 2.062,6.854 3.188,6.854 4.135,6.028 4.135,4.961 4.135,4.603 4.025,4.155 3.646,3.736 3.457,3.527 3.298,3.427 2.66,3.029 z M 1.664,3.447 c 0,0 1.226,0.777 1.226,0.777 0.279,0.189 0.747,0.488 0.747,1.096 0,0.737 -0.747,1.255 -1.565,1.255 -0.856,0 -1.573,-0.618 -1.573,-1.444 0,-0.578 0.318,-1.216 1.165,-1.684 z"
       id="path258"
       inkscape:connector-curvature="0" />
  </g>
  <g
     transform="translate(232.408,38.249)"
     style="fill:#161413;fill-rule:evenodd;stroke:none"
     id="g260">
    <path
       d="m 4.184,0.667 c 0.09,-0.12 0.09,-0.14 0.09,-0.349 0,0 -2.421,0 -2.421,0 C 0.637,0.318 0.618,0.188 0.578,0 0.578,0 0.329,0 0.329,0 0.329,0 0,2.051 0,2.051 c 0,0 0.249,0 0.249,0 0.03,-0.159 0.12,-0.787 0.249,-0.906 0.07,-0.059 0.847,-0.059 0.976,-0.059 0,0 2.063,0 2.063,0 C 3.427,1.245 2.64,2.331 2.421,2.659 1.524,4.005 1.196,5.389 1.196,6.405 c 0,0.1 0,0.548 0.458,0.548 0.458,0 0.458,-0.448 0.458,-0.548 0,0 0,-0.508 0,-0.508 0,-0.548 0.03,-1.096 0.109,-1.634 0.04,-0.229 0.18,-1.086 0.618,-1.704 0,0 1.345,-1.892 1.345,-1.892 z"
       id="path262"
       inkscape:connector-curvature="0" />
  </g>
  <g
     transform="translate(7.928999,50.209)"
     style="fill:#161413;fill-rule:evenodd;stroke:none"
     id="g264">
    <path
       d="M 5.469,0 C 5.469,0 0,0 0,0 c 0,0 0,0.308 0,0.308 0,0 0.239,0 0.239,0 0.767,0 0.786,0.11 0.786,0.469 0,0 0,5.22 0,5.22 0,0.359 -0.019,0.468 -0.786,0.468 0,0 -0.239,0 -0.239,0 0,0 0,0.309 0,0.309 0,0 3.188,0 3.188,0 0,0 0,-0.309 0,-0.309 0,0 -0.329,0 -0.329,0 -0.947,0 -0.947,-0.129 -0.947,-0.478 0,0 0,-2.451 0,-2.451 0,0 0.858,0 0.858,0 0.956,0 1.055,0.319 1.055,1.166 0,0 0.249,0 0.249,0 0,0 0,-2.64 0,-2.64 0,0 -0.249,0 -0.249,0 0,0.837 -0.099,1.165 -1.055,1.165 0,0 -0.858,0 -0.858,0 0,0 0,-2.52 0,-2.52 0,-0.329 0.021,-0.399 0.488,-0.399 0,0 1.196,0 1.196,0 1.495,0 1.744,0.558 1.903,1.933 0,0 0.249,0 0.249,0 C 5.748,2.241 5.469,0 5.469,0 z"
       id="path266"
       inkscape:connector-curvature="0" />
  </g>
  <g
     transform="translate(14.407999,49.96)"
     style="fill:#161413;fill-rule:evenodd;stroke:none"
     id="g268">
    <path
       d="m 0,3.616 c 0,2.062 1.614,3.626 3.467,3.626 1.623,0 2.6,-1.385 2.6,-2.54 0,-0.1 0,-0.169 -0.129,-0.169 -0.11,0 -0.11,0.059 -0.12,0.159 -0.079,1.425 -1.146,2.241 -2.231,2.241 -0.608,0 -2.561,-0.339 -2.561,-3.307 0,-2.979 1.942,-3.318 2.551,-3.318 1.086,0 1.972,0.906 2.172,2.361 0.019,0.14 0.019,0.169 0.159,0.169 0.159,0 0.159,-0.029 0.159,-0.239 0,0 0,-2.36 0,-2.36 C 6.067,0.069 6.067,0 5.958,0 5.918,0 5.878,0 5.798,0.119 5.798,0.119 5.3,0.856 5.3,0.856 4.931,0.498 4.423,0 3.467,0 1.604,0 0,1.584 0,3.616 z"
       id="path270"
       inkscape:connector-curvature="0" />
  </g>
  <g
     transform="translate(24.907999,49.96)"
     style="fill:#161413;fill-rule:evenodd;stroke:none"
     id="g272">
    <path
       d="m 0,3.616 c 0,2.062 1.614,3.626 3.467,3.626 1.623,0 2.6,-1.385 2.6,-2.54 0,-0.1 0,-0.169 -0.129,-0.169 -0.11,0 -0.11,0.059 -0.12,0.159 -0.079,1.425 -1.146,2.241 -2.231,2.241 -0.608,0 -2.561,-0.339 -2.561,-3.307 0,-2.979 1.942,-3.318 2.551,-3.318 1.086,0 1.972,0.906 2.172,2.361 0.019,0.14 0.019,0.169 0.159,0.169 0.159,0 0.159,-0.029 0.159,-0.239 0,0 0,-2.36 0,-2.36 C 6.067,0.069 6.067,0 5.958,0 5.918,0 5.878,0 5.798,0.119 5.798,0.119 5.3,0.856 5.3,0.856 4.931,0.498 4.423,0 3.467,0 1.604,0 0,1.584 0,3.616 z"
       id="path274"
       inkscape:connector-curvature="0" />
  </g>
  <g
     transform="translate(31.878999,52.52)"
     style="fill:#161413;fill-rule:evenodd;stroke:none"
     id="g276">
    <path
       d="M 4.413,2.331 C 4.413,1.056 3.417,0 2.211,0 0.966,0 0,1.086 0,2.331 0,3.616 1.036,4.572 2.201,4.572 3.408,4.572 4.413,3.596 4.413,2.331 z M 2.211,4.323 C 1.783,4.323 1.345,4.114 1.075,3.656 0.826,3.218 0.826,2.609 0.826,2.251 c 0,-0.389 0,-0.927 0.24,-1.364 0.269,-0.459 0.737,-0.668 1.135,-0.668 0.439,0 0.868,0.22 1.126,0.647 0.259,0.429 0.259,1.007 0.259,1.385 0,0.358 0,0.897 -0.219,1.335 C 3.148,4.034 2.71,4.323 2.211,4.323 z"
       id="path278"
       inkscape:connector-curvature="0" />
  </g>
  <g
     transform="translate(36.878999,52.58)"
     style="fill:#161413;fill-rule:evenodd;stroke:none"
     id="g280">
    <path
       d="m 1.435,0.657 c 0,0 0,-0.657 0,-0.657 C 1.435,0 0,0.109 0,0.109 c 0,0 0,0.309 0,0.309 0.707,0 0.777,0.06 0.777,0.498 0,0 0,4.663 0,4.663 0,0.448 -0.11,0.448 -0.777,0.448 0,0 0,0.309 0,0.309 0,0 2.242,0 2.242,0 0,0 0,-0.309 0,-0.309 -0.667,0 -0.778,0 -0.778,-0.448 0,0 0,-1.674 0,-1.674 0,0 0,-0.09 0,-0.09 0.05,0.159 0.469,0.697 1.226,0.697 1.185,0 2.221,-0.976 2.221,-2.261 C 4.911,0.986 3.946,0 2.829,0 2.052,0 1.634,0.438 1.435,0.657 z m 0.029,2.61 c 0,0 0,-2.221 0,-2.221 0.289,-0.508 0.778,-0.797 1.285,-0.797 0.728,0 1.335,0.877 1.335,2.002 0,1.206 -0.697,2.043 -1.434,2.043 -0.399,0 -0.777,-0.2 -1.046,-0.609 C 1.464,3.476 1.464,3.466 1.464,3.267 z"
       id="path282"
       inkscape:connector-curvature="0" />
  </g>
  <g
     transform="translate(42.628999,52.52)"
     style="fill:#161413;fill-rule:evenodd;stroke:none"
     id="g284">
    <path
       d="m 0.837,1.952 c 0.06,-1.484 0.897,-1.733 1.236,-1.733 1.025,0 1.125,1.345 1.125,1.733 0,0 -2.361,0 -2.361,0 z M 0.826,2.161 c 0,0 2.781,0 2.781,0 0.218,0 0.249,0 0.249,-0.209 C 3.856,0.966 3.318,0 2.073,0 0.916,0 0,1.025 0,2.272 c 0,1.335 1.046,2.3 2.192,2.3 1.216,0 1.664,-1.105 1.664,-1.295 0,-0.099 -0.08,-0.119 -0.13,-0.119 -0.09,0 -0.109,0.06 -0.13,0.139 C 3.247,4.323 2.351,4.323 2.251,4.323 1.753,4.323 1.355,4.025 1.125,3.656 0.826,3.178 0.826,2.521 0.826,2.161 z"
       id="path286"
       inkscape:connector-curvature="0" />
  </g>
  <g
     transform="translate(47.167999,52.58)"
     style="fill:#161413;fill-rule:evenodd;stroke:none"
     id="g288">
    <path
       d="m 0.778,0.976 c 0,0 0,2.67 0,2.67 0,0.448 -0.11,0.448 -0.778,0.448 0,0 0,0.309 0,0.309 0,0 2.243,0 2.243,0 0,0 0,-0.309 0,-0.309 -0.668,0 -0.778,0 -0.778,-0.448 0,0 0,-1.833 0,-1.833 0,-1.036 0.707,-1.595 1.345,-1.595 0.628,0 0.737,0.539 0.737,1.107 0,0 0,2.321 0,2.321 0,0.448 -0.109,0.448 -0.776,0.448 0,0 0,0.309 0,0.309 0,0 2.241,0 2.241,0 0,0 0,-0.309 0,-0.309 -0.518,0 -0.768,0 -0.777,-0.298 0,0 0,-1.904 0,-1.904 0,-0.856 0,-1.165 -0.309,-1.524 C 3.786,0.199 3.457,0 2.88,0 2.153,0 1.685,0.428 1.406,1.046 c 0,0 0,-1.046 0,-1.046 C 1.406,0 0,0.109 0,0.109 c 0,0 0,0.309 0,0.309 0.699,0 0.778,0.07 0.778,0.558 z"
       id="path290"
       inkscape:connector-curvature="0" />
  </g>
  <g
     transform="translate(52.667999,50.069)"
     style="fill:#161413;fill-rule:evenodd;stroke:none"
     id="g292">
    <path
       d="m 0.778,6.157 c 0,0.448 -0.11,0.448 -0.778,0.448 0,0 0,0.309 0,0.309 0,0 2.243,0 2.243,0 0,0 0,-0.309 0,-0.309 -0.668,0 -0.778,0 -0.778,-0.448 0,0 0,-1.833 0,-1.833 0,-1.036 0.707,-1.595 1.345,-1.595 0.628,0 0.737,0.539 0.737,1.107 0,0 0,2.321 0,2.321 0,0.448 -0.109,0.448 -0.776,0.448 0,0 0,0.309 0,0.309 0,0 2.241,0 2.241,0 0,0 0,-0.309 0,-0.309 -0.518,0 -0.768,0 -0.777,-0.298 0,0 0,-1.904 0,-1.904 0,-0.856 0,-1.165 -0.309,-1.524 C 3.786,2.71 3.457,2.511 2.88,2.511 c -0.837,0 -1.275,0.597 -1.444,0.976 0,0 0,-3.487 0,-3.487 C 1.436,0 0,0.109 0,0.109 c 0,0 0,0.309 0,0.309 0.699,0 0.778,0.07 0.778,0.558 0,0 0,5.181 0,5.181 z"
       id="path294"
       inkscape:connector-curvature="0" />
  </g>
  <g
     transform="translate(58.267999,52.52)"
     style="fill:#161413;fill-rule:evenodd;stroke:none"
     id="g296">
    <path
       d="m 2.899,3.706 c 0.04,0.399 0.309,0.817 0.778,0.817 0.209,0 0.816,-0.14 0.816,-0.947 0,0 0,-0.557 0,-0.557 0,0 -0.249,0 -0.249,0 0,0 0,0.557 0,0.557 0,0.578 -0.249,0.638 -0.358,0.638 -0.329,0 -0.368,-0.448 -0.368,-0.498 0,0 0,-1.992 0,-1.992 0,-0.419 0,-0.808 -0.36,-1.176 C 2.77,0.159 2.271,0 1.794,0 0.977,0 0.289,0.468 0.289,1.125 c 0,0.299 0.199,0.469 0.459,0.469 0.278,0 0.458,-0.199 0.458,-0.458 0,-0.12 -0.05,-0.448 -0.508,-0.459 0.269,-0.349 0.757,-0.458 1.075,-0.458 0.489,0 1.057,0.389 1.057,1.275 0,0 0,0.368 0,0.368 C 2.321,1.893 1.624,1.923 0.997,2.222 0.25,2.56 0,3.078 0,3.517 0,4.323 0.967,4.572 1.595,4.572 2.252,4.572 2.71,4.174 2.899,3.706 z M 2.83,2.072 c 0,0 0,0.996 0,0.996 0,0.947 -0.718,1.286 -1.166,1.286 -0.488,0 -0.896,-0.349 -0.896,-0.847 0,-0.548 0.418,-1.375 2.062,-1.435 z"
       id="path298"
       inkscape:connector-curvature="0" />
  </g>
  <g
     transform="translate(63.128999,52.47)"
     style="fill:#161413;fill-rule:evenodd;stroke:none"
     id="g300">
    <path
       d="m 1.933,2.799 c -0.867,0 -0.867,-0.996 -0.867,-1.225 0,-0.269 0.009,-0.587 0.159,-0.836 0.08,-0.121 0.309,-0.4 0.708,-0.4 0.866,0 0.866,0.997 0.866,1.226 0,0.269 -0.01,0.588 -0.159,0.837 C 2.56,2.521 2.331,2.799 1.933,2.799 z M 0.777,3.188 c 0,-0.04 0,-0.269 0.17,-0.468 0.388,0.278 0.796,0.309 0.986,0.309 0.927,0 1.613,-0.688 1.613,-1.455 0,-0.369 -0.159,-0.737 -0.408,-0.966 0.358,-0.339 0.718,-0.389 0.896,-0.389 0.021,0 0.071,0 0.1,0.01 -0.109,0.04 -0.159,0.149 -0.159,0.269 0,0.169 0.13,0.289 0.289,0.289 0.1,0 0.289,-0.07 0.289,-0.298 C 4.553,0.319 4.433,0 4.045,0 3.846,0 3.408,0.06 2.989,0.468 2.571,0.139 2.152,0.11 1.933,0.11 c -0.927,0 -1.614,0.687 -1.614,1.454 0,0.438 0.219,0.817 0.468,1.026 -0.129,0.15 -0.309,0.479 -0.309,0.827 0,0.309 0.13,0.688 0.438,0.887 C 0.319,4.473 0,4.902 0,5.3 0,6.017 0.987,6.566 2.201,6.566 3.377,6.566 4.413,6.057 4.413,5.281 4.413,4.931 4.274,4.423 3.766,4.145 3.238,3.866 2.66,3.866 2.052,3.866 c -0.249,0 -0.678,0 -0.747,-0.01 C 0.987,3.816 0.777,3.507 0.777,3.188 z M 2.211,6.336 C 1.205,6.336 0.518,5.828 0.518,5.3 c 0,-0.458 0.379,-0.827 0.817,-0.856 0,0 0.588,0 0.588,0 0.857,0 1.973,0 1.973,0.856 0,0.538 -0.708,1.036 -1.685,1.036 z"
       id="path302"
       inkscape:connector-curvature="0" />
  </g>
  <g
     transform="translate(68.128999,52.52)"
     style="fill:#161413;fill-rule:evenodd;stroke:none"
     id="g304">
    <path
       d="m 0.837,1.952 c 0.06,-1.484 0.897,-1.733 1.236,-1.733 1.025,0 1.125,1.345 1.125,1.733 0,0 -2.361,0 -2.361,0 z M 0.826,2.161 c 0,0 2.781,0 2.781,0 0.218,0 0.249,0 0.249,-0.209 C 3.856,0.966 3.318,0 2.073,0 0.916,0 0,1.025 0,2.272 c 0,1.335 1.046,2.3 2.192,2.3 1.216,0 1.664,-1.105 1.664,-1.295 0,-0.099 -0.08,-0.119 -0.13,-0.119 -0.09,0 -0.109,0.06 -0.13,0.139 C 3.247,4.323 2.351,4.323 2.251,4.323 1.753,4.323 1.355,4.025 1.125,3.656 0.826,3.178 0.826,2.521 0.826,2.161 z"
       id="path306"
       inkscape:connector-curvature="0" />
  </g>
  <g
     transform="translate(72.667999,52.58)"
     style="fill:#161413;fill-rule:evenodd;stroke:none"
     id="g308">
    <path
       d="m 0.778,0.976 c 0,0 0,2.67 0,2.67 0,0.448 -0.11,0.448 -0.778,0.448 0,0 0,0.309 0,0.309 0,0 2.243,0 2.243,0 0,0 0,-0.309 0,-0.309 -0.668,0 -0.778,0 -0.778,-0.448 0,0 0,-1.833 0,-1.833 0,-1.036 0.707,-1.595 1.345,-1.595 0.628,0 0.737,0.539 0.737,1.107 0,0 0,2.321 0,2.321 0,0.448 -0.109,0.448 -0.776,0.448 0,0 0,0.309 0,0.309 0,0 2.241,0 2.241,0 0,0 0,-0.309 0,-0.309 -0.518,0 -0.768,0 -0.777,-0.298 0,0 0,-1.904 0,-1.904 0,-0.856 0,-1.165 -0.309,-1.524 C 3.786,0.199 3.457,0 2.88,0 2.153,0 1.685,0.428 1.406,1.046 c 0,0 0,-1.046 0,-1.046 C 1.406,0 0,0.109 0,0.109 c 0,0 0,0.309 0,0.309 0.699,0 0.778,0.07 0.778,0.558 z"
       id="path310"
       inkscape:connector-curvature="0" />
  </g>
  <g
     transform="translate(103.518,50.348)"
     style="fill:#161413;fill-rule:evenodd;stroke:none"
     id="g312">
    <path
       d="m 0.897,3.367 c 0,0 0,-0.239 0,-0.239 0,-2.52 1.236,-2.879 1.744,-2.879 0.239,0 0.657,0.06 0.877,0.399 -0.15,0 -0.548,0 -0.548,0.448 0,0.309 0.238,0.458 0.458,0.458 0.159,0 0.458,-0.09 0.458,-0.479 C 3.886,0.478 3.447,0 2.621,0 1.346,0 0,1.285 0,3.487 c 0,2.66 1.156,3.367 2.083,3.367 1.105,0 2.052,-0.937 2.052,-2.251 0,-1.266 -0.887,-2.222 -1.992,-2.222 -0.678,0 -1.046,0.508 -1.246,0.986 z M 2.083,6.575 C 1.455,6.575 1.156,5.978 1.097,5.828 0.917,5.36 0.917,4.563 0.917,4.383 c 0,-0.776 0.318,-1.772 1.216,-1.772 0.159,0 0.617,0 0.926,0.617 0.179,0.368 0.179,0.877 0.179,1.365 0,0.478 0,0.976 -0.169,1.335 C 2.77,6.526 2.311,6.575 2.083,6.575 z"
       id="path314"
       inkscape:connector-curvature="0" />
  </g>
  <g
     transform="translate(124.098,50.348)"
     style="fill:#161413;fill-rule:evenodd;stroke:none"
     id="g316">
    <path
       d="m 0.768,5.867 c 0,0 1.055,-1.025 1.055,-1.025 C 3.377,3.467 3.976,2.929 3.976,1.933 3.976,0.797 3.078,0 1.863,0 0.737,0 0,0.916 0,1.803 c 0,0.558 0.498,0.558 0.528,0.558 0.169,0 0.518,-0.12 0.518,-0.528 0,-0.259 -0.179,-0.518 -0.527,-0.518 -0.08,0 -0.1,0 -0.13,0.009 0.229,-0.647 0.766,-1.015 1.344,-1.015 0.908,0 1.335,0.806 1.335,1.624 0,0.797 -0.498,1.584 -1.045,2.201 0,0 -1.914,2.133 -1.914,2.133 C 0,6.376 0,6.396 0,6.635 c 0,0 3.696,0 3.696,0 0,0 0.28,-1.733 0.28,-1.733 0,0 -0.249,0 -0.249,0 C 3.677,5.2 3.606,5.639 3.507,5.788 3.438,5.867 2.779,5.867 2.561,5.867 c 0,0 -1.793,0 -1.793,0 z"
       id="path318"
       inkscape:connector-curvature="0" />
  </g>
  <g
     transform="translate(145.487,50.348)"
     style="fill:#161413;fill-rule:evenodd;stroke:none"
     id="g320">
    <path
       d="M 2.042,0.259 C 2.042,0.02 2.042,0 1.813,0 1.195,0.638 0.318,0.638 0,0.638 c 0,0 0,0.309 0,0.309 0.199,0 0.787,0 1.304,-0.259 0,0 0,5.16 0,5.16 0,0.358 -0.029,0.478 -0.925,0.478 0,0 -0.32,0 -0.32,0 0,0 0,0.309 0,0.309 0,0 3.229,0 3.229,0 0,0 0,-0.309 0,-0.309 0,0 -0.32,0 -0.32,0 -0.896,0 -0.926,-0.109 -0.926,-0.478 0,0 0,-5.589 0,-5.589 z"
       id="path322"
       inkscape:connector-curvature="0" />
  </g>
  <g
     transform="translate(163.848,50.348)"
     style="fill:#161413;fill-rule:evenodd;stroke:none"
     id="g324">
    <path
       d="m 0.768,5.867 c 0,0 1.055,-1.025 1.055,-1.025 C 3.377,3.467 3.976,2.929 3.976,1.933 3.976,0.797 3.078,0 1.863,0 0.737,0 0,0.916 0,1.803 c 0,0.558 0.498,0.558 0.528,0.558 0.169,0 0.518,-0.12 0.518,-0.528 0,-0.259 -0.179,-0.518 -0.527,-0.518 -0.08,0 -0.1,0 -0.13,0.009 0.229,-0.647 0.766,-1.015 1.344,-1.015 0.908,0 1.335,0.806 1.335,1.624 0,0.797 -0.498,1.584 -1.045,2.201 0,0 -1.914,2.133 -1.914,2.133 C 0,6.376 0,6.396 0,6.635 c 0,0 3.696,0 3.696,0 0,0 0.28,-1.733 0.28,-1.733 0,0 -0.249,0 -0.249,0 C 3.677,5.2 3.606,5.639 3.507,5.788 3.438,5.867 2.779,5.867 2.561,5.867 c 0,0 -1.793,0 -1.793,0 z"
       id="path326"
       inkscape:connector-curvature="0" />
  </g>
  <g
     transform="translate(183.848,50.348)"
     style="fill:#161413;fill-rule:evenodd;stroke:none"
     id="g328">
    <path
       d="M 3.976,4.632 C 3.976,3.447 3.158,2.45 2.082,2.45 c -0.477,0 -0.906,0.161 -1.265,0.509 0,0 0,-1.943 0,-1.943 0.2,0.059 0.528,0.13 0.847,0.13 C 2.89,1.146 3.587,0.239 3.587,0.11 3.587,0.05 3.557,0 3.487,0 3.477,0 3.457,0 3.407,0.03 3.208,0.119 2.72,0.319 2.053,0.319 1.654,0.319 1.195,0.249 0.728,0.039 0.648,0.01 0.628,0.01 0.607,0.01 c -0.099,0 -0.099,0.079 -0.099,0.239 0,0 0,2.948 0,2.948 0,0.18 0,0.26 0.14,0.26 0.07,0 0.089,-0.03 0.129,-0.09 0.11,-0.159 0.479,-0.697 1.286,-0.697 0.517,0 0.766,0.458 0.846,0.638 0.159,0.368 0.18,0.757 0.18,1.255 0,0.348 0,0.946 -0.239,1.365 C 2.61,6.317 2.241,6.575 1.783,6.575 1.056,6.575 0.488,6.047 0.319,5.459 0.349,5.469 0.379,5.48 0.488,5.48 0.817,5.48 0.986,5.231 0.986,4.991 0.986,4.752 0.817,4.503 0.488,4.503 0.349,4.503 0,4.573 0,5.031 c 0,0.857 0.688,1.823 1.804,1.823 1.155,0 2.172,-0.956 2.172,-2.222 z"
       id="path330"
       inkscape:connector-curvature="0" />
  </g>
  <g
     transform="translate(204.518,50.348)"
     style="fill:#161413;fill-rule:evenodd;stroke:none"
     id="g332">
    <path
       d="M 1.206,2.082 C 0.748,1.783 0.708,1.445 0.708,1.275 c 0,-0.608 0.647,-1.026 1.354,-1.026 0.728,0 1.366,0.518 1.366,1.236 0,0.567 -0.389,1.046 -0.987,1.394 0,0 -1.235,-0.797 -1.235,-0.797 z M 2.66,3.029 C 3.378,2.66 3.866,2.142 3.866,1.485 3.866,0.568 2.979,0 2.072,0 1.076,0 0.27,0.738 0.27,1.663 0.27,1.843 0.289,2.291 0.708,2.76 0.817,2.879 1.186,3.128 1.436,3.297 0.857,3.586 0,4.145 0,5.131 0,6.187 1.017,6.854 2.062,6.854 3.188,6.854 4.135,6.028 4.135,4.961 4.135,4.603 4.025,4.155 3.646,3.736 3.457,3.527 3.298,3.427 2.66,3.029 z M 1.664,3.447 c 0,0 1.226,0.777 1.226,0.777 0.279,0.189 0.747,0.488 0.747,1.096 0,0.737 -0.747,1.255 -1.565,1.255 -0.856,0 -1.573,-0.618 -1.573,-1.444 0,-0.578 0.318,-1.216 1.165,-1.684 z"
       id="path334"
       inkscape:connector-curvature="0" />
  </g>
  <g
     transform="translate(232.408,50.249)"
     style="fill:#161413;fill-rule:evenodd;stroke:none"
     id="g336">
    <path
       d="m 4.184,0.667 c 0.09,-0.12 0.09,-0.14 0.09,-0.349 0,0 -2.421,0 -2.421,0 C 0.637,0.318 0.618,0.188 0.578,0 0.578,0 0.329,0 0.329,0 0.329,0 0,2.051 0,2.051 c 0,0 0.249,0 0.249,0 0.03,-0.159 0.12,-0.787 0.249,-0.906 0.07,-0.059 0.847,-0.059 0.976,-0.059 0,0 2.063,0 2.063,0 C 3.427,1.245 2.64,2.331 2.421,2.659 1.524,4.005 1.196,5.389 1.196,6.405 c 0,0.1 0,0.548 0.458,0.548 0.458,0 0.458,-0.448 0.458,-0.548 0,0 0,-0.508 0,-0.508 0,-0.548 0.03,-1.096 0.109,-1.634 0.04,-0.229 0.18,-1.086 0.618,-1.704 0,0 1.345,-1.892 1.345,-1.892 z"
       id="path338"
       inkscape:connector-curvature="0" />
  </g>
</svg>
