<?xml version="1.0" encoding="UTF-8" standalone="no"?>
<svg
   xmlns:dc="http://purl.org/dc/elements/1.1/"
   xmlns:cc="http://creativecommons.org/ns#"
   xmlns:rdf="http://www.w3.org/1999/02/22-rdf-syntax-ns#"
   xmlns:svg="http://www.w3.org/2000/svg"
   xmlns="http://www.w3.org/2000/svg"
   xmlns:sodipodi="http://sodipodi.sourceforge.net/DTD/sodipodi-0.dtd"
   xmlns:inkscape="http://www.inkscape.org/namespaces/inkscape"
   width="53.071251"
   height="35.537498"
   viewBox="0 0 42.457001 28.429999"
   id="svg2"
   version="1.1"
   inkscape:version="0.48.0 r9654"
   sodipodi:docname="latex_source_code.ps(converted)-page1.svg">
  <metadata
     id="metadata112">
    <rdf:RDF>
      <cc:Work
         rdf:about="">
        <dc:format>image/svg+xml</dc:format>
        <dc:type
           rdf:resource="http://purl.org/dc/dcmitype/StillImage" />
        <dc:title></dc:title>
      </cc:Work>
    </rdf:RDF>
  </metadata>
  <defs
     id="defs110" />
  <sodipodi:namedview
     pagecolor="#ffffff"
     bordercolor="#666666"
     borderopacity="1"
     objecttolerance="10"
     gridtolerance="10"
     guidetolerance="10"
     inkscape:pageopacity="0"
     inkscape:pageshadow="2"
     inkscape:window-width="640"
     inkscape:window-height="480"
     id="namedview108"
     showgrid="false"
     fit-margin-top="2"
     fit-margin-right="2"
     fit-margin-bottom="2"
     fit-margin-left="2"
     inkscape:zoom="7.2317977"
     inkscape:cx="26.535625"
     inkscape:cy="17.768749"
     inkscape:window-x="0"
     inkscape:window-y="24"
     inkscape:window-maximized="0"
     inkscape:current-layer="svg2" />
  <g
     transform="translate(1.85,1.6)"
     style="fill:#161413;fill-rule:nonzero;stroke:none"
     id="g4">
    <path
       d="m 0,0.48 c 0,0 38.76,0 38.76,0 0,0 0,-0.48 0,-0.48 C 38.76,0 0,0 0,0"
       id="path6"
       inkscape:connector-curvature="0" />
  </g>
  <g
     transform="translate(1.6,2.08)"
     style="fill:#161413;fill-rule:nonzero;stroke:none"
     id="g8">
    <path
       d="m 0,12 c 0,0 0.48,0 0.48,0 0,0 0,-12 0,-12 C 0.48,0 0,0 0,0"
       id="path10"
       inkscape:connector-curvature="0" />
  </g>
  <g
     transform="translate(2.429,5.867)"
     style="fill:#161413;fill-rule:evenodd;stroke:none"
     id="g12">
    <path
       d="m 1.743,2.53 c 0.219,0.04 1.036,0.2 1.036,0.916 0,0.509 -0.348,0.908 -1.126,0.908 C 0.817,4.354 0.458,3.785 0.269,2.939 0.239,2.81 0.229,2.77 0.129,2.77 0,2.77 0,2.839 0,3.019 c 0,0 0,1.314 0,1.314 0,0.17 0,0.239 0.109,0.239 0.05,0 0.06,-0.009 0.25,-0.199 C 0.378,4.354 0.378,4.333 0.558,4.145 0.996,4.563 1.444,4.572 1.653,4.572 2.799,4.572 3.258,3.905 3.258,3.188 3.258,2.659 2.959,2.36 2.839,2.241 2.51,1.923 2.122,1.843 1.703,1.763 1.146,1.653 0.478,1.524 0.478,0.946 c 0,-0.348 0.259,-0.757 1.116,-0.757 1.096,0 1.145,0.897 1.166,1.206 0.01,0.089 0.099,0.089 0.119,0.089 0.13,0 0.13,-0.049 0.13,-0.239 0,0 0,-1.007 0,-1.007 C 3.009,0.069 3.009,0 2.899,0 2.849,0 2.829,0 2.699,0.119 2.67,0.159 2.57,0.249 2.53,0.278 2.151,0 1.743,0 1.594,0 0.378,0 0,0.667 0,1.225 0,1.574 0.159,1.853 0.428,2.072 0.747,2.331 1.025,2.391 1.743,2.53 z"
       id="path14"
       inkscape:connector-curvature="0" />
  </g>
  <g
     transform="translate(6.289,4.203)"
     style="fill:#161413;fill-rule:evenodd;stroke:none"
     id="g16">
    <path
       d="m 1.535,2.142 c 0,0 1.424,0 1.424,0 0,0 0,-0.309 0,-0.309 0,0 -1.424,0 -1.424,0 0,0 0,-1.833 0,-1.833 0,0 -0.249,0 -0.249,0 C 1.276,0.816 0.977,1.883 0,1.923 c 0,0 0,0.219 0,0.219 0,0 0.847,0 0.847,0 0,0 0,2.75 0,2.75 0,1.225 0.927,1.344 1.285,1.344 0.707,0 0.987,-0.707 0.987,-1.344 0,0 0,-0.569 0,-0.569 0,0 -0.249,0 -0.249,0 0,0 0,0.549 0,0.549 0,0.737 -0.299,1.115 -0.668,1.115 -0.667,0 -0.667,-0.906 -0.667,-1.076 0,0 0,-2.769 0,-2.769 z"
       id="path18"
       inkscape:connector-curvature="0" />
  </g>
  <g
     transform="translate(10.168,5.927)"
     style="fill:#161413;fill-rule:evenodd;stroke:none"
     id="g20">
    <path
       d="m 3.578,3.616 c 0,0 0,0.896 0,0.896 0,0 1.434,-0.109 1.434,-0.109 0,0 0,-0.309 0,-0.309 -0.697,0 -0.777,-0.07 -0.777,-0.558 0,0 0,-3.536 0,-3.536 0,0 -1.464,0.109 -1.464,0.109 0,0 0,0.309 0,0.309 0.697,0 0.776,0.07 0.776,0.558 0,0 0,1.774 0,1.774 0,0.866 -0.477,1.544 -1.205,1.544 -0.837,0 -0.877,-0.469 -0.877,-0.987 0,0 0,-3.307 0,-3.307 C 1.465,0 0,0.109 0,0.109 c 0,0 0,0.309 0,0.309 0.778,0 0.778,0.03 0.778,0.917 0,0 0,1.494 0,1.494 0,0.777 0,1.683 1.514,1.683 0.558,0 0.996,-0.278 1.286,-0.896 z"
       id="path22"
       inkscape:connector-curvature="0" />
  </g>
  <g
     transform="translate(15.619,3.307)"
     style="fill:#161413;fill-rule:evenodd;stroke:none"
     id="g24">
    <path
       d="m 4.194,3.038 c 0,0 1.146,0 1.146,0 0,0 0,-0.309 0,-0.309 0,0 -1.175,0 -1.175,0 0,0 0,-1.155 0,-1.155 0,-0.887 0.477,-1.356 0.926,-1.356 0.03,0 0.179,0 0.328,0.071 C 5.3,0.328 5.121,0.458 5.121,0.707 c 0,0.229 0.159,0.428 0.428,0.428 0.289,0 0.439,-0.199 0.439,-0.438 C 5.988,0.338 5.639,0 5.081,0 4.493,0 4.055,0.377 4.005,0.418 3.716,0.049 3.158,0 2.889,0 1.943,0 0.787,0.517 0.787,1.593 c 0,0 0,1.136 0,1.136 0,0 -0.787,0 -0.787,0 0,0 0,0.309 0,0.309 0,0 0.787,0 0.787,0 0,0 0,3.228 0,3.228 0,0.448 -0.11,0.448 -0.777,0.448 0,0 0,0.309 0,0.309 0,0 2.211,0 2.211,0 0,0 0,-0.309 0,-0.309 -0.667,0 -0.776,0 -0.776,-0.448 0,0 0,-3.228 0,-3.228 0,0 2.092,0 2.092,0 0,0 0,3.228 0,3.228 0,0.448 -0.11,0.448 -0.778,0.448 0,0 0,0.309 0,0.309 0,0 2.402,0 2.402,0 0,0 0,-0.309 0,-0.309 0,0 -0.209,0 -0.209,0 -0.738,0 -0.758,-0.109 -0.758,-0.468 0,0 0,-3.208 0,-3.208 z M 1.415,2.729 c 0,0 0,-1.126 0,-1.126 0,-0.966 0.817,-1.385 1.464,-1.385 0.489,0 0.767,0.19 0.777,0.19 0,0 0,0.01 0,0.01 -0.169,0.02 -0.368,0.149 -0.368,0.428 0,0.06 0.009,0.309 0.279,0.399 -0.03,0.13 -0.03,0.218 -0.03,0.339 0,0 0,1.145 0,1.145 0,0 -2.122,0 -2.122,0 z"
       id="path26"
       inkscape:connector-curvature="0" />
  </g>
  <g
     transform="translate(20.85,2.08)"
     style="fill:#161413;fill-rule:nonzero;stroke:none"
     id="g28">
    <path
       d="m 0,12 c 0,0 0.48,0 0.48,0 0,0 0,-12 0,-12 C 0.48,0 0,0 0,0"
       id="path30"
       inkscape:connector-curvature="0" />
  </g>
  <g
     transform="translate(21.679,5.867)"
     style="fill:#161413;fill-rule:evenodd;stroke:none"
     id="g32">
    <path
       d="m 1.743,2.53 c 0.219,0.04 1.036,0.2 1.036,0.916 0,0.509 -0.348,0.908 -1.126,0.908 C 0.817,4.354 0.458,3.785 0.269,2.939 0.239,2.81 0.229,2.77 0.129,2.77 0,2.77 0,2.839 0,3.019 c 0,0 0,1.314 0,1.314 0,0.17 0,0.239 0.109,0.239 0.05,0 0.06,-0.009 0.25,-0.199 C 0.378,4.354 0.378,4.333 0.558,4.145 0.996,4.563 1.444,4.572 1.653,4.572 2.799,4.572 3.258,3.905 3.258,3.188 3.258,2.659 2.959,2.36 2.839,2.241 2.51,1.923 2.122,1.843 1.703,1.763 1.146,1.653 0.478,1.524 0.478,0.946 c 0,-0.348 0.259,-0.757 1.116,-0.757 1.096,0 1.145,0.897 1.166,1.206 0.01,0.089 0.099,0.089 0.119,0.089 0.13,0 0.13,-0.049 0.13,-0.239 0,0 0,-1.007 0,-1.007 C 3.009,0.069 3.009,0 2.899,0 2.849,0 2.829,0 2.699,0.119 2.67,0.159 2.57,0.249 2.53,0.278 2.151,0 1.743,0 1.594,0 0.378,0 0,0.667 0,1.225 0,1.574 0.159,1.853 0.428,2.072 0.747,2.331 1.025,2.391 1.743,2.53 z"
       id="path34"
       inkscape:connector-curvature="0" />
  </g>
  <g
     transform="translate(25.539,4.203)"
     style="fill:#161413;fill-rule:evenodd;stroke:none"
     id="g36">
    <path
       d="m 1.535,2.142 c 0,0 1.424,0 1.424,0 0,0 0,-0.309 0,-0.309 0,0 -1.424,0 -1.424,0 0,0 0,-1.833 0,-1.833 0,0 -0.249,0 -0.249,0 C 1.276,0.816 0.977,1.883 0,1.923 c 0,0 0,0.219 0,0.219 0,0 0.847,0 0.847,0 0,0 0,2.75 0,2.75 0,1.225 0.927,1.344 1.285,1.344 0.707,0 0.987,-0.707 0.987,-1.344 0,0 0,-0.569 0,-0.569 0,0 -0.249,0 -0.249,0 0,0 0,0.549 0,0.549 0,0.737 -0.299,1.115 -0.668,1.115 -0.667,0 -0.667,-0.906 -0.667,-1.076 0,0 0,-2.769 0,-2.769 z"
       id="path38"
       inkscape:connector-curvature="0" />
  </g>
  <g
     transform="translate(29.418,5.927)"
     style="fill:#161413;fill-rule:evenodd;stroke:none"
     id="g40">
    <path
       d="m 3.578,3.616 c 0,0 0,0.896 0,0.896 0,0 1.434,-0.109 1.434,-0.109 0,0 0,-0.309 0,-0.309 -0.697,0 -0.777,-0.07 -0.777,-0.558 0,0 0,-3.536 0,-3.536 0,0 -1.464,0.109 -1.464,0.109 0,0 0,0.309 0,0.309 0.697,0 0.776,0.07 0.776,0.558 0,0 0,1.774 0,1.774 0,0.866 -0.477,1.544 -1.205,1.544 -0.837,0 -0.877,-0.469 -0.877,-0.987 0,0 0,-3.307 0,-3.307 C 1.465,0 0,0.109 0,0.109 c 0,0 0,0.309 0,0.309 0.778,0 0.778,0.03 0.778,0.917 0,0 0,1.494 0,1.494 0,0.777 0,1.683 1.514,1.683 0.558,0 0.996,-0.278 1.286,-0.896 z"
       id="path42"
       inkscape:connector-curvature="0" />
  </g>
  <g
     transform="translate(34.869,3.307)"
     style="fill:#161413;fill-rule:evenodd;stroke:none"
     id="g44">
    <path
       d="m 4.194,3.038 c 0,0 1.146,0 1.146,0 0,0 0,-0.309 0,-0.309 0,0 -1.175,0 -1.175,0 0,0 0,-1.155 0,-1.155 0,-0.887 0.477,-1.356 0.926,-1.356 0.03,0 0.179,0 0.328,0.071 C 5.3,0.328 5.121,0.458 5.121,0.707 c 0,0.229 0.159,0.428 0.428,0.428 0.289,0 0.439,-0.199 0.439,-0.438 C 5.988,0.338 5.639,0 5.081,0 4.493,0 4.055,0.377 4.005,0.418 3.716,0.049 3.158,0 2.889,0 1.943,0 0.787,0.517 0.787,1.593 c 0,0 0,1.136 0,1.136 0,0 -0.787,0 -0.787,0 0,0 0,0.309 0,0.309 0,0 0.787,0 0.787,0 0,0 0,3.228 0,3.228 0,0.448 -0.11,0.448 -0.777,0.448 0,0 0,0.309 0,0.309 0,0 2.211,0 2.211,0 0,0 0,-0.309 0,-0.309 -0.667,0 -0.776,0 -0.776,-0.448 0,0 0,-3.228 0,-3.228 0,0 2.092,0 2.092,0 0,0 0,3.228 0,3.228 0,0.448 -0.11,0.448 -0.778,0.448 0,0 0,0.309 0,0.309 0,0 2.402,0 2.402,0 0,0 0,-0.309 0,-0.309 0,0 -0.209,0 -0.209,0 -0.738,0 -0.758,-0.109 -0.758,-0.468 0,0 0,-3.208 0,-3.208 z M 1.415,2.729 c 0,0 0,-1.126 0,-1.126 0,-0.966 0.817,-1.385 1.464,-1.385 0.489,0 0.767,0.19 0.777,0.19 0,0 0,0.01 0,0.01 -0.169,0.02 -0.368,0.149 -0.368,0.428 0,0.06 0.009,0.309 0.279,0.399 -0.03,0.13 -0.03,0.218 -0.03,0.339 0,0 0,1.145 0,1.145 0,0 -2.122,0 -2.122,0 z"
       id="path46"
       inkscape:connector-curvature="0" />
  </g>
  <g
     transform="translate(40.1,2.08)"
     style="fill:#161413;fill-rule:nonzero;stroke:none"
     id="g48">
    <path
       d="m 0,12 c 0,0 0.48,0 0.48,0 0,0 0,-12 0,-12 C 0.48,0 0,0 0,0"
       id="path50"
       inkscape:connector-curvature="0" />
  </g>
  <g
     transform="translate(1.85,13.85)"
     style="fill:#161413;fill-rule:nonzero;stroke:none"
     id="g52">
    <path
       d="m 0,0.48 c 0,0 38.76,0 38.76,0 0,0 0,-0.48 0,-0.48 C 38.76,0 0,0 0,0"
       id="path54"
       inkscape:connector-curvature="0" />
  </g>
  <g
     transform="translate(1.6,14.33)"
     style="fill:#161413;fill-rule:nonzero;stroke:none"
     id="g56">
    <path
       d="m 0,12 c 0,0 0.48,0 0.48,0 0,0 0,-12 0,-12 C 0.48,0 0,0 0,0"
       id="path58"
       inkscape:connector-curvature="0" />
  </g>
  <g
     transform="translate(2.429,18.367)"
     style="fill:#161413;fill-rule:evenodd;stroke:none"
     id="g60">
    <path
       d="m 1.743,2.53 c 0.219,0.04 1.036,0.2 1.036,0.916 0,0.509 -0.348,0.908 -1.126,0.908 C 0.817,4.354 0.458,3.785 0.269,2.939 0.239,2.81 0.229,2.77 0.129,2.77 0,2.77 0,2.839 0,3.019 c 0,0 0,1.314 0,1.314 0,0.17 0,0.239 0.109,0.239 0.05,0 0.06,-0.009 0.25,-0.199 C 0.378,4.354 0.378,4.333 0.558,4.145 0.996,4.563 1.444,4.572 1.653,4.572 2.799,4.572 3.258,3.905 3.258,3.188 3.258,2.659 2.959,2.36 2.839,2.241 2.51,1.923 2.122,1.843 1.703,1.763 1.146,1.653 0.478,1.524 0.478,0.946 c 0,-0.348 0.259,-0.757 1.116,-0.757 1.096,0 1.145,0.897 1.166,1.206 0.01,0.089 0.099,0.089 0.119,0.089 0.13,0 0.13,-0.049 0.13,-0.239 0,0 0,-1.007 0,-1.007 C 3.009,0.069 3.009,0 2.899,0 2.849,0 2.829,0 2.699,0.119 2.67,0.159 2.57,0.249 2.53,0.278 2.151,0 1.743,0 1.594,0 0.378,0 0,0.667 0,1.225 0,1.574 0.159,1.853 0.428,2.072 0.747,2.331 1.025,2.391 1.743,2.53 z"
       id="path62"
       inkscape:connector-curvature="0" />
  </g>
  <g
     transform="translate(6.289,16.703)"
     style="fill:#161413;fill-rule:evenodd;stroke:none"
     id="g64">
    <path
       d="m 1.535,2.142 c 0,0 1.424,0 1.424,0 0,0 0,-0.309 0,-0.309 0,0 -1.424,0 -1.424,0 0,0 0,-1.833 0,-1.833 0,0 -0.249,0 -0.249,0 C 1.276,0.816 0.977,1.883 0,1.923 c 0,0 0,0.219 0,0.219 0,0 0.847,0 0.847,0 0,0 0,2.75 0,2.75 0,1.225 0.927,1.344 1.285,1.344 0.707,0 0.987,-0.707 0.987,-1.344 0,0 0,-0.569 0,-0.569 0,0 -0.249,0 -0.249,0 0,0 0,0.549 0,0.549 0,0.737 -0.299,1.115 -0.668,1.115 -0.667,0 -0.667,-0.906 -0.667,-1.076 0,0 0,-2.769 0,-2.769 z"
       id="path66"
       inkscape:connector-curvature="0" />
  </g>
  <g
     transform="translate(10.168,18.427)"
     style="fill:#161413;fill-rule:evenodd;stroke:none"
     id="g68">
    <path
       d="m 3.578,3.616 c 0,0 0,0.896 0,0.896 0,0 1.434,-0.109 1.434,-0.109 0,0 0,-0.309 0,-0.309 -0.697,0 -0.777,-0.07 -0.777,-0.558 0,0 0,-3.536 0,-3.536 0,0 -1.464,0.109 -1.464,0.109 0,0 0,0.309 0,0.309 0.697,0 0.776,0.07 0.776,0.558 0,0 0,1.774 0,1.774 0,0.866 -0.477,1.544 -1.205,1.544 -0.837,0 -0.877,-0.469 -0.877,-0.987 0,0 0,-3.307 0,-3.307 C 1.465,0 0,0.109 0,0.109 c 0,0 0,0.309 0,0.309 0.778,0 0.778,0.03 0.778,0.917 0,0 0,1.494 0,1.494 0,0.777 0,1.683 1.514,1.683 0.558,0 0.996,-0.278 1.286,-0.896 z"
       id="path70"
       inkscape:connector-curvature="0" />
  </g>
  <g
     transform="translate(15.619,15.807)"
     style="fill:#161413;fill-rule:evenodd;stroke:none"
     id="g72">
    <path
       d="m 4.194,3.038 c 0,0 1.146,0 1.146,0 0,0 0,-0.309 0,-0.309 0,0 -1.175,0 -1.175,0 0,0 0,-1.155 0,-1.155 0,-0.887 0.477,-1.356 0.926,-1.356 0.03,0 0.179,0 0.328,0.071 C 5.3,0.328 5.121,0.458 5.121,0.707 c 0,0.229 0.159,0.428 0.428,0.428 0.289,0 0.439,-0.199 0.439,-0.438 C 5.988,0.338 5.639,0 5.081,0 4.493,0 4.055,0.377 4.005,0.418 3.716,0.049 3.158,0 2.889,0 1.943,0 0.787,0.517 0.787,1.593 c 0,0 0,1.136 0,1.136 0,0 -0.787,0 -0.787,0 0,0 0,0.309 0,0.309 0,0 0.787,0 0.787,0 0,0 0,3.228 0,3.228 0,0.448 -0.11,0.448 -0.777,0.448 0,0 0,0.309 0,0.309 0,0 2.211,0 2.211,0 0,0 0,-0.309 0,-0.309 -0.667,0 -0.776,0 -0.776,-0.448 0,0 0,-3.228 0,-3.228 0,0 2.092,0 2.092,0 0,0 0,3.228 0,3.228 0,0.448 -0.11,0.448 -0.778,0.448 0,0 0,0.309 0,0.309 0,0 2.402,0 2.402,0 0,0 0,-0.309 0,-0.309 0,0 -0.209,0 -0.209,0 -0.738,0 -0.758,-0.109 -0.758,-0.468 0,0 0,-3.208 0,-3.208 z M 1.415,2.729 c 0,0 0,-1.126 0,-1.126 0,-0.966 0.817,-1.385 1.464,-1.385 0.489,0 0.767,0.19 0.777,0.19 0,0 0,0.01 0,0.01 -0.169,0.02 -0.368,0.149 -0.368,0.428 0,0.06 0.009,0.309 0.279,0.399 -0.03,0.13 -0.03,0.218 -0.03,0.339 0,0 0,1.145 0,1.145 0,0 -2.122,0 -2.122,0 z"
       id="path74"
       inkscape:connector-curvature="0" />
  </g>
  <g
     transform="translate(20.85,14.33)"
     style="fill:#161413;fill-rule:nonzero;stroke:none"
     id="g76">
    <path
       d="m 0,12 c 0,0 0.48,0 0.48,0 0,0 0,-12 0,-12 C 0.48,0 0,0 0,0"
       id="path78"
       inkscape:connector-curvature="0" />
  </g>
  <g
     transform="translate(21.679,18.367)"
     style="fill:#161413;fill-rule:evenodd;stroke:none"
     id="g80">
    <path
       d="m 1.743,2.53 c 0.219,0.04 1.036,0.2 1.036,0.916 0,0.509 -0.348,0.908 -1.126,0.908 C 0.817,4.354 0.458,3.785 0.269,2.939 0.239,2.81 0.229,2.77 0.129,2.77 0,2.77 0,2.839 0,3.019 c 0,0 0,1.314 0,1.314 0,0.17 0,0.239 0.109,0.239 0.05,0 0.06,-0.009 0.25,-0.199 C 0.378,4.354 0.378,4.333 0.558,4.145 0.996,4.563 1.444,4.572 1.653,4.572 2.799,4.572 3.258,3.905 3.258,3.188 3.258,2.659 2.959,2.36 2.839,2.241 2.51,1.923 2.122,1.843 1.703,1.763 1.146,1.653 0.478,1.524 0.478,0.946 c 0,-0.348 0.259,-0.757 1.116,-0.757 1.096,0 1.145,0.897 1.166,1.206 0.01,0.089 0.099,0.089 0.119,0.089 0.13,0 0.13,-0.049 0.13,-0.239 0,0 0,-1.007 0,-1.007 C 3.009,0.069 3.009,0 2.899,0 2.849,0 2.829,0 2.699,0.119 2.67,0.159 2.57,0.249 2.53,0.278 2.151,0 1.743,0 1.594,0 0.378,0 0,0.667 0,1.225 0,1.574 0.159,1.853 0.428,2.072 0.747,2.331 1.025,2.391 1.743,2.53 z"
       id="path82"
       inkscape:connector-curvature="0" />
  </g>
  <g
     transform="translate(25.539,16.703)"
     style="fill:#161413;fill-rule:evenodd;stroke:none"
     id="g84">
    <path
       d="m 1.535,2.142 c 0,0 1.424,0 1.424,0 0,0 0,-0.309 0,-0.309 0,0 -1.424,0 -1.424,0 0,0 0,-1.833 0,-1.833 0,0 -0.249,0 -0.249,0 C 1.276,0.816 0.977,1.883 0,1.923 c 0,0 0,0.219 0,0.219 0,0 0.847,0 0.847,0 0,0 0,2.75 0,2.75 0,1.225 0.927,1.344 1.285,1.344 0.707,0 0.987,-0.707 0.987,-1.344 0,0 0,-0.569 0,-0.569 0,0 -0.249,0 -0.249,0 0,0 0,0.549 0,0.549 0,0.737 -0.299,1.115 -0.668,1.115 -0.667,0 -0.667,-0.906 -0.667,-1.076 0,0 0,-2.769 0,-2.769 z"
       id="path86"
       inkscape:connector-curvature="0" />
  </g>
  <g
     transform="translate(29.418,18.427)"
     style="fill:#161413;fill-rule:evenodd;stroke:none"
     id="g88">
    <path
       d="m 3.578,3.616 c 0,0 0,0.896 0,0.896 0,0 1.434,-0.109 1.434,-0.109 0,0 0,-0.309 0,-0.309 -0.697,0 -0.777,-0.07 -0.777,-0.558 0,0 0,-3.536 0,-3.536 0,0 -1.464,0.109 -1.464,0.109 0,0 0,0.309 0,0.309 0.697,0 0.776,0.07 0.776,0.558 0,0 0,1.774 0,1.774 0,0.866 -0.477,1.544 -1.205,1.544 -0.837,0 -0.877,-0.469 -0.877,-0.987 0,0 0,-3.307 0,-3.307 C 1.465,0 0,0.109 0,0.109 c 0,0 0,0.309 0,0.309 0.778,0 0.778,0.03 0.778,0.917 0,0 0,1.494 0,1.494 0,0.777 0,1.683 1.514,1.683 0.558,0 0.996,-0.278 1.286,-0.896 z"
       id="path90"
       inkscape:connector-curvature="0" />
  </g>
  <g
     transform="translate(34.869,15.807)"
     style="fill:#161413;fill-rule:evenodd;stroke:none"
     id="g92">
    <path
       d="m 4.194,3.038 c 0,0 1.146,0 1.146,0 0,0 0,-0.309 0,-0.309 0,0 -1.175,0 -1.175,0 0,0 0,-1.155 0,-1.155 0,-0.887 0.477,-1.356 0.926,-1.356 0.03,0 0.179,0 0.328,0.071 C 5.3,0.328 5.121,0.458 5.121,0.707 c 0,0.229 0.159,0.428 0.428,0.428 0.289,0 0.439,-0.199 0.439,-0.438 C 5.988,0.338 5.639,0 5.081,0 4.493,0 4.055,0.377 4.005,0.418 3.716,0.049 3.158,0 2.889,0 1.943,0 0.787,0.517 0.787,1.593 c 0,0 0,1.136 0,1.136 0,0 -0.787,0 -0.787,0 0,0 0,0.309 0,0.309 0,0 0.787,0 0.787,0 0,0 0,3.228 0,3.228 0,0.448 -0.11,0.448 -0.777,0.448 0,0 0,0.309 0,0.309 0,0 2.211,0 2.211,0 0,0 0,-0.309 0,-0.309 -0.667,0 -0.776,0 -0.776,-0.448 0,0 0,-3.228 0,-3.228 0,0 2.092,0 2.092,0 0,0 0,3.228 0,3.228 0,0.448 -0.11,0.448 -0.778,0.448 0,0 0,0.309 0,0.309 0,0 2.402,0 2.402,0 0,0 0,-0.309 0,-0.309 0,0 -0.209,0 -0.209,0 -0.738,0 -0.758,-0.109 -0.758,-0.468 0,0 0,-3.208 0,-3.208 z M 1.415,2.729 c 0,0 0,-1.126 0,-1.126 0,-0.966 0.817,-1.385 1.464,-1.385 0.489,0 0.767,0.19 0.777,0.19 0,0 0,0.01 0,0.01 -0.169,0.02 -0.368,0.149 -0.368,0.428 0,0.06 0.009,0.309 0.279,0.399 -0.03,0.13 -0.03,0.218 -0.03,0.339 0,0 0,1.145 0,1.145 0,0 -2.122,0 -2.122,0 z"
       id="path94"
       inkscape:connector-curvature="0" />
  </g>
  <g
     transform="translate(40.1,14.33)"
     style="fill:#161413;fill-rule:nonzero;stroke:none"
     id="g96">
    <path
       d="m 0,12 c 0,0 0.48,0 0.48,0 0,0 0,-12 0,-12 C 0.48,0 0,0 0,0"
       id="path98"
       inkscape:connector-curvature="0" />
  </g>
  <g
     transform="translate(1.85,26.35)"
     style="fill:#161413;fill-rule:nonzero;stroke:none"
     id="g100">
    <path
       d="m 0,0.48 c 0,0 38.76,0 38.76,0 0,0 0,-0.48 0,-0.48 C 38.76,0 0,0 0,0"
       id="path102"
       inkscape:connector-curvature="0" />
  </g>
</svg>
