<?xml version="1.0" encoding="UTF-8" standalone="no"?>
<svg
   xmlns:dc="http://purl.org/dc/elements/1.1/"
   xmlns:cc="http://creativecommons.org/ns#"
   xmlns:rdf="http://www.w3.org/1999/02/22-rdf-syntax-ns#"
   xmlns:svg="http://www.w3.org/2000/svg"
   xmlns="http://www.w3.org/2000/svg"
   xmlns:sodipodi="http://sodipodi.sourceforge.net/DTD/sodipodi-0.dtd"
   xmlns:inkscape="http://www.inkscape.org/namespaces/inkscape"
   width="206.67625"
   height="94.3125"
   viewBox="0 0 165.341 75.45"
   id="svg2"
   version="1.1"
   inkscape:version="0.48.0 r9654"
   sodipodi:docname="latex_source_code.ps(converted)-page1.svg">
  <metadata
     id="metadata404">
    <rdf:RDF>
      <cc:Work
         rdf:about="">
        <dc:format>image/svg+xml</dc:format>
        <dc:type
           rdf:resource="http://purl.org/dc/dcmitype/StillImage" />
        <dc:title></dc:title>
      </cc:Work>
    </rdf:RDF>
  </metadata>
  <defs
     id="defs402" />
  <sodipodi:namedview
     pagecolor="#ffffff"
     bordercolor="#666666"
     borderopacity="1"
     objecttolerance="10"
     gridtolerance="10"
     guidetolerance="10"
     inkscape:pageopacity="0"
     inkscape:pageshadow="2"
     inkscape:window-width="640"
     inkscape:window-height="480"
     id="namedview400"
     showgrid="false"
     fit-margin-top="2"
     fit-margin-right="2"
     fit-margin-bottom="2"
     fit-margin-left="2"
     inkscape:zoom="2.4724659"
     inkscape:cx="103.33813"
     inkscape:cy="47.15625"
     inkscape:window-x="0"
     inkscape:window-y="24"
     inkscape:window-maximized="0"
     inkscape:current-layer="svg2" />
  <g
     transform="translate(71.6,1.62)"
     style="fill:#161413;fill-rule:nonzero;stroke:none"
     id="g4">
    <path
       d="m 0,0.48 c 0,0 67.8,0 67.8,0 0,0 0,-0.48 0,-0.48 C 67.8,0 0,0 0,0"
       id="path6"
       inkscape:connector-curvature="0" />
  </g>
  <g
     transform="translate(71.35,1.6)"
     style="fill:#161413;fill-rule:nonzero;stroke:none"
     id="g8">
    <path
       d="m 0,12 c 0,0 0.48,0 0.48,0 0,0 0,-12 0,-12 C 0.48,0 0,0 0,0"
       id="path10"
       inkscape:connector-curvature="0" />
  </g>
  <g
     transform="translate(90.699,3.295)"
     style="fill:#161413;fill-rule:evenodd;stroke:none"
     id="g12">
    <path
       d="m 1.913,3.657 c 0,0 1.683,0 1.683,0 1.196,0 2.272,-0.807 2.272,-1.803 C 5.868,0.877 4.881,0 3.516,0 3.516,0 0,0 0,0 c 0,0 0,0.309 0,0.309 0,0 0.239,0 0.239,0 0.766,0 0.787,0.11 0.787,0.469 0,0 0,5.25 0,5.25 0,0.359 -0.021,0.468 -0.787,0.468 0,0 -0.239,0 -0.239,0 0,0 0,0.309 0,0.309 0,0 2.939,0 2.939,0 0,0 0,-0.309 0,-0.309 0,0 -0.239,0 -0.239,0 -0.768,0 -0.787,-0.109 -0.787,-0.468 0,0 0,-2.371 0,-2.371 z M 1.882,3.398 c 0,0 0,-2.69 0,-2.69 0,-0.329 0.021,-0.399 0.489,-0.399 0,0 0.886,0 0.886,0 1.584,0 1.584,1.057 1.584,1.545 0,0.468 0,1.544 -1.584,1.544 0,0 -1.375,0 -1.375,0 z"
       id="path14"
       inkscape:connector-curvature="0" />
  </g>
  <g
     transform="translate(97.629,5.697)"
     style="fill:#161413;fill-rule:evenodd;stroke:none"
     id="g16">
    <path
       d="m 1.385,1.095 c 0,0 0,-1.095 0,-1.095 C 1.385,0 0,0.109 0,0.109 c 0,0 0,0.309 0,0.309 0.698,0 0.777,0.07 0.777,0.558 0,0 0,2.67 0,2.67 0,0.448 -0.11,0.448 -0.777,0.448 0,0 0,0.309 0,0.309 0,0 2.401,0 2.401,0 0,0 0,-0.309 0,-0.309 0,0 -0.209,0 -0.209,0 -0.738,0 -0.757,-0.109 -0.757,-0.468 0,0 0,-1.535 0,-1.535 0,-0.986 0.418,-1.873 1.176,-1.873 0.069,0 0.089,0 0.109,0.01 -0.03,0.011 -0.229,0.13 -0.229,0.389 0,0.279 0.209,0.429 0.428,0.429 0.179,0 0.428,-0.12 0.428,-0.439 C 3.347,0.289 3.038,0 2.611,0 1.883,0 1.525,0.667 1.385,1.095 z"
       id="path18"
       inkscape:connector-curvature="0" />
  </g>
  <g
     transform="translate(101.679,3.435)"
     style="fill:#161413;fill-rule:evenodd;stroke:none"
     id="g20">
    <path
       d="m 1.435,2.262 c 0,0 -1.396,0.109 -1.396,0.109 0,0 0,0.309 0,0.309 0.649,0 0.737,0.06 0.737,0.547 0,0 0,2.681 0,2.681 0,0.448 -0.109,0.448 -0.776,0.448 0,0 0,0.309 0,0.309 0,0 2.132,0 2.132,0 0,0 0,-0.309 0,-0.309 -0.657,0 -0.697,-0.049 -0.697,-0.438 0,0 0,-3.656 0,-3.656 z M 1.475,0.528 C 1.475,0.209 1.225,0 0.946,0 0.638,0 0.418,0.269 0.418,0.528 c 0,0.269 0.22,0.528 0.528,0.528 0.279,0 0.529,-0.209 0.529,-0.528 z"
       id="path22"
       inkscape:connector-curvature="0" />
  </g>
  <g
     transform="translate(104.418,5.697)"
     style="fill:#161413;fill-rule:evenodd;stroke:none"
     id="g24">
    <path
       d="m 0.778,0.976 c 0,0 0,2.67 0,2.67 0,0.448 -0.11,0.448 -0.778,0.448 0,0 0,0.309 0,0.309 0,0 2.243,0 2.243,0 0,0 0,-0.309 0,-0.309 -0.668,0 -0.778,0 -0.778,-0.448 0,0 0,-1.833 0,-1.833 0,-1.036 0.707,-1.595 1.345,-1.595 0.628,0 0.737,0.539 0.737,1.107 0,0 0,2.321 0,2.321 0,0.448 -0.109,0.448 -0.776,0.448 0,0 0,0.309 0,0.309 0,0 2.241,0 2.241,0 0,0 0,-0.309 0,-0.309 -0.668,0 -0.777,0 -0.777,-0.448 0,0 0,-1.833 0,-1.833 0,-1.036 0.708,-1.595 1.344,-1.595 0.628,0 0.738,0.539 0.738,1.107 0,0 0,2.321 0,2.321 0,0.448 -0.11,0.448 -0.777,0.448 0,0 0,0.309 0,0.309 0,0 2.242,0 2.242,0 0,0 0,-0.309 0,-0.309 -0.518,0 -0.768,0 -0.778,-0.298 0,0 0,-1.904 0,-1.904 0,-0.856 0,-1.165 -0.308,-1.524 C 6.556,0.199 6.228,0 5.65,0 4.813,0 4.374,0.597 4.205,0.976 4.066,0.109 3.328,0 2.88,0 2.153,0 1.685,0.428 1.406,1.046 c 0,0 0,-1.046 0,-1.046 C 1.406,0 0,0.109 0,0.109 c 0,0 0,0.309 0,0.309 0.699,0 0.778,0.07 0.778,0.558 z"
       id="path26"
       inkscape:connector-curvature="0" />
  </g>
  <g
     transform="translate(112.629,5.637)"
     style="fill:#161413;fill-rule:evenodd;stroke:none"
     id="g28">
    <path
       d="m 0.837,1.952 c 0.06,-1.484 0.897,-1.733 1.236,-1.733 1.025,0 1.125,1.345 1.125,1.733 0,0 -2.361,0 -2.361,0 z M 0.826,2.161 c 0,0 2.781,0 2.781,0 0.218,0 0.249,0 0.249,-0.209 C 3.856,0.966 3.318,0 2.073,0 0.916,0 0,1.025 0,2.272 c 0,1.335 1.046,2.3 2.192,2.3 1.216,0 1.664,-1.105 1.664,-1.295 0,-0.099 -0.08,-0.119 -0.13,-0.119 -0.09,0 -0.109,0.06 -0.13,0.139 C 3.247,4.323 2.351,4.323 2.251,4.323 1.753,4.323 1.355,4.025 1.125,3.656 0.826,3.178 0.826,2.521 0.826,2.161 z"
       id="path30"
       inkscape:connector-curvature="0" />
  </g>
  <g
     transform="translate(117.179,5.637)"
     style="fill:#161413;fill-rule:evenodd;stroke:none"
     id="g32">
    <path
       d="m 1.743,2.53 c 0.219,0.04 1.036,0.2 1.036,0.916 0,0.509 -0.348,0.908 -1.126,0.908 C 0.817,4.354 0.458,3.785 0.269,2.939 0.239,2.81 0.229,2.77 0.129,2.77 0,2.77 0,2.839 0,3.019 c 0,0 0,1.314 0,1.314 0,0.17 0,0.239 0.109,0.239 0.05,0 0.06,-0.009 0.25,-0.199 C 0.378,4.354 0.378,4.333 0.558,4.145 0.996,4.563 1.444,4.572 1.653,4.572 2.799,4.572 3.258,3.905 3.258,3.188 3.258,2.659 2.959,2.36 2.839,2.241 2.51,1.923 2.122,1.843 1.703,1.763 1.146,1.653 0.478,1.524 0.478,0.946 c 0,-0.348 0.259,-0.757 1.116,-0.757 1.096,0 1.145,0.897 1.166,1.206 0.01,0.089 0.099,0.089 0.119,0.089 0.13,0 0.13,-0.049 0.13,-0.239 0,0 0,-1.007 0,-1.007 C 3.009,0.069 3.009,0 2.899,0 2.849,0 2.829,0 2.699,0.119 2.67,0.159 2.57,0.249 2.53,0.278 2.151,0 1.743,0 1.594,0 0.378,0 0,0.667 0,1.225 0,1.574 0.159,1.853 0.428,2.072 0.747,2.331 1.025,2.391 1.743,2.53 z"
       id="path34"
       inkscape:connector-curvature="0" />
  </g>
  <g
     transform="translate(139.1,1.6)"
     style="fill:#161413;fill-rule:nonzero;stroke:none"
     id="g36">
    <path
       d="m 0,12 c 0,0 0.48,0 0.48,0 0,0 0,-12 0,-12 C 0.48,0 0,0 0,0"
       id="path38"
       inkscape:connector-curvature="0" />
  </g>
  <g
     transform="translate(71.6,13.62)"
     style="fill:#161413;fill-rule:nonzero;stroke:none"
     id="g40">
    <path
       d="m 0,0.48 c 0,0 67.8,0 67.8,0 0,0 0,-0.48 0,-0.48 C 67.8,0 0,0 0,0"
       id="path42"
       inkscape:connector-curvature="0" />
  </g>
  <g
     transform="translate(71.35,13.6)"
     style="fill:#161413;fill-rule:nonzero;stroke:none"
     id="g44">
    <path
       d="m 0,12 c 0,0 0.48,0 0.48,0 0,0 0,-12 0,-12 C 0.48,0 0,0 0,0"
       id="path46"
       inkscape:connector-curvature="0" />
  </g>
  <g
     transform="translate(78.098,15.215)"
     style="fill:#161413;fill-rule:evenodd;stroke:none"
     id="g48">
    <path
       d="m 0.768,5.867 c 0,0 1.055,-1.025 1.055,-1.025 C 3.377,3.467 3.976,2.929 3.976,1.933 3.976,0.797 3.078,0 1.863,0 0.737,0 0,0.916 0,1.803 c 0,0.558 0.498,0.558 0.528,0.558 0.169,0 0.518,-0.12 0.518,-0.528 0,-0.259 -0.179,-0.518 -0.527,-0.518 -0.08,0 -0.1,0 -0.13,0.009 0.229,-0.647 0.766,-1.015 1.344,-1.015 0.908,0 1.335,0.806 1.335,1.624 0,0.797 -0.498,1.584 -1.045,2.201 0,0 -1.914,2.133 -1.914,2.133 C 0,6.376 0,6.396 0,6.635 c 0,0 3.696,0 3.696,0 0,0 0.28,-1.733 0.28,-1.733 0,0 -0.249,0 -0.249,0 C 3.677,5.2 3.606,5.639 3.507,5.788 3.438,5.867 2.779,5.867 2.561,5.867 c 0,0 -1.793,0 -1.793,0 z"
       id="path50"
       inkscape:connector-curvature="0" />
  </g>
  <g
     transform="translate(88.35,13.6)"
     style="fill:#161413;fill-rule:nonzero;stroke:none"
     id="g52">
    <path
       d="m 0,12 c 0,0 0.48,0 0.48,0 0,0 0,-12 0,-12 C 0.48,0 0,0 0,0"
       id="path54"
       inkscape:connector-curvature="0" />
  </g>
  <g
     transform="translate(95.018,15.215)"
     style="fill:#161413;fill-rule:evenodd;stroke:none"
     id="g56">
    <path
       d="M 2.472,3.128 C 3.288,2.86 3.866,2.161 3.866,1.374 3.866,0.558 2.989,0 2.033,0 1.026,0 0.27,0.598 0.27,1.355 c 0,0.329 0.218,0.518 0.507,0.518 0.309,0 0.508,-0.219 0.508,-0.509 0,-0.498 -0.468,-0.498 -0.617,-0.498 0.309,-0.488 0.967,-0.617 1.325,-0.617 0.408,0 0.956,0.219 0.956,1.115 0,0.121 -0.019,0.698 -0.278,1.136 -0.3,0.479 -0.638,0.509 -0.887,0.519 -0.08,0.01 -0.319,0.029 -0.389,0.029 -0.08,0.011 -0.149,0.021 -0.149,0.12 0,0.11 0.069,0.11 0.239,0.11 0,0 0.438,0 0.438,0 0.817,0 1.185,0.677 1.185,1.654 0,1.354 -0.687,1.643 -1.125,1.643 C 1.555,6.575 0.808,6.406 0.459,5.818 0.808,5.867 1.116,5.649 1.116,5.27 1.116,4.911 0.848,4.712 0.559,4.712 0.319,4.712 0,4.852 0,5.29 0,6.197 0.927,6.854 2.013,6.854 3.228,6.854 4.135,5.947 4.135,4.932 4.135,4.114 3.507,3.337 2.472,3.128 z"
       id="path58"
       inkscape:connector-curvature="0" />
  </g>
  <g
     transform="translate(105.1,13.6)"
     style="fill:#161413;fill-rule:nonzero;stroke:none"
     id="g60">
    <path
       d="m 0,12 c 0,0 0.48,0 0.48,0 0,0 0,-12 0,-12 C 0.48,0 0,0 0,0"
       id="path62"
       inkscape:connector-curvature="0" />
  </g>
  <g
     transform="translate(111.848,15.215)"
     style="fill:#161413;fill-rule:evenodd;stroke:none"
     id="g64">
    <path
       d="M 3.976,4.632 C 3.976,3.447 3.158,2.45 2.082,2.45 c -0.477,0 -0.906,0.161 -1.265,0.509 0,0 0,-1.943 0,-1.943 0.2,0.059 0.528,0.13 0.847,0.13 C 2.89,1.146 3.587,0.239 3.587,0.11 3.587,0.05 3.557,0 3.487,0 3.477,0 3.457,0 3.407,0.03 3.208,0.119 2.72,0.319 2.053,0.319 1.654,0.319 1.195,0.249 0.728,0.039 0.648,0.01 0.628,0.01 0.607,0.01 c -0.099,0 -0.099,0.079 -0.099,0.239 0,0 0,2.948 0,2.948 0,0.18 0,0.26 0.14,0.26 0.07,0 0.089,-0.03 0.129,-0.09 0.11,-0.159 0.479,-0.697 1.286,-0.697 0.517,0 0.766,0.458 0.846,0.638 0.159,0.368 0.18,0.757 0.18,1.255 0,0.348 0,0.946 -0.239,1.365 C 2.61,6.317 2.241,6.575 1.783,6.575 1.056,6.575 0.488,6.047 0.319,5.459 0.349,5.469 0.379,5.48 0.488,5.48 0.817,5.48 0.986,5.231 0.986,4.991 0.986,4.752 0.817,4.503 0.488,4.503 0.349,4.503 0,4.573 0,5.031 c 0,0.857 0.688,1.823 1.804,1.823 1.155,0 2.172,-0.956 2.172,-2.222 z"
       id="path66"
       inkscape:connector-curvature="0" />
  </g>
  <g
     transform="translate(122.35,13.6)"
     style="fill:#161413;fill-rule:nonzero;stroke:none"
     id="g68">
    <path
       d="m 0,12 c 0,0 0.48,0 0.48,0 0,0 0,-12 0,-12 C 0.48,0 0,0 0,0"
       id="path70"
       inkscape:connector-curvature="0" />
  </g>
  <g
     transform="translate(128.908,15.116)"
     style="fill:#161413;fill-rule:evenodd;stroke:none"
     id="g72">
    <path
       d="m 4.184,0.667 c 0.09,-0.12 0.09,-0.14 0.09,-0.349 0,0 -2.421,0 -2.421,0 C 0.637,0.318 0.618,0.188 0.578,0 0.578,0 0.329,0 0.329,0 0.329,0 0,2.051 0,2.051 c 0,0 0.249,0 0.249,0 0.03,-0.159 0.12,-0.787 0.249,-0.906 0.07,-0.059 0.847,-0.059 0.976,-0.059 0,0 2.063,0 2.063,0 C 3.427,1.245 2.64,2.331 2.421,2.659 1.524,4.005 1.196,5.389 1.196,6.405 c 0,0.1 0,0.548 0.458,0.548 0.458,0 0.458,-0.448 0.458,-0.548 0,0 0,-0.508 0,-0.508 0,-0.548 0.03,-1.096 0.109,-1.634 0.04,-0.229 0.18,-1.086 0.618,-1.704 0,0 1.345,-1.892 1.345,-1.892 z"
       id="path74"
       inkscape:connector-curvature="0" />
  </g>
  <g
     transform="translate(139.1,13.6)"
     style="fill:#161413;fill-rule:nonzero;stroke:none"
     id="g76">
    <path
       d="m 0,12 c 0,0 0.48,0 0.48,0 0,0 0,-12 0,-12 C 0.48,0 0,0 0,0"
       id="path78"
       inkscape:connector-curvature="0" />
  </g>
  <g
     transform="translate(1.85,25.62)"
     style="fill:#161413;fill-rule:nonzero;stroke:none"
     id="g80">
    <path
       d="m 0,0.48 c 0,0 137.64,0 137.64,0 0,0 0,-0.48 0,-0.48 C 137.64,0 0,0 0,0"
       id="path82"
       inkscape:connector-curvature="0" />
  </g>
  <g
     transform="translate(1.6,25.6)"
     style="fill:#161413;fill-rule:nonzero;stroke:none"
     id="g84">
    <path
       d="m 0,12 c 0,0 0.48,0 0.48,0 0,0 0,-12 0,-12 C 0.48,0 0,0 0,0"
       id="path86"
       inkscape:connector-curvature="0" />
  </g>
  <g
     transform="translate(8.199,33.045)"
     style="fill:#161413;fill-rule:evenodd;stroke:none"
     id="g88">
    <path
       d="m 1.913,3.657 c 0,0 1.683,0 1.683,0 1.196,0 2.272,-0.807 2.272,-1.803 C 5.868,0.877 4.881,0 3.516,0 3.516,0 0,0 0,0 c 0,0 0,0.309 0,0.309 0,0 0.239,0 0.239,0 0.766,0 0.787,0.11 0.787,0.469 0,0 0,5.25 0,5.25 0,0.359 -0.021,0.468 -0.787,0.468 0,0 -0.239,0 -0.239,0 0,0 0,0.309 0,0.309 0,0 2.939,0 2.939,0 0,0 0,-0.309 0,-0.309 0,0 -0.239,0 -0.239,0 -0.768,0 -0.787,-0.109 -0.787,-0.468 0,0 0,-2.371 0,-2.371 z M 1.882,3.398 c 0,0 0,-2.69 0,-2.69 0,-0.329 0.021,-0.399 0.489,-0.399 0,0 0.886,0 0.886,0 1.584,0 1.584,1.057 1.584,1.545 0,0.468 0,1.544 -1.584,1.544 0,0 -1.375,0 -1.375,0 z"
       id="path90"
       inkscape:connector-curvature="0" />
  </g>
  <g
     transform="translate(14.629,35.387)"
     style="fill:#161413;fill-rule:evenodd;stroke:none"
     id="g92">
    <path
       d="M 4.413,2.331 C 4.413,1.056 3.417,0 2.211,0 0.966,0 0,1.086 0,2.331 0,3.616 1.036,4.572 2.201,4.572 3.408,4.572 4.413,3.596 4.413,2.331 z M 2.211,4.323 C 1.783,4.323 1.345,4.114 1.075,3.656 0.826,3.218 0.826,2.609 0.826,2.251 c 0,-0.389 0,-0.927 0.24,-1.364 0.269,-0.459 0.737,-0.668 1.135,-0.668 0.439,0 0.868,0.22 1.126,0.647 0.259,0.429 0.259,1.007 0.259,1.385 0,0.358 0,0.897 -0.219,1.335 C 3.148,4.034 2.71,4.323 2.211,4.323 z"
       id="path94"
       inkscape:connector-curvature="0" />
  </g>
  <g
     transform="translate(19.28,35.556)"
     style="fill:#161413;fill-rule:evenodd;stroke:none"
     id="g96">
    <path
       d="m 5.987,0.946 c 0.18,-0.498 0.488,-0.627 0.837,-0.637 0,0 0,-0.309 0,-0.309 0,0 -1.654,0 -1.654,0 0,0 0,0.309 0,0.309 0.359,0.01 0.578,0.189 0.578,0.478 0,0.06 0,0.08 -0.05,0.209 0,0 -0.906,2.551 -0.906,2.551 0,0 -0.987,-2.779 -0.987,-2.779 -0.04,-0.12 -0.049,-0.14 -0.049,-0.19 0,-0.269 0.388,-0.269 0.587,-0.269 0,0 0,-0.309 0,-0.309 0,0 -1.922,0 -1.922,0 0,0 0,0.309 0,0.309 0.368,0 0.527,0.02 0.627,0.149 0.049,0.061 0.16,0.359 0.229,0.548 0,0 -0.856,2.411 -0.856,2.411 0,0 -0.948,-2.66 -0.948,-2.66 C 1.424,0.638 1.424,0.618 1.424,0.578 c 0,-0.269 0.388,-0.269 0.587,-0.269 0,0 0,-0.309 0,-0.309 C 2.011,0 0,0 0,0 c 0,0 0,0.309 0,0.309 0.498,0 0.617,0.03 0.737,0.348 0,0 1.255,3.528 1.255,3.528 0.05,0.139 0.08,0.218 0.209,0.218 0.13,0 0.149,-0.059 0.199,-0.199 0,0 1.007,-2.819 1.007,-2.819 0,0 1.016,2.829 1.016,2.829 0.04,0.11 0.07,0.189 0.199,0.189 0.13,0 0.159,-0.089 0.199,-0.189 0,0 1.166,-3.268 1.166,-3.268 z"
       id="path98"
       inkscape:connector-curvature="0" />
  </g>
  <g
     transform="translate(26.379,35.387)"
     style="fill:#161413;fill-rule:evenodd;stroke:none"
     id="g100">
    <path
       d="m 0.837,1.952 c 0.06,-1.484 0.897,-1.733 1.236,-1.733 1.025,0 1.125,1.345 1.125,1.733 0,0 -2.361,0 -2.361,0 z M 0.826,2.161 c 0,0 2.781,0 2.781,0 0.218,0 0.249,0 0.249,-0.209 C 3.856,0.966 3.318,0 2.073,0 0.916,0 0,1.025 0,2.272 c 0,1.335 1.046,2.3 2.192,2.3 1.216,0 1.664,-1.105 1.664,-1.295 0,-0.099 -0.08,-0.119 -0.13,-0.119 -0.09,0 -0.109,0.06 -0.13,0.139 C 3.247,4.323 2.351,4.323 2.251,4.323 1.753,4.323 1.355,4.025 1.125,3.656 0.826,3.178 0.826,2.521 0.826,2.161 z"
       id="path102"
       inkscape:connector-curvature="0" />
  </g>
  <g
     transform="translate(30.879,35.447)"
     style="fill:#161413;fill-rule:evenodd;stroke:none"
     id="g104">
    <path
       d="m 1.385,1.095 c 0,0 0,-1.095 0,-1.095 C 1.385,0 0,0.109 0,0.109 c 0,0 0,0.309 0,0.309 0.698,0 0.777,0.07 0.777,0.558 0,0 0,2.67 0,2.67 0,0.448 -0.11,0.448 -0.777,0.448 0,0 0,0.309 0,0.309 0,0 2.401,0 2.401,0 0,0 0,-0.309 0,-0.309 0,0 -0.209,0 -0.209,0 -0.738,0 -0.757,-0.109 -0.757,-0.468 0,0 0,-1.535 0,-1.535 0,-0.986 0.418,-1.873 1.176,-1.873 0.069,0 0.089,0 0.109,0.01 -0.03,0.011 -0.229,0.13 -0.229,0.389 0,0.279 0.209,0.429 0.428,0.429 0.179,0 0.428,-0.12 0.428,-0.439 C 3.347,0.289 3.038,0 2.611,0 1.883,0 1.525,0.667 1.385,1.095 z"
       id="path106"
       inkscape:connector-curvature="0" />
  </g>
  <g
     transform="translate(34.929,35.387)"
     style="fill:#161413;fill-rule:evenodd;stroke:none"
     id="g108">
    <path
       d="m 1.743,2.53 c 0.219,0.04 1.036,0.2 1.036,0.916 0,0.509 -0.348,0.908 -1.126,0.908 C 0.817,4.354 0.458,3.785 0.269,2.939 0.239,2.81 0.229,2.77 0.129,2.77 0,2.77 0,2.839 0,3.019 c 0,0 0,1.314 0,1.314 0,0.17 0,0.239 0.109,0.239 0.05,0 0.06,-0.009 0.25,-0.199 C 0.378,4.354 0.378,4.333 0.558,4.145 0.996,4.563 1.444,4.572 1.653,4.572 2.799,4.572 3.258,3.905 3.258,3.188 3.258,2.659 2.959,2.36 2.839,2.241 2.51,1.923 2.122,1.843 1.703,1.763 1.146,1.653 0.478,1.524 0.478,0.946 c 0,-0.348 0.259,-0.757 1.116,-0.757 1.096,0 1.145,0.897 1.166,1.206 0.01,0.089 0.099,0.089 0.119,0.089 0.13,0 0.13,-0.049 0.13,-0.239 0,0 0,-1.007 0,-1.007 C 3.009,0.069 3.009,0 2.899,0 2.849,0 2.829,0 2.699,0.119 2.67,0.159 2.57,0.249 2.53,0.278 2.151,0 1.743,0 1.594,0 0.378,0 0,0.667 0,1.225 0,1.574 0.159,1.853 0.428,2.072 0.747,2.331 1.025,2.391 1.743,2.53 z"
       id="path110"
       inkscape:connector-curvature="0" />
  </g>
  <g
     transform="translate(43.85,25.6)"
     style="fill:#161413;fill-rule:nonzero;stroke:none"
     id="g112">
    <path
       d="m 0,12 c 0,0 0.48,0 0.48,0 0,0 0,-12 0,-12 C 0.48,0 0,0 0,0"
       id="path114"
       inkscape:connector-curvature="0" />
  </g>
  <g
     transform="translate(50.848,27.215)"
     style="fill:#161413;fill-rule:evenodd;stroke:none"
     id="g116">
    <path
       d="M 3.976,4.632 C 3.976,3.447 3.158,2.45 2.082,2.45 c -0.477,0 -0.906,0.161 -1.265,0.509 0,0 0,-1.943 0,-1.943 0.2,0.059 0.528,0.13 0.847,0.13 C 2.89,1.146 3.587,0.239 3.587,0.11 3.587,0.05 3.557,0 3.487,0 3.477,0 3.457,0 3.407,0.03 3.208,0.119 2.72,0.319 2.053,0.319 1.654,0.319 1.195,0.249 0.728,0.039 0.648,0.01 0.628,0.01 0.607,0.01 c -0.099,0 -0.099,0.079 -0.099,0.239 0,0 0,2.948 0,2.948 0,0.18 0,0.26 0.14,0.26 0.07,0 0.089,-0.03 0.129,-0.09 0.11,-0.159 0.479,-0.697 1.286,-0.697 0.517,0 0.766,0.458 0.846,0.638 0.159,0.368 0.18,0.757 0.18,1.255 0,0.348 0,0.946 -0.239,1.365 C 2.61,6.317 2.241,6.575 1.783,6.575 1.056,6.575 0.488,6.047 0.319,5.459 0.349,5.469 0.379,5.48 0.488,5.48 0.817,5.48 0.986,5.231 0.986,4.991 0.986,4.752 0.817,4.503 0.488,4.503 0.349,4.503 0,4.573 0,5.031 c 0,0.857 0.688,1.823 1.804,1.823 1.155,0 2.172,-0.956 2.172,-2.222 z"
       id="path118"
       inkscape:connector-curvature="0" />
  </g>
  <g
     transform="translate(55.739,27.215)"
     style="fill:#161413;fill-rule:evenodd;stroke:none"
     id="g120">
    <path
       d="M 4.194,3.447 C 4.194,2.65 4.144,1.853 3.796,1.115 3.337,0.159 2.52,0 2.101,0 1.504,0 0.777,0.259 0.368,1.186 0.049,1.873 0,2.65 0,3.447 0,4.195 0.04,5.091 0.448,5.848 0.877,6.655 1.603,6.854 2.091,6.854 2.63,6.854 3.386,6.645 3.825,5.698 4.144,5.011 4.194,4.234 4.194,3.447 z M 2.091,6.635 C 1.703,6.635 1.115,6.386 0.936,5.43 0.827,4.831 0.827,3.915 0.827,3.327 c 0,-0.637 0,-1.295 0.079,-1.833 0.189,-1.185 0.936,-1.275 1.185,-1.275 0.33,0 0.987,0.18 1.176,1.166 0.1,0.558 0.1,1.314 0.1,1.942 0,0.747 0,1.425 -0.11,2.063 C 3.108,6.336 2.54,6.635 2.091,6.635 z"
       id="path122"
       inkscape:connector-curvature="0" />
  </g>
  <g
     transform="translate(60.629,27.105)"
     style="fill:#161413;fill-rule:evenodd;stroke:none"
     id="g124">
    <path
       d="m 2.65,5.101 c 0,0 0,0.867 0,0.867 0,0.359 -0.02,0.468 -0.757,0.468 0,0 -0.209,0 -0.209,0 0,0 0,0.309 0,0.309 0,0 2.699,0 2.699,0 0,0 0,-0.309 0,-0.309 0,0 -0.209,0 -0.209,0 -0.737,0 -0.757,-0.109 -0.757,-0.468 0,0 0,-0.867 0,-0.867 0,0 0.996,0 0.996,0 0,0 0,-0.309 0,-0.309 0,0 -0.996,0 -0.996,0 0,0 0,-4.532 0,-4.532 C 3.417,0.06 3.417,0 3.258,0 3.168,0 3.138,0 3.059,0.12 3.059,0.12 0,4.792 0,4.792 c 0,0 0,0.309 0,0.309 0,0 2.65,0 2.65,0 z M 2.71,4.792 c 0,0 -2.431,0 -2.431,0 0,0 2.431,-3.716 2.431,-3.716 0,0 0,3.716 0,3.716 z"
       id="path126"
       inkscape:connector-curvature="0" />
  </g>
  <g
     transform="translate(71.35,25.6)"
     style="fill:#161413;fill-rule:nonzero;stroke:none"
     id="g128">
    <path
       d="m 0,12 c 0,0 0.48,0 0.48,0 0,0 0,-12 0,-12 C 0.48,0 0,0 0,0"
       id="path130"
       inkscape:connector-curvature="0" />
  </g>
  <g
     transform="translate(78.018,27.215)"
     style="fill:#161413;fill-rule:evenodd;stroke:none"
     id="g132">
    <path
       d="M 2.472,3.128 C 3.288,2.86 3.866,2.161 3.866,1.374 3.866,0.558 2.989,0 2.033,0 1.026,0 0.27,0.598 0.27,1.355 c 0,0.329 0.218,0.518 0.507,0.518 0.309,0 0.508,-0.219 0.508,-0.509 0,-0.498 -0.468,-0.498 -0.617,-0.498 0.309,-0.488 0.967,-0.617 1.325,-0.617 0.408,0 0.956,0.219 0.956,1.115 0,0.121 -0.019,0.698 -0.278,1.136 -0.3,0.479 -0.638,0.509 -0.887,0.519 -0.08,0.01 -0.319,0.029 -0.389,0.029 -0.08,0.011 -0.149,0.021 -0.149,0.12 0,0.11 0.069,0.11 0.239,0.11 0,0 0.438,0 0.438,0 0.817,0 1.185,0.677 1.185,1.654 0,1.354 -0.687,1.643 -1.125,1.643 C 1.555,6.575 0.808,6.406 0.459,5.818 0.808,5.867 1.116,5.649 1.116,5.27 1.116,4.911 0.848,4.712 0.559,4.712 0.319,4.712 0,4.852 0,5.29 0,6.197 0.927,6.854 2.013,6.854 3.228,6.854 4.135,5.947 4.135,4.932 4.135,4.114 3.507,3.337 2.472,3.128 z"
       id="path134"
       inkscape:connector-curvature="0" />
  </g>
  <g
     transform="translate(88.35,25.6)"
     style="fill:#161413;fill-rule:nonzero;stroke:none"
     id="g136">
    <path
       d="m 0,12 c 0,0 0.48,0 0.48,0 0,0 0,-12 0,-12 C 0.48,0 0,0 0,0"
       id="path138"
       inkscape:connector-curvature="0" />
  </g>
  <g
     transform="translate(95.098,27.215)"
     style="fill:#161413;fill-rule:evenodd;stroke:none"
     id="g140">
    <path
       d="m 0.768,5.867 c 0,0 1.055,-1.025 1.055,-1.025 C 3.377,3.467 3.976,2.929 3.976,1.933 3.976,0.797 3.078,0 1.863,0 0.737,0 0,0.916 0,1.803 c 0,0.558 0.498,0.558 0.528,0.558 0.169,0 0.518,-0.12 0.518,-0.528 0,-0.259 -0.179,-0.518 -0.527,-0.518 -0.08,0 -0.1,0 -0.13,0.009 0.229,-0.647 0.766,-1.015 1.344,-1.015 0.908,0 1.335,0.806 1.335,1.624 0,0.797 -0.498,1.584 -1.045,2.201 0,0 -1.914,2.133 -1.914,2.133 C 0,6.376 0,6.396 0,6.635 c 0,0 3.696,0 3.696,0 0,0 0.28,-1.733 0.28,-1.733 0,0 -0.249,0 -0.249,0 C 3.677,5.2 3.606,5.639 3.507,5.788 3.438,5.867 2.779,5.867 2.561,5.867 c 0,0 -1.793,0 -1.793,0 z"
       id="path142"
       inkscape:connector-curvature="0" />
  </g>
  <g
     transform="translate(105.1,25.6)"
     style="fill:#161413;fill-rule:nonzero;stroke:none"
     id="g144">
    <path
       d="m 0,12 c 0,0 0.48,0 0.48,0 0,0 0,-12 0,-12 C 0.48,0 0,0 0,0"
       id="path146"
       inkscape:connector-curvature="0" />
  </g>
  <g
     transform="translate(111.739,27.215)"
     style="fill:#161413;fill-rule:evenodd;stroke:none"
     id="g148">
    <path
       d="M 4.194,3.447 C 4.194,2.65 4.144,1.853 3.796,1.115 3.337,0.159 2.52,0 2.101,0 1.504,0 0.777,0.259 0.368,1.186 0.049,1.873 0,2.65 0,3.447 0,4.195 0.04,5.091 0.448,5.848 0.877,6.655 1.603,6.854 2.091,6.854 2.63,6.854 3.386,6.645 3.825,5.698 4.144,5.011 4.194,4.234 4.194,3.447 z M 2.091,6.635 C 1.703,6.635 1.115,6.386 0.936,5.43 0.827,4.831 0.827,3.915 0.827,3.327 c 0,-0.637 0,-1.295 0.079,-1.833 0.189,-1.185 0.936,-1.275 1.185,-1.275 0.33,0 0.987,0.18 1.176,1.166 0.1,0.558 0.1,1.314 0.1,1.942 0,0.747 0,1.425 -0.11,2.063 C 3.108,6.336 2.54,6.635 2.091,6.635 z"
       id="path150"
       inkscape:connector-curvature="0" />
  </g>
  <g
     transform="translate(122.35,25.6)"
     style="fill:#161413;fill-rule:nonzero;stroke:none"
     id="g152">
    <path
       d="m 0,12 c 0,0 0.48,0 0.48,0 0,0 0,-12 0,-12 C 0.48,0 0,0 0,0"
       id="path154"
       inkscape:connector-curvature="0" />
  </g>
  <g
     transform="translate(129.237,27.215)"
     style="fill:#161413;fill-rule:evenodd;stroke:none"
     id="g156">
    <path
       d="M 2.042,0.259 C 2.042,0.02 2.042,0 1.813,0 1.195,0.638 0.318,0.638 0,0.638 c 0,0 0,0.309 0,0.309 0.199,0 0.787,0 1.304,-0.259 0,0 0,5.16 0,5.16 0,0.358 -0.029,0.478 -0.925,0.478 0,0 -0.32,0 -0.32,0 0,0 0,0.309 0,0.309 0,0 3.229,0 3.229,0 0,0 0,-0.309 0,-0.309 0,0 -0.32,0 -0.32,0 -0.896,0 -0.926,-0.109 -0.926,-0.478 0,0 0,-5.589 0,-5.589 z"
       id="path158"
       inkscape:connector-curvature="0" />
  </g>
  <g
     transform="translate(139.1,25.6)"
     style="fill:#161413;fill-rule:nonzero;stroke:none"
     id="g160">
    <path
       d="m 0,12 c 0,0 0.48,0 0.48,0 0,0 0,-12 0,-12 C 0.48,0 0,0 0,0"
       id="path162"
       inkscape:connector-curvature="0" />
  </g>
  <g
     transform="translate(44.1,37.37)"
     style="fill:#161413;fill-rule:nonzero;stroke:none"
     id="g164">
    <path
       d="m 0,0.48 c 0,0 95.28,0 95.28,0 0,0 0,-0.48 0,-0.48 C 95.28,0 0,0 0,0"
       id="path166"
       inkscape:connector-curvature="0" />
  </g>
  <g
     transform="translate(1.6,37.6)"
     style="fill:#161413;fill-rule:nonzero;stroke:none"
     id="g168">
    <path
       d="m 0,12 c 0,0 0.48,0 0.48,0 0,0 0,-12 0,-12 C 0.48,0 0,0 0,0"
       id="path170"
       inkscape:connector-curvature="0" />
  </g>
  <g
     transform="translate(43.85,37.6)"
     style="fill:#161413;fill-rule:nonzero;stroke:none"
     id="g172">
    <path
       d="m 0,12 c 0,0 0.48,0 0.48,0 0,0 0,-12 0,-12 C 0.48,0 0,0 0,0"
       id="path174"
       inkscape:connector-curvature="0" />
  </g>
  <g
     transform="translate(50.848,39.215)"
     style="fill:#161413;fill-rule:evenodd;stroke:none"
     id="g176">
    <path
       d="M 3.976,4.632 C 3.976,3.447 3.158,2.45 2.082,2.45 c -0.477,0 -0.906,0.161 -1.265,0.509 0,0 0,-1.943 0,-1.943 0.2,0.059 0.528,0.13 0.847,0.13 C 2.89,1.146 3.587,0.239 3.587,0.11 3.587,0.05 3.557,0 3.487,0 3.477,0 3.457,0 3.407,0.03 3.208,0.119 2.72,0.319 2.053,0.319 1.654,0.319 1.195,0.249 0.728,0.039 0.648,0.01 0.628,0.01 0.607,0.01 c -0.099,0 -0.099,0.079 -0.099,0.239 0,0 0,2.948 0,2.948 0,0.18 0,0.26 0.14,0.26 0.07,0 0.089,-0.03 0.129,-0.09 0.11,-0.159 0.479,-0.697 1.286,-0.697 0.517,0 0.766,0.458 0.846,0.638 0.159,0.368 0.18,0.757 0.18,1.255 0,0.348 0,0.946 -0.239,1.365 C 2.61,6.317 2.241,6.575 1.783,6.575 1.056,6.575 0.488,6.047 0.319,5.459 0.349,5.469 0.379,5.48 0.488,5.48 0.817,5.48 0.986,5.231 0.986,4.991 0.986,4.752 0.817,4.503 0.488,4.503 0.349,4.503 0,4.573 0,5.031 c 0,0.857 0.688,1.823 1.804,1.823 1.155,0 2.172,-0.956 2.172,-2.222 z"
       id="path178"
       inkscape:connector-curvature="0" />
  </g>
  <g
     transform="translate(55.629,39.105)"
     style="fill:#161413;fill-rule:evenodd;stroke:none"
     id="g180">
    <path
       d="m 2.65,5.101 c 0,0 0,0.867 0,0.867 0,0.359 -0.02,0.468 -0.757,0.468 0,0 -0.209,0 -0.209,0 0,0 0,0.309 0,0.309 0,0 2.699,0 2.699,0 0,0 0,-0.309 0,-0.309 0,0 -0.209,0 -0.209,0 -0.737,0 -0.757,-0.109 -0.757,-0.468 0,0 0,-0.867 0,-0.867 0,0 0.996,0 0.996,0 0,0 0,-0.309 0,-0.309 0,0 -0.996,0 -0.996,0 0,0 0,-4.532 0,-4.532 C 3.417,0.06 3.417,0 3.258,0 3.168,0 3.138,0 3.059,0.12 3.059,0.12 0,4.792 0,4.792 c 0,0 0,0.309 0,0.309 0,0 2.65,0 2.65,0 z M 2.71,4.792 c 0,0 -2.431,0 -2.431,0 0,0 2.431,-3.716 2.431,-3.716 0,0 0,3.716 0,3.716 z"
       id="path182"
       inkscape:connector-curvature="0" />
  </g>
  <g
     transform="translate(60.739,39.215)"
     style="fill:#161413;fill-rule:evenodd;stroke:none"
     id="g184">
    <path
       d="M 4.194,3.447 C 4.194,2.65 4.144,1.853 3.796,1.115 3.337,0.159 2.52,0 2.101,0 1.504,0 0.777,0.259 0.368,1.186 0.049,1.873 0,2.65 0,3.447 0,4.195 0.04,5.091 0.448,5.848 0.877,6.655 1.603,6.854 2.091,6.854 2.63,6.854 3.386,6.645 3.825,5.698 4.144,5.011 4.194,4.234 4.194,3.447 z M 2.091,6.635 C 1.703,6.635 1.115,6.386 0.936,5.43 0.827,4.831 0.827,3.915 0.827,3.327 c 0,-0.637 0,-1.295 0.079,-1.833 0.189,-1.185 0.936,-1.275 1.185,-1.275 0.33,0 0.987,0.18 1.176,1.166 0.1,0.558 0.1,1.314 0.1,1.942 0,0.747 0,1.425 -0.11,2.063 C 3.108,6.336 2.54,6.635 2.091,6.635 z"
       id="path186"
       inkscape:connector-curvature="0" />
  </g>
  <g
     transform="translate(71.35,37.6)"
     style="fill:#161413;fill-rule:nonzero;stroke:none"
     id="g188">
    <path
       d="m 0,12 c 0,0 0.48,0 0.48,0 0,0 0,-12 0,-12 C 0.48,0 0,0 0,0"
       id="path190"
       inkscape:connector-curvature="0" />
  </g>
  <g
     transform="translate(78.098,39.215)"
     style="fill:#161413;fill-rule:evenodd;stroke:none"
     id="g192">
    <path
       d="m 0.768,5.867 c 0,0 1.055,-1.025 1.055,-1.025 C 3.377,3.467 3.976,2.929 3.976,1.933 3.976,0.797 3.078,0 1.863,0 0.737,0 0,0.916 0,1.803 c 0,0.558 0.498,0.558 0.528,0.558 0.169,0 0.518,-0.12 0.518,-0.528 0,-0.259 -0.179,-0.518 -0.527,-0.518 -0.08,0 -0.1,0 -0.13,0.009 0.229,-0.647 0.766,-1.015 1.344,-1.015 0.908,0 1.335,0.806 1.335,1.624 0,0.797 -0.498,1.584 -1.045,2.201 0,0 -1.914,2.133 -1.914,2.133 C 0,6.376 0,6.396 0,6.635 c 0,0 3.696,0 3.696,0 0,0 0.28,-1.733 0.28,-1.733 0,0 -0.249,0 -0.249,0 C 3.677,5.2 3.606,5.639 3.507,5.788 3.438,5.867 2.779,5.867 2.561,5.867 c 0,0 -1.793,0 -1.793,0 z"
       id="path194"
       inkscape:connector-curvature="0" />
  </g>
  <g
     transform="translate(88.35,37.6)"
     style="fill:#161413;fill-rule:nonzero;stroke:none"
     id="g196">
    <path
       d="m 0,12 c 0,0 0.48,0 0.48,0 0,0 0,-12 0,-12 C 0.48,0 0,0 0,0"
       id="path198"
       inkscape:connector-curvature="0" />
  </g>
  <g
     transform="translate(95.018,39.215)"
     style="fill:#161413;fill-rule:evenodd;stroke:none"
     id="g200">
    <path
       d="M 2.472,3.128 C 3.288,2.86 3.866,2.161 3.866,1.374 3.866,0.558 2.989,0 2.033,0 1.026,0 0.27,0.598 0.27,1.355 c 0,0.329 0.218,0.518 0.507,0.518 0.309,0 0.508,-0.219 0.508,-0.509 0,-0.498 -0.468,-0.498 -0.617,-0.498 0.309,-0.488 0.967,-0.617 1.325,-0.617 0.408,0 0.956,0.219 0.956,1.115 0,0.121 -0.019,0.698 -0.278,1.136 -0.3,0.479 -0.638,0.509 -0.887,0.519 -0.08,0.01 -0.319,0.029 -0.389,0.029 -0.08,0.011 -0.149,0.021 -0.149,0.12 0,0.11 0.069,0.11 0.239,0.11 0,0 0.438,0 0.438,0 0.817,0 1.185,0.677 1.185,1.654 0,1.354 -0.687,1.643 -1.125,1.643 C 1.555,6.575 0.808,6.406 0.459,5.818 0.808,5.867 1.116,5.649 1.116,5.27 1.116,4.911 0.848,4.712 0.559,4.712 0.319,4.712 0,4.852 0,5.29 0,6.197 0.927,6.854 2.013,6.854 3.228,6.854 4.135,5.947 4.135,4.932 4.135,4.114 3.507,3.337 2.472,3.128 z"
       id="path202"
       inkscape:connector-curvature="0" />
  </g>
  <g
     transform="translate(105.1,37.6)"
     style="fill:#161413;fill-rule:nonzero;stroke:none"
     id="g204">
    <path
       d="m 0,12 c 0,0 0.48,0 0.48,0 0,0 0,-12 0,-12 C 0.48,0 0,0 0,0"
       id="path206"
       inkscape:connector-curvature="0" />
  </g>
  <g
     transform="translate(112.237,39.215)"
     style="fill:#161413;fill-rule:evenodd;stroke:none"
     id="g208">
    <path
       d="M 2.042,0.259 C 2.042,0.02 2.042,0 1.813,0 1.195,0.638 0.318,0.638 0,0.638 c 0,0 0,0.309 0,0.309 0.199,0 0.787,0 1.304,-0.259 0,0 0,5.16 0,5.16 0,0.358 -0.029,0.478 -0.925,0.478 0,0 -0.32,0 -0.32,0 0,0 0,0.309 0,0.309 0,0 3.229,0 3.229,0 0,0 0,-0.309 0,-0.309 0,0 -0.32,0 -0.32,0 -0.896,0 -0.926,-0.109 -0.926,-0.478 0,0 0,-5.589 0,-5.589 z"
       id="path210"
       inkscape:connector-curvature="0" />
  </g>
  <g
     transform="translate(122.35,37.6)"
     style="fill:#161413;fill-rule:nonzero;stroke:none"
     id="g212">
    <path
       d="m 0,12 c 0,0 0.48,0 0.48,0 0,0 0,-12 0,-12 C 0.48,0 0,0 0,0"
       id="path214"
       inkscape:connector-curvature="0" />
  </g>
  <g
     transform="translate(128.739,39.215)"
     style="fill:#161413;fill-rule:evenodd;stroke:none"
     id="g216">
    <path
       d="M 4.194,3.447 C 4.194,2.65 4.144,1.853 3.796,1.115 3.337,0.159 2.52,0 2.101,0 1.504,0 0.777,0.259 0.368,1.186 0.049,1.873 0,2.65 0,3.447 0,4.195 0.04,5.091 0.448,5.848 0.877,6.655 1.603,6.854 2.091,6.854 2.63,6.854 3.386,6.645 3.825,5.698 4.144,5.011 4.194,4.234 4.194,3.447 z M 2.091,6.635 C 1.703,6.635 1.115,6.386 0.936,5.43 0.827,4.831 0.827,3.915 0.827,3.327 c 0,-0.637 0,-1.295 0.079,-1.833 0.189,-1.185 0.936,-1.275 1.185,-1.275 0.33,0 0.987,0.18 1.176,1.166 0.1,0.558 0.1,1.314 0.1,1.942 0,0.747 0,1.425 -0.11,2.063 C 3.108,6.336 2.54,6.635 2.091,6.635 z"
       id="path218"
       inkscape:connector-curvature="0" />
  </g>
  <g
     transform="translate(139.1,37.6)"
     style="fill:#161413;fill-rule:nonzero;stroke:none"
     id="g220">
    <path
       d="m 0,12 c 0,0 0.48,0 0.48,0 0,0 0,-12 0,-12 C 0.48,0 0,0 0,0"
       id="path222"
       inkscape:connector-curvature="0" />
  </g>
  <g
     transform="translate(1.85,49.37)"
     style="fill:#161413;fill-rule:nonzero;stroke:none"
     id="g224">
    <path
       d="m 0,0.48 c 0,0 137.64,0 137.64,0 0,0 0,-0.48 0,-0.48 C 137.64,0 0,0 0,0"
       id="path226"
       inkscape:connector-curvature="0" />
  </g>
  <g
     transform="translate(1.6,49.35)"
     style="fill:#161413;fill-rule:nonzero;stroke:none"
     id="g228">
    <path
       d="m 0,12 c 0,0 0.48,0 0.48,0 0,0 0,-12 0,-12 C 0.48,0 0,0 0,0"
       id="path230"
       inkscape:connector-curvature="0" />
  </g>
  <g
     transform="translate(8.199,57.045)"
     style="fill:#161413;fill-rule:evenodd;stroke:none"
     id="g232">
    <path
       d="m 1.913,3.657 c 0,0 1.683,0 1.683,0 1.196,0 2.272,-0.807 2.272,-1.803 C 5.868,0.877 4.881,0 3.516,0 3.516,0 0,0 0,0 c 0,0 0,0.309 0,0.309 0,0 0.239,0 0.239,0 0.766,0 0.787,0.11 0.787,0.469 0,0 0,5.25 0,5.25 0,0.359 -0.021,0.468 -0.787,0.468 0,0 -0.239,0 -0.239,0 0,0 0,0.309 0,0.309 0,0 2.939,0 2.939,0 0,0 0,-0.309 0,-0.309 0,0 -0.239,0 -0.239,0 -0.768,0 -0.787,-0.109 -0.787,-0.468 0,0 0,-2.371 0,-2.371 z M 1.882,3.398 c 0,0 0,-2.69 0,-2.69 0,-0.329 0.021,-0.399 0.489,-0.399 0,0 0.886,0 0.886,0 1.584,0 1.584,1.057 1.584,1.545 0,0.468 0,1.544 -1.584,1.544 0,0 -1.375,0 -1.375,0 z"
       id="path234"
       inkscape:connector-curvature="0" />
  </g>
  <g
     transform="translate(14.629,59.387)"
     style="fill:#161413;fill-rule:evenodd;stroke:none"
     id="g236">
    <path
       d="M 4.413,2.331 C 4.413,1.056 3.417,0 2.211,0 0.966,0 0,1.086 0,2.331 0,3.616 1.036,4.572 2.201,4.572 3.408,4.572 4.413,3.596 4.413,2.331 z M 2.211,4.323 C 1.783,4.323 1.345,4.114 1.075,3.656 0.826,3.218 0.826,2.609 0.826,2.251 c 0,-0.389 0,-0.927 0.24,-1.364 0.269,-0.459 0.737,-0.668 1.135,-0.668 0.439,0 0.868,0.22 1.126,0.647 0.259,0.429 0.259,1.007 0.259,1.385 0,0.358 0,0.897 -0.219,1.335 C 3.148,4.034 2.71,4.323 2.211,4.323 z"
       id="path238"
       inkscape:connector-curvature="0" />
  </g>
  <g
     transform="translate(19.28,59.556)"
     style="fill:#161413;fill-rule:evenodd;stroke:none"
     id="g240">
    <path
       d="m 5.987,0.946 c 0.18,-0.498 0.488,-0.627 0.837,-0.637 0,0 0,-0.309 0,-0.309 0,0 -1.654,0 -1.654,0 0,0 0,0.309 0,0.309 0.359,0.01 0.578,0.189 0.578,0.478 0,0.06 0,0.08 -0.05,0.209 0,0 -0.906,2.551 -0.906,2.551 0,0 -0.987,-2.779 -0.987,-2.779 -0.04,-0.12 -0.049,-0.14 -0.049,-0.19 0,-0.269 0.388,-0.269 0.587,-0.269 0,0 0,-0.309 0,-0.309 0,0 -1.922,0 -1.922,0 0,0 0,0.309 0,0.309 0.368,0 0.527,0.02 0.627,0.149 0.049,0.061 0.16,0.359 0.229,0.548 0,0 -0.856,2.411 -0.856,2.411 0,0 -0.948,-2.66 -0.948,-2.66 C 1.424,0.638 1.424,0.618 1.424,0.578 c 0,-0.269 0.388,-0.269 0.587,-0.269 0,0 0,-0.309 0,-0.309 C 2.011,0 0,0 0,0 c 0,0 0,0.309 0,0.309 0.498,0 0.617,0.03 0.737,0.348 0,0 1.255,3.528 1.255,3.528 0.05,0.139 0.08,0.218 0.209,0.218 0.13,0 0.149,-0.059 0.199,-0.199 0,0 1.007,-2.819 1.007,-2.819 0,0 1.016,2.829 1.016,2.829 0.04,0.11 0.07,0.189 0.199,0.189 0.13,0 0.159,-0.089 0.199,-0.189 0,0 1.166,-3.268 1.166,-3.268 z"
       id="path242"
       inkscape:connector-curvature="0" />
  </g>
  <g
     transform="translate(26.379,59.387)"
     style="fill:#161413;fill-rule:evenodd;stroke:none"
     id="g244">
    <path
       d="m 0.837,1.952 c 0.06,-1.484 0.897,-1.733 1.236,-1.733 1.025,0 1.125,1.345 1.125,1.733 0,0 -2.361,0 -2.361,0 z M 0.826,2.161 c 0,0 2.781,0 2.781,0 0.218,0 0.249,0 0.249,-0.209 C 3.856,0.966 3.318,0 2.073,0 0.916,0 0,1.025 0,2.272 c 0,1.335 1.046,2.3 2.192,2.3 1.216,0 1.664,-1.105 1.664,-1.295 0,-0.099 -0.08,-0.119 -0.13,-0.119 -0.09,0 -0.109,0.06 -0.13,0.139 C 3.247,4.323 2.351,4.323 2.251,4.323 1.753,4.323 1.355,4.025 1.125,3.656 0.826,3.178 0.826,2.521 0.826,2.161 z"
       id="path246"
       inkscape:connector-curvature="0" />
  </g>
  <g
     transform="translate(30.879,59.447)"
     style="fill:#161413;fill-rule:evenodd;stroke:none"
     id="g248">
    <path
       d="m 1.385,1.095 c 0,0 0,-1.095 0,-1.095 C 1.385,0 0,0.109 0,0.109 c 0,0 0,0.309 0,0.309 0.698,0 0.777,0.07 0.777,0.558 0,0 0,2.67 0,2.67 0,0.448 -0.11,0.448 -0.777,0.448 0,0 0,0.309 0,0.309 0,0 2.401,0 2.401,0 0,0 0,-0.309 0,-0.309 0,0 -0.209,0 -0.209,0 -0.738,0 -0.757,-0.109 -0.757,-0.468 0,0 0,-1.535 0,-1.535 0,-0.986 0.418,-1.873 1.176,-1.873 0.069,0 0.089,0 0.109,0.01 -0.03,0.011 -0.229,0.13 -0.229,0.389 0,0.279 0.209,0.429 0.428,0.429 0.179,0 0.428,-0.12 0.428,-0.439 C 3.347,0.289 3.038,0 2.611,0 1.883,0 1.525,0.667 1.385,1.095 z"
       id="path250"
       inkscape:connector-curvature="0" />
  </g>
  <g
     transform="translate(34.929,59.387)"
     style="fill:#161413;fill-rule:evenodd;stroke:none"
     id="g252">
    <path
       d="m 1.743,2.53 c 0.219,0.04 1.036,0.2 1.036,0.916 0,0.509 -0.348,0.908 -1.126,0.908 C 0.817,4.354 0.458,3.785 0.269,2.939 0.239,2.81 0.229,2.77 0.129,2.77 0,2.77 0,2.839 0,3.019 c 0,0 0,1.314 0,1.314 0,0.17 0,0.239 0.109,0.239 0.05,0 0.06,-0.009 0.25,-0.199 C 0.378,4.354 0.378,4.333 0.558,4.145 0.996,4.563 1.444,4.572 1.653,4.572 2.799,4.572 3.258,3.905 3.258,3.188 3.258,2.659 2.959,2.36 2.839,2.241 2.51,1.923 2.122,1.843 1.703,1.763 1.146,1.653 0.478,1.524 0.478,0.946 c 0,-0.348 0.259,-0.757 1.116,-0.757 1.096,0 1.145,0.897 1.166,1.206 0.01,0.089 0.099,0.089 0.119,0.089 0.13,0 0.13,-0.049 0.13,-0.239 0,0 0,-1.007 0,-1.007 C 3.009,0.069 3.009,0 2.899,0 2.849,0 2.829,0 2.699,0.119 2.67,0.159 2.57,0.249 2.53,0.278 2.151,0 1.743,0 1.594,0 0.378,0 0,0.667 0,1.225 0,1.574 0.159,1.853 0.428,2.072 0.747,2.331 1.025,2.391 1.743,2.53 z"
       id="path254"
       inkscape:connector-curvature="0" />
  </g>
  <g
     transform="translate(43.85,49.35)"
     style="fill:#161413;fill-rule:nonzero;stroke:none"
     id="g256">
    <path
       d="m 0,12 c 0,0 0.48,0 0.48,0 0,0 0,-12 0,-12 C 0.48,0 0,0 0,0"
       id="path258"
       inkscape:connector-curvature="0" />
  </g>
  <g
     transform="translate(50.629,53.337)"
     style="fill:#161413;fill-rule:evenodd;stroke:none"
     id="g260">
    <path
       d="m 1.933,2.799 c -0.867,0 -0.867,-0.996 -0.867,-1.225 0,-0.269 0.009,-0.587 0.159,-0.836 0.08,-0.121 0.309,-0.4 0.708,-0.4 0.866,0 0.866,0.997 0.866,1.226 0,0.269 -0.01,0.588 -0.159,0.837 C 2.56,2.521 2.331,2.799 1.933,2.799 z M 0.777,3.188 c 0,-0.04 0,-0.269 0.17,-0.468 0.388,0.278 0.796,0.309 0.986,0.309 0.927,0 1.613,-0.688 1.613,-1.455 0,-0.369 -0.159,-0.737 -0.408,-0.966 0.358,-0.339 0.718,-0.389 0.896,-0.389 0.021,0 0.071,0 0.1,0.01 -0.109,0.04 -0.159,0.149 -0.159,0.269 0,0.169 0.13,0.289 0.289,0.289 0.1,0 0.289,-0.07 0.289,-0.298 C 4.553,0.319 4.433,0 4.045,0 3.846,0 3.408,0.06 2.989,0.468 2.571,0.139 2.152,0.11 1.933,0.11 c -0.927,0 -1.614,0.687 -1.614,1.454 0,0.438 0.219,0.817 0.468,1.026 -0.129,0.15 -0.309,0.479 -0.309,0.827 0,0.309 0.13,0.688 0.438,0.887 C 0.319,4.473 0,4.902 0,5.3 0,6.017 0.987,6.566 2.201,6.566 3.377,6.566 4.413,6.057 4.413,5.281 4.413,4.931 4.274,4.423 3.766,4.145 3.238,3.866 2.66,3.866 2.052,3.866 c -0.249,0 -0.678,0 -0.747,-0.01 C 0.987,3.816 0.777,3.507 0.777,3.188 z M 2.211,6.336 C 1.205,6.336 0.518,5.828 0.518,5.3 c 0,-0.458 0.379,-0.827 0.817,-0.856 0,0 0.588,0 0.588,0 0.857,0 1.973,0 1.973,0.856 0,0.538 -0.708,1.036 -1.685,1.036 z"
       id="path262"
       inkscape:connector-curvature="0" />
  </g>
  <g
     transform="translate(55.689,53.387)"
     style="fill:#161413;fill-rule:evenodd;stroke:none"
     id="g264">
    <path
       d="m 0.827,2.291 c 0,-1.624 0.816,-2.042 1.345,-2.042 0.09,0 0.717,0.01 1.065,0.368 -0.408,0.031 -0.468,0.329 -0.468,0.458 0,0.26 0.18,0.459 0.458,0.459 0.259,0 0.459,-0.17 0.459,-0.468 C 3.686,0.388 2.929,0 2.162,0 0.916,0 0,1.075 0,2.311 c 0,1.275 0.986,2.261 2.141,2.261 1.335,0 1.655,-1.195 1.655,-1.295 0,-0.099 -0.1,-0.099 -0.13,-0.099 -0.09,0 -0.109,0.04 -0.13,0.099 C 3.248,4.204 2.6,4.323 2.231,4.323 1.703,4.323 0.827,3.896 0.827,2.291 z"
       id="path266"
       inkscape:connector-curvature="0" />
  </g>
  <g
     transform="translate(60.189,50.936)"
     style="fill:#161413;fill-rule:evenodd;stroke:none"
     id="g268">
    <path
       d="m 3.447,6.366 c 0,0 0,0.657 0,0.657 0,0 1.464,-0.109 1.464,-0.109 0,0 0,-0.309 0,-0.309 -0.697,0 -0.776,-0.07 -0.776,-0.558 0,0 0,-6.047 0,-6.047 0,0 -1.435,0.109 -1.435,0.109 0,0 0,0.309 0,0.309 0.697,0 0.776,0.07 0.776,0.558 0,0 0,2.152 0,2.152 C 3.187,2.769 2.76,2.511 2.222,2.511 1.046,2.511 0,3.487 0,4.772 0,6.037 0.976,7.023 2.112,7.023 2.75,7.023 3.198,6.685 3.447,6.366 z m 0,-2.67 c 0,0 0,2.042 0,2.042 0,0.18 0,0.199 -0.11,0.369 C 3.038,6.585 2.59,6.805 2.162,6.805 1.714,6.805 1.354,6.546 1.115,6.167 0.856,5.759 0.827,5.19 0.827,4.782 0.827,4.413 0.847,3.815 1.136,3.367 1.345,3.059 1.723,2.729 2.262,2.729 c 0.348,0 0.766,0.15 1.075,0.598 0.11,0.17 0.11,0.19 0.11,0.369 z"
       id="path270"
       inkscape:connector-curvature="0" />
  </g>
  <g
     transform="translate(71.35,49.35)"
     style="fill:#161413;fill-rule:nonzero;stroke:none"
     id="g272">
    <path
       d="m 0,12 c 0,0 0.48,0 0.48,0 0,0 0,-12 0,-12 C 0.48,0 0,0 0,0"
       id="path274"
       inkscape:connector-curvature="0" />
  </g>
  <g
     transform="translate(78.098,51.215)"
     style="fill:#161413;fill-rule:evenodd;stroke:none"
     id="g276">
    <path
       d="m 0.768,5.867 c 0,0 1.055,-1.025 1.055,-1.025 C 3.377,3.467 3.976,2.929 3.976,1.933 3.976,0.797 3.078,0 1.863,0 0.737,0 0,0.916 0,1.803 c 0,0.558 0.498,0.558 0.528,0.558 0.169,0 0.518,-0.12 0.518,-0.528 0,-0.259 -0.179,-0.518 -0.527,-0.518 -0.08,0 -0.1,0 -0.13,0.009 0.229,-0.647 0.766,-1.015 1.344,-1.015 0.908,0 1.335,0.806 1.335,1.624 0,0.797 -0.498,1.584 -1.045,2.201 0,0 -1.914,2.133 -1.914,2.133 C 0,6.376 0,6.396 0,6.635 c 0,0 3.696,0 3.696,0 0,0 0.28,-1.733 0.28,-1.733 0,0 -0.249,0 -0.249,0 C 3.677,5.2 3.606,5.639 3.507,5.788 3.438,5.867 2.779,5.867 2.561,5.867 c 0,0 -1.793,0 -1.793,0 z"
       id="path278"
       inkscape:connector-curvature="0" />
  </g>
  <g
     transform="translate(88.35,49.35)"
     style="fill:#161413;fill-rule:nonzero;stroke:none"
     id="g280">
    <path
       d="m 0,12 c 0,0 0.48,0 0.48,0 0,0 0,-12 0,-12 C 0.48,0 0,0 0,0"
       id="path282"
       inkscape:connector-curvature="0" />
  </g>
  <g
     transform="translate(95.098,51.215)"
     style="fill:#161413;fill-rule:evenodd;stroke:none"
     id="g284">
    <path
       d="m 0.768,5.867 c 0,0 1.055,-1.025 1.055,-1.025 C 3.377,3.467 3.976,2.929 3.976,1.933 3.976,0.797 3.078,0 1.863,0 0.737,0 0,0.916 0,1.803 c 0,0.558 0.498,0.558 0.528,0.558 0.169,0 0.518,-0.12 0.518,-0.528 0,-0.259 -0.179,-0.518 -0.527,-0.518 -0.08,0 -0.1,0 -0.13,0.009 0.229,-0.647 0.766,-1.015 1.344,-1.015 0.908,0 1.335,0.806 1.335,1.624 0,0.797 -0.498,1.584 -1.045,2.201 0,0 -1.914,2.133 -1.914,2.133 C 0,6.376 0,6.396 0,6.635 c 0,0 3.696,0 3.696,0 0,0 0.28,-1.733 0.28,-1.733 0,0 -0.249,0 -0.249,0 C 3.677,5.2 3.606,5.639 3.507,5.788 3.438,5.867 2.779,5.867 2.561,5.867 c 0,0 -1.793,0 -1.793,0 z"
       id="path286"
       inkscape:connector-curvature="0" />
  </g>
  <g
     transform="translate(105.1,49.35)"
     style="fill:#161413;fill-rule:nonzero;stroke:none"
     id="g288">
    <path
       d="m 0,12 c 0,0 0.48,0 0.48,0 0,0 0,-12 0,-12 C 0.48,0 0,0 0,0"
       id="path290"
       inkscape:connector-curvature="0" />
  </g>
  <g
     transform="translate(111.739,51.215)"
     style="fill:#161413;fill-rule:evenodd;stroke:none"
     id="g292">
    <path
       d="M 4.194,3.447 C 4.194,2.65 4.144,1.853 3.796,1.115 3.337,0.159 2.52,0 2.101,0 1.504,0 0.777,0.259 0.368,1.186 0.049,1.873 0,2.65 0,3.447 0,4.195 0.04,5.091 0.448,5.848 0.877,6.655 1.603,6.854 2.091,6.854 2.63,6.854 3.386,6.645 3.825,5.698 4.144,5.011 4.194,4.234 4.194,3.447 z M 2.091,6.635 C 1.703,6.635 1.115,6.386 0.936,5.43 0.827,4.831 0.827,3.915 0.827,3.327 c 0,-0.637 0,-1.295 0.079,-1.833 0.189,-1.185 0.936,-1.275 1.185,-1.275 0.33,0 0.987,0.18 1.176,1.166 0.1,0.558 0.1,1.314 0.1,1.942 0,0.747 0,1.425 -0.11,2.063 C 3.108,6.336 2.54,6.635 2.091,6.635 z"
       id="path294"
       inkscape:connector-curvature="0" />
  </g>
  <g
     transform="translate(122.35,49.35)"
     style="fill:#161413;fill-rule:nonzero;stroke:none"
     id="g296">
    <path
       d="m 0,12 c 0,0 0.48,0 0.48,0 0,0 0,-12 0,-12 C 0.48,0 0,0 0,0"
       id="path298"
       inkscape:connector-curvature="0" />
  </g>
  <g
     transform="translate(128.739,51.215)"
     style="fill:#161413;fill-rule:evenodd;stroke:none"
     id="g300">
    <path
       d="M 4.194,3.447 C 4.194,2.65 4.144,1.853 3.796,1.115 3.337,0.159 2.52,0 2.101,0 1.504,0 0.777,0.259 0.368,1.186 0.049,1.873 0,2.65 0,3.447 0,4.195 0.04,5.091 0.448,5.848 0.877,6.655 1.603,6.854 2.091,6.854 2.63,6.854 3.386,6.645 3.825,5.698 4.144,5.011 4.194,4.234 4.194,3.447 z M 2.091,6.635 C 1.703,6.635 1.115,6.386 0.936,5.43 0.827,4.831 0.827,3.915 0.827,3.327 c 0,-0.637 0,-1.295 0.079,-1.833 0.189,-1.185 0.936,-1.275 1.185,-1.275 0.33,0 0.987,0.18 1.176,1.166 0.1,0.558 0.1,1.314 0.1,1.942 0,0.747 0,1.425 -0.11,2.063 C 3.108,6.336 2.54,6.635 2.091,6.635 z"
       id="path302"
       inkscape:connector-curvature="0" />
  </g>
  <g
     transform="translate(139.1,49.35)"
     style="fill:#161413;fill-rule:nonzero;stroke:none"
     id="g304">
    <path
       d="m 0,12 c 0,0 0.48,0 0.48,0 0,0 0,-12 0,-12 C 0.48,0 0,0 0,0"
       id="path306"
       inkscape:connector-curvature="0" />
  </g>
  <g
     transform="translate(145.668,53.447)"
     style="fill:#161413;fill-rule:evenodd;stroke:none"
     id="g308">
    <path
       d="m 0.778,0.976 c 0,0 0,2.67 0,2.67 0,0.448 -0.11,0.448 -0.778,0.448 0,0 0,0.309 0,0.309 0,0 2.243,0 2.243,0 0,0 0,-0.309 0,-0.309 -0.668,0 -0.778,0 -0.778,-0.448 0,0 0,-1.833 0,-1.833 0,-1.036 0.707,-1.595 1.345,-1.595 0.628,0 0.737,0.539 0.737,1.107 0,0 0,2.321 0,2.321 0,0.448 -0.109,0.448 -0.776,0.448 0,0 0,0.309 0,0.309 0,0 2.241,0 2.241,0 0,0 0,-0.309 0,-0.309 -0.668,0 -0.777,0 -0.777,-0.448 0,0 0,-1.833 0,-1.833 0,-1.036 0.708,-1.595 1.344,-1.595 0.628,0 0.738,0.539 0.738,1.107 0,0 0,2.321 0,2.321 0,0.448 -0.11,0.448 -0.777,0.448 0,0 0,0.309 0,0.309 0,0 2.242,0 2.242,0 0,0 0,-0.309 0,-0.309 -0.518,0 -0.768,0 -0.778,-0.298 0,0 0,-1.904 0,-1.904 0,-0.856 0,-1.165 -0.308,-1.524 C 6.556,0.199 6.228,0 5.65,0 4.813,0 4.374,0.597 4.205,0.976 4.066,0.109 3.328,0 2.88,0 2.153,0 1.685,0.428 1.406,1.046 c 0,0 0,-1.046 0,-1.046 C 1.406,0 0,0.109 0,0.109 c 0,0 0,0.309 0,0.309 0.699,0 0.778,0.07 0.778,0.558 z"
       id="path310"
       inkscape:connector-curvature="0" />
  </g>
  <g
     transform="translate(153.929,51.185)"
     style="fill:#161413;fill-rule:evenodd;stroke:none"
     id="g312">
    <path
       d="m 1.435,2.262 c 0,0 -1.396,0.109 -1.396,0.109 0,0 0,0.309 0,0.309 0.649,0 0.737,0.06 0.737,0.547 0,0 0,2.681 0,2.681 0,0.448 -0.109,0.448 -0.776,0.448 0,0 0,0.309 0,0.309 0,0 2.132,0 2.132,0 0,0 0,-0.309 0,-0.309 -0.657,0 -0.697,-0.049 -0.697,-0.438 0,0 0,-3.656 0,-3.656 z M 1.475,0.528 C 1.475,0.209 1.225,0 0.946,0 0.638,0 0.418,0.269 0.418,0.528 c 0,0.269 0.22,0.528 0.528,0.528 0.279,0 0.529,-0.209 0.529,-0.528 z"
       id="path314"
       inkscape:connector-curvature="0" />
  </g>
  <g
     transform="translate(156.668,53.447)"
     style="fill:#161413;fill-rule:evenodd;stroke:none"
     id="g316">
    <path
       d="m 0.778,0.976 c 0,0 0,2.67 0,2.67 0,0.448 -0.11,0.448 -0.778,0.448 0,0 0,0.309 0,0.309 0,0 2.243,0 2.243,0 0,0 0,-0.309 0,-0.309 -0.668,0 -0.778,0 -0.778,-0.448 0,0 0,-1.833 0,-1.833 0,-1.036 0.707,-1.595 1.345,-1.595 0.628,0 0.737,0.539 0.737,1.107 0,0 0,2.321 0,2.321 0,0.448 -0.109,0.448 -0.776,0.448 0,0 0,0.309 0,0.309 0,0 2.241,0 2.241,0 0,0 0,-0.309 0,-0.309 -0.518,0 -0.768,0 -0.777,-0.298 0,0 0,-1.904 0,-1.904 0,-0.856 0,-1.165 -0.309,-1.524 C 3.786,0.199 3.457,0 2.88,0 2.153,0 1.685,0.428 1.406,1.046 c 0,0 0,-1.046 0,-1.046 C 1.406,0 0,0.109 0,0.109 c 0,0 0,0.309 0,0.309 0.699,0 0.778,0.07 0.778,0.558 z"
       id="path318"
       inkscape:connector-curvature="0" />
  </g>
  <g
     transform="translate(44.1,61.37)"
     style="fill:#161413;fill-rule:nonzero;stroke:none"
     id="g320">
    <path
       d="m 0,0.48 c 0,0 95.28,0 95.28,0 0,0 0,-0.48 0,-0.48 C 95.28,0 0,0 0,0"
       id="path322"
       inkscape:connector-curvature="0" />
  </g>
  <g
     transform="translate(1.6,61.35)"
     style="fill:#161413;fill-rule:nonzero;stroke:none"
     id="g324">
    <path
       d="m 0,12 c 0,0 0.48,0 0.48,0 0,0 0,-12 0,-12 C 0.48,0 0,0 0,0"
       id="path326"
       inkscape:connector-curvature="0" />
  </g>
  <g
     transform="translate(43.85,61.35)"
     style="fill:#161413;fill-rule:nonzero;stroke:none"
     id="g328">
    <path
       d="m 0,12 c 0,0 0.48,0 0.48,0 0,0 0,-12 0,-12 C 0.48,0 0,0 0,0"
       id="path330"
       inkscape:connector-curvature="0" />
  </g>
  <g
     transform="translate(50.429,62.936)"
     style="fill:#161413;fill-rule:evenodd;stroke:none"
     id="g332">
    <path
       d="M 1.435,0 C 1.435,0 0,0.109 0,0.109 c 0,0 0,0.309 0,0.309 0.697,0 0.776,0.07 0.776,0.558 0,0 0,5.181 0,5.181 0,0.448 -0.109,0.448 -0.776,0.448 0,0 0,0.309 0,0.309 0,0 2.211,0 2.211,0 0,0 0,-0.309 0,-0.309 -0.667,0 -0.776,0 -0.776,-0.448 0,0 0,-6.157 0,-6.157 z"
       id="path334"
       inkscape:connector-curvature="0" />
  </g>
  <g
     transform="translate(53.189,65.387)"
     style="fill:#161413;fill-rule:evenodd;stroke:none"
     id="g336">
    <path
       d="m 0.827,2.291 c 0,-1.624 0.816,-2.042 1.345,-2.042 0.09,0 0.717,0.01 1.065,0.368 -0.408,0.031 -0.468,0.329 -0.468,0.458 0,0.26 0.18,0.459 0.458,0.459 0.259,0 0.459,-0.17 0.459,-0.468 C 3.686,0.388 2.929,0 2.162,0 0.916,0 0,1.075 0,2.311 c 0,1.275 0.986,2.261 2.141,2.261 1.335,0 1.655,-1.195 1.655,-1.295 0,-0.099 -0.1,-0.099 -0.13,-0.099 -0.09,0 -0.109,0.04 -0.13,0.099 C 3.248,4.204 2.6,4.323 2.231,4.323 1.703,4.323 0.827,3.896 0.827,2.291 z"
       id="path338"
       inkscape:connector-curvature="0" />
  </g>
  <g
     transform="translate(57.668,65.447)"
     style="fill:#161413;fill-rule:evenodd;stroke:none"
     id="g340">
    <path
       d="m 0.778,0.976 c 0,0 0,2.67 0,2.67 0,0.448 -0.11,0.448 -0.778,0.448 0,0 0,0.309 0,0.309 0,0 2.243,0 2.243,0 0,0 0,-0.309 0,-0.309 -0.668,0 -0.778,0 -0.778,-0.448 0,0 0,-1.833 0,-1.833 0,-1.036 0.707,-1.595 1.345,-1.595 0.628,0 0.737,0.539 0.737,1.107 0,0 0,2.321 0,2.321 0,0.448 -0.109,0.448 -0.776,0.448 0,0 0,0.309 0,0.309 0,0 2.241,0 2.241,0 0,0 0,-0.309 0,-0.309 -0.668,0 -0.777,0 -0.777,-0.448 0,0 0,-1.833 0,-1.833 0,-1.036 0.708,-1.595 1.344,-1.595 0.628,0 0.738,0.539 0.738,1.107 0,0 0,2.321 0,2.321 0,0.448 -0.11,0.448 -0.777,0.448 0,0 0,0.309 0,0.309 0,0 2.242,0 2.242,0 0,0 0,-0.309 0,-0.309 -0.518,0 -0.768,0 -0.778,-0.298 0,0 0,-1.904 0,-1.904 0,-0.856 0,-1.165 -0.308,-1.524 C 6.556,0.199 6.228,0 5.65,0 4.813,0 4.374,0.597 4.205,0.976 4.066,0.109 3.328,0 2.88,0 2.153,0 1.685,0.428 1.406,1.046 c 0,0 0,-1.046 0,-1.046 C 1.406,0 0,0.109 0,0.109 c 0,0 0,0.309 0,0.309 0.699,0 0.778,0.07 0.778,0.558 z"
       id="path342"
       inkscape:connector-curvature="0" />
  </g>
  <g
     transform="translate(71.35,61.35)"
     style="fill:#161413;fill-rule:nonzero;stroke:none"
     id="g344">
    <path
       d="m 0,12 c 0,0 0.48,0 0.48,0 0,0 0,-12 0,-12 C 0.48,0 0,0 0,0"
       id="path346"
       inkscape:connector-curvature="0" />
  </g>
  <g
     transform="translate(78.018,63.215)"
     style="fill:#161413;fill-rule:evenodd;stroke:none"
     id="g348">
    <path
       d="M 2.472,3.128 C 3.288,2.86 3.866,2.161 3.866,1.374 3.866,0.558 2.989,0 2.033,0 1.026,0 0.27,0.598 0.27,1.355 c 0,0.329 0.218,0.518 0.507,0.518 0.309,0 0.508,-0.219 0.508,-0.509 0,-0.498 -0.468,-0.498 -0.617,-0.498 0.309,-0.488 0.967,-0.617 1.325,-0.617 0.408,0 0.956,0.219 0.956,1.115 0,0.121 -0.019,0.698 -0.278,1.136 -0.3,0.479 -0.638,0.509 -0.887,0.519 -0.08,0.01 -0.319,0.029 -0.389,0.029 -0.08,0.011 -0.149,0.021 -0.149,0.12 0,0.11 0.069,0.11 0.239,0.11 0,0 0.438,0 0.438,0 0.817,0 1.185,0.677 1.185,1.654 0,1.354 -0.687,1.643 -1.125,1.643 C 1.555,6.575 0.808,6.406 0.459,5.818 0.808,5.867 1.116,5.649 1.116,5.27 1.116,4.911 0.848,4.712 0.559,4.712 0.319,4.712 0,4.852 0,5.29 0,6.197 0.927,6.854 2.013,6.854 3.228,6.854 4.135,5.947 4.135,4.932 4.135,4.114 3.507,3.337 2.472,3.128 z"
       id="path350"
       inkscape:connector-curvature="0" />
  </g>
  <g
     transform="translate(88.35,61.35)"
     style="fill:#161413;fill-rule:nonzero;stroke:none"
     id="g352">
    <path
       d="m 0,12 c 0,0 0.48,0 0.48,0 0,0 0,-12 0,-12 C 0.48,0 0,0 0,0"
       id="path354"
       inkscape:connector-curvature="0" />
  </g>
  <g
     transform="translate(95.018,63.215)"
     style="fill:#161413;fill-rule:evenodd;stroke:none"
     id="g356">
    <path
       d="M 2.472,3.128 C 3.288,2.86 3.866,2.161 3.866,1.374 3.866,0.558 2.989,0 2.033,0 1.026,0 0.27,0.598 0.27,1.355 c 0,0.329 0.218,0.518 0.507,0.518 0.309,0 0.508,-0.219 0.508,-0.509 0,-0.498 -0.468,-0.498 -0.617,-0.498 0.309,-0.488 0.967,-0.617 1.325,-0.617 0.408,0 0.956,0.219 0.956,1.115 0,0.121 -0.019,0.698 -0.278,1.136 -0.3,0.479 -0.638,0.509 -0.887,0.519 -0.08,0.01 -0.319,0.029 -0.389,0.029 -0.08,0.011 -0.149,0.021 -0.149,0.12 0,0.11 0.069,0.11 0.239,0.11 0,0 0.438,0 0.438,0 0.817,0 1.185,0.677 1.185,1.654 0,1.354 -0.687,1.643 -1.125,1.643 C 1.555,6.575 0.808,6.406 0.459,5.818 0.808,5.867 1.116,5.649 1.116,5.27 1.116,4.911 0.848,4.712 0.559,4.712 0.319,4.712 0,4.852 0,5.29 0,6.197 0.927,6.854 2.013,6.854 3.228,6.854 4.135,5.947 4.135,4.932 4.135,4.114 3.507,3.337 2.472,3.128 z"
       id="path358"
       inkscape:connector-curvature="0" />
  </g>
  <g
     transform="translate(105.1,61.35)"
     style="fill:#161413;fill-rule:nonzero;stroke:none"
     id="g360">
    <path
       d="m 0,12 c 0,0 0.48,0 0.48,0 0,0 0,-12 0,-12 C 0.48,0 0,0 0,0"
       id="path362"
       inkscape:connector-curvature="0" />
  </g>
  <g
     transform="translate(112.237,63.215)"
     style="fill:#161413;fill-rule:evenodd;stroke:none"
     id="g364">
    <path
       d="M 2.042,0.259 C 2.042,0.02 2.042,0 1.813,0 1.195,0.638 0.318,0.638 0,0.638 c 0,0 0,0.309 0,0.309 0.199,0 0.787,0 1.304,-0.259 0,0 0,5.16 0,5.16 0,0.358 -0.029,0.478 -0.925,0.478 0,0 -0.32,0 -0.32,0 0,0 0,0.309 0,0.309 0,0 3.229,0 3.229,0 0,0 0,-0.309 0,-0.309 0,0 -0.32,0 -0.32,0 -0.896,0 -0.926,-0.109 -0.926,-0.478 0,0 0,-5.589 0,-5.589 z"
       id="path366"
       inkscape:connector-curvature="0" />
  </g>
  <g
     transform="translate(122.35,61.35)"
     style="fill:#161413;fill-rule:nonzero;stroke:none"
     id="g368">
    <path
       d="m 0,12 c 0,0 0.48,0 0.48,0 0,0 0,-12 0,-12 C 0.48,0 0,0 0,0"
       id="path370"
       inkscape:connector-curvature="0" />
  </g>
  <g
     transform="translate(129.237,63.215)"
     style="fill:#161413;fill-rule:evenodd;stroke:none"
     id="g372">
    <path
       d="M 2.042,0.259 C 2.042,0.02 2.042,0 1.813,0 1.195,0.638 0.318,0.638 0,0.638 c 0,0 0,0.309 0,0.309 0.199,0 0.787,0 1.304,-0.259 0,0 0,5.16 0,5.16 0,0.358 -0.029,0.478 -0.925,0.478 0,0 -0.32,0 -0.32,0 0,0 0,0.309 0,0.309 0,0 3.229,0 3.229,0 0,0 0,-0.309 0,-0.309 0,0 -0.32,0 -0.32,0 -0.896,0 -0.926,-0.109 -0.926,-0.478 0,0 0,-5.589 0,-5.589 z"
       id="path374"
       inkscape:connector-curvature="0" />
  </g>
  <g
     transform="translate(139.1,61.35)"
     style="fill:#161413;fill-rule:nonzero;stroke:none"
     id="g376">
    <path
       d="m 0,12 c 0,0 0.48,0 0.48,0 0,0 0,-12 0,-12 C 0.48,0 0,0 0,0"
       id="path378"
       inkscape:connector-curvature="0" />
  </g>
  <g
     transform="translate(145.668,65.447)"
     style="fill:#161413;fill-rule:evenodd;stroke:none"
     id="g380">
    <path
       d="m 0.778,0.976 c 0,0 0,2.67 0,2.67 0,0.448 -0.11,0.448 -0.778,0.448 0,0 0,0.309 0,0.309 0,0 2.243,0 2.243,0 0,0 0,-0.309 0,-0.309 -0.668,0 -0.778,0 -0.778,-0.448 0,0 0,-1.833 0,-1.833 0,-1.036 0.707,-1.595 1.345,-1.595 0.628,0 0.737,0.539 0.737,1.107 0,0 0,2.321 0,2.321 0,0.448 -0.109,0.448 -0.776,0.448 0,0 0,0.309 0,0.309 0,0 2.241,0 2.241,0 0,0 0,-0.309 0,-0.309 -0.668,0 -0.777,0 -0.777,-0.448 0,0 0,-1.833 0,-1.833 0,-1.036 0.708,-1.595 1.344,-1.595 0.628,0 0.738,0.539 0.738,1.107 0,0 0,2.321 0,2.321 0,0.448 -0.11,0.448 -0.777,0.448 0,0 0,0.309 0,0.309 0,0 2.242,0 2.242,0 0,0 0,-0.309 0,-0.309 -0.518,0 -0.768,0 -0.778,-0.298 0,0 0,-1.904 0,-1.904 0,-0.856 0,-1.165 -0.308,-1.524 C 6.556,0.199 6.228,0 5.65,0 4.813,0 4.374,0.597 4.205,0.976 4.066,0.109 3.328,0 2.88,0 2.153,0 1.685,0.428 1.406,1.046 c 0,0 0,-1.046 0,-1.046 C 1.406,0 0,0.109 0,0.109 c 0,0 0,0.309 0,0.309 0.699,0 0.778,0.07 0.778,0.558 z"
       id="path382"
       inkscape:connector-curvature="0" />
  </g>
  <g
     transform="translate(154.018,65.387)"
     style="fill:#161413;fill-rule:evenodd;stroke:none"
     id="g384">
    <path
       d="m 2.899,3.706 c 0.04,0.399 0.309,0.817 0.778,0.817 0.209,0 0.816,-0.14 0.816,-0.947 0,0 0,-0.557 0,-0.557 0,0 -0.249,0 -0.249,0 0,0 0,0.557 0,0.557 0,0.578 -0.249,0.638 -0.358,0.638 -0.329,0 -0.368,-0.448 -0.368,-0.498 0,0 0,-1.992 0,-1.992 0,-0.419 0,-0.808 -0.36,-1.176 C 2.77,0.159 2.271,0 1.794,0 0.977,0 0.289,0.468 0.289,1.125 c 0,0.299 0.199,0.469 0.459,0.469 0.278,0 0.458,-0.199 0.458,-0.458 0,-0.12 -0.05,-0.448 -0.508,-0.459 0.269,-0.349 0.757,-0.458 1.075,-0.458 0.489,0 1.057,0.389 1.057,1.275 0,0 0,0.368 0,0.368 C 2.321,1.893 1.624,1.923 0.997,2.222 0.25,2.56 0,3.078 0,3.517 0,4.323 0.967,4.572 1.595,4.572 2.252,4.572 2.71,4.174 2.899,3.706 z M 2.83,2.072 c 0,0 0,0.996 0,0.996 0,0.947 -0.718,1.286 -1.166,1.286 -0.488,0 -0.896,-0.349 -0.896,-0.847 0,-0.548 0.418,-1.375 2.062,-1.435 z"
       id="path386"
       inkscape:connector-curvature="0" />
  </g>
  <g
     transform="translate(158.719,65.556)"
     style="fill:#161413;fill-rule:evenodd;stroke:none"
     id="g388">
    <path
       d="M 2.74,1.953 C 3.039,1.574 3.418,1.086 3.656,0.827 3.966,0.469 4.374,0.319 4.842,0.309 c 0,0 0,-0.309 0,-0.309 0,0 -1.773,0 -1.773,0 0,0 0,0.309 0,0.309 0.209,0.02 0.289,0.149 0.289,0.309 0,0.159 -0.1,0.288 -0.15,0.349 0,0 -0.617,0.776 -0.617,0.776 0,0 -0.777,-1.006 -0.777,-1.006 -0.09,-0.099 -0.09,-0.119 -0.09,-0.179 0,-0.15 0.149,-0.239 0.348,-0.249 0,0 0,-0.309 0,-0.309 0,0 -2.022,0 -2.022,0 0,0 0,0.309 0,0.309 0.698,0 0.708,0.01 1.176,0.608 0,0 0.986,1.285 0.986,1.285 0,0 -0.936,1.186 -0.936,1.186 C 0.798,3.965 0.21,3.985 0,3.985 c 0,0 0,0.309 0,0.309 0,0 1.774,0 1.774,0 0,0 0,-0.309 0,-0.309 C 1.555,3.955 1.485,3.826 1.485,3.676 c 0,-0.219 0.289,-0.548 0.897,-1.265 0,0 0.757,0.996 0.757,0.996 0.08,0.11 0.209,0.269 0.209,0.329 0,0.09 -0.09,0.24 -0.359,0.249 0,0 0,0.309 0,0.309 0,0 2.033,0 2.033,0 0,0 0,-0.309 0,-0.309 -0.538,0 -0.717,-0.02 -0.947,-0.309 0,0 -1.335,-1.723 -1.335,-1.723 z"
       id="path390"
       inkscape:connector-curvature="0" />
  </g>
  <g
     transform="translate(1.85,73.37)"
     style="fill:#161413;fill-rule:nonzero;stroke:none"
     id="g392">
    <path
       d="m 0,0.48 c 0,0 137.64,0 137.64,0 0,0 0,-0.48 0,-0.48 C 137.64,0 0,0 0,0"
       id="path394"
       inkscape:connector-curvature="0" />
  </g>
</svg>
