<?xml version="1.0" encoding="UTF-8" standalone="no"?>
<svg
   xmlns:dc="http://purl.org/dc/elements/1.1/"
   xmlns:cc="http://creativecommons.org/ns#"
   xmlns:rdf="http://www.w3.org/1999/02/22-rdf-syntax-ns#"
   xmlns:svg="http://www.w3.org/2000/svg"
   xmlns="http://www.w3.org/2000/svg"
   xmlns:sodipodi="http://sodipodi.sourceforge.net/DTD/sodipodi-0.dtd"
   xmlns:inkscape="http://www.inkscape.org/namespaces/inkscape"
   width="275.76501"
   height="47.018749"
   viewBox="0 0 220.61201 37.614999"
   id="svg2"
   version="1.1"
   inkscape:version="0.48.0 r9654"
   sodipodi:docname="latex_source_code.ps(converted)-page1.svg">
  <metadata
     id="metadata360">
    <rdf:RDF>
      <cc:Work
         rdf:about="">
        <dc:format>image/svg+xml</dc:format>
        <dc:type
           rdf:resource="http://purl.org/dc/dcmitype/StillImage" />
        <dc:title></dc:title>
      </cc:Work>
    </rdf:RDF>
  </metadata>
  <defs
     id="defs358" />
  <sodipodi:namedview
     pagecolor="#ffffff"
     bordercolor="#666666"
     borderopacity="1"
     objecttolerance="10"
     gridtolerance="10"
     guidetolerance="10"
     inkscape:pageopacity="0"
     inkscape:pageshadow="2"
     inkscape:window-width="640"
     inkscape:window-height="480"
     id="namedview356"
     showgrid="false"
     fit-margin-top="2"
     fit-margin-right="2"
     fit-margin-bottom="2"
     fit-margin-left="2"
     inkscape:zoom="0.24418052"
     inkscape:cx="180.665"
     inkscape:cy="-323"
     inkscape:window-x="0"
     inkscape:window-y="24"
     inkscape:window-maximized="0"
     inkscape:current-layer="svg2" />
  <g
     transform="translate(93.85,3.862)"
     style="fill:#161413;fill-rule:evenodd;stroke:none"
     id="g4">
    <path
       d="m 0.778,0.976 c 0,0 0,2.67 0,2.67 0,0.448 -0.11,0.448 -0.778,0.448 0,0 0,0.309 0,0.309 0,0 2.243,0 2.243,0 0,0 0,-0.309 0,-0.309 -0.668,0 -0.778,0 -0.778,-0.448 0,0 0,-1.833 0,-1.833 0,-1.036 0.707,-1.595 1.345,-1.595 0.628,0 0.737,0.539 0.737,1.107 0,0 0,2.321 0,2.321 0,0.448 -0.109,0.448 -0.776,0.448 0,0 0,0.309 0,0.309 0,0 2.241,0 2.241,0 0,0 0,-0.309 0,-0.309 -0.518,0 -0.768,0 -0.777,-0.298 0,0 0,-1.904 0,-1.904 0,-0.856 0,-1.165 -0.309,-1.524 C 3.786,0.199 3.457,0 2.88,0 2.153,0 1.685,0.428 1.406,1.046 c 0,0 0,-1.046 0,-1.046 C 1.406,0 0,0.109 0,0.109 c 0,0 0,0.309 0,0.309 0.699,0 0.778,0.07 0.778,0.558 z"
       id="path6"
       inkscape:connector-curvature="0" />
  </g>
  <g
     transform="translate(99.311,3.802)"
     style="fill:#161413;fill-rule:evenodd;stroke:none"
     id="g8">
    <path
       d="M 4.413,2.331 C 4.413,1.056 3.417,0 2.211,0 0.966,0 0,1.086 0,2.331 0,3.616 1.036,4.572 2.201,4.572 3.408,4.572 4.413,3.596 4.413,2.331 z M 2.211,4.323 C 1.783,4.323 1.345,4.114 1.075,3.656 0.826,3.218 0.826,2.609 0.826,2.251 c 0,-0.389 0,-0.927 0.24,-1.364 0.269,-0.459 0.737,-0.668 1.135,-0.668 0.439,0 0.868,0.22 1.126,0.647 0.259,0.429 0.259,1.007 0.259,1.385 0,0.358 0,0.897 -0.219,1.335 C 3.148,4.034 2.71,4.323 2.211,4.323 z"
       id="path10"
       inkscape:connector-curvature="0" />
  </g>
  <g
     transform="translate(104.35,3.862)"
     style="fill:#161413;fill-rule:evenodd;stroke:none"
     id="g12">
    <path
       d="m 0.778,0.976 c 0,0 0,2.67 0,2.67 0,0.448 -0.11,0.448 -0.778,0.448 0,0 0,0.309 0,0.309 0,0 2.243,0 2.243,0 0,0 0,-0.309 0,-0.309 -0.668,0 -0.778,0 -0.778,-0.448 0,0 0,-1.833 0,-1.833 0,-1.036 0.707,-1.595 1.345,-1.595 0.628,0 0.737,0.539 0.737,1.107 0,0 0,2.321 0,2.321 0,0.448 -0.109,0.448 -0.776,0.448 0,0 0,0.309 0,0.309 0,0 2.241,0 2.241,0 0,0 0,-0.309 0,-0.309 -0.518,0 -0.768,0 -0.777,-0.298 0,0 0,-1.904 0,-1.904 0,-0.856 0,-1.165 -0.309,-1.524 C 3.786,0.199 3.457,0 2.88,0 2.153,0 1.685,0.428 1.406,1.046 c 0,0 0,-1.046 0,-1.046 C 1.406,0 0,0.109 0,0.109 c 0,0 0,0.309 0,0.309 0.699,0 0.778,0.07 0.778,0.558 z"
       id="path14"
       inkscape:connector-curvature="0" />
  </g>
  <g
     transform="translate(109.861,1.6)"
     style="fill:#161413;fill-rule:evenodd;stroke:none"
     id="g16">
    <path
       d="m 1.435,2.262 c 0,0 -1.396,0.109 -1.396,0.109 0,0 0,0.309 0,0.309 0.649,0 0.737,0.06 0.737,0.547 0,0 0,2.681 0,2.681 0,0.448 -0.109,0.448 -0.776,0.448 0,0 0,0.309 0,0.309 0,0 2.132,0 2.132,0 0,0 0,-0.309 0,-0.309 -0.657,0 -0.697,-0.049 -0.697,-0.438 0,0 0,-3.656 0,-3.656 z M 1.475,0.528 C 1.475,0.209 1.225,0 0.946,0 0.638,0 0.418,0.269 0.418,0.528 c 0,0.269 0.22,0.528 0.528,0.528 0.279,0 0.529,-0.209 0.529,-0.528 z"
       id="path18"
       inkscape:connector-curvature="0" />
  </g>
  <g
     transform="translate(112.6,3.862)"
     style="fill:#161413;fill-rule:evenodd;stroke:none"
     id="g20">
    <path
       d="m 0.778,0.976 c 0,0 0,2.67 0,2.67 0,0.448 -0.11,0.448 -0.778,0.448 0,0 0,0.309 0,0.309 0,0 2.243,0 2.243,0 0,0 0,-0.309 0,-0.309 -0.668,0 -0.778,0 -0.778,-0.448 0,0 0,-1.833 0,-1.833 0,-1.036 0.707,-1.595 1.345,-1.595 0.628,0 0.737,0.539 0.737,1.107 0,0 0,2.321 0,2.321 0,0.448 -0.109,0.448 -0.776,0.448 0,0 0,0.309 0,0.309 0,0 2.241,0 2.241,0 0,0 0,-0.309 0,-0.309 -0.518,0 -0.768,0 -0.777,-0.298 0,0 0,-1.904 0,-1.904 0,-0.856 0,-1.165 -0.309,-1.524 C 3.786,0.199 3.457,0 2.88,0 2.153,0 1.685,0.428 1.406,1.046 c 0,0 0,-1.046 0,-1.046 C 1.406,0 0,0.109 0,0.109 c 0,0 0,0.309 0,0.309 0.699,0 0.778,0.07 0.778,0.558 z"
       id="path22"
       inkscape:connector-curvature="0" />
  </g>
  <g
     transform="translate(117.721,2.138)"
     style="fill:#161413;fill-rule:evenodd;stroke:none"
     id="g24">
    <path
       d="m 1.535,2.142 c 0,0 1.424,0 1.424,0 0,0 0,-0.309 0,-0.309 0,0 -1.424,0 -1.424,0 0,0 0,-1.833 0,-1.833 0,0 -0.249,0 -0.249,0 C 1.276,0.816 0.977,1.883 0,1.923 c 0,0 0,0.219 0,0.219 0,0 0.847,0 0.847,0 0,0 0,2.75 0,2.75 0,1.225 0.927,1.344 1.285,1.344 0.707,0 0.987,-0.707 0.987,-1.344 0,0 0,-0.569 0,-0.569 0,0 -0.249,0 -0.249,0 0,0 0,0.549 0,0.549 0,0.737 -0.299,1.115 -0.668,1.115 -0.667,0 -0.667,-0.906 -0.667,-1.076 0,0 0,-2.769 0,-2.769 z"
       id="path26"
       inkscape:connector-curvature="0" />
  </g>
  <g
     transform="translate(121.811,3.802)"
     style="fill:#161413;fill-rule:evenodd;stroke:none"
     id="g28">
    <path
       d="m 0.837,1.952 c 0.06,-1.484 0.897,-1.733 1.236,-1.733 1.025,0 1.125,1.345 1.125,1.733 0,0 -2.361,0 -2.361,0 z M 0.826,2.161 c 0,0 2.781,0 2.781,0 0.218,0 0.249,0 0.249,-0.209 C 3.856,0.966 3.318,0 2.073,0 0.916,0 0,1.025 0,2.272 c 0,1.335 1.046,2.3 2.192,2.3 1.216,0 1.664,-1.105 1.664,-1.295 0,-0.099 -0.08,-0.119 -0.13,-0.119 -0.09,0 -0.109,0.06 -0.13,0.139 C 3.247,4.323 2.351,4.323 2.251,4.323 1.753,4.323 1.355,4.025 1.125,3.656 0.826,3.178 0.826,2.521 0.826,2.161 z"
       id="path30"
       inkscape:connector-curvature="0" />
  </g>
  <g
     transform="translate(126.061,3.862)"
     style="fill:#161413;fill-rule:evenodd;stroke:none"
     id="g32">
    <path
       d="m 1.385,1.095 c 0,0 0,-1.095 0,-1.095 C 1.385,0 0,0.109 0,0.109 c 0,0 0,0.309 0,0.309 0.698,0 0.777,0.07 0.777,0.558 0,0 0,2.67 0,2.67 0,0.448 -0.11,0.448 -0.777,0.448 0,0 0,0.309 0,0.309 0,0 2.401,0 2.401,0 0,0 0,-0.309 0,-0.309 0,0 -0.209,0 -0.209,0 -0.738,0 -0.757,-0.109 -0.757,-0.468 0,0 0,-1.535 0,-1.535 0,-0.986 0.418,-1.873 1.176,-1.873 0.069,0 0.089,0 0.109,0.01 -0.03,0.011 -0.229,0.13 -0.229,0.389 0,0.279 0.209,0.429 0.428,0.429 0.179,0 0.428,-0.12 0.428,-0.439 C 3.347,0.289 3.038,0 2.611,0 1.883,0 1.525,0.667 1.385,1.095 z"
       id="path34"
       inkscape:connector-curvature="0" />
  </g>
  <g
     transform="translate(130.2,3.802)"
     style="fill:#161413;fill-rule:evenodd;stroke:none"
     id="g36">
    <path
       d="m 2.899,3.706 c 0.04,0.399 0.309,0.817 0.778,0.817 0.209,0 0.816,-0.14 0.816,-0.947 0,0 0,-0.557 0,-0.557 0,0 -0.249,0 -0.249,0 0,0 0,0.557 0,0.557 0,0.578 -0.249,0.638 -0.358,0.638 -0.329,0 -0.368,-0.448 -0.368,-0.498 0,0 0,-1.992 0,-1.992 0,-0.419 0,-0.808 -0.36,-1.176 C 2.77,0.159 2.271,0 1.794,0 0.977,0 0.289,0.468 0.289,1.125 c 0,0.299 0.199,0.469 0.459,0.469 0.278,0 0.458,-0.199 0.458,-0.458 0,-0.12 -0.05,-0.448 -0.508,-0.459 0.269,-0.349 0.757,-0.458 1.075,-0.458 0.489,0 1.057,0.389 1.057,1.275 0,0 0,0.368 0,0.368 C 2.321,1.893 1.624,1.923 0.997,2.222 0.25,2.56 0,3.078 0,3.517 0,4.323 0.967,4.572 1.595,4.572 2.252,4.572 2.71,4.174 2.899,3.706 z M 2.83,2.072 c 0,0 0,0.996 0,0.996 0,0.947 -0.718,1.286 -1.166,1.286 -0.488,0 -0.896,-0.349 -0.896,-0.847 0,-0.548 0.418,-1.375 2.062,-1.435 z"
       id="path38"
       inkscape:connector-curvature="0" />
  </g>
  <g
     transform="translate(135.121,3.802)"
     style="fill:#161413;fill-rule:evenodd;stroke:none"
     id="g40">
    <path
       d="m 0.827,2.291 c 0,-1.624 0.816,-2.042 1.345,-2.042 0.09,0 0.717,0.01 1.065,0.368 -0.408,0.031 -0.468,0.329 -0.468,0.458 0,0.26 0.18,0.459 0.458,0.459 0.259,0 0.459,-0.17 0.459,-0.468 C 3.686,0.388 2.929,0 2.162,0 0.916,0 0,1.075 0,2.311 c 0,1.275 0.986,2.261 2.141,2.261 1.335,0 1.655,-1.195 1.655,-1.295 0,-0.099 -0.1,-0.099 -0.13,-0.099 -0.09,0 -0.109,0.04 -0.13,0.099 C 3.248,4.204 2.6,4.323 2.231,4.323 1.703,4.323 0.827,3.896 0.827,2.291 z"
       id="path42"
       inkscape:connector-curvature="0" />
  </g>
  <g
     transform="translate(139.471,2.138)"
     style="fill:#161413;fill-rule:evenodd;stroke:none"
     id="g44">
    <path
       d="m 1.535,2.142 c 0,0 1.424,0 1.424,0 0,0 0,-0.309 0,-0.309 0,0 -1.424,0 -1.424,0 0,0 0,-1.833 0,-1.833 0,0 -0.249,0 -0.249,0 C 1.276,0.816 0.977,1.883 0,1.923 c 0,0 0,0.219 0,0.219 0,0 0.847,0 0.847,0 0,0 0,2.75 0,2.75 0,1.225 0.927,1.344 1.285,1.344 0.707,0 0.987,-0.707 0.987,-1.344 0,0 0,-0.569 0,-0.569 0,0 -0.249,0 -0.249,0 0,0 0,0.549 0,0.549 0,0.737 -0.299,1.115 -0.668,1.115 -0.667,0 -0.667,-0.906 -0.667,-1.076 0,0 0,-2.769 0,-2.769 z"
       id="path46"
       inkscape:connector-curvature="0" />
  </g>
  <g
     transform="translate(143.611,1.6)"
     style="fill:#161413;fill-rule:evenodd;stroke:none"
     id="g48">
    <path
       d="m 1.435,2.262 c 0,0 -1.396,0.109 -1.396,0.109 0,0 0,0.309 0,0.309 0.649,0 0.737,0.06 0.737,0.547 0,0 0,2.681 0,2.681 0,0.448 -0.109,0.448 -0.776,0.448 0,0 0,0.309 0,0.309 0,0 2.132,0 2.132,0 0,0 0,-0.309 0,-0.309 -0.657,0 -0.697,-0.049 -0.697,-0.438 0,0 0,-3.656 0,-3.656 z M 1.475,0.528 C 1.475,0.209 1.225,0 0.946,0 0.638,0 0.418,0.269 0.418,0.528 c 0,0.269 0.22,0.528 0.528,0.528 0.279,0 0.529,-0.209 0.529,-0.528 z"
       id="path50"
       inkscape:connector-curvature="0" />
  </g>
  <g
     transform="translate(146.221,3.971)"
     style="fill:#161413;fill-rule:evenodd;stroke:none"
     id="g52">
    <path
       d="m 3.956,0.977 c 0.089,-0.23 0.258,-0.658 0.916,-0.668 0,0 0,-0.309 0,-0.309 0,0 -1.614,0 -1.614,0 0,0 0,0.309 0,0.309 0.368,0.01 0.478,0.239 0.478,0.428 0,0.09 -0.02,0.13 -0.06,0.24 0,0 -1.015,2.54 -1.015,2.54 0,0 -1.117,-2.78 -1.117,-2.78 C 1.485,0.607 1.485,0.588 1.485,0.568 c 0,-0.259 0.388,-0.259 0.567,-0.259 0,0 0,-0.309 0,-0.309 C 2.052,0 0,0 0,0 c 0,0 0,0.309 0,0.309 0.628,0 0.667,0.06 0.797,0.369 0,0 1.435,3.536 1.435,3.536 0.059,0.14 0.08,0.189 0.209,0.189 0.13,0 0.17,-0.089 0.209,-0.189 0,0 1.306,-3.237 1.306,-3.237 z"
       id="path54"
       inkscape:connector-curvature="0" />
  </g>
  <g
     transform="translate(151.311,3.802)"
     style="fill:#161413;fill-rule:evenodd;stroke:none"
     id="g56">
    <path
       d="m 0.837,1.952 c 0.06,-1.484 0.897,-1.733 1.236,-1.733 1.025,0 1.125,1.345 1.125,1.733 0,0 -2.361,0 -2.361,0 z M 0.826,2.161 c 0,0 2.781,0 2.781,0 0.218,0 0.249,0 0.249,-0.209 C 3.856,0.966 3.318,0 2.073,0 0.916,0 0,1.025 0,2.272 c 0,1.335 1.046,2.3 2.192,2.3 1.216,0 1.664,-1.105 1.664,-1.295 0,-0.099 -0.08,-0.119 -0.13,-0.119 -0.09,0 -0.109,0.06 -0.13,0.139 C 3.247,4.323 2.351,4.323 2.251,4.323 1.753,4.323 1.355,4.025 1.125,3.656 0.826,3.178 0.826,2.521 0.826,2.161 z"
       id="path58"
       inkscape:connector-curvature="0" />
  </g>
  <g
     transform="translate(167.611,1.6)"
     style="fill:#161413;fill-rule:evenodd;stroke:none"
     id="g60">
    <path
       d="m 1.435,2.262 c 0,0 -1.396,0.109 -1.396,0.109 0,0 0,0.309 0,0.309 0.649,0 0.737,0.06 0.737,0.547 0,0 0,2.681 0,2.681 0,0.448 -0.109,0.448 -0.776,0.448 0,0 0,0.309 0,0.309 0,0 2.132,0 2.132,0 0,0 0,-0.309 0,-0.309 -0.657,0 -0.697,-0.049 -0.697,-0.438 0,0 0,-3.656 0,-3.656 z M 1.475,0.528 C 1.475,0.209 1.225,0 0.946,0 0.638,0 0.418,0.269 0.418,0.528 c 0,0.269 0.22,0.528 0.528,0.528 0.279,0 0.529,-0.209 0.529,-0.528 z"
       id="path62"
       inkscape:connector-curvature="0" />
  </g>
  <g
     transform="translate(170.35,3.862)"
     style="fill:#161413;fill-rule:evenodd;stroke:none"
     id="g64">
    <path
       d="m 0.778,0.976 c 0,0 0,2.67 0,2.67 0,0.448 -0.11,0.448 -0.778,0.448 0,0 0,0.309 0,0.309 0,0 2.243,0 2.243,0 0,0 0,-0.309 0,-0.309 -0.668,0 -0.778,0 -0.778,-0.448 0,0 0,-1.833 0,-1.833 0,-1.036 0.707,-1.595 1.345,-1.595 0.628,0 0.737,0.539 0.737,1.107 0,0 0,2.321 0,2.321 0,0.448 -0.109,0.448 -0.776,0.448 0,0 0,0.309 0,0.309 0,0 2.241,0 2.241,0 0,0 0,-0.309 0,-0.309 -0.518,0 -0.768,0 -0.777,-0.298 0,0 0,-1.904 0,-1.904 0,-0.856 0,-1.165 -0.309,-1.524 C 3.786,0.199 3.457,0 2.88,0 2.153,0 1.685,0.428 1.406,1.046 c 0,0 0,-1.046 0,-1.046 C 1.406,0 0,0.109 0,0.109 c 0,0 0,0.309 0,0.309 0.699,0 0.778,0.07 0.778,0.558 z"
       id="path66"
       inkscape:connector-curvature="0" />
  </g>
  <g
     transform="translate(175.471,2.138)"
     style="fill:#161413;fill-rule:evenodd;stroke:none"
     id="g68">
    <path
       d="m 1.535,2.142 c 0,0 1.424,0 1.424,0 0,0 0,-0.309 0,-0.309 0,0 -1.424,0 -1.424,0 0,0 0,-1.833 0,-1.833 0,0 -0.249,0 -0.249,0 C 1.276,0.816 0.977,1.883 0,1.923 c 0,0 0,0.219 0,0.219 0,0 0.847,0 0.847,0 0,0 0,2.75 0,2.75 0,1.225 0.927,1.344 1.285,1.344 0.707,0 0.987,-0.707 0.987,-1.344 0,0 0,-0.569 0,-0.569 0,0 -0.249,0 -0.249,0 0,0 0,0.549 0,0.549 0,0.737 -0.299,1.115 -0.668,1.115 -0.667,0 -0.667,-0.906 -0.667,-1.076 0,0 0,-2.769 0,-2.769 z"
       id="path70"
       inkscape:connector-curvature="0" />
  </g>
  <g
     transform="translate(179.561,3.802)"
     style="fill:#161413;fill-rule:evenodd;stroke:none"
     id="g72">
    <path
       d="m 0.837,1.952 c 0.06,-1.484 0.897,-1.733 1.236,-1.733 1.025,0 1.125,1.345 1.125,1.733 0,0 -2.361,0 -2.361,0 z M 0.826,2.161 c 0,0 2.781,0 2.781,0 0.218,0 0.249,0 0.249,-0.209 C 3.856,0.966 3.318,0 2.073,0 0.916,0 0,1.025 0,2.272 c 0,1.335 1.046,2.3 2.192,2.3 1.216,0 1.664,-1.105 1.664,-1.295 0,-0.099 -0.08,-0.119 -0.13,-0.119 -0.09,0 -0.109,0.06 -0.13,0.139 C 3.247,4.323 2.351,4.323 2.251,4.323 1.753,4.323 1.355,4.025 1.125,3.656 0.826,3.178 0.826,2.521 0.826,2.161 z"
       id="path74"
       inkscape:connector-curvature="0" />
  </g>
  <g
     transform="translate(183.811,3.862)"
     style="fill:#161413;fill-rule:evenodd;stroke:none"
     id="g76">
    <path
       d="m 1.385,1.095 c 0,0 0,-1.095 0,-1.095 C 1.385,0 0,0.109 0,0.109 c 0,0 0,0.309 0,0.309 0.698,0 0.777,0.07 0.777,0.558 0,0 0,2.67 0,2.67 0,0.448 -0.11,0.448 -0.777,0.448 0,0 0,0.309 0,0.309 0,0 2.401,0 2.401,0 0,0 0,-0.309 0,-0.309 0,0 -0.209,0 -0.209,0 -0.738,0 -0.757,-0.109 -0.757,-0.468 0,0 0,-1.535 0,-1.535 0,-0.986 0.418,-1.873 1.176,-1.873 0.069,0 0.089,0 0.109,0.01 -0.03,0.011 -0.229,0.13 -0.229,0.389 0,0.279 0.209,0.429 0.428,0.429 0.179,0 0.428,-0.12 0.428,-0.439 C 3.347,0.289 3.038,0 2.611,0 1.883,0 1.525,0.667 1.385,1.095 z"
       id="path78"
       inkscape:connector-curvature="0" />
  </g>
  <g
     transform="translate(187.95,3.802)"
     style="fill:#161413;fill-rule:evenodd;stroke:none"
     id="g80">
    <path
       d="m 2.899,3.706 c 0.04,0.399 0.309,0.817 0.778,0.817 0.209,0 0.816,-0.14 0.816,-0.947 0,0 0,-0.557 0,-0.557 0,0 -0.249,0 -0.249,0 0,0 0,0.557 0,0.557 0,0.578 -0.249,0.638 -0.358,0.638 -0.329,0 -0.368,-0.448 -0.368,-0.498 0,0 0,-1.992 0,-1.992 0,-0.419 0,-0.808 -0.36,-1.176 C 2.77,0.159 2.271,0 1.794,0 0.977,0 0.289,0.468 0.289,1.125 c 0,0.299 0.199,0.469 0.459,0.469 0.278,0 0.458,-0.199 0.458,-0.458 0,-0.12 -0.05,-0.448 -0.508,-0.459 0.269,-0.349 0.757,-0.458 1.075,-0.458 0.489,0 1.057,0.389 1.057,1.275 0,0 0,0.368 0,0.368 C 2.321,1.893 1.624,1.923 0.997,2.222 0.25,2.56 0,3.078 0,3.517 0,4.323 0.967,4.572 1.595,4.572 2.252,4.572 2.71,4.174 2.899,3.706 z M 2.83,2.072 c 0,0 0,0.996 0,0.996 0,0.947 -0.718,1.286 -1.166,1.286 -0.488,0 -0.896,-0.349 -0.896,-0.847 0,-0.548 0.418,-1.375 2.062,-1.435 z"
       id="path82"
       inkscape:connector-curvature="0" />
  </g>
  <g
     transform="translate(192.871,3.802)"
     style="fill:#161413;fill-rule:evenodd;stroke:none"
     id="g84">
    <path
       d="m 0.827,2.291 c 0,-1.624 0.816,-2.042 1.345,-2.042 0.09,0 0.717,0.01 1.065,0.368 -0.408,0.031 -0.468,0.329 -0.468,0.458 0,0.26 0.18,0.459 0.458,0.459 0.259,0 0.459,-0.17 0.459,-0.468 C 3.686,0.388 2.929,0 2.162,0 0.916,0 0,1.075 0,2.311 c 0,1.275 0.986,2.261 2.141,2.261 1.335,0 1.655,-1.195 1.655,-1.295 0,-0.099 -0.1,-0.099 -0.13,-0.099 -0.09,0 -0.109,0.04 -0.13,0.099 C 3.248,4.204 2.6,4.323 2.231,4.323 1.703,4.323 0.827,3.896 0.827,2.291 z"
       id="path86"
       inkscape:connector-curvature="0" />
  </g>
  <g
     transform="translate(197.221,2.138)"
     style="fill:#161413;fill-rule:evenodd;stroke:none"
     id="g88">
    <path
       d="m 1.535,2.142 c 0,0 1.424,0 1.424,0 0,0 0,-0.309 0,-0.309 0,0 -1.424,0 -1.424,0 0,0 0,-1.833 0,-1.833 0,0 -0.249,0 -0.249,0 C 1.276,0.816 0.977,1.883 0,1.923 c 0,0 0,0.219 0,0.219 0,0 0.847,0 0.847,0 0,0 0,2.75 0,2.75 0,1.225 0.927,1.344 1.285,1.344 0.707,0 0.987,-0.707 0.987,-1.344 0,0 0,-0.569 0,-0.569 0,0 -0.249,0 -0.249,0 0,0 0,0.549 0,0.549 0,0.737 -0.299,1.115 -0.668,1.115 -0.667,0 -0.667,-0.906 -0.667,-1.076 0,0 0,-2.769 0,-2.769 z"
       id="path90"
       inkscape:connector-curvature="0" />
  </g>
  <g
     transform="translate(201.111,1.6)"
     style="fill:#161413;fill-rule:evenodd;stroke:none"
     id="g92">
    <path
       d="m 1.435,2.262 c 0,0 -1.396,0.109 -1.396,0.109 0,0 0,0.309 0,0.309 0.649,0 0.737,0.06 0.737,0.547 0,0 0,2.681 0,2.681 0,0.448 -0.109,0.448 -0.776,0.448 0,0 0,0.309 0,0.309 0,0 2.132,0 2.132,0 0,0 0,-0.309 0,-0.309 -0.657,0 -0.697,-0.049 -0.697,-0.438 0,0 0,-3.656 0,-3.656 z M 1.475,0.528 C 1.475,0.209 1.225,0 0.946,0 0.638,0 0.418,0.269 0.418,0.528 c 0,0.269 0.22,0.528 0.528,0.528 0.279,0 0.529,-0.209 0.529,-0.528 z"
       id="path94"
       inkscape:connector-curvature="0" />
  </g>
  <g
     transform="translate(203.721,3.971)"
     style="fill:#161413;fill-rule:evenodd;stroke:none"
     id="g96">
    <path
       d="m 3.956,0.977 c 0.089,-0.23 0.258,-0.658 0.916,-0.668 0,0 0,-0.309 0,-0.309 0,0 -1.614,0 -1.614,0 0,0 0,0.309 0,0.309 0.368,0.01 0.478,0.239 0.478,0.428 0,0.09 -0.02,0.13 -0.06,0.24 0,0 -1.015,2.54 -1.015,2.54 0,0 -1.117,-2.78 -1.117,-2.78 C 1.485,0.607 1.485,0.588 1.485,0.568 c 0,-0.259 0.388,-0.259 0.567,-0.259 0,0 0,-0.309 0,-0.309 C 2.052,0 0,0 0,0 c 0,0 0,0.309 0,0.309 0.628,0 0.667,0.06 0.797,0.369 0,0 1.435,3.536 1.435,3.536 0.059,0.14 0.08,0.189 0.209,0.189 0.13,0 0.17,-0.089 0.209,-0.189 0,0 1.306,-3.237 1.306,-3.237 z"
       id="path98"
       inkscape:connector-curvature="0" />
  </g>
  <g
     transform="translate(209.061,3.802)"
     style="fill:#161413;fill-rule:evenodd;stroke:none"
     id="g100">
    <path
       d="m 0.837,1.952 c 0.06,-1.484 0.897,-1.733 1.236,-1.733 1.025,0 1.125,1.345 1.125,1.733 0,0 -2.361,0 -2.361,0 z M 0.826,2.161 c 0,0 2.781,0 2.781,0 0.218,0 0.249,0 0.249,-0.209 C 3.856,0.966 3.318,0 2.073,0 0.916,0 0,1.025 0,2.272 c 0,1.335 1.046,2.3 2.192,2.3 1.216,0 1.664,-1.105 1.664,-1.295 0,-0.099 -0.08,-0.119 -0.13,-0.119 -0.09,0 -0.109,0.06 -0.13,0.139 C 3.247,4.323 2.351,4.323 2.251,4.323 1.753,4.323 1.355,4.025 1.125,3.656 0.826,3.178 0.826,2.521 0.826,2.161 z"
       id="path102"
       inkscape:connector-curvature="0" />
  </g>
  <g
     transform="translate(87.532,11.785)"
     style="fill:#161413;fill-rule:nonzero;stroke:none"
     id="g104">
    <path
       d="m 0,0.48 c 0,0 131.4,0 131.4,0 0,0 0,-0.48 0,-0.48 C 131.4,0 0,0 0,0"
       id="path106"
       inkscape:connector-curvature="0" />
  </g>
  <g
     transform="translate(1.6,15.612)"
     style="fill:#161413;fill-rule:evenodd;stroke:none"
     id="g108">
    <path
       d="m 0.778,0.976 c 0,0 0,2.67 0,2.67 0,0.448 -0.11,0.448 -0.778,0.448 0,0 0,0.309 0,0.309 0,0 2.243,0 2.243,0 0,0 0,-0.309 0,-0.309 -0.668,0 -0.778,0 -0.778,-0.448 0,0 0,-1.833 0,-1.833 0,-1.036 0.707,-1.595 1.345,-1.595 0.628,0 0.737,0.539 0.737,1.107 0,0 0,2.321 0,2.321 0,0.448 -0.109,0.448 -0.776,0.448 0,0 0,0.309 0,0.309 0,0 2.241,0 2.241,0 0,0 0,-0.309 0,-0.309 -0.668,0 -0.777,0 -0.777,-0.448 0,0 0,-1.833 0,-1.833 0,-1.036 0.708,-1.595 1.344,-1.595 0.628,0 0.738,0.539 0.738,1.107 0,0 0,2.321 0,2.321 0,0.448 -0.11,0.448 -0.777,0.448 0,0 0,0.309 0,0.309 0,0 2.242,0 2.242,0 0,0 0,-0.309 0,-0.309 -0.518,0 -0.768,0 -0.778,-0.298 0,0 0,-1.904 0,-1.904 0,-0.856 0,-1.165 -0.308,-1.524 C 6.556,0.199 6.228,0 5.65,0 4.813,0 4.374,0.597 4.205,0.976 4.066,0.109 3.328,0 2.88,0 2.153,0 1.685,0.428 1.406,1.046 c 0,0 0,-1.046 0,-1.046 C 1.406,0 0,0.109 0,0.109 c 0,0 0,0.309 0,0.309 0.699,0 0.778,0.07 0.778,0.558 z"
       id="path110"
       inkscape:connector-curvature="0" />
  </g>
  <g
     transform="translate(9.95,15.552)"
     style="fill:#161413;fill-rule:evenodd;stroke:none"
     id="g112">
    <path
       d="m 2.899,3.706 c 0.04,0.399 0.309,0.817 0.778,0.817 0.209,0 0.816,-0.14 0.816,-0.947 0,0 0,-0.557 0,-0.557 0,0 -0.249,0 -0.249,0 0,0 0,0.557 0,0.557 0,0.578 -0.249,0.638 -0.358,0.638 -0.329,0 -0.368,-0.448 -0.368,-0.498 0,0 0,-1.992 0,-1.992 0,-0.419 0,-0.808 -0.36,-1.176 C 2.77,0.159 2.271,0 1.794,0 0.977,0 0.289,0.468 0.289,1.125 c 0,0.299 0.199,0.469 0.459,0.469 0.278,0 0.458,-0.199 0.458,-0.458 0,-0.12 -0.05,-0.448 -0.508,-0.459 0.269,-0.349 0.757,-0.458 1.075,-0.458 0.489,0 1.057,0.389 1.057,1.275 0,0 0,0.368 0,0.368 C 2.321,1.893 1.624,1.923 0.997,2.222 0.25,2.56 0,3.078 0,3.517 0,4.323 0.967,4.572 1.595,4.572 2.252,4.572 2.71,4.174 2.899,3.706 z M 2.83,2.072 c 0,0 0,0.996 0,0.996 0,0.947 -0.718,1.286 -1.166,1.286 -0.488,0 -0.896,-0.349 -0.896,-0.847 0,-0.548 0.418,-1.375 2.062,-1.435 z"
       id="path114"
       inkscape:connector-curvature="0" />
  </g>
  <g
     transform="translate(14.861,15.552)"
     style="fill:#161413;fill-rule:evenodd;stroke:none"
     id="g116">
    <path
       d="m 1.743,2.53 c 0.219,0.04 1.036,0.2 1.036,0.916 0,0.509 -0.348,0.908 -1.126,0.908 C 0.817,4.354 0.458,3.785 0.269,2.939 0.239,2.81 0.229,2.77 0.129,2.77 0,2.77 0,2.839 0,3.019 c 0,0 0,1.314 0,1.314 0,0.17 0,0.239 0.109,0.239 0.05,0 0.06,-0.009 0.25,-0.199 C 0.378,4.354 0.378,4.333 0.558,4.145 0.996,4.563 1.444,4.572 1.653,4.572 2.799,4.572 3.258,3.905 3.258,3.188 3.258,2.659 2.959,2.36 2.839,2.241 2.51,1.923 2.122,1.843 1.703,1.763 1.146,1.653 0.478,1.524 0.478,0.946 c 0,-0.348 0.259,-0.757 1.116,-0.757 1.096,0 1.145,0.897 1.166,1.206 0.01,0.089 0.099,0.089 0.119,0.089 0.13,0 0.13,-0.049 0.13,-0.239 0,0 0,-1.007 0,-1.007 C 3.009,0.069 3.009,0 2.899,0 2.849,0 2.829,0 2.699,0.119 2.67,0.159 2.57,0.249 2.53,0.278 2.151,0 1.743,0 1.594,0 0.378,0 0,0.667 0,1.225 0,1.574 0.159,1.853 0.428,2.072 0.747,2.331 1.025,2.391 1.743,2.53 z"
       id="path118"
       inkscape:connector-curvature="0" />
  </g>
  <g
     transform="translate(18.861,15.552)"
     style="fill:#161413;fill-rule:evenodd;stroke:none"
     id="g120">
    <path
       d="m 1.743,2.53 c 0.219,0.04 1.036,0.2 1.036,0.916 0,0.509 -0.348,0.908 -1.126,0.908 C 0.817,4.354 0.458,3.785 0.269,2.939 0.239,2.81 0.229,2.77 0.129,2.77 0,2.77 0,2.839 0,3.019 c 0,0 0,1.314 0,1.314 0,0.17 0,0.239 0.109,0.239 0.05,0 0.06,-0.009 0.25,-0.199 C 0.378,4.354 0.378,4.333 0.558,4.145 0.996,4.563 1.444,4.572 1.653,4.572 2.799,4.572 3.258,3.905 3.258,3.188 3.258,2.659 2.959,2.36 2.839,2.241 2.51,1.923 2.122,1.843 1.703,1.763 1.146,1.653 0.478,1.524 0.478,0.946 c 0,-0.348 0.259,-0.757 1.116,-0.757 1.096,0 1.145,0.897 1.166,1.206 0.01,0.089 0.099,0.089 0.119,0.089 0.13,0 0.13,-0.049 0.13,-0.239 0,0 0,-1.007 0,-1.007 C 3.009,0.069 3.009,0 2.899,0 2.849,0 2.829,0 2.699,0.119 2.67,0.159 2.57,0.249 2.53,0.278 2.151,0 1.743,0 1.594,0 0.378,0 0,0.667 0,1.225 0,1.574 0.159,1.853 0.428,2.072 0.747,2.331 1.025,2.391 1.743,2.53 z"
       id="path122"
       inkscape:connector-curvature="0" />
  </g>
  <g
     transform="translate(22.861,13.35)"
     style="fill:#161413;fill-rule:evenodd;stroke:none"
     id="g124">
    <path
       d="m 1.435,2.262 c 0,0 -1.396,0.109 -1.396,0.109 0,0 0,0.309 0,0.309 0.649,0 0.737,0.06 0.737,0.547 0,0 0,2.681 0,2.681 0,0.448 -0.109,0.448 -0.776,0.448 0,0 0,0.309 0,0.309 0,0 2.132,0 2.132,0 0,0 0,-0.309 0,-0.309 -0.657,0 -0.697,-0.049 -0.697,-0.438 0,0 0,-3.656 0,-3.656 z M 1.475,0.528 C 1.475,0.209 1.225,0 0.946,0 0.638,0 0.418,0.269 0.418,0.528 c 0,0.269 0.22,0.528 0.528,0.528 0.279,0 0.529,-0.209 0.529,-0.528 z"
       id="path126"
       inkscape:connector-curvature="0" />
  </g>
  <g
     transform="translate(25.471,15.721)"
     style="fill:#161413;fill-rule:evenodd;stroke:none"
     id="g128">
    <path
       d="m 3.956,0.977 c 0.089,-0.23 0.258,-0.658 0.916,-0.668 0,0 0,-0.309 0,-0.309 0,0 -1.614,0 -1.614,0 0,0 0,0.309 0,0.309 0.368,0.01 0.478,0.239 0.478,0.428 0,0.09 -0.02,0.13 -0.06,0.24 0,0 -1.015,2.54 -1.015,2.54 0,0 -1.117,-2.78 -1.117,-2.78 C 1.485,0.607 1.485,0.588 1.485,0.568 c 0,-0.259 0.388,-0.259 0.567,-0.259 0,0 0,-0.309 0,-0.309 C 2.052,0 0,0 0,0 c 0,0 0,0.309 0,0.309 0.628,0 0.667,0.06 0.797,0.369 0,0 1.435,3.536 1.435,3.536 0.059,0.14 0.08,0.189 0.209,0.189 0.13,0 0.17,-0.089 0.209,-0.189 0,0 1.306,-3.237 1.306,-3.237 z"
       id="path130"
       inkscape:connector-curvature="0" />
  </g>
  <g
     transform="translate(30.561,15.552)"
     style="fill:#161413;fill-rule:evenodd;stroke:none"
     id="g132">
    <path
       d="m 0.837,1.952 c 0.06,-1.484 0.897,-1.733 1.236,-1.733 1.025,0 1.125,1.345 1.125,1.733 0,0 -2.361,0 -2.361,0 z M 0.826,2.161 c 0,0 2.781,0 2.781,0 0.218,0 0.249,0 0.249,-0.209 C 3.856,0.966 3.318,0 2.073,0 0.916,0 0,1.025 0,2.272 c 0,1.335 1.046,2.3 2.192,2.3 1.216,0 1.664,-1.105 1.664,-1.295 0,-0.099 -0.08,-0.119 -0.13,-0.119 -0.09,0 -0.109,0.06 -0.13,0.139 C 3.247,4.323 2.351,4.323 2.251,4.323 1.753,4.323 1.355,4.025 1.125,3.656 0.826,3.178 0.826,2.521 0.826,2.161 z"
       id="path134"
       inkscape:connector-curvature="0" />
  </g>
  <g
     transform="translate(35.111,13.101)"
     style="fill:#161413;fill-rule:evenodd;stroke:none"
     id="g136">
    <path
       d="M 1.435,0 C 1.435,0 0,0.109 0,0.109 c 0,0 0,0.309 0,0.309 0.697,0 0.776,0.07 0.776,0.558 0,0 0,5.181 0,5.181 0,0.448 -0.109,0.448 -0.776,0.448 0,0 0,0.309 0,0.309 0,0 2.211,0 2.211,0 0,0 0,-0.309 0,-0.309 -0.667,0 -0.776,0 -0.776,-0.448 0,0 0,-6.157 0,-6.157 z"
       id="path138"
       inkscape:connector-curvature="0" />
  </g>
  <g
     transform="translate(37.721,15.721)"
     style="fill:#161413;fill-rule:evenodd;stroke:none"
     id="g140">
    <path
       d="M 3.946,0.946 C 4.205,0.319 4.712,0.309 4.872,0.309 c 0,0 0,-0.309 0,-0.309 0,0 -1.614,0 -1.614,0 0,0 0,0.309 0,0.309 0.309,0.01 0.468,0.179 0.468,0.428 0,0.1 -0.01,0.119 -0.06,0.24 0,0 -1.005,2.45 -1.005,2.45 0,0 -1.107,-2.68 -1.107,-2.68 -0.04,-0.099 -0.059,-0.14 -0.059,-0.179 0,-0.259 0.369,-0.259 0.557,-0.259 0,0 0,-0.309 0,-0.309 C 2.052,0 0,0 0,0 c 0,0 0,0.309 0,0.309 0.479,0 0.667,0 0.807,0.348 0,0 1.494,3.637 1.494,3.637 C 2.251,4.424 2.113,4.752 2.052,4.882 1.833,5.43 1.554,6.117 0.916,6.117 0.867,6.117 0.638,6.117 0.449,5.938 0.757,5.898 0.837,5.679 0.837,5.52 0.837,5.261 0.648,5.101 0.418,5.101 0.219,5.101 0,5.231 0,5.529 c 0,0.449 0.418,0.807 0.916,0.807 0.628,0 1.037,-0.567 1.276,-1.136 0,0 1.754,-4.254 1.754,-4.254 z"
       id="path142"
       inkscape:connector-curvature="0" />
  </g>
  <g
     transform="translate(46.1,15.612)"
     style="fill:#161413;fill-rule:evenodd;stroke:none"
     id="g144">
    <path
       d="m 0.778,0.976 c 0,0 0,2.67 0,2.67 0,0.448 -0.11,0.448 -0.778,0.448 0,0 0,0.309 0,0.309 0,0 2.243,0 2.243,0 0,0 0,-0.309 0,-0.309 -0.668,0 -0.778,0 -0.778,-0.448 0,0 0,-1.833 0,-1.833 0,-1.036 0.707,-1.595 1.345,-1.595 0.628,0 0.737,0.539 0.737,1.107 0,0 0,2.321 0,2.321 0,0.448 -0.109,0.448 -0.776,0.448 0,0 0,0.309 0,0.309 0,0 2.241,0 2.241,0 0,0 0,-0.309 0,-0.309 -0.668,0 -0.777,0 -0.777,-0.448 0,0 0,-1.833 0,-1.833 0,-1.036 0.708,-1.595 1.344,-1.595 0.628,0 0.738,0.539 0.738,1.107 0,0 0,2.321 0,2.321 0,0.448 -0.11,0.448 -0.777,0.448 0,0 0,0.309 0,0.309 0,0 2.242,0 2.242,0 0,0 0,-0.309 0,-0.309 -0.518,0 -0.768,0 -0.778,-0.298 0,0 0,-1.904 0,-1.904 0,-0.856 0,-1.165 -0.308,-1.524 C 6.556,0.199 6.228,0 5.65,0 4.813,0 4.374,0.597 4.205,0.976 4.066,0.109 3.328,0 2.88,0 2.153,0 1.685,0.428 1.406,1.046 c 0,0 0,-1.046 0,-1.046 C 1.406,0 0,0.109 0,0.109 c 0,0 0,0.309 0,0.309 0.699,0 0.778,0.07 0.778,0.558 z"
       id="path146"
       inkscape:connector-curvature="0" />
  </g>
  <g
     transform="translate(54.1,15.612)"
     style="fill:#161413;fill-rule:evenodd;stroke:none"
     id="g148">
    <path
       d="m 3.578,3.616 c 0,0 0,0.896 0,0.896 0,0 1.434,-0.109 1.434,-0.109 0,0 0,-0.309 0,-0.309 -0.697,0 -0.777,-0.07 -0.777,-0.558 0,0 0,-3.536 0,-3.536 0,0 -1.464,0.109 -1.464,0.109 0,0 0,0.309 0,0.309 0.697,0 0.776,0.07 0.776,0.558 0,0 0,1.774 0,1.774 0,0.866 -0.477,1.544 -1.205,1.544 -0.837,0 -0.877,-0.469 -0.877,-0.987 0,0 0,-3.307 0,-3.307 C 1.465,0 0,0.109 0,0.109 c 0,0 0,0.309 0,0.309 0.778,0 0.778,0.03 0.778,0.917 0,0 0,1.494 0,1.494 0,0.777 0,1.683 1.514,1.683 0.558,0 0.996,-0.278 1.286,-0.896 z"
       id="path150"
       inkscape:connector-curvature="0" />
  </g>
  <g
     transform="translate(59.861,13.101)"
     style="fill:#161413;fill-rule:evenodd;stroke:none"
     id="g152">
    <path
       d="M 1.435,0 C 1.435,0 0,0.109 0,0.109 c 0,0 0,0.309 0,0.309 0.697,0 0.776,0.07 0.776,0.558 0,0 0,5.181 0,5.181 0,0.448 -0.109,0.448 -0.776,0.448 0,0 0,0.309 0,0.309 0,0 2.211,0 2.211,0 0,0 0,-0.309 0,-0.309 -0.667,0 -0.776,0 -0.776,-0.448 0,0 0,-6.157 0,-6.157 z"
       id="path154"
       inkscape:connector-curvature="0" />
  </g>
  <g
     transform="translate(62.471,13.888)"
     style="fill:#161413;fill-rule:evenodd;stroke:none"
     id="g156">
    <path
       d="m 1.535,2.142 c 0,0 1.424,0 1.424,0 0,0 0,-0.309 0,-0.309 0,0 -1.424,0 -1.424,0 0,0 0,-1.833 0,-1.833 0,0 -0.249,0 -0.249,0 C 1.276,0.816 0.977,1.883 0,1.923 c 0,0 0,0.219 0,0.219 0,0 0.847,0 0.847,0 0,0 0,2.75 0,2.75 0,1.225 0.927,1.344 1.285,1.344 0.707,0 0.987,-0.707 0.987,-1.344 0,0 0,-0.569 0,-0.569 0,0 -0.249,0 -0.249,0 0,0 0,0.549 0,0.549 0,0.737 -0.299,1.115 -0.668,1.115 -0.667,0 -0.667,-0.906 -0.667,-1.076 0,0 0,-2.769 0,-2.769 z"
       id="path158"
       inkscape:connector-curvature="0" />
  </g>
  <g
     transform="translate(66.361,13.35)"
     style="fill:#161413;fill-rule:evenodd;stroke:none"
     id="g160">
    <path
       d="m 1.435,2.262 c 0,0 -1.396,0.109 -1.396,0.109 0,0 0,0.309 0,0.309 0.649,0 0.737,0.06 0.737,0.547 0,0 0,2.681 0,2.681 0,0.448 -0.109,0.448 -0.776,0.448 0,0 0,0.309 0,0.309 0,0 2.132,0 2.132,0 0,0 0,-0.309 0,-0.309 -0.657,0 -0.697,-0.049 -0.697,-0.438 0,0 0,-3.656 0,-3.656 z M 1.475,0.528 C 1.475,0.209 1.225,0 0.946,0 0.638,0 0.418,0.269 0.418,0.528 c 0,0.269 0.22,0.528 0.528,0.528 0.279,0 0.529,-0.209 0.529,-0.528 z"
       id="path162"
       inkscape:connector-curvature="0" />
  </g>
  <g
     transform="translate(69.061,15.612)"
     style="fill:#161413;fill-rule:evenodd;stroke:none"
     id="g164">
    <path
       d="m 1.435,0.657 c 0,0 0,-0.657 0,-0.657 C 1.435,0 0,0.109 0,0.109 c 0,0 0,0.309 0,0.309 0.707,0 0.777,0.06 0.777,0.498 0,0 0,4.663 0,4.663 0,0.448 -0.11,0.448 -0.777,0.448 0,0 0,0.309 0,0.309 0,0 2.242,0 2.242,0 0,0 0,-0.309 0,-0.309 -0.667,0 -0.778,0 -0.778,-0.448 0,0 0,-1.674 0,-1.674 0,0 0,-0.09 0,-0.09 0.05,0.159 0.469,0.697 1.226,0.697 1.185,0 2.221,-0.976 2.221,-2.261 C 4.911,0.986 3.946,0 2.829,0 2.052,0 1.634,0.438 1.435,0.657 z m 0.029,2.61 c 0,0 0,-2.221 0,-2.221 0.289,-0.508 0.778,-0.797 1.285,-0.797 0.728,0 1.335,0.877 1.335,2.002 0,1.206 -0.697,2.043 -1.434,2.043 -0.399,0 -0.777,-0.2 -1.046,-0.609 C 1.464,3.476 1.464,3.466 1.464,3.267 z"
       id="path166"
       inkscape:connector-curvature="0" />
  </g>
  <g
     transform="translate(74.611,13.101)"
     style="fill:#161413;fill-rule:evenodd;stroke:none"
     id="g168">
    <path
       d="M 1.435,0 C 1.435,0 0,0.109 0,0.109 c 0,0 0,0.309 0,0.309 0.697,0 0.776,0.07 0.776,0.558 0,0 0,5.181 0,5.181 0,0.448 -0.109,0.448 -0.776,0.448 0,0 0,0.309 0,0.309 0,0 2.211,0 2.211,0 0,0 0,-0.309 0,-0.309 -0.667,0 -0.776,0 -0.776,-0.448 0,0 0,-6.157 0,-6.157 z"
       id="path170"
       inkscape:connector-curvature="0" />
  </g>
  <g
     transform="translate(77.311,15.552)"
     style="fill:#161413;fill-rule:evenodd;stroke:none"
     id="g172">
    <path
       d="m 0.837,1.952 c 0.06,-1.484 0.897,-1.733 1.236,-1.733 1.025,0 1.125,1.345 1.125,1.733 0,0 -2.361,0 -2.361,0 z M 0.826,2.161 c 0,0 2.781,0 2.781,0 0.218,0 0.249,0 0.249,-0.209 C 3.856,0.966 3.318,0 2.073,0 0.916,0 0,1.025 0,2.272 c 0,1.335 1.046,2.3 2.192,2.3 1.216,0 1.664,-1.105 1.664,-1.295 0,-0.099 -0.08,-0.119 -0.13,-0.119 -0.09,0 -0.109,0.06 -0.13,0.139 C 3.247,4.323 2.351,4.323 2.251,4.323 1.753,4.323 1.355,4.025 1.125,3.656 0.826,3.178 0.826,2.521 0.826,2.161 z"
       id="path174"
       inkscape:connector-curvature="0" />
  </g>
  <g
     transform="translate(87.282,11.765)"
     style="fill:#161413;fill-rule:nonzero;stroke:none"
     id="g176">
    <path
       d="m 0,12 c 0,0 0.48,0 0.48,0 0,0 0,-12 0,-12 C 0.48,0 0,0 0,0"
       id="path178"
       inkscape:connector-curvature="0" />
  </g>
  <g
     transform="translate(108.361,13.21)"
     style="fill:#161413;fill-rule:evenodd;stroke:none"
     id="g180">
    <path
       d="m 5.469,4.235 c 0,0 -0.249,0 -0.249,0 -0.11,1.016 -0.249,2.261 -2.002,2.261 0,0 -0.818,0 -0.818,0 -0.467,0 -0.488,-0.07 -0.488,-0.398 0,0 0,-5.311 0,-5.311 0,-0.338 0,-0.478 0.947,-0.478 0,0 0.329,0 0.329,0 0,0 0,-0.309 0,-0.309 C 3.188,0 0,0 0,0 c 0,0 0,0.309 0,0.309 0,0 0.239,0 0.239,0 0.767,0 0.786,0.11 0.786,0.469 0,0 0,5.25 0,5.25 0,0.359 -0.019,0.468 -0.786,0.468 0,0 -0.239,0 -0.239,0 0,0 0,0.309 0,0.309 0,0 5.191,0 5.191,0 0,0 0.278,-2.57 0.278,-2.57 z"
       id="path182"
       inkscape:connector-curvature="0" />
  </g>
  <g
     transform="translate(114.611,13.35)"
     style="fill:#161413;fill-rule:evenodd;stroke:none"
     id="g184">
    <path
       d="m 1.435,2.262 c 0,0 -1.396,0.109 -1.396,0.109 0,0 0,0.309 0,0.309 0.649,0 0.737,0.06 0.737,0.547 0,0 0,2.681 0,2.681 0,0.448 -0.109,0.448 -0.776,0.448 0,0 0,0.309 0,0.309 0,0 2.132,0 2.132,0 0,0 0,-0.309 0,-0.309 -0.657,0 -0.697,-0.049 -0.697,-0.438 0,0 0,-3.656 0,-3.656 z M 1.475,0.528 C 1.475,0.209 1.225,0 0.946,0 0.638,0 0.418,0.269 0.418,0.528 c 0,0.269 0.22,0.528 0.528,0.528 0.279,0 0.529,-0.209 0.529,-0.528 z"
       id="path186"
       inkscape:connector-curvature="0" />
  </g>
  <g
     transform="translate(117.311,13.101)"
     style="fill:#161413;fill-rule:evenodd;stroke:none"
     id="g188">
    <path
       d="m 1.435,3.158 c 0,0 0,-3.158 0,-3.158 C 1.435,0 0,0.109 0,0.109 c 0,0 0,0.309 0,0.309 0.698,0 0.777,0.07 0.777,0.558 0,0 0,5.938 0,5.938 0,0 0.249,0 0.249,0 0.01,-0.01 0.09,-0.149 0.359,-0.618 0.149,0.229 0.567,0.727 1.305,0.727 1.185,0 2.221,-0.976 2.221,-2.261 0,-1.265 -0.976,-2.251 -2.112,-2.251 -0.776,0 -1.205,0.467 -1.364,0.647 z m 0.029,2.62 c 0,0 0,-2.052 0,-2.052 0,-0.189 0,-0.2 0.111,-0.359 C 1.962,2.81 2.51,2.729 2.749,2.729 c 0.449,0 0.808,0.26 1.047,0.638 0.259,0.408 0.288,0.977 0.288,1.385 0,0.369 -0.019,0.967 -0.308,1.415 C 3.567,6.476 3.188,6.805 2.65,6.805 2.201,6.805 1.843,6.565 1.604,6.196 1.464,5.987 1.464,5.958 1.464,5.778 z"
       id="path190"
       inkscape:connector-curvature="0" />
  </g>
  <g
     transform="translate(122.811,15.612)"
     style="fill:#161413;fill-rule:evenodd;stroke:none"
     id="g192">
    <path
       d="m 1.385,1.095 c 0,0 0,-1.095 0,-1.095 C 1.385,0 0,0.109 0,0.109 c 0,0 0,0.309 0,0.309 0.698,0 0.777,0.07 0.777,0.558 0,0 0,2.67 0,2.67 0,0.448 -0.11,0.448 -0.777,0.448 0,0 0,0.309 0,0.309 0,0 2.401,0 2.401,0 0,0 0,-0.309 0,-0.309 0,0 -0.209,0 -0.209,0 -0.738,0 -0.757,-0.109 -0.757,-0.468 0,0 0,-1.535 0,-1.535 0,-0.986 0.418,-1.873 1.176,-1.873 0.069,0 0.089,0 0.109,0.01 -0.03,0.011 -0.229,0.13 -0.229,0.389 0,0.279 0.209,0.429 0.428,0.429 0.179,0 0.428,-0.12 0.428,-0.439 C 3.347,0.289 3.038,0 2.611,0 1.883,0 1.525,0.667 1.385,1.095 z"
       id="path194"
       inkscape:connector-curvature="0" />
  </g>
  <g
     transform="translate(126.95,15.552)"
     style="fill:#161413;fill-rule:evenodd;stroke:none"
     id="g196">
    <path
       d="m 2.899,3.706 c 0.04,0.399 0.309,0.817 0.778,0.817 0.209,0 0.816,-0.14 0.816,-0.947 0,0 0,-0.557 0,-0.557 0,0 -0.249,0 -0.249,0 0,0 0,0.557 0,0.557 0,0.578 -0.249,0.638 -0.358,0.638 -0.329,0 -0.368,-0.448 -0.368,-0.498 0,0 0,-1.992 0,-1.992 0,-0.419 0,-0.808 -0.36,-1.176 C 2.77,0.159 2.271,0 1.794,0 0.977,0 0.289,0.468 0.289,1.125 c 0,0.299 0.199,0.469 0.459,0.469 0.278,0 0.458,-0.199 0.458,-0.458 0,-0.12 -0.05,-0.448 -0.508,-0.459 0.269,-0.349 0.757,-0.458 1.075,-0.458 0.489,0 1.057,0.389 1.057,1.275 0,0 0,0.368 0,0.368 C 2.321,1.893 1.624,1.923 0.997,2.222 0.25,2.56 0,3.078 0,3.517 0,4.323 0.967,4.572 1.595,4.572 2.252,4.572 2.71,4.174 2.899,3.706 z M 2.83,2.072 c 0,0 0,0.996 0,0.996 0,0.947 -0.718,1.286 -1.166,1.286 -0.488,0 -0.896,-0.349 -0.896,-0.847 0,-0.548 0.418,-1.375 2.062,-1.435 z"
       id="path198"
       inkscape:connector-curvature="0" />
  </g>
  <g
     transform="translate(131.811,15.612)"
     style="fill:#161413;fill-rule:evenodd;stroke:none"
     id="g200">
    <path
       d="m 1.385,1.095 c 0,0 0,-1.095 0,-1.095 C 1.385,0 0,0.109 0,0.109 c 0,0 0,0.309 0,0.309 0.698,0 0.777,0.07 0.777,0.558 0,0 0,2.67 0,2.67 0,0.448 -0.11,0.448 -0.777,0.448 0,0 0,0.309 0,0.309 0,0 2.401,0 2.401,0 0,0 0,-0.309 0,-0.309 0,0 -0.209,0 -0.209,0 -0.738,0 -0.757,-0.109 -0.757,-0.468 0,0 0,-1.535 0,-1.535 0,-0.986 0.418,-1.873 1.176,-1.873 0.069,0 0.089,0 0.109,0.01 -0.03,0.011 -0.229,0.13 -0.229,0.389 0,0.279 0.209,0.429 0.428,0.429 0.179,0 0.428,-0.12 0.428,-0.439 C 3.347,0.289 3.038,0 2.611,0 1.883,0 1.525,0.667 1.385,1.095 z"
       id="path202"
       inkscape:connector-curvature="0" />
  </g>
  <g
     transform="translate(135.721,15.721)"
     style="fill:#161413;fill-rule:evenodd;stroke:none"
     id="g204">
    <path
       d="M 3.946,0.946 C 4.205,0.319 4.712,0.309 4.872,0.309 c 0,0 0,-0.309 0,-0.309 0,0 -1.614,0 -1.614,0 0,0 0,0.309 0,0.309 0.309,0.01 0.468,0.179 0.468,0.428 0,0.1 -0.01,0.119 -0.06,0.24 0,0 -1.005,2.45 -1.005,2.45 0,0 -1.107,-2.68 -1.107,-2.68 -0.04,-0.099 -0.059,-0.14 -0.059,-0.179 0,-0.259 0.369,-0.259 0.557,-0.259 0,0 0,-0.309 0,-0.309 C 2.052,0 0,0 0,0 c 0,0 0,0.309 0,0.309 0.479,0 0.667,0 0.807,0.348 0,0 1.494,3.637 1.494,3.637 C 2.251,4.424 2.113,4.752 2.052,4.882 1.833,5.43 1.554,6.117 0.916,6.117 0.867,6.117 0.638,6.117 0.449,5.938 0.757,5.898 0.837,5.679 0.837,5.52 0.837,5.261 0.648,5.101 0.418,5.101 0.219,5.101 0,5.231 0,5.529 c 0,0.449 0.418,0.807 0.916,0.807 0.628,0 1.037,-0.567 1.276,-1.136 0,0 1.754,-4.254 1.754,-4.254 z"
       id="path206"
       inkscape:connector-curvature="0" />
  </g>
  <g
     transform="translate(161.032,11.765)"
     style="fill:#161413;fill-rule:nonzero;stroke:none"
     id="g208">
    <path
       d="m 0,12 c 0,0 0.48,0 0.48,0 0,0 0,-12 0,-12 C 0.48,0 0,0 0,0"
       id="path210"
       inkscape:connector-curvature="0" />
  </g>
  <g
     transform="translate(168.111,13.21)"
     style="fill:#161413;fill-rule:evenodd;stroke:none"
     id="g212">
    <path
       d="m 5.469,4.503 c 0,1.415 -0.966,2.212 -1.912,2.212 -0.469,0 -1.645,-0.249 -1.645,-2.141 0,0 0,-3.796 0,-3.796 0,-0.359 0.021,-0.469 0.787,-0.469 0,0 0.24,0 0.24,0 0,0 0,-0.309 0,-0.309 C 2.939,0 0,0 0,0 c 0,0 0,0.309 0,0.309 0,0 0.239,0 0.239,0 0.767,0 0.786,0.11 0.786,0.469 0,0 0,3.756 0,3.756 0,1.404 1.157,2.49 2.511,2.49 1.146,0 2.043,-0.926 2.212,-2.062 0.03,-0.199 0.03,-0.289 0.03,-0.687 0,0 0,-3.189 0,-3.189 0,-0.328 0,-0.777 1.026,-0.777 0,0 0,-0.309 0,-0.309 0,0 -2.361,0 -2.361,0 0,0 0,0.309 0,0.309 1.026,0 1.026,0.469 1.026,0.737 0,0 0,3.457 0,3.457 z"
       id="path214"
       inkscape:connector-curvature="0" />
  </g>
  <g
     transform="translate(175.6,15.612)"
     style="fill:#161413;fill-rule:evenodd;stroke:none"
     id="g216">
    <path
       d="m 0.778,0.976 c 0,0 0,2.67 0,2.67 0,0.448 -0.11,0.448 -0.778,0.448 0,0 0,0.309 0,0.309 0,0 2.243,0 2.243,0 0,0 0,-0.309 0,-0.309 -0.668,0 -0.778,0 -0.778,-0.448 0,0 0,-1.833 0,-1.833 0,-1.036 0.707,-1.595 1.345,-1.595 0.628,0 0.737,0.539 0.737,1.107 0,0 0,2.321 0,2.321 0,0.448 -0.109,0.448 -0.776,0.448 0,0 0,0.309 0,0.309 0,0 2.241,0 2.241,0 0,0 0,-0.309 0,-0.309 -0.518,0 -0.768,0 -0.777,-0.298 0,0 0,-1.904 0,-1.904 0,-0.856 0,-1.165 -0.309,-1.524 C 3.786,0.199 3.457,0 2.88,0 2.153,0 1.685,0.428 1.406,1.046 c 0,0 0,-1.046 0,-1.046 C 1.406,0 0,0.109 0,0.109 c 0,0 0,0.309 0,0.309 0.699,0 0.778,0.07 0.778,0.558 z"
       id="path218"
       inkscape:connector-curvature="0" />
  </g>
  <g
     transform="translate(181.111,13.35)"
     style="fill:#161413;fill-rule:evenodd;stroke:none"
     id="g220">
    <path
       d="m 1.435,2.262 c 0,0 -1.396,0.109 -1.396,0.109 0,0 0,0.309 0,0.309 0.649,0 0.737,0.06 0.737,0.547 0,0 0,2.681 0,2.681 0,0.448 -0.109,0.448 -0.776,0.448 0,0 0,0.309 0,0.309 0,0 2.132,0 2.132,0 0,0 0,-0.309 0,-0.309 -0.657,0 -0.697,-0.049 -0.697,-0.438 0,0 0,-3.656 0,-3.656 z M 1.475,0.528 C 1.475,0.209 1.225,0 0.946,0 0.638,0 0.418,0.269 0.418,0.528 c 0,0.269 0.22,0.528 0.528,0.528 0.279,0 0.529,-0.209 0.529,-0.528 z"
       id="path222"
       inkscape:connector-curvature="0" />
  </g>
  <g
     transform="translate(183.721,15.721)"
     style="fill:#161413;fill-rule:evenodd;stroke:none"
     id="g224">
    <path
       d="m 3.956,0.977 c 0.089,-0.23 0.258,-0.658 0.916,-0.668 0,0 0,-0.309 0,-0.309 0,0 -1.614,0 -1.614,0 0,0 0,0.309 0,0.309 0.368,0.01 0.478,0.239 0.478,0.428 0,0.09 -0.02,0.13 -0.06,0.24 0,0 -1.015,2.54 -1.015,2.54 0,0 -1.117,-2.78 -1.117,-2.78 C 1.485,0.607 1.485,0.588 1.485,0.568 c 0,-0.259 0.388,-0.259 0.567,-0.259 0,0 0,-0.309 0,-0.309 C 2.052,0 0,0 0,0 c 0,0 0,0.309 0,0.309 0.628,0 0.667,0.06 0.797,0.369 0,0 1.435,3.536 1.435,3.536 0.059,0.14 0.08,0.189 0.209,0.189 0.13,0 0.17,-0.089 0.209,-0.189 0,0 1.306,-3.237 1.306,-3.237 z"
       id="path226"
       inkscape:connector-curvature="0" />
  </g>
  <g
     transform="translate(188.811,15.552)"
     style="fill:#161413;fill-rule:evenodd;stroke:none"
     id="g228">
    <path
       d="m 0.837,1.952 c 0.06,-1.484 0.897,-1.733 1.236,-1.733 1.025,0 1.125,1.345 1.125,1.733 0,0 -2.361,0 -2.361,0 z M 0.826,2.161 c 0,0 2.781,0 2.781,0 0.218,0 0.249,0 0.249,-0.209 C 3.856,0.966 3.318,0 2.073,0 0.916,0 0,1.025 0,2.272 c 0,1.335 1.046,2.3 2.192,2.3 1.216,0 1.664,-1.105 1.664,-1.295 0,-0.099 -0.08,-0.119 -0.13,-0.119 -0.09,0 -0.109,0.06 -0.13,0.139 C 3.247,4.323 2.351,4.323 2.251,4.323 1.753,4.323 1.355,4.025 1.125,3.656 0.826,3.178 0.826,2.521 0.826,2.161 z"
       id="path230"
       inkscape:connector-curvature="0" />
  </g>
  <g
     transform="translate(193.311,15.612)"
     style="fill:#161413;fill-rule:evenodd;stroke:none"
     id="g232">
    <path
       d="m 1.385,1.095 c 0,0 0,-1.095 0,-1.095 C 1.385,0 0,0.109 0,0.109 c 0,0 0,0.309 0,0.309 0.698,0 0.777,0.07 0.777,0.558 0,0 0,2.67 0,2.67 0,0.448 -0.11,0.448 -0.777,0.448 0,0 0,0.309 0,0.309 0,0 2.401,0 2.401,0 0,0 0,-0.309 0,-0.309 0,0 -0.209,0 -0.209,0 -0.738,0 -0.757,-0.109 -0.757,-0.468 0,0 0,-1.535 0,-1.535 0,-0.986 0.418,-1.873 1.176,-1.873 0.069,0 0.089,0 0.109,0.01 -0.03,0.011 -0.229,0.13 -0.229,0.389 0,0.279 0.209,0.429 0.428,0.429 0.179,0 0.428,-0.12 0.428,-0.439 C 3.347,0.289 3.038,0 2.611,0 1.883,0 1.525,0.667 1.385,1.095 z"
       id="path234"
       inkscape:connector-curvature="0" />
  </g>
  <g
     transform="translate(197.361,15.552)"
     style="fill:#161413;fill-rule:evenodd;stroke:none"
     id="g236">
    <path
       d="m 1.743,2.53 c 0.219,0.04 1.036,0.2 1.036,0.916 0,0.509 -0.348,0.908 -1.126,0.908 C 0.817,4.354 0.458,3.785 0.269,2.939 0.239,2.81 0.229,2.77 0.129,2.77 0,2.77 0,2.839 0,3.019 c 0,0 0,1.314 0,1.314 0,0.17 0,0.239 0.109,0.239 0.05,0 0.06,-0.009 0.25,-0.199 C 0.378,4.354 0.378,4.333 0.558,4.145 0.996,4.563 1.444,4.572 1.653,4.572 2.799,4.572 3.258,3.905 3.258,3.188 3.258,2.659 2.959,2.36 2.839,2.241 2.51,1.923 2.122,1.843 1.703,1.763 1.146,1.653 0.478,1.524 0.478,0.946 c 0,-0.348 0.259,-0.757 1.116,-0.757 1.096,0 1.145,0.897 1.166,1.206 0.01,0.089 0.099,0.089 0.119,0.089 0.13,0 0.13,-0.049 0.13,-0.239 0,0 0,-1.007 0,-1.007 C 3.009,0.069 3.009,0 2.899,0 2.849,0 2.829,0 2.699,0.119 2.67,0.159 2.57,0.249 2.53,0.278 2.151,0 1.743,0 1.594,0 0.378,0 0,0.667 0,1.225 0,1.574 0.159,1.853 0.428,2.072 0.747,2.331 1.025,2.391 1.743,2.53 z"
       id="path238"
       inkscape:connector-curvature="0" />
  </g>
  <g
     transform="translate(201.111,13.35)"
     style="fill:#161413;fill-rule:evenodd;stroke:none"
     id="g240">
    <path
       d="m 1.435,2.262 c 0,0 -1.396,0.109 -1.396,0.109 0,0 0,0.309 0,0.309 0.649,0 0.737,0.06 0.737,0.547 0,0 0,2.681 0,2.681 0,0.448 -0.109,0.448 -0.776,0.448 0,0 0,0.309 0,0.309 0,0 2.132,0 2.132,0 0,0 0,-0.309 0,-0.309 -0.657,0 -0.697,-0.049 -0.697,-0.438 0,0 0,-3.656 0,-3.656 z M 1.475,0.528 C 1.475,0.209 1.225,0 0.946,0 0.638,0 0.418,0.269 0.418,0.528 c 0,0.269 0.22,0.528 0.528,0.528 0.279,0 0.529,-0.209 0.529,-0.528 z"
       id="path242"
       inkscape:connector-curvature="0" />
  </g>
  <g
     transform="translate(203.721,13.888)"
     style="fill:#161413;fill-rule:evenodd;stroke:none"
     id="g244">
    <path
       d="m 1.535,2.142 c 0,0 1.424,0 1.424,0 0,0 0,-0.309 0,-0.309 0,0 -1.424,0 -1.424,0 0,0 0,-1.833 0,-1.833 0,0 -0.249,0 -0.249,0 C 1.276,0.816 0.977,1.883 0,1.923 c 0,0 0,0.219 0,0.219 0,0 0.847,0 0.847,0 0,0 0,2.75 0,2.75 0,1.225 0.927,1.344 1.285,1.344 0.707,0 0.987,-0.707 0.987,-1.344 0,0 0,-0.569 0,-0.569 0,0 -0.249,0 -0.249,0 0,0 0,0.549 0,0.549 0,0.737 -0.299,1.115 -0.668,1.115 -0.667,0 -0.667,-0.906 -0.667,-1.076 0,0 0,-2.769 0,-2.769 z"
       id="path246"
       inkscape:connector-curvature="0" />
  </g>
  <g
     transform="translate(207.471,15.721)"
     style="fill:#161413;fill-rule:evenodd;stroke:none"
     id="g248">
    <path
       d="M 3.946,0.946 C 4.205,0.319 4.712,0.309 4.872,0.309 c 0,0 0,-0.309 0,-0.309 0,0 -1.614,0 -1.614,0 0,0 0,0.309 0,0.309 0.309,0.01 0.468,0.179 0.468,0.428 0,0.1 -0.01,0.119 -0.06,0.24 0,0 -1.005,2.45 -1.005,2.45 0,0 -1.107,-2.68 -1.107,-2.68 -0.04,-0.099 -0.059,-0.14 -0.059,-0.179 0,-0.259 0.369,-0.259 0.557,-0.259 0,0 0,-0.309 0,-0.309 C 2.052,0 0,0 0,0 c 0,0 0,0.309 0,0.309 0.479,0 0.667,0 0.807,0.348 0,0 1.494,3.637 1.494,3.637 C 2.251,4.424 2.113,4.752 2.052,4.882 1.833,5.43 1.554,6.117 0.916,6.117 0.867,6.117 0.638,6.117 0.449,5.938 0.757,5.898 0.837,5.679 0.837,5.52 0.837,5.261 0.648,5.101 0.418,5.101 0.219,5.101 0,5.231 0,5.529 c 0,0.449 0.418,0.807 0.916,0.807 0.628,0 1.037,-0.567 1.276,-1.136 0,0 1.754,-4.254 1.754,-4.254 z"
       id="path250"
       inkscape:connector-curvature="0" />
  </g>
  <g
     transform="translate(218.532,11.765)"
     style="fill:#161413;fill-rule:nonzero;stroke:none"
     id="g252">
    <path
       d="m 0,12 c 0,0 0.48,0 0.48,0 0,0 0,-12 0,-12 C 0.48,0 0,0 0,0"
       id="path254"
       inkscape:connector-curvature="0" />
  </g>
  <g
     transform="translate(87.532,23.785)"
     style="fill:#161413;fill-rule:nonzero;stroke:none"
     id="g256">
    <path
       d="m 0,0.48 c 0,0 131.4,0 131.4,0 0,0 0,-0.48 0,-0.48 C 131.4,0 0,0 0,0"
       id="path258"
       inkscape:connector-curvature="0" />
  </g>
  <g
     transform="translate(36.561,27.552)"
     style="fill:#161413;fill-rule:evenodd;stroke:none"
     id="g260">
    <path
       d="M 4.413,2.331 C 4.413,1.056 3.417,0 2.211,0 0.966,0 0,1.086 0,2.331 0,3.616 1.036,4.572 2.201,4.572 3.408,4.572 4.413,3.596 4.413,2.331 z M 2.211,4.323 C 1.783,4.323 1.345,4.114 1.075,3.656 0.826,3.218 0.826,2.609 0.826,2.251 c 0,-0.389 0,-0.927 0.24,-1.364 0.269,-0.459 0.737,-0.668 1.135,-0.668 0.439,0 0.868,0.22 1.126,0.647 0.259,0.429 0.259,1.007 0.259,1.385 0,0.358 0,0.897 -0.219,1.335 C 3.148,4.034 2.71,4.323 2.211,4.323 z"
       id="path262"
       inkscape:connector-curvature="0" />
  </g>
  <g
     transform="translate(41.6,27.612)"
     style="fill:#161413;fill-rule:evenodd;stroke:none"
     id="g264">
    <path
       d="m 0.778,0.976 c 0,0 0,2.67 0,2.67 0,0.448 -0.11,0.448 -0.778,0.448 0,0 0,0.309 0,0.309 0,0 2.243,0 2.243,0 0,0 0,-0.309 0,-0.309 -0.668,0 -0.778,0 -0.778,-0.448 0,0 0,-1.833 0,-1.833 0,-1.036 0.707,-1.595 1.345,-1.595 0.628,0 0.737,0.539 0.737,1.107 0,0 0,2.321 0,2.321 0,0.448 -0.109,0.448 -0.776,0.448 0,0 0,0.309 0,0.309 0,0 2.241,0 2.241,0 0,0 0,-0.309 0,-0.309 -0.518,0 -0.768,0 -0.777,-0.298 0,0 0,-1.904 0,-1.904 0,-0.856 0,-1.165 -0.309,-1.524 C 3.786,0.199 3.457,0 2.88,0 2.153,0 1.685,0.428 1.406,1.046 c 0,0 0,-1.046 0,-1.046 C 1.406,0 0,0.109 0,0.109 c 0,0 0,0.309 0,0.309 0.699,0 0.778,0.07 0.778,0.558 z"
       id="path266"
       inkscape:connector-curvature="0" />
  </g>
  <g
     transform="translate(47.061,27.552)"
     style="fill:#161413;fill-rule:evenodd;stroke:none"
     id="g268">
    <path
       d="m 0.837,1.952 c 0.06,-1.484 0.897,-1.733 1.236,-1.733 1.025,0 1.125,1.345 1.125,1.733 0,0 -2.361,0 -2.361,0 z M 0.826,2.161 c 0,0 2.781,0 2.781,0 0.218,0 0.249,0 0.249,-0.209 C 3.856,0.966 3.318,0 2.073,0 0.916,0 0,1.025 0,2.272 c 0,1.335 1.046,2.3 2.192,2.3 1.216,0 1.664,-1.105 1.664,-1.295 0,-0.099 -0.08,-0.119 -0.13,-0.119 -0.09,0 -0.109,0.06 -0.13,0.139 C 3.247,4.323 2.351,4.323 2.251,4.323 1.753,4.323 1.355,4.025 1.125,3.656 0.826,3.178 0.826,2.521 0.826,2.161 z"
       id="path270"
       inkscape:connector-curvature="0" />
  </g>
  <g
     transform="translate(51.391,29.575)"
     style="fill:#161413;fill-rule:evenodd;stroke:none"
     id="g272">
    <path
       d="m 2.641,0.577 c 0,0 0,-0.577 0,-0.577 C 2.641,0 0,0 0,0 c 0,0 0,0.577 0,0.577 0,0 2.641,0 2.641,0 z"
       id="path274"
       inkscape:connector-curvature="0" />
  </g>
  <g
     transform="translate(54.721,25.888)"
     style="fill:#161413;fill-rule:evenodd;stroke:none"
     id="g276">
    <path
       d="m 1.535,2.142 c 0,0 1.424,0 1.424,0 0,0 0,-0.309 0,-0.309 0,0 -1.424,0 -1.424,0 0,0 0,-1.833 0,-1.833 0,0 -0.249,0 -0.249,0 C 1.276,0.816 0.977,1.883 0,1.923 c 0,0 0,0.219 0,0.219 0,0 0.847,0 0.847,0 0,0 0,2.75 0,2.75 0,1.225 0.927,1.344 1.285,1.344 0.707,0 0.987,-0.707 0.987,-1.344 0,0 0,-0.569 0,-0.569 0,0 -0.249,0 -0.249,0 0,0 0,0.549 0,0.549 0,0.737 -0.299,1.115 -0.668,1.115 -0.667,0 -0.667,-0.906 -0.667,-1.076 0,0 0,-2.769 0,-2.769 z"
       id="path278"
       inkscape:connector-curvature="0" />
  </g>
  <g
     transform="translate(58.811,27.552)"
     style="fill:#161413;fill-rule:evenodd;stroke:none"
     id="g280">
    <path
       d="M 4.413,2.331 C 4.413,1.056 3.417,0 2.211,0 0.966,0 0,1.086 0,2.331 0,3.616 1.036,4.572 2.201,4.572 3.408,4.572 4.413,3.596 4.413,2.331 z M 2.211,4.323 C 1.783,4.323 1.345,4.114 1.075,3.656 0.826,3.218 0.826,2.609 0.826,2.251 c 0,-0.389 0,-0.927 0.24,-1.364 0.269,-0.459 0.737,-0.668 1.135,-0.668 0.439,0 0.868,0.22 1.126,0.647 0.259,0.429 0.259,1.007 0.259,1.385 0,0.358 0,0.897 -0.219,1.335 C 3.148,4.034 2.71,4.323 2.211,4.323 z"
       id="path282"
       inkscape:connector-curvature="0" />
  </g>
  <g
     transform="translate(63.641,29.575)"
     style="fill:#161413;fill-rule:evenodd;stroke:none"
     id="g284">
    <path
       d="m 2.641,0.577 c 0,0 0,-0.577 0,-0.577 C 2.641,0 0,0 0,0 c 0,0 0,0.577 0,0.577 0,0 2.641,0 2.641,0 z"
       id="path286"
       inkscape:connector-curvature="0" />
  </g>
  <g
     transform="translate(67.061,27.552)"
     style="fill:#161413;fill-rule:evenodd;stroke:none"
     id="g288">
    <path
       d="M 4.413,2.331 C 4.413,1.056 3.417,0 2.211,0 0.966,0 0,1.086 0,2.331 0,3.616 1.036,4.572 2.201,4.572 3.408,4.572 4.413,3.596 4.413,2.331 z M 2.211,4.323 C 1.783,4.323 1.345,4.114 1.075,3.656 0.826,3.218 0.826,2.609 0.826,2.251 c 0,-0.389 0,-0.927 0.24,-1.364 0.269,-0.459 0.737,-0.668 1.135,-0.668 0.439,0 0.868,0.22 1.126,0.647 0.259,0.429 0.259,1.007 0.259,1.385 0,0.358 0,0.897 -0.219,1.335 C 3.148,4.034 2.71,4.323 2.211,4.323 z"
       id="path290"
       inkscape:connector-curvature="0" />
  </g>
  <g
     transform="translate(72.1,27.612)"
     style="fill:#161413;fill-rule:evenodd;stroke:none"
     id="g292">
    <path
       d="m 0.778,0.976 c 0,0 0,2.67 0,2.67 0,0.448 -0.11,0.448 -0.778,0.448 0,0 0,0.309 0,0.309 0,0 2.243,0 2.243,0 0,0 0,-0.309 0,-0.309 -0.668,0 -0.778,0 -0.778,-0.448 0,0 0,-1.833 0,-1.833 0,-1.036 0.707,-1.595 1.345,-1.595 0.628,0 0.737,0.539 0.737,1.107 0,0 0,2.321 0,2.321 0,0.448 -0.109,0.448 -0.776,0.448 0,0 0,0.309 0,0.309 0,0 2.241,0 2.241,0 0,0 0,-0.309 0,-0.309 -0.518,0 -0.768,0 -0.777,-0.298 0,0 0,-1.904 0,-1.904 0,-0.856 0,-1.165 -0.309,-1.524 C 3.786,0.199 3.457,0 2.88,0 2.153,0 1.685,0.428 1.406,1.046 c 0,0 0,-1.046 0,-1.046 C 1.406,0 0,0.109 0,0.109 c 0,0 0,0.309 0,0.309 0.699,0 0.778,0.07 0.778,0.558 z"
       id="path294"
       inkscape:connector-curvature="0" />
  </g>
  <g
     transform="translate(77.561,27.552)"
     style="fill:#161413;fill-rule:evenodd;stroke:none"
     id="g296">
    <path
       d="m 0.837,1.952 c 0.06,-1.484 0.897,-1.733 1.236,-1.733 1.025,0 1.125,1.345 1.125,1.733 0,0 -2.361,0 -2.361,0 z M 0.826,2.161 c 0,0 2.781,0 2.781,0 0.218,0 0.249,0 0.249,-0.209 C 3.856,0.966 3.318,0 2.073,0 0.916,0 0,1.025 0,2.272 c 0,1.335 1.046,2.3 2.192,2.3 1.216,0 1.664,-1.105 1.664,-1.295 0,-0.099 -0.08,-0.119 -0.13,-0.119 -0.09,0 -0.109,0.06 -0.13,0.139 C 3.247,4.323 2.351,4.323 2.251,4.323 1.753,4.323 1.355,4.025 1.125,3.656 0.826,3.178 0.826,2.521 0.826,2.161 z"
       id="path298"
       inkscape:connector-curvature="0" />
  </g>
  <g
     transform="translate(87.282,23.765)"
     style="fill:#161413;fill-rule:nonzero;stroke:none"
     id="g300">
    <path
       d="m 0,12 c 0,0 0.48,0 0.48,0 0,0 0,-12 0,-12 C 0.48,0 0,0 0,0"
       id="path302"
       inkscape:connector-curvature="0" />
  </g>
  <g
     transform="translate(113.64,25.21)"
     style="fill:#161413;fill-rule:evenodd;stroke:none"
     id="g304">
    <path
       d="m 1.854,3.159 c 0,0 0,-2.451 0,-2.451 0,-0.329 0.019,-0.399 0.488,-0.399 0,0 1.236,0 1.236,0 0.965,0 1.314,0.848 1.314,1.375 0,0.638 -0.488,1.475 -1.594,1.475 0,0 -1.444,0 -1.444,0 z m 2.35,0.089 C 5.171,3.059 5.859,2.421 5.859,1.684 5.859,0.818 4.942,0 3.647,0 3.647,0 0,0 0,0 c 0,0 0,0.309 0,0.309 0,0 0.24,0 0.24,0 0.767,0 0.787,0.11 0.787,0.469 0,0 0,5.25 0,5.25 0,0.359 -0.02,0.468 -0.787,0.468 0,0 -0.24,0 -0.24,0 0,0 0,0.309 0,0.309 0,0 3.906,0 3.906,0 1.325,0 2.221,-0.887 2.221,-1.823 0,-0.866 -0.816,-1.615 -1.923,-1.734 z M 3.587,6.496 c 0,0 -1.245,0 -1.245,0 -0.469,0 -0.488,-0.07 -0.488,-0.398 0,0 0,-2.72 0,-2.72 0,0 1.873,0 1.873,0 0.986,0 1.404,0.926 1.404,1.594 0,0.707 -0.517,1.524 -1.544,1.524 z"
       id="path306"
       inkscape:connector-curvature="0" />
  </g>
  <g
     transform="translate(120.561,27.552)"
     style="fill:#161413;fill-rule:evenodd;stroke:none"
     id="g308">
    <path
       d="M 4.413,2.331 C 4.413,1.056 3.417,0 2.211,0 0.966,0 0,1.086 0,2.331 0,3.616 1.036,4.572 2.201,4.572 3.408,4.572 4.413,3.596 4.413,2.331 z M 2.211,4.323 C 1.783,4.323 1.345,4.114 1.075,3.656 0.826,3.218 0.826,2.609 0.826,2.251 c 0,-0.389 0,-0.927 0.24,-1.364 0.269,-0.459 0.737,-0.668 1.135,-0.668 0.439,0 0.868,0.22 1.126,0.647 0.259,0.429 0.259,1.007 0.259,1.385 0,0.358 0,0.897 -0.219,1.335 C 3.148,4.034 2.71,4.323 2.211,4.323 z"
       id="path310"
       inkscape:connector-curvature="0" />
  </g>
  <g
     transform="translate(125.811,27.552)"
     style="fill:#161413;fill-rule:evenodd;stroke:none"
     id="g312">
    <path
       d="M 4.413,2.331 C 4.413,1.056 3.417,0 2.211,0 0.966,0 0,1.086 0,2.331 0,3.616 1.036,4.572 2.201,4.572 3.408,4.572 4.413,3.596 4.413,2.331 z M 2.211,4.323 C 1.783,4.323 1.345,4.114 1.075,3.656 0.826,3.218 0.826,2.609 0.826,2.251 c 0,-0.389 0,-0.927 0.24,-1.364 0.269,-0.459 0.737,-0.668 1.135,-0.668 0.439,0 0.868,0.22 1.126,0.647 0.259,0.429 0.259,1.007 0.259,1.385 0,0.358 0,0.897 -0.219,1.335 C 3.148,4.034 2.71,4.323 2.211,4.323 z"
       id="path314"
       inkscape:connector-curvature="0" />
  </g>
  <g
     transform="translate(130.811,25.101)"
     style="fill:#161413;fill-rule:evenodd;stroke:none"
     id="g316">
    <path
       d="m 0.777,6.157 c 0,0.448 -0.11,0.448 -0.777,0.448 0,0 0,0.309 0,0.309 0,0 2.182,0 2.182,0 0,0 0,-0.309 0,-0.309 -0.668,0 -0.777,0 -0.777,-0.448 0,0 0,-1.026 0,-1.026 0,0 0.637,-0.548 0.637,-0.548 0.768,1.056 1.186,1.613 1.186,1.793 0,0.189 -0.169,0.229 -0.359,0.229 0,0 0,0.309 0,0.309 0,0 1.943,0 1.943,0 0,0 0,-0.309 0,-0.309 -0.368,0 -0.588,0 -0.966,-0.528 0,0 -1.266,-1.783 -1.266,-1.783 C 2.571,4.274 2.521,4.214 2.521,4.185 2.521,4.144 3.228,3.547 3.327,3.467 3.955,2.959 4.373,2.939 4.582,2.929 c 0,0 0,-0.309 0,-0.309 0,0 -1.812,0 -1.812,0 0,0 0,0.309 0,0.309 0.189,0.01 0.289,0.12 0.289,0.249 0,0.199 -0.14,0.319 -0.22,0.388 0,0 -1.404,1.216 -1.404,1.216 0,0 0,-4.782 0,-4.782 C 1.435,0 0,0.109 0,0.109 c 0,0 0,0.309 0,0.309 0.698,0 0.777,0.07 0.777,0.558 0,0 0,5.181 0,5.181 z"
       id="path318"
       inkscape:connector-curvature="0" />
  </g>
  <g
     transform="translate(161.032,23.765)"
     style="fill:#161413;fill-rule:nonzero;stroke:none"
     id="g320">
    <path
       d="m 0,12 c 0,0 0.48,0 0.48,0 0,0 0,-12 0,-12 C 0.48,0 0,0 0,0"
       id="path322"
       inkscape:connector-curvature="0" />
  </g>
  <g
     transform="translate(178.14,25.27)"
     style="fill:#161413;fill-rule:evenodd;stroke:none"
     id="g324">
    <path
       d="M 6.277,0 C 6.277,0 0.19,0 0.19,0 0.19,0 0,2.242 0,2.242 c 0,0 0.249,0 0.249,0 0.14,-1.604 0.289,-1.933 1.794,-1.933 0.179,0 0.438,0 0.538,0.02 0.209,0.04 0.209,0.149 0.209,0.379 0,0 0,5.25 0,5.25 0,0.339 0,0.478 -1.045,0.478 0,0 -0.4,0 -0.4,0 0,0 0,0.309 0,0.309 0,0 3.776,0 3.776,0 0,0 0,-0.309 0,-0.309 0,0 -0.398,0 -0.398,0 -1.046,0 -1.046,-0.139 -1.046,-0.478 0,0 0,-5.25 0,-5.25 0,-0.199 0,-0.339 0.179,-0.379 0.11,-0.02 0.379,-0.02 0.568,-0.02 1.504,0 1.654,0.329 1.793,1.933 0,0 0.249,0 0.249,0 C 6.466,2.242 6.277,0 6.277,0 z"
       id="path326"
       inkscape:connector-curvature="0" />
  </g>
  <g
     transform="translate(184.35,27.612)"
     style="fill:#161413;fill-rule:evenodd;stroke:none"
     id="g328">
    <path
       d="m 3.578,3.616 c 0,0 0,0.896 0,0.896 0,0 1.434,-0.109 1.434,-0.109 0,0 0,-0.309 0,-0.309 -0.697,0 -0.777,-0.07 -0.777,-0.558 0,0 0,-3.536 0,-3.536 0,0 -1.464,0.109 -1.464,0.109 0,0 0,0.309 0,0.309 0.697,0 0.776,0.07 0.776,0.558 0,0 0,1.774 0,1.774 0,0.866 -0.477,1.544 -1.205,1.544 -0.837,0 -0.877,-0.469 -0.877,-0.987 0,0 0,-3.307 0,-3.307 C 1.465,0 0,0.109 0,0.109 c 0,0 0,0.309 0,0.309 0.778,0 0.778,0.03 0.778,0.917 0,0 0,1.494 0,1.494 0,0.777 0,1.683 1.514,1.683 0.558,0 0.996,-0.278 1.286,-0.896 z"
       id="path330"
       inkscape:connector-curvature="0" />
  </g>
  <g
     transform="translate(189.721,25.888)"
     style="fill:#161413;fill-rule:evenodd;stroke:none"
     id="g332">
    <path
       d="m 1.535,2.142 c 0,0 1.424,0 1.424,0 0,0 0,-0.309 0,-0.309 0,0 -1.424,0 -1.424,0 0,0 0,-1.833 0,-1.833 0,0 -0.249,0 -0.249,0 C 1.276,0.816 0.977,1.883 0,1.923 c 0,0 0,0.219 0,0.219 0,0 0.847,0 0.847,0 0,0 0,2.75 0,2.75 0,1.225 0.927,1.344 1.285,1.344 0.707,0 0.987,-0.707 0.987,-1.344 0,0 0,-0.569 0,-0.569 0,0 -0.249,0 -0.249,0 0,0 0,0.549 0,0.549 0,0.737 -0.299,1.115 -0.668,1.115 -0.667,0 -0.667,-0.906 -0.667,-1.076 0,0 0,-2.769 0,-2.769 z"
       id="path334"
       inkscape:connector-curvature="0" />
  </g>
  <g
     transform="translate(193.811,27.552)"
     style="fill:#161413;fill-rule:evenodd;stroke:none"
     id="g336">
    <path
       d="M 4.413,2.331 C 4.413,1.056 3.417,0 2.211,0 0.966,0 0,1.086 0,2.331 0,3.616 1.036,4.572 2.201,4.572 3.408,4.572 4.413,3.596 4.413,2.331 z M 2.211,4.323 C 1.783,4.323 1.345,4.114 1.075,3.656 0.826,3.218 0.826,2.609 0.826,2.251 c 0,-0.389 0,-0.927 0.24,-1.364 0.269,-0.459 0.737,-0.668 1.135,-0.668 0.439,0 0.868,0.22 1.126,0.647 0.259,0.429 0.259,1.007 0.259,1.385 0,0.358 0,0.897 -0.219,1.335 C 3.148,4.034 2.71,4.323 2.211,4.323 z"
       id="path338"
       inkscape:connector-curvature="0" />
  </g>
  <g
     transform="translate(198.811,27.612)"
     style="fill:#161413;fill-rule:evenodd;stroke:none"
     id="g340">
    <path
       d="m 1.385,1.095 c 0,0 0,-1.095 0,-1.095 C 1.385,0 0,0.109 0,0.109 c 0,0 0,0.309 0,0.309 0.698,0 0.777,0.07 0.777,0.558 0,0 0,2.67 0,2.67 0,0.448 -0.11,0.448 -0.777,0.448 0,0 0,0.309 0,0.309 0,0 2.401,0 2.401,0 0,0 0,-0.309 0,-0.309 0,0 -0.209,0 -0.209,0 -0.738,0 -0.757,-0.109 -0.757,-0.468 0,0 0,-1.535 0,-1.535 0,-0.986 0.418,-1.873 1.176,-1.873 0.069,0 0.089,0 0.109,0.01 -0.03,0.011 -0.229,0.13 -0.229,0.389 0,0.279 0.209,0.429 0.428,0.429 0.179,0 0.428,-0.12 0.428,-0.439 C 3.347,0.289 3.038,0 2.611,0 1.883,0 1.525,0.667 1.385,1.095 z"
       id="path342"
       inkscape:connector-curvature="0" />
  </g>
  <g
     transform="translate(218.532,23.765)"
     style="fill:#161413;fill-rule:nonzero;stroke:none"
     id="g344">
    <path
       d="m 0,12 c 0,0 0.48,0 0.48,0 0,0 0,-12 0,-12 C 0.48,0 0,0 0,0"
       id="path346"
       inkscape:connector-curvature="0" />
  </g>
  <g
     transform="translate(87.532,35.535)"
     style="fill:#161413;fill-rule:nonzero;stroke:none"
     id="g348">
    <path
       d="m 0,0.48 c 0,0 131.4,0 131.4,0 0,0 0,-0.48 0,-0.48 C 131.4,0 0,0 0,0"
       id="path350"
       inkscape:connector-curvature="0" />
  </g>
</svg>
