<?xml version="1.0" encoding="UTF-8" standalone="no"?>
<svg
   xmlns:dc="http://purl.org/dc/elements/1.1/"
   xmlns:cc="http://creativecommons.org/ns#"
   xmlns:rdf="http://www.w3.org/1999/02/22-rdf-syntax-ns#"
   xmlns:svg="http://www.w3.org/2000/svg"
   xmlns="http://www.w3.org/2000/svg"
   xmlns:sodipodi="http://sodipodi.sourceforge.net/DTD/sodipodi-0.dtd"
   xmlns:inkscape="http://www.inkscape.org/namespaces/inkscape"
   width="543.70001"
   height="56.788132"
   viewBox="0 0 434.96001 45.430505"
   id="svg2"
   version="1.1"
   inkscape:version="0.48.0 r9654"
   sodipodi:docname="main.svg">
  <metadata
     id="metadata244">
    <rdf:RDF>
      <cc:Work
         rdf:about="">
        <dc:format>image/svg+xml</dc:format>
        <dc:type
           rdf:resource="http://purl.org/dc/dcmitype/StillImage" />
        <dc:title></dc:title>
      </cc:Work>
    </rdf:RDF>
  </metadata>
  <defs
     id="defs242" />
  <sodipodi:namedview
     pagecolor="#ffffff"
     bordercolor="#666666"
     borderopacity="1"
     objecttolerance="10"
     gridtolerance="10"
     guidetolerance="10"
     inkscape:pageopacity="0"
     inkscape:pageshadow="2"
     inkscape:window-width="1920"
     inkscape:window-height="1003"
     id="namedview240"
     showgrid="false"
     fit-margin-top="2"
     fit-margin-right="2"
     fit-margin-bottom="2"
     fit-margin-left="2"
     inkscape:zoom="0.74109264"
     inkscape:cx="277.9375"
     inkscape:cy="-462.3777"
     inkscape:window-x="0"
     inkscape:window-y="24"
     inkscape:window-maximized="1"
     inkscape:current-layer="svg2" />
  <g
     transform="translate(1.6,1.5999986)"
     style="fill:#161413;fill-rule:nonzero;stroke:none"
     id="g4">
    <path
       d="m 0,0.4805 c 0,0 431.76,0 431.76,0 0,0 0,-0.4805 0,-0.4805 C 431.76,0 0,0 0,0"
       id="path6"
       inkscape:connector-curvature="0" />
  </g>
  <g
     transform="translate(1.6,2.0208986)"
     style="fill:#161413;fill-rule:nonzero;stroke:none"
     id="g8">
    <path
       d="m 0,13.5596 c 0,0 0.4805,0 0.4805,0 0,0 0,-13.5596 0,-13.5596 C 0.4805,0 0,0 0,0"
       id="path10"
       inkscape:connector-curvature="0" />
  </g>
  <g
     transform="translate(40.731,4.3587976)"
     style="fill:#161413;fill-rule:evenodd;stroke:none"
     id="g12">
    <path
       d="M 6.12,5.3233 C 5.934,5.7383 5.782,5.9893 5.618,6.1748 5.236,6.5996 4.637,6.7959 3.73,6.7959 c 0,0 -0.73,0 -0.73,0 -0.796,0 -0.939,-0.0654 -0.939,-0.4472 0,0 0,-5.1592 0,-5.1592 0,-0.7754 0.154,-0.9278 1.015,-0.9824 0,0 0,-0.2071 0,-0.2071 C 3.076,0 0,0 0,0 c 0,0 0,0.2071 0,0.2071 0.807,0.0654 0.949,0.2187 0.949,0.9824 0,0 0,4.8427 0,4.8427 0,0.7637 -0.152,0.9278 -0.949,0.9825 0,0 0,0.207 0,0.207 0,0 5.869,0 5.869,0 0,0 0.523,-1.8984 0.523,-1.8984 0,0 -0.272,0 -0.272,0 z"
       id="path14"
       inkscape:connector-curvature="0" />
  </g>
  <g
     transform="translate(47.753,6.5618966)"
     style="fill:#161413;fill-rule:evenodd;stroke:none"
     id="g16">
    <path
       d="m 4.419,4.2989 c -0.185,0.1523 -0.316,0.207 -0.48,0.207 -0.251,0 -0.327,-0.1523 -0.327,-0.6328 0,0 0,-2.127 0,-2.127 C 3.612,1.1788 3.557,0.8624 3.393,0.6006 3.154,0.2081 2.684,0 2.04,0 1.015,0 0.208,0.5352 0.208,1.2227 c 0,0.25 0.218,0.4688 0.469,0.4688 0.262,0 0.491,-0.2188 0.491,-0.4581 C 1.168,1.1895 1.157,1.1348 1.146,1.0586 1.124,0.96 1.114,0.8731 1.114,0.7969 c 0,-0.2949 0.348,-0.5342 0.785,-0.5342 0.534,0 0.829,0.3155 0.829,0.9053 0,0 0,0.6651 0,0.6651 C 1.048,2.5098 0.863,2.5967 0.393,3.0118 0.154,3.2295 0,3.6006 0,3.96 c 0,0.6875 0.481,1.168 1.146,1.168 0.48,0 0.928,-0.2295 1.593,-0.7969 0.054,0.5674 0.251,0.7969 0.698,0.7969 0.371,0 0.6,-0.1309 0.982,-0.5459 0,0 0,-0.2832 0,-0.2832 z M 2.728,3.6768 c 0,0.3379 -0.055,0.4365 -0.283,0.5674 -0.262,0.1523 -0.568,0.251 -0.797,0.251 -0.382,0 -0.688,-0.3711 -0.688,-0.8399 0,0 0,-0.0439 0,-0.0439 0,-0.6436 0.448,-1.0362 1.768,-1.5166 0,0 0,1.582 0,1.582 z"
       id="path18"
       inkscape:connector-curvature="0" />
  </g>
  <g
     transform="translate(52.133,4.1292976)"
     style="fill:#161413;fill-rule:evenodd;stroke:none"
     id="g20">
    <path
       d="M 1.636,0.0225 C 1.636,0.0225 1.581,0 1.581,0 1.123,0.1641 0.829,0.251 0.316,0.3926 0.316,0.3926 0,0.4805 0,0.4805 c 0,0 0,0.1748 0,0.1748 0.066,-0.0117 0.109,-0.0117 0.185,-0.0117 0.436,0 0.535,0.0986 0.535,0.5566 0,0 0,5.6621 0,5.6621 0,0.3379 0.927,0.6983 1.8,0.6983 1.44,0 2.552,-1.2002 2.552,-2.7608 0,-1.3418 -0.829,-2.3672 -1.919,-2.3672 -0.666,0 -1.298,0.3936 -1.517,0.9278 0,0 0,-3.3379 0,-3.3379 z m 0,3.916 c 0,-0.4258 0.513,-0.8184 1.08,-0.8184 0.851,0 1.397,0.8506 1.397,2.1817 0,1.2109 -0.524,1.9092 -1.418,1.9092 -0.568,0 -1.059,-0.251 -1.059,-0.5235 0,0 0,-2.749 0,-2.749 z"
       id="path22"
       inkscape:connector-curvature="0" />
  </g>
  <g
     transform="translate(57.872,6.5618966)"
     style="fill:#161413;fill-rule:evenodd;stroke:none"
     id="g24">
    <path
       d="M 4.179,3.2295 C 3.656,4.0586 3.186,4.375 2.488,4.375 1.866,4.375 1.397,4.0586 1.081,3.4366 0.884,3.0225 0.808,2.6622 0.787,1.9971 c 0,0 3.359,0 3.359,0 C 4.059,1.2881 3.95,0.9717 3.677,0.6221 3.35,0.2295 2.848,0 2.281,0 1.735,0 1.222,0.1963 0.808,0.5674 0.295,1.0147 0,1.7891 0,2.6836 0,4.1895 0.787,5.128 2.04,5.128 c 1.037,0 1.855,-0.6436 2.313,-1.8223 0,0 -0.174,-0.0762 -0.174,-0.0762 z M 0.808,1.6475 c 0.12,-0.8506 0.491,-1.2539 1.156,-1.2539 0.665,0 0.928,0.3047 1.07,1.2539 0,0 -2.226,0 -2.226,0 z"
       id="path26"
       inkscape:connector-curvature="0" />
  </g>
  <g
     transform="translate(62.557,4.1292976)"
     style="fill:#161413;fill-rule:evenodd;stroke:none"
     id="g28">
    <path
       d="m 0,0.6553 c 0,0 0.065,0 0.065,0 0.121,-0.0117 0.251,-0.0225 0.339,-0.0225 0.349,0 0.458,0.1534 0.458,0.6661 0,0 0,5.2031 0,5.2031 0,0.5888 -0.153,0.7314 -0.84,0.7851 0,0 0,0.1641 0,0.1641 0,0 2.575,0 2.575,0 0,0 0,-0.1641 0,-0.1641 C 1.909,7.2442 1.778,7.1348 1.778,6.5352 c 0,0 0,-6.5127 0,-6.5127 C 1.778,0.0225 1.734,0 1.734,0 1.168,0.1856 0.753,0.295 0,0.4805 c 0,0 0,0.1748 0,0.1748 z"
       id="path30"
       inkscape:connector-curvature="0" />
  </g>
  <g
     transform="translate(69.561,4.2054976)"
     style="fill:#161413;fill-rule:evenodd;stroke:none"
     id="g32">
    <path
       d="M 1.964,0 C 1.964,0 0,0.9932 0,0.9932 c 0,0 0,0.1523 0,0.1523 C 0.131,1.0918 0.251,1.0479 0.295,1.0264 0.491,0.9492 0.677,0.9062 0.785,0.9062 c 0.23,0 0.327,0.1631 0.327,0.5127 0,0 0,4.9415 0,4.9415 0,0.3603 -0.087,0.6113 -0.261,0.7089 -0.164,0.0987 -0.317,0.1309 -0.775,0.1416 0,0 0,0.1641 0,0.1641 0,0 3.011,0 3.011,0 0,0 0,-0.1641 0,-0.1641 C 2.226,7.2002 2.051,7.0918 2.051,6.5674 c 0,0 0,-6.5449 0,-6.5449 C 2.051,0.0225 1.964,0 1.964,0 z"
       id="path34"
       inkscape:connector-curvature="0" />
  </g>
  <g
     transform="translate(112.6,2.0208986)"
     style="fill:#161413;fill-rule:nonzero;stroke:none"
     id="g36">
    <path
       d="m 0,13.5596 c 0,0 0.48,0 0.48,0 0,0 0,-13.5596 0,-13.5596 C 0.48,0 0,0 0,0"
       id="path38"
       inkscape:connector-curvature="0" />
  </g>
  <g
     transform="translate(200.981,4.3587976)"
     style="fill:#161413;fill-rule:evenodd;stroke:none"
     id="g40">
    <path
       d="M 6.12,5.3233 C 5.934,5.7383 5.782,5.9893 5.618,6.1748 5.236,6.5996 4.637,6.7959 3.73,6.7959 c 0,0 -0.73,0 -0.73,0 -0.796,0 -0.939,-0.0654 -0.939,-0.4472 0,0 0,-5.1592 0,-5.1592 0,-0.7754 0.154,-0.9278 1.015,-0.9824 0,0 0,-0.2071 0,-0.2071 C 3.076,0 0,0 0,0 c 0,0 0,0.2071 0,0.2071 0.807,0.0654 0.949,0.2187 0.949,0.9824 0,0 0,4.8427 0,4.8427 0,0.7637 -0.152,0.9278 -0.949,0.9825 0,0 0,0.207 0,0.207 0,0 5.869,0 5.869,0 0,0 0.523,-1.8984 0.523,-1.8984 0,0 -0.272,0 -0.272,0 z"
       id="path42"
       inkscape:connector-curvature="0" />
  </g>
  <g
     transform="translate(208.003,6.5618966)"
     style="fill:#161413;fill-rule:evenodd;stroke:none"
     id="g44">
    <path
       d="m 4.419,4.2989 c -0.185,0.1523 -0.316,0.207 -0.48,0.207 -0.251,0 -0.327,-0.1523 -0.327,-0.6328 0,0 0,-2.127 0,-2.127 C 3.612,1.1788 3.557,0.8624 3.393,0.6006 3.154,0.2081 2.684,0 2.04,0 1.015,0 0.208,0.5352 0.208,1.2227 c 0,0.25 0.218,0.4688 0.469,0.4688 0.262,0 0.491,-0.2188 0.491,-0.4581 C 1.168,1.1895 1.157,1.1348 1.146,1.0586 1.124,0.96 1.114,0.8731 1.114,0.7969 c 0,-0.2949 0.348,-0.5342 0.785,-0.5342 0.534,0 0.829,0.3155 0.829,0.9053 0,0 0,0.6651 0,0.6651 C 1.048,2.5098 0.863,2.5967 0.393,3.0118 0.154,3.2295 0,3.6006 0,3.96 c 0,0.6875 0.481,1.168 1.146,1.168 0.48,0 0.928,-0.2295 1.593,-0.7969 0.054,0.5674 0.251,0.7969 0.698,0.7969 0.371,0 0.6,-0.1309 0.982,-0.5459 0,0 0,-0.2832 0,-0.2832 z M 2.728,3.6768 c 0,0.3379 -0.055,0.4365 -0.283,0.5674 -0.262,0.1523 -0.568,0.251 -0.797,0.251 -0.382,0 -0.688,-0.3711 -0.688,-0.8399 0,0 0,-0.0439 0,-0.0439 0,-0.6436 0.448,-1.0362 1.768,-1.5166 0,0 0,1.582 0,1.582 z"
       id="path46"
       inkscape:connector-curvature="0" />
  </g>
  <g
     transform="translate(212.383,4.1292976)"
     style="fill:#161413;fill-rule:evenodd;stroke:none"
     id="g48">
    <path
       d="M 1.636,0.0225 C 1.636,0.0225 1.581,0 1.581,0 1.123,0.1641 0.829,0.251 0.316,0.3926 0.316,0.3926 0,0.4805 0,0.4805 c 0,0 0,0.1748 0,0.1748 0.066,-0.0117 0.109,-0.0117 0.185,-0.0117 0.436,0 0.535,0.0986 0.535,0.5566 0,0 0,5.6621 0,5.6621 0,0.3379 0.927,0.6983 1.8,0.6983 1.44,0 2.552,-1.2002 2.552,-2.7608 0,-1.3418 -0.829,-2.3672 -1.919,-2.3672 -0.666,0 -1.298,0.3936 -1.517,0.9278 0,0 0,-3.3379 0,-3.3379 z m 0,3.916 c 0,-0.4258 0.513,-0.8184 1.08,-0.8184 0.851,0 1.397,0.8506 1.397,2.1817 0,1.2109 -0.524,1.9092 -1.418,1.9092 -0.568,0 -1.059,-0.251 -1.059,-0.5235 0,0 0,-2.749 0,-2.749 z"
       id="path50"
       inkscape:connector-curvature="0" />
  </g>
  <g
     transform="translate(218.122,6.5618966)"
     style="fill:#161413;fill-rule:evenodd;stroke:none"
     id="g52">
    <path
       d="M 4.179,3.2295 C 3.656,4.0586 3.186,4.375 2.488,4.375 1.866,4.375 1.397,4.0586 1.081,3.4366 0.884,3.0225 0.808,2.6622 0.787,1.9971 c 0,0 3.359,0 3.359,0 C 4.059,1.2881 3.95,0.9717 3.677,0.6221 3.35,0.2295 2.848,0 2.281,0 1.735,0 1.222,0.1963 0.808,0.5674 0.295,1.0147 0,1.7891 0,2.6836 0,4.1895 0.787,5.128 2.04,5.128 c 1.037,0 1.855,-0.6436 2.313,-1.8223 0,0 -0.174,-0.0762 -0.174,-0.0762 z M 0.808,1.6475 c 0.12,-0.8506 0.491,-1.2539 1.156,-1.2539 0.665,0 0.928,0.3047 1.07,1.2539 0,0 -2.226,0 -2.226,0 z"
       id="path54"
       inkscape:connector-curvature="0" />
  </g>
  <g
     transform="translate(222.807,4.1292976)"
     style="fill:#161413;fill-rule:evenodd;stroke:none"
     id="g56">
    <path
       d="m 0,0.6553 c 0,0 0.065,0 0.065,0 0.121,-0.0117 0.251,-0.0225 0.339,-0.0225 0.349,0 0.458,0.1534 0.458,0.6661 0,0 0,5.2031 0,5.2031 0,0.5888 -0.153,0.7314 -0.84,0.7851 0,0 0,0.1641 0,0.1641 0,0 2.575,0 2.575,0 0,0 0,-0.1641 0,-0.1641 C 1.909,7.2442 1.778,7.1348 1.778,6.5352 c 0,0 0,-6.5127 0,-6.5127 C 1.778,0.0225 1.734,0 1.734,0 1.168,0.1856 0.753,0.295 0,0.4805 c 0,0 0,0.1748 0,0.1748 z"
       id="path58"
       inkscape:connector-curvature="0" />
  </g>
  <g
     transform="translate(228.677,4.2054976)"
     style="fill:#161413;fill-rule:evenodd;stroke:none"
     id="g60">
    <path
       d="m 4.855,5.8809 c 0,0 -0.142,-0.0547 -0.142,-0.0547 -0.403,0.6211 -0.546,0.7197 -1.036,0.7197 0,0 -2.608,0 -2.608,0 0,0 1.833,-1.9199 1.833,-1.9199 C 3.873,3.6113 4.298,2.7822 4.298,1.9316 4.298,0.8408 3.415,0 2.28,0 1.68,0 1.113,0.2402 0.709,0.6768 0.361,1.0479 0.196,1.3965 0.011,2.1709 c 0,0 0.229,0.0547 0.229,0.0547 0.437,-1.0684 0.829,-1.418 1.582,-1.418 0.916,0 1.539,0.6221 1.539,1.5381 0,0.8516 -0.502,1.8652 -1.418,2.8369 0,0 -1.943,2.0615 -1.943,2.0615 0,0 0,0.1309 0,0.1309 0,0 4.255,0 4.255,0 0,0 0.6,-1.4941 0.6,-1.4941 z"
       id="path62"
       inkscape:connector-curvature="0" />
  </g>
  <g
     transform="translate(321.85,2.0208986)"
     style="fill:#161413;fill-rule:nonzero;stroke:none"
     id="g64">
    <path
       d="m 0,13.5596 c 0,0 0.48,0 0.48,0 0,0 0,-13.5596 0,-13.5596 C 0.48,0 0,0 0,0"
       id="path66"
       inkscape:connector-curvature="0" />
  </g>
  <g
     transform="translate(361.231,4.3587976)"
     style="fill:#161413;fill-rule:evenodd;stroke:none"
     id="g68">
    <path
       d="M 6.12,5.3233 C 5.934,5.7383 5.782,5.9893 5.618,6.1748 5.236,6.5996 4.637,6.7959 3.73,6.7959 c 0,0 -0.73,0 -0.73,0 -0.796,0 -0.939,-0.0654 -0.939,-0.4472 0,0 0,-5.1592 0,-5.1592 0,-0.7754 0.154,-0.9278 1.015,-0.9824 0,0 0,-0.2071 0,-0.2071 C 3.076,0 0,0 0,0 c 0,0 0,0.2071 0,0.2071 0.807,0.0654 0.949,0.2187 0.949,0.9824 0,0 0,4.8427 0,4.8427 0,0.7637 -0.152,0.9278 -0.949,0.9825 0,0 0,0.207 0,0.207 0,0 5.869,0 5.869,0 0,0 0.523,-1.8984 0.523,-1.8984 0,0 -0.272,0 -0.272,0 z"
       id="path70"
       inkscape:connector-curvature="0" />
  </g>
  <g
     transform="translate(368.253,6.5618966)"
     style="fill:#161413;fill-rule:evenodd;stroke:none"
     id="g72">
    <path
       d="m 4.419,4.2989 c -0.185,0.1523 -0.316,0.207 -0.48,0.207 -0.251,0 -0.327,-0.1523 -0.327,-0.6328 0,0 0,-2.127 0,-2.127 C 3.612,1.1788 3.557,0.8624 3.393,0.6006 3.154,0.2081 2.684,0 2.04,0 1.015,0 0.208,0.5352 0.208,1.2227 c 0,0.25 0.218,0.4688 0.469,0.4688 0.262,0 0.491,-0.2188 0.491,-0.4581 C 1.168,1.1895 1.157,1.1348 1.146,1.0586 1.124,0.96 1.114,0.8731 1.114,0.7969 c 0,-0.2949 0.348,-0.5342 0.785,-0.5342 0.534,0 0.829,0.3155 0.829,0.9053 0,0 0,0.6651 0,0.6651 C 1.048,2.5098 0.863,2.5967 0.393,3.0118 0.154,3.2295 0,3.6006 0,3.96 c 0,0.6875 0.481,1.168 1.146,1.168 0.48,0 0.928,-0.2295 1.593,-0.7969 0.054,0.5674 0.251,0.7969 0.698,0.7969 0.371,0 0.6,-0.1309 0.982,-0.5459 0,0 0,-0.2832 0,-0.2832 z M 2.728,3.6768 c 0,0.3379 -0.055,0.4365 -0.283,0.5674 -0.262,0.1523 -0.568,0.251 -0.797,0.251 -0.382,0 -0.688,-0.3711 -0.688,-0.8399 0,0 0,-0.0439 0,-0.0439 0,-0.6436 0.448,-1.0362 1.768,-1.5166 0,0 0,1.582 0,1.582 z"
       id="path74"
       inkscape:connector-curvature="0" />
  </g>
  <g
     transform="translate(372.633,4.1292976)"
     style="fill:#161413;fill-rule:evenodd;stroke:none"
     id="g76">
    <path
       d="M 1.636,0.0225 C 1.636,0.0225 1.581,0 1.581,0 1.123,0.1641 0.829,0.251 0.316,0.3926 0.316,0.3926 0,0.4805 0,0.4805 c 0,0 0,0.1748 0,0.1748 0.066,-0.0117 0.109,-0.0117 0.185,-0.0117 0.436,0 0.535,0.0986 0.535,0.5566 0,0 0,5.6621 0,5.6621 0,0.3379 0.927,0.6983 1.8,0.6983 1.44,0 2.552,-1.2002 2.552,-2.7608 0,-1.3418 -0.829,-2.3672 -1.919,-2.3672 -0.666,0 -1.298,0.3936 -1.517,0.9278 0,0 0,-3.3379 0,-3.3379 z m 0,3.916 c 0,-0.4258 0.513,-0.8184 1.08,-0.8184 0.851,0 1.397,0.8506 1.397,2.1817 0,1.2109 -0.524,1.9092 -1.418,1.9092 -0.568,0 -1.059,-0.251 -1.059,-0.5235 0,0 0,-2.749 0,-2.749 z"
       id="path78"
       inkscape:connector-curvature="0" />
  </g>
  <g
     transform="translate(378.372,6.5618966)"
     style="fill:#161413;fill-rule:evenodd;stroke:none"
     id="g80">
    <path
       d="M 4.179,3.2295 C 3.656,4.0586 3.186,4.375 2.488,4.375 1.866,4.375 1.397,4.0586 1.081,3.4366 0.884,3.0225 0.808,2.6622 0.787,1.9971 c 0,0 3.359,0 3.359,0 C 4.059,1.2881 3.95,0.9717 3.677,0.6221 3.35,0.2295 2.848,0 2.281,0 1.735,0 1.222,0.1963 0.808,0.5674 0.295,1.0147 0,1.7891 0,2.6836 0,4.1895 0.787,5.128 2.04,5.128 c 1.037,0 1.855,-0.6436 2.313,-1.8223 0,0 -0.174,-0.0762 -0.174,-0.0762 z M 0.808,1.6475 c 0.12,-0.8506 0.491,-1.2539 1.156,-1.2539 0.665,0 0.928,0.3047 1.07,1.2539 0,0 -2.226,0 -2.226,0 z"
       id="path82"
       inkscape:connector-curvature="0" />
  </g>
  <g
     transform="translate(383.057,4.1292976)"
     style="fill:#161413;fill-rule:evenodd;stroke:none"
     id="g84">
    <path
       d="m 0,0.6553 c 0,0 0.065,0 0.065,0 0.121,-0.0117 0.251,-0.0225 0.339,-0.0225 0.349,0 0.458,0.1534 0.458,0.6661 0,0 0,5.2031 0,5.2031 0,0.5888 -0.153,0.7314 -0.84,0.7851 0,0 0,0.1641 0,0.1641 0,0 2.575,0 2.575,0 0,0 0,-0.1641 0,-0.1641 C 1.909,7.2442 1.778,7.1348 1.778,6.5352 c 0,0 0,-6.5127 0,-6.5127 C 1.778,0.0225 1.734,0 1.734,0 1.168,0.1856 0.753,0.295 0,0.4805 c 0,0 0,0.1748 0,0.1748 z"
       id="path86"
       inkscape:connector-curvature="0" />
  </g>
  <g
     transform="translate(389.069,4.2054976)"
     style="fill:#161413;fill-rule:evenodd;stroke:none"
     id="g88">
    <path
       d="m 1.2,3.7754 c 0.643,0 0.894,0.0215 1.156,0.1191 0.677,0.2403 1.103,0.8623 1.103,1.6153 0,0.916 -0.622,1.625 -1.43,1.625 C 1.735,7.1348 1.516,7.0586 1.113,6.7969 0.786,6.6006 0.6,6.5244 0.415,6.5244 0.164,6.5244 0,6.6768 0,6.9062 0,7.2881 0.469,7.5273 1.233,7.5273 2.073,7.5273 2.934,7.2441 3.447,6.7969 3.96,6.3496 4.244,5.7168 4.244,4.9863 4.244,4.4297 4.069,3.917 3.753,3.5791 3.535,3.3389 3.327,3.208 2.847,3 3.6,2.4873 3.873,2.084 3.873,1.4951 3.873,0.6113 3.175,0 2.171,0 1.626,0 1.145,0.1855 0.753,0.5352 0.426,0.8291 0.261,1.1133 0.022,1.7676 c 0,0 0.163,0.0439 0.163,0.0439 0.448,-0.7969 0.939,-1.1562 1.626,-1.1562 0.709,0 1.2,0.4795 1.2,1.167 0,0.3925 -0.164,0.7851 -0.436,1.0586 C 2.248,3.208 1.942,3.3711 1.2,3.6328 c 0,0 0,0.1426 0,0.1426 z"
       id="path90"
       inkscape:connector-curvature="0" />
  </g>
  <g
     transform="translate(432.85,2.0208986)"
     style="fill:#161413;fill-rule:nonzero;stroke:none"
     id="g92">
    <path
       d="m 0,13.5596 c 0,0 0.48,0 0.48,0 0,0 0,-13.5596 0,-13.5596 C 0.48,0 0,0 0,0"
       id="path94"
       inkscape:connector-curvature="0" />
  </g>
  <g
     transform="translate(1.6,15.349997)"
     style="fill:#161413;fill-rule:nonzero;stroke:none"
     id="g96">
    <path
       d="m 0,0.4805 c 0,0 431.76,0 431.76,0 0,0 0,-0.4805 0,-0.4805 C 431.76,0 0,0 0,0"
       id="path98"
       inkscape:connector-curvature="0" />
  </g>
  <g
     transform="translate(1.6,16.020897)"
     style="fill:#161413;fill-rule:nonzero;stroke:none"
     id="g100">
    <path
       d="m 0,13.5596 c 0,0 0.4805,0 0.4805,0 0,0 0,-13.5596 0,-13.5596 C 0.4805,0 0,0 0,0"
       id="path102"
       inkscape:connector-curvature="0" />
  </g>
  <g
     transform="translate(50.311,17.955498)"
     style="fill:#161413;fill-rule:evenodd;stroke:none"
     id="g104">
    <path
       d="M 1.964,0 C 1.964,0 0,0.9932 0,0.9932 c 0,0 0,0.1523 0,0.1523 C 0.131,1.0918 0.251,1.0479 0.295,1.0264 0.491,0.9492 0.677,0.9062 0.785,0.9062 c 0.23,0 0.327,0.1631 0.327,0.5127 0,0 0,4.9415 0,4.9415 0,0.3603 -0.087,0.6113 -0.261,0.7089 -0.164,0.0987 -0.317,0.1309 -0.775,0.1416 0,0 0,0.1641 0,0.1641 0,0 3.011,0 3.011,0 0,0 0,-0.1641 0,-0.1641 C 2.226,7.2002 2.051,7.0918 2.051,6.5674 c 0,0 0,-6.5449 0,-6.5449 C 2.051,0.0225 1.964,0 1.964,0 z"
       id="path106"
       inkscape:connector-curvature="0" />
  </g>
  <g
     transform="translate(54.677,17.955498)"
     style="fill:#161413;fill-rule:evenodd;stroke:none"
     id="g108">
    <path
       d="m 4.855,5.8809 c 0,0 -0.142,-0.0547 -0.142,-0.0547 -0.403,0.6211 -0.546,0.7197 -1.036,0.7197 0,0 -2.608,0 -2.608,0 0,0 1.833,-1.9199 1.833,-1.9199 C 3.873,3.6113 4.298,2.7822 4.298,1.9316 4.298,0.8408 3.415,0 2.28,0 1.68,0 1.113,0.2402 0.709,0.6768 0.361,1.0479 0.196,1.3965 0.011,2.1709 c 0,0 0.229,0.0547 0.229,0.0547 0.437,-1.0684 0.829,-1.418 1.582,-1.418 0.916,0 1.539,0.6221 1.539,1.5381 0,0.8516 -0.502,1.8652 -1.418,2.8369 0,0 -1.943,2.0615 -1.943,2.0615 0,0 0,0.1309 0,0.1309 0,0 4.255,0 4.255,0 0,0 0.6,-1.4941 0.6,-1.4941 z"
       id="path110"
       inkscape:connector-curvature="0" />
  </g>
  <g
     transform="translate(60.319,17.955498)"
     style="fill:#161413;fill-rule:evenodd;stroke:none"
     id="g112">
    <path
       d="m 1.2,3.7754 c 0.643,0 0.894,0.0215 1.156,0.1191 0.677,0.2403 1.103,0.8623 1.103,1.6153 0,0.916 -0.622,1.625 -1.43,1.625 C 1.735,7.1348 1.516,7.0586 1.113,6.7969 0.786,6.6006 0.6,6.5244 0.415,6.5244 0.164,6.5244 0,6.6768 0,6.9062 0,7.2881 0.469,7.5273 1.233,7.5273 2.073,7.5273 2.934,7.2441 3.447,6.7969 3.96,6.3496 4.244,5.7168 4.244,4.9863 4.244,4.4297 4.069,3.917 3.753,3.5791 3.535,3.3389 3.327,3.208 2.847,3 3.6,2.4873 3.873,2.084 3.873,1.4951 3.873,0.6113 3.175,0 2.171,0 1.626,0 1.145,0.1855 0.753,0.5352 0.426,0.8291 0.261,1.1133 0.022,1.7676 c 0,0 0.163,0.0439 0.163,0.0439 0.448,-0.7969 0.939,-1.1562 1.626,-1.1562 0.709,0 1.2,0.4795 1.2,1.167 0,0.3925 -0.164,0.7851 -0.436,1.0586 C 2.248,3.208 1.942,3.3711 1.2,3.6328 c 0,0 0,0.1426 0,0.1426 z"
       id="path114"
       inkscape:connector-curvature="0" />
  </g>
  <g
     transform="translate(112.6,16.020897)"
     style="fill:#161413;fill-rule:nonzero;stroke:none"
     id="g116">
    <path
       d="m 0,13.5596 c 0,0 0.48,0 0.48,0 0,0 0,-13.5596 0,-13.5596 C 0.48,0 0,0 0,0"
       id="path118"
       inkscape:connector-curvature="0" />
  </g>
  <g
     transform="translate(202.311,17.955498)"
     style="fill:#161413;fill-rule:evenodd;stroke:none"
     id="g120">
    <path
       d="M 1.964,0 C 1.964,0 0,0.9932 0,0.9932 c 0,0 0,0.1523 0,0.1523 C 0.131,1.0918 0.251,1.0479 0.295,1.0264 0.491,0.9492 0.677,0.9062 0.785,0.9062 c 0.23,0 0.327,0.1631 0.327,0.5127 0,0 0,4.9415 0,4.9415 0,0.3603 -0.087,0.6113 -0.261,0.7089 -0.164,0.0987 -0.317,0.1309 -0.775,0.1416 0,0 0,0.1641 0,0.1641 0,0 3.011,0 3.011,0 0,0 0,-0.1641 0,-0.1641 C 2.226,7.2002 2.051,7.0918 2.051,6.5674 c 0,0 0,-6.5449 0,-6.5449 C 2.051,0.0225 1.964,0 1.964,0 z"
       id="path122"
       inkscape:connector-curvature="0" />
  </g>
  <g
     transform="translate(206.677,17.955498)"
     style="fill:#161413;fill-rule:evenodd;stroke:none"
     id="g124">
    <path
       d="m 4.855,5.8809 c 0,0 -0.142,-0.0547 -0.142,-0.0547 -0.403,0.6211 -0.546,0.7197 -1.036,0.7197 0,0 -2.608,0 -2.608,0 0,0 1.833,-1.9199 1.833,-1.9199 C 3.873,3.6113 4.298,2.7822 4.298,1.9316 4.298,0.8408 3.415,0 2.28,0 1.68,0 1.113,0.2402 0.709,0.6768 0.361,1.0479 0.196,1.3965 0.011,2.1709 c 0,0 0.229,0.0547 0.229,0.0547 0.437,-1.0684 0.829,-1.418 1.582,-1.418 0.916,0 1.539,0.6221 1.539,1.5381 0,0.8516 -0.502,1.8652 -1.418,2.8369 0,0 -1.943,2.0615 -1.943,2.0615 0,0 0,0.1309 0,0.1309 0,0 4.255,0 4.255,0 0,0 0.6,-1.4941 0.6,-1.4941 z"
       id="path126"
       inkscape:connector-curvature="0" />
  </g>
  <g
     transform="translate(212.319,17.955498)"
     style="fill:#161413;fill-rule:evenodd;stroke:none"
     id="g128">
    <path
       d="m 1.2,3.7754 c 0.643,0 0.894,0.0215 1.156,0.1191 0.677,0.2403 1.103,0.8623 1.103,1.6153 0,0.916 -0.622,1.625 -1.43,1.625 C 1.735,7.1348 1.516,7.0586 1.113,6.7969 0.786,6.6006 0.6,6.5244 0.415,6.5244 0.164,6.5244 0,6.6768 0,6.9062 0,7.2881 0.469,7.5273 1.233,7.5273 2.073,7.5273 2.934,7.2441 3.447,6.7969 3.96,6.3496 4.244,5.7168 4.244,4.9863 4.244,4.4297 4.069,3.917 3.753,3.5791 3.535,3.3389 3.327,3.208 2.847,3 3.6,2.4873 3.873,2.084 3.873,1.4951 3.873,0.6113 3.175,0 2.171,0 1.626,0 1.145,0.1855 0.753,0.5352 0.426,0.8291 0.261,1.1133 0.022,1.7676 c 0,0 0.163,0.0439 0.163,0.0439 0.448,-0.7969 0.939,-1.1562 1.626,-1.1562 0.709,0 1.2,0.4795 1.2,1.167 0,0.3925 -0.164,0.7851 -0.436,1.0586 C 2.248,3.208 1.942,3.3711 1.2,3.6328 c 0,0 0,0.1426 0,0.1426 z"
       id="path130"
       inkscape:connector-curvature="0" />
  </g>
  <g
     transform="translate(217.481,17.955498)"
     style="fill:#161413;fill-rule:evenodd;stroke:none"
     id="g132">
    <path
       d="m 5.018,4.8555 c 0,0 -1.113,0 -1.113,0 0,0 0,-4.8555 0,-4.8555 0,0 -0.479,0 -0.479,0 C 3.426,0 0,4.8555 0,4.8555 c 0,0 0,0.6972 0,0.6972 0,0 3.065,0 3.065,0 0,0 0,1.8223 0,1.8223 0,0 0.84,0 0.84,0 0,0 0,-1.8223 0,-1.8223 0,0 1.113,0 1.113,0 0,0 0,-0.6972 0,-0.6972 z m -1.963,0 c 0,0 -2.619,0 -2.619,0 0,0 2.619,-3.7422 2.619,-3.7422 0,0 0,3.7422 0,3.7422 z"
       id="path134"
       inkscape:connector-curvature="0" />
  </g>
  <g
     transform="translate(223.199,17.824598)"
     style="fill:#161413;fill-rule:evenodd;stroke:none"
     id="g136">
    <path
       d="m 1.626,1.1455 c 0,0 2.137,0 2.137,0 0.175,0 0.219,-0.0214 0.251,-0.0976 0,0 0.415,-0.9707 0.415,-0.9707 C 4.429,0.0772 4.331,0 4.331,0 4.168,0.2295 4.058,0.2842 3.829,0.2842 c 0,0 -2.28,0 -2.28,0 0,0 -1.189,2.585 -1.189,2.585 -0.011,0.0224 -0.011,0.0332 -0.011,0.0547 0,0.0547 0.044,0.0879 0.131,0.0879 0.349,0 0.785,0.0761 1.233,0.2177 1.254,0.4034 1.833,1.0801 1.833,2.1602 0,1.0469 -0.666,1.8652 -1.517,1.8652 C 1.811,7.2549 1.626,7.1788 1.298,6.9385 0.949,6.6875 0.698,6.5782 0.469,6.5782 0.153,6.5782 0,6.71 0,6.9825 0,7.3965 0.513,7.6582 1.331,7.6582 2.248,7.6582 3.033,7.3643 3.579,6.8077 4.08,6.3164 4.309,5.6954 4.309,4.8663 4.309,4.0801 4.102,3.5782 3.556,3.0332 3.077,2.5528 2.455,2.3018 1.168,2.0733 c 0,0 0.458,-0.9278 0.458,-0.9278 z"
       id="path138"
       inkscape:connector-curvature="0" />
  </g>
  <g
     transform="translate(228.471,17.868598)"
     style="fill:#161413;fill-rule:evenodd;stroke:none"
     id="g140">
    <path
       d="M 4.494,0 C 3.251,0.1094 2.618,0.3164 1.821,0.873 0.644,1.7129 0,2.956 0,4.418 0,5.3672 0.294,6.3271 0.764,6.873 1.178,7.3525 1.767,7.6142 2.443,7.6142 3.796,7.6142 4.734,6.5781 4.734,5.0732 4.734,3.6767 3.939,2.793 2.684,2.793 2.203,2.793 1.975,2.8691 1.287,3.2842 1.582,1.6367 2.804,0.458 4.517,0.1748 4.517,0.1748 4.494,0 4.494,0 z M 2.269,3.2949 c 0.938,0 1.484,0.7852 1.484,2.1484 0,1.2002 -0.426,1.8663 -1.189,1.8663 -0.96,0 -1.549,-1.0254 -1.549,-2.7168 0,-0.5567 0.087,-0.8614 0.304,-1.0254 0.23,-0.1748 0.568,-0.2725 0.95,-0.2725 z"
       id="path142"
       inkscape:connector-curvature="0" />
  </g>
  <g
     transform="translate(321.85,16.020897)"
     style="fill:#161413;fill-rule:nonzero;stroke:none"
     id="g144">
    <path
       d="m 0,13.5596 c 0,0 0.48,0 0.48,0 0,0 0,-13.5596 0,-13.5596 C 0.48,0 0,0 0,0"
       id="path146"
       inkscape:connector-curvature="0" />
  </g>
  <g
     transform="translate(370.561,17.955498)"
     style="fill:#161413;fill-rule:evenodd;stroke:none"
     id="g148">
    <path
       d="M 1.964,0 C 1.964,0 0,0.9932 0,0.9932 c 0,0 0,0.1523 0,0.1523 C 0.131,1.0918 0.251,1.0479 0.295,1.0264 0.491,0.9492 0.677,0.9062 0.785,0.9062 c 0.23,0 0.327,0.1631 0.327,0.5127 0,0 0,4.9415 0,4.9415 0,0.3603 -0.087,0.6113 -0.261,0.7089 -0.164,0.0987 -0.317,0.1309 -0.775,0.1416 0,0 0,0.1641 0,0.1641 0,0 3.011,0 3.011,0 0,0 0,-0.1641 0,-0.1641 C 2.226,7.2002 2.051,7.0918 2.051,6.5674 c 0,0 0,-6.5449 0,-6.5449 C 2.051,0.0225 1.964,0 1.964,0 z"
       id="path150"
       inkscape:connector-curvature="0" />
  </g>
  <g
     transform="translate(375.177,17.955498)"
     style="fill:#161413;fill-rule:evenodd;stroke:none"
     id="g152">
    <path
       d="m 4.855,5.8809 c 0,0 -0.142,-0.0547 -0.142,-0.0547 -0.403,0.6211 -0.546,0.7197 -1.036,0.7197 0,0 -2.608,0 -2.608,0 0,0 1.833,-1.9199 1.833,-1.9199 C 3.873,3.6113 4.298,2.7822 4.298,1.9316 4.298,0.8408 3.415,0 2.28,0 1.68,0 1.113,0.2402 0.709,0.6768 0.361,1.0479 0.196,1.3965 0.011,2.1709 c 0,0 0.229,0.0547 0.229,0.0547 0.437,-1.0684 0.829,-1.418 1.582,-1.418 0.916,0 1.539,0.6221 1.539,1.5381 0,0.8516 -0.502,1.8652 -1.418,2.8369 0,0 -1.943,2.0615 -1.943,2.0615 0,0 0,0.1309 0,0.1309 0,0 4.255,0 4.255,0 0,0 0.6,-1.4941 0.6,-1.4941 z"
       id="path154"
       inkscape:connector-curvature="0" />
  </g>
  <g
     transform="translate(380.569,17.955498)"
     style="fill:#161413;fill-rule:evenodd;stroke:none"
     id="g156">
    <path
       d="m 1.2,3.7754 c 0.643,0 0.894,0.0215 1.156,0.1191 0.677,0.2403 1.103,0.8623 1.103,1.6153 0,0.916 -0.622,1.625 -1.43,1.625 C 1.735,7.1348 1.516,7.0586 1.113,6.7969 0.786,6.6006 0.6,6.5244 0.415,6.5244 0.164,6.5244 0,6.6768 0,6.9062 0,7.2881 0.469,7.5273 1.233,7.5273 2.073,7.5273 2.934,7.2441 3.447,6.7969 3.96,6.3496 4.244,5.7168 4.244,4.9863 4.244,4.4297 4.069,3.917 3.753,3.5791 3.535,3.3389 3.327,3.208 2.847,3 3.6,2.4873 3.873,2.084 3.873,1.4951 3.873,0.6113 3.175,0 2.171,0 1.626,0 1.145,0.1855 0.753,0.5352 0.426,0.8291 0.261,1.1133 0.022,1.7676 c 0,0 0.163,0.0439 0.163,0.0439 0.448,-0.7969 0.939,-1.1562 1.626,-1.1562 0.709,0 1.2,0.4795 1.2,1.167 0,0.3925 -0.164,0.7851 -0.436,1.0586 C 2.248,3.208 1.942,3.3711 1.2,3.6328 c 0,0 0,0.1426 0,0.1426 z"
       id="path158"
       inkscape:connector-curvature="0" />
  </g>
  <g
     transform="translate(432.85,16.020897)"
     style="fill:#161413;fill-rule:nonzero;stroke:none"
     id="g160">
    <path
       d="m 0,13.5596 c 0,0 0.48,0 0.48,0 0,0 0,-13.5596 0,-13.5596 C 0.48,0 0,0 0,0"
       id="path162"
       inkscape:connector-curvature="0" />
  </g>
  <g
     transform="translate(1.6,29.350004)"
     style="fill:#161413;fill-rule:nonzero;stroke:none"
     id="g164">
    <path
       d="m 0,0.4805 c 0,0 431.76,0 431.76,0 0,0 0,-0.4805 0,-0.4805 C 431.76,0 0,0 0,0"
       id="path166"
       inkscape:connector-curvature="0" />
  </g>
  <g
     transform="translate(1.6,29.770904)"
     style="fill:#161413;fill-rule:nonzero;stroke:none"
     id="g168">
    <path
       d="m 0,13.5596 c 0,0 0.4805,0 0.4805,0 0,0 0,-13.5596 0,-13.5596 C 0.4805,0 0,0 0,0"
       id="path170"
       inkscape:connector-curvature="0" />
  </g>
  <g
     transform="translate(50.311,31.955505)"
     style="fill:#161413;fill-rule:evenodd;stroke:none"
     id="g172">
    <path
       d="M 1.964,0 C 1.964,0 0,0.9932 0,0.9932 c 0,0 0,0.1523 0,0.1523 C 0.131,1.0918 0.251,1.0479 0.295,1.0264 0.491,0.9492 0.677,0.9062 0.785,0.9062 c 0.23,0 0.327,0.1631 0.327,0.5127 0,0 0,4.9411 0,4.9411 0,0.361 -0.087,0.612 -0.261,0.709 C 0.687,7.168 0.534,7.2 0.076,7.211 c 0,0 0,0.164 0,0.164 0,0 3.011,0 3.011,0 0,0 0,-0.164 0,-0.164 C 2.226,7.2 2.051,7.092 2.051,6.567 c 0,0 0,-6.5445 0,-6.5445 C 2.051,0.0225 1.964,0 1.964,0 z"
       id="path174"
       inkscape:connector-curvature="0" />
  </g>
  <g
     transform="translate(54.677,31.955505)"
     style="fill:#161413;fill-rule:evenodd;stroke:none"
     id="g176">
    <path
       d="m 4.855,5.881 c 0,0 -0.142,-0.055 -0.142,-0.055 -0.403,0.621 -0.546,0.72 -1.036,0.72 0,0 -2.608,0 -2.608,0 0,0 1.833,-1.92 1.833,-1.92 C 3.873,3.6113 4.298,2.7822 4.298,1.9316 4.298,0.8408 3.415,0 2.28,0 1.68,0 1.113,0.2402 0.709,0.6768 0.361,1.0479 0.196,1.3965 0.011,2.1709 c 0,0 0.229,0.0547 0.229,0.0547 0.437,-1.0684 0.829,-1.418 1.582,-1.418 0.916,0 1.539,0.6221 1.539,1.5381 0,0.8516 -0.502,1.8652 -1.418,2.8373 0,0 -1.943,2.061 -1.943,2.061 0,0 0,0.131 0,0.131 0,0 4.255,0 4.255,0 0,0 0.6,-1.494 0.6,-1.494 z"
       id="path178"
       inkscape:connector-curvature="0" />
  </g>
  <g
     transform="translate(60.319,31.955505)"
     style="fill:#161413;fill-rule:evenodd;stroke:none"
     id="g180">
    <path
       d="m 1.2,3.7754 c 0.643,0 0.894,0.0215 1.156,0.1191 0.677,0.2403 1.103,0.8623 1.103,1.6155 0,0.916 -0.622,1.625 -1.43,1.625 C 1.735,7.135 1.516,7.059 1.113,6.797 0.786,6.601 0.6,6.524 0.415,6.524 0.164,6.524 0,6.677 0,6.906 0,7.288 0.469,7.527 1.233,7.527 2.073,7.527 2.934,7.244 3.447,6.797 3.96,6.35 4.244,5.717 4.244,4.986 4.244,4.4297 4.069,3.917 3.753,3.5791 3.535,3.3389 3.327,3.208 2.847,3 3.6,2.4873 3.873,2.084 3.873,1.4951 3.873,0.6113 3.175,0 2.171,0 1.626,0 1.145,0.1855 0.753,0.5352 0.426,0.8291 0.261,1.1133 0.022,1.7676 c 0,0 0.163,0.0439 0.163,0.0439 0.448,-0.7969 0.939,-1.1562 1.626,-1.1562 0.709,0 1.2,0.4795 1.2,1.167 0,0.3925 -0.164,0.7851 -0.436,1.0586 C 2.248,3.208 1.942,3.3711 1.2,3.6328 c 0,0 0,0.1426 0,0.1426 z"
       id="path182"
       inkscape:connector-curvature="0" />
  </g>
  <g
     transform="translate(112.6,29.770904)"
     style="fill:#161413;fill-rule:nonzero;stroke:none"
     id="g184">
    <path
       d="m 0,13.5596 c 0,0 0.48,0 0.48,0 0,0 0,-13.5596 0,-13.5596 C 0.48,0 0,0 0,0"
       id="path186"
       inkscape:connector-curvature="0" />
  </g>
  <g
     transform="translate(202.311,31.955505)"
     style="fill:#161413;fill-rule:evenodd;stroke:none"
     id="g188">
    <path
       d="M 1.964,0 C 1.964,0 0,0.9932 0,0.9932 c 0,0 0,0.1523 0,0.1523 C 0.131,1.0918 0.251,1.0479 0.295,1.0264 0.491,0.9492 0.677,0.9062 0.785,0.9062 c 0.23,0 0.327,0.1631 0.327,0.5127 0,0 0,4.9411 0,4.9411 0,0.361 -0.087,0.612 -0.261,0.709 C 0.687,7.168 0.534,7.2 0.076,7.211 c 0,0 0,0.164 0,0.164 0,0 3.011,0 3.011,0 0,0 0,-0.164 0,-0.164 C 2.226,7.2 2.051,7.092 2.051,6.567 c 0,0 0,-6.5445 0,-6.5445 C 2.051,0.0225 1.964,0 1.964,0 z"
       id="path190"
       inkscape:connector-curvature="0" />
  </g>
  <g
     transform="translate(206.677,31.955505)"
     style="fill:#161413;fill-rule:evenodd;stroke:none"
     id="g192">
    <path
       d="m 4.855,5.881 c 0,0 -0.142,-0.055 -0.142,-0.055 -0.403,0.621 -0.546,0.72 -1.036,0.72 0,0 -2.608,0 -2.608,0 0,0 1.833,-1.92 1.833,-1.92 C 3.873,3.6113 4.298,2.7822 4.298,1.9316 4.298,0.8408 3.415,0 2.28,0 1.68,0 1.113,0.2402 0.709,0.6768 0.361,1.0479 0.196,1.3965 0.011,2.1709 c 0,0 0.229,0.0547 0.229,0.0547 0.437,-1.0684 0.829,-1.418 1.582,-1.418 0.916,0 1.539,0.6221 1.539,1.5381 0,0.8516 -0.502,1.8652 -1.418,2.8373 0,0 -1.943,2.061 -1.943,2.061 0,0 0,0.131 0,0.131 0,0 4.255,0 4.255,0 0,0 0.6,-1.494 0.6,-1.494 z"
       id="path194"
       inkscape:connector-curvature="0" />
  </g>
  <g
     transform="translate(212.319,31.955505)"
     style="fill:#161413;fill-rule:evenodd;stroke:none"
     id="g196">
    <path
       d="m 1.2,3.7754 c 0.643,0 0.894,0.0215 1.156,0.1191 0.677,0.2403 1.103,0.8623 1.103,1.6155 0,0.916 -0.622,1.625 -1.43,1.625 C 1.735,7.135 1.516,7.059 1.113,6.797 0.786,6.601 0.6,6.524 0.415,6.524 0.164,6.524 0,6.677 0,6.906 0,7.288 0.469,7.527 1.233,7.527 2.073,7.527 2.934,7.244 3.447,6.797 3.96,6.35 4.244,5.717 4.244,4.986 4.244,4.4297 4.069,3.917 3.753,3.5791 3.535,3.3389 3.327,3.208 2.847,3 3.6,2.4873 3.873,2.084 3.873,1.4951 3.873,0.6113 3.175,0 2.171,0 1.626,0 1.145,0.1855 0.753,0.5352 0.426,0.8291 0.261,1.1133 0.022,1.7676 c 0,0 0.163,0.0439 0.163,0.0439 0.448,-0.7969 0.939,-1.1562 1.626,-1.1562 0.709,0 1.2,0.4795 1.2,1.167 0,0.3925 -0.164,0.7851 -0.436,1.0586 C 2.248,3.208 1.942,3.3711 1.2,3.6328 c 0,0 0,0.1426 0,0.1426 z"
       id="path198"
       inkscape:connector-curvature="0" />
  </g>
  <g
     transform="translate(217.481,31.955505)"
     style="fill:#161413;fill-rule:evenodd;stroke:none"
     id="g200">
    <path
       d="m 5.018,4.8555 c 0,0 -1.113,0 -1.113,0 0,0 0,-4.8555 0,-4.8555 0,0 -0.479,0 -0.479,0 C 3.426,0 0,4.8555 0,4.8555 c 0,0 0,0.6975 0,0.6975 0,0 3.065,0 3.065,0 0,0 0,1.822 0,1.822 0,0 0.84,0 0.84,0 0,0 0,-1.822 0,-1.822 0,0 1.113,0 1.113,0 0,0 0,-0.6975 0,-0.6975 z m -1.963,0 c 0,0 -2.619,0 -2.619,0 0,0 2.619,-3.7422 2.619,-3.7422 0,0 0,3.7422 0,3.7422 z"
       id="path202"
       inkscape:connector-curvature="0" />
  </g>
  <g
     transform="translate(223.199,31.824605)"
     style="fill:#161413;fill-rule:evenodd;stroke:none"
     id="g204">
    <path
       d="m 1.626,1.1455 c 0,0 2.137,0 2.137,0 0.175,0 0.219,-0.0214 0.251,-0.0976 0,0 0.415,-0.9707 0.415,-0.9707 C 4.429,0.0772 4.331,0 4.331,0 4.168,0.2295 4.058,0.2842 3.829,0.2842 c 0,0 -2.28,0 -2.28,0 0,0 -1.189,2.585 -1.189,2.585 -0.011,0.0224 -0.011,0.0332 -0.011,0.0547 0,0.0547 0.044,0.0879 0.131,0.0879 0.349,0 0.785,0.0761 1.233,0.2177 1.254,0.4034 1.833,1.0801 1.833,2.1604 0,1.047 -0.666,1.865 -1.517,1.865 -0.218,0 -0.403,-0.076 -0.731,-0.316 C 0.949,6.6879 0.698,6.5779 0.469,6.5779 0.153,6.5779 0,6.7099 0,6.9829 c 0,0.414 0.513,0.675 1.331,0.675 0.917,0 1.702,-0.294 2.248,-0.85 C 4.08,6.3169 4.309,5.6949 4.309,4.8663 4.309,4.0801 4.102,3.5782 3.556,3.0332 3.077,2.5528 2.455,2.3018 1.168,2.0733 c 0,0 0.458,-0.9278 0.458,-0.9278 z"
       id="path206"
       inkscape:connector-curvature="0" />
  </g>
  <g
     transform="translate(228.471,31.868605)"
     style="fill:#161413;fill-rule:evenodd;stroke:none"
     id="g208">
    <path
       d="M 4.494,0 C 3.251,0.1094 2.618,0.3164 1.821,0.873 0.644,1.7129 0,2.956 0,4.418 c 0,0.9489 0.294,1.9089 0.764,2.4549 0.414,0.48 1.003,0.741 1.679,0.741 1.353,0 2.291,-1.036 2.291,-2.541 C 4.734,3.6767 3.939,2.793 2.684,2.793 2.203,2.793 1.975,2.8691 1.287,3.2842 1.582,1.6367 2.804,0.458 4.517,0.1748 4.517,0.1748 4.494,0 4.494,0 z M 2.269,3.2949 c 0.938,0 1.484,0.7852 1.484,2.148 0,1.201 -0.426,1.867 -1.189,1.867 -0.96,0 -1.549,-1.026 -1.549,-2.7171 0,-0.5567 0.087,-0.8614 0.304,-1.0254 0.23,-0.1748 0.568,-0.2725 0.95,-0.2725 z"
       id="path210"
       inkscape:connector-curvature="0" />
  </g>
  <g
     transform="translate(321.85,29.770904)"
     style="fill:#161413;fill-rule:nonzero;stroke:none"
     id="g212">
    <path
       d="m 0,13.5596 c 0,0 0.48,0 0.48,0 0,0 0,-13.5596 0,-13.5596 C 0.48,0 0,0 0,0"
       id="path214"
       inkscape:connector-curvature="0" />
  </g>
  <g
     transform="translate(370.561,31.955505)"
     style="fill:#161413;fill-rule:evenodd;stroke:none"
     id="g216">
    <path
       d="M 1.964,0 C 1.964,0 0,0.9932 0,0.9932 c 0,0 0,0.1523 0,0.1523 C 0.131,1.0918 0.251,1.0479 0.295,1.0264 0.491,0.9492 0.677,0.9062 0.785,0.9062 c 0.23,0 0.327,0.1631 0.327,0.5127 0,0 0,4.9411 0,4.9411 0,0.361 -0.087,0.612 -0.261,0.709 C 0.687,7.168 0.534,7.2 0.076,7.211 c 0,0 0,0.164 0,0.164 0,0 3.011,0 3.011,0 0,0 0,-0.164 0,-0.164 C 2.226,7.2 2.051,7.092 2.051,6.567 c 0,0 0,-6.5445 0,-6.5445 C 2.051,0.0225 1.964,0 1.964,0 z"
       id="path218"
       inkscape:connector-curvature="0" />
  </g>
  <g
     transform="translate(375.177,31.955505)"
     style="fill:#161413;fill-rule:evenodd;stroke:none"
     id="g220">
    <path
       d="m 4.855,5.881 c 0,0 -0.142,-0.055 -0.142,-0.055 -0.403,0.621 -0.546,0.72 -1.036,0.72 0,0 -2.608,0 -2.608,0 0,0 1.833,-1.92 1.833,-1.92 C 3.873,3.6113 4.298,2.7822 4.298,1.9316 4.298,0.8408 3.415,0 2.28,0 1.68,0 1.113,0.2402 0.709,0.6768 0.361,1.0479 0.196,1.3965 0.011,2.1709 c 0,0 0.229,0.0547 0.229,0.0547 0.437,-1.0684 0.829,-1.418 1.582,-1.418 0.916,0 1.539,0.6221 1.539,1.5381 0,0.8516 -0.502,1.8652 -1.418,2.8373 0,0 -1.943,2.061 -1.943,2.061 0,0 0,0.131 0,0.131 0,0 4.255,0 4.255,0 0,0 0.6,-1.494 0.6,-1.494 z"
       id="path222"
       inkscape:connector-curvature="0" />
  </g>
  <g
     transform="translate(380.569,31.955505)"
     style="fill:#161413;fill-rule:evenodd;stroke:none"
     id="g224">
    <path
       d="m 1.2,3.7754 c 0.643,0 0.894,0.0215 1.156,0.1191 0.677,0.2403 1.103,0.8623 1.103,1.6155 0,0.916 -0.622,1.625 -1.43,1.625 C 1.735,7.135 1.516,7.059 1.113,6.797 0.786,6.601 0.6,6.524 0.415,6.524 0.164,6.524 0,6.677 0,6.906 0,7.288 0.469,7.527 1.233,7.527 2.073,7.527 2.934,7.244 3.447,6.797 3.96,6.35 4.244,5.717 4.244,4.986 4.244,4.4297 4.069,3.917 3.753,3.5791 3.535,3.3389 3.327,3.208 2.847,3 3.6,2.4873 3.873,2.084 3.873,1.4951 3.873,0.6113 3.175,0 2.171,0 1.626,0 1.145,0.1855 0.753,0.5352 0.426,0.8291 0.261,1.1133 0.022,1.7676 c 0,0 0.163,0.0439 0.163,0.0439 0.448,-0.7969 0.939,-1.1562 1.626,-1.1562 0.709,0 1.2,0.4795 1.2,1.167 0,0.3925 -0.164,0.7851 -0.436,1.0586 C 2.248,3.208 1.942,3.3711 1.2,3.6328 c 0,0 0,0.1426 0,0.1426 z"
       id="path226"
       inkscape:connector-curvature="0" />
  </g>
  <g
     transform="translate(432.85,29.770904)"
     style="fill:#161413;fill-rule:nonzero;stroke:none"
     id="g228">
    <path
       d="m 0,13.5596 c 0,0 0.48,0 0.48,0 0,0 0,-13.5596 0,-13.5596 C 0.48,0 0,0 0,0"
       id="path230"
       inkscape:connector-curvature="0" />
  </g>
  <g
     transform="translate(1.6,43.350505)"
     style="fill:#161413;fill-rule:nonzero;stroke:none"
     id="g232">
    <path
       d="m 0,0.48 c 0,0 431.76,0 431.76,0 0,0 0,-0.48 0,-0.48 C 431.76,0 0,0 0,0"
       id="path234"
       inkscape:connector-curvature="0" />
  </g>
</svg>
