<?xml version="1.0" encoding="UTF-8" standalone="no"?>
<svg
   xmlns:dc="http://purl.org/dc/elements/1.1/"
   xmlns:cc="http://creativecommons.org/ns#"
   xmlns:rdf="http://www.w3.org/1999/02/22-rdf-syntax-ns#"
   xmlns:svg="http://www.w3.org/2000/svg"
   xmlns="http://www.w3.org/2000/svg"
   xmlns:sodipodi="http://sodipodi.sourceforge.net/DTD/sodipodi-0.dtd"
   xmlns:inkscape="http://www.inkscape.org/namespaces/inkscape"
   width="67.724998"
   height="50.849998"
   viewBox="0 0 54.179999 40.679999"
   id="svg2"
   version="1.1"
   inkscape:version="0.48.0 r9654"
   sodipodi:docname="latex_source_code.ps(converted)-page1.svg">
  <metadata
     id="metadata68">
    <rdf:RDF>
      <cc:Work
         rdf:about="">
        <dc:format>image/svg+xml</dc:format>
        <dc:type
           rdf:resource="http://purl.org/dc/dcmitype/StillImage" />
        <dc:title></dc:title>
      </cc:Work>
    </rdf:RDF>
  </metadata>
  <defs
     id="defs66" />
  <sodipodi:namedview
     pagecolor="#ffffff"
     bordercolor="#666666"
     borderopacity="1"
     objecttolerance="10"
     gridtolerance="10"
     guidetolerance="10"
     inkscape:pageopacity="0"
     inkscape:pageshadow="2"
     inkscape:window-width="640"
     inkscape:window-height="480"
     id="namedview64"
     showgrid="false"
     fit-margin-top="2"
     fit-margin-right="2"
     fit-margin-bottom="2"
     fit-margin-left="2"
     inkscape:zoom="5.0540808"
     inkscape:cx="33.862499"
     inkscape:cy="25.424999"
     inkscape:window-x="0"
     inkscape:window-y="24"
     inkscape:window-maximized="0"
     inkscape:current-layer="svg2" />
  <g
     transform="translate(1.6,1.6)"
     style="fill:#161413;fill-rule:nonzero;stroke:none"
     id="g4">
    <path
       d="m 0,0.48 c 0,0 50.88,0 50.88,0 0,0 0,-0.48 0,-0.48 C 50.88,0 0,0 0,0"
       id="path6"
       inkscape:connector-curvature="0" />
  </g>
  <g
     transform="translate(8.487,3.695)"
     style="fill:#161413;fill-rule:evenodd;stroke:none"
     id="g8">
    <path
       d="M 2.042,0.259 C 2.042,0.02 2.042,0 1.813,0 1.195,0.638 0.318,0.638 0,0.638 c 0,0 0,0.309 0,0.309 0.199,0 0.787,0 1.304,-0.259 0,0 0,5.16 0,5.16 0,0.358 -0.029,0.478 -0.925,0.478 0,0 -0.32,0 -0.32,0 0,0 0,0.309 0,0.309 0,0 3.229,0 3.229,0 0,0 0,-0.309 0,-0.309 0,0 -0.32,0 -0.32,0 -0.896,0 -0.926,-0.109 -0.926,-0.478 0,0 0,-5.589 0,-5.589 z"
       id="path10"
       inkscape:connector-curvature="0" />
  </g>
  <g
     transform="translate(24.848,3.695)"
     style="fill:#161413;fill-rule:evenodd;stroke:none"
     id="g12">
    <path
       d="m 0.768,5.867 c 0,0 1.055,-1.025 1.055,-1.025 C 3.377,3.467 3.976,2.929 3.976,1.933 3.976,0.797 3.078,0 1.863,0 0.737,0 0,0.916 0,1.803 c 0,0.558 0.498,0.558 0.528,0.558 0.169,0 0.518,-0.12 0.518,-0.528 0,-0.259 -0.179,-0.518 -0.527,-0.518 -0.08,0 -0.1,0 -0.13,0.009 0.229,-0.647 0.766,-1.015 1.344,-1.015 0.908,0 1.335,0.806 1.335,1.624 0,0.797 -0.498,1.584 -1.045,2.201 0,0 -1.914,2.133 -1.914,2.133 C 0,6.376 0,6.396 0,6.635 c 0,0 3.696,0 3.696,0 0,0 0.28,-1.733 0.28,-1.733 0,0 -0.249,0 -0.249,0 C 3.677,5.2 3.606,5.639 3.507,5.788 3.438,5.867 2.779,5.867 2.561,5.867 c 0,0 -1.793,0 -1.793,0 z"
       id="path14"
       inkscape:connector-curvature="0" />
  </g>
  <g
     transform="translate(41.768,3.695)"
     style="fill:#161413;fill-rule:evenodd;stroke:none"
     id="g16">
    <path
       d="M 2.472,3.128 C 3.288,2.86 3.866,2.161 3.866,1.374 3.866,0.558 2.989,0 2.033,0 1.026,0 0.27,0.598 0.27,1.355 c 0,0.329 0.218,0.518 0.507,0.518 0.309,0 0.508,-0.219 0.508,-0.509 0,-0.498 -0.468,-0.498 -0.617,-0.498 0.309,-0.488 0.967,-0.617 1.325,-0.617 0.408,0 0.956,0.219 0.956,1.115 0,0.121 -0.019,0.698 -0.278,1.136 -0.3,0.479 -0.638,0.509 -0.887,0.519 -0.08,0.01 -0.319,0.029 -0.389,0.029 -0.08,0.011 -0.149,0.021 -0.149,0.12 0,0.11 0.069,0.11 0.239,0.11 0,0 0.438,0 0.438,0 0.817,0 1.185,0.677 1.185,1.654 0,1.354 -0.687,1.643 -1.125,1.643 C 1.555,6.575 0.808,6.406 0.459,5.818 0.808,5.867 1.116,5.649 1.116,5.27 1.116,4.911 0.848,4.712 0.559,4.712 0.319,4.712 0,4.852 0,5.29 0,6.197 0.927,6.854 2.013,6.854 3.228,6.854 4.135,5.947 4.135,4.932 4.135,4.114 3.507,3.337 2.472,3.128 z"
       id="path18"
       inkscape:connector-curvature="0" />
  </g>
  <g
     transform="translate(1.6,13.85)"
     style="fill:#161413;fill-rule:nonzero;stroke:none"
     id="g20">
    <path
       d="m 0,0.48 c 0,0 50.88,0 50.88,0 0,0 0,-0.48 0,-0.48 C 50.88,0 0,0 0,0"
       id="path22"
       inkscape:connector-curvature="0" />
  </g>
  <g
     transform="translate(7.879,16.085)"
     style="fill:#161413;fill-rule:evenodd;stroke:none"
     id="g24">
    <path
       d="m 2.65,5.101 c 0,0 0,0.867 0,0.867 0,0.359 -0.02,0.468 -0.757,0.468 0,0 -0.209,0 -0.209,0 0,0 0,0.309 0,0.309 0,0 2.699,0 2.699,0 0,0 0,-0.309 0,-0.309 0,0 -0.209,0 -0.209,0 -0.737,0 -0.757,-0.109 -0.757,-0.468 0,0 0,-0.867 0,-0.867 0,0 0.996,0 0.996,0 0,0 0,-0.309 0,-0.309 0,0 -0.996,0 -0.996,0 0,0 0,-4.532 0,-4.532 C 3.417,0.06 3.417,0 3.258,0 3.168,0 3.138,0 3.059,0.12 3.059,0.12 0,4.792 0,4.792 c 0,0 0,0.309 0,0.309 0,0 2.65,0 2.65,0 z M 2.71,4.792 c 0,0 -2.431,0 -2.431,0 0,0 2.431,-3.716 2.431,-3.716 0,0 0,3.716 0,3.716 z"
       id="path26"
       inkscape:connector-curvature="0" />
  </g>
  <g
     transform="translate(24.848,16.195)"
     style="fill:#161413;fill-rule:evenodd;stroke:none"
     id="g28">
    <path
       d="M 3.976,4.632 C 3.976,3.447 3.158,2.45 2.082,2.45 c -0.477,0 -0.906,0.161 -1.265,0.509 0,0 0,-1.943 0,-1.943 0.2,0.059 0.528,0.13 0.847,0.13 C 2.89,1.146 3.587,0.239 3.587,0.11 3.587,0.05 3.557,0 3.487,0 3.477,0 3.457,0 3.407,0.03 3.208,0.119 2.72,0.319 2.053,0.319 1.654,0.319 1.195,0.249 0.728,0.039 0.648,0.01 0.628,0.01 0.607,0.01 c -0.099,0 -0.099,0.079 -0.099,0.239 0,0 0,2.948 0,2.948 0,0.18 0,0.26 0.14,0.26 0.07,0 0.089,-0.03 0.129,-0.09 0.11,-0.159 0.479,-0.697 1.286,-0.697 0.517,0 0.766,0.458 0.846,0.638 0.159,0.368 0.18,0.757 0.18,1.255 0,0.348 0,0.946 -0.239,1.365 C 2.61,6.317 2.241,6.575 1.783,6.575 1.056,6.575 0.488,6.047 0.319,5.459 0.349,5.469 0.379,5.48 0.488,5.48 0.817,5.48 0.986,5.231 0.986,4.991 0.986,4.752 0.817,4.503 0.488,4.503 0.349,4.503 0,4.573 0,5.031 c 0,0.857 0.688,1.823 1.804,1.823 1.155,0 2.172,-0.956 2.172,-2.222 z"
       id="path30"
       inkscape:connector-curvature="0" />
  </g>
  <g
     transform="translate(41.768,16.195)"
     style="fill:#161413;fill-rule:evenodd;stroke:none"
     id="g32">
    <path
       d="m 0.897,3.367 c 0,0 0,-0.239 0,-0.239 0,-2.52 1.236,-2.879 1.744,-2.879 0.239,0 0.657,0.06 0.877,0.399 -0.15,0 -0.548,0 -0.548,0.448 0,0.309 0.238,0.458 0.458,0.458 0.159,0 0.458,-0.09 0.458,-0.479 C 3.886,0.478 3.447,0 2.621,0 1.346,0 0,1.285 0,3.487 c 0,2.66 1.156,3.367 2.083,3.367 1.105,0 2.052,-0.937 2.052,-2.251 0,-1.266 -0.887,-2.222 -1.992,-2.222 -0.678,0 -1.046,0.508 -1.246,0.986 z M 2.083,6.575 C 1.455,6.575 1.156,5.978 1.097,5.828 0.917,5.36 0.917,4.563 0.917,4.383 c 0,-0.776 0.318,-1.772 1.216,-1.772 0.159,0 0.617,0 0.926,0.617 0.179,0.368 0.179,0.877 0.179,1.365 0,0.478 0,0.976 -0.169,1.335 C 2.77,6.526 2.311,6.575 2.083,6.575 z"
       id="path34"
       inkscape:connector-curvature="0" />
  </g>
  <g
     transform="translate(52.1,14.33)"
     style="fill:#161413;fill-rule:nonzero;stroke:none"
     id="g36">
    <path
       d="m 0,12 c 0,0 0.48,0 0.48,0 0,0 0,-12 0,-12 C 0.48,0 0,0 0,0"
       id="path38"
       inkscape:connector-curvature="0" />
  </g>
  <g
     transform="translate(1.6,26.35)"
     style="fill:#161413;fill-rule:nonzero;stroke:none"
     id="g40">
    <path
       d="m 0,0.48 c 0,0 50.88,0 50.88,0 0,0 0,-0.48 0,-0.48 C 50.88,0 0,0 0,0"
       id="path42"
       inkscape:connector-curvature="0" />
  </g>
  <g
     transform="translate(8.158,28.346)"
     style="fill:#161413;fill-rule:evenodd;stroke:none"
     id="g44">
    <path
       d="m 4.184,0.667 c 0.09,-0.12 0.09,-0.14 0.09,-0.349 0,0 -2.421,0 -2.421,0 C 0.637,0.318 0.618,0.188 0.578,0 0.578,0 0.329,0 0.329,0 0.329,0 0,2.051 0,2.051 c 0,0 0.249,0 0.249,0 0.03,-0.159 0.12,-0.787 0.249,-0.906 0.07,-0.059 0.847,-0.059 0.976,-0.059 0,0 2.063,0 2.063,0 C 3.427,1.245 2.64,2.331 2.421,2.659 1.524,4.005 1.196,5.389 1.196,6.405 c 0,0.1 0,0.548 0.458,0.548 0.458,0 0.458,-0.448 0.458,-0.548 0,0 0,-0.508 0,-0.508 0,-0.548 0.03,-1.096 0.109,-1.634 0.04,-0.229 0.18,-1.086 0.618,-1.704 0,0 1.345,-1.892 1.345,-1.892 z"
       id="path46"
       inkscape:connector-curvature="0" />
  </g>
  <g
     transform="translate(24.768,28.445)"
     style="fill:#161413;fill-rule:evenodd;stroke:none"
     id="g48">
    <path
       d="M 1.206,2.082 C 0.748,1.783 0.708,1.445 0.708,1.275 c 0,-0.608 0.647,-1.026 1.354,-1.026 0.728,0 1.366,0.518 1.366,1.236 0,0.567 -0.389,1.046 -0.987,1.394 0,0 -1.235,-0.797 -1.235,-0.797 z M 2.66,3.029 C 3.378,2.66 3.866,2.142 3.866,1.485 3.866,0.568 2.979,0 2.072,0 1.076,0 0.27,0.738 0.27,1.663 0.27,1.843 0.289,2.291 0.708,2.76 0.817,2.879 1.186,3.128 1.436,3.297 0.857,3.586 0,4.145 0,5.131 0,6.187 1.017,6.854 2.062,6.854 3.188,6.854 4.135,6.028 4.135,4.961 4.135,4.603 4.025,4.155 3.646,3.736 3.457,3.527 3.298,3.427 2.66,3.029 z M 1.664,3.447 c 0,0 1.226,0.777 1.226,0.777 0.279,0.189 0.747,0.488 0.747,1.096 0,0.737 -0.747,1.255 -1.565,1.255 -0.856,0 -1.573,-0.618 -1.573,-1.444 0,-0.578 0.318,-1.216 1.165,-1.684 z"
       id="path50"
       inkscape:connector-curvature="0" />
  </g>
  <g
     transform="translate(41.768,28.445)"
     style="fill:#161413;fill-rule:evenodd;stroke:none"
     id="g52">
    <path
       d="m 3.238,3.467 c 0,0 0,0.318 0,0.318 0,2.332 -1.036,2.79 -1.614,2.79 -0.169,0 -0.707,-0.02 -0.976,-0.358 0.438,0 0.518,-0.289 0.518,-0.459 C 1.166,5.449 0.927,5.3 0.708,5.3 0.549,5.3 0.25,5.39 0.25,5.779 c 0,0.667 0.537,1.075 1.385,1.075 1.285,0 2.5,-1.355 2.5,-3.496 C 4.135,0.677 2.989,0 2.103,0 1.555,0 1.066,0.179 0.638,0.627 0.229,1.075 0,1.494 0,2.241 0,3.487 0.877,4.463 1.993,4.463 2.601,4.463 3.009,4.045 3.238,3.467 z M 2.003,4.234 c -0.159,0 -0.617,0 -0.927,-0.627 C 0.897,3.238 0.897,2.739 0.897,2.251 c 0,-0.538 0,-1.006 0.209,-1.375 0.269,-0.498 0.648,-0.627 0.997,-0.627 0.458,0 0.787,0.339 0.956,0.787 0.12,0.319 0.16,0.947 0.16,1.405 0,0.827 -0.339,1.793 -1.216,1.793 z"
       id="path54"
       inkscape:connector-curvature="0" />
  </g>
  <g
     transform="translate(1.6,38.6)"
     style="fill:#161413;fill-rule:nonzero;stroke:none"
     id="g56">
    <path
       d="m 0,0.48 c 0,0 50.88,0 50.88,0 0,0 0,-0.48 0,-0.48 C 50.88,0 0,0 0,0"
       id="path58"
       inkscape:connector-curvature="0" />
  </g>
</svg>
