<?xml version="1.0" encoding="UTF-8" standalone="no"?>
<svg
   xmlns:dc="http://purl.org/dc/elements/1.1/"
   xmlns:cc="http://creativecommons.org/ns#"
   xmlns:rdf="http://www.w3.org/1999/02/22-rdf-syntax-ns#"
   xmlns:svg="http://www.w3.org/2000/svg"
   xmlns="http://www.w3.org/2000/svg"
   xmlns:sodipodi="http://sodipodi.sourceforge.net/DTD/sodipodi-0.dtd"
   xmlns:inkscape="http://www.inkscape.org/namespaces/inkscape"
   width="213.39999"
   height="110.225"
   viewBox="0 0 170.72 88.179999"
   id="svg2"
   version="1.1"
   inkscape:version="0.48.0 r9654"
   sodipodi:docname="latex_source_code.ps(converted)-page1.svg">
  <metadata
     id="metadata428">
    <rdf:RDF>
      <cc:Work
         rdf:about="">
        <dc:format>image/svg+xml</dc:format>
        <dc:type
           rdf:resource="http://purl.org/dc/dcmitype/StillImage" />
        <dc:title></dc:title>
      </cc:Work>
    </rdf:RDF>
  </metadata>
  <defs
     id="defs426" />
  <sodipodi:namedview
     pagecolor="#ffffff"
     bordercolor="#666666"
     borderopacity="1"
     objecttolerance="10"
     gridtolerance="10"
     guidetolerance="10"
     inkscape:pageopacity="0"
     inkscape:pageshadow="2"
     inkscape:window-width="640"
     inkscape:window-height="480"
     id="namedview424"
     showgrid="false"
     fit-margin-top="2"
     fit-margin-right="2"
     fit-margin-bottom="2"
     fit-margin-left="2"
     inkscape:zoom="0.24418052"
     inkscape:cx="188.5625"
     inkscape:cy="-262.0625"
     inkscape:window-x="0"
     inkscape:window-y="24"
     inkscape:window-maximized="0"
     inkscape:current-layer="svg2" />
  <g
     transform="translate(1.6,1.6)"
     style="fill:#161413;fill-rule:nonzero;stroke:none"
     id="g4">
    <path
       d="m 0,0.48 c 0,0 167.52,0 167.52,0 0,0 0,-0.48 0,-0.48 C 167.52,0 0,0 0,0"
       id="path6"
       inkscape:connector-curvature="0" />
  </g>
  <g
     transform="translate(50.379,3.525)"
     style="fill:#161413;fill-rule:evenodd;stroke:none"
     id="g8">
    <path
       d="m 1.962,0.778 c 0,-0.359 0.03,-0.469 0.818,-0.469 0,0 0.258,0 0.258,0 0,0 0,-0.309 0,-0.309 C 3.038,0 0,0 0,0 c 0,0 0,0.309 0,0.309 0,0 0.259,0 0.259,0 0.787,0 0.816,0.11 0.816,0.469 0,0 0,5.25 0,5.25 0,0.359 -0.029,0.468 -0.816,0.468 0,0 -0.259,0 -0.259,0 0,0 0,0.309 0,0.309 0,0 3.038,0 3.038,0 0,0 0,-0.309 0,-0.309 0,0 -0.258,0 -0.258,0 -0.788,0 -0.818,-0.109 -0.818,-0.468 0,0 0,-5.25 0,-5.25 z"
       id="path10"
       inkscape:connector-curvature="0" />
  </g>
  <g
     transform="translate(53.789,4.203)"
     style="fill:#161413;fill-rule:evenodd;stroke:none"
     id="g12">
    <path
       d="m 1.535,2.142 c 0,0 1.424,0 1.424,0 0,0 0,-0.309 0,-0.309 0,0 -1.424,0 -1.424,0 0,0 0,-1.833 0,-1.833 0,0 -0.249,0 -0.249,0 C 1.276,0.816 0.977,1.883 0,1.923 c 0,0 0,0.219 0,0.219 0,0 0.847,0 0.847,0 0,0 0,2.75 0,2.75 0,1.225 0.927,1.344 1.285,1.344 0.707,0 0.987,-0.707 0.987,-1.344 0,0 0,-0.569 0,-0.569 0,0 -0.249,0 -0.249,0 0,0 0,0.549 0,0.549 0,0.737 -0.299,1.115 -0.668,1.115 -0.667,0 -0.667,-0.906 -0.667,-1.076 0,0 0,-2.769 0,-2.769 z"
       id="path14"
       inkscape:connector-curvature="0" />
  </g>
  <g
     transform="translate(57.629,5.867)"
     style="fill:#161413;fill-rule:evenodd;stroke:none"
     id="g16">
    <path
       d="m 0.837,1.952 c 0.06,-1.484 0.897,-1.733 1.236,-1.733 1.025,0 1.125,1.345 1.125,1.733 0,0 -2.361,0 -2.361,0 z M 0.826,2.161 c 0,0 2.781,0 2.781,0 0.218,0 0.249,0 0.249,-0.209 C 3.856,0.966 3.318,0 2.073,0 0.916,0 0,1.025 0,2.272 c 0,1.335 1.046,2.3 2.192,2.3 1.216,0 1.664,-1.105 1.664,-1.295 0,-0.099 -0.08,-0.119 -0.13,-0.119 -0.09,0 -0.109,0.06 -0.13,0.139 C 3.247,4.323 2.351,4.323 2.251,4.323 1.753,4.323 1.355,4.025 1.125,3.656 0.826,3.178 0.826,2.521 0.826,2.161 z"
       id="path18"
       inkscape:connector-curvature="0" />
  </g>
  <g
     transform="translate(62.168,5.927)"
     style="fill:#161413;fill-rule:evenodd;stroke:none"
     id="g20">
    <path
       d="m 0.778,0.976 c 0,0 0,2.67 0,2.67 0,0.448 -0.11,0.448 -0.778,0.448 0,0 0,0.309 0,0.309 0,0 2.243,0 2.243,0 0,0 0,-0.309 0,-0.309 -0.668,0 -0.778,0 -0.778,-0.448 0,0 0,-1.833 0,-1.833 0,-1.036 0.707,-1.595 1.345,-1.595 0.628,0 0.737,0.539 0.737,1.107 0,0 0,2.321 0,2.321 0,0.448 -0.109,0.448 -0.776,0.448 0,0 0,0.309 0,0.309 0,0 2.241,0 2.241,0 0,0 0,-0.309 0,-0.309 -0.668,0 -0.777,0 -0.777,-0.448 0,0 0,-1.833 0,-1.833 0,-1.036 0.708,-1.595 1.344,-1.595 0.628,0 0.738,0.539 0.738,1.107 0,0 0,2.321 0,2.321 0,0.448 -0.11,0.448 -0.777,0.448 0,0 0,0.309 0,0.309 0,0 2.242,0 2.242,0 0,0 0,-0.309 0,-0.309 -0.518,0 -0.768,0 -0.778,-0.298 0,0 0,-1.904 0,-1.904 0,-0.856 0,-1.165 -0.308,-1.524 C 6.556,0.199 6.228,0 5.65,0 4.813,0 4.374,0.597 4.205,0.976 4.066,0.109 3.328,0 2.88,0 2.153,0 1.685,0.428 1.406,1.046 c 0,0 0,-1.046 0,-1.046 C 1.406,0 0,0.109 0,0.109 c 0,0 0,0.309 0,0.309 0.699,0 0.778,0.07 0.778,0.558 z"
       id="path22"
       inkscape:connector-curvature="0" />
  </g>
  <g
     transform="translate(1.6,13.85)"
     style="fill:#161413;fill-rule:nonzero;stroke:none"
     id="g24">
    <path
       d="m 0,0.48 c 0,0 117.24,0 117.24,0 0,0 0,-0.48 0,-0.48 C 117.24,0 0,0 0,0"
       id="path26"
       inkscape:connector-curvature="0" />
  </g>
  <g
     transform="translate(7.918,15.197)"
     style="fill:#161413;fill-rule:evenodd;stroke:none"
     id="g28">
    <path
       d="M 3.647,0.199 C 3.597,0.07 3.578,0 3.418,0 3.258,0 3.229,0.06 3.179,0.199 c 0,0 -2.062,5.957 -2.062,5.957 C 0.937,6.665 0.538,6.815 0,6.824 c 0,0 0,0.309 0,0.309 0,0 2.162,0 2.162,0 0,0 0,-0.309 0,-0.309 -0.498,0 -0.747,-0.249 -0.747,-0.508 0,-0.03 0.01,-0.129 0.021,-0.15 0,0 0.458,-1.304 0.458,-1.304 0,0 2.461,0 2.461,0 0,0 0.527,1.524 0.527,1.524 0.011,0.04 0.03,0.1 0.03,0.14 0,0.298 -0.557,0.298 -0.827,0.298 0,0 0,0.309 0,0.309 0,0 2.741,0 2.741,0 0,0 0,-0.309 0,-0.309 0,0 -0.18,0 -0.18,0 -0.598,0 -0.737,-0.07 -0.847,-0.398 0,0 -2.152,-6.227 -2.152,-6.227 z M 3.12,1.315 c 0,0 1.124,3.238 1.124,3.238 0,0 -2.241,0 -2.241,0 0,0 1.117,-3.238 1.117,-3.238 z"
       id="path30"
       inkscape:connector-curvature="0" />
  </g>
  <g
     transform="translate(15.168,17.927)"
     style="fill:#161413;fill-rule:evenodd;stroke:none"
     id="g32">
    <path
       d="m 0.778,0.976 c 0,0 0,2.67 0,2.67 0,0.448 -0.11,0.448 -0.778,0.448 0,0 0,0.309 0,0.309 0,0 2.243,0 2.243,0 0,0 0,-0.309 0,-0.309 -0.668,0 -0.778,0 -0.778,-0.448 0,0 0,-1.833 0,-1.833 0,-1.036 0.707,-1.595 1.345,-1.595 0.628,0 0.737,0.539 0.737,1.107 0,0 0,2.321 0,2.321 0,0.448 -0.109,0.448 -0.776,0.448 0,0 0,0.309 0,0.309 0,0 2.241,0 2.241,0 0,0 0,-0.309 0,-0.309 -0.518,0 -0.768,0 -0.777,-0.298 0,0 0,-1.904 0,-1.904 0,-0.856 0,-1.165 -0.309,-1.524 C 3.786,0.199 3.457,0 2.88,0 2.153,0 1.685,0.428 1.406,1.046 c 0,0 0,-1.046 0,-1.046 C 1.406,0 0,0.109 0,0.109 c 0,0 0,0.309 0,0.309 0.699,0 0.778,0.07 0.778,0.558 z"
       id="path34"
       inkscape:connector-curvature="0" />
  </g>
  <g
     transform="translate(20.929,15.665)"
     style="fill:#161413;fill-rule:evenodd;stroke:none"
     id="g36">
    <path
       d="m 1.435,2.262 c 0,0 -1.396,0.109 -1.396,0.109 0,0 0,0.309 0,0.309 0.649,0 0.737,0.06 0.737,0.547 0,0 0,2.681 0,2.681 0,0.448 -0.109,0.448 -0.776,0.448 0,0 0,0.309 0,0.309 0,0 2.132,0 2.132,0 0,0 0,-0.309 0,-0.309 -0.657,0 -0.697,-0.049 -0.697,-0.438 0,0 0,-3.656 0,-3.656 z M 1.475,0.528 C 1.475,0.209 1.225,0 0.946,0 0.638,0 0.418,0.269 0.418,0.528 c 0,0.269 0.22,0.528 0.528,0.528 0.279,0 0.529,-0.209 0.529,-0.528 z"
       id="path38"
       inkscape:connector-curvature="0" />
  </g>
  <g
     transform="translate(23.668,17.927)"
     style="fill:#161413;fill-rule:evenodd;stroke:none"
     id="g40">
    <path
       d="m 0.778,0.976 c 0,0 0,2.67 0,2.67 0,0.448 -0.11,0.448 -0.778,0.448 0,0 0,0.309 0,0.309 0,0 2.243,0 2.243,0 0,0 0,-0.309 0,-0.309 -0.668,0 -0.778,0 -0.778,-0.448 0,0 0,-1.833 0,-1.833 0,-1.036 0.707,-1.595 1.345,-1.595 0.628,0 0.737,0.539 0.737,1.107 0,0 0,2.321 0,2.321 0,0.448 -0.109,0.448 -0.776,0.448 0,0 0,0.309 0,0.309 0,0 2.241,0 2.241,0 0,0 0,-0.309 0,-0.309 -0.668,0 -0.777,0 -0.777,-0.448 0,0 0,-1.833 0,-1.833 0,-1.036 0.708,-1.595 1.344,-1.595 0.628,0 0.738,0.539 0.738,1.107 0,0 0,2.321 0,2.321 0,0.448 -0.11,0.448 -0.777,0.448 0,0 0,0.309 0,0.309 0,0 2.242,0 2.242,0 0,0 0,-0.309 0,-0.309 -0.518,0 -0.768,0 -0.778,-0.298 0,0 0,-1.904 0,-1.904 0,-0.856 0,-1.165 -0.308,-1.524 C 6.556,0.199 6.228,0 5.65,0 4.813,0 4.374,0.597 4.205,0.976 4.066,0.109 3.328,0 2.88,0 2.153,0 1.685,0.428 1.406,1.046 c 0,0 0,-1.046 0,-1.046 C 1.406,0 0,0.109 0,0.109 c 0,0 0,0.309 0,0.309 0.699,0 0.778,0.07 0.778,0.558 z"
       id="path42"
       inkscape:connector-curvature="0" />
  </g>
  <g
     transform="translate(32.018,17.867)"
     style="fill:#161413;fill-rule:evenodd;stroke:none"
     id="g44">
    <path
       d="m 2.899,3.706 c 0.04,0.399 0.309,0.817 0.778,0.817 0.209,0 0.816,-0.14 0.816,-0.947 0,0 0,-0.557 0,-0.557 0,0 -0.249,0 -0.249,0 0,0 0,0.557 0,0.557 0,0.578 -0.249,0.638 -0.358,0.638 -0.329,0 -0.368,-0.448 -0.368,-0.498 0,0 0,-1.992 0,-1.992 0,-0.419 0,-0.808 -0.36,-1.176 C 2.77,0.159 2.271,0 1.794,0 0.977,0 0.289,0.468 0.289,1.125 c 0,0.299 0.199,0.469 0.459,0.469 0.278,0 0.458,-0.199 0.458,-0.458 0,-0.12 -0.05,-0.448 -0.508,-0.459 0.269,-0.349 0.757,-0.458 1.075,-0.458 0.489,0 1.057,0.389 1.057,1.275 0,0 0,0.368 0,0.368 C 2.321,1.893 1.624,1.923 0.997,2.222 0.25,2.56 0,3.078 0,3.517 0,4.323 0.967,4.572 1.595,4.572 2.252,4.572 2.71,4.174 2.899,3.706 z M 2.83,2.072 c 0,0 0,0.996 0,0.996 0,0.947 -0.718,1.286 -1.166,1.286 -0.488,0 -0.896,-0.349 -0.896,-0.847 0,-0.548 0.418,-1.375 2.062,-1.435 z"
       id="path46"
       inkscape:connector-curvature="0" />
  </g>
  <g
     transform="translate(36.929,15.416)"
     style="fill:#161413;fill-rule:evenodd;stroke:none"
     id="g48">
    <path
       d="M 1.435,0 C 1.435,0 0,0.109 0,0.109 c 0,0 0,0.309 0,0.309 0.697,0 0.776,0.07 0.776,0.558 0,0 0,5.181 0,5.181 0,0.448 -0.109,0.448 -0.776,0.448 0,0 0,0.309 0,0.309 0,0 2.211,0 2.211,0 0,0 0,-0.309 0,-0.309 -0.667,0 -0.776,0 -0.776,-0.448 0,0 0,-6.157 0,-6.157 z"
       id="path50"
       inkscape:connector-curvature="0" />
  </g>
  <g
     transform="translate(63.199,15.525)"
     style="fill:#161413;fill-rule:evenodd;stroke:none"
     id="g52">
    <path
       d="m 0,0 c 0,0 0,0.309 0,0.309 0,0 0.239,0 0.239,0 0.766,0 0.787,0.11 0.787,0.469 0,0 0,5.25 0,5.25 0,0.359 -0.021,0.468 -0.787,0.468 0,0 -0.239,0 -0.239,0 0,0 0,0.309 0,0.309 0,0 3.646,0 3.646,0 C 5.32,6.805 6.695,5.33 6.695,3.457 6.695,1.565 5.349,0 3.646,0 3.646,0 0,0 0,0 z m 2.371,6.496 c -0.468,0 -0.489,-0.07 -0.489,-0.398 0,0 0,-5.39 0,-5.39 0,-0.329 0.021,-0.399 0.489,-0.399 0,0 0.996,0 0.996,0 0.618,0 1.305,0.22 1.813,0.927 0.429,0.588 0.518,1.444 0.518,2.221 0,1.107 -0.189,1.704 -0.548,2.193 -0.199,0.268 -0.767,0.846 -1.773,0.846 0,0 -1.006,0 -1.006,0 z"
       id="path54"
       inkscape:connector-curvature="0" />
  </g>
  <g
     transform="translate(70.879,17.867)"
     style="fill:#161413;fill-rule:evenodd;stroke:none"
     id="g56">
    <path
       d="m 0.837,1.952 c 0.06,-1.484 0.897,-1.733 1.236,-1.733 1.025,0 1.125,1.345 1.125,1.733 0,0 -2.361,0 -2.361,0 z M 0.826,2.161 c 0,0 2.781,0 2.781,0 0.218,0 0.249,0 0.249,-0.209 C 3.856,0.966 3.318,0 2.073,0 0.916,0 0,1.025 0,2.272 c 0,1.335 1.046,2.3 2.192,2.3 1.216,0 1.664,-1.105 1.664,-1.295 0,-0.099 -0.08,-0.119 -0.13,-0.119 -0.09,0 -0.109,0.06 -0.13,0.139 C 3.247,4.323 2.351,4.323 2.251,4.323 1.753,4.323 1.355,4.025 1.125,3.656 0.826,3.178 0.826,2.521 0.826,2.161 z"
       id="path58"
       inkscape:connector-curvature="0" />
  </g>
  <g
     transform="translate(75.179,17.867)"
     style="fill:#161413;fill-rule:evenodd;stroke:none"
     id="g60">
    <path
       d="m 1.743,2.53 c 0.219,0.04 1.036,0.2 1.036,0.916 0,0.509 -0.348,0.908 -1.126,0.908 C 0.817,4.354 0.458,3.785 0.269,2.939 0.239,2.81 0.229,2.77 0.129,2.77 0,2.77 0,2.839 0,3.019 c 0,0 0,1.314 0,1.314 0,0.17 0,0.239 0.109,0.239 0.05,0 0.06,-0.009 0.25,-0.199 C 0.378,4.354 0.378,4.333 0.558,4.145 0.996,4.563 1.444,4.572 1.653,4.572 2.799,4.572 3.258,3.905 3.258,3.188 3.258,2.659 2.959,2.36 2.839,2.241 2.51,1.923 2.122,1.843 1.703,1.763 1.146,1.653 0.478,1.524 0.478,0.946 c 0,-0.348 0.259,-0.757 1.116,-0.757 1.096,0 1.145,0.897 1.166,1.206 0.01,0.089 0.099,0.089 0.119,0.089 0.13,0 0.13,-0.049 0.13,-0.239 0,0 0,-1.007 0,-1.007 C 3.009,0.069 3.009,0 2.899,0 2.849,0 2.829,0 2.699,0.119 2.67,0.159 2.57,0.249 2.53,0.278 2.151,0 1.743,0 1.594,0 0.378,0 0,0.667 0,1.225 0,1.574 0.159,1.853 0.428,2.072 0.747,2.331 1.025,2.391 1.743,2.53 z"
       id="path62"
       inkscape:connector-curvature="0" />
  </g>
  <g
     transform="translate(79.189,17.867)"
     style="fill:#161413;fill-rule:evenodd;stroke:none"
     id="g64">
    <path
       d="m 0.827,2.291 c 0,-1.624 0.816,-2.042 1.345,-2.042 0.09,0 0.717,0.01 1.065,0.368 -0.408,0.031 -0.468,0.329 -0.468,0.458 0,0.26 0.18,0.459 0.458,0.459 0.259,0 0.459,-0.17 0.459,-0.468 C 3.686,0.388 2.929,0 2.162,0 0.916,0 0,1.075 0,2.311 c 0,1.275 0.986,2.261 2.141,2.261 1.335,0 1.655,-1.195 1.655,-1.295 0,-0.099 -0.1,-0.099 -0.13,-0.099 -0.09,0 -0.109,0.04 -0.13,0.099 C 3.248,4.204 2.6,4.323 2.231,4.323 1.703,4.323 0.827,3.896 0.827,2.291 z"
       id="path66"
       inkscape:connector-curvature="0" />
  </g>
  <g
     transform="translate(83.629,17.927)"
     style="fill:#161413;fill-rule:evenodd;stroke:none"
     id="g68">
    <path
       d="m 1.385,1.095 c 0,0 0,-1.095 0,-1.095 C 1.385,0 0,0.109 0,0.109 c 0,0 0,0.309 0,0.309 0.698,0 0.777,0.07 0.777,0.558 0,0 0,2.67 0,2.67 0,0.448 -0.11,0.448 -0.777,0.448 0,0 0,0.309 0,0.309 0,0 2.401,0 2.401,0 0,0 0,-0.309 0,-0.309 0,0 -0.209,0 -0.209,0 -0.738,0 -0.757,-0.109 -0.757,-0.468 0,0 0,-1.535 0,-1.535 0,-0.986 0.418,-1.873 1.176,-1.873 0.069,0 0.089,0 0.109,0.01 -0.03,0.011 -0.229,0.13 -0.229,0.389 0,0.279 0.209,0.429 0.428,0.429 0.179,0 0.428,-0.12 0.428,-0.439 C 3.347,0.289 3.038,0 2.611,0 1.883,0 1.525,0.667 1.385,1.095 z"
       id="path70"
       inkscape:connector-curvature="0" />
  </g>
  <g
     transform="translate(87.679,15.665)"
     style="fill:#161413;fill-rule:evenodd;stroke:none"
     id="g72">
    <path
       d="m 1.435,2.262 c 0,0 -1.396,0.109 -1.396,0.109 0,0 0,0.309 0,0.309 0.649,0 0.737,0.06 0.737,0.547 0,0 0,2.681 0,2.681 0,0.448 -0.109,0.448 -0.776,0.448 0,0 0,0.309 0,0.309 0,0 2.132,0 2.132,0 0,0 0,-0.309 0,-0.309 -0.657,0 -0.697,-0.049 -0.697,-0.438 0,0 0,-3.656 0,-3.656 z M 1.475,0.528 C 1.475,0.209 1.225,0 0.946,0 0.638,0 0.418,0.269 0.418,0.528 c 0,0.269 0.22,0.528 0.528,0.528 0.279,0 0.529,-0.209 0.529,-0.528 z"
       id="path74"
       inkscape:connector-curvature="0" />
  </g>
  <g
     transform="translate(90.379,17.927)"
     style="fill:#161413;fill-rule:evenodd;stroke:none"
     id="g76">
    <path
       d="m 1.435,0.657 c 0,0 0,-0.657 0,-0.657 C 1.435,0 0,0.109 0,0.109 c 0,0 0,0.309 0,0.309 0.707,0 0.777,0.06 0.777,0.498 0,0 0,4.663 0,4.663 0,0.448 -0.11,0.448 -0.777,0.448 0,0 0,0.309 0,0.309 0,0 2.242,0 2.242,0 0,0 0,-0.309 0,-0.309 -0.667,0 -0.778,0 -0.778,-0.448 0,0 0,-1.674 0,-1.674 0,0 0,-0.09 0,-0.09 0.05,0.159 0.469,0.697 1.226,0.697 1.185,0 2.221,-0.976 2.221,-2.261 C 4.911,0.986 3.946,0 2.829,0 2.052,0 1.634,0.438 1.435,0.657 z m 0.029,2.61 c 0,0 0,-2.221 0,-2.221 0.289,-0.508 0.778,-0.797 1.285,-0.797 0.728,0 1.335,0.877 1.335,2.002 0,1.206 -0.697,2.043 -1.434,2.043 -0.399,0 -0.777,-0.2 -1.046,-0.609 C 1.464,3.476 1.464,3.466 1.464,3.267 z"
       id="path78"
       inkscape:connector-curvature="0" />
  </g>
  <g
     transform="translate(95.789,16.203)"
     style="fill:#161413;fill-rule:evenodd;stroke:none"
     id="g80">
    <path
       d="m 1.535,2.142 c 0,0 1.424,0 1.424,0 0,0 0,-0.309 0,-0.309 0,0 -1.424,0 -1.424,0 0,0 0,-1.833 0,-1.833 0,0 -0.249,0 -0.249,0 C 1.276,0.816 0.977,1.883 0,1.923 c 0,0 0,0.219 0,0.219 0,0 0.847,0 0.847,0 0,0 0,2.75 0,2.75 0,1.225 0.927,1.344 1.285,1.344 0.707,0 0.987,-0.707 0.987,-1.344 0,0 0,-0.569 0,-0.569 0,0 -0.249,0 -0.249,0 0,0 0,0.549 0,0.549 0,0.737 -0.299,1.115 -0.668,1.115 -0.667,0 -0.667,-0.906 -0.667,-1.076 0,0 0,-2.769 0,-2.769 z"
       id="path82"
       inkscape:connector-curvature="0" />
  </g>
  <g
     transform="translate(99.679,15.665)"
     style="fill:#161413;fill-rule:evenodd;stroke:none"
     id="g84">
    <path
       d="m 1.435,2.262 c 0,0 -1.396,0.109 -1.396,0.109 0,0 0,0.309 0,0.309 0.649,0 0.737,0.06 0.737,0.547 0,0 0,2.681 0,2.681 0,0.448 -0.109,0.448 -0.776,0.448 0,0 0,0.309 0,0.309 0,0 2.132,0 2.132,0 0,0 0,-0.309 0,-0.309 -0.657,0 -0.697,-0.049 -0.697,-0.438 0,0 0,-3.656 0,-3.656 z M 1.475,0.528 C 1.475,0.209 1.225,0 0.946,0 0.638,0 0.418,0.269 0.418,0.528 c 0,0.269 0.22,0.528 0.528,0.528 0.279,0 0.529,-0.209 0.529,-0.528 z"
       id="path86"
       inkscape:connector-curvature="0" />
  </g>
  <g
     transform="translate(102.379,17.867)"
     style="fill:#161413;fill-rule:evenodd;stroke:none"
     id="g88">
    <path
       d="M 4.413,2.331 C 4.413,1.056 3.417,0 2.211,0 0.966,0 0,1.086 0,2.331 0,3.616 1.036,4.572 2.201,4.572 3.408,4.572 4.413,3.596 4.413,2.331 z M 2.211,4.323 C 1.783,4.323 1.345,4.114 1.075,3.656 0.826,3.218 0.826,2.609 0.826,2.251 c 0,-0.389 0,-0.927 0.24,-1.364 0.269,-0.459 0.737,-0.668 1.135,-0.668 0.439,0 0.868,0.22 1.126,0.647 0.259,0.429 0.259,1.007 0.259,1.385 0,0.358 0,0.897 -0.219,1.335 C 3.148,4.034 2.71,4.323 2.211,4.323 z"
       id="path90"
       inkscape:connector-curvature="0" />
  </g>
  <g
     transform="translate(107.668,17.927)"
     style="fill:#161413;fill-rule:evenodd;stroke:none"
     id="g92">
    <path
       d="m 0.778,0.976 c 0,0 0,2.67 0,2.67 0,0.448 -0.11,0.448 -0.778,0.448 0,0 0,0.309 0,0.309 0,0 2.243,0 2.243,0 0,0 0,-0.309 0,-0.309 -0.668,0 -0.778,0 -0.778,-0.448 0,0 0,-1.833 0,-1.833 0,-1.036 0.707,-1.595 1.345,-1.595 0.628,0 0.737,0.539 0.737,1.107 0,0 0,2.321 0,2.321 0,0.448 -0.109,0.448 -0.776,0.448 0,0 0,0.309 0,0.309 0,0 2.241,0 2.241,0 0,0 0,-0.309 0,-0.309 -0.518,0 -0.768,0 -0.777,-0.298 0,0 0,-1.904 0,-1.904 0,-0.856 0,-1.165 -0.309,-1.524 C 3.786,0.199 3.457,0 2.88,0 2.153,0 1.685,0.428 1.406,1.046 c 0,0 0,-1.046 0,-1.046 C 1.406,0 0,0.109 0,0.109 c 0,0 0,0.309 0,0.309 0.699,0 0.778,0.07 0.778,0.558 z"
       id="path94"
       inkscape:connector-curvature="0" />
  </g>
  <g
     transform="translate(124.949,15.525)"
     style="fill:#161413;fill-rule:evenodd;stroke:none"
     id="g96">
    <path
       d="m 1.913,3.657 c 0,0 1.683,0 1.683,0 1.196,0 2.272,-0.807 2.272,-1.803 C 5.868,0.877 4.881,0 3.516,0 3.516,0 0,0 0,0 c 0,0 0,0.309 0,0.309 0,0 0.239,0 0.239,0 0.766,0 0.787,0.11 0.787,0.469 0,0 0,5.25 0,5.25 0,0.359 -0.021,0.468 -0.787,0.468 0,0 -0.239,0 -0.239,0 0,0 0,0.309 0,0.309 0,0 2.939,0 2.939,0 0,0 0,-0.309 0,-0.309 0,0 -0.239,0 -0.239,0 -0.768,0 -0.787,-0.109 -0.787,-0.468 0,0 0,-2.371 0,-2.371 z M 1.882,3.398 c 0,0 0,-2.69 0,-2.69 0,-0.329 0.021,-0.399 0.489,-0.399 0,0 0.886,0 0.886,0 1.584,0 1.584,1.057 1.584,1.545 0,0.468 0,1.544 -1.584,1.544 0,0 -1.375,0 -1.375,0 z"
       id="path98"
       inkscape:connector-curvature="0" />
  </g>
  <g
     transform="translate(131.879,17.927)"
     style="fill:#161413;fill-rule:evenodd;stroke:none"
     id="g100">
    <path
       d="m 1.385,1.095 c 0,0 0,-1.095 0,-1.095 C 1.385,0 0,0.109 0,0.109 c 0,0 0,0.309 0,0.309 0.698,0 0.777,0.07 0.777,0.558 0,0 0,2.67 0,2.67 0,0.448 -0.11,0.448 -0.777,0.448 0,0 0,0.309 0,0.309 0,0 2.401,0 2.401,0 0,0 0,-0.309 0,-0.309 0,0 -0.209,0 -0.209,0 -0.738,0 -0.757,-0.109 -0.757,-0.468 0,0 0,-1.535 0,-1.535 0,-0.986 0.418,-1.873 1.176,-1.873 0.069,0 0.089,0 0.109,0.01 -0.03,0.011 -0.229,0.13 -0.229,0.389 0,0.279 0.209,0.429 0.428,0.429 0.179,0 0.428,-0.12 0.428,-0.439 C 3.347,0.289 3.038,0 2.611,0 1.883,0 1.525,0.667 1.385,1.095 z"
       id="path102"
       inkscape:connector-curvature="0" />
  </g>
  <g
     transform="translate(135.679,15.665)"
     style="fill:#161413;fill-rule:evenodd;stroke:none"
     id="g104">
    <path
       d="m 1.435,2.262 c 0,0 -1.396,0.109 -1.396,0.109 0,0 0,0.309 0,0.309 0.649,0 0.737,0.06 0.737,0.547 0,0 0,2.681 0,2.681 0,0.448 -0.109,0.448 -0.776,0.448 0,0 0,0.309 0,0.309 0,0 2.132,0 2.132,0 0,0 0,-0.309 0,-0.309 -0.657,0 -0.697,-0.049 -0.697,-0.438 0,0 0,-3.656 0,-3.656 z M 1.475,0.528 C 1.475,0.209 1.225,0 0.946,0 0.638,0 0.418,0.269 0.418,0.528 c 0,0.269 0.22,0.528 0.528,0.528 0.279,0 0.529,-0.209 0.529,-0.528 z"
       id="path106"
       inkscape:connector-curvature="0" />
  </g>
  <g
     transform="translate(138.439,17.867)"
     style="fill:#161413;fill-rule:evenodd;stroke:none"
     id="g108">
    <path
       d="m 0.827,2.291 c 0,-1.624 0.816,-2.042 1.345,-2.042 0.09,0 0.717,0.01 1.065,0.368 -0.408,0.031 -0.468,0.329 -0.468,0.458 0,0.26 0.18,0.459 0.458,0.459 0.259,0 0.459,-0.17 0.459,-0.468 C 3.686,0.388 2.929,0 2.162,0 0.916,0 0,1.075 0,2.311 c 0,1.275 0.986,2.261 2.141,2.261 1.335,0 1.655,-1.195 1.655,-1.295 0,-0.099 -0.1,-0.099 -0.13,-0.099 -0.09,0 -0.109,0.04 -0.13,0.099 C 3.248,4.204 2.6,4.323 2.231,4.323 1.703,4.323 0.827,3.896 0.827,2.291 z"
       id="path110"
       inkscape:connector-curvature="0" />
  </g>
  <g
     transform="translate(142.879,17.867)"
     style="fill:#161413;fill-rule:evenodd;stroke:none"
     id="g112">
    <path
       d="m 0.837,1.952 c 0.06,-1.484 0.897,-1.733 1.236,-1.733 1.025,0 1.125,1.345 1.125,1.733 0,0 -2.361,0 -2.361,0 z M 0.826,2.161 c 0,0 2.781,0 2.781,0 0.218,0 0.249,0 0.249,-0.209 C 3.856,0.966 3.318,0 2.073,0 0.916,0 0,1.025 0,2.272 c 0,1.335 1.046,2.3 2.192,2.3 1.216,0 1.664,-1.105 1.664,-1.295 0,-0.099 -0.08,-0.119 -0.13,-0.119 -0.09,0 -0.109,0.06 -0.13,0.139 C 3.247,4.323 2.351,4.323 2.251,4.323 1.753,4.323 1.355,4.025 1.125,3.656 0.826,3.178 0.826,2.521 0.826,2.161 z"
       id="path114"
       inkscape:connector-curvature="0" />
  </g>
  <g
     transform="translate(151.336,14.858)"
     style="fill:#161413;fill-rule:evenodd;stroke:none"
     id="g116">
    <path
       d="m 2.312,9.863 c 0,-0.03 0,-0.05 -0.17,-0.219 C 0.897,8.389 0.578,6.505 0.578,4.982 0.578,3.247 0.956,1.514 2.182,0.269 2.312,0.15 2.312,0.129 2.312,0.1 2.312,0.03 2.272,0 2.212,0 2.113,0 1.216,0.677 0.628,1.943 0.119,3.038 0,4.145 0,4.982 0,5.758 0.11,6.964 0.658,8.09 c 0.597,1.225 1.455,1.872 1.554,1.872 0.06,0 0.1,-0.029 0.1,-0.099 z"
       id="path118"
       inkscape:connector-curvature="0" />
  </g>
  <g
     transform="translate(154.658,14.858)"
     style="fill:#161413;fill-rule:evenodd;stroke:none"
     id="g120">
    <path
       d="m 2.082,4.373 c 1.196,0.249 1.265,1.216 1.265,1.455 0,0.667 -0.478,1.335 -1.265,1.435 0,0 0,-2.89 0,-2.89 z M 1.773,4.294 c 0,0 0,2.969 0,2.969 C 0.896,7.213 0.428,6.704 0.298,6.087 c 0.04,0.01 0.121,0.02 0.161,0.02 0.268,0 0.458,-0.189 0.458,-0.458 C 0.917,5.369 0.708,5.191 0.459,5.191 0.398,5.191 0,5.21 0,5.699 c 0,0.886 0.528,1.803 1.773,1.882 0,0 0,0.449 0,0.449 0,0 0.309,0 0.309,0 0,0 0,-0.458 0,-0.458 C 3.129,7.482 3.855,6.555 3.855,5.53 3.855,4.702 3.407,4.195 3.317,4.105 2.919,3.666 2.56,3.576 2.082,3.457 c 0,0 0,-2.69 0,-2.69 0.847,0.04 1.325,0.478 1.474,1.036 C 3.517,1.793 3.497,1.784 3.397,1.784 c -0.259,0 -0.458,0.178 -0.458,0.458 0,0.308 0.249,0.458 0.458,0.458 0.03,0 0.458,-0.01 0.458,-0.499 0,-0.965 -0.657,-1.693 -1.773,-1.752 0,0 0,-0.449 0,-0.449 0,0 -0.309,0 -0.309,0 0,0 0,0.458 0,0.458 C 0.668,0.558 0,1.454 0,2.362 0,3.048 0.369,3.527 0.547,3.697 0.926,4.084 1.265,4.164 1.773,4.294 z m 0,-0.917 C 0.547,3.118 0.508,2.262 0.508,2.062 c 0,-0.598 0.468,-1.215 1.265,-1.295 0,0 0,2.61 0,2.61 z"
       id="path122"
       inkscape:connector-curvature="0" />
  </g>
  <g
     transform="translate(159.668,14.858)"
     style="fill:#161413;fill-rule:evenodd;stroke:none"
     id="g124">
    <path
       d="M 2.311,4.982 C 2.311,4.204 2.202,2.998 1.654,1.873 1.056,0.648 0.2,0 0.1,0 0.039,0 0,0.04 0,0.1 0,0.129 0,0.15 0.189,0.328 1.165,1.315 1.734,2.899 1.734,4.982 1.734,6.685 1.365,8.439 0.129,9.694 0,9.813 0,9.833 0,9.863 0,9.923 0.039,9.962 0.1,9.962 0.2,9.962 1.096,9.285 1.684,8.02 2.192,6.924 2.311,5.819 2.311,4.982 z"
       id="path126"
       inkscape:connector-curvature="0" />
  </g>
  <g
     transform="translate(1.6,25.85)"
     style="fill:#161413;fill-rule:nonzero;stroke:none"
     id="g128">
    <path
       d="m 0,0.48 c 0,0 167.52,0 167.52,0 0,0 0,-0.48 0,-0.48 C 167.52,0 0,0 0,0"
       id="path130"
       inkscape:connector-curvature="0" />
  </g>
  <g
     transform="translate(8.158,27.807)"
     style="fill:#161413;fill-rule:evenodd;stroke:none"
     id="g132">
    <path
       d="m 5.35,6.395 c 0.129,0.22 0.528,0.618 0.638,0.618 0.089,0 0.089,-0.08 0.089,-0.229 0,0 0,-1.734 0,-1.734 0,-0.388 0.04,-0.438 0.687,-0.438 0,0 0,-0.309 0,-0.309 0,0 -2.819,0 -2.819,0 0,0 0,0.309 0,0.309 0,0 0.319,0 0.319,0 0.897,0 0.926,0.109 0.926,0.478 0,0 0,0.638 0,0.638 0,1.115 -1.265,1.205 -1.544,1.205 -0.647,0 -2.62,-0.348 -2.62,-3.317 0,-2.979 1.963,-3.308 2.561,-3.308 1.066,0 1.972,0.897 2.171,2.361 0.02,0.14 0.02,0.169 0.16,0.169 0.159,0 0.159,-0.029 0.159,-0.239 0,0 0,-2.36 0,-2.36 C 6.077,0.069 6.077,0 5.967,0 5.927,0 5.888,0 5.808,0.119 5.808,0.119 5.31,0.856 5.31,0.856 4.991,0.538 4.453,0 3.467,0 1.614,0 0,1.574 0,3.616 0,5.658 1.594,7.242 3.487,7.242 4.214,7.242 5.011,6.983 5.35,6.395 z"
       id="path134"
       inkscape:connector-curvature="0" />
  </g>
  <g
     transform="translate(15.668,30.427)"
     style="fill:#161413;fill-rule:evenodd;stroke:none"
     id="g136">
    <path
       d="m 0.778,0.976 c 0,0 0,2.67 0,2.67 0,0.448 -0.11,0.448 -0.778,0.448 0,0 0,0.309 0,0.309 0,0 2.243,0 2.243,0 0,0 0,-0.309 0,-0.309 -0.668,0 -0.778,0 -0.778,-0.448 0,0 0,-1.833 0,-1.833 0,-1.036 0.707,-1.595 1.345,-1.595 0.628,0 0.737,0.539 0.737,1.107 0,0 0,2.321 0,2.321 0,0.448 -0.109,0.448 -0.776,0.448 0,0 0,0.309 0,0.309 0,0 2.241,0 2.241,0 0,0 0,-0.309 0,-0.309 -0.518,0 -0.768,0 -0.777,-0.298 0,0 0,-1.904 0,-1.904 0,-0.856 0,-1.165 -0.309,-1.524 C 3.786,0.199 3.457,0 2.88,0 2.153,0 1.685,0.428 1.406,1.046 c 0,0 0,-1.046 0,-1.046 C 1.406,0 0,0.109 0,0.109 c 0,0 0,0.309 0,0.309 0.699,0 0.778,0.07 0.778,0.558 z"
       id="path138"
       inkscape:connector-curvature="0" />
  </g>
  <g
     transform="translate(21.268,30.367)"
     style="fill:#161413;fill-rule:evenodd;stroke:none"
     id="g140">
    <path
       d="m 2.899,3.706 c 0.04,0.399 0.309,0.817 0.778,0.817 0.209,0 0.816,-0.14 0.816,-0.947 0,0 0,-0.557 0,-0.557 0,0 -0.249,0 -0.249,0 0,0 0,0.557 0,0.557 0,0.578 -0.249,0.638 -0.358,0.638 -0.329,0 -0.368,-0.448 -0.368,-0.498 0,0 0,-1.992 0,-1.992 0,-0.419 0,-0.808 -0.36,-1.176 C 2.77,0.159 2.271,0 1.794,0 0.977,0 0.289,0.468 0.289,1.125 c 0,0.299 0.199,0.469 0.459,0.469 0.278,0 0.458,-0.199 0.458,-0.458 0,-0.12 -0.05,-0.448 -0.508,-0.459 0.269,-0.349 0.757,-0.458 1.075,-0.458 0.489,0 1.057,0.389 1.057,1.275 0,0 0,0.368 0,0.368 C 2.321,1.893 1.624,1.923 0.997,2.222 0.25,2.56 0,3.078 0,3.517 0,4.323 0.967,4.572 1.595,4.572 2.252,4.572 2.71,4.174 2.899,3.706 z M 2.83,2.072 c 0,0 0,0.996 0,0.996 0,0.947 -0.718,1.286 -1.166,1.286 -0.488,0 -0.896,-0.349 -0.896,-0.847 0,-0.548 0.418,-1.375 2.062,-1.435 z"
       id="path142"
       inkscape:connector-curvature="0" />
  </g>
  <g
     transform="translate(26.039,28.703)"
     style="fill:#161413;fill-rule:evenodd;stroke:none"
     id="g144">
    <path
       d="m 1.535,2.142 c 0,0 1.424,0 1.424,0 0,0 0,-0.309 0,-0.309 0,0 -1.424,0 -1.424,0 0,0 0,-1.833 0,-1.833 0,0 -0.249,0 -0.249,0 C 1.276,0.816 0.977,1.883 0,1.923 c 0,0 0,0.219 0,0.219 0,0 0.847,0 0.847,0 0,0 0,2.75 0,2.75 0,1.225 0.927,1.344 1.285,1.344 0.707,0 0.987,-0.707 0.987,-1.344 0,0 0,-0.569 0,-0.569 0,0 -0.249,0 -0.249,0 0,0 0,0.549 0,0.549 0,0.737 -0.299,1.115 -0.668,1.115 -0.667,0 -0.667,-0.906 -0.667,-1.076 0,0 0,-2.769 0,-2.769 z"
       id="path146"
       inkscape:connector-curvature="0" />
  </g>
  <g
     transform="translate(63.129,30.427)"
     style="fill:#161413;fill-rule:evenodd;stroke:none"
     id="g148">
    <path
       d="m 1.435,0.657 c 0,0 0,-0.657 0,-0.657 C 1.435,0 0,0.109 0,0.109 c 0,0 0,0.309 0,0.309 0.707,0 0.777,0.06 0.777,0.498 0,0 0,4.663 0,4.663 0,0.448 -0.11,0.448 -0.777,0.448 0,0 0,0.309 0,0.309 0,0 2.242,0 2.242,0 0,0 0,-0.309 0,-0.309 -0.667,0 -0.778,0 -0.778,-0.448 0,0 0,-1.674 0,-1.674 0,0 0,-0.09 0,-0.09 0.05,0.159 0.469,0.697 1.226,0.697 1.185,0 2.221,-0.976 2.221,-2.261 C 4.911,0.986 3.946,0 2.829,0 2.052,0 1.634,0.438 1.435,0.657 z m 0.029,2.61 c 0,0 0,-2.221 0,-2.221 0.289,-0.508 0.778,-0.797 1.285,-0.797 0.728,0 1.335,0.877 1.335,2.002 0,1.206 -0.697,2.043 -1.434,2.043 -0.399,0 -0.777,-0.2 -1.046,-0.609 C 1.464,3.476 1.464,3.466 1.464,3.267 z"
       id="path150"
       inkscape:connector-curvature="0" />
  </g>
  <g
     transform="translate(69.129,30.367)"
     style="fill:#161413;fill-rule:evenodd;stroke:none"
     id="g152">
    <path
       d="m 0.837,1.952 c 0.06,-1.484 0.897,-1.733 1.236,-1.733 1.025,0 1.125,1.345 1.125,1.733 0,0 -2.361,0 -2.361,0 z M 0.826,2.161 c 0,0 2.781,0 2.781,0 0.218,0 0.249,0 0.249,-0.209 C 3.856,0.966 3.318,0 2.073,0 0.916,0 0,1.025 0,2.272 c 0,1.335 1.046,2.3 2.192,2.3 1.216,0 1.664,-1.105 1.664,-1.295 0,-0.099 -0.08,-0.119 -0.13,-0.119 -0.09,0 -0.109,0.06 -0.13,0.139 C 3.247,4.323 2.351,4.323 2.251,4.323 1.753,4.323 1.355,4.025 1.125,3.656 0.826,3.178 0.826,2.521 0.826,2.161 z"
       id="path154"
       inkscape:connector-curvature="0" />
  </g>
  <g
     transform="translate(73.379,30.427)"
     style="fill:#161413;fill-rule:evenodd;stroke:none"
     id="g156">
    <path
       d="m 1.385,1.095 c 0,0 0,-1.095 0,-1.095 C 1.385,0 0,0.109 0,0.109 c 0,0 0,0.309 0,0.309 0.698,0 0.777,0.07 0.777,0.558 0,0 0,2.67 0,2.67 0,0.448 -0.11,0.448 -0.777,0.448 0,0 0,0.309 0,0.309 0,0 2.401,0 2.401,0 0,0 0,-0.309 0,-0.309 0,0 -0.209,0 -0.209,0 -0.738,0 -0.757,-0.109 -0.757,-0.468 0,0 0,-1.535 0,-1.535 0,-0.986 0.418,-1.873 1.176,-1.873 0.069,0 0.089,0 0.109,0.01 -0.03,0.011 -0.229,0.13 -0.229,0.389 0,0.279 0.209,0.429 0.428,0.429 0.179,0 0.428,-0.12 0.428,-0.439 C 3.347,0.289 3.038,0 2.611,0 1.883,0 1.525,0.667 1.385,1.095 z"
       id="path158"
       inkscape:connector-curvature="0" />
  </g>
  <g
     transform="translate(80.879,30.317)"
     style="fill:#161413;fill-rule:evenodd;stroke:none"
     id="g160">
    <path
       d="m 1.933,2.799 c -0.867,0 -0.867,-0.996 -0.867,-1.225 0,-0.269 0.009,-0.587 0.159,-0.836 0.08,-0.121 0.309,-0.4 0.708,-0.4 0.866,0 0.866,0.997 0.866,1.226 0,0.269 -0.01,0.588 -0.159,0.837 C 2.56,2.521 2.331,2.799 1.933,2.799 z M 0.777,3.188 c 0,-0.04 0,-0.269 0.17,-0.468 0.388,0.278 0.796,0.309 0.986,0.309 0.927,0 1.613,-0.688 1.613,-1.455 0,-0.369 -0.159,-0.737 -0.408,-0.966 0.358,-0.339 0.718,-0.389 0.896,-0.389 0.021,0 0.071,0 0.1,0.01 -0.109,0.04 -0.159,0.149 -0.159,0.269 0,0.169 0.13,0.289 0.289,0.289 0.1,0 0.289,-0.07 0.289,-0.298 C 4.553,0.319 4.433,0 4.045,0 3.846,0 3.408,0.06 2.989,0.468 2.571,0.139 2.152,0.11 1.933,0.11 c -0.927,0 -1.614,0.687 -1.614,1.454 0,0.438 0.219,0.817 0.468,1.026 -0.129,0.15 -0.309,0.479 -0.309,0.827 0,0.309 0.13,0.688 0.438,0.887 C 0.319,4.473 0,4.902 0,5.3 0,6.017 0.987,6.566 2.201,6.566 3.377,6.566 4.413,6.057 4.413,5.281 4.413,4.931 4.274,4.423 3.766,4.145 3.238,3.866 2.66,3.866 2.052,3.866 c -0.249,0 -0.678,0 -0.747,-0.01 C 0.987,3.816 0.777,3.507 0.777,3.188 z M 2.211,6.336 C 1.205,6.336 0.518,5.828 0.518,5.3 c 0,-0.458 0.379,-0.827 0.817,-0.856 0,0 0.588,0 0.588,0 0.857,0 1.973,0 1.973,0.856 0,0.538 -0.708,1.036 -1.685,1.036 z"
       id="path162"
       inkscape:connector-curvature="0" />
  </g>
  <g
     transform="translate(85.879,30.427)"
     style="fill:#161413;fill-rule:evenodd;stroke:none"
     id="g164">
    <path
       d="m 1.385,1.095 c 0,0 0,-1.095 0,-1.095 C 1.385,0 0,0.109 0,0.109 c 0,0 0,0.309 0,0.309 0.698,0 0.777,0.07 0.777,0.558 0,0 0,2.67 0,2.67 0,0.448 -0.11,0.448 -0.777,0.448 0,0 0,0.309 0,0.309 0,0 2.401,0 2.401,0 0,0 0,-0.309 0,-0.309 0,0 -0.209,0 -0.209,0 -0.738,0 -0.757,-0.109 -0.757,-0.468 0,0 0,-1.535 0,-1.535 0,-0.986 0.418,-1.873 1.176,-1.873 0.069,0 0.089,0 0.109,0.01 -0.03,0.011 -0.229,0.13 -0.229,0.389 0,0.279 0.209,0.429 0.428,0.429 0.179,0 0.428,-0.12 0.428,-0.439 C 3.347,0.289 3.038,0 2.611,0 1.883,0 1.525,0.667 1.385,1.095 z"
       id="path166"
       inkscape:connector-curvature="0" />
  </g>
  <g
     transform="translate(90.018,30.367)"
     style="fill:#161413;fill-rule:evenodd;stroke:none"
     id="g168">
    <path
       d="m 2.899,3.706 c 0.04,0.399 0.309,0.817 0.778,0.817 0.209,0 0.816,-0.14 0.816,-0.947 0,0 0,-0.557 0,-0.557 0,0 -0.249,0 -0.249,0 0,0 0,0.557 0,0.557 0,0.578 -0.249,0.638 -0.358,0.638 -0.329,0 -0.368,-0.448 -0.368,-0.498 0,0 0,-1.992 0,-1.992 0,-0.419 0,-0.808 -0.36,-1.176 C 2.77,0.159 2.271,0 1.794,0 0.977,0 0.289,0.468 0.289,1.125 c 0,0.299 0.199,0.469 0.459,0.469 0.278,0 0.458,-0.199 0.458,-0.458 0,-0.12 -0.05,-0.448 -0.508,-0.459 0.269,-0.349 0.757,-0.458 1.075,-0.458 0.489,0 1.057,0.389 1.057,1.275 0,0 0,0.368 0,0.368 C 2.321,1.893 1.624,1.923 0.997,2.222 0.25,2.56 0,3.078 0,3.517 0,4.323 0.967,4.572 1.595,4.572 2.252,4.572 2.71,4.174 2.899,3.706 z M 2.83,2.072 c 0,0 0,0.996 0,0.996 0,0.947 -0.718,1.286 -1.166,1.286 -0.488,0 -0.896,-0.349 -0.896,-0.847 0,-0.548 0.418,-1.375 2.062,-1.435 z"
       id="path170"
       inkscape:connector-curvature="0" />
  </g>
  <g
     transform="translate(94.918,30.427)"
     style="fill:#161413;fill-rule:evenodd;stroke:none"
     id="g172">
    <path
       d="m 0.778,0.976 c 0,0 0,2.67 0,2.67 0,0.448 -0.11,0.448 -0.778,0.448 0,0 0,0.309 0,0.309 0,0 2.243,0 2.243,0 0,0 0,-0.309 0,-0.309 -0.668,0 -0.778,0 -0.778,-0.448 0,0 0,-1.833 0,-1.833 0,-1.036 0.707,-1.595 1.345,-1.595 0.628,0 0.737,0.539 0.737,1.107 0,0 0,2.321 0,2.321 0,0.448 -0.109,0.448 -0.776,0.448 0,0 0,0.309 0,0.309 0,0 2.241,0 2.241,0 0,0 0,-0.309 0,-0.309 -0.668,0 -0.777,0 -0.777,-0.448 0,0 0,-1.833 0,-1.833 0,-1.036 0.708,-1.595 1.344,-1.595 0.628,0 0.738,0.539 0.738,1.107 0,0 0,2.321 0,2.321 0,0.448 -0.11,0.448 -0.777,0.448 0,0 0,0.309 0,0.309 0,0 2.242,0 2.242,0 0,0 0,-0.309 0,-0.309 -0.518,0 -0.768,0 -0.778,-0.298 0,0 0,-1.904 0,-1.904 0,-0.856 0,-1.165 -0.308,-1.524 C 6.556,0.199 6.228,0 5.65,0 4.813,0 4.374,0.597 4.205,0.976 4.066,0.109 3.328,0 2.88,0 2.153,0 1.685,0.428 1.406,1.046 c 0,0 0,-1.046 0,-1.046 C 1.406,0 0,0.109 0,0.109 c 0,0 0,0.309 0,0.309 0.699,0 0.778,0.07 0.778,0.558 z"
       id="path174"
       inkscape:connector-curvature="0" />
  </g>
  <g
     transform="translate(141.237,28.195)"
     style="fill:#161413;fill-rule:evenodd;stroke:none"
     id="g176">
    <path
       d="M 2.042,0.259 C 2.042,0.02 2.042,0 1.813,0 1.195,0.638 0.318,0.638 0,0.638 c 0,0 0,0.309 0,0.309 0.199,0 0.787,0 1.304,-0.259 0,0 0,5.16 0,5.16 0,0.358 -0.029,0.478 -0.925,0.478 0,0 -0.32,0 -0.32,0 0,0 0,0.309 0,0.309 0,0 3.229,0 3.229,0 0,0 0,-0.309 0,-0.309 0,0 -0.32,0 -0.32,0 -0.896,0 -0.926,-0.109 -0.926,-0.478 0,0 0,-5.589 0,-5.589 z"
       id="path178"
       inkscape:connector-curvature="0" />
  </g>
  <g
     transform="translate(145.768,28.195)"
     style="fill:#161413;fill-rule:evenodd;stroke:none"
     id="g180">
    <path
       d="M 2.472,3.128 C 3.288,2.86 3.866,2.161 3.866,1.374 3.866,0.558 2.989,0 2.033,0 1.026,0 0.27,0.598 0.27,1.355 c 0,0.329 0.218,0.518 0.507,0.518 0.309,0 0.508,-0.219 0.508,-0.509 0,-0.498 -0.468,-0.498 -0.617,-0.498 0.309,-0.488 0.967,-0.617 1.325,-0.617 0.408,0 0.956,0.219 0.956,1.115 0,0.121 -0.019,0.698 -0.278,1.136 -0.3,0.479 -0.638,0.509 -0.887,0.519 -0.08,0.01 -0.319,0.029 -0.389,0.029 -0.08,0.011 -0.149,0.021 -0.149,0.12 0,0.11 0.069,0.11 0.239,0.11 0,0 0.438,0 0.438,0 0.817,0 1.185,0.677 1.185,1.654 0,1.354 -0.687,1.643 -1.125,1.643 C 1.555,6.575 0.808,6.406 0.459,5.818 0.808,5.867 1.116,5.649 1.116,5.27 1.116,4.911 0.848,4.712 0.559,4.712 0.319,4.712 0,4.852 0,5.29 0,6.197 0.927,6.854 2.013,6.854 3.228,6.854 4.135,5.947 4.135,4.932 4.135,4.114 3.507,3.337 2.472,3.128 z"
       id="path182"
       inkscape:connector-curvature="0" />
  </g>
  <g
     transform="translate(151.206,33.774)"
     style="fill:#161413;fill-rule:evenodd;stroke:none"
     id="g184">
    <path
       d="M 1.057,0.528 C 1.057,0.239 0.818,0 0.529,0 0.24,0 0,0.239 0,0.528 c 0,0.289 0.24,0.528 0.529,0.528 0.289,0 0.528,-0.239 0.528,-0.528 z"
       id="path186"
       inkscape:connector-curvature="0" />
  </g>
  <g
     transform="translate(153.518,28.195)"
     style="fill:#161413;fill-rule:evenodd;stroke:none"
     id="g188">
    <path
       d="m 0.897,3.367 c 0,0 0,-0.239 0,-0.239 0,-2.52 1.236,-2.879 1.744,-2.879 0.239,0 0.657,0.06 0.877,0.399 -0.15,0 -0.548,0 -0.548,0.448 0,0.309 0.238,0.458 0.458,0.458 0.159,0 0.458,-0.09 0.458,-0.479 C 3.886,0.478 3.447,0 2.621,0 1.346,0 0,1.285 0,3.487 c 0,2.66 1.156,3.367 2.083,3.367 1.105,0 2.052,-0.937 2.052,-2.251 0,-1.266 -0.887,-2.222 -1.992,-2.222 -0.678,0 -1.046,0.508 -1.246,0.986 z M 2.083,6.575 C 1.455,6.575 1.156,5.978 1.097,5.828 0.917,5.36 0.917,4.563 0.917,4.383 c 0,-0.776 0.318,-1.772 1.216,-1.772 0.159,0 0.617,0 0.926,0.617 0.179,0.368 0.179,0.877 0.179,1.365 0,0.478 0,0.976 -0.169,1.335 C 2.77,6.526 2.311,6.575 2.083,6.575 z"
       id="path190"
       inkscape:connector-curvature="0" />
  </g>
  <g
     transform="translate(158.848,28.195)"
     style="fill:#161413;fill-rule:evenodd;stroke:none"
     id="g192">
    <path
       d="M 3.976,4.632 C 3.976,3.447 3.158,2.45 2.082,2.45 c -0.477,0 -0.906,0.161 -1.265,0.509 0,0 0,-1.943 0,-1.943 0.2,0.059 0.528,0.13 0.847,0.13 C 2.89,1.146 3.587,0.239 3.587,0.11 3.587,0.05 3.557,0 3.487,0 3.477,0 3.457,0 3.407,0.03 3.208,0.119 2.72,0.319 2.053,0.319 1.654,0.319 1.195,0.249 0.728,0.039 0.648,0.01 0.628,0.01 0.607,0.01 c -0.099,0 -0.099,0.079 -0.099,0.239 0,0 0,2.948 0,2.948 0,0.18 0,0.26 0.14,0.26 0.07,0 0.089,-0.03 0.129,-0.09 0.11,-0.159 0.479,-0.697 1.286,-0.697 0.517,0 0.766,0.458 0.846,0.638 0.159,0.368 0.18,0.757 0.18,1.255 0,0.348 0,0.946 -0.239,1.365 C 2.61,6.317 2.241,6.575 1.783,6.575 1.056,6.575 0.488,6.047 0.319,5.459 0.349,5.469 0.379,5.48 0.488,5.48 0.817,5.48 0.986,5.231 0.986,4.991 0.986,4.752 0.817,4.503 0.488,4.503 0.349,4.503 0,4.573 0,5.031 c 0,0.857 0.688,1.823 1.804,1.823 1.155,0 2.172,-0.956 2.172,-2.222 z"
       id="path194"
       inkscape:connector-curvature="0" />
  </g>
  <g
     transform="translate(63.129,42.117)"
     style="fill:#161413;fill-rule:evenodd;stroke:none"
     id="g196">
    <path
       d="m 0.837,1.952 c 0.06,-1.484 0.897,-1.733 1.236,-1.733 1.025,0 1.125,1.345 1.125,1.733 0,0 -2.361,0 -2.361,0 z M 0.826,2.161 c 0,0 2.781,0 2.781,0 0.218,0 0.249,0 0.249,-0.209 C 3.856,0.966 3.318,0 2.073,0 0.916,0 0,1.025 0,2.272 c 0,1.335 1.046,2.3 2.192,2.3 1.216,0 1.664,-1.105 1.664,-1.295 0,-0.099 -0.08,-0.119 -0.13,-0.119 -0.09,0 -0.109,0.06 -0.13,0.139 C 3.247,4.323 2.351,4.323 2.251,4.323 1.753,4.323 1.355,4.025 1.125,3.656 0.826,3.178 0.826,2.521 0.826,2.161 z"
       id="path198"
       inkscape:connector-curvature="0" />
  </g>
  <g
     transform="translate(67.768,42.117)"
     style="fill:#161413;fill-rule:evenodd;stroke:none"
     id="g200">
    <path
       d="m 2.899,3.706 c 0.04,0.399 0.309,0.817 0.778,0.817 0.209,0 0.816,-0.14 0.816,-0.947 0,0 0,-0.557 0,-0.557 0,0 -0.249,0 -0.249,0 0,0 0,0.557 0,0.557 0,0.578 -0.249,0.638 -0.358,0.638 -0.329,0 -0.368,-0.448 -0.368,-0.498 0,0 0,-1.992 0,-1.992 0,-0.419 0,-0.808 -0.36,-1.176 C 2.77,0.159 2.271,0 1.794,0 0.977,0 0.289,0.468 0.289,1.125 c 0,0.299 0.199,0.469 0.459,0.469 0.278,0 0.458,-0.199 0.458,-0.458 0,-0.12 -0.05,-0.448 -0.508,-0.459 0.269,-0.349 0.757,-0.458 1.075,-0.458 0.489,0 1.057,0.389 1.057,1.275 0,0 0,0.368 0,0.368 C 2.321,1.893 1.624,1.923 0.997,2.222 0.25,2.56 0,3.078 0,3.517 0,4.323 0.967,4.572 1.595,4.572 2.252,4.572 2.71,4.174 2.899,3.706 z M 2.83,2.072 c 0,0 0,0.996 0,0.996 0,0.947 -0.718,1.286 -1.166,1.286 -0.488,0 -0.896,-0.349 -0.896,-0.847 0,-0.548 0.418,-1.375 2.062,-1.435 z"
       id="path202"
       inkscape:connector-curvature="0" />
  </g>
  <g
     transform="translate(72.689,42.117)"
     style="fill:#161413;fill-rule:evenodd;stroke:none"
     id="g204">
    <path
       d="m 0.827,2.291 c 0,-1.624 0.816,-2.042 1.345,-2.042 0.09,0 0.717,0.01 1.065,0.368 -0.408,0.031 -0.468,0.329 -0.468,0.458 0,0.26 0.18,0.459 0.458,0.459 0.259,0 0.459,-0.17 0.459,-0.468 C 3.686,0.388 2.929,0 2.162,0 0.916,0 0,1.075 0,2.311 c 0,1.275 0.986,2.261 2.141,2.261 1.335,0 1.655,-1.195 1.655,-1.295 0,-0.099 -0.1,-0.099 -0.13,-0.099 -0.09,0 -0.109,0.04 -0.13,0.099 C 3.248,4.204 2.6,4.323 2.231,4.323 1.703,4.323 0.827,3.896 0.827,2.291 z"
       id="path206"
       inkscape:connector-curvature="0" />
  </g>
  <g
     transform="translate(76.918,39.666)"
     style="fill:#161413;fill-rule:evenodd;stroke:none"
     id="g208">
    <path
       d="m 0.778,6.157 c 0,0.448 -0.11,0.448 -0.778,0.448 0,0 0,0.309 0,0.309 0,0 2.243,0 2.243,0 0,0 0,-0.309 0,-0.309 -0.668,0 -0.778,0 -0.778,-0.448 0,0 0,-1.833 0,-1.833 0,-1.036 0.707,-1.595 1.345,-1.595 0.628,0 0.737,0.539 0.737,1.107 0,0 0,2.321 0,2.321 0,0.448 -0.109,0.448 -0.776,0.448 0,0 0,0.309 0,0.309 0,0 2.241,0 2.241,0 0,0 0,-0.309 0,-0.309 -0.518,0 -0.768,0 -0.777,-0.298 0,0 0,-1.904 0,-1.904 0,-0.856 0,-1.165 -0.309,-1.524 C 3.786,2.71 3.457,2.511 2.88,2.511 c -0.837,0 -1.275,0.597 -1.444,0.976 0,0 0,-3.487 0,-3.487 C 1.436,0 0,0.109 0,0.109 c 0,0 0,0.309 0,0.309 0.699,0 0.778,0.07 0.778,0.558 0,0 0,5.181 0,5.181 z"
       id="path210"
       inkscape:connector-curvature="0" />
  </g>
  <g
     transform="translate(145.739,39.945)"
     style="fill:#161413;fill-rule:evenodd;stroke:none"
     id="g212">
    <path
       d="M 4.194,3.447 C 4.194,2.65 4.144,1.853 3.796,1.115 3.337,0.159 2.52,0 2.101,0 1.504,0 0.777,0.259 0.368,1.186 0.049,1.873 0,2.65 0,3.447 0,4.195 0.04,5.091 0.448,5.848 0.877,6.655 1.603,6.854 2.091,6.854 2.63,6.854 3.386,6.645 3.825,5.698 4.144,5.011 4.194,4.234 4.194,3.447 z M 2.091,6.635 C 1.703,6.635 1.115,6.386 0.936,5.43 0.827,4.831 0.827,3.915 0.827,3.327 c 0,-0.637 0,-1.295 0.079,-1.833 0.189,-1.185 0.936,-1.275 1.185,-1.275 0.33,0 0.987,0.18 1.176,1.166 0.1,0.558 0.1,1.314 0.1,1.942 0,0.747 0,1.425 -0.11,2.063 C 3.108,6.336 2.54,6.635 2.091,6.635 z"
       id="path214"
       inkscape:connector-curvature="0" />
  </g>
  <g
     transform="translate(151.206,45.524)"
     style="fill:#161413;fill-rule:evenodd;stroke:none"
     id="g216">
    <path
       d="M 1.057,0.528 C 1.057,0.239 0.818,0 0.529,0 0.24,0 0,0.239 0,0.528 c 0,0.289 0.24,0.528 0.529,0.528 0.289,0 0.528,-0.239 0.528,-0.528 z"
       id="path218"
       inkscape:connector-curvature="0" />
  </g>
  <g
     transform="translate(153.489,39.945)"
     style="fill:#161413;fill-rule:evenodd;stroke:none"
     id="g220">
    <path
       d="M 4.194,3.447 C 4.194,2.65 4.144,1.853 3.796,1.115 3.337,0.159 2.52,0 2.101,0 1.504,0 0.777,0.259 0.368,1.186 0.049,1.873 0,2.65 0,3.447 0,4.195 0.04,5.091 0.448,5.848 0.877,6.655 1.603,6.854 2.091,6.854 2.63,6.854 3.386,6.645 3.825,5.698 4.144,5.011 4.194,4.234 4.194,3.447 z M 2.091,6.635 C 1.703,6.635 1.115,6.386 0.936,5.43 0.827,4.831 0.827,3.915 0.827,3.327 c 0,-0.637 0,-1.295 0.079,-1.833 0.189,-1.185 0.936,-1.275 1.185,-1.275 0.33,0 0.987,0.18 1.176,1.166 0.1,0.558 0.1,1.314 0.1,1.942 0,0.747 0,1.425 -0.11,2.063 C 3.108,6.336 2.54,6.635 2.091,6.635 z"
       id="path222"
       inkscape:connector-curvature="0" />
  </g>
  <g
     transform="translate(158.987,39.945)"
     style="fill:#161413;fill-rule:evenodd;stroke:none"
     id="g224">
    <path
       d="M 2.042,0.259 C 2.042,0.02 2.042,0 1.813,0 1.195,0.638 0.318,0.638 0,0.638 c 0,0 0,0.309 0,0.309 0.199,0 0.787,0 1.304,-0.259 0,0 0,5.16 0,5.16 0,0.358 -0.029,0.478 -0.925,0.478 0,0 -0.32,0 -0.32,0 0,0 0,0.309 0,0.309 0,0 3.229,0 3.229,0 0,0 0,-0.309 0,-0.309 0,0 -0.32,0 -0.32,0 -0.896,0 -0.926,-0.109 -0.926,-0.478 0,0 0,-5.589 0,-5.589 z"
       id="path226"
       inkscape:connector-curvature="0" />
  </g>
  <g
     transform="translate(8.158,51.557)"
     style="fill:#161413;fill-rule:evenodd;stroke:none"
     id="g228">
    <path
       d="m 5.35,6.395 c 0.129,0.22 0.528,0.618 0.638,0.618 0.089,0 0.089,-0.08 0.089,-0.229 0,0 0,-1.734 0,-1.734 0,-0.388 0.04,-0.438 0.687,-0.438 0,0 0,-0.309 0,-0.309 0,0 -2.819,0 -2.819,0 0,0 0,0.309 0,0.309 0,0 0.319,0 0.319,0 0.897,0 0.926,0.109 0.926,0.478 0,0 0,0.638 0,0.638 0,1.115 -1.265,1.205 -1.544,1.205 -0.647,0 -2.62,-0.348 -2.62,-3.317 0,-2.979 1.963,-3.308 2.561,-3.308 1.066,0 1.972,0.897 2.171,2.361 0.02,0.14 0.02,0.169 0.16,0.169 0.159,0 0.159,-0.029 0.159,-0.239 0,0 0,-2.36 0,-2.36 C 6.077,0.069 6.077,0 5.967,0 5.927,0 5.888,0 5.808,0.119 5.808,0.119 5.31,0.856 5.31,0.856 4.991,0.538 4.453,0 3.467,0 1.614,0 0,1.574 0,3.616 0,5.658 1.594,7.242 3.487,7.242 4.214,7.242 5.011,6.983 5.35,6.395 z"
       id="path230"
       inkscape:connector-curvature="0" />
  </g>
  <g
     transform="translate(15.668,54.177)"
     style="fill:#161413;fill-rule:evenodd;stroke:none"
     id="g232">
    <path
       d="m 0.778,0.976 c 0,0 0,2.67 0,2.67 0,0.448 -0.11,0.448 -0.778,0.448 0,0 0,0.309 0,0.309 0,0 2.243,0 2.243,0 0,0 0,-0.309 0,-0.309 -0.668,0 -0.778,0 -0.778,-0.448 0,0 0,-1.833 0,-1.833 0,-1.036 0.707,-1.595 1.345,-1.595 0.628,0 0.737,0.539 0.737,1.107 0,0 0,2.321 0,2.321 0,0.448 -0.109,0.448 -0.776,0.448 0,0 0,0.309 0,0.309 0,0 2.241,0 2.241,0 0,0 0,-0.309 0,-0.309 -0.518,0 -0.768,0 -0.777,-0.298 0,0 0,-1.904 0,-1.904 0,-0.856 0,-1.165 -0.309,-1.524 C 3.786,0.199 3.457,0 2.88,0 2.153,0 1.685,0.428 1.406,1.046 c 0,0 0,-1.046 0,-1.046 C 1.406,0 0,0.109 0,0.109 c 0,0 0,0.309 0,0.309 0.699,0 0.778,0.07 0.778,0.558 z"
       id="path234"
       inkscape:connector-curvature="0" />
  </g>
  <g
     transform="translate(20.918,54.177)"
     style="fill:#161413;fill-rule:evenodd;stroke:none"
     id="g236">
    <path
       d="m 3.578,3.616 c 0,0 0,0.896 0,0.896 0,0 1.434,-0.109 1.434,-0.109 0,0 0,-0.309 0,-0.309 -0.697,0 -0.777,-0.07 -0.777,-0.558 0,0 0,-3.536 0,-3.536 0,0 -1.464,0.109 -1.464,0.109 0,0 0,0.309 0,0.309 0.697,0 0.776,0.07 0.776,0.558 0,0 0,1.774 0,1.774 0,0.866 -0.477,1.544 -1.205,1.544 -0.837,0 -0.877,-0.469 -0.877,-0.987 0,0 0,-3.307 0,-3.307 C 1.465,0 0,0.109 0,0.109 c 0,0 0,0.309 0,0.309 0.778,0 0.778,0.03 0.778,0.917 0,0 0,1.494 0,1.494 0,0.777 0,1.683 1.514,1.683 0.558,0 0.996,-0.278 1.286,-0.896 z"
       id="path238"
       inkscape:connector-curvature="0" />
  </g>
  <g
     transform="translate(63.179,54.117)"
     style="fill:#161413;fill-rule:evenodd;stroke:none"
     id="g240">
    <path
       d="m 1.743,2.53 c 0.219,0.04 1.036,0.2 1.036,0.916 0,0.509 -0.348,0.908 -1.126,0.908 C 0.817,4.354 0.458,3.785 0.269,2.939 0.239,2.81 0.229,2.77 0.129,2.77 0,2.77 0,2.839 0,3.019 c 0,0 0,1.314 0,1.314 0,0.17 0,0.239 0.109,0.239 0.05,0 0.06,-0.009 0.25,-0.199 C 0.378,4.354 0.378,4.333 0.558,4.145 0.996,4.563 1.444,4.572 1.653,4.572 2.799,4.572 3.258,3.905 3.258,3.188 3.258,2.659 2.959,2.36 2.839,2.241 2.51,1.923 2.122,1.843 1.703,1.763 1.146,1.653 0.478,1.524 0.478,0.946 c 0,-0.348 0.259,-0.757 1.116,-0.757 1.096,0 1.145,0.897 1.166,1.206 0.01,0.089 0.099,0.089 0.119,0.089 0.13,0 0.13,-0.049 0.13,-0.239 0,0 0,-1.007 0,-1.007 C 3.009,0.069 3.009,0 2.899,0 2.849,0 2.829,0 2.699,0.119 2.67,0.159 2.57,0.249 2.53,0.278 2.151,0 1.743,0 1.594,0 0.378,0 0,0.667 0,1.225 0,1.574 0.159,1.853 0.428,2.072 0.747,2.331 1.025,2.391 1.743,2.53 z"
       id="path242"
       inkscape:connector-curvature="0" />
  </g>
  <g
     transform="translate(67.039,52.453)"
     style="fill:#161413;fill-rule:evenodd;stroke:none"
     id="g244">
    <path
       d="m 1.535,2.142 c 0,0 1.424,0 1.424,0 0,0 0,-0.309 0,-0.309 0,0 -1.424,0 -1.424,0 0,0 0,-1.833 0,-1.833 0,0 -0.249,0 -0.249,0 C 1.276,0.816 0.977,1.883 0,1.923 c 0,0 0,0.219 0,0.219 0,0 0.847,0 0.847,0 0,0 0,2.75 0,2.75 0,1.225 0.927,1.344 1.285,1.344 0.707,0 0.987,-0.707 0.987,-1.344 0,0 0,-0.569 0,-0.569 0,0 -0.249,0 -0.249,0 0,0 0,0.549 0,0.549 0,0.737 -0.299,1.115 -0.668,1.115 -0.667,0 -0.667,-0.906 -0.667,-1.076 0,0 0,-2.769 0,-2.769 z"
       id="path246"
       inkscape:connector-curvature="0" />
  </g>
  <g
     transform="translate(71.168,54.177)"
     style="fill:#161413;fill-rule:evenodd;stroke:none"
     id="g248">
    <path
       d="m 3.578,3.616 c 0,0 0,0.896 0,0.896 0,0 1.434,-0.109 1.434,-0.109 0,0 0,-0.309 0,-0.309 -0.697,0 -0.777,-0.07 -0.777,-0.558 0,0 0,-3.536 0,-3.536 0,0 -1.464,0.109 -1.464,0.109 0,0 0,0.309 0,0.309 0.697,0 0.776,0.07 0.776,0.558 0,0 0,1.774 0,1.774 0,0.866 -0.477,1.544 -1.205,1.544 -0.837,0 -0.877,-0.469 -0.877,-0.987 0,0 0,-3.307 0,-3.307 C 1.465,0 0,0.109 0,0.109 c 0,0 0,0.309 0,0.309 0.778,0 0.778,0.03 0.778,0.917 0,0 0,1.494 0,1.494 0,0.777 0,1.683 1.514,1.683 0.558,0 0.996,-0.278 1.286,-0.896 z"
       id="path250"
       inkscape:connector-curvature="0" />
  </g>
  <g
     transform="translate(76.619,51.557)"
     style="fill:#161413;fill-rule:evenodd;stroke:none"
     id="g252">
    <path
       d="m 4.194,3.038 c 0,0 1.146,0 1.146,0 0,0 0,-0.309 0,-0.309 0,0 -1.175,0 -1.175,0 0,0 0,-1.155 0,-1.155 0,-0.887 0.477,-1.356 0.926,-1.356 0.03,0 0.179,0 0.328,0.071 C 5.3,0.328 5.121,0.458 5.121,0.707 c 0,0.229 0.159,0.428 0.428,0.428 0.289,0 0.439,-0.199 0.439,-0.438 C 5.988,0.338 5.639,0 5.081,0 4.493,0 4.055,0.377 4.005,0.418 3.716,0.049 3.158,0 2.889,0 1.943,0 0.787,0.517 0.787,1.593 c 0,0 0,1.136 0,1.136 0,0 -0.787,0 -0.787,0 0,0 0,0.309 0,0.309 0,0 0.787,0 0.787,0 0,0 0,3.228 0,3.228 0,0.448 -0.11,0.448 -0.777,0.448 0,0 0,0.309 0,0.309 0,0 2.211,0 2.211,0 0,0 0,-0.309 0,-0.309 -0.667,0 -0.776,0 -0.776,-0.448 0,0 0,-3.228 0,-3.228 0,0 2.092,0 2.092,0 0,0 0,3.228 0,3.228 0,0.448 -0.11,0.448 -0.778,0.448 0,0 0,0.309 0,0.309 0,0 2.402,0 2.402,0 0,0 0,-0.309 0,-0.309 0,0 -0.209,0 -0.209,0 -0.738,0 -0.758,-0.109 -0.758,-0.468 0,0 0,-3.208 0,-3.208 z M 1.415,2.729 c 0,0 0,-1.126 0,-1.126 0,-0.966 0.817,-1.385 1.464,-1.385 0.489,0 0.767,0.19 0.777,0.19 0,0 0,0.01 0,0.01 -0.169,0.02 -0.368,0.149 -0.368,0.428 0,0.06 0.009,0.309 0.279,0.399 -0.03,0.13 -0.03,0.218 -0.03,0.339 0,0 0,1.145 0,1.145 0,0 -2.122,0 -2.122,0 z"
       id="path254"
       inkscape:connector-curvature="0" />
  </g>
  <g
     transform="translate(82.379,54.117)"
     style="fill:#161413;fill-rule:evenodd;stroke:none"
     id="g256">
    <path
       d="m 0.837,1.952 c 0.06,-1.484 0.897,-1.733 1.236,-1.733 1.025,0 1.125,1.345 1.125,1.733 0,0 -2.361,0 -2.361,0 z M 0.826,2.161 c 0,0 2.781,0 2.781,0 0.218,0 0.249,0 0.249,-0.209 C 3.856,0.966 3.318,0 2.073,0 0.916,0 0,1.025 0,2.272 c 0,1.335 1.046,2.3 2.192,2.3 1.216,0 1.664,-1.105 1.664,-1.295 0,-0.099 -0.08,-0.119 -0.13,-0.119 -0.09,0 -0.109,0.06 -0.13,0.139 C 3.247,4.323 2.351,4.323 2.251,4.323 1.753,4.323 1.355,4.025 1.125,3.656 0.826,3.178 0.826,2.521 0.826,2.161 z"
       id="path258"
       inkscape:connector-curvature="0" />
  </g>
  <g
     transform="translate(86.939,51.666)"
     style="fill:#161413;fill-rule:evenodd;stroke:none"
     id="g260">
    <path
       d="m 3.447,6.366 c 0,0 0,0.657 0,0.657 0,0 1.464,-0.109 1.464,-0.109 0,0 0,-0.309 0,-0.309 -0.697,0 -0.776,-0.07 -0.776,-0.558 0,0 0,-6.047 0,-6.047 0,0 -1.435,0.109 -1.435,0.109 0,0 0,0.309 0,0.309 0.697,0 0.776,0.07 0.776,0.558 0,0 0,2.152 0,2.152 C 3.187,2.769 2.76,2.511 2.222,2.511 1.046,2.511 0,3.487 0,4.772 0,6.037 0.976,7.023 2.112,7.023 2.75,7.023 3.198,6.685 3.447,6.366 z m 0,-2.67 c 0,0 0,2.042 0,2.042 0,0.18 0,0.199 -0.11,0.369 C 3.038,6.585 2.59,6.805 2.162,6.805 1.714,6.805 1.354,6.546 1.115,6.167 0.856,5.759 0.827,5.19 0.827,4.782 0.827,4.413 0.847,3.815 1.136,3.367 1.345,3.059 1.723,2.729 2.262,2.729 c 0.348,0 0.766,0.15 1.075,0.598 0.11,0.17 0.11,0.19 0.11,0.369 z"
       id="path262"
       inkscape:connector-curvature="0" />
  </g>
  <g
     transform="translate(140.768,51.945)"
     style="fill:#161413;fill-rule:evenodd;stroke:none"
     id="g264">
    <path
       d="m 3.238,3.467 c 0,0 0,0.318 0,0.318 0,2.332 -1.036,2.79 -1.614,2.79 -0.169,0 -0.707,-0.02 -0.976,-0.358 0.438,0 0.518,-0.289 0.518,-0.459 C 1.166,5.449 0.927,5.3 0.708,5.3 0.549,5.3 0.25,5.39 0.25,5.779 c 0,0.667 0.537,1.075 1.385,1.075 1.285,0 2.5,-1.355 2.5,-3.496 C 4.135,0.677 2.989,0 2.103,0 1.555,0 1.066,0.179 0.638,0.627 0.229,1.075 0,1.494 0,2.241 0,3.487 0.877,4.463 1.993,4.463 2.601,4.463 3.009,4.045 3.238,3.467 z M 2.003,4.234 c -0.159,0 -0.617,0 -0.927,-0.627 C 0.897,3.238 0.897,2.739 0.897,2.251 c 0,-0.538 0,-1.006 0.209,-1.375 0.269,-0.498 0.648,-0.627 0.997,-0.627 0.458,0 0.787,0.339 0.956,0.787 0.12,0.319 0.16,0.947 0.16,1.405 0,0.827 -0.339,1.793 -1.216,1.793 z"
       id="path266"
       inkscape:connector-curvature="0" />
  </g>
  <g
     transform="translate(145.848,51.945)"
     style="fill:#161413;fill-rule:evenodd;stroke:none"
     id="g268">
    <path
       d="m 0.768,5.867 c 0,0 1.055,-1.025 1.055,-1.025 C 3.377,3.467 3.976,2.929 3.976,1.933 3.976,0.797 3.078,0 1.863,0 0.737,0 0,0.916 0,1.803 c 0,0.558 0.498,0.558 0.528,0.558 0.169,0 0.518,-0.12 0.518,-0.528 0,-0.259 -0.179,-0.518 -0.527,-0.518 -0.08,0 -0.1,0 -0.13,0.009 0.229,-0.647 0.766,-1.015 1.344,-1.015 0.908,0 1.335,0.806 1.335,1.624 0,0.797 -0.498,1.584 -1.045,2.201 0,0 -1.914,2.133 -1.914,2.133 C 0,6.376 0,6.396 0,6.635 c 0,0 3.696,0 3.696,0 0,0 0.28,-1.733 0.28,-1.733 0,0 -0.249,0 -0.249,0 C 3.677,5.2 3.606,5.639 3.507,5.788 3.438,5.867 2.779,5.867 2.561,5.867 c 0,0 -1.793,0 -1.793,0 z"
       id="path270"
       inkscape:connector-curvature="0" />
  </g>
  <g
     transform="translate(151.206,57.524)"
     style="fill:#161413;fill-rule:evenodd;stroke:none"
     id="g272">
    <path
       d="M 1.057,0.528 C 1.057,0.239 0.818,0 0.529,0 0.24,0 0,0.239 0,0.528 c 0,0.289 0.24,0.528 0.529,0.528 0.289,0 0.528,-0.239 0.528,-0.528 z"
       id="path274"
       inkscape:connector-curvature="0" />
  </g>
  <g
     transform="translate(153.598,51.945)"
     style="fill:#161413;fill-rule:evenodd;stroke:none"
     id="g276">
    <path
       d="M 3.976,4.632 C 3.976,3.447 3.158,2.45 2.082,2.45 c -0.477,0 -0.906,0.161 -1.265,0.509 0,0 0,-1.943 0,-1.943 0.2,0.059 0.528,0.13 0.847,0.13 C 2.89,1.146 3.587,0.239 3.587,0.11 3.587,0.05 3.557,0 3.487,0 3.477,0 3.457,0 3.407,0.03 3.208,0.119 2.72,0.319 2.053,0.319 1.654,0.319 1.195,0.249 0.728,0.039 0.648,0.01 0.628,0.01 0.607,0.01 c -0.099,0 -0.099,0.079 -0.099,0.239 0,0 0,2.948 0,2.948 0,0.18 0,0.26 0.14,0.26 0.07,0 0.089,-0.03 0.129,-0.09 0.11,-0.159 0.479,-0.697 1.286,-0.697 0.517,0 0.766,0.458 0.846,0.638 0.159,0.368 0.18,0.757 0.18,1.255 0,0.348 0,0.946 -0.239,1.365 C 2.61,6.317 2.241,6.575 1.783,6.575 1.056,6.575 0.488,6.047 0.319,5.459 0.349,5.469 0.379,5.48 0.488,5.48 0.817,5.48 0.986,5.231 0.986,4.991 0.986,4.752 0.817,4.503 0.488,4.503 0.349,4.503 0,4.573 0,5.031 c 0,0.857 0.688,1.823 1.804,1.823 1.155,0 2.172,-0.956 2.172,-2.222 z"
       id="path278"
       inkscape:connector-curvature="0" />
  </g>
  <g
     transform="translate(158.739,51.945)"
     style="fill:#161413;fill-rule:evenodd;stroke:none"
     id="g280">
    <path
       d="M 4.194,3.447 C 4.194,2.65 4.144,1.853 3.796,1.115 3.337,0.159 2.52,0 2.101,0 1.504,0 0.777,0.259 0.368,1.186 0.049,1.873 0,2.65 0,3.447 0,4.195 0.04,5.091 0.448,5.848 0.877,6.655 1.603,6.854 2.091,6.854 2.63,6.854 3.386,6.645 3.825,5.698 4.144,5.011 4.194,4.234 4.194,3.447 z M 2.091,6.635 C 1.703,6.635 1.115,6.386 0.936,5.43 0.827,4.831 0.827,3.915 0.827,3.327 c 0,-0.637 0,-1.295 0.079,-1.833 0.189,-1.185 0.936,-1.275 1.185,-1.275 0.33,0 0.987,0.18 1.176,1.166 0.1,0.558 0.1,1.314 0.1,1.942 0,0.747 0,1.425 -0.11,2.063 C 3.108,6.336 2.54,6.635 2.091,6.635 z"
       id="path282"
       inkscape:connector-curvature="0" />
  </g>
  <g
     transform="translate(7.929,63.806)"
     style="fill:#161413;fill-rule:evenodd;stroke:none"
     id="g284">
    <path
       d="m 1.025,5.997 c 0,0.359 -0.019,0.468 -0.786,0.468 0,0 -0.239,0 -0.239,0 0,0 0,0.309 0,0.309 0,0 5.748,0 5.748,0 0,0 0.419,-2.57 0.419,-2.57 0,0 -0.25,0 -0.25,0 -0.249,1.534 -0.477,2.261 -2.191,2.261 0,0 -1.326,0 -1.326,0 -0.467,0 -0.488,-0.07 -0.488,-0.398 0,0 0,-2.66 0,-2.66 0,0 0.898,0 0.898,0 0.965,0 1.075,0.318 1.075,1.165 0,0 0.249,0 0.249,0 0,0 0,-2.64 0,-2.64 0,0 -0.249,0 -0.249,0 0,0.857 -0.11,1.166 -1.075,1.166 0,0 -0.898,0 -0.898,0 0,0 0,-2.391 0,-2.391 0,-0.329 0.021,-0.399 0.488,-0.399 0,0 1.286,0 1.286,0 1.524,0 1.794,0.548 1.953,1.933 0,0 0.249,0 0.249,0 C 5.888,2.241 5.609,0 5.609,0 5.609,0 0,0 0,0 c 0,0 0,0.308 0,0.308 0,0 0.239,0 0.239,0 0.767,0 0.786,0.11 0.786,0.469 0,0 0,5.22 0,5.22 z"
       id="path286"
       inkscape:connector-curvature="0" />
  </g>
  <g
     transform="translate(14.668,66.177)"
     style="fill:#161413;fill-rule:evenodd;stroke:none"
     id="g288">
    <path
       d="m 0.778,0.976 c 0,0 0,2.67 0,2.67 0,0.448 -0.11,0.448 -0.778,0.448 0,0 0,0.309 0,0.309 0,0 2.243,0 2.243,0 0,0 0,-0.309 0,-0.309 -0.668,0 -0.778,0 -0.778,-0.448 0,0 0,-1.833 0,-1.833 0,-1.036 0.707,-1.595 1.345,-1.595 0.628,0 0.737,0.539 0.737,1.107 0,0 0,2.321 0,2.321 0,0.448 -0.109,0.448 -0.776,0.448 0,0 0,0.309 0,0.309 0,0 2.241,0 2.241,0 0,0 0,-0.309 0,-0.309 -0.668,0 -0.777,0 -0.777,-0.448 0,0 0,-1.833 0,-1.833 0,-1.036 0.708,-1.595 1.344,-1.595 0.628,0 0.738,0.539 0.738,1.107 0,0 0,2.321 0,2.321 0,0.448 -0.11,0.448 -0.777,0.448 0,0 0,0.309 0,0.309 0,0 2.242,0 2.242,0 0,0 0,-0.309 0,-0.309 -0.518,0 -0.768,0 -0.778,-0.298 0,0 0,-1.904 0,-1.904 0,-0.856 0,-1.165 -0.308,-1.524 C 6.556,0.199 6.228,0 5.65,0 4.813,0 4.374,0.597 4.205,0.976 4.066,0.109 3.328,0 2.88,0 2.153,0 1.685,0.428 1.406,1.046 c 0,0 0,-1.046 0,-1.046 C 1.406,0 0,0.109 0,0.109 c 0,0 0,0.309 0,0.309 0.699,0 0.778,0.07 0.778,0.558 z"
       id="path290"
       inkscape:connector-curvature="0" />
  </g>
  <g
     transform="translate(22.668,66.177)"
     style="fill:#161413;fill-rule:evenodd;stroke:none"
     id="g292">
    <path
       d="m 3.578,3.616 c 0,0 0,0.896 0,0.896 0,0 1.434,-0.109 1.434,-0.109 0,0 0,-0.309 0,-0.309 -0.697,0 -0.777,-0.07 -0.777,-0.558 0,0 0,-3.536 0,-3.536 0,0 -1.464,0.109 -1.464,0.109 0,0 0,0.309 0,0.309 0.697,0 0.776,0.07 0.776,0.558 0,0 0,1.774 0,1.774 0,0.866 -0.477,1.544 -1.205,1.544 -0.837,0 -0.877,-0.469 -0.877,-0.987 0,0 0,-3.307 0,-3.307 C 1.465,0 0,0.109 0,0.109 c 0,0 0,0.309 0,0.309 0.778,0 0.778,0.03 0.778,0.917 0,0 0,1.494 0,1.494 0,0.777 0,1.683 1.514,1.683 0.558,0 0.996,-0.278 1.286,-0.896 z"
       id="path294"
       inkscape:connector-curvature="0" />
  </g>
  <g
     transform="translate(63.179,66.117)"
     style="fill:#161413;fill-rule:evenodd;stroke:none"
     id="g296">
    <path
       d="m 1.743,2.53 c 0.219,0.04 1.036,0.2 1.036,0.916 0,0.509 -0.348,0.908 -1.126,0.908 C 0.817,4.354 0.458,3.785 0.269,2.939 0.239,2.81 0.229,2.77 0.129,2.77 0,2.77 0,2.839 0,3.019 c 0,0 0,1.314 0,1.314 0,0.17 0,0.239 0.109,0.239 0.05,0 0.06,-0.009 0.25,-0.199 C 0.378,4.354 0.378,4.333 0.558,4.145 0.996,4.563 1.444,4.572 1.653,4.572 2.799,4.572 3.258,3.905 3.258,3.188 3.258,2.659 2.959,2.36 2.839,2.241 2.51,1.923 2.122,1.843 1.703,1.763 1.146,1.653 0.478,1.524 0.478,0.946 c 0,-0.348 0.259,-0.757 1.116,-0.757 1.096,0 1.145,0.897 1.166,1.206 0.01,0.089 0.099,0.089 0.119,0.089 0.13,0 0.13,-0.049 0.13,-0.239 0,0 0,-1.007 0,-1.007 C 3.009,0.069 3.009,0 2.899,0 2.849,0 2.829,0 2.699,0.119 2.67,0.159 2.57,0.249 2.53,0.278 2.151,0 1.743,0 1.594,0 0.378,0 0,0.667 0,1.225 0,1.574 0.159,1.853 0.428,2.072 0.747,2.331 1.025,2.391 1.743,2.53 z"
       id="path298"
       inkscape:connector-curvature="0" />
  </g>
  <g
     transform="translate(67.039,64.453)"
     style="fill:#161413;fill-rule:evenodd;stroke:none"
     id="g300">
    <path
       d="m 1.535,2.142 c 0,0 1.424,0 1.424,0 0,0 0,-0.309 0,-0.309 0,0 -1.424,0 -1.424,0 0,0 0,-1.833 0,-1.833 0,0 -0.249,0 -0.249,0 C 1.276,0.816 0.977,1.883 0,1.923 c 0,0 0,0.219 0,0.219 0,0 0.847,0 0.847,0 0,0 0,2.75 0,2.75 0,1.225 0.927,1.344 1.285,1.344 0.707,0 0.987,-0.707 0.987,-1.344 0,0 0,-0.569 0,-0.569 0,0 -0.249,0 -0.249,0 0,0 0,0.549 0,0.549 0,0.737 -0.299,1.115 -0.668,1.115 -0.667,0 -0.667,-0.906 -0.667,-1.076 0,0 0,-2.769 0,-2.769 z"
       id="path302"
       inkscape:connector-curvature="0" />
  </g>
  <g
     transform="translate(71.168,66.177)"
     style="fill:#161413;fill-rule:evenodd;stroke:none"
     id="g304">
    <path
       d="m 3.578,3.616 c 0,0 0,0.896 0,0.896 0,0 1.434,-0.109 1.434,-0.109 0,0 0,-0.309 0,-0.309 -0.697,0 -0.777,-0.07 -0.777,-0.558 0,0 0,-3.536 0,-3.536 0,0 -1.464,0.109 -1.464,0.109 0,0 0,0.309 0,0.309 0.697,0 0.776,0.07 0.776,0.558 0,0 0,1.774 0,1.774 0,0.866 -0.477,1.544 -1.205,1.544 -0.837,0 -0.877,-0.469 -0.877,-0.987 0,0 0,-3.307 0,-3.307 C 1.465,0 0,0.109 0,0.109 c 0,0 0,0.309 0,0.309 0.778,0 0.778,0.03 0.778,0.917 0,0 0,1.494 0,1.494 0,0.777 0,1.683 1.514,1.683 0.558,0 0.996,-0.278 1.286,-0.896 z"
       id="path306"
       inkscape:connector-curvature="0" />
  </g>
  <g
     transform="translate(76.619,63.557)"
     style="fill:#161413;fill-rule:evenodd;stroke:none"
     id="g308">
    <path
       d="m 4.194,3.038 c 0,0 1.146,0 1.146,0 0,0 0,-0.309 0,-0.309 0,0 -1.175,0 -1.175,0 0,0 0,-1.155 0,-1.155 0,-0.887 0.477,-1.356 0.926,-1.356 0.03,0 0.179,0 0.328,0.071 C 5.3,0.328 5.121,0.458 5.121,0.707 c 0,0.229 0.159,0.428 0.428,0.428 0.289,0 0.439,-0.199 0.439,-0.438 C 5.988,0.338 5.639,0 5.081,0 4.493,0 4.055,0.377 4.005,0.418 3.716,0.049 3.158,0 2.889,0 1.943,0 0.787,0.517 0.787,1.593 c 0,0 0,1.136 0,1.136 0,0 -0.787,0 -0.787,0 0,0 0,0.309 0,0.309 0,0 0.787,0 0.787,0 0,0 0,3.228 0,3.228 0,0.448 -0.11,0.448 -0.777,0.448 0,0 0,0.309 0,0.309 0,0 2.211,0 2.211,0 0,0 0,-0.309 0,-0.309 -0.667,0 -0.776,0 -0.776,-0.448 0,0 0,-3.228 0,-3.228 0,0 2.092,0 2.092,0 0,0 0,3.228 0,3.228 0,0.448 -0.11,0.448 -0.778,0.448 0,0 0,0.309 0,0.309 0,0 2.402,0 2.402,0 0,0 0,-0.309 0,-0.309 0,0 -0.209,0 -0.209,0 -0.738,0 -0.758,-0.109 -0.758,-0.468 0,0 0,-3.208 0,-3.208 z M 1.415,2.729 c 0,0 0,-1.126 0,-1.126 0,-0.966 0.817,-1.385 1.464,-1.385 0.489,0 0.767,0.19 0.777,0.19 0,0 0,0.01 0,0.01 -0.169,0.02 -0.368,0.149 -0.368,0.428 0,0.06 0.009,0.309 0.279,0.399 -0.03,0.13 -0.03,0.218 -0.03,0.339 0,0 0,1.145 0,1.145 0,0 -2.122,0 -2.122,0 z"
       id="path310"
       inkscape:connector-curvature="0" />
  </g>
  <g
     transform="translate(82.379,66.117)"
     style="fill:#161413;fill-rule:evenodd;stroke:none"
     id="g312">
    <path
       d="m 0.837,1.952 c 0.06,-1.484 0.897,-1.733 1.236,-1.733 1.025,0 1.125,1.345 1.125,1.733 0,0 -2.361,0 -2.361,0 z M 0.826,2.161 c 0,0 2.781,0 2.781,0 0.218,0 0.249,0 0.249,-0.209 C 3.856,0.966 3.318,0 2.073,0 0.916,0 0,1.025 0,2.272 c 0,1.335 1.046,2.3 2.192,2.3 1.216,0 1.664,-1.105 1.664,-1.295 0,-0.099 -0.08,-0.119 -0.13,-0.119 -0.09,0 -0.109,0.06 -0.13,0.139 C 3.247,4.323 2.351,4.323 2.251,4.323 1.753,4.323 1.355,4.025 1.125,3.656 0.826,3.178 0.826,2.521 0.826,2.161 z"
       id="path314"
       inkscape:connector-curvature="0" />
  </g>
  <g
     transform="translate(86.939,63.666)"
     style="fill:#161413;fill-rule:evenodd;stroke:none"
     id="g316">
    <path
       d="m 3.447,6.366 c 0,0 0,0.657 0,0.657 0,0 1.464,-0.109 1.464,-0.109 0,0 0,-0.309 0,-0.309 -0.697,0 -0.776,-0.07 -0.776,-0.558 0,0 0,-6.047 0,-6.047 0,0 -1.435,0.109 -1.435,0.109 0,0 0,0.309 0,0.309 0.697,0 0.776,0.07 0.776,0.558 0,0 0,2.152 0,2.152 C 3.187,2.769 2.76,2.511 2.222,2.511 1.046,2.511 0,3.487 0,4.772 0,6.037 0.976,7.023 2.112,7.023 2.75,7.023 3.198,6.685 3.447,6.366 z m 0,-2.67 c 0,0 0,2.042 0,2.042 0,0.18 0,0.199 -0.11,0.369 C 3.038,6.585 2.59,6.805 2.162,6.805 1.714,6.805 1.354,6.546 1.115,6.167 0.856,5.759 0.827,5.19 0.827,4.782 0.827,4.413 0.847,3.815 1.136,3.367 1.345,3.059 1.723,2.729 2.262,2.729 c 0.348,0 0.766,0.15 1.075,0.598 0.11,0.17 0.11,0.19 0.11,0.369 z"
       id="path318"
       inkscape:connector-curvature="0" />
  </g>
  <g
     transform="translate(140.768,63.945)"
     style="fill:#161413;fill-rule:evenodd;stroke:none"
     id="g320">
    <path
       d="M 2.472,3.128 C 3.288,2.86 3.866,2.161 3.866,1.374 3.866,0.558 2.989,0 2.033,0 1.026,0 0.27,0.598 0.27,1.355 c 0,0.329 0.218,0.518 0.507,0.518 0.309,0 0.508,-0.219 0.508,-0.509 0,-0.498 -0.468,-0.498 -0.617,-0.498 0.309,-0.488 0.967,-0.617 1.325,-0.617 0.408,0 0.956,0.219 0.956,1.115 0,0.121 -0.019,0.698 -0.278,1.136 -0.3,0.479 -0.638,0.509 -0.887,0.519 -0.08,0.01 -0.319,0.029 -0.389,0.029 -0.08,0.011 -0.149,0.021 -0.149,0.12 0,0.11 0.069,0.11 0.239,0.11 0,0 0.438,0 0.438,0 0.817,0 1.185,0.677 1.185,1.654 0,1.354 -0.687,1.643 -1.125,1.643 C 1.555,6.575 0.808,6.406 0.459,5.818 0.808,5.867 1.116,5.649 1.116,5.27 1.116,4.911 0.848,4.712 0.559,4.712 0.319,4.712 0,4.852 0,5.29 0,6.197 0.927,6.854 2.013,6.854 3.228,6.854 4.135,5.947 4.135,4.932 4.135,4.114 3.507,3.337 2.472,3.128 z"
       id="path322"
       inkscape:connector-curvature="0" />
  </g>
  <g
     transform="translate(145.768,63.945)"
     style="fill:#161413;fill-rule:evenodd;stroke:none"
     id="g324">
    <path
       d="M 2.472,3.128 C 3.288,2.86 3.866,2.161 3.866,1.374 3.866,0.558 2.989,0 2.033,0 1.026,0 0.27,0.598 0.27,1.355 c 0,0.329 0.218,0.518 0.507,0.518 0.309,0 0.508,-0.219 0.508,-0.509 0,-0.498 -0.468,-0.498 -0.617,-0.498 0.309,-0.488 0.967,-0.617 1.325,-0.617 0.408,0 0.956,0.219 0.956,1.115 0,0.121 -0.019,0.698 -0.278,1.136 -0.3,0.479 -0.638,0.509 -0.887,0.519 -0.08,0.01 -0.319,0.029 -0.389,0.029 -0.08,0.011 -0.149,0.021 -0.149,0.12 0,0.11 0.069,0.11 0.239,0.11 0,0 0.438,0 0.438,0 0.817,0 1.185,0.677 1.185,1.654 0,1.354 -0.687,1.643 -1.125,1.643 C 1.555,6.575 0.808,6.406 0.459,5.818 0.808,5.867 1.116,5.649 1.116,5.27 1.116,4.911 0.848,4.712 0.559,4.712 0.319,4.712 0,4.852 0,5.29 0,6.197 0.927,6.854 2.013,6.854 3.228,6.854 4.135,5.947 4.135,4.932 4.135,4.114 3.507,3.337 2.472,3.128 z"
       id="path326"
       inkscape:connector-curvature="0" />
  </g>
  <g
     transform="translate(151.206,69.524)"
     style="fill:#161413;fill-rule:evenodd;stroke:none"
     id="g328">
    <path
       d="M 1.057,0.528 C 1.057,0.239 0.818,0 0.529,0 0.24,0 0,0.239 0,0.528 c 0,0.289 0.24,0.528 0.529,0.528 0.289,0 0.528,-0.239 0.528,-0.528 z"
       id="path330"
       inkscape:connector-curvature="0" />
  </g>
  <g
     transform="translate(153.518,63.945)"
     style="fill:#161413;fill-rule:evenodd;stroke:none"
     id="g332">
    <path
       d="M 2.472,3.128 C 3.288,2.86 3.866,2.161 3.866,1.374 3.866,0.558 2.989,0 2.033,0 1.026,0 0.27,0.598 0.27,1.355 c 0,0.329 0.218,0.518 0.507,0.518 0.309,0 0.508,-0.219 0.508,-0.509 0,-0.498 -0.468,-0.498 -0.617,-0.498 0.309,-0.488 0.967,-0.617 1.325,-0.617 0.408,0 0.956,0.219 0.956,1.115 0,0.121 -0.019,0.698 -0.278,1.136 -0.3,0.479 -0.638,0.509 -0.887,0.519 -0.08,0.01 -0.319,0.029 -0.389,0.029 -0.08,0.011 -0.149,0.021 -0.149,0.12 0,0.11 0.069,0.11 0.239,0.11 0,0 0.438,0 0.438,0 0.817,0 1.185,0.677 1.185,1.654 0,1.354 -0.687,1.643 -1.125,1.643 C 1.555,6.575 0.808,6.406 0.459,5.818 0.808,5.867 1.116,5.649 1.116,5.27 1.116,4.911 0.848,4.712 0.559,4.712 0.319,4.712 0,4.852 0,5.29 0,6.197 0.927,6.854 2.013,6.854 3.228,6.854 4.135,5.947 4.135,4.932 4.135,4.114 3.507,3.337 2.472,3.128 z"
       id="path334"
       inkscape:connector-curvature="0" />
  </g>
  <g
     transform="translate(158.768,63.945)"
     style="fill:#161413;fill-rule:evenodd;stroke:none"
     id="g336">
    <path
       d="M 2.472,3.128 C 3.288,2.86 3.866,2.161 3.866,1.374 3.866,0.558 2.989,0 2.033,0 1.026,0 0.27,0.598 0.27,1.355 c 0,0.329 0.218,0.518 0.507,0.518 0.309,0 0.508,-0.219 0.508,-0.509 0,-0.498 -0.468,-0.498 -0.617,-0.498 0.309,-0.488 0.967,-0.617 1.325,-0.617 0.408,0 0.956,0.219 0.956,1.115 0,0.121 -0.019,0.698 -0.278,1.136 -0.3,0.479 -0.638,0.509 -0.887,0.519 -0.08,0.01 -0.319,0.029 -0.389,0.029 -0.08,0.011 -0.149,0.021 -0.149,0.12 0,0.11 0.069,0.11 0.239,0.11 0,0 0.438,0 0.438,0 0.817,0 1.185,0.677 1.185,1.654 0,1.354 -0.687,1.643 -1.125,1.643 C 1.555,6.575 0.808,6.406 0.459,5.818 0.808,5.867 1.116,5.649 1.116,5.27 1.116,4.911 0.848,4.712 0.559,4.712 0.319,4.712 0,4.852 0,5.29 0,6.197 0.927,6.854 2.013,6.854 3.228,6.854 4.135,5.947 4.135,4.932 4.135,4.114 3.507,3.337 2.472,3.128 z"
       id="path338"
       inkscape:connector-curvature="0" />
  </g>
  <g
     transform="translate(7.918,75.447)"
     style="fill:#161413;fill-rule:evenodd;stroke:none"
     id="g340">
    <path
       d="M 3.647,0.199 C 3.597,0.07 3.578,0 3.418,0 3.258,0 3.229,0.06 3.179,0.199 c 0,0 -2.062,5.957 -2.062,5.957 C 0.937,6.665 0.538,6.815 0,6.824 c 0,0 0,0.309 0,0.309 0,0 2.162,0 2.162,0 0,0 0,-0.309 0,-0.309 -0.498,0 -0.747,-0.249 -0.747,-0.508 0,-0.03 0.01,-0.129 0.021,-0.15 0,0 0.458,-1.304 0.458,-1.304 0,0 2.461,0 2.461,0 0,0 0.527,1.524 0.527,1.524 0.011,0.04 0.03,0.1 0.03,0.14 0,0.298 -0.557,0.298 -0.827,0.298 0,0 0,0.309 0,0.309 0,0 2.741,0 2.741,0 0,0 0,-0.309 0,-0.309 0,0 -0.18,0 -0.18,0 -0.598,0 -0.737,-0.07 -0.847,-0.398 0,0 -2.152,-6.227 -2.152,-6.227 z M 3.12,1.315 c 0,0 1.124,3.238 1.124,3.238 0,0 -2.241,0 -2.241,0 0,0 1.117,-3.238 1.117,-3.238 z"
       id="path342"
       inkscape:connector-curvature="0" />
  </g>
  <g
     transform="translate(15.129,78.177)"
     style="fill:#161413;fill-rule:evenodd;stroke:none"
     id="g344">
    <path
       d="m 1.385,1.095 c 0,0 0,-1.095 0,-1.095 C 1.385,0 0,0.109 0,0.109 c 0,0 0,0.309 0,0.309 0.698,0 0.777,0.07 0.777,0.558 0,0 0,2.67 0,2.67 0,0.448 -0.11,0.448 -0.777,0.448 0,0 0,0.309 0,0.309 0,0 2.401,0 2.401,0 0,0 0,-0.309 0,-0.309 0,0 -0.209,0 -0.209,0 -0.738,0 -0.757,-0.109 -0.757,-0.468 0,0 0,-1.535 0,-1.535 0,-0.986 0.418,-1.873 1.176,-1.873 0.069,0 0.089,0 0.109,0.01 -0.03,0.011 -0.229,0.13 -0.229,0.389 0,0.279 0.209,0.429 0.428,0.429 0.179,0 0.428,-0.12 0.428,-0.439 C 3.347,0.289 3.038,0 2.611,0 1.883,0 1.525,0.667 1.385,1.095 z"
       id="path346"
       inkscape:connector-curvature="0" />
  </g>
  <g
     transform="translate(19.168,78.177)"
     style="fill:#161413;fill-rule:evenodd;stroke:none"
     id="g348">
    <path
       d="m 0.778,0.976 c 0,0 0,2.67 0,2.67 0,0.448 -0.11,0.448 -0.778,0.448 0,0 0,0.309 0,0.309 0,0 2.243,0 2.243,0 0,0 0,-0.309 0,-0.309 -0.668,0 -0.778,0 -0.778,-0.448 0,0 0,-1.833 0,-1.833 0,-1.036 0.707,-1.595 1.345,-1.595 0.628,0 0.737,0.539 0.737,1.107 0,0 0,2.321 0,2.321 0,0.448 -0.109,0.448 -0.776,0.448 0,0 0,0.309 0,0.309 0,0 2.241,0 2.241,0 0,0 0,-0.309 0,-0.309 -0.668,0 -0.777,0 -0.777,-0.448 0,0 0,-1.833 0,-1.833 0,-1.036 0.708,-1.595 1.344,-1.595 0.628,0 0.738,0.539 0.738,1.107 0,0 0,2.321 0,2.321 0,0.448 -0.11,0.448 -0.777,0.448 0,0 0,0.309 0,0.309 0,0 2.242,0 2.242,0 0,0 0,-0.309 0,-0.309 -0.518,0 -0.768,0 -0.778,-0.298 0,0 0,-1.904 0,-1.904 0,-0.856 0,-1.165 -0.308,-1.524 C 6.556,0.199 6.228,0 5.65,0 4.813,0 4.374,0.597 4.205,0.976 4.066,0.109 3.328,0 2.88,0 2.153,0 1.685,0.428 1.406,1.046 c 0,0 0,-1.046 0,-1.046 C 1.406,0 0,0.109 0,0.109 c 0,0 0,0.309 0,0.309 0.699,0 0.778,0.07 0.778,0.558 z"
       id="path350"
       inkscape:connector-curvature="0" />
  </g>
  <g
     transform="translate(27.518,78.117)"
     style="fill:#161413;fill-rule:evenodd;stroke:none"
     id="g352">
    <path
       d="m 2.899,3.706 c 0.04,0.399 0.309,0.817 0.778,0.817 0.209,0 0.816,-0.14 0.816,-0.947 0,0 0,-0.557 0,-0.557 0,0 -0.249,0 -0.249,0 0,0 0,0.557 0,0.557 0,0.578 -0.249,0.638 -0.358,0.638 -0.329,0 -0.368,-0.448 -0.368,-0.498 0,0 0,-1.992 0,-1.992 0,-0.419 0,-0.808 -0.36,-1.176 C 2.77,0.159 2.271,0 1.794,0 0.977,0 0.289,0.468 0.289,1.125 c 0,0.299 0.199,0.469 0.459,0.469 0.278,0 0.458,-0.199 0.458,-0.458 0,-0.12 -0.05,-0.448 -0.508,-0.459 0.269,-0.349 0.757,-0.458 1.075,-0.458 0.489,0 1.057,0.389 1.057,1.275 0,0 0,0.368 0,0.368 C 2.321,1.893 1.624,1.923 0.997,2.222 0.25,2.56 0,3.078 0,3.517 0,4.323 0.967,4.572 1.595,4.572 2.252,4.572 2.71,4.174 2.899,3.706 z M 2.83,2.072 c 0,0 0,0.996 0,0.996 0,0.947 -0.718,1.286 -1.166,1.286 -0.488,0 -0.896,-0.349 -0.896,-0.847 0,-0.548 0.418,-1.375 2.062,-1.435 z"
       id="path354"
       inkscape:connector-curvature="0" />
  </g>
  <g
     transform="translate(32.689,75.666)"
     style="fill:#161413;fill-rule:evenodd;stroke:none"
     id="g356">
    <path
       d="m 3.447,6.366 c 0,0 0,0.657 0,0.657 0,0 1.464,-0.109 1.464,-0.109 0,0 0,-0.309 0,-0.309 -0.697,0 -0.776,-0.07 -0.776,-0.558 0,0 0,-6.047 0,-6.047 0,0 -1.435,0.109 -1.435,0.109 0,0 0,0.309 0,0.309 0.697,0 0.776,0.07 0.776,0.558 0,0 0,2.152 0,2.152 C 3.187,2.769 2.76,2.511 2.222,2.511 1.046,2.511 0,3.487 0,4.772 0,6.037 0.976,7.023 2.112,7.023 2.75,7.023 3.198,6.685 3.447,6.366 z m 0,-2.67 c 0,0 0,2.042 0,2.042 0,0.18 0,0.199 -0.11,0.369 C 3.038,6.585 2.59,6.805 2.162,6.805 1.714,6.805 1.354,6.546 1.115,6.167 0.856,5.759 0.827,5.19 0.827,4.782 0.827,4.413 0.847,3.815 1.136,3.367 1.345,3.059 1.723,2.729 2.262,2.729 c 0.348,0 0.766,0.15 1.075,0.598 0.11,0.17 0.11,0.19 0.11,0.369 z"
       id="path358"
       inkscape:connector-curvature="0" />
  </g>
  <g
     transform="translate(38.179,75.915)"
     style="fill:#161413;fill-rule:evenodd;stroke:none"
     id="g360">
    <path
       d="m 1.435,2.262 c 0,0 -1.396,0.109 -1.396,0.109 0,0 0,0.309 0,0.309 0.649,0 0.737,0.06 0.737,0.547 0,0 0,2.681 0,2.681 0,0.448 -0.109,0.448 -0.776,0.448 0,0 0,0.309 0,0.309 0,0 2.132,0 2.132,0 0,0 0,-0.309 0,-0.309 -0.657,0 -0.697,-0.049 -0.697,-0.438 0,0 0,-3.656 0,-3.656 z M 1.475,0.528 C 1.475,0.209 1.225,0 0.946,0 0.638,0 0.418,0.269 0.418,0.528 c 0,0.269 0.22,0.528 0.528,0.528 0.279,0 0.529,-0.209 0.529,-0.528 z"
       id="path362"
       inkscape:connector-curvature="0" />
  </g>
  <g
     transform="translate(40.929,75.666)"
     style="fill:#161413;fill-rule:evenodd;stroke:none"
     id="g364">
    <path
       d="M 1.435,0 C 1.435,0 0,0.109 0,0.109 c 0,0 0,0.309 0,0.309 0.697,0 0.776,0.07 0.776,0.558 0,0 0,5.181 0,5.181 0,0.448 -0.109,0.448 -0.776,0.448 0,0 0,0.309 0,0.309 0,0 2.211,0 2.211,0 0,0 0,-0.309 0,-0.309 -0.667,0 -0.776,0 -0.776,-0.448 0,0 0,-6.157 0,-6.157 z"
       id="path366"
       inkscape:connector-curvature="0" />
  </g>
  <g
     transform="translate(43.679,75.666)"
     style="fill:#161413;fill-rule:evenodd;stroke:none"
     id="g368">
    <path
       d="M 1.435,0 C 1.435,0 0,0.109 0,0.109 c 0,0 0,0.309 0,0.309 0.697,0 0.776,0.07 0.776,0.558 0,0 0,5.181 0,5.181 0,0.448 -0.109,0.448 -0.776,0.448 0,0 0,0.309 0,0.309 0,0 2.211,0 2.211,0 0,0 0,-0.309 0,-0.309 -0.667,0 -0.776,0 -0.776,-0.448 0,0 0,-6.157 0,-6.157 z"
       id="path370"
       inkscape:connector-curvature="0" />
  </g>
  <g
     transform="translate(46.379,78.117)"
     style="fill:#161413;fill-rule:evenodd;stroke:none"
     id="g372">
    <path
       d="M 4.413,2.331 C 4.413,1.056 3.417,0 2.211,0 0.966,0 0,1.086 0,2.331 0,3.616 1.036,4.572 2.201,4.572 3.408,4.572 4.413,3.596 4.413,2.331 z M 2.211,4.323 C 1.783,4.323 1.345,4.114 1.075,3.656 0.826,3.218 0.826,2.609 0.826,2.251 c 0,-0.389 0,-0.927 0.24,-1.364 0.269,-0.459 0.737,-0.668 1.135,-0.668 0.439,0 0.868,0.22 1.126,0.647 0.259,0.429 0.259,1.007 0.259,1.385 0,0.358 0,0.897 -0.219,1.335 C 3.148,4.034 2.71,4.323 2.211,4.323 z"
       id="path374"
       inkscape:connector-curvature="0" />
  </g>
  <g
     transform="translate(63.179,75.557)"
     style="fill:#161413;fill-rule:evenodd;stroke:none"
     id="g376">
    <path
       d="m 1.414,2.729 c 0,0 0,-1.155 0,-1.155 0,-0.877 0.479,-1.356 0.917,-1.356 0.029,0 0.179,0 0.329,0.071 -0.12,0.039 -0.3,0.169 -0.3,0.418 0,0.229 0.161,0.428 0.429,0.428 0.289,0 0.439,-0.199 0.439,-0.438 C 3.228,0.328 2.859,0 2.331,0 1.634,0 0.787,0.527 0.787,1.584 c 0,0 0,1.145 0,1.145 0,0 -0.787,0 -0.787,0 0,0 0,0.309 0,0.309 0,0 0.787,0 0.787,0 0,0 0,3.228 0,3.228 0,0.448 -0.11,0.448 -0.777,0.448 0,0 0,0.309 0,0.309 0,0 2.4,0 2.4,0 0,0 0,-0.309 0,-0.309 0,0 -0.209,0 -0.209,0 -0.737,0 -0.757,-0.109 -0.757,-0.468 0,0 0,-3.208 0,-3.208 0,0 1.136,0 1.136,0 0,0 0,-0.309 0,-0.309 0,0 -1.166,0 -1.166,0 z"
       id="path378"
       inkscape:connector-curvature="0" />
  </g>
  <g
     transform="translate(66.129,78.177)"
     style="fill:#161413;fill-rule:evenodd;stroke:none"
     id="g380">
    <path
       d="m 1.385,1.095 c 0,0 0,-1.095 0,-1.095 C 1.385,0 0,0.109 0,0.109 c 0,0 0,0.309 0,0.309 0.698,0 0.777,0.07 0.777,0.558 0,0 0,2.67 0,2.67 0,0.448 -0.11,0.448 -0.777,0.448 0,0 0,0.309 0,0.309 0,0 2.401,0 2.401,0 0,0 0,-0.309 0,-0.309 0,0 -0.209,0 -0.209,0 -0.738,0 -0.757,-0.109 -0.757,-0.468 0,0 0,-1.535 0,-1.535 0,-0.986 0.418,-1.873 1.176,-1.873 0.069,0 0.089,0 0.109,0.01 -0.03,0.011 -0.229,0.13 -0.229,0.389 0,0.279 0.209,0.429 0.428,0.429 0.179,0 0.428,-0.12 0.428,-0.439 C 3.347,0.289 3.038,0 2.611,0 1.883,0 1.525,0.667 1.385,1.095 z"
       id="path382"
       inkscape:connector-curvature="0" />
  </g>
  <g
     transform="translate(70.129,78.117)"
     style="fill:#161413;fill-rule:evenodd;stroke:none"
     id="g384">
    <path
       d="M 4.413,2.331 C 4.413,1.056 3.417,0 2.211,0 0.966,0 0,1.086 0,2.331 0,3.616 1.036,4.572 2.201,4.572 3.408,4.572 4.413,3.596 4.413,2.331 z M 2.211,4.323 C 1.783,4.323 1.345,4.114 1.075,3.656 0.826,3.218 0.826,2.609 0.826,2.251 c 0,-0.389 0,-0.927 0.24,-1.364 0.269,-0.459 0.737,-0.668 1.135,-0.668 0.439,0 0.868,0.22 1.126,0.647 0.259,0.429 0.259,1.007 0.259,1.385 0,0.358 0,0.897 -0.219,1.335 C 3.148,4.034 2.71,4.323 2.211,4.323 z"
       id="path386"
       inkscape:connector-curvature="0" />
  </g>
  <g
     transform="translate(75.129,78.286)"
     style="fill:#161413;fill-rule:evenodd;stroke:none"
     id="g388">
    <path
       d="M 3.607,0.299 C 3.696,0.19 3.696,0.169 3.696,0.13 3.696,0 3.617,0 3.437,0 c 0,0 -3.188,0 -3.188,0 0,0 -0.11,1.605 -0.11,1.605 0,0 0.25,0 0.25,0 0.06,-1.017 0.249,-1.386 1.345,-1.386 0,0 1.135,0 1.135,0 0,0 -2.78,3.757 -2.78,3.757 C 0,4.085 0,4.105 0,4.154 c 0,0.14 0.07,0.14 0.259,0.14 0,0 3.287,0 3.287,0 0,0 0.17,-1.863 0.17,-1.863 0,0 -0.249,0 -0.249,0 -0.09,1.175 -0.299,1.614 -1.455,1.614 0,0 -1.175,0 -1.175,0 0,0 2.77,-3.746 2.77,-3.746 z"
       id="path390"
       inkscape:connector-curvature="0" />
  </g>
  <g
     transform="translate(79.629,78.117)"
     style="fill:#161413;fill-rule:evenodd;stroke:none"
     id="g392">
    <path
       d="m 0.837,1.952 c 0.06,-1.484 0.897,-1.733 1.236,-1.733 1.025,0 1.125,1.345 1.125,1.733 0,0 -2.361,0 -2.361,0 z M 0.826,2.161 c 0,0 2.781,0 2.781,0 0.218,0 0.249,0 0.249,-0.209 C 3.856,0.966 3.318,0 2.073,0 0.916,0 0,1.025 0,2.272 c 0,1.335 1.046,2.3 2.192,2.3 1.216,0 1.664,-1.105 1.664,-1.295 0,-0.099 -0.08,-0.119 -0.13,-0.119 -0.09,0 -0.109,0.06 -0.13,0.139 C 3.247,4.323 2.351,4.323 2.251,4.323 1.753,4.323 1.355,4.025 1.125,3.656 0.826,3.178 0.826,2.521 0.826,2.161 z"
       id="path394"
       inkscape:connector-curvature="0" />
  </g>
  <g
     transform="translate(84.168,78.177)"
     style="fill:#161413;fill-rule:evenodd;stroke:none"
     id="g396">
    <path
       d="m 0.778,0.976 c 0,0 0,2.67 0,2.67 0,0.448 -0.11,0.448 -0.778,0.448 0,0 0,0.309 0,0.309 0,0 2.243,0 2.243,0 0,0 0,-0.309 0,-0.309 -0.668,0 -0.778,0 -0.778,-0.448 0,0 0,-1.833 0,-1.833 0,-1.036 0.707,-1.595 1.345,-1.595 0.628,0 0.737,0.539 0.737,1.107 0,0 0,2.321 0,2.321 0,0.448 -0.109,0.448 -0.776,0.448 0,0 0,0.309 0,0.309 0,0 2.241,0 2.241,0 0,0 0,-0.309 0,-0.309 -0.518,0 -0.768,0 -0.777,-0.298 0,0 0,-1.904 0,-1.904 0,-0.856 0,-1.165 -0.309,-1.524 C 3.786,0.199 3.457,0 2.88,0 2.153,0 1.685,0.428 1.406,1.046 c 0,0 0,-1.046 0,-1.046 C 1.406,0 0,0.109 0,0.109 c 0,0 0,0.309 0,0.309 0.699,0 0.778,0.07 0.778,0.558 z"
       id="path398"
       inkscape:connector-curvature="0" />
  </g>
  <g
     transform="translate(145.768,75.945)"
     style="fill:#161413;fill-rule:evenodd;stroke:none"
     id="g400">
    <path
       d="M 1.206,2.082 C 0.748,1.783 0.708,1.445 0.708,1.275 c 0,-0.608 0.647,-1.026 1.354,-1.026 0.728,0 1.366,0.518 1.366,1.236 0,0.567 -0.389,1.046 -0.987,1.394 0,0 -1.235,-0.797 -1.235,-0.797 z M 2.66,3.029 C 3.378,2.66 3.866,2.142 3.866,1.485 3.866,0.568 2.979,0 2.072,0 1.076,0 0.27,0.738 0.27,1.663 0.27,1.843 0.289,2.291 0.708,2.76 0.817,2.879 1.186,3.128 1.436,3.297 0.857,3.586 0,4.145 0,5.131 0,6.187 1.017,6.854 2.062,6.854 3.188,6.854 4.135,6.028 4.135,4.961 4.135,4.603 4.025,4.155 3.646,3.736 3.457,3.527 3.298,3.427 2.66,3.029 z M 1.664,3.447 c 0,0 1.226,0.777 1.226,0.777 0.279,0.189 0.747,0.488 0.747,1.096 0,0.737 -0.747,1.255 -1.565,1.255 -0.856,0 -1.573,-0.618 -1.573,-1.444 0,-0.578 0.318,-1.216 1.165,-1.684 z"
       id="path402"
       inkscape:connector-curvature="0" />
  </g>
  <g
     transform="translate(151.206,81.524)"
     style="fill:#161413;fill-rule:evenodd;stroke:none"
     id="g404">
    <path
       d="M 1.057,0.528 C 1.057,0.239 0.818,0 0.529,0 0.24,0 0,0.239 0,0.528 c 0,0.289 0.24,0.528 0.529,0.528 0.289,0 0.528,-0.239 0.528,-0.528 z"
       id="path406"
       inkscape:connector-curvature="0" />
  </g>
  <g
     transform="translate(153.518,75.945)"
     style="fill:#161413;fill-rule:evenodd;stroke:none"
     id="g408">
    <path
       d="m 3.238,3.467 c 0,0 0,0.318 0,0.318 0,2.332 -1.036,2.79 -1.614,2.79 -0.169,0 -0.707,-0.02 -0.976,-0.358 0.438,0 0.518,-0.289 0.518,-0.459 C 1.166,5.449 0.927,5.3 0.708,5.3 0.549,5.3 0.25,5.39 0.25,5.779 c 0,0.667 0.537,1.075 1.385,1.075 1.285,0 2.5,-1.355 2.5,-3.496 C 4.135,0.677 2.989,0 2.103,0 1.555,0 1.066,0.179 0.638,0.627 0.229,1.075 0,1.494 0,2.241 0,3.487 0.877,4.463 1.993,4.463 2.601,4.463 3.009,4.045 3.238,3.467 z M 2.003,4.234 c -0.159,0 -0.617,0 -0.927,-0.627 C 0.897,3.238 0.897,2.739 0.897,2.251 c 0,-0.538 0,-1.006 0.209,-1.375 0.269,-0.498 0.648,-0.627 0.997,-0.627 0.458,0 0.787,0.339 0.956,0.787 0.12,0.319 0.16,0.947 0.16,1.405 0,0.827 -0.339,1.793 -1.216,1.793 z"
       id="path410"
       inkscape:connector-curvature="0" />
  </g>
  <g
     transform="translate(158.518,75.945)"
     style="fill:#161413;fill-rule:evenodd;stroke:none"
     id="g412">
    <path
       d="m 3.238,3.467 c 0,0 0,0.318 0,0.318 0,2.332 -1.036,2.79 -1.614,2.79 -0.169,0 -0.707,-0.02 -0.976,-0.358 0.438,0 0.518,-0.289 0.518,-0.459 C 1.166,5.449 0.927,5.3 0.708,5.3 0.549,5.3 0.25,5.39 0.25,5.779 c 0,0.667 0.537,1.075 1.385,1.075 1.285,0 2.5,-1.355 2.5,-3.496 C 4.135,0.677 2.989,0 2.103,0 1.555,0 1.066,0.179 0.638,0.627 0.229,1.075 0,1.494 0,2.241 0,3.487 0.877,4.463 1.993,4.463 2.601,4.463 3.009,4.045 3.238,3.467 z M 2.003,4.234 c -0.159,0 -0.617,0 -0.927,-0.627 C 0.897,3.238 0.897,2.739 0.897,2.251 c 0,-0.538 0,-1.006 0.209,-1.375 0.269,-0.498 0.648,-0.627 0.997,-0.627 0.458,0 0.787,0.339 0.956,0.787 0.12,0.319 0.16,0.947 0.16,1.405 0,0.827 -0.339,1.793 -1.216,1.793 z"
       id="path414"
       inkscape:connector-curvature="0" />
  </g>
  <g
     transform="translate(1.6,86.1)"
     style="fill:#161413;fill-rule:nonzero;stroke:none"
     id="g416">
    <path
       d="m 0,0.48 c 0,0 167.52,0 167.52,0 0,0 0,-0.48 0,-0.48 C 167.52,0 0,0 0,0"
       id="path418"
       inkscape:connector-curvature="0" />
  </g>
</svg>
